G04 #@! TF.GenerationSoftware,KiCad,Pcbnew,(5.1.6)-1*
G04 #@! TF.CreationDate,2020-09-29T14:05:31-05:00*
G04 #@! TF.ProjectId,Power-Primary,506f7765-722d-4507-9269-6d6172792e6b,rev?*
G04 #@! TF.SameCoordinates,Original*
G04 #@! TF.FileFunction,Legend,Bot*
G04 #@! TF.FilePolarity,Positive*
%FSLAX46Y46*%
G04 Gerber Fmt 4.6, Leading zero omitted, Abs format (unit mm)*
G04 Created by KiCad (PCBNEW (5.1.6)-1) date 2020-09-29 14:05:31*
%MOMM*%
%LPD*%
G01*
G04 APERTURE LIST*
%ADD10C,0.300000*%
%ADD11C,0.010000*%
%ADD12C,0.150000*%
G04 APERTURE END LIST*
D10*
X81171171Y-69054200D02*
X79671171Y-69054200D01*
X79671171Y-69411342D01*
X79742600Y-69625628D01*
X79885457Y-69768485D01*
X80028314Y-69839914D01*
X80314028Y-69911342D01*
X80528314Y-69911342D01*
X80814028Y-69839914D01*
X80956885Y-69768485D01*
X81099742Y-69625628D01*
X81171171Y-69411342D01*
X81171171Y-69054200D01*
X81171171Y-70554200D02*
X80171171Y-70554200D01*
X80456885Y-70554200D02*
X80314028Y-70625628D01*
X80242600Y-70697057D01*
X80171171Y-70839914D01*
X80171171Y-70982771D01*
X81028314Y-71482771D02*
X81099742Y-71554200D01*
X81171171Y-71482771D01*
X81099742Y-71411342D01*
X81028314Y-71482771D01*
X81171171Y-71482771D01*
X79742600Y-74125628D02*
X79671171Y-73982771D01*
X79671171Y-73768485D01*
X79742600Y-73554200D01*
X79885457Y-73411342D01*
X80028314Y-73339914D01*
X80314028Y-73268485D01*
X80528314Y-73268485D01*
X80814028Y-73339914D01*
X80956885Y-73411342D01*
X81099742Y-73554200D01*
X81171171Y-73768485D01*
X81171171Y-73911342D01*
X81099742Y-74125628D01*
X81028314Y-74197057D01*
X80528314Y-74197057D01*
X80528314Y-73911342D01*
X81171171Y-75482771D02*
X80385457Y-75482771D01*
X80242600Y-75411342D01*
X80171171Y-75268485D01*
X80171171Y-74982771D01*
X80242600Y-74839914D01*
X81099742Y-75482771D02*
X81171171Y-75339914D01*
X81171171Y-74982771D01*
X81099742Y-74839914D01*
X80956885Y-74768485D01*
X80814028Y-74768485D01*
X80671171Y-74839914D01*
X80599742Y-74982771D01*
X80599742Y-75339914D01*
X80528314Y-75482771D01*
X81171171Y-76197057D02*
X80171171Y-76197057D01*
X80456885Y-76197057D02*
X80314028Y-76268485D01*
X80242600Y-76339914D01*
X80171171Y-76482771D01*
X80171171Y-76625628D01*
X80171171Y-76982771D02*
X81171171Y-77339914D01*
X80171171Y-77697057D02*
X81171171Y-77339914D01*
X81528314Y-77197057D01*
X81599742Y-77125628D01*
X81671171Y-76982771D01*
X81171171Y-79411342D02*
X79671171Y-79411342D01*
X80385457Y-79411342D02*
X80385457Y-80268485D01*
X81171171Y-80268485D02*
X79671171Y-80268485D01*
X81171171Y-81625628D02*
X80385457Y-81625628D01*
X80242600Y-81554200D01*
X80171171Y-81411342D01*
X80171171Y-81125628D01*
X80242600Y-80982771D01*
X81099742Y-81625628D02*
X81171171Y-81482771D01*
X81171171Y-81125628D01*
X81099742Y-80982771D01*
X80956885Y-80911342D01*
X80814028Y-80911342D01*
X80671171Y-80982771D01*
X80599742Y-81125628D01*
X80599742Y-81482771D01*
X80528314Y-81625628D01*
X81171171Y-82554200D02*
X81099742Y-82411342D01*
X80956885Y-82339914D01*
X79671171Y-82339914D01*
X81171171Y-83339914D02*
X81099742Y-83197057D01*
X80956885Y-83125628D01*
X79671171Y-83125628D01*
X81171171Y-84125628D02*
X81099742Y-83982771D01*
X81028314Y-83911342D01*
X80885457Y-83839914D01*
X80456885Y-83839914D01*
X80314028Y-83911342D01*
X80242600Y-83982771D01*
X80171171Y-84125628D01*
X80171171Y-84339914D01*
X80242600Y-84482771D01*
X80314028Y-84554200D01*
X80456885Y-84625628D01*
X80885457Y-84625628D01*
X81028314Y-84554200D01*
X81099742Y-84482771D01*
X81171171Y-84339914D01*
X81171171Y-84125628D01*
X81099742Y-85911342D02*
X81171171Y-85768485D01*
X81171171Y-85482771D01*
X81099742Y-85339914D01*
X81028314Y-85268485D01*
X80885457Y-85197057D01*
X80456885Y-85197057D01*
X80314028Y-85268485D01*
X80242600Y-85339914D01*
X80171171Y-85482771D01*
X80171171Y-85768485D01*
X80242600Y-85911342D01*
X81171171Y-86554200D02*
X79671171Y-86554200D01*
X80599742Y-86697057D02*
X81171171Y-87125628D01*
X80171171Y-87125628D02*
X80742600Y-86554200D01*
X36763685Y-96333571D02*
X36263685Y-97833571D01*
X35763685Y-96333571D01*
X35263685Y-97833571D02*
X35263685Y-96833571D01*
X35263685Y-96333571D02*
X35335114Y-96405000D01*
X35263685Y-96476428D01*
X35192257Y-96405000D01*
X35263685Y-96333571D01*
X35263685Y-96476428D01*
X34549400Y-96833571D02*
X34549400Y-97833571D01*
X34549400Y-96976428D02*
X34477971Y-96905000D01*
X34335114Y-96833571D01*
X34120828Y-96833571D01*
X33977971Y-96905000D01*
X33906542Y-97047857D01*
X33906542Y-97833571D01*
X32763685Y-98405000D02*
X32835114Y-98333571D01*
X32977971Y-98119285D01*
X33049400Y-97976428D01*
X33120828Y-97762142D01*
X33192257Y-97405000D01*
X33192257Y-97119285D01*
X33120828Y-96762142D01*
X33049400Y-96547857D01*
X32977971Y-96405000D01*
X32835114Y-96190714D01*
X32763685Y-96119285D01*
X32192257Y-97262142D02*
X31049400Y-97262142D01*
X31620828Y-97833571D02*
X31620828Y-96690714D01*
X30477971Y-98405000D02*
X30406542Y-98333571D01*
X30263685Y-98119285D01*
X30192257Y-97976428D01*
X30120828Y-97762142D01*
X30049399Y-97405000D01*
X30049399Y-97119285D01*
X30120828Y-96762142D01*
X30192257Y-96547857D01*
X30263685Y-96405000D01*
X30406542Y-96190714D01*
X30477971Y-96119285D01*
X36763685Y-86478371D02*
X36263685Y-87978371D01*
X35763685Y-86478371D01*
X35263685Y-87978371D02*
X35263685Y-86978371D01*
X35263685Y-86478371D02*
X35335114Y-86549800D01*
X35263685Y-86621228D01*
X35192257Y-86549800D01*
X35263685Y-86478371D01*
X35263685Y-86621228D01*
X34549400Y-86978371D02*
X34549400Y-87978371D01*
X34549400Y-87121228D02*
X34477971Y-87049800D01*
X34335114Y-86978371D01*
X34120828Y-86978371D01*
X33977971Y-87049800D01*
X33906542Y-87192657D01*
X33906542Y-87978371D01*
X32763685Y-88549800D02*
X32835114Y-88478371D01*
X32977971Y-88264085D01*
X33049400Y-88121228D01*
X33120828Y-87906942D01*
X33192257Y-87549800D01*
X33192257Y-87264085D01*
X33120828Y-86906942D01*
X33049400Y-86692657D01*
X32977971Y-86549800D01*
X32835114Y-86335514D01*
X32763685Y-86264085D01*
X32192257Y-87406942D02*
X31049400Y-87406942D01*
X30477971Y-88549800D02*
X30406542Y-88478371D01*
X30263685Y-88264085D01*
X30192257Y-88121228D01*
X30120828Y-87906942D01*
X30049399Y-87549800D01*
X30049399Y-87264085D01*
X30120828Y-86906942D01*
X30192257Y-86692657D01*
X30263685Y-86549800D01*
X30406542Y-86335514D01*
X30477971Y-86264085D01*
X175410285Y-96282771D02*
X174910285Y-97782771D01*
X174410285Y-96282771D01*
X173696000Y-97782771D02*
X173838857Y-97711342D01*
X173910285Y-97639914D01*
X173981714Y-97497057D01*
X173981714Y-97068485D01*
X173910285Y-96925628D01*
X173838857Y-96854200D01*
X173696000Y-96782771D01*
X173481714Y-96782771D01*
X173338857Y-96854200D01*
X173267428Y-96925628D01*
X173196000Y-97068485D01*
X173196000Y-97497057D01*
X173267428Y-97639914D01*
X173338857Y-97711342D01*
X173481714Y-97782771D01*
X173696000Y-97782771D01*
X171910285Y-96782771D02*
X171910285Y-97782771D01*
X172553142Y-96782771D02*
X172553142Y-97568485D01*
X172481714Y-97711342D01*
X172338857Y-97782771D01*
X172124571Y-97782771D01*
X171981714Y-97711342D01*
X171910285Y-97639914D01*
X171410285Y-96782771D02*
X170838857Y-96782771D01*
X171196000Y-96282771D02*
X171196000Y-97568485D01*
X171124571Y-97711342D01*
X170981714Y-97782771D01*
X170838857Y-97782771D01*
X169910285Y-98354200D02*
X169981714Y-98282771D01*
X170124571Y-98068485D01*
X170196000Y-97925628D01*
X170267428Y-97711342D01*
X170338857Y-97354200D01*
X170338857Y-97068485D01*
X170267428Y-96711342D01*
X170196000Y-96497057D01*
X170124571Y-96354200D01*
X169981714Y-96139914D01*
X169910285Y-96068485D01*
X169338857Y-97211342D02*
X168196000Y-97211342D01*
X167624571Y-98354200D02*
X167553142Y-98282771D01*
X167410285Y-98068485D01*
X167338857Y-97925628D01*
X167267428Y-97711342D01*
X167196000Y-97354200D01*
X167196000Y-97068485D01*
X167267428Y-96711342D01*
X167338857Y-96497057D01*
X167410285Y-96354200D01*
X167553142Y-96139914D01*
X167624571Y-96068485D01*
X175410285Y-86554571D02*
X174910285Y-88054571D01*
X174410285Y-86554571D01*
X173696000Y-88054571D02*
X173838857Y-87983142D01*
X173910285Y-87911714D01*
X173981714Y-87768857D01*
X173981714Y-87340285D01*
X173910285Y-87197428D01*
X173838857Y-87126000D01*
X173696000Y-87054571D01*
X173481714Y-87054571D01*
X173338857Y-87126000D01*
X173267428Y-87197428D01*
X173196000Y-87340285D01*
X173196000Y-87768857D01*
X173267428Y-87911714D01*
X173338857Y-87983142D01*
X173481714Y-88054571D01*
X173696000Y-88054571D01*
X171910285Y-87054571D02*
X171910285Y-88054571D01*
X172553142Y-87054571D02*
X172553142Y-87840285D01*
X172481714Y-87983142D01*
X172338857Y-88054571D01*
X172124571Y-88054571D01*
X171981714Y-87983142D01*
X171910285Y-87911714D01*
X171410285Y-87054571D02*
X170838857Y-87054571D01*
X171196000Y-86554571D02*
X171196000Y-87840285D01*
X171124571Y-87983142D01*
X170981714Y-88054571D01*
X170838857Y-88054571D01*
X169910285Y-88626000D02*
X169981714Y-88554571D01*
X170124571Y-88340285D01*
X170196000Y-88197428D01*
X170267428Y-87983142D01*
X170338857Y-87626000D01*
X170338857Y-87340285D01*
X170267428Y-86983142D01*
X170196000Y-86768857D01*
X170124571Y-86626000D01*
X169981714Y-86411714D01*
X169910285Y-86340285D01*
X169338857Y-87483142D02*
X168196000Y-87483142D01*
X168767428Y-88054571D02*
X168767428Y-86911714D01*
X167624571Y-88626000D02*
X167553142Y-88554571D01*
X167410285Y-88340285D01*
X167338857Y-88197428D01*
X167267428Y-87983142D01*
X167196000Y-87626000D01*
X167196000Y-87340285D01*
X167267428Y-86983142D01*
X167338857Y-86768857D01*
X167410285Y-86626000D01*
X167553142Y-86411714D01*
X167624571Y-86340285D01*
D11*
G36*
X50125096Y-80356092D02*
G01*
X50229829Y-80457774D01*
X50472882Y-80520447D01*
X50801582Y-80523503D01*
X51149053Y-80475188D01*
X51448417Y-80383746D01*
X51605019Y-80288243D01*
X51783161Y-80143344D01*
X51878136Y-80132927D01*
X51908863Y-80256370D01*
X51909134Y-80278276D01*
X51950153Y-80399570D01*
X52036134Y-80396217D01*
X52220057Y-80384726D01*
X52311300Y-80408832D01*
X52502403Y-80444546D01*
X52794155Y-80455127D01*
X53120149Y-80443109D01*
X53413977Y-80411026D01*
X53609229Y-80361409D01*
X53613956Y-80359142D01*
X53827288Y-80252810D01*
X53939985Y-80196266D01*
X54191735Y-80116583D01*
X54354375Y-80171650D01*
X54395085Y-80238600D01*
X54500673Y-80353595D01*
X54633043Y-80335103D01*
X54728533Y-80192792D01*
X54729893Y-80187747D01*
X54800096Y-80069998D01*
X54866768Y-80065744D01*
X54944104Y-80046643D01*
X54964010Y-79968430D01*
X54989810Y-79907203D01*
X55058809Y-80001247D01*
X55093087Y-80069266D01*
X55215288Y-80323266D01*
X55170878Y-80048100D01*
X55104273Y-79669213D01*
X55042553Y-79420779D01*
X54971717Y-79264972D01*
X54877764Y-79163967D01*
X54831437Y-79131001D01*
X54664209Y-78932742D01*
X54573362Y-78646920D01*
X54576714Y-78344854D01*
X54607987Y-78236553D01*
X54656069Y-78061721D01*
X54714549Y-77772840D01*
X54772831Y-77423887D01*
X54788404Y-77317600D01*
X54847109Y-76932550D01*
X54910454Y-76563749D01*
X54966490Y-76279925D01*
X54976080Y-76238100D01*
X55044204Y-76004494D01*
X55121846Y-75899193D01*
X55241372Y-75882715D01*
X55265167Y-75885498D01*
X55364159Y-75822301D01*
X55435417Y-75631076D01*
X55463819Y-75352659D01*
X55463837Y-75349100D01*
X55441152Y-75122091D01*
X55364305Y-75034526D01*
X55338134Y-75031600D01*
X55237471Y-74956156D01*
X55211134Y-74776677D01*
X55176388Y-74538089D01*
X55089544Y-74251080D01*
X55053792Y-74162843D01*
X54985356Y-74004652D01*
X54985356Y-74382488D01*
X55035690Y-74394111D01*
X55041800Y-74438933D01*
X55010822Y-74508623D01*
X54985356Y-74495377D01*
X54975223Y-74394898D01*
X54985356Y-74382488D01*
X54985356Y-74004652D01*
X54933202Y-73884097D01*
X54824731Y-73627512D01*
X54800160Y-73567924D01*
X54716354Y-73409492D01*
X54619486Y-73385755D01*
X54526282Y-73426956D01*
X54406800Y-73457003D01*
X54406800Y-79772933D01*
X54449134Y-79815266D01*
X54406800Y-79857600D01*
X54364467Y-79815266D01*
X54406800Y-79772933D01*
X54406800Y-73457003D01*
X54300810Y-73483658D01*
X54153741Y-73473068D01*
X53970889Y-73478677D01*
X53936137Y-73519882D01*
X53936137Y-79857600D01*
X54022355Y-79919060D01*
X54025800Y-79942266D01*
X53996913Y-80024732D01*
X53988464Y-80026933D01*
X53916178Y-79967604D01*
X53898800Y-79942266D01*
X53905513Y-79864247D01*
X53936137Y-79857600D01*
X53936137Y-73519882D01*
X53910285Y-73550535D01*
X53795170Y-73656528D01*
X53698849Y-73676933D01*
X53560134Y-73725924D01*
X53560134Y-79603600D01*
X53602467Y-79645933D01*
X53560134Y-79688266D01*
X53517800Y-79645933D01*
X53560134Y-79603600D01*
X53560134Y-73725924D01*
X53540859Y-73732732D01*
X53489001Y-73799193D01*
X53383381Y-73900058D01*
X53313189Y-73933843D01*
X53313189Y-79942266D01*
X53405907Y-79991620D01*
X53391123Y-80093170D01*
X53279675Y-80176863D01*
X53193309Y-80140014D01*
X53179134Y-80076322D01*
X53247303Y-79959690D01*
X53313189Y-79942266D01*
X53313189Y-73933843D01*
X53179578Y-73998155D01*
X53117440Y-74018719D01*
X52717551Y-74214911D01*
X52697851Y-74231972D01*
X52697851Y-79795189D01*
X52798707Y-79803771D01*
X52975630Y-79852066D01*
X53037892Y-79858896D01*
X53088267Y-79884823D01*
X53045958Y-79922396D01*
X52939603Y-80051033D01*
X52900448Y-80132766D01*
X52795075Y-80229554D01*
X52607371Y-80281455D01*
X52398629Y-80286737D01*
X52230138Y-80243666D01*
X52163134Y-80153611D01*
X52218271Y-80063982D01*
X52401546Y-80045357D01*
X52438300Y-80047777D01*
X52626026Y-80046245D01*
X52689896Y-79985060D01*
X52685949Y-79909604D01*
X52697851Y-79795189D01*
X52697851Y-74231972D01*
X52350174Y-74533078D01*
X52106689Y-74869260D01*
X52106689Y-79123822D01*
X52157023Y-79135444D01*
X52163134Y-79180266D01*
X52163134Y-79857600D01*
X52232824Y-79888578D01*
X52219578Y-79914044D01*
X52119098Y-79924177D01*
X52106689Y-79914044D01*
X52118311Y-79863710D01*
X52163134Y-79857600D01*
X52163134Y-79180266D01*
X52132155Y-79249956D01*
X52106689Y-79236711D01*
X52096556Y-79136231D01*
X52106689Y-79123822D01*
X52106689Y-74869260D01*
X52065059Y-74926740D01*
X51997710Y-75064812D01*
X51889189Y-75288513D01*
X51796437Y-75429637D01*
X51761064Y-75454933D01*
X51665215Y-75525405D01*
X51551322Y-75695966D01*
X51452648Y-75905329D01*
X51402454Y-76092207D01*
X51401134Y-76118115D01*
X51343302Y-76316583D01*
X51266702Y-76423936D01*
X51190021Y-76564059D01*
X51098954Y-76824784D01*
X51008631Y-77159969D01*
X50972873Y-77319870D01*
X50892326Y-77677517D01*
X50812572Y-77985944D01*
X50746477Y-78197004D01*
X50725414Y-78245916D01*
X50669039Y-78417557D01*
X50614799Y-78690281D01*
X50583849Y-78922363D01*
X50544859Y-79191196D01*
X50497150Y-79376583D01*
X50457739Y-79434266D01*
X50409739Y-79508732D01*
X50385757Y-79691825D01*
X50385134Y-79730600D01*
X50356521Y-79951813D01*
X50266824Y-80026776D01*
X50260791Y-80026933D01*
X50176159Y-79973036D01*
X50190512Y-79886044D01*
X50202442Y-79790477D01*
X50145522Y-79806374D01*
X50054223Y-79948936D01*
X50050586Y-80156675D01*
X50125096Y-80356092D01*
G37*
X50125096Y-80356092D02*
X50229829Y-80457774D01*
X50472882Y-80520447D01*
X50801582Y-80523503D01*
X51149053Y-80475188D01*
X51448417Y-80383746D01*
X51605019Y-80288243D01*
X51783161Y-80143344D01*
X51878136Y-80132927D01*
X51908863Y-80256370D01*
X51909134Y-80278276D01*
X51950153Y-80399570D01*
X52036134Y-80396217D01*
X52220057Y-80384726D01*
X52311300Y-80408832D01*
X52502403Y-80444546D01*
X52794155Y-80455127D01*
X53120149Y-80443109D01*
X53413977Y-80411026D01*
X53609229Y-80361409D01*
X53613956Y-80359142D01*
X53827288Y-80252810D01*
X53939985Y-80196266D01*
X54191735Y-80116583D01*
X54354375Y-80171650D01*
X54395085Y-80238600D01*
X54500673Y-80353595D01*
X54633043Y-80335103D01*
X54728533Y-80192792D01*
X54729893Y-80187747D01*
X54800096Y-80069998D01*
X54866768Y-80065744D01*
X54944104Y-80046643D01*
X54964010Y-79968430D01*
X54989810Y-79907203D01*
X55058809Y-80001247D01*
X55093087Y-80069266D01*
X55215288Y-80323266D01*
X55170878Y-80048100D01*
X55104273Y-79669213D01*
X55042553Y-79420779D01*
X54971717Y-79264972D01*
X54877764Y-79163967D01*
X54831437Y-79131001D01*
X54664209Y-78932742D01*
X54573362Y-78646920D01*
X54576714Y-78344854D01*
X54607987Y-78236553D01*
X54656069Y-78061721D01*
X54714549Y-77772840D01*
X54772831Y-77423887D01*
X54788404Y-77317600D01*
X54847109Y-76932550D01*
X54910454Y-76563749D01*
X54966490Y-76279925D01*
X54976080Y-76238100D01*
X55044204Y-76004494D01*
X55121846Y-75899193D01*
X55241372Y-75882715D01*
X55265167Y-75885498D01*
X55364159Y-75822301D01*
X55435417Y-75631076D01*
X55463819Y-75352659D01*
X55463837Y-75349100D01*
X55441152Y-75122091D01*
X55364305Y-75034526D01*
X55338134Y-75031600D01*
X55237471Y-74956156D01*
X55211134Y-74776677D01*
X55176388Y-74538089D01*
X55089544Y-74251080D01*
X55053792Y-74162843D01*
X54985356Y-74004652D01*
X54985356Y-74382488D01*
X55035690Y-74394111D01*
X55041800Y-74438933D01*
X55010822Y-74508623D01*
X54985356Y-74495377D01*
X54975223Y-74394898D01*
X54985356Y-74382488D01*
X54985356Y-74004652D01*
X54933202Y-73884097D01*
X54824731Y-73627512D01*
X54800160Y-73567924D01*
X54716354Y-73409492D01*
X54619486Y-73385755D01*
X54526282Y-73426956D01*
X54406800Y-73457003D01*
X54406800Y-79772933D01*
X54449134Y-79815266D01*
X54406800Y-79857600D01*
X54364467Y-79815266D01*
X54406800Y-79772933D01*
X54406800Y-73457003D01*
X54300810Y-73483658D01*
X54153741Y-73473068D01*
X53970889Y-73478677D01*
X53936137Y-73519882D01*
X53936137Y-79857600D01*
X54022355Y-79919060D01*
X54025800Y-79942266D01*
X53996913Y-80024732D01*
X53988464Y-80026933D01*
X53916178Y-79967604D01*
X53898800Y-79942266D01*
X53905513Y-79864247D01*
X53936137Y-79857600D01*
X53936137Y-73519882D01*
X53910285Y-73550535D01*
X53795170Y-73656528D01*
X53698849Y-73676933D01*
X53560134Y-73725924D01*
X53560134Y-79603600D01*
X53602467Y-79645933D01*
X53560134Y-79688266D01*
X53517800Y-79645933D01*
X53560134Y-79603600D01*
X53560134Y-73725924D01*
X53540859Y-73732732D01*
X53489001Y-73799193D01*
X53383381Y-73900058D01*
X53313189Y-73933843D01*
X53313189Y-79942266D01*
X53405907Y-79991620D01*
X53391123Y-80093170D01*
X53279675Y-80176863D01*
X53193309Y-80140014D01*
X53179134Y-80076322D01*
X53247303Y-79959690D01*
X53313189Y-79942266D01*
X53313189Y-73933843D01*
X53179578Y-73998155D01*
X53117440Y-74018719D01*
X52717551Y-74214911D01*
X52697851Y-74231972D01*
X52697851Y-79795189D01*
X52798707Y-79803771D01*
X52975630Y-79852066D01*
X53037892Y-79858896D01*
X53088267Y-79884823D01*
X53045958Y-79922396D01*
X52939603Y-80051033D01*
X52900448Y-80132766D01*
X52795075Y-80229554D01*
X52607371Y-80281455D01*
X52398629Y-80286737D01*
X52230138Y-80243666D01*
X52163134Y-80153611D01*
X52218271Y-80063982D01*
X52401546Y-80045357D01*
X52438300Y-80047777D01*
X52626026Y-80046245D01*
X52689896Y-79985060D01*
X52685949Y-79909604D01*
X52697851Y-79795189D01*
X52697851Y-74231972D01*
X52350174Y-74533078D01*
X52106689Y-74869260D01*
X52106689Y-79123822D01*
X52157023Y-79135444D01*
X52163134Y-79180266D01*
X52163134Y-79857600D01*
X52232824Y-79888578D01*
X52219578Y-79914044D01*
X52119098Y-79924177D01*
X52106689Y-79914044D01*
X52118311Y-79863710D01*
X52163134Y-79857600D01*
X52163134Y-79180266D01*
X52132155Y-79249956D01*
X52106689Y-79236711D01*
X52096556Y-79136231D01*
X52106689Y-79123822D01*
X52106689Y-74869260D01*
X52065059Y-74926740D01*
X51997710Y-75064812D01*
X51889189Y-75288513D01*
X51796437Y-75429637D01*
X51761064Y-75454933D01*
X51665215Y-75525405D01*
X51551322Y-75695966D01*
X51452648Y-75905329D01*
X51402454Y-76092207D01*
X51401134Y-76118115D01*
X51343302Y-76316583D01*
X51266702Y-76423936D01*
X51190021Y-76564059D01*
X51098954Y-76824784D01*
X51008631Y-77159969D01*
X50972873Y-77319870D01*
X50892326Y-77677517D01*
X50812572Y-77985944D01*
X50746477Y-78197004D01*
X50725414Y-78245916D01*
X50669039Y-78417557D01*
X50614799Y-78690281D01*
X50583849Y-78922363D01*
X50544859Y-79191196D01*
X50497150Y-79376583D01*
X50457739Y-79434266D01*
X50409739Y-79508732D01*
X50385757Y-79691825D01*
X50385134Y-79730600D01*
X50356521Y-79951813D01*
X50266824Y-80026776D01*
X50260791Y-80026933D01*
X50176159Y-79973036D01*
X50190512Y-79886044D01*
X50202442Y-79790477D01*
X50145522Y-79806374D01*
X50054223Y-79948936D01*
X50050586Y-80156675D01*
X50125096Y-80356092D01*
G36*
X56589940Y-75469796D02*
G01*
X56853726Y-75605083D01*
X57029216Y-75662302D01*
X57316495Y-75763245D01*
X57552081Y-75876587D01*
X57649779Y-75946245D01*
X57814110Y-76089491D01*
X58037374Y-76260530D01*
X58090944Y-76298664D01*
X58289984Y-76447941D01*
X58427250Y-76569098D01*
X58448337Y-76593854D01*
X58506224Y-76631514D01*
X58514710Y-76597933D01*
X58548778Y-76613499D01*
X58630497Y-76749156D01*
X58682467Y-76851933D01*
X58779677Y-77025650D01*
X58842858Y-77086436D01*
X58854878Y-77063600D01*
X58880901Y-77009921D01*
X58936467Y-77105933D01*
X58988762Y-77207540D01*
X59009953Y-77161194D01*
X59015183Y-77046640D01*
X58965724Y-76833757D01*
X58872967Y-76731715D01*
X58769952Y-76663912D01*
X58815156Y-76644515D01*
X58872967Y-76642841D01*
X58998692Y-76600651D01*
X59021134Y-76555600D01*
X58956704Y-76473393D01*
X58936467Y-76470933D01*
X58855724Y-76405354D01*
X58851800Y-76377208D01*
X58913387Y-76320595D01*
X58978800Y-76332217D01*
X59089227Y-76364913D01*
X59105800Y-76361883D01*
X59085044Y-76276527D01*
X59034493Y-76094236D01*
X59028712Y-76074025D01*
X58996169Y-75824627D01*
X59068353Y-75651251D01*
X59159294Y-75422067D01*
X59182798Y-75116663D01*
X59139747Y-74813759D01*
X59056848Y-74624510D01*
X58937887Y-74499698D01*
X58783273Y-74468594D01*
X58612348Y-74491445D01*
X58347570Y-74564595D01*
X58125017Y-74664229D01*
X58112906Y-74671840D01*
X57895365Y-74757784D01*
X57632839Y-74794514D01*
X57627650Y-74794533D01*
X57314090Y-74823210D01*
X56992751Y-74897684D01*
X56719407Y-75000620D01*
X56549830Y-75114684D01*
X56535255Y-75134061D01*
X56485912Y-75315065D01*
X56589940Y-75469796D01*
G37*
X56589940Y-75469796D02*
X56853726Y-75605083D01*
X57029216Y-75662302D01*
X57316495Y-75763245D01*
X57552081Y-75876587D01*
X57649779Y-75946245D01*
X57814110Y-76089491D01*
X58037374Y-76260530D01*
X58090944Y-76298664D01*
X58289984Y-76447941D01*
X58427250Y-76569098D01*
X58448337Y-76593854D01*
X58506224Y-76631514D01*
X58514710Y-76597933D01*
X58548778Y-76613499D01*
X58630497Y-76749156D01*
X58682467Y-76851933D01*
X58779677Y-77025650D01*
X58842858Y-77086436D01*
X58854878Y-77063600D01*
X58880901Y-77009921D01*
X58936467Y-77105933D01*
X58988762Y-77207540D01*
X59009953Y-77161194D01*
X59015183Y-77046640D01*
X58965724Y-76833757D01*
X58872967Y-76731715D01*
X58769952Y-76663912D01*
X58815156Y-76644515D01*
X58872967Y-76642841D01*
X58998692Y-76600651D01*
X59021134Y-76555600D01*
X58956704Y-76473393D01*
X58936467Y-76470933D01*
X58855724Y-76405354D01*
X58851800Y-76377208D01*
X58913387Y-76320595D01*
X58978800Y-76332217D01*
X59089227Y-76364913D01*
X59105800Y-76361883D01*
X59085044Y-76276527D01*
X59034493Y-76094236D01*
X59028712Y-76074025D01*
X58996169Y-75824627D01*
X59068353Y-75651251D01*
X59159294Y-75422067D01*
X59182798Y-75116663D01*
X59139747Y-74813759D01*
X59056848Y-74624510D01*
X58937887Y-74499698D01*
X58783273Y-74468594D01*
X58612348Y-74491445D01*
X58347570Y-74564595D01*
X58125017Y-74664229D01*
X58112906Y-74671840D01*
X57895365Y-74757784D01*
X57632839Y-74794514D01*
X57627650Y-74794533D01*
X57314090Y-74823210D01*
X56992751Y-74897684D01*
X56719407Y-75000620D01*
X56549830Y-75114684D01*
X56535255Y-75134061D01*
X56485912Y-75315065D01*
X56589940Y-75469796D01*
G36*
X59677300Y-91861865D02*
G01*
X61162037Y-91859690D01*
X62588580Y-91857270D01*
X63948910Y-91854634D01*
X65235009Y-91851811D01*
X66438859Y-91848829D01*
X67552441Y-91845717D01*
X68567737Y-91842503D01*
X69476729Y-91839217D01*
X70271398Y-91835887D01*
X70943726Y-91832542D01*
X71485695Y-91829211D01*
X71889286Y-91825922D01*
X72146481Y-91822703D01*
X72249262Y-91819585D01*
X72207967Y-91817002D01*
X71733290Y-91798669D01*
X71385689Y-91770878D01*
X71180276Y-91735231D01*
X71128467Y-91702491D01*
X71083770Y-91586504D01*
X70969771Y-91388362D01*
X70885892Y-91260521D01*
X70698540Y-90966984D01*
X70521704Y-90658433D01*
X70474759Y-90567933D01*
X70362922Y-90347246D01*
X70198212Y-90027129D01*
X70006645Y-89657990D01*
X69884913Y-89424933D01*
X69681923Y-89025254D01*
X69484991Y-88616721D01*
X69323569Y-88261306D01*
X69261260Y-88112600D01*
X69018075Y-87590517D01*
X68676980Y-86986409D01*
X68260498Y-86337286D01*
X67791153Y-85680159D01*
X67738974Y-85611221D01*
X67506525Y-85288111D01*
X67309606Y-84981725D01*
X67175818Y-84736648D01*
X67138189Y-84640760D01*
X67036095Y-84444837D01*
X66823368Y-84217514D01*
X66488465Y-83949414D01*
X66019846Y-83631161D01*
X65497930Y-83308310D01*
X65205721Y-83119505D01*
X64946125Y-82928498D01*
X64789450Y-82790291D01*
X64589175Y-82577108D01*
X65043654Y-82622877D01*
X65521450Y-82600475D01*
X66082377Y-82451355D01*
X66705428Y-82182328D01*
X67138076Y-81943822D01*
X67379796Y-81802756D01*
X67731019Y-81601891D01*
X68152974Y-81363208D01*
X68606890Y-81108688D01*
X68842467Y-80977499D01*
X69287417Y-80729630D01*
X69710851Y-80492439D01*
X70077227Y-80285929D01*
X70351004Y-80130102D01*
X70451134Y-80072135D01*
X70656655Y-79959470D01*
X70979793Y-79791719D01*
X71385345Y-79586742D01*
X71838112Y-79362399D01*
X72144467Y-79212997D01*
X72757562Y-78915503D01*
X73236642Y-78681452D01*
X73600414Y-78501142D01*
X73867583Y-78364869D01*
X74056853Y-78262929D01*
X74186931Y-78185619D01*
X74276521Y-78123235D01*
X74329308Y-78079600D01*
X74572447Y-77886275D01*
X74820399Y-77723854D01*
X75035171Y-77613094D01*
X75178771Y-77574753D01*
X75215126Y-77595607D01*
X75288153Y-77635772D01*
X75467801Y-77595635D01*
X75708067Y-77500548D01*
X76235375Y-77276846D01*
X76764067Y-77060219D01*
X77267270Y-76860935D01*
X77718111Y-76689265D01*
X78089716Y-76555478D01*
X78355213Y-76469843D01*
X78476405Y-76442646D01*
X78684690Y-76428600D01*
X78695412Y-84154427D01*
X78697656Y-85282174D01*
X78701127Y-86360425D01*
X78705708Y-87377314D01*
X78711288Y-88320974D01*
X78717751Y-89179540D01*
X78724983Y-89941144D01*
X78732871Y-90593922D01*
X78741301Y-91126006D01*
X78750158Y-91525530D01*
X78759329Y-91780627D01*
X78768699Y-91879433D01*
X78769634Y-91880260D01*
X78776373Y-91797025D01*
X78782914Y-91553036D01*
X78789219Y-91156877D01*
X78795252Y-90617126D01*
X78800976Y-89942367D01*
X78806353Y-89141178D01*
X78811348Y-88222141D01*
X78815922Y-87193838D01*
X78820040Y-86064849D01*
X78823664Y-84843754D01*
X78826758Y-83539135D01*
X78829284Y-82159573D01*
X78831206Y-80713648D01*
X78832487Y-79209942D01*
X78833090Y-77657035D01*
X78833134Y-77105933D01*
X78833134Y-62331600D01*
X78452134Y-62331600D01*
X78452134Y-62517438D01*
X78596729Y-62526590D01*
X78609460Y-62553095D01*
X78601912Y-62556469D01*
X78433832Y-62573218D01*
X78430967Y-62572765D01*
X78430967Y-62681796D01*
X78557677Y-62682380D01*
X78626000Y-62725584D01*
X78652037Y-62849631D01*
X78651887Y-63092743D01*
X78649008Y-63199433D01*
X78639524Y-63456621D01*
X78628716Y-63551990D01*
X78614492Y-63493054D01*
X78601807Y-63368766D01*
X78558225Y-63121810D01*
X78525719Y-63078120D01*
X78525719Y-64521905D01*
X78647060Y-64532159D01*
X78680258Y-64556663D01*
X78696008Y-64663915D01*
X78709573Y-64917511D01*
X78720941Y-65294718D01*
X78730100Y-65772803D01*
X78737038Y-66329030D01*
X78741744Y-66940667D01*
X78744207Y-67584981D01*
X78744414Y-68239237D01*
X78742354Y-68880701D01*
X78738015Y-69486641D01*
X78731385Y-70034322D01*
X78722453Y-70501011D01*
X78711206Y-70863974D01*
X78697634Y-71100477D01*
X78683670Y-71186071D01*
X78621467Y-71218025D01*
X78621467Y-75370266D01*
X78663800Y-75412600D01*
X78621467Y-75454933D01*
X78579134Y-75412600D01*
X78621467Y-75370266D01*
X78621467Y-71218025D01*
X78581303Y-71238658D01*
X78340899Y-71320564D01*
X77989836Y-71424876D01*
X77555488Y-71544679D01*
X77065231Y-71673060D01*
X76763732Y-71748635D01*
X76763732Y-71938715D01*
X76983132Y-71951333D01*
X77295338Y-72048896D01*
X77452612Y-72112028D01*
X77628119Y-72211725D01*
X77723263Y-72312602D01*
X77721079Y-72380609D01*
X77604601Y-72381697D01*
X77584300Y-72376331D01*
X77423304Y-72336259D01*
X77161846Y-72276534D01*
X76940055Y-72228084D01*
X76671507Y-72165928D01*
X76544597Y-72117479D01*
X76534318Y-72066385D01*
X76601388Y-72006615D01*
X76763732Y-71938715D01*
X76763732Y-71748635D01*
X76546442Y-71803103D01*
X76026495Y-71927896D01*
X75532766Y-72040524D01*
X75092631Y-72134073D01*
X74733466Y-72201629D01*
X74575688Y-72225441D01*
X74575688Y-72406933D01*
X74599184Y-72472595D01*
X74599800Y-72491600D01*
X74532089Y-72568617D01*
X74484218Y-72576266D01*
X74324843Y-72631001D01*
X74137407Y-72761440D01*
X73982979Y-72916935D01*
X73922467Y-73042168D01*
X73961070Y-73112576D01*
X74101714Y-73103589D01*
X74188521Y-73080809D01*
X74394752Y-73041458D01*
X74529202Y-73050818D01*
X74532523Y-73052680D01*
X74648591Y-73041158D01*
X74753302Y-72972115D01*
X74938157Y-72855116D01*
X75225318Y-72724385D01*
X75552294Y-72605119D01*
X75856591Y-72522516D01*
X75879767Y-72517925D01*
X76075726Y-72525049D01*
X76305243Y-72590422D01*
X76507881Y-72689074D01*
X76623205Y-72796039D01*
X76631800Y-72828604D01*
X76558020Y-72894807D01*
X76378228Y-72950811D01*
X76356634Y-72954782D01*
X76089341Y-73000355D01*
X75869800Y-73036994D01*
X75711109Y-73067343D01*
X75658134Y-73084453D01*
X75582589Y-73111874D01*
X75391558Y-73143610D01*
X75138445Y-73171741D01*
X74996795Y-73182518D01*
X74938467Y-73193870D01*
X74938467Y-73592266D01*
X75008157Y-73623244D01*
X74994911Y-73648711D01*
X74894432Y-73658844D01*
X74882022Y-73648711D01*
X74893645Y-73598376D01*
X74938467Y-73592266D01*
X74938467Y-73193870D01*
X74743950Y-73231731D01*
X74582453Y-73365456D01*
X74536760Y-73435187D01*
X74405105Y-73597957D01*
X74345800Y-73599687D01*
X74345800Y-73826791D01*
X74578634Y-73980937D01*
X74781278Y-74110900D01*
X75057314Y-74282833D01*
X75257311Y-74405071D01*
X75554037Y-74594271D01*
X75910463Y-74835106D01*
X76251463Y-75076763D01*
X76264313Y-75086162D01*
X76534135Y-75289471D01*
X76679112Y-75417322D01*
X76715128Y-75488437D01*
X76658064Y-75521541D01*
X76636768Y-75525265D01*
X76438313Y-75481353D01*
X76145923Y-75309204D01*
X75968432Y-75177284D01*
X75697720Y-74979094D01*
X75449292Y-74821106D01*
X75277134Y-74737606D01*
X75068850Y-74635087D01*
X74850706Y-74472731D01*
X74837688Y-74460756D01*
X74641377Y-74323292D01*
X74483879Y-74296199D01*
X74477855Y-74298278D01*
X74383668Y-74296031D01*
X74348013Y-74169187D01*
X74345800Y-74087871D01*
X74345800Y-73826791D01*
X74345800Y-73599687D01*
X74307737Y-73600798D01*
X74259675Y-73445777D01*
X74257316Y-73396769D01*
X74238036Y-73323850D01*
X74171505Y-73337725D01*
X74037790Y-73451865D01*
X73816955Y-73679740D01*
X73780018Y-73719266D01*
X73578061Y-73951337D01*
X73346176Y-74241356D01*
X73108179Y-74556360D01*
X72887887Y-74863387D01*
X72709114Y-75129472D01*
X72595677Y-75321652D01*
X72567800Y-75397080D01*
X72639534Y-75458214D01*
X72805200Y-75492724D01*
X72990499Y-75493253D01*
X73121129Y-75452442D01*
X73121749Y-75451932D01*
X73293991Y-75383259D01*
X73431151Y-75376208D01*
X73643325Y-75371639D01*
X73753134Y-75347388D01*
X74040034Y-75272420D01*
X74285802Y-75266886D01*
X74432653Y-75330566D01*
X74446204Y-75421188D01*
X74343003Y-75547652D01*
X74115690Y-75724302D01*
X73772990Y-75962865D01*
X73523078Y-76110198D01*
X73321881Y-76174779D01*
X73125324Y-76165089D01*
X72889331Y-76089608D01*
X72675305Y-76001419D01*
X72318097Y-75839237D01*
X72068203Y-75702720D01*
X71940142Y-75601908D01*
X71948434Y-75546841D01*
X72007467Y-75539600D01*
X72077609Y-75527980D01*
X72152622Y-75477748D01*
X72251388Y-75365844D01*
X72392792Y-75169207D01*
X72595719Y-74864776D01*
X72735477Y-74650600D01*
X72963262Y-74312280D01*
X73214206Y-73957332D01*
X73387867Y-73723428D01*
X73553150Y-73496840D01*
X73612313Y-73381030D01*
X73572079Y-73360521D01*
X73541008Y-73370884D01*
X73313613Y-73444419D01*
X73202800Y-73471127D01*
X72830112Y-73547425D01*
X72556376Y-73610855D01*
X72313810Y-73678107D01*
X72129382Y-73735396D01*
X71887817Y-73833945D01*
X71721434Y-73941585D01*
X71684169Y-73989807D01*
X71585815Y-74079210D01*
X71523581Y-74075065D01*
X71411634Y-74115176D01*
X71264276Y-74278012D01*
X71207975Y-74362614D01*
X71105560Y-74508598D01*
X71105560Y-75049774D01*
X71126229Y-75133865D01*
X71127170Y-75179766D01*
X71096312Y-75328418D01*
X71043800Y-75370266D01*
X70965017Y-75316967D01*
X71015446Y-75162760D01*
X71043800Y-75116266D01*
X71105560Y-75049774D01*
X71105560Y-74508598D01*
X71041259Y-74600255D01*
X70930007Y-74686500D01*
X70877990Y-74619090D01*
X70874467Y-74562306D01*
X70933452Y-74427580D01*
X71087752Y-74220213D01*
X71303384Y-73976907D01*
X71546364Y-73734364D01*
X71782711Y-73529285D01*
X71923785Y-73429040D01*
X72059492Y-73363229D01*
X72312820Y-73255381D01*
X72650267Y-73118408D01*
X73038329Y-72965225D01*
X73443502Y-72808743D01*
X73832282Y-72661878D01*
X74171164Y-72537540D01*
X74426647Y-72448644D01*
X74565225Y-72408104D01*
X74575688Y-72406933D01*
X74575688Y-72225441D01*
X74557467Y-72228192D01*
X74133378Y-72298044D01*
X73647858Y-72402202D01*
X73199402Y-72519324D01*
X73160467Y-72530903D01*
X72807921Y-72630990D01*
X72344172Y-72753737D01*
X71823357Y-72885248D01*
X71299612Y-73011626D01*
X71170800Y-73041659D01*
X70655624Y-73160946D01*
X70129396Y-73283055D01*
X69646084Y-73395448D01*
X69259656Y-73485585D01*
X69181134Y-73503964D01*
X68751019Y-73594517D01*
X68381662Y-73652913D01*
X68101693Y-73676238D01*
X67939744Y-73661577D01*
X67911134Y-73633244D01*
X67941180Y-73543221D01*
X68023746Y-73325608D01*
X68147469Y-73009638D01*
X68300988Y-72624544D01*
X68363598Y-72469077D01*
X68813827Y-71344189D01*
X69196571Y-70366252D01*
X69514547Y-69528121D01*
X69770471Y-68822649D01*
X69946956Y-68304539D01*
X70097038Y-67874992D01*
X70235187Y-67560776D01*
X70387543Y-67312227D01*
X70580245Y-67079677D01*
X70606506Y-67051359D01*
X70921733Y-66766454D01*
X71321440Y-66501429D01*
X71818536Y-66251488D01*
X72425928Y-66011832D01*
X73156524Y-65777667D01*
X74023231Y-65544195D01*
X75038956Y-65306619D01*
X75658134Y-65174063D01*
X76007204Y-65097279D01*
X76462129Y-64991440D01*
X76964929Y-64870296D01*
X77457623Y-64747598D01*
X77475054Y-64743169D01*
X77960090Y-64624258D01*
X78303520Y-64551554D01*
X78525719Y-64521905D01*
X78525719Y-63078120D01*
X78476434Y-63011876D01*
X78426099Y-62999111D01*
X78330485Y-62986369D01*
X78397676Y-62959410D01*
X78430967Y-62950570D01*
X78564244Y-62876773D01*
X78541856Y-62790417D01*
X78388634Y-62730018D01*
X78276968Y-62703200D01*
X78321518Y-62688668D01*
X78430967Y-62681796D01*
X78430967Y-62572765D01*
X78347912Y-62559606D01*
X78313384Y-62532655D01*
X78425841Y-62517997D01*
X78452134Y-62517438D01*
X78452134Y-62331600D01*
X76589467Y-62331600D01*
X76589467Y-64448266D01*
X76631800Y-64490600D01*
X76589467Y-64532933D01*
X76547134Y-64490600D01*
X76589467Y-64448266D01*
X76589467Y-62331600D01*
X55735273Y-62331600D01*
X55735273Y-69553325D01*
X55977261Y-69581196D01*
X56259617Y-69700701D01*
X56437551Y-69817907D01*
X56696384Y-69971554D01*
X57005385Y-70098605D01*
X57079622Y-70120514D01*
X57755970Y-70346853D01*
X58279110Y-70629942D01*
X58656894Y-70974249D01*
X58716396Y-71051819D01*
X58910148Y-71294576D01*
X59083903Y-71429069D01*
X59296266Y-71497019D01*
X59356630Y-71507605D01*
X59665510Y-71605431D01*
X59914298Y-71768455D01*
X59918726Y-71772828D01*
X60071564Y-71887198D01*
X60299735Y-71985572D01*
X60636917Y-72080043D01*
X60989096Y-72157137D01*
X61401239Y-72252442D01*
X61796051Y-72363275D01*
X62114729Y-72472293D01*
X62235110Y-72524627D01*
X62677336Y-72749973D01*
X63162961Y-73004923D01*
X63650521Y-73267007D01*
X64098552Y-73513759D01*
X64465591Y-73722707D01*
X64651467Y-73834038D01*
X64923597Y-73997098D01*
X65170238Y-74134708D01*
X65286467Y-74193008D01*
X65512062Y-74249269D01*
X65860717Y-74282955D01*
X66287646Y-74293901D01*
X66748065Y-74281940D01*
X67197190Y-74246907D01*
X67523253Y-74201273D01*
X68109039Y-74096909D01*
X69004919Y-74517484D01*
X69386108Y-74691289D01*
X69735188Y-74841213D01*
X70010087Y-74949728D01*
X70154800Y-74996503D01*
X70417602Y-75080615D01*
X70555545Y-75198146D01*
X70571008Y-75371948D01*
X70466370Y-75624868D01*
X70255390Y-75962933D01*
X70083674Y-76194706D01*
X69827048Y-76513504D01*
X69516566Y-76882957D01*
X69183282Y-77266695D01*
X68858251Y-77628349D01*
X68588467Y-77915183D01*
X68404105Y-78087925D01*
X68149226Y-78306311D01*
X67953467Y-78464239D01*
X67808266Y-78580547D01*
X67808266Y-78845846D01*
X67801454Y-78895504D01*
X67760284Y-78975563D01*
X67618827Y-79173951D01*
X67520894Y-79271896D01*
X67421334Y-79345353D01*
X67428147Y-79295695D01*
X67469316Y-79215636D01*
X67610773Y-79017248D01*
X67708706Y-78919303D01*
X67808266Y-78845846D01*
X67808266Y-78580547D01*
X67717669Y-78653117D01*
X67531051Y-78810576D01*
X67445467Y-78890858D01*
X67276134Y-79063883D01*
X67276134Y-79434266D01*
X67318467Y-79476600D01*
X67276134Y-79518933D01*
X67233800Y-79476600D01*
X67276134Y-79434266D01*
X67276134Y-79063883D01*
X67271892Y-79068218D01*
X67055621Y-79264758D01*
X66834021Y-79449840D01*
X66644461Y-79592828D01*
X66524308Y-79663088D01*
X66503285Y-79663306D01*
X66538195Y-79586937D01*
X66672003Y-79420639D01*
X66881455Y-79191753D01*
X67055350Y-79014186D01*
X67374059Y-78686335D01*
X67570504Y-78457315D01*
X67651851Y-78316771D01*
X67625265Y-78254349D01*
X67585024Y-78248933D01*
X67484501Y-78302738D01*
X67317604Y-78437907D01*
X67246725Y-78503318D01*
X67071025Y-78653971D01*
X66943205Y-78732715D01*
X66916668Y-78736151D01*
X66838943Y-78786527D01*
X66769223Y-78905100D01*
X66668901Y-79051449D01*
X66585779Y-79095600D01*
X66468888Y-79162733D01*
X66448114Y-79201433D01*
X66378359Y-79263742D01*
X66347558Y-79249043D01*
X66339458Y-79142462D01*
X66401809Y-78957452D01*
X66416310Y-78927202D01*
X66493166Y-78714742D01*
X66503930Y-78550929D01*
X66500752Y-78540924D01*
X66511844Y-78435129D01*
X66557992Y-78418266D01*
X66624434Y-78353199D01*
X66609714Y-78155335D01*
X66589998Y-77975249D01*
X66637493Y-77926930D01*
X66668434Y-77935115D01*
X66757157Y-77907170D01*
X66773937Y-77795880D01*
X66821249Y-77645729D01*
X66937568Y-77610782D01*
X67138770Y-77573468D01*
X67222201Y-77536435D01*
X67357700Y-77525858D01*
X67403134Y-77571600D01*
X67517909Y-77630861D01*
X67584167Y-77604910D01*
X67719136Y-77534752D01*
X67885216Y-77500837D01*
X67911134Y-77497516D01*
X67991868Y-77420195D01*
X67995800Y-77390808D01*
X68052993Y-77272257D01*
X68192212Y-77112905D01*
X68207467Y-77098518D01*
X68354093Y-76913549D01*
X68418961Y-76734606D01*
X68419134Y-76727363D01*
X68390799Y-76604924D01*
X68273602Y-76591024D01*
X68205926Y-76605885D01*
X68057463Y-76629770D01*
X68033977Y-76564318D01*
X68072743Y-76448915D01*
X68109476Y-76232752D01*
X68015430Y-76123694D01*
X67791589Y-76122491D01*
X67678056Y-76148982D01*
X67465303Y-76191984D01*
X67349763Y-76159859D01*
X67296784Y-76090515D01*
X67163811Y-75989053D01*
X67098040Y-75993750D01*
X67098040Y-76493804D01*
X67188145Y-76495939D01*
X67254659Y-76516741D01*
X67330012Y-76612987D01*
X67338169Y-76760693D01*
X67283790Y-76875526D01*
X67233800Y-76894266D01*
X67170349Y-76825181D01*
X67111317Y-76676437D01*
X67086458Y-76535804D01*
X67098040Y-76493804D01*
X67098040Y-75993750D01*
X67013941Y-75999757D01*
X66861552Y-76011552D01*
X66810467Y-75972828D01*
X66739796Y-75892886D01*
X66566545Y-75799060D01*
X66535300Y-75786225D01*
X66344800Y-75708878D01*
X66344800Y-76555600D01*
X66387134Y-76597933D01*
X66344800Y-76640266D01*
X66302467Y-76597933D01*
X66344800Y-76555600D01*
X66344800Y-75708878D01*
X66332262Y-75703787D01*
X66203212Y-75647239D01*
X66196634Y-75643887D01*
X66140894Y-75679577D01*
X66133134Y-75735152D01*
X66064714Y-75872221D01*
X66006134Y-75908884D01*
X65909889Y-76035145D01*
X65879134Y-76293945D01*
X65859529Y-76520335D01*
X65810789Y-76665999D01*
X65794156Y-76682792D01*
X65746693Y-76795423D01*
X65758683Y-76932552D01*
X65763386Y-77105533D01*
X65716660Y-77186360D01*
X65630702Y-77309105D01*
X65626430Y-77343763D01*
X65658274Y-77378629D01*
X65706493Y-77320051D01*
X65800793Y-77240491D01*
X65872509Y-77315472D01*
X65911478Y-77530659D01*
X65915145Y-77614418D01*
X65927569Y-77810130D01*
X65949891Y-77907590D01*
X65954091Y-77910017D01*
X66027323Y-77854663D01*
X66164091Y-77718649D01*
X66186925Y-77694237D01*
X66327058Y-77567134D01*
X66378697Y-77581300D01*
X66341524Y-77733439D01*
X66217800Y-78014926D01*
X66097691Y-78279598D01*
X66057598Y-78428042D01*
X66094788Y-78491768D01*
X66175467Y-78502933D01*
X66276293Y-78578661D01*
X66302467Y-78756933D01*
X66272595Y-78940526D01*
X66198644Y-78989766D01*
X66103824Y-79042235D01*
X66067852Y-79137933D01*
X65996966Y-79331174D01*
X65890074Y-79505814D01*
X65775534Y-79629843D01*
X65718385Y-79645198D01*
X65718385Y-80982251D01*
X65803222Y-81000016D01*
X65819285Y-81006043D01*
X65922963Y-81073115D01*
X65923707Y-81111248D01*
X65834142Y-81101751D01*
X65771889Y-81053439D01*
X65718385Y-80982251D01*
X65718385Y-79645198D01*
X65650160Y-79663531D01*
X65443766Y-79622671D01*
X65410783Y-79613663D01*
X65175687Y-79565611D01*
X65049733Y-79590562D01*
X65016347Y-79626782D01*
X64955196Y-79765663D01*
X64968194Y-79838716D01*
X65011300Y-79829150D01*
X65113484Y-79849419D01*
X65179791Y-79904344D01*
X65235809Y-80024748D01*
X65195324Y-80073269D01*
X65082946Y-80058009D01*
X65074800Y-80050386D01*
X65074800Y-80619600D01*
X65117134Y-80661933D01*
X65074800Y-80704266D01*
X65032467Y-80661933D01*
X65074800Y-80619600D01*
X65074800Y-80050386D01*
X64992147Y-79973035D01*
X64901432Y-79869948D01*
X64816437Y-79881512D01*
X64700864Y-79978207D01*
X64507378Y-80135067D01*
X64365749Y-80231083D01*
X63809262Y-80600955D01*
X63327383Y-80975586D01*
X63084577Y-81149905D01*
X62865040Y-81266607D01*
X62749836Y-81296933D01*
X62543877Y-81349739D01*
X62445598Y-81416373D01*
X62292150Y-81536673D01*
X62218812Y-81574115D01*
X62149977Y-81639154D01*
X62160609Y-81666095D01*
X62268767Y-81674597D01*
X62482902Y-81623400D01*
X62757557Y-81528577D01*
X63047278Y-81406202D01*
X63306606Y-81272348D01*
X63352254Y-81244720D01*
X63643930Y-81108259D01*
X63920689Y-81093393D01*
X63948848Y-81097564D01*
X64202143Y-81099861D01*
X64348261Y-81008880D01*
X64499019Y-80893759D01*
X64631741Y-80890706D01*
X64693502Y-80999402D01*
X64693800Y-81010966D01*
X64712338Y-81101231D01*
X64796143Y-81062514D01*
X64833807Y-81032138D01*
X65014666Y-80947201D01*
X65122640Y-80941156D01*
X65277074Y-80919506D01*
X65326296Y-80877651D01*
X65447834Y-80803508D01*
X65548442Y-80788933D01*
X65663580Y-80813075D01*
X65647191Y-80915330D01*
X65627883Y-80953128D01*
X65584997Y-81110175D01*
X65635777Y-81176511D01*
X65669115Y-81251978D01*
X65593002Y-81313232D01*
X65429081Y-81350641D01*
X65357381Y-81330767D01*
X65299571Y-81321507D01*
X65316246Y-81361286D01*
X65285612Y-81455706D01*
X65141639Y-81588211D01*
X65054161Y-81646839D01*
X64813456Y-81806059D01*
X64609991Y-81959678D01*
X64572002Y-81992737D01*
X64366149Y-82092776D01*
X64070392Y-82137460D01*
X63756687Y-82121182D01*
X63566464Y-82071111D01*
X63426443Y-82055063D01*
X63155856Y-82055233D01*
X62792593Y-82070627D01*
X62374546Y-82100252D01*
X62338798Y-82103300D01*
X61892586Y-82143608D01*
X61576931Y-82180928D01*
X61353589Y-82225713D01*
X61184318Y-82288414D01*
X61030875Y-82379482D01*
X60856148Y-82508504D01*
X60630423Y-82673937D01*
X60458014Y-82787198D01*
X60386324Y-82820933D01*
X60320430Y-82749816D01*
X60230774Y-82572371D01*
X60202731Y-82503433D01*
X60118508Y-82287608D01*
X60060794Y-82144421D01*
X60053019Y-82126488D01*
X60089410Y-82034567D01*
X60200763Y-81917172D01*
X60319201Y-81791391D01*
X60376833Y-81687437D01*
X60356202Y-81648007D01*
X60301085Y-81671782D01*
X60192426Y-81655134D01*
X60029681Y-81559601D01*
X59874127Y-81430256D01*
X59787039Y-81312173D01*
X59783134Y-81290788D01*
X59849413Y-81225727D01*
X59995154Y-81218514D01*
X60140711Y-81269042D01*
X60168367Y-81291298D01*
X60298336Y-81328331D01*
X60511310Y-81315403D01*
X60544668Y-81309089D01*
X60727219Y-81252443D01*
X60749398Y-81193568D01*
X60734411Y-81182259D01*
X60571757Y-81151562D01*
X60459709Y-81170173D01*
X60324689Y-81178306D01*
X60291134Y-81134918D01*
X60364877Y-81047815D01*
X60543002Y-80986681D01*
X60760845Y-80967551D01*
X60893953Y-80985453D01*
X61022720Y-80993340D01*
X61042512Y-80890386D01*
X61034525Y-80842324D01*
X61059281Y-80636365D01*
X61184189Y-80486451D01*
X61304709Y-80450266D01*
X61447556Y-80414887D01*
X61562282Y-80365600D01*
X61786245Y-80253129D01*
X61899800Y-80196266D01*
X62242066Y-80007703D01*
X62501347Y-79830469D01*
X62655951Y-79682452D01*
X62684187Y-79581543D01*
X62666352Y-79564080D01*
X62530247Y-79550180D01*
X62465179Y-79567208D01*
X62340466Y-79544872D01*
X62297180Y-79461650D01*
X62260559Y-79366818D01*
X62220886Y-79422314D01*
X62195233Y-79497766D01*
X62110517Y-79660740D01*
X62024468Y-79659983D01*
X61959935Y-79518933D01*
X61879680Y-79401203D01*
X61758586Y-79347941D01*
X61663198Y-79377083D01*
X61645800Y-79434266D01*
X61577224Y-79509381D01*
X61518800Y-79518933D01*
X61406050Y-79478725D01*
X61391800Y-79444633D01*
X61449726Y-79334291D01*
X61518800Y-79264933D01*
X61620991Y-79208534D01*
X61645800Y-79229166D01*
X61691913Y-79241917D01*
X61744454Y-79200146D01*
X61851698Y-79151083D01*
X61934954Y-79224224D01*
X62083597Y-79307201D01*
X62261709Y-79275237D01*
X62399550Y-79150621D01*
X62430692Y-79065802D01*
X62459101Y-78946452D01*
X62497924Y-78969812D01*
X62557082Y-79095600D01*
X62625057Y-79238485D01*
X62650312Y-79231261D01*
X62656433Y-79116766D01*
X62709139Y-78963782D01*
X62788800Y-78926266D01*
X62891942Y-78854645D01*
X62915800Y-78745515D01*
X62924122Y-78634320D01*
X62970005Y-78643175D01*
X63084826Y-78779650D01*
X63091279Y-78787848D01*
X63228731Y-78939871D01*
X63327671Y-79010334D01*
X63333001Y-79010933D01*
X63411611Y-78945225D01*
X63542296Y-78776509D01*
X63640073Y-78629933D01*
X63788835Y-78416378D01*
X63911581Y-78278127D01*
X63960517Y-78248933D01*
X64071885Y-78190004D01*
X64160618Y-78100766D01*
X64268511Y-78010496D01*
X64324157Y-78055380D01*
X64411367Y-78102828D01*
X64542041Y-78053165D01*
X64655704Y-77942957D01*
X64693800Y-77831857D01*
X64748101Y-77687447D01*
X64877604Y-77513863D01*
X64998686Y-77352099D01*
X65000613Y-77211384D01*
X64963992Y-77127406D01*
X64875405Y-76895072D01*
X64825533Y-76689458D01*
X64727738Y-76434421D01*
X64534675Y-76315281D01*
X64482134Y-76309674D01*
X64482134Y-77825600D01*
X64524467Y-77867933D01*
X64482134Y-77910266D01*
X64439800Y-77867933D01*
X64482134Y-77825600D01*
X64482134Y-76309674D01*
X64418634Y-76302896D01*
X64292883Y-76266434D01*
X64270467Y-76226803D01*
X64198457Y-76156809D01*
X64032981Y-76108139D01*
X63849868Y-76098531D01*
X63780438Y-76112165D01*
X63684142Y-76214283D01*
X63677800Y-76253314D01*
X63637708Y-76412531D01*
X63621356Y-76449573D01*
X63621356Y-76583822D01*
X63671690Y-76595444D01*
X63677800Y-76640266D01*
X63646822Y-76709956D01*
X63621356Y-76696711D01*
X63611223Y-76596231D01*
X63621356Y-76583822D01*
X63621356Y-76449573D01*
X63542003Y-76629331D01*
X63427543Y-76830153D01*
X63333772Y-76939913D01*
X63252129Y-77044197D01*
X63305635Y-77120926D01*
X63431966Y-77121599D01*
X63631062Y-77103249D01*
X63728234Y-77120757D01*
X63767493Y-77189479D01*
X63693031Y-77289841D01*
X63548299Y-77390463D01*
X63376745Y-77459965D01*
X63242955Y-77471234D01*
X63084515Y-77500248D01*
X63036295Y-77603832D01*
X62976653Y-77775338D01*
X62882968Y-77881885D01*
X62866411Y-77882661D01*
X62866411Y-78340284D01*
X62976225Y-78355850D01*
X62977536Y-78384752D01*
X62864219Y-78404964D01*
X62815259Y-78391436D01*
X62783188Y-78353842D01*
X62866411Y-78340284D01*
X62866411Y-77882661D01*
X62796189Y-77885956D01*
X62771161Y-77846766D01*
X62688123Y-77745151D01*
X62614491Y-77775014D01*
X62615088Y-77896471D01*
X62592284Y-78084106D01*
X62577134Y-78106124D01*
X62577134Y-78600968D01*
X62697329Y-78614273D01*
X62682967Y-78643673D01*
X62509625Y-78654855D01*
X62471300Y-78643673D01*
X62460664Y-78612770D01*
X62577134Y-78600968D01*
X62577134Y-78106124D01*
X62472627Y-78258009D01*
X62326594Y-78496396D01*
X62308769Y-78756749D01*
X62320864Y-78945942D01*
X62291029Y-78992791D01*
X62197177Y-78923119D01*
X62179835Y-78907494D01*
X62017552Y-78819456D01*
X61917064Y-78830930D01*
X61761067Y-78867017D01*
X61562113Y-78859803D01*
X61346042Y-78754296D01*
X61138243Y-78531465D01*
X61009513Y-78298651D01*
X61009513Y-78537301D01*
X61053134Y-78545266D01*
X61134571Y-78653509D01*
X61137800Y-78677263D01*
X61073221Y-78754652D01*
X61053134Y-78756933D01*
X60978829Y-78688017D01*
X60968467Y-78624936D01*
X61009513Y-78537301D01*
X61009513Y-78298651D01*
X60977397Y-78240567D01*
X60916146Y-78037266D01*
X60847123Y-77647928D01*
X60820425Y-77394940D01*
X60834743Y-77251039D01*
X60875705Y-77195603D01*
X60922474Y-77083521D01*
X60954525Y-76833106D01*
X60968221Y-76474997D01*
X60968467Y-76414544D01*
X60964640Y-76063228D01*
X60949287Y-75852114D01*
X60916605Y-75752167D01*
X60860785Y-75734351D01*
X60834065Y-75742391D01*
X60624803Y-75800077D01*
X60624803Y-78587600D01*
X60711021Y-78649060D01*
X60714467Y-78672266D01*
X60685580Y-78754732D01*
X60677130Y-78756933D01*
X60638419Y-78725161D01*
X60638419Y-80564983D01*
X60765849Y-80593938D01*
X60877627Y-80645897D01*
X60832331Y-80675063D01*
X60771340Y-80688082D01*
X60616763Y-80691041D01*
X60566729Y-80669417D01*
X60544306Y-80591551D01*
X60638419Y-80564983D01*
X60638419Y-78725161D01*
X60604844Y-78697604D01*
X60587467Y-78672266D01*
X60594180Y-78594247D01*
X60624803Y-78587600D01*
X60624803Y-75800077D01*
X60539707Y-75823536D01*
X60242313Y-75855686D01*
X60234689Y-75855039D01*
X60234689Y-78277155D01*
X60285023Y-78288777D01*
X60291134Y-78333600D01*
X60260155Y-78403290D01*
X60234689Y-78390044D01*
X60224556Y-78289564D01*
X60234689Y-78277155D01*
X60234689Y-75855039D01*
X60003475Y-75835401D01*
X59910592Y-75793980D01*
X59818032Y-75735808D01*
X59776866Y-75782642D01*
X59774040Y-75961238D01*
X59779834Y-76062010D01*
X59746774Y-76239059D01*
X59650125Y-76471491D01*
X59519318Y-76707002D01*
X59383783Y-76893291D01*
X59272952Y-76978052D01*
X59263882Y-76978933D01*
X59208046Y-77051254D01*
X59190467Y-77184087D01*
X59245221Y-77351632D01*
X59380166Y-77559986D01*
X59551331Y-77755855D01*
X59714742Y-77885946D01*
X59789646Y-77910266D01*
X59863790Y-77976316D01*
X59867800Y-78006766D01*
X59929055Y-78130430D01*
X60015967Y-78213649D01*
X60106506Y-78292815D01*
X60054527Y-78312938D01*
X59952467Y-78306825D01*
X59756130Y-78257316D01*
X59528654Y-78155839D01*
X59325995Y-78033429D01*
X59204111Y-77921121D01*
X59190467Y-77884199D01*
X59142689Y-77769476D01*
X59039007Y-77617426D01*
X58957773Y-77521243D01*
X58915559Y-77512286D01*
X58904065Y-77615155D01*
X58914992Y-77854453D01*
X58921909Y-77964500D01*
X58897656Y-78631875D01*
X58740312Y-79213238D01*
X58457953Y-79696853D01*
X58058652Y-80070987D01*
X57550486Y-80323903D01*
X57243134Y-80404149D01*
X56851116Y-80497379D01*
X56612964Y-80601558D01*
X56513226Y-80725588D01*
X56515825Y-80823058D01*
X56558885Y-81028973D01*
X56570595Y-81127600D01*
X56595932Y-81180011D01*
X56650467Y-81085266D01*
X56703473Y-80980870D01*
X56724254Y-81026429D01*
X56729183Y-81135434D01*
X56801011Y-81328209D01*
X56969273Y-81490896D01*
X57179156Y-81591012D01*
X57375847Y-81596076D01*
X57444598Y-81559400D01*
X57592806Y-81495896D01*
X57668391Y-81509789D01*
X57784590Y-81497019D01*
X57874605Y-81414440D01*
X57981483Y-81311793D01*
X58093362Y-81350450D01*
X58122972Y-81373996D01*
X58227759Y-81438546D01*
X58258255Y-81361960D01*
X58259134Y-81316358D01*
X58327322Y-81143942D01*
X58519864Y-81071404D01*
X58752695Y-81091110D01*
X58902757Y-81116407D01*
X58906128Y-81083983D01*
X58830634Y-81018201D01*
X58713629Y-80905399D01*
X58682467Y-80852709D01*
X58763134Y-80806824D01*
X58990175Y-80752584D01*
X59341145Y-80694866D01*
X59519564Y-80670830D01*
X59799159Y-80590871D01*
X60039900Y-80461608D01*
X60198696Y-80351780D01*
X60272551Y-80342722D01*
X60310874Y-80432134D01*
X60315280Y-80448792D01*
X60292034Y-80604899D01*
X60119340Y-80688224D01*
X59916217Y-80704266D01*
X59708105Y-80741961D01*
X59466045Y-80833286D01*
X59453783Y-80839309D01*
X59279689Y-80947105D01*
X59247133Y-81038739D01*
X59274975Y-81085076D01*
X59318364Y-81192903D01*
X59257501Y-81239682D01*
X59244685Y-81275799D01*
X59341432Y-81304813D01*
X59488099Y-81313022D01*
X59550300Y-81306959D01*
X59601714Y-81369094D01*
X59613800Y-81466266D01*
X59655083Y-81603745D01*
X59712578Y-81635600D01*
X59797184Y-81652693D01*
X59756129Y-81692507D01*
X59628311Y-81737836D01*
X59452630Y-81771479D01*
X59392969Y-81776947D01*
X59173583Y-81766098D01*
X59067776Y-81687060D01*
X59067776Y-82482266D01*
X59156584Y-82551292D01*
X59189915Y-82713991D01*
X59167036Y-82903798D01*
X59087213Y-83054149D01*
X59074198Y-83066027D01*
X58903479Y-83123098D01*
X58820198Y-83109669D01*
X58809467Y-83110091D01*
X58809467Y-83836933D01*
X58851800Y-83879266D01*
X58809467Y-83921600D01*
X58767134Y-83879266D01*
X58809467Y-83836933D01*
X58809467Y-83110091D01*
X58703866Y-83114250D01*
X58682467Y-83188891D01*
X58651122Y-83363387D01*
X58640134Y-83390553D01*
X58640134Y-84006266D01*
X58682467Y-84048600D01*
X58640134Y-84090933D01*
X58597800Y-84048600D01*
X58640134Y-84006266D01*
X58640134Y-83390553D01*
X58576887Y-83546921D01*
X58489463Y-83679928D01*
X58424035Y-83707194D01*
X58389179Y-83603855D01*
X58401458Y-83507737D01*
X58395248Y-83349913D01*
X58351176Y-83291158D01*
X58264097Y-83182605D01*
X58303338Y-83092032D01*
X58376085Y-83074933D01*
X58495456Y-83012378D01*
X58656653Y-82855193D01*
X58719060Y-82778600D01*
X58883613Y-82596879D01*
X59028593Y-82492265D01*
X59067776Y-82482266D01*
X59067776Y-81687060D01*
X59056268Y-81678463D01*
X59022098Y-81609907D01*
X58965297Y-81479691D01*
X58946075Y-81504519D01*
X58941834Y-81602712D01*
X58908846Y-81710994D01*
X58794418Y-81797216D01*
X58563975Y-81882394D01*
X58407300Y-81927618D01*
X58043748Y-82015871D01*
X57668740Y-82088173D01*
X57454992Y-82118258D01*
X57241713Y-82161750D01*
X57241713Y-82734247D01*
X57364192Y-82780912D01*
X57412467Y-82900821D01*
X57470753Y-83048729D01*
X57620379Y-83251454D01*
X57749649Y-83387654D01*
X57985111Y-83639861D01*
X58075776Y-83809918D01*
X58022678Y-83901732D01*
X57891256Y-83921600D01*
X57679030Y-83860614D01*
X57566511Y-83773433D01*
X57441399Y-83592334D01*
X57311263Y-83352934D01*
X57199794Y-83107073D01*
X57130682Y-82906590D01*
X57124808Y-82806897D01*
X57241713Y-82734247D01*
X57241713Y-82161750D01*
X57136109Y-82183285D01*
X56837667Y-82320882D01*
X56528663Y-82551949D01*
X56178095Y-82897382D01*
X56027204Y-83064244D01*
X56027204Y-83537959D01*
X56099201Y-83582159D01*
X56187556Y-83693951D01*
X56189338Y-83744923D01*
X56238038Y-83788333D01*
X56404359Y-83819475D01*
X56440360Y-83822385D01*
X56700214Y-83870966D01*
X57001225Y-83968912D01*
X57091057Y-84006796D01*
X57345807Y-84107331D01*
X57560805Y-84166911D01*
X57619900Y-84173740D01*
X57739123Y-84195415D01*
X57727385Y-84243896D01*
X57616965Y-84300967D01*
X57440144Y-84348416D01*
X57277397Y-84367006D01*
X56730586Y-84374551D01*
X56295117Y-84346699D01*
X55990626Y-84285587D01*
X55852181Y-84211885D01*
X55747264Y-84033497D01*
X55729007Y-83834340D01*
X55780711Y-83656984D01*
X55885676Y-83544000D01*
X56027204Y-83537959D01*
X56027204Y-83064244D01*
X55989044Y-83106444D01*
X55761585Y-83373704D01*
X55629354Y-83564470D01*
X55569842Y-83723952D01*
X55560539Y-83897357D01*
X55564231Y-83959640D01*
X55589174Y-84302600D01*
X54362987Y-84370009D01*
X53607436Y-84403890D01*
X52992380Y-84409000D01*
X52490375Y-84378238D01*
X52073977Y-84304505D01*
X51715739Y-84180701D01*
X51388217Y-83999728D01*
X51063966Y-83754485D01*
X50715542Y-83437872D01*
X50699322Y-83422283D01*
X50346414Y-83111549D01*
X49999853Y-82857275D01*
X49710533Y-82696731D01*
X49224511Y-82424404D01*
X48727046Y-82021138D01*
X48247114Y-81520435D01*
X47813693Y-80955794D01*
X47455761Y-80360715D01*
X47218082Y-79815266D01*
X46973098Y-78916272D01*
X46880085Y-78051110D01*
X46935852Y-77185807D01*
X46958029Y-77047046D01*
X47145215Y-76239289D01*
X47423396Y-75414335D01*
X47773304Y-74613963D01*
X48175670Y-73879949D01*
X48611226Y-73254072D01*
X48818800Y-73012500D01*
X49240708Y-72599708D01*
X49758659Y-72155626D01*
X50326940Y-71714778D01*
X50899839Y-71311684D01*
X51431643Y-70980866D01*
X51697467Y-70838561D01*
X51954813Y-70758107D01*
X52337683Y-70695645D01*
X52803099Y-70652390D01*
X53308083Y-70629558D01*
X53809660Y-70628363D01*
X54264851Y-70650021D01*
X54630680Y-70695747D01*
X54829017Y-70750010D01*
X55044769Y-70834028D01*
X55191332Y-70879996D01*
X55211886Y-70882933D01*
X55258244Y-70806456D01*
X55318488Y-70605571D01*
X55379871Y-70323096D01*
X55382035Y-70311433D01*
X55448179Y-70005146D01*
X55519022Y-69758017D01*
X55577380Y-69626801D01*
X55735273Y-69553325D01*
X55735273Y-62331600D01*
X46067134Y-62331600D01*
X46067134Y-91880266D01*
X59677300Y-91861865D01*
G37*
X59677300Y-91861865D02*
X61162037Y-91859690D01*
X62588580Y-91857270D01*
X63948910Y-91854634D01*
X65235009Y-91851811D01*
X66438859Y-91848829D01*
X67552441Y-91845717D01*
X68567737Y-91842503D01*
X69476729Y-91839217D01*
X70271398Y-91835887D01*
X70943726Y-91832542D01*
X71485695Y-91829211D01*
X71889286Y-91825922D01*
X72146481Y-91822703D01*
X72249262Y-91819585D01*
X72207967Y-91817002D01*
X71733290Y-91798669D01*
X71385689Y-91770878D01*
X71180276Y-91735231D01*
X71128467Y-91702491D01*
X71083770Y-91586504D01*
X70969771Y-91388362D01*
X70885892Y-91260521D01*
X70698540Y-90966984D01*
X70521704Y-90658433D01*
X70474759Y-90567933D01*
X70362922Y-90347246D01*
X70198212Y-90027129D01*
X70006645Y-89657990D01*
X69884913Y-89424933D01*
X69681923Y-89025254D01*
X69484991Y-88616721D01*
X69323569Y-88261306D01*
X69261260Y-88112600D01*
X69018075Y-87590517D01*
X68676980Y-86986409D01*
X68260498Y-86337286D01*
X67791153Y-85680159D01*
X67738974Y-85611221D01*
X67506525Y-85288111D01*
X67309606Y-84981725D01*
X67175818Y-84736648D01*
X67138189Y-84640760D01*
X67036095Y-84444837D01*
X66823368Y-84217514D01*
X66488465Y-83949414D01*
X66019846Y-83631161D01*
X65497930Y-83308310D01*
X65205721Y-83119505D01*
X64946125Y-82928498D01*
X64789450Y-82790291D01*
X64589175Y-82577108D01*
X65043654Y-82622877D01*
X65521450Y-82600475D01*
X66082377Y-82451355D01*
X66705428Y-82182328D01*
X67138076Y-81943822D01*
X67379796Y-81802756D01*
X67731019Y-81601891D01*
X68152974Y-81363208D01*
X68606890Y-81108688D01*
X68842467Y-80977499D01*
X69287417Y-80729630D01*
X69710851Y-80492439D01*
X70077227Y-80285929D01*
X70351004Y-80130102D01*
X70451134Y-80072135D01*
X70656655Y-79959470D01*
X70979793Y-79791719D01*
X71385345Y-79586742D01*
X71838112Y-79362399D01*
X72144467Y-79212997D01*
X72757562Y-78915503D01*
X73236642Y-78681452D01*
X73600414Y-78501142D01*
X73867583Y-78364869D01*
X74056853Y-78262929D01*
X74186931Y-78185619D01*
X74276521Y-78123235D01*
X74329308Y-78079600D01*
X74572447Y-77886275D01*
X74820399Y-77723854D01*
X75035171Y-77613094D01*
X75178771Y-77574753D01*
X75215126Y-77595607D01*
X75288153Y-77635772D01*
X75467801Y-77595635D01*
X75708067Y-77500548D01*
X76235375Y-77276846D01*
X76764067Y-77060219D01*
X77267270Y-76860935D01*
X77718111Y-76689265D01*
X78089716Y-76555478D01*
X78355213Y-76469843D01*
X78476405Y-76442646D01*
X78684690Y-76428600D01*
X78695412Y-84154427D01*
X78697656Y-85282174D01*
X78701127Y-86360425D01*
X78705708Y-87377314D01*
X78711288Y-88320974D01*
X78717751Y-89179540D01*
X78724983Y-89941144D01*
X78732871Y-90593922D01*
X78741301Y-91126006D01*
X78750158Y-91525530D01*
X78759329Y-91780627D01*
X78768699Y-91879433D01*
X78769634Y-91880260D01*
X78776373Y-91797025D01*
X78782914Y-91553036D01*
X78789219Y-91156877D01*
X78795252Y-90617126D01*
X78800976Y-89942367D01*
X78806353Y-89141178D01*
X78811348Y-88222141D01*
X78815922Y-87193838D01*
X78820040Y-86064849D01*
X78823664Y-84843754D01*
X78826758Y-83539135D01*
X78829284Y-82159573D01*
X78831206Y-80713648D01*
X78832487Y-79209942D01*
X78833090Y-77657035D01*
X78833134Y-77105933D01*
X78833134Y-62331600D01*
X78452134Y-62331600D01*
X78452134Y-62517438D01*
X78596729Y-62526590D01*
X78609460Y-62553095D01*
X78601912Y-62556469D01*
X78433832Y-62573218D01*
X78430967Y-62572765D01*
X78430967Y-62681796D01*
X78557677Y-62682380D01*
X78626000Y-62725584D01*
X78652037Y-62849631D01*
X78651887Y-63092743D01*
X78649008Y-63199433D01*
X78639524Y-63456621D01*
X78628716Y-63551990D01*
X78614492Y-63493054D01*
X78601807Y-63368766D01*
X78558225Y-63121810D01*
X78525719Y-63078120D01*
X78525719Y-64521905D01*
X78647060Y-64532159D01*
X78680258Y-64556663D01*
X78696008Y-64663915D01*
X78709573Y-64917511D01*
X78720941Y-65294718D01*
X78730100Y-65772803D01*
X78737038Y-66329030D01*
X78741744Y-66940667D01*
X78744207Y-67584981D01*
X78744414Y-68239237D01*
X78742354Y-68880701D01*
X78738015Y-69486641D01*
X78731385Y-70034322D01*
X78722453Y-70501011D01*
X78711206Y-70863974D01*
X78697634Y-71100477D01*
X78683670Y-71186071D01*
X78621467Y-71218025D01*
X78621467Y-75370266D01*
X78663800Y-75412600D01*
X78621467Y-75454933D01*
X78579134Y-75412600D01*
X78621467Y-75370266D01*
X78621467Y-71218025D01*
X78581303Y-71238658D01*
X78340899Y-71320564D01*
X77989836Y-71424876D01*
X77555488Y-71544679D01*
X77065231Y-71673060D01*
X76763732Y-71748635D01*
X76763732Y-71938715D01*
X76983132Y-71951333D01*
X77295338Y-72048896D01*
X77452612Y-72112028D01*
X77628119Y-72211725D01*
X77723263Y-72312602D01*
X77721079Y-72380609D01*
X77604601Y-72381697D01*
X77584300Y-72376331D01*
X77423304Y-72336259D01*
X77161846Y-72276534D01*
X76940055Y-72228084D01*
X76671507Y-72165928D01*
X76544597Y-72117479D01*
X76534318Y-72066385D01*
X76601388Y-72006615D01*
X76763732Y-71938715D01*
X76763732Y-71748635D01*
X76546442Y-71803103D01*
X76026495Y-71927896D01*
X75532766Y-72040524D01*
X75092631Y-72134073D01*
X74733466Y-72201629D01*
X74575688Y-72225441D01*
X74575688Y-72406933D01*
X74599184Y-72472595D01*
X74599800Y-72491600D01*
X74532089Y-72568617D01*
X74484218Y-72576266D01*
X74324843Y-72631001D01*
X74137407Y-72761440D01*
X73982979Y-72916935D01*
X73922467Y-73042168D01*
X73961070Y-73112576D01*
X74101714Y-73103589D01*
X74188521Y-73080809D01*
X74394752Y-73041458D01*
X74529202Y-73050818D01*
X74532523Y-73052680D01*
X74648591Y-73041158D01*
X74753302Y-72972115D01*
X74938157Y-72855116D01*
X75225318Y-72724385D01*
X75552294Y-72605119D01*
X75856591Y-72522516D01*
X75879767Y-72517925D01*
X76075726Y-72525049D01*
X76305243Y-72590422D01*
X76507881Y-72689074D01*
X76623205Y-72796039D01*
X76631800Y-72828604D01*
X76558020Y-72894807D01*
X76378228Y-72950811D01*
X76356634Y-72954782D01*
X76089341Y-73000355D01*
X75869800Y-73036994D01*
X75711109Y-73067343D01*
X75658134Y-73084453D01*
X75582589Y-73111874D01*
X75391558Y-73143610D01*
X75138445Y-73171741D01*
X74996795Y-73182518D01*
X74938467Y-73193870D01*
X74938467Y-73592266D01*
X75008157Y-73623244D01*
X74994911Y-73648711D01*
X74894432Y-73658844D01*
X74882022Y-73648711D01*
X74893645Y-73598376D01*
X74938467Y-73592266D01*
X74938467Y-73193870D01*
X74743950Y-73231731D01*
X74582453Y-73365456D01*
X74536760Y-73435187D01*
X74405105Y-73597957D01*
X74345800Y-73599687D01*
X74345800Y-73826791D01*
X74578634Y-73980937D01*
X74781278Y-74110900D01*
X75057314Y-74282833D01*
X75257311Y-74405071D01*
X75554037Y-74594271D01*
X75910463Y-74835106D01*
X76251463Y-75076763D01*
X76264313Y-75086162D01*
X76534135Y-75289471D01*
X76679112Y-75417322D01*
X76715128Y-75488437D01*
X76658064Y-75521541D01*
X76636768Y-75525265D01*
X76438313Y-75481353D01*
X76145923Y-75309204D01*
X75968432Y-75177284D01*
X75697720Y-74979094D01*
X75449292Y-74821106D01*
X75277134Y-74737606D01*
X75068850Y-74635087D01*
X74850706Y-74472731D01*
X74837688Y-74460756D01*
X74641377Y-74323292D01*
X74483879Y-74296199D01*
X74477855Y-74298278D01*
X74383668Y-74296031D01*
X74348013Y-74169187D01*
X74345800Y-74087871D01*
X74345800Y-73826791D01*
X74345800Y-73599687D01*
X74307737Y-73600798D01*
X74259675Y-73445777D01*
X74257316Y-73396769D01*
X74238036Y-73323850D01*
X74171505Y-73337725D01*
X74037790Y-73451865D01*
X73816955Y-73679740D01*
X73780018Y-73719266D01*
X73578061Y-73951337D01*
X73346176Y-74241356D01*
X73108179Y-74556360D01*
X72887887Y-74863387D01*
X72709114Y-75129472D01*
X72595677Y-75321652D01*
X72567800Y-75397080D01*
X72639534Y-75458214D01*
X72805200Y-75492724D01*
X72990499Y-75493253D01*
X73121129Y-75452442D01*
X73121749Y-75451932D01*
X73293991Y-75383259D01*
X73431151Y-75376208D01*
X73643325Y-75371639D01*
X73753134Y-75347388D01*
X74040034Y-75272420D01*
X74285802Y-75266886D01*
X74432653Y-75330566D01*
X74446204Y-75421188D01*
X74343003Y-75547652D01*
X74115690Y-75724302D01*
X73772990Y-75962865D01*
X73523078Y-76110198D01*
X73321881Y-76174779D01*
X73125324Y-76165089D01*
X72889331Y-76089608D01*
X72675305Y-76001419D01*
X72318097Y-75839237D01*
X72068203Y-75702720D01*
X71940142Y-75601908D01*
X71948434Y-75546841D01*
X72007467Y-75539600D01*
X72077609Y-75527980D01*
X72152622Y-75477748D01*
X72251388Y-75365844D01*
X72392792Y-75169207D01*
X72595719Y-74864776D01*
X72735477Y-74650600D01*
X72963262Y-74312280D01*
X73214206Y-73957332D01*
X73387867Y-73723428D01*
X73553150Y-73496840D01*
X73612313Y-73381030D01*
X73572079Y-73360521D01*
X73541008Y-73370884D01*
X73313613Y-73444419D01*
X73202800Y-73471127D01*
X72830112Y-73547425D01*
X72556376Y-73610855D01*
X72313810Y-73678107D01*
X72129382Y-73735396D01*
X71887817Y-73833945D01*
X71721434Y-73941585D01*
X71684169Y-73989807D01*
X71585815Y-74079210D01*
X71523581Y-74075065D01*
X71411634Y-74115176D01*
X71264276Y-74278012D01*
X71207975Y-74362614D01*
X71105560Y-74508598D01*
X71105560Y-75049774D01*
X71126229Y-75133865D01*
X71127170Y-75179766D01*
X71096312Y-75328418D01*
X71043800Y-75370266D01*
X70965017Y-75316967D01*
X71015446Y-75162760D01*
X71043800Y-75116266D01*
X71105560Y-75049774D01*
X71105560Y-74508598D01*
X71041259Y-74600255D01*
X70930007Y-74686500D01*
X70877990Y-74619090D01*
X70874467Y-74562306D01*
X70933452Y-74427580D01*
X71087752Y-74220213D01*
X71303384Y-73976907D01*
X71546364Y-73734364D01*
X71782711Y-73529285D01*
X71923785Y-73429040D01*
X72059492Y-73363229D01*
X72312820Y-73255381D01*
X72650267Y-73118408D01*
X73038329Y-72965225D01*
X73443502Y-72808743D01*
X73832282Y-72661878D01*
X74171164Y-72537540D01*
X74426647Y-72448644D01*
X74565225Y-72408104D01*
X74575688Y-72406933D01*
X74575688Y-72225441D01*
X74557467Y-72228192D01*
X74133378Y-72298044D01*
X73647858Y-72402202D01*
X73199402Y-72519324D01*
X73160467Y-72530903D01*
X72807921Y-72630990D01*
X72344172Y-72753737D01*
X71823357Y-72885248D01*
X71299612Y-73011626D01*
X71170800Y-73041659D01*
X70655624Y-73160946D01*
X70129396Y-73283055D01*
X69646084Y-73395448D01*
X69259656Y-73485585D01*
X69181134Y-73503964D01*
X68751019Y-73594517D01*
X68381662Y-73652913D01*
X68101693Y-73676238D01*
X67939744Y-73661577D01*
X67911134Y-73633244D01*
X67941180Y-73543221D01*
X68023746Y-73325608D01*
X68147469Y-73009638D01*
X68300988Y-72624544D01*
X68363598Y-72469077D01*
X68813827Y-71344189D01*
X69196571Y-70366252D01*
X69514547Y-69528121D01*
X69770471Y-68822649D01*
X69946956Y-68304539D01*
X70097038Y-67874992D01*
X70235187Y-67560776D01*
X70387543Y-67312227D01*
X70580245Y-67079677D01*
X70606506Y-67051359D01*
X70921733Y-66766454D01*
X71321440Y-66501429D01*
X71818536Y-66251488D01*
X72425928Y-66011832D01*
X73156524Y-65777667D01*
X74023231Y-65544195D01*
X75038956Y-65306619D01*
X75658134Y-65174063D01*
X76007204Y-65097279D01*
X76462129Y-64991440D01*
X76964929Y-64870296D01*
X77457623Y-64747598D01*
X77475054Y-64743169D01*
X77960090Y-64624258D01*
X78303520Y-64551554D01*
X78525719Y-64521905D01*
X78525719Y-63078120D01*
X78476434Y-63011876D01*
X78426099Y-62999111D01*
X78330485Y-62986369D01*
X78397676Y-62959410D01*
X78430967Y-62950570D01*
X78564244Y-62876773D01*
X78541856Y-62790417D01*
X78388634Y-62730018D01*
X78276968Y-62703200D01*
X78321518Y-62688668D01*
X78430967Y-62681796D01*
X78430967Y-62572765D01*
X78347912Y-62559606D01*
X78313384Y-62532655D01*
X78425841Y-62517997D01*
X78452134Y-62517438D01*
X78452134Y-62331600D01*
X76589467Y-62331600D01*
X76589467Y-64448266D01*
X76631800Y-64490600D01*
X76589467Y-64532933D01*
X76547134Y-64490600D01*
X76589467Y-64448266D01*
X76589467Y-62331600D01*
X55735273Y-62331600D01*
X55735273Y-69553325D01*
X55977261Y-69581196D01*
X56259617Y-69700701D01*
X56437551Y-69817907D01*
X56696384Y-69971554D01*
X57005385Y-70098605D01*
X57079622Y-70120514D01*
X57755970Y-70346853D01*
X58279110Y-70629942D01*
X58656894Y-70974249D01*
X58716396Y-71051819D01*
X58910148Y-71294576D01*
X59083903Y-71429069D01*
X59296266Y-71497019D01*
X59356630Y-71507605D01*
X59665510Y-71605431D01*
X59914298Y-71768455D01*
X59918726Y-71772828D01*
X60071564Y-71887198D01*
X60299735Y-71985572D01*
X60636917Y-72080043D01*
X60989096Y-72157137D01*
X61401239Y-72252442D01*
X61796051Y-72363275D01*
X62114729Y-72472293D01*
X62235110Y-72524627D01*
X62677336Y-72749973D01*
X63162961Y-73004923D01*
X63650521Y-73267007D01*
X64098552Y-73513759D01*
X64465591Y-73722707D01*
X64651467Y-73834038D01*
X64923597Y-73997098D01*
X65170238Y-74134708D01*
X65286467Y-74193008D01*
X65512062Y-74249269D01*
X65860717Y-74282955D01*
X66287646Y-74293901D01*
X66748065Y-74281940D01*
X67197190Y-74246907D01*
X67523253Y-74201273D01*
X68109039Y-74096909D01*
X69004919Y-74517484D01*
X69386108Y-74691289D01*
X69735188Y-74841213D01*
X70010087Y-74949728D01*
X70154800Y-74996503D01*
X70417602Y-75080615D01*
X70555545Y-75198146D01*
X70571008Y-75371948D01*
X70466370Y-75624868D01*
X70255390Y-75962933D01*
X70083674Y-76194706D01*
X69827048Y-76513504D01*
X69516566Y-76882957D01*
X69183282Y-77266695D01*
X68858251Y-77628349D01*
X68588467Y-77915183D01*
X68404105Y-78087925D01*
X68149226Y-78306311D01*
X67953467Y-78464239D01*
X67808266Y-78580547D01*
X67808266Y-78845846D01*
X67801454Y-78895504D01*
X67760284Y-78975563D01*
X67618827Y-79173951D01*
X67520894Y-79271896D01*
X67421334Y-79345353D01*
X67428147Y-79295695D01*
X67469316Y-79215636D01*
X67610773Y-79017248D01*
X67708706Y-78919303D01*
X67808266Y-78845846D01*
X67808266Y-78580547D01*
X67717669Y-78653117D01*
X67531051Y-78810576D01*
X67445467Y-78890858D01*
X67276134Y-79063883D01*
X67276134Y-79434266D01*
X67318467Y-79476600D01*
X67276134Y-79518933D01*
X67233800Y-79476600D01*
X67276134Y-79434266D01*
X67276134Y-79063883D01*
X67271892Y-79068218D01*
X67055621Y-79264758D01*
X66834021Y-79449840D01*
X66644461Y-79592828D01*
X66524308Y-79663088D01*
X66503285Y-79663306D01*
X66538195Y-79586937D01*
X66672003Y-79420639D01*
X66881455Y-79191753D01*
X67055350Y-79014186D01*
X67374059Y-78686335D01*
X67570504Y-78457315D01*
X67651851Y-78316771D01*
X67625265Y-78254349D01*
X67585024Y-78248933D01*
X67484501Y-78302738D01*
X67317604Y-78437907D01*
X67246725Y-78503318D01*
X67071025Y-78653971D01*
X66943205Y-78732715D01*
X66916668Y-78736151D01*
X66838943Y-78786527D01*
X66769223Y-78905100D01*
X66668901Y-79051449D01*
X66585779Y-79095600D01*
X66468888Y-79162733D01*
X66448114Y-79201433D01*
X66378359Y-79263742D01*
X66347558Y-79249043D01*
X66339458Y-79142462D01*
X66401809Y-78957452D01*
X66416310Y-78927202D01*
X66493166Y-78714742D01*
X66503930Y-78550929D01*
X66500752Y-78540924D01*
X66511844Y-78435129D01*
X66557992Y-78418266D01*
X66624434Y-78353199D01*
X66609714Y-78155335D01*
X66589998Y-77975249D01*
X66637493Y-77926930D01*
X66668434Y-77935115D01*
X66757157Y-77907170D01*
X66773937Y-77795880D01*
X66821249Y-77645729D01*
X66937568Y-77610782D01*
X67138770Y-77573468D01*
X67222201Y-77536435D01*
X67357700Y-77525858D01*
X67403134Y-77571600D01*
X67517909Y-77630861D01*
X67584167Y-77604910D01*
X67719136Y-77534752D01*
X67885216Y-77500837D01*
X67911134Y-77497516D01*
X67991868Y-77420195D01*
X67995800Y-77390808D01*
X68052993Y-77272257D01*
X68192212Y-77112905D01*
X68207467Y-77098518D01*
X68354093Y-76913549D01*
X68418961Y-76734606D01*
X68419134Y-76727363D01*
X68390799Y-76604924D01*
X68273602Y-76591024D01*
X68205926Y-76605885D01*
X68057463Y-76629770D01*
X68033977Y-76564318D01*
X68072743Y-76448915D01*
X68109476Y-76232752D01*
X68015430Y-76123694D01*
X67791589Y-76122491D01*
X67678056Y-76148982D01*
X67465303Y-76191984D01*
X67349763Y-76159859D01*
X67296784Y-76090515D01*
X67163811Y-75989053D01*
X67098040Y-75993750D01*
X67098040Y-76493804D01*
X67188145Y-76495939D01*
X67254659Y-76516741D01*
X67330012Y-76612987D01*
X67338169Y-76760693D01*
X67283790Y-76875526D01*
X67233800Y-76894266D01*
X67170349Y-76825181D01*
X67111317Y-76676437D01*
X67086458Y-76535804D01*
X67098040Y-76493804D01*
X67098040Y-75993750D01*
X67013941Y-75999757D01*
X66861552Y-76011552D01*
X66810467Y-75972828D01*
X66739796Y-75892886D01*
X66566545Y-75799060D01*
X66535300Y-75786225D01*
X66344800Y-75708878D01*
X66344800Y-76555600D01*
X66387134Y-76597933D01*
X66344800Y-76640266D01*
X66302467Y-76597933D01*
X66344800Y-76555600D01*
X66344800Y-75708878D01*
X66332262Y-75703787D01*
X66203212Y-75647239D01*
X66196634Y-75643887D01*
X66140894Y-75679577D01*
X66133134Y-75735152D01*
X66064714Y-75872221D01*
X66006134Y-75908884D01*
X65909889Y-76035145D01*
X65879134Y-76293945D01*
X65859529Y-76520335D01*
X65810789Y-76665999D01*
X65794156Y-76682792D01*
X65746693Y-76795423D01*
X65758683Y-76932552D01*
X65763386Y-77105533D01*
X65716660Y-77186360D01*
X65630702Y-77309105D01*
X65626430Y-77343763D01*
X65658274Y-77378629D01*
X65706493Y-77320051D01*
X65800793Y-77240491D01*
X65872509Y-77315472D01*
X65911478Y-77530659D01*
X65915145Y-77614418D01*
X65927569Y-77810130D01*
X65949891Y-77907590D01*
X65954091Y-77910017D01*
X66027323Y-77854663D01*
X66164091Y-77718649D01*
X66186925Y-77694237D01*
X66327058Y-77567134D01*
X66378697Y-77581300D01*
X66341524Y-77733439D01*
X66217800Y-78014926D01*
X66097691Y-78279598D01*
X66057598Y-78428042D01*
X66094788Y-78491768D01*
X66175467Y-78502933D01*
X66276293Y-78578661D01*
X66302467Y-78756933D01*
X66272595Y-78940526D01*
X66198644Y-78989766D01*
X66103824Y-79042235D01*
X66067852Y-79137933D01*
X65996966Y-79331174D01*
X65890074Y-79505814D01*
X65775534Y-79629843D01*
X65718385Y-79645198D01*
X65718385Y-80982251D01*
X65803222Y-81000016D01*
X65819285Y-81006043D01*
X65922963Y-81073115D01*
X65923707Y-81111248D01*
X65834142Y-81101751D01*
X65771889Y-81053439D01*
X65718385Y-80982251D01*
X65718385Y-79645198D01*
X65650160Y-79663531D01*
X65443766Y-79622671D01*
X65410783Y-79613663D01*
X65175687Y-79565611D01*
X65049733Y-79590562D01*
X65016347Y-79626782D01*
X64955196Y-79765663D01*
X64968194Y-79838716D01*
X65011300Y-79829150D01*
X65113484Y-79849419D01*
X65179791Y-79904344D01*
X65235809Y-80024748D01*
X65195324Y-80073269D01*
X65082946Y-80058009D01*
X65074800Y-80050386D01*
X65074800Y-80619600D01*
X65117134Y-80661933D01*
X65074800Y-80704266D01*
X65032467Y-80661933D01*
X65074800Y-80619600D01*
X65074800Y-80050386D01*
X64992147Y-79973035D01*
X64901432Y-79869948D01*
X64816437Y-79881512D01*
X64700864Y-79978207D01*
X64507378Y-80135067D01*
X64365749Y-80231083D01*
X63809262Y-80600955D01*
X63327383Y-80975586D01*
X63084577Y-81149905D01*
X62865040Y-81266607D01*
X62749836Y-81296933D01*
X62543877Y-81349739D01*
X62445598Y-81416373D01*
X62292150Y-81536673D01*
X62218812Y-81574115D01*
X62149977Y-81639154D01*
X62160609Y-81666095D01*
X62268767Y-81674597D01*
X62482902Y-81623400D01*
X62757557Y-81528577D01*
X63047278Y-81406202D01*
X63306606Y-81272348D01*
X63352254Y-81244720D01*
X63643930Y-81108259D01*
X63920689Y-81093393D01*
X63948848Y-81097564D01*
X64202143Y-81099861D01*
X64348261Y-81008880D01*
X64499019Y-80893759D01*
X64631741Y-80890706D01*
X64693502Y-80999402D01*
X64693800Y-81010966D01*
X64712338Y-81101231D01*
X64796143Y-81062514D01*
X64833807Y-81032138D01*
X65014666Y-80947201D01*
X65122640Y-80941156D01*
X65277074Y-80919506D01*
X65326296Y-80877651D01*
X65447834Y-80803508D01*
X65548442Y-80788933D01*
X65663580Y-80813075D01*
X65647191Y-80915330D01*
X65627883Y-80953128D01*
X65584997Y-81110175D01*
X65635777Y-81176511D01*
X65669115Y-81251978D01*
X65593002Y-81313232D01*
X65429081Y-81350641D01*
X65357381Y-81330767D01*
X65299571Y-81321507D01*
X65316246Y-81361286D01*
X65285612Y-81455706D01*
X65141639Y-81588211D01*
X65054161Y-81646839D01*
X64813456Y-81806059D01*
X64609991Y-81959678D01*
X64572002Y-81992737D01*
X64366149Y-82092776D01*
X64070392Y-82137460D01*
X63756687Y-82121182D01*
X63566464Y-82071111D01*
X63426443Y-82055063D01*
X63155856Y-82055233D01*
X62792593Y-82070627D01*
X62374546Y-82100252D01*
X62338798Y-82103300D01*
X61892586Y-82143608D01*
X61576931Y-82180928D01*
X61353589Y-82225713D01*
X61184318Y-82288414D01*
X61030875Y-82379482D01*
X60856148Y-82508504D01*
X60630423Y-82673937D01*
X60458014Y-82787198D01*
X60386324Y-82820933D01*
X60320430Y-82749816D01*
X60230774Y-82572371D01*
X60202731Y-82503433D01*
X60118508Y-82287608D01*
X60060794Y-82144421D01*
X60053019Y-82126488D01*
X60089410Y-82034567D01*
X60200763Y-81917172D01*
X60319201Y-81791391D01*
X60376833Y-81687437D01*
X60356202Y-81648007D01*
X60301085Y-81671782D01*
X60192426Y-81655134D01*
X60029681Y-81559601D01*
X59874127Y-81430256D01*
X59787039Y-81312173D01*
X59783134Y-81290788D01*
X59849413Y-81225727D01*
X59995154Y-81218514D01*
X60140711Y-81269042D01*
X60168367Y-81291298D01*
X60298336Y-81328331D01*
X60511310Y-81315403D01*
X60544668Y-81309089D01*
X60727219Y-81252443D01*
X60749398Y-81193568D01*
X60734411Y-81182259D01*
X60571757Y-81151562D01*
X60459709Y-81170173D01*
X60324689Y-81178306D01*
X60291134Y-81134918D01*
X60364877Y-81047815D01*
X60543002Y-80986681D01*
X60760845Y-80967551D01*
X60893953Y-80985453D01*
X61022720Y-80993340D01*
X61042512Y-80890386D01*
X61034525Y-80842324D01*
X61059281Y-80636365D01*
X61184189Y-80486451D01*
X61304709Y-80450266D01*
X61447556Y-80414887D01*
X61562282Y-80365600D01*
X61786245Y-80253129D01*
X61899800Y-80196266D01*
X62242066Y-80007703D01*
X62501347Y-79830469D01*
X62655951Y-79682452D01*
X62684187Y-79581543D01*
X62666352Y-79564080D01*
X62530247Y-79550180D01*
X62465179Y-79567208D01*
X62340466Y-79544872D01*
X62297180Y-79461650D01*
X62260559Y-79366818D01*
X62220886Y-79422314D01*
X62195233Y-79497766D01*
X62110517Y-79660740D01*
X62024468Y-79659983D01*
X61959935Y-79518933D01*
X61879680Y-79401203D01*
X61758586Y-79347941D01*
X61663198Y-79377083D01*
X61645800Y-79434266D01*
X61577224Y-79509381D01*
X61518800Y-79518933D01*
X61406050Y-79478725D01*
X61391800Y-79444633D01*
X61449726Y-79334291D01*
X61518800Y-79264933D01*
X61620991Y-79208534D01*
X61645800Y-79229166D01*
X61691913Y-79241917D01*
X61744454Y-79200146D01*
X61851698Y-79151083D01*
X61934954Y-79224224D01*
X62083597Y-79307201D01*
X62261709Y-79275237D01*
X62399550Y-79150621D01*
X62430692Y-79065802D01*
X62459101Y-78946452D01*
X62497924Y-78969812D01*
X62557082Y-79095600D01*
X62625057Y-79238485D01*
X62650312Y-79231261D01*
X62656433Y-79116766D01*
X62709139Y-78963782D01*
X62788800Y-78926266D01*
X62891942Y-78854645D01*
X62915800Y-78745515D01*
X62924122Y-78634320D01*
X62970005Y-78643175D01*
X63084826Y-78779650D01*
X63091279Y-78787848D01*
X63228731Y-78939871D01*
X63327671Y-79010334D01*
X63333001Y-79010933D01*
X63411611Y-78945225D01*
X63542296Y-78776509D01*
X63640073Y-78629933D01*
X63788835Y-78416378D01*
X63911581Y-78278127D01*
X63960517Y-78248933D01*
X64071885Y-78190004D01*
X64160618Y-78100766D01*
X64268511Y-78010496D01*
X64324157Y-78055380D01*
X64411367Y-78102828D01*
X64542041Y-78053165D01*
X64655704Y-77942957D01*
X64693800Y-77831857D01*
X64748101Y-77687447D01*
X64877604Y-77513863D01*
X64998686Y-77352099D01*
X65000613Y-77211384D01*
X64963992Y-77127406D01*
X64875405Y-76895072D01*
X64825533Y-76689458D01*
X64727738Y-76434421D01*
X64534675Y-76315281D01*
X64482134Y-76309674D01*
X64482134Y-77825600D01*
X64524467Y-77867933D01*
X64482134Y-77910266D01*
X64439800Y-77867933D01*
X64482134Y-77825600D01*
X64482134Y-76309674D01*
X64418634Y-76302896D01*
X64292883Y-76266434D01*
X64270467Y-76226803D01*
X64198457Y-76156809D01*
X64032981Y-76108139D01*
X63849868Y-76098531D01*
X63780438Y-76112165D01*
X63684142Y-76214283D01*
X63677800Y-76253314D01*
X63637708Y-76412531D01*
X63621356Y-76449573D01*
X63621356Y-76583822D01*
X63671690Y-76595444D01*
X63677800Y-76640266D01*
X63646822Y-76709956D01*
X63621356Y-76696711D01*
X63611223Y-76596231D01*
X63621356Y-76583822D01*
X63621356Y-76449573D01*
X63542003Y-76629331D01*
X63427543Y-76830153D01*
X63333772Y-76939913D01*
X63252129Y-77044197D01*
X63305635Y-77120926D01*
X63431966Y-77121599D01*
X63631062Y-77103249D01*
X63728234Y-77120757D01*
X63767493Y-77189479D01*
X63693031Y-77289841D01*
X63548299Y-77390463D01*
X63376745Y-77459965D01*
X63242955Y-77471234D01*
X63084515Y-77500248D01*
X63036295Y-77603832D01*
X62976653Y-77775338D01*
X62882968Y-77881885D01*
X62866411Y-77882661D01*
X62866411Y-78340284D01*
X62976225Y-78355850D01*
X62977536Y-78384752D01*
X62864219Y-78404964D01*
X62815259Y-78391436D01*
X62783188Y-78353842D01*
X62866411Y-78340284D01*
X62866411Y-77882661D01*
X62796189Y-77885956D01*
X62771161Y-77846766D01*
X62688123Y-77745151D01*
X62614491Y-77775014D01*
X62615088Y-77896471D01*
X62592284Y-78084106D01*
X62577134Y-78106124D01*
X62577134Y-78600968D01*
X62697329Y-78614273D01*
X62682967Y-78643673D01*
X62509625Y-78654855D01*
X62471300Y-78643673D01*
X62460664Y-78612770D01*
X62577134Y-78600968D01*
X62577134Y-78106124D01*
X62472627Y-78258009D01*
X62326594Y-78496396D01*
X62308769Y-78756749D01*
X62320864Y-78945942D01*
X62291029Y-78992791D01*
X62197177Y-78923119D01*
X62179835Y-78907494D01*
X62017552Y-78819456D01*
X61917064Y-78830930D01*
X61761067Y-78867017D01*
X61562113Y-78859803D01*
X61346042Y-78754296D01*
X61138243Y-78531465D01*
X61009513Y-78298651D01*
X61009513Y-78537301D01*
X61053134Y-78545266D01*
X61134571Y-78653509D01*
X61137800Y-78677263D01*
X61073221Y-78754652D01*
X61053134Y-78756933D01*
X60978829Y-78688017D01*
X60968467Y-78624936D01*
X61009513Y-78537301D01*
X61009513Y-78298651D01*
X60977397Y-78240567D01*
X60916146Y-78037266D01*
X60847123Y-77647928D01*
X60820425Y-77394940D01*
X60834743Y-77251039D01*
X60875705Y-77195603D01*
X60922474Y-77083521D01*
X60954525Y-76833106D01*
X60968221Y-76474997D01*
X60968467Y-76414544D01*
X60964640Y-76063228D01*
X60949287Y-75852114D01*
X60916605Y-75752167D01*
X60860785Y-75734351D01*
X60834065Y-75742391D01*
X60624803Y-75800077D01*
X60624803Y-78587600D01*
X60711021Y-78649060D01*
X60714467Y-78672266D01*
X60685580Y-78754732D01*
X60677130Y-78756933D01*
X60638419Y-78725161D01*
X60638419Y-80564983D01*
X60765849Y-80593938D01*
X60877627Y-80645897D01*
X60832331Y-80675063D01*
X60771340Y-80688082D01*
X60616763Y-80691041D01*
X60566729Y-80669417D01*
X60544306Y-80591551D01*
X60638419Y-80564983D01*
X60638419Y-78725161D01*
X60604844Y-78697604D01*
X60587467Y-78672266D01*
X60594180Y-78594247D01*
X60624803Y-78587600D01*
X60624803Y-75800077D01*
X60539707Y-75823536D01*
X60242313Y-75855686D01*
X60234689Y-75855039D01*
X60234689Y-78277155D01*
X60285023Y-78288777D01*
X60291134Y-78333600D01*
X60260155Y-78403290D01*
X60234689Y-78390044D01*
X60224556Y-78289564D01*
X60234689Y-78277155D01*
X60234689Y-75855039D01*
X60003475Y-75835401D01*
X59910592Y-75793980D01*
X59818032Y-75735808D01*
X59776866Y-75782642D01*
X59774040Y-75961238D01*
X59779834Y-76062010D01*
X59746774Y-76239059D01*
X59650125Y-76471491D01*
X59519318Y-76707002D01*
X59383783Y-76893291D01*
X59272952Y-76978052D01*
X59263882Y-76978933D01*
X59208046Y-77051254D01*
X59190467Y-77184087D01*
X59245221Y-77351632D01*
X59380166Y-77559986D01*
X59551331Y-77755855D01*
X59714742Y-77885946D01*
X59789646Y-77910266D01*
X59863790Y-77976316D01*
X59867800Y-78006766D01*
X59929055Y-78130430D01*
X60015967Y-78213649D01*
X60106506Y-78292815D01*
X60054527Y-78312938D01*
X59952467Y-78306825D01*
X59756130Y-78257316D01*
X59528654Y-78155839D01*
X59325995Y-78033429D01*
X59204111Y-77921121D01*
X59190467Y-77884199D01*
X59142689Y-77769476D01*
X59039007Y-77617426D01*
X58957773Y-77521243D01*
X58915559Y-77512286D01*
X58904065Y-77615155D01*
X58914992Y-77854453D01*
X58921909Y-77964500D01*
X58897656Y-78631875D01*
X58740312Y-79213238D01*
X58457953Y-79696853D01*
X58058652Y-80070987D01*
X57550486Y-80323903D01*
X57243134Y-80404149D01*
X56851116Y-80497379D01*
X56612964Y-80601558D01*
X56513226Y-80725588D01*
X56515825Y-80823058D01*
X56558885Y-81028973D01*
X56570595Y-81127600D01*
X56595932Y-81180011D01*
X56650467Y-81085266D01*
X56703473Y-80980870D01*
X56724254Y-81026429D01*
X56729183Y-81135434D01*
X56801011Y-81328209D01*
X56969273Y-81490896D01*
X57179156Y-81591012D01*
X57375847Y-81596076D01*
X57444598Y-81559400D01*
X57592806Y-81495896D01*
X57668391Y-81509789D01*
X57784590Y-81497019D01*
X57874605Y-81414440D01*
X57981483Y-81311793D01*
X58093362Y-81350450D01*
X58122972Y-81373996D01*
X58227759Y-81438546D01*
X58258255Y-81361960D01*
X58259134Y-81316358D01*
X58327322Y-81143942D01*
X58519864Y-81071404D01*
X58752695Y-81091110D01*
X58902757Y-81116407D01*
X58906128Y-81083983D01*
X58830634Y-81018201D01*
X58713629Y-80905399D01*
X58682467Y-80852709D01*
X58763134Y-80806824D01*
X58990175Y-80752584D01*
X59341145Y-80694866D01*
X59519564Y-80670830D01*
X59799159Y-80590871D01*
X60039900Y-80461608D01*
X60198696Y-80351780D01*
X60272551Y-80342722D01*
X60310874Y-80432134D01*
X60315280Y-80448792D01*
X60292034Y-80604899D01*
X60119340Y-80688224D01*
X59916217Y-80704266D01*
X59708105Y-80741961D01*
X59466045Y-80833286D01*
X59453783Y-80839309D01*
X59279689Y-80947105D01*
X59247133Y-81038739D01*
X59274975Y-81085076D01*
X59318364Y-81192903D01*
X59257501Y-81239682D01*
X59244685Y-81275799D01*
X59341432Y-81304813D01*
X59488099Y-81313022D01*
X59550300Y-81306959D01*
X59601714Y-81369094D01*
X59613800Y-81466266D01*
X59655083Y-81603745D01*
X59712578Y-81635600D01*
X59797184Y-81652693D01*
X59756129Y-81692507D01*
X59628311Y-81737836D01*
X59452630Y-81771479D01*
X59392969Y-81776947D01*
X59173583Y-81766098D01*
X59067776Y-81687060D01*
X59067776Y-82482266D01*
X59156584Y-82551292D01*
X59189915Y-82713991D01*
X59167036Y-82903798D01*
X59087213Y-83054149D01*
X59074198Y-83066027D01*
X58903479Y-83123098D01*
X58820198Y-83109669D01*
X58809467Y-83110091D01*
X58809467Y-83836933D01*
X58851800Y-83879266D01*
X58809467Y-83921600D01*
X58767134Y-83879266D01*
X58809467Y-83836933D01*
X58809467Y-83110091D01*
X58703866Y-83114250D01*
X58682467Y-83188891D01*
X58651122Y-83363387D01*
X58640134Y-83390553D01*
X58640134Y-84006266D01*
X58682467Y-84048600D01*
X58640134Y-84090933D01*
X58597800Y-84048600D01*
X58640134Y-84006266D01*
X58640134Y-83390553D01*
X58576887Y-83546921D01*
X58489463Y-83679928D01*
X58424035Y-83707194D01*
X58389179Y-83603855D01*
X58401458Y-83507737D01*
X58395248Y-83349913D01*
X58351176Y-83291158D01*
X58264097Y-83182605D01*
X58303338Y-83092032D01*
X58376085Y-83074933D01*
X58495456Y-83012378D01*
X58656653Y-82855193D01*
X58719060Y-82778600D01*
X58883613Y-82596879D01*
X59028593Y-82492265D01*
X59067776Y-82482266D01*
X59067776Y-81687060D01*
X59056268Y-81678463D01*
X59022098Y-81609907D01*
X58965297Y-81479691D01*
X58946075Y-81504519D01*
X58941834Y-81602712D01*
X58908846Y-81710994D01*
X58794418Y-81797216D01*
X58563975Y-81882394D01*
X58407300Y-81927618D01*
X58043748Y-82015871D01*
X57668740Y-82088173D01*
X57454992Y-82118258D01*
X57241713Y-82161750D01*
X57241713Y-82734247D01*
X57364192Y-82780912D01*
X57412467Y-82900821D01*
X57470753Y-83048729D01*
X57620379Y-83251454D01*
X57749649Y-83387654D01*
X57985111Y-83639861D01*
X58075776Y-83809918D01*
X58022678Y-83901732D01*
X57891256Y-83921600D01*
X57679030Y-83860614D01*
X57566511Y-83773433D01*
X57441399Y-83592334D01*
X57311263Y-83352934D01*
X57199794Y-83107073D01*
X57130682Y-82906590D01*
X57124808Y-82806897D01*
X57241713Y-82734247D01*
X57241713Y-82161750D01*
X57136109Y-82183285D01*
X56837667Y-82320882D01*
X56528663Y-82551949D01*
X56178095Y-82897382D01*
X56027204Y-83064244D01*
X56027204Y-83537959D01*
X56099201Y-83582159D01*
X56187556Y-83693951D01*
X56189338Y-83744923D01*
X56238038Y-83788333D01*
X56404359Y-83819475D01*
X56440360Y-83822385D01*
X56700214Y-83870966D01*
X57001225Y-83968912D01*
X57091057Y-84006796D01*
X57345807Y-84107331D01*
X57560805Y-84166911D01*
X57619900Y-84173740D01*
X57739123Y-84195415D01*
X57727385Y-84243896D01*
X57616965Y-84300967D01*
X57440144Y-84348416D01*
X57277397Y-84367006D01*
X56730586Y-84374551D01*
X56295117Y-84346699D01*
X55990626Y-84285587D01*
X55852181Y-84211885D01*
X55747264Y-84033497D01*
X55729007Y-83834340D01*
X55780711Y-83656984D01*
X55885676Y-83544000D01*
X56027204Y-83537959D01*
X56027204Y-83064244D01*
X55989044Y-83106444D01*
X55761585Y-83373704D01*
X55629354Y-83564470D01*
X55569842Y-83723952D01*
X55560539Y-83897357D01*
X55564231Y-83959640D01*
X55589174Y-84302600D01*
X54362987Y-84370009D01*
X53607436Y-84403890D01*
X52992380Y-84409000D01*
X52490375Y-84378238D01*
X52073977Y-84304505D01*
X51715739Y-84180701D01*
X51388217Y-83999728D01*
X51063966Y-83754485D01*
X50715542Y-83437872D01*
X50699322Y-83422283D01*
X50346414Y-83111549D01*
X49999853Y-82857275D01*
X49710533Y-82696731D01*
X49224511Y-82424404D01*
X48727046Y-82021138D01*
X48247114Y-81520435D01*
X47813693Y-80955794D01*
X47455761Y-80360715D01*
X47218082Y-79815266D01*
X46973098Y-78916272D01*
X46880085Y-78051110D01*
X46935852Y-77185807D01*
X46958029Y-77047046D01*
X47145215Y-76239289D01*
X47423396Y-75414335D01*
X47773304Y-74613963D01*
X48175670Y-73879949D01*
X48611226Y-73254072D01*
X48818800Y-73012500D01*
X49240708Y-72599708D01*
X49758659Y-72155626D01*
X50326940Y-71714778D01*
X50899839Y-71311684D01*
X51431643Y-70980866D01*
X51697467Y-70838561D01*
X51954813Y-70758107D01*
X52337683Y-70695645D01*
X52803099Y-70652390D01*
X53308083Y-70629558D01*
X53809660Y-70628363D01*
X54264851Y-70650021D01*
X54630680Y-70695747D01*
X54829017Y-70750010D01*
X55044769Y-70834028D01*
X55191332Y-70879996D01*
X55211886Y-70882933D01*
X55258244Y-70806456D01*
X55318488Y-70605571D01*
X55379871Y-70323096D01*
X55382035Y-70311433D01*
X55448179Y-70005146D01*
X55519022Y-69758017D01*
X55577380Y-69626801D01*
X55735273Y-69553325D01*
X55735273Y-62331600D01*
X46067134Y-62331600D01*
X46067134Y-91880266D01*
X59677300Y-91861865D01*
D12*
X21430200Y-122301000D02*
X183430200Y-122301000D01*
X183430200Y-122301000D02*
X183430200Y-62301000D01*
X21430200Y-122301000D02*
X21430200Y-62301000D01*
X21430200Y-62301000D02*
X183430200Y-62301000D01*
X166430200Y-122301000D02*
X166430200Y-62301000D01*
X38430200Y-122301000D02*
X38430200Y-62301000D01*
X111987933Y-125394980D02*
X111987933Y-124394980D01*
X111654600Y-125109266D01*
X111321266Y-124394980D01*
X111321266Y-125394980D01*
X110464123Y-125347361D02*
X110559361Y-125394980D01*
X110749838Y-125394980D01*
X110845076Y-125347361D01*
X110892695Y-125252123D01*
X110892695Y-124871171D01*
X110845076Y-124775933D01*
X110749838Y-124728314D01*
X110559361Y-124728314D01*
X110464123Y-124775933D01*
X110416504Y-124871171D01*
X110416504Y-124966409D01*
X110892695Y-125061647D01*
X109559361Y-125394980D02*
X109559361Y-124871171D01*
X109606980Y-124775933D01*
X109702219Y-124728314D01*
X109892695Y-124728314D01*
X109987933Y-124775933D01*
X109559361Y-125347361D02*
X109654600Y-125394980D01*
X109892695Y-125394980D01*
X109987933Y-125347361D01*
X110035552Y-125252123D01*
X110035552Y-125156885D01*
X109987933Y-125061647D01*
X109892695Y-125014028D01*
X109654600Y-125014028D01*
X109559361Y-124966409D01*
X109083171Y-124728314D02*
X109083171Y-125394980D01*
X109083171Y-124823552D02*
X109035552Y-124775933D01*
X108940314Y-124728314D01*
X108797457Y-124728314D01*
X108702219Y-124775933D01*
X108654600Y-124871171D01*
X108654600Y-125394980D01*
X108416504Y-125490219D02*
X107654600Y-125490219D01*
X107511742Y-124394980D02*
X107273647Y-125394980D01*
X107083171Y-124680695D01*
X106892695Y-125394980D01*
X106654600Y-124394980D01*
X105892695Y-125347361D02*
X105987933Y-125394980D01*
X106178409Y-125394980D01*
X106273647Y-125347361D01*
X106321266Y-125252123D01*
X106321266Y-124871171D01*
X106273647Y-124775933D01*
X106178409Y-124728314D01*
X105987933Y-124728314D01*
X105892695Y-124775933D01*
X105845076Y-124871171D01*
X105845076Y-124966409D01*
X106321266Y-125061647D01*
X105273647Y-125394980D02*
X105368885Y-125347361D01*
X105416504Y-125252123D01*
X105416504Y-124394980D01*
X104749838Y-125394980D02*
X104845076Y-125347361D01*
X104892695Y-125252123D01*
X104892695Y-124394980D01*
X104606980Y-125490219D02*
X103845076Y-125490219D01*
X103083171Y-125394980D02*
X103654600Y-125394980D01*
X103368885Y-125394980D02*
X103368885Y-124394980D01*
X103464123Y-124537838D01*
X103559361Y-124633076D01*
X103654600Y-124680695D01*
X102702219Y-124490219D02*
X102654600Y-124442600D01*
X102559361Y-124394980D01*
X102321266Y-124394980D01*
X102226028Y-124442600D01*
X102178409Y-124490219D01*
X102130790Y-124585457D01*
X102130790Y-124680695D01*
X102178409Y-124823552D01*
X102749838Y-125394980D01*
X102130790Y-125394980D01*
X101845076Y-124394980D02*
X101511742Y-125394980D01*
X101178409Y-124394980D01*
M02*
