G04 #@! TF.GenerationSoftware,KiCad,Pcbnew,(5.1.6)-1*
G04 #@! TF.CreationDate,2020-09-26T21:02:46-05:00*
G04 #@! TF.ProjectId,Power-Primary,506f7765-722d-4507-9269-6d6172792e6b,rev?*
G04 #@! TF.SameCoordinates,Original*
G04 #@! TF.FileFunction,Soldermask,Top*
G04 #@! TF.FilePolarity,Negative*
%FSLAX46Y46*%
G04 Gerber Fmt 4.6, Leading zero omitted, Abs format (unit mm)*
G04 Created by KiCad (PCBNEW (5.1.6)-1) date 2020-09-26 21:02:46*
%MOMM*%
%LPD*%
G01*
G04 APERTURE LIST*
%ADD10O,1.800000X1.800000*%
%ADD11C,1.800000*%
%ADD12O,1.900000X2.420000*%
%ADD13C,1.670000*%
%ADD14C,3.180000*%
%ADD15C,2.200000*%
%ADD16R,2.200000X2.200000*%
%ADD17C,4.400000*%
%ADD18C,2.600000*%
%ADD19C,3.400000*%
%ADD20C,5.400000*%
%ADD21C,1.400000*%
%ADD22R,1.900000X2.400000*%
%ADD23O,1.900000X2.400000*%
%ADD24C,3.100000*%
G04 APERTURE END LIST*
D10*
X200660000Y-85090000D03*
D11*
X200660000Y-77470000D03*
D10*
X215900000Y-85090000D03*
D11*
X215900000Y-77470000D03*
D10*
X231140000Y-85090000D03*
D11*
X231140000Y-77470000D03*
D10*
X231140000Y-102870000D03*
D11*
X231140000Y-110490000D03*
D10*
X215900000Y-102870000D03*
D11*
X215900000Y-110490000D03*
D10*
X200660000Y-102870000D03*
D11*
X200660000Y-110490000D03*
D12*
X192270000Y-66040000D03*
G36*
G01*
X196220000Y-65146667D02*
X196220000Y-66933333D01*
G75*
G02*
X195903333Y-67250000I-316667J0D01*
G01*
X194636667Y-67250000D01*
G75*
G02*
X194320000Y-66933333I0J316667D01*
G01*
X194320000Y-65146667D01*
G75*
G02*
X194636667Y-64830000I316667J0D01*
G01*
X195903333Y-64830000D01*
G75*
G02*
X196220000Y-65146667I0J-316667D01*
G01*
G37*
D13*
X189270000Y-68000000D03*
X198270000Y-68000000D03*
D12*
X207510000Y-66040000D03*
G36*
G01*
X211460000Y-65146667D02*
X211460000Y-66933333D01*
G75*
G02*
X211143333Y-67250000I-316667J0D01*
G01*
X209876667Y-67250000D01*
G75*
G02*
X209560000Y-66933333I0J316667D01*
G01*
X209560000Y-65146667D01*
G75*
G02*
X209876667Y-64830000I316667J0D01*
G01*
X211143333Y-64830000D01*
G75*
G02*
X211460000Y-65146667I0J-316667D01*
G01*
G37*
D13*
X204510000Y-68000000D03*
X213510000Y-68000000D03*
D12*
X222790000Y-66040000D03*
G36*
G01*
X226740000Y-65146667D02*
X226740000Y-66933333D01*
G75*
G02*
X226423333Y-67250000I-316667J0D01*
G01*
X225156667Y-67250000D01*
G75*
G02*
X224840000Y-66933333I0J316667D01*
G01*
X224840000Y-65146667D01*
G75*
G02*
X225156667Y-64830000I316667J0D01*
G01*
X226423333Y-64830000D01*
G75*
G02*
X226740000Y-65146667I0J-316667D01*
G01*
G37*
D13*
X219790000Y-68000000D03*
X228790000Y-68000000D03*
D12*
X225250000Y-118110000D03*
G36*
G01*
X221300000Y-119003333D02*
X221300000Y-117216667D01*
G75*
G02*
X221616667Y-116900000I316667J0D01*
G01*
X222883333Y-116900000D01*
G75*
G02*
X223200000Y-117216667I0J-316667D01*
G01*
X223200000Y-119003333D01*
G75*
G02*
X222883333Y-119320000I-316667J0D01*
G01*
X221616667Y-119320000D01*
G75*
G02*
X221300000Y-119003333I0J316667D01*
G01*
G37*
D13*
X228250000Y-116150000D03*
X219250000Y-116150000D03*
D12*
X210010000Y-118110000D03*
G36*
G01*
X206060000Y-119003333D02*
X206060000Y-117216667D01*
G75*
G02*
X206376667Y-116900000I316667J0D01*
G01*
X207643333Y-116900000D01*
G75*
G02*
X207960000Y-117216667I0J-316667D01*
G01*
X207960000Y-119003333D01*
G75*
G02*
X207643333Y-119320000I-316667J0D01*
G01*
X206376667Y-119320000D01*
G75*
G02*
X206060000Y-119003333I0J316667D01*
G01*
G37*
D13*
X213010000Y-116150000D03*
X204010000Y-116150000D03*
D12*
X194770000Y-118110000D03*
G36*
G01*
X190820000Y-119003333D02*
X190820000Y-117216667D01*
G75*
G02*
X191136667Y-116900000I316667J0D01*
G01*
X192403333Y-116900000D01*
G75*
G02*
X192720000Y-117216667I0J-316667D01*
G01*
X192720000Y-119003333D01*
G75*
G02*
X192403333Y-119320000I-316667J0D01*
G01*
X191136667Y-119320000D01*
G75*
G02*
X190820000Y-119003333I0J316667D01*
G01*
G37*
D13*
X197770000Y-116150000D03*
X188770000Y-116150000D03*
D14*
X195170000Y-77470000D03*
X191770000Y-77470000D03*
X195170000Y-87390000D03*
X191770000Y-87390000D03*
X210410000Y-77470000D03*
X207010000Y-77470000D03*
X210410000Y-87390000D03*
X207010000Y-87390000D03*
X225650000Y-77470000D03*
X222250000Y-77470000D03*
X225650000Y-87390000D03*
X222250000Y-87390000D03*
X222250000Y-110490000D03*
X225650000Y-110490000D03*
X222250000Y-100570000D03*
X225650000Y-100570000D03*
X207010000Y-110490000D03*
X210410000Y-110490000D03*
X207010000Y-100570000D03*
X210410000Y-100570000D03*
X195170000Y-100570000D03*
X191770000Y-100570000D03*
X195170000Y-110490000D03*
X191770000Y-110490000D03*
D15*
X200660000Y-90170000D03*
D16*
X200660000Y-87630000D03*
D15*
X215900000Y-90170000D03*
D16*
X215900000Y-87630000D03*
D15*
X231140000Y-90170000D03*
D16*
X231140000Y-87630000D03*
D15*
X231140000Y-97790000D03*
D16*
X231140000Y-100330000D03*
D15*
X215900000Y-97790000D03*
D16*
X215900000Y-100330000D03*
D15*
X200660000Y-97790000D03*
D16*
X200660000Y-100330000D03*
D17*
X74155880Y-105283920D03*
X50415880Y-105283920D03*
D18*
X66095880Y-102483920D03*
X66095880Y-99943920D03*
X58475880Y-102483920D03*
X58475880Y-99943920D03*
X66095880Y-94863920D03*
X58475880Y-94863920D03*
D19*
X26430200Y-87301000D03*
X26430200Y-97301000D03*
D20*
X162430200Y-66301000D03*
X42430200Y-118301000D03*
X42430200Y-66301000D03*
X162430200Y-118301000D03*
D19*
X178430200Y-87301000D03*
X178430200Y-97301000D03*
X19446240Y-60192920D03*
X236220000Y-60192920D03*
X236220000Y-121920000D03*
X19446240Y-124170440D03*
D10*
X99009200Y-102997000D03*
D11*
X99009200Y-110617000D03*
X113639600Y-110617000D03*
D10*
X113639600Y-102997000D03*
X128219200Y-102997000D03*
D11*
X128219200Y-110617000D03*
X143103600Y-110617000D03*
D10*
X143103600Y-102997000D03*
X158140400Y-102997000D03*
D11*
X158140400Y-110617000D03*
D10*
X158140400Y-84480400D03*
D11*
X158140400Y-76860400D03*
X143103600Y-76885800D03*
D10*
X143103600Y-84505800D03*
X128270000Y-84480400D03*
D11*
X128270000Y-76860400D03*
X113639600Y-76860400D03*
D10*
X113639600Y-84480400D03*
X98983800Y-84480400D03*
D11*
X98983800Y-76860400D03*
D21*
X155349200Y-68025400D03*
X146349200Y-68025400D03*
D22*
X152349200Y-66065400D03*
D23*
X149349200Y-66065400D03*
D14*
X122754600Y-76846400D03*
X119354600Y-76846400D03*
X122754600Y-86766400D03*
X119354600Y-86766400D03*
D23*
X105331000Y-66065400D03*
D22*
X108331000Y-66065400D03*
D21*
X102331000Y-68025400D03*
X111331000Y-68025400D03*
D14*
X108327400Y-76846400D03*
X104927400Y-76846400D03*
X108327400Y-86766400D03*
X104927400Y-86766400D03*
D16*
X99009200Y-87096600D03*
D15*
X99009200Y-89636600D03*
X99009200Y-97840800D03*
D16*
X99009200Y-100380800D03*
X113665000Y-100380800D03*
D15*
X113665000Y-97840800D03*
D16*
X128244600Y-100380800D03*
D15*
X128244600Y-97840800D03*
X143103600Y-97840800D03*
D16*
X143103600Y-100380800D03*
X158140400Y-100380800D03*
D15*
X158140400Y-97840800D03*
D16*
X158165800Y-87096600D03*
D15*
X158165800Y-89636600D03*
X143103600Y-89636600D03*
D16*
X143103600Y-87096600D03*
X128244600Y-87096600D03*
D15*
X128244600Y-89636600D03*
D16*
X113614200Y-87096600D03*
D15*
X113614200Y-89636600D03*
D14*
X93595400Y-100698300D03*
X90195400Y-100698300D03*
X93595400Y-110618300D03*
X90195400Y-110618300D03*
X108327400Y-100698300D03*
X104927400Y-100698300D03*
X108327400Y-110618300D03*
X104927400Y-110618300D03*
X119354600Y-110618300D03*
X122754600Y-110618300D03*
X119354600Y-100698300D03*
X122754600Y-100698300D03*
X137588400Y-100698300D03*
X134188400Y-100698300D03*
X137588400Y-110618300D03*
X134188400Y-110618300D03*
X152371000Y-100698300D03*
X148971000Y-100698300D03*
X152371000Y-110618300D03*
X148971000Y-110618300D03*
X152371000Y-76846400D03*
X148971000Y-76846400D03*
X152371000Y-86766400D03*
X148971000Y-86766400D03*
X137588400Y-76846400D03*
X134188400Y-76846400D03*
X137588400Y-86766400D03*
X134188400Y-86766400D03*
D21*
X87220800Y-116531000D03*
X96220800Y-116531000D03*
D22*
X90220800Y-118491000D03*
D23*
X93220800Y-118491000D03*
X107902000Y-118491000D03*
D22*
X104902000Y-118491000D03*
D21*
X110902000Y-116531000D03*
X101902000Y-116531000D03*
D23*
X122354600Y-118491000D03*
D22*
X119354600Y-118491000D03*
D21*
X125354600Y-116531000D03*
X116354600Y-116531000D03*
D23*
X137137400Y-118491000D03*
D22*
X134137400Y-118491000D03*
D21*
X140137400Y-116531000D03*
X131137400Y-116531000D03*
D23*
X151996400Y-118491000D03*
D22*
X148996400Y-118491000D03*
D21*
X154996400Y-116531000D03*
X145996400Y-116531000D03*
X140617200Y-68025400D03*
X131617200Y-68025400D03*
D22*
X137617200Y-66065400D03*
D23*
X134617200Y-66065400D03*
X119783600Y-66065400D03*
D22*
X122783600Y-66065400D03*
D21*
X116783600Y-68025400D03*
X125783600Y-68025400D03*
D14*
X93595400Y-76846400D03*
X90195400Y-76846400D03*
X93595400Y-86766400D03*
X90195400Y-86766400D03*
D23*
X90573600Y-66065400D03*
D22*
X93573600Y-66065400D03*
D21*
X87573600Y-68025400D03*
X96573600Y-68025400D03*
D16*
X173761400Y-74396600D03*
D15*
X173761400Y-71856600D03*
D11*
X178460400Y-79451200D03*
D10*
X178460400Y-71831200D03*
D19*
X33324800Y-102514400D03*
X33324800Y-125014400D03*
D24*
X33324800Y-113764400D03*
M02*
