M48
; DRILL file {KiCad (5.1.6)-1} date 09/27/20 14:44:05
; FORMAT={-:-/ absolute / inch / decimal}
; #@! TF.CreationDate,2020-09-27T14:44:05-05:00
; #@! TF.GenerationSoftware,Kicad,Pcbnew,(5.1.6)-1
FMAT,2
INCH
T1C0.0157
T2C0.0276
T3C0.0354
T4C0.0394
T5C0.0402
T6C0.0512
T7C0.0551
T8C0.0591
T9C0.0701
T10C0.0394
T11C0.0500
T12C0.1063
T13C0.1181
T14C0.1339
T15C0.1378
%
G90
G05
T1
X3.3152Y-4.6638
X3.902Y-4.6638
X3.913Y-2.602
X4.4746Y-4.6638
X4.494Y-2.602
X4.759Y-4.935
X4.776Y-2.313
X5.0584Y-4.6638
X5.071Y-2.602
X5.6358Y-4.6638
X5.649Y-2.602
X6.177Y-2.602
X7.35Y-4.65
X7.9Y-2.6
X7.95Y-4.65
X8.5Y-2.6
X8.55Y-4.65
X9.1Y-2.6
T2
X4.474Y-4.055
X4.474Y-4.355
X7.9Y-3.0054
X7.9Y-3.3299
X7.9Y-4.05
X7.9Y-4.35
X3.897Y-3.026
X3.897Y-3.326
X6.226Y-3.026
X6.226Y-3.326
X4.474Y-3.026
X4.474Y-3.326
X9.1Y-3.0054
X9.1Y-3.3299
X6.226Y-4.055
X6.226Y-4.355
X5.05Y-3.026
X5.05Y-3.326
X5.634Y-4.055
X5.634Y-4.355
X5.634Y-3.027
X5.634Y-3.327
X8.5Y-4.05
X8.5Y-4.35
X8.5Y-3.0054
X8.5Y-3.3299
X5.048Y-4.055
X5.048Y-4.355
X7.026Y-2.828
X7.026Y-3.128
X9.1Y-4.05
X9.1Y-4.35
X3.898Y-4.055
X3.898Y-4.355
T3
X7.9Y-3.429
X7.9Y-3.529
X4.473Y-3.429
X4.473Y-3.529
X3.898Y-3.429
X3.898Y-3.529
X6.227Y-3.429
X6.227Y-3.529
X8.5Y-3.429
X8.5Y-3.529
X5.049Y-3.852
X5.049Y-3.952
X7.9Y-3.85
X7.9Y-3.95
X6.841Y-2.829
X6.841Y-2.929
X5.634Y-3.852
X5.634Y-3.952
X5.049Y-3.429
X5.049Y-3.529
X4.475Y-3.852
X4.475Y-3.952
X8.5Y-3.85
X8.5Y-3.95
X6.226Y-3.852
X6.226Y-3.952
X9.1Y-3.429
X9.1Y-3.529
X9.1Y-3.85
X9.1Y-3.95
X5.634Y-3.429
X5.634Y-3.529
X3.898Y-3.852
X3.898Y-3.952
T4
X5.2999Y-2.601
X5.418Y-2.601
X4.7159Y-2.601
X4.834Y-2.601
X4.699Y-4.665
X4.8171Y-4.665
X5.866Y-4.665
X5.9841Y-4.665
X4.1469Y-2.601
X4.265Y-2.601
X4.13Y-4.665
X4.2481Y-4.665
X5.8799Y-2.601
X5.998Y-2.601
X3.552Y-4.665
X3.6701Y-4.665
X5.281Y-4.665
X5.3991Y-4.665
X3.5659Y-2.601
X3.684Y-2.601
T5
X8.15Y-4.65
X8.2681Y-4.65
X8.75Y-4.65
X8.8681Y-4.65
X8.7713Y-2.6
X8.8894Y-2.6
X8.1697Y-2.6
X8.2878Y-2.6
X7.5697Y-2.6
X7.6878Y-2.6
X7.55Y-4.65
X7.6681Y-4.65
T6
X1.312Y-4.036
X1.312Y-4.9218
T7
X2.3022Y-3.7348
X2.3022Y-3.9348
X2.3022Y-4.0348
X2.6022Y-3.7348
X2.6022Y-3.9348
X2.6022Y-4.0348
T8
X1.0406Y-3.437
X1.0406Y-3.8307
X7.0248Y-3.437
X7.0248Y-3.8307
T9
X5.283Y-3.0254
X5.283Y-3.416
X5.4169Y-3.0254
X5.4169Y-3.416
X8.15Y-3.0254
X8.15Y-3.416
X8.2839Y-3.0254
X8.2839Y-3.416
X3.551Y-3.0254
X3.551Y-3.416
X3.6849Y-3.0254
X3.6849Y-3.416
X5.865Y-3.0254
X5.865Y-3.416
X5.9989Y-3.0254
X5.9989Y-3.416
X8.75Y-3.0254
X8.75Y-3.416
X8.8839Y-3.0254
X8.8839Y-3.416
X4.699Y-3.9645
X4.699Y-4.3551
X4.8329Y-3.9645
X4.8329Y-4.3551
X4.131Y-3.0254
X4.131Y-3.416
X4.2649Y-3.0254
X4.2649Y-3.416
X3.551Y-3.9645
X3.551Y-4.3551
X3.6849Y-3.9645
X3.6849Y-4.3551
X4.699Y-3.0254
X4.699Y-3.416
X4.8329Y-3.0254
X4.8329Y-3.416
X5.865Y-3.9645
X5.865Y-4.3551
X5.9989Y-3.9645
X5.9989Y-4.3551
X7.55Y-3.0254
X7.55Y-3.416
X7.6839Y-3.0254
X7.6839Y-3.416
X8.75Y-3.9594
X8.75Y-4.35
X8.8839Y-3.9594
X8.8839Y-4.35
X5.283Y-3.9645
X5.283Y-4.3551
X5.4169Y-3.9645
X5.4169Y-4.3551
X7.55Y-3.9594
X7.55Y-4.35
X7.6839Y-3.9594
X7.6839Y-4.35
X4.131Y-3.9645
X4.131Y-4.3551
X4.2649Y-3.9645
X4.2649Y-4.3551
X8.15Y-3.9594
X8.15Y-4.35
X8.2839Y-3.9594
X8.2839Y-4.35
T10
X5.1818Y-2.6782
X5.5361Y-2.6782
X4.5978Y-2.6782
X4.9521Y-2.6782
X4.5809Y-4.5878
X4.9352Y-4.5878
X5.7479Y-4.5878
X6.1022Y-4.5878
X4.0288Y-2.6782
X4.3831Y-2.6782
X4.0119Y-4.5878
X4.3662Y-4.5878
X5.7618Y-2.6782
X6.1161Y-2.6782
X3.4339Y-4.5878
X3.7882Y-4.5878
X5.1629Y-4.5878
X5.5172Y-4.5878
X3.4478Y-2.6782
X3.8021Y-2.6782
T11
X8.3862Y-4.5728
X8.6319Y-4.5728
X8.9862Y-4.5728
X8.6531Y-2.6772
X9.0075Y-2.6772
X8.0516Y-2.6772
X8.4059Y-2.6772
X7.4516Y-2.6772
X7.8059Y-2.6772
X7.4319Y-4.5728
X7.7862Y-4.5728
X8.0319Y-4.5728
T12
X1.312Y-4.4789
T13
X0.7656Y-4.8886
X9.3Y-4.85
X0.7656Y-2.3698
X9.3Y-2.3698
T14
X1.9849Y-4.145
X2.9195Y-4.145
T15
X1.6705Y-2.6103
X1.6705Y-4.6575
X6.3949Y-2.6103
X6.3949Y-4.6575
T0
M30
