G04 #@! TF.GenerationSoftware,KiCad,Pcbnew,(5.1.6)-1*
G04 #@! TF.CreationDate,2020-10-03T12:42:16-05:00*
G04 #@! TF.ProjectId,Power-Primary,506f7765-722d-4507-9269-6d6172792e6b,rev?*
G04 #@! TF.SameCoordinates,Original*
G04 #@! TF.FileFunction,Legend,Top*
G04 #@! TF.FilePolarity,Positive*
%FSLAX46Y46*%
G04 Gerber Fmt 4.6, Leading zero omitted, Abs format (unit mm)*
G04 Created by KiCad (PCBNEW (5.1.6)-1) date 2020-10-03 12:42:16*
%MOMM*%
%LPD*%
G01*
G04 APERTURE LIST*
%ADD10C,0.150000*%
%ADD11C,0.375000*%
%ADD12C,0.120000*%
%ADD13C,0.010000*%
G04 APERTURE END LIST*
D10*
X137637638Y-90555819D02*
X138209066Y-90555819D01*
X137923352Y-90555819D02*
X137923352Y-91555819D01*
X138018590Y-91412961D01*
X138113828Y-91317723D01*
X138209066Y-91270104D01*
X136494780Y-90841533D02*
X136018590Y-90841533D01*
X136590019Y-90555819D02*
X136256685Y-91555819D01*
X135923352Y-90555819D01*
X135590019Y-90555819D02*
X135590019Y-91555819D01*
X135256685Y-90841533D01*
X134923352Y-91555819D01*
X134923352Y-90555819D01*
X134447161Y-90555819D02*
X134447161Y-91555819D01*
X134066209Y-91555819D01*
X133970971Y-91508200D01*
X133923352Y-91460580D01*
X133875733Y-91365342D01*
X133875733Y-91222485D01*
X133923352Y-91127247D01*
X133970971Y-91079628D01*
X134066209Y-91032009D01*
X134447161Y-91032009D01*
X149026761Y-96667580D02*
X148455333Y-96667580D01*
X148741047Y-96667580D02*
X148741047Y-95667580D01*
X148645809Y-95810438D01*
X148550571Y-95905676D01*
X148455333Y-95953295D01*
X150169619Y-96381866D02*
X150645809Y-96381866D01*
X150074380Y-96667580D02*
X150407714Y-95667580D01*
X150741047Y-96667580D01*
X151074380Y-96667580D02*
X151074380Y-95667580D01*
X151407714Y-96381866D01*
X151741047Y-95667580D01*
X151741047Y-96667580D01*
X152217238Y-96667580D02*
X152217238Y-95667580D01*
X152598190Y-95667580D01*
X152693428Y-95715200D01*
X152741047Y-95762819D01*
X152788666Y-95858057D01*
X152788666Y-96000914D01*
X152741047Y-96096152D01*
X152693428Y-96143771D01*
X152598190Y-96191390D01*
X152217238Y-96191390D01*
X134320161Y-96718380D02*
X133748733Y-96718380D01*
X134034447Y-96718380D02*
X134034447Y-95718380D01*
X133939209Y-95861238D01*
X133843971Y-95956476D01*
X133748733Y-96004095D01*
X135463019Y-96432666D02*
X135939209Y-96432666D01*
X135367780Y-96718380D02*
X135701114Y-95718380D01*
X136034447Y-96718380D01*
X136367780Y-96718380D02*
X136367780Y-95718380D01*
X136701114Y-96432666D01*
X137034447Y-95718380D01*
X137034447Y-96718380D01*
X137510638Y-96718380D02*
X137510638Y-95718380D01*
X137891590Y-95718380D01*
X137986828Y-95766000D01*
X138034447Y-95813619D01*
X138082066Y-95908857D01*
X138082066Y-96051714D01*
X138034447Y-96146952D01*
X137986828Y-96194571D01*
X137891590Y-96242190D01*
X137510638Y-96242190D01*
X104983161Y-96769180D02*
X104411733Y-96769180D01*
X104697447Y-96769180D02*
X104697447Y-95769180D01*
X104602209Y-95912038D01*
X104506971Y-96007276D01*
X104411733Y-96054895D01*
X106126019Y-96483466D02*
X106602209Y-96483466D01*
X106030780Y-96769180D02*
X106364114Y-95769180D01*
X106697447Y-96769180D01*
X107030780Y-96769180D02*
X107030780Y-95769180D01*
X107364114Y-96483466D01*
X107697447Y-95769180D01*
X107697447Y-96769180D01*
X108173638Y-96769180D02*
X108173638Y-95769180D01*
X108554590Y-95769180D01*
X108649828Y-95816800D01*
X108697447Y-95864419D01*
X108745066Y-95959657D01*
X108745066Y-96102514D01*
X108697447Y-96197752D01*
X108649828Y-96245371D01*
X108554590Y-96292990D01*
X108173638Y-96292990D01*
X89178142Y-95991419D02*
X89225761Y-95943800D01*
X89321000Y-95896180D01*
X89559095Y-95896180D01*
X89654333Y-95943800D01*
X89701952Y-95991419D01*
X89749571Y-96086657D01*
X89749571Y-96181895D01*
X89701952Y-96324752D01*
X89130523Y-96896180D01*
X89749571Y-96896180D01*
X90892428Y-96610466D02*
X91368619Y-96610466D01*
X90797190Y-96896180D02*
X91130523Y-95896180D01*
X91463857Y-96896180D01*
X91797190Y-96896180D02*
X91797190Y-95896180D01*
X92130523Y-96610466D01*
X92463857Y-95896180D01*
X92463857Y-96896180D01*
X92940047Y-96896180D02*
X92940047Y-95896180D01*
X93321000Y-95896180D01*
X93416238Y-95943800D01*
X93463857Y-95991419D01*
X93511476Y-96086657D01*
X93511476Y-96229514D01*
X93463857Y-96324752D01*
X93416238Y-96372371D01*
X93321000Y-96419990D01*
X92940047Y-96419990D01*
X93892428Y-96848561D02*
X94035285Y-96896180D01*
X94273380Y-96896180D01*
X94368619Y-96848561D01*
X94416238Y-96800942D01*
X94463857Y-96705704D01*
X94463857Y-96610466D01*
X94416238Y-96515228D01*
X94368619Y-96467609D01*
X94273380Y-96419990D01*
X94082904Y-96372371D01*
X93987666Y-96324752D01*
X93940047Y-96277133D01*
X93892428Y-96181895D01*
X93892428Y-96086657D01*
X93940047Y-95991419D01*
X93987666Y-95943800D01*
X94082904Y-95896180D01*
X94321000Y-95896180D01*
X94463857Y-95943800D01*
X119562761Y-96769180D02*
X118991333Y-96769180D01*
X119277047Y-96769180D02*
X119277047Y-95769180D01*
X119181809Y-95912038D01*
X119086571Y-96007276D01*
X118991333Y-96054895D01*
X120705619Y-96483466D02*
X121181809Y-96483466D01*
X120610380Y-96769180D02*
X120943714Y-95769180D01*
X121277047Y-96769180D01*
X121610380Y-96769180D02*
X121610380Y-95769180D01*
X121943714Y-96483466D01*
X122277047Y-95769180D01*
X122277047Y-96769180D01*
X122753238Y-96769180D02*
X122753238Y-95769180D01*
X123134190Y-95769180D01*
X123229428Y-95816800D01*
X123277047Y-95864419D01*
X123324666Y-95959657D01*
X123324666Y-96102514D01*
X123277047Y-96197752D01*
X123229428Y-96245371D01*
X123134190Y-96292990D01*
X122753238Y-96292990D01*
X153442657Y-91460580D02*
X153395038Y-91508200D01*
X153299800Y-91555819D01*
X153061704Y-91555819D01*
X152966466Y-91508200D01*
X152918847Y-91460580D01*
X152871228Y-91365342D01*
X152871228Y-91270104D01*
X152918847Y-91127247D01*
X153490276Y-90555819D01*
X152871228Y-90555819D01*
X151728371Y-90841533D02*
X151252180Y-90841533D01*
X151823609Y-90555819D02*
X151490276Y-91555819D01*
X151156942Y-90555819D01*
X150823609Y-90555819D02*
X150823609Y-91555819D01*
X150490276Y-90841533D01*
X150156942Y-91555819D01*
X150156942Y-90555819D01*
X149680752Y-90555819D02*
X149680752Y-91555819D01*
X149299800Y-91555819D01*
X149204561Y-91508200D01*
X149156942Y-91460580D01*
X149109323Y-91365342D01*
X149109323Y-91222485D01*
X149156942Y-91127247D01*
X149204561Y-91079628D01*
X149299800Y-91032009D01*
X149680752Y-91032009D01*
X148728371Y-90603438D02*
X148585514Y-90555819D01*
X148347419Y-90555819D01*
X148252180Y-90603438D01*
X148204561Y-90651057D01*
X148156942Y-90746295D01*
X148156942Y-90841533D01*
X148204561Y-90936771D01*
X148252180Y-90984390D01*
X148347419Y-91032009D01*
X148537895Y-91079628D01*
X148633133Y-91127247D01*
X148680752Y-91174866D01*
X148728371Y-91270104D01*
X148728371Y-91365342D01*
X148680752Y-91460580D01*
X148633133Y-91508200D01*
X148537895Y-91555819D01*
X148299800Y-91555819D01*
X148156942Y-91508200D01*
X39796980Y-114879238D02*
X39796980Y-115450666D01*
X39796980Y-115164952D02*
X38796980Y-115164952D01*
X38939838Y-115260190D01*
X39035076Y-115355428D01*
X39082695Y-115450666D01*
X39511266Y-113736380D02*
X39511266Y-113260190D01*
X39796980Y-113831619D02*
X38796980Y-113498285D01*
X39796980Y-113164952D01*
X39796980Y-112831619D02*
X38796980Y-112831619D01*
X39511266Y-112498285D01*
X38796980Y-112164952D01*
X39796980Y-112164952D01*
X39796980Y-111688761D02*
X38796980Y-111688761D01*
X38796980Y-111307809D01*
X38844600Y-111212571D01*
X38892219Y-111164952D01*
X38987457Y-111117333D01*
X39130314Y-111117333D01*
X39225552Y-111164952D01*
X39273171Y-111212571D01*
X39320790Y-111307809D01*
X39320790Y-111688761D01*
X123707209Y-58259600D02*
X123802447Y-58307219D01*
X123945304Y-58307219D01*
X124088161Y-58259600D01*
X124183400Y-58164361D01*
X124231019Y-58069123D01*
X124278638Y-57878647D01*
X124278638Y-57735790D01*
X124231019Y-57545314D01*
X124183400Y-57450076D01*
X124088161Y-57354838D01*
X123945304Y-57307219D01*
X123850066Y-57307219D01*
X123707209Y-57354838D01*
X123659590Y-57402457D01*
X123659590Y-57735790D01*
X123850066Y-57735790D01*
X123231019Y-57973885D02*
X123231019Y-57307219D01*
X123231019Y-57878647D02*
X123183400Y-57926266D01*
X123088161Y-57973885D01*
X122945304Y-57973885D01*
X122850066Y-57926266D01*
X122802447Y-57831028D01*
X122802447Y-57307219D01*
X121897685Y-57307219D02*
X121897685Y-58307219D01*
X121897685Y-57354838D02*
X121992923Y-57307219D01*
X122183400Y-57307219D01*
X122278638Y-57354838D01*
X122326257Y-57402457D01*
X122373876Y-57497695D01*
X122373876Y-57783409D01*
X122326257Y-57878647D01*
X122278638Y-57926266D01*
X122183400Y-57973885D01*
X121992923Y-57973885D01*
X121897685Y-57926266D01*
X120802447Y-58307219D02*
X120231019Y-58307219D01*
X120516733Y-57307219D02*
X120516733Y-58307219D01*
X119516733Y-57354838D02*
X119611971Y-57307219D01*
X119802447Y-57307219D01*
X119897685Y-57354838D01*
X119945304Y-57450076D01*
X119945304Y-57831028D01*
X119897685Y-57926266D01*
X119802447Y-57973885D01*
X119611971Y-57973885D01*
X119516733Y-57926266D01*
X119469114Y-57831028D01*
X119469114Y-57735790D01*
X119945304Y-57640552D01*
X119088161Y-57354838D02*
X118992923Y-57307219D01*
X118802447Y-57307219D01*
X118707209Y-57354838D01*
X118659590Y-57450076D01*
X118659590Y-57497695D01*
X118707209Y-57592933D01*
X118802447Y-57640552D01*
X118945304Y-57640552D01*
X119040542Y-57688171D01*
X119088161Y-57783409D01*
X119088161Y-57831028D01*
X119040542Y-57926266D01*
X118945304Y-57973885D01*
X118802447Y-57973885D01*
X118707209Y-57926266D01*
X118373876Y-57973885D02*
X117992923Y-57973885D01*
X118231019Y-58307219D02*
X118231019Y-57450076D01*
X118183400Y-57354838D01*
X118088161Y-57307219D01*
X117992923Y-57307219D01*
X118354790Y-125966600D02*
X118259552Y-125918980D01*
X118116695Y-125918980D01*
X117973838Y-125966600D01*
X117878600Y-126061838D01*
X117830980Y-126157076D01*
X117783361Y-126347552D01*
X117783361Y-126490409D01*
X117830980Y-126680885D01*
X117878600Y-126776123D01*
X117973838Y-126871361D01*
X118116695Y-126918980D01*
X118211933Y-126918980D01*
X118354790Y-126871361D01*
X118402409Y-126823742D01*
X118402409Y-126490409D01*
X118211933Y-126490409D01*
X118830980Y-126252314D02*
X118830980Y-126918980D01*
X118830980Y-126347552D02*
X118878600Y-126299933D01*
X118973838Y-126252314D01*
X119116695Y-126252314D01*
X119211933Y-126299933D01*
X119259552Y-126395171D01*
X119259552Y-126918980D01*
X120164314Y-126918980D02*
X120164314Y-125918980D01*
X120164314Y-126871361D02*
X120069076Y-126918980D01*
X119878600Y-126918980D01*
X119783361Y-126871361D01*
X119735742Y-126823742D01*
X119688123Y-126728504D01*
X119688123Y-126442790D01*
X119735742Y-126347552D01*
X119783361Y-126299933D01*
X119878600Y-126252314D01*
X120069076Y-126252314D01*
X120164314Y-126299933D01*
X121259552Y-125918980D02*
X121830980Y-125918980D01*
X121545266Y-126918980D02*
X121545266Y-125918980D01*
X122545266Y-126871361D02*
X122450028Y-126918980D01*
X122259552Y-126918980D01*
X122164314Y-126871361D01*
X122116695Y-126776123D01*
X122116695Y-126395171D01*
X122164314Y-126299933D01*
X122259552Y-126252314D01*
X122450028Y-126252314D01*
X122545266Y-126299933D01*
X122592885Y-126395171D01*
X122592885Y-126490409D01*
X122116695Y-126585647D01*
X122973838Y-126871361D02*
X123069076Y-126918980D01*
X123259552Y-126918980D01*
X123354790Y-126871361D01*
X123402409Y-126776123D01*
X123402409Y-126728504D01*
X123354790Y-126633266D01*
X123259552Y-126585647D01*
X123116695Y-126585647D01*
X123021457Y-126538028D01*
X122973838Y-126442790D01*
X122973838Y-126395171D01*
X123021457Y-126299933D01*
X123116695Y-126252314D01*
X123259552Y-126252314D01*
X123354790Y-126299933D01*
X123688123Y-126252314D02*
X124069076Y-126252314D01*
X123830980Y-125918980D02*
X123830980Y-126776123D01*
X123878600Y-126871361D01*
X123973838Y-126918980D01*
X124069076Y-126918980D01*
X65610123Y-123921780D02*
X65610123Y-122921780D01*
X65610123Y-123397971D02*
X66181552Y-123397971D01*
X66181552Y-123921780D02*
X66181552Y-122921780D01*
X66514885Y-122921780D02*
X66848219Y-123921780D01*
X67181552Y-122921780D01*
X67514885Y-123921780D02*
X67514885Y-123255114D01*
X67514885Y-122921780D02*
X67467266Y-122969400D01*
X67514885Y-123017019D01*
X67562504Y-122969400D01*
X67514885Y-122921780D01*
X67514885Y-123017019D01*
X67991076Y-123255114D02*
X67991076Y-123921780D01*
X67991076Y-123350352D02*
X68038695Y-123302733D01*
X68133933Y-123255114D01*
X68276790Y-123255114D01*
X68372028Y-123302733D01*
X68419647Y-123397971D01*
X68419647Y-123921780D01*
X69181552Y-124302733D02*
X69133933Y-124255114D01*
X69038695Y-124112257D01*
X68991076Y-124017019D01*
X68943457Y-123874161D01*
X68895838Y-123636066D01*
X68895838Y-123445590D01*
X68943457Y-123207495D01*
X68991076Y-123064638D01*
X69038695Y-122969400D01*
X69133933Y-122826542D01*
X69181552Y-122778923D01*
X69562504Y-123540828D02*
X70324409Y-123540828D01*
X69943457Y-123921780D02*
X69943457Y-123159876D01*
X70705361Y-124302733D02*
X70752980Y-124255114D01*
X70848219Y-124112257D01*
X70895838Y-124017019D01*
X70943457Y-123874161D01*
X70991076Y-123636066D01*
X70991076Y-123445590D01*
X70943457Y-123207495D01*
X70895838Y-123064638D01*
X70848219Y-122969400D01*
X70752980Y-122826542D01*
X70705361Y-122778923D01*
X55145323Y-123921780D02*
X55145323Y-122921780D01*
X55145323Y-123397971D02*
X55716752Y-123397971D01*
X55716752Y-123921780D02*
X55716752Y-122921780D01*
X56050085Y-122921780D02*
X56383419Y-123921780D01*
X56716752Y-122921780D01*
X57050085Y-123921780D02*
X57050085Y-123255114D01*
X57050085Y-122921780D02*
X57002466Y-122969400D01*
X57050085Y-123017019D01*
X57097704Y-122969400D01*
X57050085Y-122921780D01*
X57050085Y-123017019D01*
X57526276Y-123255114D02*
X57526276Y-123921780D01*
X57526276Y-123350352D02*
X57573895Y-123302733D01*
X57669133Y-123255114D01*
X57811990Y-123255114D01*
X57907228Y-123302733D01*
X57954847Y-123397971D01*
X57954847Y-123921780D01*
X58716752Y-124302733D02*
X58669133Y-124255114D01*
X58573895Y-124112257D01*
X58526276Y-124017019D01*
X58478657Y-123874161D01*
X58431038Y-123636066D01*
X58431038Y-123445590D01*
X58478657Y-123207495D01*
X58526276Y-123064638D01*
X58573895Y-122969400D01*
X58669133Y-122826542D01*
X58716752Y-122778923D01*
X59097704Y-123540828D02*
X59859609Y-123540828D01*
X60240561Y-124302733D02*
X60288180Y-124255114D01*
X60383419Y-124112257D01*
X60431038Y-124017019D01*
X60478657Y-123874161D01*
X60526276Y-123636066D01*
X60526276Y-123445590D01*
X60478657Y-123207495D01*
X60431038Y-123064638D01*
X60383419Y-122969400D01*
X60288180Y-122826542D01*
X60240561Y-122778923D01*
X178064800Y-69219819D02*
X178636228Y-69219819D01*
X178350514Y-69219819D02*
X178350514Y-70219819D01*
X178445752Y-70076961D01*
X178540990Y-69981723D01*
X178636228Y-69934104D01*
X177683847Y-70124580D02*
X177636228Y-70172200D01*
X177540990Y-70219819D01*
X177302895Y-70219819D01*
X177207657Y-70172200D01*
X177160038Y-70124580D01*
X177112419Y-70029342D01*
X177112419Y-69934104D01*
X177160038Y-69791247D01*
X177731466Y-69219819D01*
X177112419Y-69219819D01*
X176826704Y-70219819D02*
X176493371Y-69219819D01*
X176160038Y-70219819D01*
X174731466Y-69743628D02*
X174588609Y-69696009D01*
X174540990Y-69648390D01*
X174493371Y-69553152D01*
X174493371Y-69410295D01*
X174540990Y-69315057D01*
X174588609Y-69267438D01*
X174683847Y-69219819D01*
X175064800Y-69219819D01*
X175064800Y-70219819D01*
X174731466Y-70219819D01*
X174636228Y-70172200D01*
X174588609Y-70124580D01*
X174540990Y-70029342D01*
X174540990Y-69934104D01*
X174588609Y-69838866D01*
X174636228Y-69791247D01*
X174731466Y-69743628D01*
X175064800Y-69743628D01*
X174064800Y-70219819D02*
X174064800Y-69410295D01*
X174017180Y-69315057D01*
X173969561Y-69267438D01*
X173874323Y-69219819D01*
X173683847Y-69219819D01*
X173588609Y-69267438D01*
X173540990Y-69315057D01*
X173493371Y-69410295D01*
X173493371Y-70219819D01*
X173064800Y-69267438D02*
X172921942Y-69219819D01*
X172683847Y-69219819D01*
X172588609Y-69267438D01*
X172540990Y-69315057D01*
X172493371Y-69410295D01*
X172493371Y-69505533D01*
X172540990Y-69600771D01*
X172588609Y-69648390D01*
X172683847Y-69696009D01*
X172874323Y-69743628D01*
X172969561Y-69791247D01*
X173017180Y-69838866D01*
X173064800Y-69934104D01*
X173064800Y-70029342D01*
X173017180Y-70124580D01*
X172969561Y-70172200D01*
X172874323Y-70219819D01*
X172636228Y-70219819D01*
X172493371Y-70172200D01*
D11*
X55178571Y-79408371D02*
X55178571Y-80622657D01*
X55249999Y-80765514D01*
X55321428Y-80836942D01*
X55464285Y-80908371D01*
X55749999Y-80908371D01*
X55892857Y-80836942D01*
X55964285Y-80765514D01*
X56035714Y-80622657D01*
X56035714Y-79408371D01*
X56535714Y-79408371D02*
X57392857Y-79408371D01*
X56964285Y-80908371D02*
X56964285Y-79408371D01*
X57821428Y-80836942D02*
X58035714Y-80908371D01*
X58392857Y-80908371D01*
X58535714Y-80836942D01*
X58607142Y-80765514D01*
X58678571Y-80622657D01*
X58678571Y-80479800D01*
X58607142Y-80336942D01*
X58535714Y-80265514D01*
X58392857Y-80194085D01*
X58107142Y-80122657D01*
X57964285Y-80051228D01*
X57892857Y-79979800D01*
X57821428Y-79836942D01*
X57821428Y-79694085D01*
X57892857Y-79551228D01*
X57964285Y-79479800D01*
X58107142Y-79408371D01*
X58464285Y-79408371D01*
X58678571Y-79479800D01*
X59107142Y-79408371D02*
X59607142Y-80908371D01*
X60107142Y-79408371D01*
X60392857Y-79408371D02*
X61249999Y-79408371D01*
X60821428Y-80908371D02*
X60821428Y-79408371D01*
X62892857Y-80336942D02*
X64035714Y-80336942D01*
X65892857Y-80908371D02*
X65892857Y-79408371D01*
X66464285Y-79408371D01*
X66607142Y-79479800D01*
X66678571Y-79551228D01*
X66749999Y-79694085D01*
X66749999Y-79908371D01*
X66678571Y-80051228D01*
X66607142Y-80122657D01*
X66464285Y-80194085D01*
X65892857Y-80194085D01*
X67607142Y-80908371D02*
X67464285Y-80836942D01*
X67392857Y-80765514D01*
X67321428Y-80622657D01*
X67321428Y-80194085D01*
X67392857Y-80051228D01*
X67464285Y-79979800D01*
X67607142Y-79908371D01*
X67821428Y-79908371D01*
X67964285Y-79979800D01*
X68035714Y-80051228D01*
X68107142Y-80194085D01*
X68107142Y-80622657D01*
X68035714Y-80765514D01*
X67964285Y-80836942D01*
X67821428Y-80908371D01*
X67607142Y-80908371D01*
X68607142Y-79908371D02*
X68892857Y-80908371D01*
X69178571Y-80194085D01*
X69464285Y-80908371D01*
X69750000Y-79908371D01*
X70892857Y-80836942D02*
X70750000Y-80908371D01*
X70464285Y-80908371D01*
X70321428Y-80836942D01*
X70250000Y-80694085D01*
X70250000Y-80122657D01*
X70321428Y-79979800D01*
X70464285Y-79908371D01*
X70750000Y-79908371D01*
X70892857Y-79979800D01*
X70964285Y-80122657D01*
X70964285Y-80265514D01*
X70250000Y-80408371D01*
X71607142Y-80908371D02*
X71607142Y-79908371D01*
X71607142Y-80194085D02*
X71678571Y-80051228D01*
X71750000Y-79979800D01*
X71892857Y-79908371D01*
X72035714Y-79908371D01*
X48928571Y-83533371D02*
X48928571Y-82033371D01*
X49499999Y-82033371D01*
X49642857Y-82104800D01*
X49714285Y-82176228D01*
X49785714Y-82319085D01*
X49785714Y-82533371D01*
X49714285Y-82676228D01*
X49642857Y-82747657D01*
X49499999Y-82819085D01*
X48928571Y-82819085D01*
X50428571Y-83533371D02*
X50428571Y-82533371D01*
X50428571Y-82819085D02*
X50499999Y-82676228D01*
X50571428Y-82604800D01*
X50714285Y-82533371D01*
X50857142Y-82533371D01*
X51357142Y-83533371D02*
X51357142Y-82533371D01*
X51357142Y-82033371D02*
X51285714Y-82104800D01*
X51357142Y-82176228D01*
X51428571Y-82104800D01*
X51357142Y-82033371D01*
X51357142Y-82176228D01*
X52071428Y-83533371D02*
X52071428Y-82533371D01*
X52071428Y-82676228D02*
X52142857Y-82604800D01*
X52285714Y-82533371D01*
X52499999Y-82533371D01*
X52642857Y-82604800D01*
X52714285Y-82747657D01*
X52714285Y-83533371D01*
X52714285Y-82747657D02*
X52785714Y-82604800D01*
X52928571Y-82533371D01*
X53142857Y-82533371D01*
X53285714Y-82604800D01*
X53357142Y-82747657D01*
X53357142Y-83533371D01*
X54714285Y-83533371D02*
X54714285Y-82747657D01*
X54642857Y-82604800D01*
X54499999Y-82533371D01*
X54214285Y-82533371D01*
X54071428Y-82604800D01*
X54714285Y-83461942D02*
X54571428Y-83533371D01*
X54214285Y-83533371D01*
X54071428Y-83461942D01*
X53999999Y-83319085D01*
X53999999Y-83176228D01*
X54071428Y-83033371D01*
X54214285Y-82961942D01*
X54571428Y-82961942D01*
X54714285Y-82890514D01*
X55428571Y-83533371D02*
X55428571Y-82533371D01*
X55428571Y-82819085D02*
X55499999Y-82676228D01*
X55571428Y-82604800D01*
X55714285Y-82533371D01*
X55857142Y-82533371D01*
X56214285Y-82533371D02*
X56571428Y-83533371D01*
X56928571Y-82533371D02*
X56571428Y-83533371D01*
X56428571Y-83890514D01*
X56357142Y-83961942D01*
X56214285Y-84033371D01*
X58642857Y-83533371D02*
X58642857Y-82033371D01*
X59214285Y-82033371D01*
X59357142Y-82104800D01*
X59428571Y-82176228D01*
X59499999Y-82319085D01*
X59499999Y-82533371D01*
X59428571Y-82676228D01*
X59357142Y-82747657D01*
X59214285Y-82819085D01*
X58642857Y-82819085D01*
X60357142Y-83533371D02*
X60214285Y-83461942D01*
X60142857Y-83390514D01*
X60071428Y-83247657D01*
X60071428Y-82819085D01*
X60142857Y-82676228D01*
X60214285Y-82604800D01*
X60357142Y-82533371D01*
X60571428Y-82533371D01*
X60714285Y-82604800D01*
X60785714Y-82676228D01*
X60857142Y-82819085D01*
X60857142Y-83247657D01*
X60785714Y-83390514D01*
X60714285Y-83461942D01*
X60571428Y-83533371D01*
X60357142Y-83533371D01*
X61357142Y-82533371D02*
X61642857Y-83533371D01*
X61928571Y-82819085D01*
X62214285Y-83533371D01*
X62499999Y-82533371D01*
X63642857Y-83461942D02*
X63499999Y-83533371D01*
X63214285Y-83533371D01*
X63071428Y-83461942D01*
X62999999Y-83319085D01*
X62999999Y-82747657D01*
X63071428Y-82604800D01*
X63214285Y-82533371D01*
X63499999Y-82533371D01*
X63642857Y-82604800D01*
X63714285Y-82747657D01*
X63714285Y-82890514D01*
X62999999Y-83033371D01*
X64357142Y-83533371D02*
X64357142Y-82533371D01*
X64357142Y-82819085D02*
X64428571Y-82676228D01*
X64499999Y-82604800D01*
X64642857Y-82533371D01*
X64785714Y-82533371D01*
X66928571Y-82747657D02*
X67142857Y-82819085D01*
X67214285Y-82890514D01*
X67285714Y-83033371D01*
X67285714Y-83247657D01*
X67214285Y-83390514D01*
X67142857Y-83461942D01*
X66999999Y-83533371D01*
X66428571Y-83533371D01*
X66428571Y-82033371D01*
X66928571Y-82033371D01*
X67071428Y-82104800D01*
X67142857Y-82176228D01*
X67214285Y-82319085D01*
X67214285Y-82461942D01*
X67142857Y-82604800D01*
X67071428Y-82676228D01*
X66928571Y-82747657D01*
X66428571Y-82747657D01*
X68142857Y-83533371D02*
X68000000Y-83461942D01*
X67928571Y-83390514D01*
X67857142Y-83247657D01*
X67857142Y-82819085D01*
X67928571Y-82676228D01*
X68000000Y-82604800D01*
X68142857Y-82533371D01*
X68357142Y-82533371D01*
X68500000Y-82604800D01*
X68571428Y-82676228D01*
X68642857Y-82819085D01*
X68642857Y-83247657D01*
X68571428Y-83390514D01*
X68500000Y-83461942D01*
X68357142Y-83533371D01*
X68142857Y-83533371D01*
X69928571Y-83533371D02*
X69928571Y-82747657D01*
X69857142Y-82604800D01*
X69714285Y-82533371D01*
X69428571Y-82533371D01*
X69285714Y-82604800D01*
X69928571Y-83461942D02*
X69785714Y-83533371D01*
X69428571Y-83533371D01*
X69285714Y-83461942D01*
X69214285Y-83319085D01*
X69214285Y-83176228D01*
X69285714Y-83033371D01*
X69428571Y-82961942D01*
X69785714Y-82961942D01*
X69928571Y-82890514D01*
X70642857Y-83533371D02*
X70642857Y-82533371D01*
X70642857Y-82819085D02*
X70714285Y-82676228D01*
X70785714Y-82604800D01*
X70928571Y-82533371D01*
X71071428Y-82533371D01*
X72214285Y-83533371D02*
X72214285Y-82033371D01*
X72214285Y-83461942D02*
X72071428Y-83533371D01*
X71785714Y-83533371D01*
X71642857Y-83461942D01*
X71571428Y-83390514D01*
X71500000Y-83247657D01*
X71500000Y-82819085D01*
X71571428Y-82676228D01*
X71642857Y-82604800D01*
X71785714Y-82533371D01*
X72071428Y-82533371D01*
X72214285Y-82604800D01*
X73928571Y-82533371D02*
X74285714Y-83533371D01*
X74642857Y-82533371D01*
X76000000Y-83533371D02*
X75142857Y-83533371D01*
X75571428Y-83533371D02*
X75571428Y-82033371D01*
X75428571Y-82247657D01*
X75285714Y-82390514D01*
X75142857Y-82461942D01*
X76642857Y-83390514D02*
X76714285Y-83461942D01*
X76642857Y-83533371D01*
X76571428Y-83461942D01*
X76642857Y-83390514D01*
X76642857Y-83533371D01*
X78142857Y-83533371D02*
X77285714Y-83533371D01*
X77714285Y-83533371D02*
X77714285Y-82033371D01*
X77571428Y-82247657D01*
X77428571Y-82390514D01*
X77285714Y-82461942D01*
X58821428Y-85372657D02*
X58321428Y-85372657D01*
X58321428Y-86158371D02*
X58321428Y-84658371D01*
X59035714Y-84658371D01*
X60250000Y-86158371D02*
X60250000Y-85372657D01*
X60178571Y-85229800D01*
X60035714Y-85158371D01*
X59750000Y-85158371D01*
X59607142Y-85229800D01*
X60250000Y-86086942D02*
X60107142Y-86158371D01*
X59750000Y-86158371D01*
X59607142Y-86086942D01*
X59535714Y-85944085D01*
X59535714Y-85801228D01*
X59607142Y-85658371D01*
X59750000Y-85586942D01*
X60107142Y-85586942D01*
X60250000Y-85515514D01*
X61178571Y-86158371D02*
X61035714Y-86086942D01*
X60964285Y-85944085D01*
X60964285Y-84658371D01*
X61964285Y-86158371D02*
X61821428Y-86086942D01*
X61750000Y-85944085D01*
X61750000Y-84658371D01*
X63607142Y-84801228D02*
X63678571Y-84729800D01*
X63821428Y-84658371D01*
X64178571Y-84658371D01*
X64321428Y-84729800D01*
X64392857Y-84801228D01*
X64464285Y-84944085D01*
X64464285Y-85086942D01*
X64392857Y-85301228D01*
X63535714Y-86158371D01*
X64464285Y-86158371D01*
X65392857Y-84658371D02*
X65535714Y-84658371D01*
X65678571Y-84729800D01*
X65750000Y-84801228D01*
X65821428Y-84944085D01*
X65892857Y-85229800D01*
X65892857Y-85586942D01*
X65821428Y-85872657D01*
X65750000Y-86015514D01*
X65678571Y-86086942D01*
X65535714Y-86158371D01*
X65392857Y-86158371D01*
X65250000Y-86086942D01*
X65178571Y-86015514D01*
X65107142Y-85872657D01*
X65035714Y-85586942D01*
X65035714Y-85229800D01*
X65107142Y-84944085D01*
X65178571Y-84801228D01*
X65250000Y-84729800D01*
X65392857Y-84658371D01*
X66464285Y-84801228D02*
X66535714Y-84729800D01*
X66678571Y-84658371D01*
X67035714Y-84658371D01*
X67178571Y-84729800D01*
X67250000Y-84801228D01*
X67321428Y-84944085D01*
X67321428Y-85086942D01*
X67250000Y-85301228D01*
X66392857Y-86158371D01*
X67321428Y-86158371D01*
X68250000Y-84658371D02*
X68392857Y-84658371D01*
X68535714Y-84729800D01*
X68607142Y-84801228D01*
X68678571Y-84944085D01*
X68750000Y-85229800D01*
X68750000Y-85586942D01*
X68678571Y-85872657D01*
X68607142Y-86015514D01*
X68535714Y-86086942D01*
X68392857Y-86158371D01*
X68250000Y-86158371D01*
X68107142Y-86086942D01*
X68035714Y-86015514D01*
X67964285Y-85872657D01*
X67892857Y-85586942D01*
X67892857Y-85229800D01*
X67964285Y-84944085D01*
X68035714Y-84801228D01*
X68107142Y-84729800D01*
X68250000Y-84658371D01*
D12*
X200660000Y-83640400D02*
X200660000Y-82690400D01*
X200660000Y-77900400D02*
X200660000Y-78850400D01*
X201580000Y-82690400D02*
X201580000Y-78850400D01*
X199740000Y-82690400D02*
X201580000Y-82690400D01*
X199740000Y-78850400D02*
X199740000Y-82690400D01*
X201580000Y-78850400D02*
X199740000Y-78850400D01*
X215900000Y-83640400D02*
X215900000Y-82690400D01*
X215900000Y-77900400D02*
X215900000Y-78850400D01*
X216820000Y-82690400D02*
X216820000Y-78850400D01*
X214980000Y-82690400D02*
X216820000Y-82690400D01*
X214980000Y-78850400D02*
X214980000Y-82690400D01*
X216820000Y-78850400D02*
X214980000Y-78850400D01*
X231140000Y-83640400D02*
X231140000Y-82690400D01*
X231140000Y-77900400D02*
X231140000Y-78850400D01*
X232060000Y-82690400D02*
X232060000Y-78850400D01*
X230220000Y-82690400D02*
X232060000Y-82690400D01*
X230220000Y-78850400D02*
X230220000Y-82690400D01*
X232060000Y-78850400D02*
X230220000Y-78850400D01*
X231140000Y-103810000D02*
X231140000Y-104760000D01*
X231140000Y-109550000D02*
X231140000Y-108600000D01*
X230220000Y-104760000D02*
X230220000Y-108600000D01*
X232060000Y-104760000D02*
X230220000Y-104760000D01*
X232060000Y-108600000D02*
X232060000Y-104760000D01*
X230220000Y-108600000D02*
X232060000Y-108600000D01*
X215900000Y-103810000D02*
X215900000Y-104760000D01*
X215900000Y-109550000D02*
X215900000Y-108600000D01*
X214980000Y-104760000D02*
X214980000Y-108600000D01*
X216820000Y-104760000D02*
X214980000Y-104760000D01*
X216820000Y-108600000D02*
X216820000Y-104760000D01*
X214980000Y-108600000D02*
X216820000Y-108600000D01*
X200660000Y-103810000D02*
X200660000Y-104760000D01*
X200660000Y-109550000D02*
X200660000Y-108600000D01*
X199740000Y-104760000D02*
X199740000Y-108600000D01*
X201580000Y-104760000D02*
X199740000Y-104760000D01*
X201580000Y-108600000D02*
X201580000Y-104760000D01*
X199740000Y-108600000D02*
X201580000Y-108600000D01*
X190255000Y-68620000D02*
X190275000Y-68620000D01*
X190255000Y-68120000D02*
X190255000Y-68620000D01*
X197285000Y-68120000D02*
X190255000Y-68120000D01*
X197285000Y-68620000D02*
X197285000Y-68120000D01*
X197265000Y-68620000D02*
X197285000Y-68620000D01*
X188835000Y-64030000D02*
X188835000Y-67105000D01*
X198705000Y-64030000D02*
X188835000Y-64030000D01*
X198705000Y-67105000D02*
X198705000Y-64030000D01*
X204987000Y-68620000D02*
X205007000Y-68620000D01*
X204987000Y-68120000D02*
X204987000Y-68620000D01*
X212017000Y-68120000D02*
X204987000Y-68120000D01*
X212017000Y-68620000D02*
X212017000Y-68120000D01*
X211997000Y-68620000D02*
X212017000Y-68620000D01*
X203567000Y-64030000D02*
X203567000Y-67105000D01*
X213437000Y-64030000D02*
X203567000Y-64030000D01*
X213437000Y-67105000D02*
X213437000Y-64030000D01*
X220219000Y-68620000D02*
X220239000Y-68620000D01*
X220219000Y-68120000D02*
X220219000Y-68620000D01*
X227249000Y-68120000D02*
X220219000Y-68120000D01*
X227249000Y-68620000D02*
X227249000Y-68120000D01*
X227229000Y-68620000D02*
X227249000Y-68620000D01*
X218799000Y-64030000D02*
X218799000Y-67105000D01*
X228669000Y-64030000D02*
X218799000Y-64030000D01*
X228669000Y-67105000D02*
X228669000Y-64030000D01*
X227265000Y-115911000D02*
X227245000Y-115911000D01*
X227265000Y-116411000D02*
X227265000Y-115911000D01*
X220235000Y-116411000D02*
X227265000Y-116411000D01*
X220235000Y-115911000D02*
X220235000Y-116411000D01*
X220255000Y-115911000D02*
X220235000Y-115911000D01*
X228685000Y-120501000D02*
X228685000Y-117426000D01*
X218815000Y-120501000D02*
X228685000Y-120501000D01*
X218815000Y-117426000D02*
X218815000Y-120501000D01*
X212025000Y-115911000D02*
X212005000Y-115911000D01*
X212025000Y-116411000D02*
X212025000Y-115911000D01*
X204995000Y-116411000D02*
X212025000Y-116411000D01*
X204995000Y-115911000D02*
X204995000Y-116411000D01*
X205015000Y-115911000D02*
X204995000Y-115911000D01*
X213445000Y-120501000D02*
X213445000Y-117426000D01*
X203575000Y-120501000D02*
X213445000Y-120501000D01*
X203575000Y-117426000D02*
X203575000Y-120501000D01*
X196785000Y-115911000D02*
X196765000Y-115911000D01*
X196785000Y-116411000D02*
X196785000Y-115911000D01*
X189755000Y-116411000D02*
X196785000Y-116411000D01*
X189755000Y-115911000D02*
X189755000Y-116411000D01*
X189775000Y-115911000D02*
X189755000Y-115911000D01*
X198205000Y-120501000D02*
X198205000Y-117426000D01*
X188335000Y-120501000D02*
X198205000Y-120501000D01*
X188335000Y-117426000D02*
X188335000Y-120501000D01*
X191470000Y-83406400D02*
X191470000Y-80206400D01*
X195470000Y-80206400D02*
X195470000Y-83406400D01*
X193470000Y-82556400D02*
X193470000Y-81056400D01*
X190000000Y-73706400D02*
X190000000Y-89906400D01*
X196940000Y-73706400D02*
X190000000Y-73706400D01*
X196940000Y-89906400D02*
X196940000Y-73706400D01*
X190000000Y-89906400D02*
X196940000Y-89906400D01*
X206252600Y-83406400D02*
X206252600Y-80206400D01*
X210252600Y-80206400D02*
X210252600Y-83406400D01*
X208252600Y-82556400D02*
X208252600Y-81056400D01*
X204782600Y-73706400D02*
X204782600Y-89906400D01*
X211722600Y-73706400D02*
X204782600Y-73706400D01*
X211722600Y-89906400D02*
X211722600Y-73706400D01*
X204782600Y-89906400D02*
X211722600Y-89906400D01*
X221450000Y-83406400D02*
X221450000Y-80206400D01*
X225450000Y-80206400D02*
X225450000Y-83406400D01*
X223450000Y-82556400D02*
X223450000Y-81056400D01*
X219980000Y-73706400D02*
X219980000Y-89906400D01*
X226920000Y-73706400D02*
X219980000Y-73706400D01*
X226920000Y-89906400D02*
X226920000Y-73706400D01*
X219980000Y-89906400D02*
X226920000Y-89906400D01*
X225450000Y-104126400D02*
X225450000Y-107326400D01*
X221450000Y-107326400D02*
X221450000Y-104126400D01*
X223450000Y-104976400D02*
X223450000Y-106476400D01*
X226920000Y-113826400D02*
X226920000Y-97626400D01*
X219980000Y-113826400D02*
X226920000Y-113826400D01*
X219980000Y-97626400D02*
X219980000Y-113826400D01*
X226920000Y-97626400D02*
X219980000Y-97626400D01*
X210252600Y-104126400D02*
X210252600Y-107326400D01*
X206252600Y-107326400D02*
X206252600Y-104126400D01*
X208252600Y-104976400D02*
X208252600Y-106476400D01*
X211722600Y-113826400D02*
X211722600Y-97626400D01*
X204782600Y-113826400D02*
X211722600Y-113826400D01*
X204782600Y-97626400D02*
X204782600Y-113826400D01*
X211722600Y-97626400D02*
X204782600Y-97626400D01*
X196940000Y-97626400D02*
X190000000Y-97626400D01*
X190000000Y-97626400D02*
X190000000Y-113826400D01*
X190000000Y-113826400D02*
X196940000Y-113826400D01*
X196940000Y-113826400D02*
X196940000Y-97626400D01*
X193470000Y-104976400D02*
X193470000Y-106476400D01*
X191470000Y-107326400D02*
X191470000Y-104126400D01*
X195470000Y-104126400D02*
X195470000Y-107326400D01*
X199580000Y-86806600D02*
X199424000Y-86806600D01*
X201896000Y-86806600D02*
X201740000Y-86806600D01*
X199580163Y-89407730D02*
G75*
G02*
X199580000Y-87325639I1079837J1041130D01*
G01*
X201739837Y-89407730D02*
G75*
G03*
X201740000Y-87325639I-1079837J1041130D01*
G01*
X199581392Y-90038935D02*
G75*
G02*
X199424484Y-86806600I1078608J1672335D01*
G01*
X201738608Y-90038935D02*
G75*
G03*
X201895516Y-86806600I-1078608J1672335D01*
G01*
X214820000Y-86806600D02*
X214664000Y-86806600D01*
X217136000Y-86806600D02*
X216980000Y-86806600D01*
X214820163Y-89407730D02*
G75*
G02*
X214820000Y-87325639I1079837J1041130D01*
G01*
X216979837Y-89407730D02*
G75*
G03*
X216980000Y-87325639I-1079837J1041130D01*
G01*
X214821392Y-90038935D02*
G75*
G02*
X214664484Y-86806600I1078608J1672335D01*
G01*
X216978608Y-90038935D02*
G75*
G03*
X217135516Y-86806600I-1078608J1672335D01*
G01*
X230060000Y-86806600D02*
X229904000Y-86806600D01*
X232376000Y-86806600D02*
X232220000Y-86806600D01*
X230060163Y-89407730D02*
G75*
G02*
X230060000Y-87325639I1079837J1041130D01*
G01*
X232219837Y-89407730D02*
G75*
G03*
X232220000Y-87325639I-1079837J1041130D01*
G01*
X230061392Y-90038935D02*
G75*
G02*
X229904484Y-86806600I1078608J1672335D01*
G01*
X232218608Y-90038935D02*
G75*
G03*
X232375516Y-86806600I-1078608J1672335D01*
G01*
X232220000Y-100620000D02*
X232376000Y-100620000D01*
X229904000Y-100620000D02*
X230060000Y-100620000D01*
X232219837Y-98018870D02*
G75*
G02*
X232220000Y-100100961I-1079837J-1041130D01*
G01*
X230060163Y-98018870D02*
G75*
G03*
X230060000Y-100100961I1079837J-1041130D01*
G01*
X232218608Y-97387665D02*
G75*
G02*
X232375516Y-100620000I-1078608J-1672335D01*
G01*
X230061392Y-97387665D02*
G75*
G03*
X229904484Y-100620000I1078608J-1672335D01*
G01*
X216980000Y-100620000D02*
X217136000Y-100620000D01*
X214664000Y-100620000D02*
X214820000Y-100620000D01*
X216979837Y-98018870D02*
G75*
G02*
X216980000Y-100100961I-1079837J-1041130D01*
G01*
X214820163Y-98018870D02*
G75*
G03*
X214820000Y-100100961I1079837J-1041130D01*
G01*
X216978608Y-97387665D02*
G75*
G02*
X217135516Y-100620000I-1078608J-1672335D01*
G01*
X214821392Y-97387665D02*
G75*
G03*
X214664484Y-100620000I1078608J-1672335D01*
G01*
X201740000Y-100620000D02*
X201896000Y-100620000D01*
X199424000Y-100620000D02*
X199580000Y-100620000D01*
X201739837Y-98018870D02*
G75*
G02*
X201740000Y-100100961I-1079837J-1041130D01*
G01*
X199580163Y-98018870D02*
G75*
G03*
X199580000Y-100100961I1079837J-1041130D01*
G01*
X201738608Y-97387665D02*
G75*
G02*
X201895516Y-100620000I-1078608J-1672335D01*
G01*
X199581392Y-97387665D02*
G75*
G03*
X199424484Y-100620000I1078608J-1672335D01*
G01*
D13*
G36*
X20416990Y-70835669D02*
G01*
X21535428Y-71186641D01*
X22880176Y-71795251D01*
X24227204Y-72523558D01*
X25332299Y-73125093D01*
X26189092Y-73504797D01*
X26893938Y-73686652D01*
X27543190Y-73694642D01*
X28233201Y-73552749D01*
X28293212Y-73535594D01*
X28759219Y-73479081D01*
X29513773Y-73470609D01*
X30424856Y-73509874D01*
X30833212Y-73541476D01*
X32104725Y-73649058D01*
X33051262Y-73702005D01*
X33769380Y-73684672D01*
X34355638Y-73581413D01*
X34906592Y-73376582D01*
X35518801Y-73054535D01*
X36156002Y-72679016D01*
X37447590Y-71940943D01*
X38491732Y-71432417D01*
X39374869Y-71122729D01*
X40183439Y-70981173D01*
X40955240Y-70974115D01*
X41627897Y-71033659D01*
X41976480Y-71141827D01*
X42100196Y-71340611D01*
X42108967Y-71462457D01*
X42043684Y-71725903D01*
X41778073Y-71863405D01*
X41207490Y-71923716D01*
X41109133Y-71928271D01*
X40616015Y-71960673D01*
X40190550Y-72034544D01*
X39757269Y-72185990D01*
X39240708Y-72451115D01*
X38565399Y-72866025D01*
X37655876Y-73466825D01*
X37074159Y-73858713D01*
X36199812Y-74458266D01*
X35639668Y-74871813D01*
X35350812Y-75140674D01*
X35290332Y-75306172D01*
X35415311Y-75409628D01*
X35449457Y-75423113D01*
X35786052Y-75701209D01*
X35771596Y-76085466D01*
X35424923Y-76476143D01*
X35227925Y-76596284D01*
X34424355Y-76789713D01*
X33496498Y-76636582D01*
X33271883Y-76550190D01*
X32965656Y-76518834D01*
X32901467Y-76708156D01*
X32815799Y-77046272D01*
X32590131Y-77641316D01*
X32271465Y-78370424D01*
X32238253Y-78441793D01*
X31897885Y-79202169D01*
X31726648Y-79721578D01*
X31699465Y-80135211D01*
X31791260Y-80578258D01*
X31822293Y-80684309D01*
X31913755Y-81588278D01*
X31662907Y-82345145D01*
X31142056Y-82893289D01*
X30423504Y-83171090D01*
X29579557Y-83116923D01*
X29155551Y-82957045D01*
X28648650Y-82491816D01*
X28399784Y-81761274D01*
X28433729Y-80853377D01*
X28491673Y-80600111D01*
X28607340Y-80048837D01*
X28582756Y-79595701D01*
X28389326Y-79064650D01*
X28168933Y-78612869D01*
X27864228Y-77968591D01*
X27659797Y-77454164D01*
X27606559Y-77237853D01*
X27470458Y-76723003D01*
X27088019Y-76550999D01*
X26682530Y-76639140D01*
X26090364Y-76743474D01*
X25421612Y-76570613D01*
X25377175Y-76552311D01*
X24855273Y-76216223D01*
X24643255Y-75830179D01*
X24761446Y-75487586D01*
X25106396Y-75307833D01*
X25304510Y-75218669D01*
X25280101Y-75069419D01*
X24989736Y-74806093D01*
X24389981Y-74374702D01*
X24312646Y-74321159D01*
X23131821Y-73506269D01*
X22239375Y-72899249D01*
X21575049Y-72467836D01*
X21078586Y-72179767D01*
X20689728Y-72002779D01*
X20348217Y-71904608D01*
X19993795Y-71852992D01*
X19645525Y-71822300D01*
X18856201Y-71671820D01*
X18399904Y-71422450D01*
X18286620Y-71140326D01*
X18526329Y-70891582D01*
X19129019Y-70742353D01*
X19479909Y-70725308D01*
X20416990Y-70835669D01*
G37*
X20416990Y-70835669D02*
X21535428Y-71186641D01*
X22880176Y-71795251D01*
X24227204Y-72523558D01*
X25332299Y-73125093D01*
X26189092Y-73504797D01*
X26893938Y-73686652D01*
X27543190Y-73694642D01*
X28233201Y-73552749D01*
X28293212Y-73535594D01*
X28759219Y-73479081D01*
X29513773Y-73470609D01*
X30424856Y-73509874D01*
X30833212Y-73541476D01*
X32104725Y-73649058D01*
X33051262Y-73702005D01*
X33769380Y-73684672D01*
X34355638Y-73581413D01*
X34906592Y-73376582D01*
X35518801Y-73054535D01*
X36156002Y-72679016D01*
X37447590Y-71940943D01*
X38491732Y-71432417D01*
X39374869Y-71122729D01*
X40183439Y-70981173D01*
X40955240Y-70974115D01*
X41627897Y-71033659D01*
X41976480Y-71141827D01*
X42100196Y-71340611D01*
X42108967Y-71462457D01*
X42043684Y-71725903D01*
X41778073Y-71863405D01*
X41207490Y-71923716D01*
X41109133Y-71928271D01*
X40616015Y-71960673D01*
X40190550Y-72034544D01*
X39757269Y-72185990D01*
X39240708Y-72451115D01*
X38565399Y-72866025D01*
X37655876Y-73466825D01*
X37074159Y-73858713D01*
X36199812Y-74458266D01*
X35639668Y-74871813D01*
X35350812Y-75140674D01*
X35290332Y-75306172D01*
X35415311Y-75409628D01*
X35449457Y-75423113D01*
X35786052Y-75701209D01*
X35771596Y-76085466D01*
X35424923Y-76476143D01*
X35227925Y-76596284D01*
X34424355Y-76789713D01*
X33496498Y-76636582D01*
X33271883Y-76550190D01*
X32965656Y-76518834D01*
X32901467Y-76708156D01*
X32815799Y-77046272D01*
X32590131Y-77641316D01*
X32271465Y-78370424D01*
X32238253Y-78441793D01*
X31897885Y-79202169D01*
X31726648Y-79721578D01*
X31699465Y-80135211D01*
X31791260Y-80578258D01*
X31822293Y-80684309D01*
X31913755Y-81588278D01*
X31662907Y-82345145D01*
X31142056Y-82893289D01*
X30423504Y-83171090D01*
X29579557Y-83116923D01*
X29155551Y-82957045D01*
X28648650Y-82491816D01*
X28399784Y-81761274D01*
X28433729Y-80853377D01*
X28491673Y-80600111D01*
X28607340Y-80048837D01*
X28582756Y-79595701D01*
X28389326Y-79064650D01*
X28168933Y-78612869D01*
X27864228Y-77968591D01*
X27659797Y-77454164D01*
X27606559Y-77237853D01*
X27470458Y-76723003D01*
X27088019Y-76550999D01*
X26682530Y-76639140D01*
X26090364Y-76743474D01*
X25421612Y-76570613D01*
X25377175Y-76552311D01*
X24855273Y-76216223D01*
X24643255Y-75830179D01*
X24761446Y-75487586D01*
X25106396Y-75307833D01*
X25304510Y-75218669D01*
X25280101Y-75069419D01*
X24989736Y-74806093D01*
X24389981Y-74374702D01*
X24312646Y-74321159D01*
X23131821Y-73506269D01*
X22239375Y-72899249D01*
X21575049Y-72467836D01*
X21078586Y-72179767D01*
X20689728Y-72002779D01*
X20348217Y-71904608D01*
X19993795Y-71852992D01*
X19645525Y-71822300D01*
X18856201Y-71671820D01*
X18399904Y-71422450D01*
X18286620Y-71140326D01*
X18526329Y-70891582D01*
X19129019Y-70742353D01*
X19479909Y-70725308D01*
X20416990Y-70835669D01*
D10*
X46615880Y-122283920D02*
X46615880Y-93033920D01*
X77955880Y-122283920D02*
X46615880Y-122283920D01*
X77955880Y-93033920D02*
X77955880Y-122283920D01*
X46615880Y-93033920D02*
X77955880Y-93033920D01*
D13*
G36*
X65631029Y-71788935D02*
G01*
X65631132Y-71795861D01*
X65559086Y-71889263D01*
X65359568Y-72054808D01*
X65051821Y-72280083D01*
X64655087Y-72552678D01*
X64188607Y-72860184D01*
X63671622Y-73190188D01*
X63123375Y-73530280D01*
X62563107Y-73868050D01*
X62010061Y-74191087D01*
X61483476Y-74486979D01*
X61325706Y-74572824D01*
X60020478Y-75224146D01*
X58795022Y-75727211D01*
X57648079Y-76082448D01*
X56578387Y-76290286D01*
X56150933Y-76333793D01*
X55818265Y-76349903D01*
X55516559Y-76351014D01*
X55346600Y-76340437D01*
X54910769Y-76257176D01*
X54441502Y-76125755D01*
X54009292Y-75968364D01*
X53719227Y-75828138D01*
X53312868Y-75525646D01*
X52902494Y-75105566D01*
X52527619Y-74613955D01*
X52227755Y-74096868D01*
X52219886Y-74080512D01*
X52065397Y-73725043D01*
X51921941Y-73338237D01*
X51801673Y-72960438D01*
X51716749Y-72631990D01*
X51679326Y-72393236D01*
X51685560Y-72307186D01*
X51737123Y-72330646D01*
X51846683Y-72474967D01*
X51993138Y-72711288D01*
X52035609Y-72785944D01*
X52524510Y-73502667D01*
X53112829Y-74082430D01*
X53800271Y-74525132D01*
X54586541Y-74830673D01*
X55471341Y-74998951D01*
X56454377Y-75029867D01*
X57535352Y-74923321D01*
X58057981Y-74829627D01*
X59209453Y-74547662D01*
X60416068Y-74155162D01*
X61691595Y-73646738D01*
X63049807Y-73017001D01*
X64191258Y-72429687D01*
X64699915Y-72159881D01*
X65078134Y-71965388D01*
X65343136Y-71838627D01*
X65512139Y-71772018D01*
X65602363Y-71757980D01*
X65631029Y-71788935D01*
G37*
X65631029Y-71788935D02*
X65631132Y-71795861D01*
X65559086Y-71889263D01*
X65359568Y-72054808D01*
X65051821Y-72280083D01*
X64655087Y-72552678D01*
X64188607Y-72860184D01*
X63671622Y-73190188D01*
X63123375Y-73530280D01*
X62563107Y-73868050D01*
X62010061Y-74191087D01*
X61483476Y-74486979D01*
X61325706Y-74572824D01*
X60020478Y-75224146D01*
X58795022Y-75727211D01*
X57648079Y-76082448D01*
X56578387Y-76290286D01*
X56150933Y-76333793D01*
X55818265Y-76349903D01*
X55516559Y-76351014D01*
X55346600Y-76340437D01*
X54910769Y-76257176D01*
X54441502Y-76125755D01*
X54009292Y-75968364D01*
X53719227Y-75828138D01*
X53312868Y-75525646D01*
X52902494Y-75105566D01*
X52527619Y-74613955D01*
X52227755Y-74096868D01*
X52219886Y-74080512D01*
X52065397Y-73725043D01*
X51921941Y-73338237D01*
X51801673Y-72960438D01*
X51716749Y-72631990D01*
X51679326Y-72393236D01*
X51685560Y-72307186D01*
X51737123Y-72330646D01*
X51846683Y-72474967D01*
X51993138Y-72711288D01*
X52035609Y-72785944D01*
X52524510Y-73502667D01*
X53112829Y-74082430D01*
X53800271Y-74525132D01*
X54586541Y-74830673D01*
X55471341Y-74998951D01*
X56454377Y-75029867D01*
X57535352Y-74923321D01*
X58057981Y-74829627D01*
X59209453Y-74547662D01*
X60416068Y-74155162D01*
X61691595Y-73646738D01*
X63049807Y-73017001D01*
X64191258Y-72429687D01*
X64699915Y-72159881D01*
X65078134Y-71965388D01*
X65343136Y-71838627D01*
X65512139Y-71772018D01*
X65602363Y-71757980D01*
X65631029Y-71788935D01*
G36*
X71424193Y-69225389D02*
G01*
X72867400Y-69364063D01*
X73999093Y-69580898D01*
X74970184Y-69857871D01*
X75825482Y-70192824D01*
X76558370Y-70579030D01*
X77162233Y-71009760D01*
X77630454Y-71478286D01*
X77956415Y-71977882D01*
X78133500Y-72501818D01*
X78155092Y-73043367D01*
X78014574Y-73595801D01*
X77994701Y-73643608D01*
X77709365Y-74114332D01*
X77275260Y-74565033D01*
X76712827Y-74982214D01*
X76042505Y-75352378D01*
X75284734Y-75662030D01*
X74650600Y-75851731D01*
X74005727Y-75978556D01*
X73258846Y-76065724D01*
X72473368Y-76109769D01*
X71712706Y-76107228D01*
X71040270Y-76054636D01*
X71009933Y-76050608D01*
X69767976Y-75802714D01*
X68593479Y-75408588D01*
X67499341Y-74874229D01*
X66498458Y-74205642D01*
X65845267Y-73646846D01*
X65626186Y-73433462D01*
X65506595Y-73295722D01*
X65496212Y-73232952D01*
X65604753Y-73244478D01*
X65841936Y-73329624D01*
X66217479Y-73487715D01*
X66480267Y-73602757D01*
X67357844Y-73933363D01*
X68298260Y-74186542D01*
X69279770Y-74363356D01*
X70280629Y-74464868D01*
X71279092Y-74492141D01*
X72253412Y-74446239D01*
X73181846Y-74328224D01*
X74042649Y-74139158D01*
X74814074Y-73880106D01*
X75474377Y-73552131D01*
X76001812Y-73156294D01*
X76022727Y-73136272D01*
X76256975Y-72900210D01*
X76391594Y-72726748D01*
X76453750Y-72566249D01*
X76470606Y-72369077D01*
X76470933Y-72317295D01*
X76418549Y-71946985D01*
X76249892Y-71614969D01*
X75947704Y-71296557D01*
X75554148Y-71005716D01*
X75113747Y-70761332D01*
X74549351Y-70517457D01*
X73905629Y-70289641D01*
X73227251Y-70093434D01*
X72558885Y-69944388D01*
X72449267Y-69924823D01*
X71432914Y-69796687D01*
X70321372Y-69736867D01*
X69173676Y-69744518D01*
X68048860Y-69818793D01*
X67005961Y-69958845D01*
X66752599Y-70006513D01*
X66464575Y-70076344D01*
X66058685Y-70190434D01*
X65576354Y-70335592D01*
X65059008Y-70498626D01*
X64548070Y-70666347D01*
X64084965Y-70825563D01*
X63711119Y-70963083D01*
X63568880Y-71020316D01*
X63451749Y-71045439D01*
X63447294Y-70968391D01*
X63547925Y-70861495D01*
X63776144Y-70714511D01*
X64099678Y-70543188D01*
X64486254Y-70363274D01*
X64903596Y-70190519D01*
X65319433Y-70040672D01*
X65404643Y-70013244D01*
X66894455Y-69617518D01*
X68411678Y-69353427D01*
X69930272Y-69222281D01*
X71424193Y-69225389D01*
G37*
X71424193Y-69225389D02*
X72867400Y-69364063D01*
X73999093Y-69580898D01*
X74970184Y-69857871D01*
X75825482Y-70192824D01*
X76558370Y-70579030D01*
X77162233Y-71009760D01*
X77630454Y-71478286D01*
X77956415Y-71977882D01*
X78133500Y-72501818D01*
X78155092Y-73043367D01*
X78014574Y-73595801D01*
X77994701Y-73643608D01*
X77709365Y-74114332D01*
X77275260Y-74565033D01*
X76712827Y-74982214D01*
X76042505Y-75352378D01*
X75284734Y-75662030D01*
X74650600Y-75851731D01*
X74005727Y-75978556D01*
X73258846Y-76065724D01*
X72473368Y-76109769D01*
X71712706Y-76107228D01*
X71040270Y-76054636D01*
X71009933Y-76050608D01*
X69767976Y-75802714D01*
X68593479Y-75408588D01*
X67499341Y-74874229D01*
X66498458Y-74205642D01*
X65845267Y-73646846D01*
X65626186Y-73433462D01*
X65506595Y-73295722D01*
X65496212Y-73232952D01*
X65604753Y-73244478D01*
X65841936Y-73329624D01*
X66217479Y-73487715D01*
X66480267Y-73602757D01*
X67357844Y-73933363D01*
X68298260Y-74186542D01*
X69279770Y-74363356D01*
X70280629Y-74464868D01*
X71279092Y-74492141D01*
X72253412Y-74446239D01*
X73181846Y-74328224D01*
X74042649Y-74139158D01*
X74814074Y-73880106D01*
X75474377Y-73552131D01*
X76001812Y-73156294D01*
X76022727Y-73136272D01*
X76256975Y-72900210D01*
X76391594Y-72726748D01*
X76453750Y-72566249D01*
X76470606Y-72369077D01*
X76470933Y-72317295D01*
X76418549Y-71946985D01*
X76249892Y-71614969D01*
X75947704Y-71296557D01*
X75554148Y-71005716D01*
X75113747Y-70761332D01*
X74549351Y-70517457D01*
X73905629Y-70289641D01*
X73227251Y-70093434D01*
X72558885Y-69944388D01*
X72449267Y-69924823D01*
X71432914Y-69796687D01*
X70321372Y-69736867D01*
X69173676Y-69744518D01*
X68048860Y-69818793D01*
X67005961Y-69958845D01*
X66752599Y-70006513D01*
X66464575Y-70076344D01*
X66058685Y-70190434D01*
X65576354Y-70335592D01*
X65059008Y-70498626D01*
X64548070Y-70666347D01*
X64084965Y-70825563D01*
X63711119Y-70963083D01*
X63568880Y-71020316D01*
X63451749Y-71045439D01*
X63447294Y-70968391D01*
X63547925Y-70861495D01*
X63776144Y-70714511D01*
X64099678Y-70543188D01*
X64486254Y-70363274D01*
X64903596Y-70190519D01*
X65319433Y-70040672D01*
X65404643Y-70013244D01*
X66894455Y-69617518D01*
X68411678Y-69353427D01*
X69930272Y-69222281D01*
X71424193Y-69225389D01*
G36*
X59970245Y-67655655D02*
G01*
X61608665Y-67688393D01*
X63330696Y-67737216D01*
X65122225Y-67801675D01*
X66969139Y-67881321D01*
X68857326Y-67975703D01*
X70772673Y-68084373D01*
X72701066Y-68206881D01*
X74628393Y-68342778D01*
X76343933Y-68475636D01*
X77026543Y-68530425D01*
X77693529Y-68583208D01*
X78315203Y-68631692D01*
X78861878Y-68673583D01*
X79303866Y-68706588D01*
X79611480Y-68728415D01*
X79645933Y-68730696D01*
X80202930Y-68771943D01*
X80605781Y-68813997D01*
X80869667Y-68859329D01*
X81009768Y-68910406D01*
X81042933Y-68957865D01*
X80962036Y-68995768D01*
X80731210Y-69009523D01*
X80368250Y-68998255D01*
X80302100Y-68994263D01*
X79495109Y-68948907D01*
X78538897Y-68905571D01*
X77453568Y-68864695D01*
X76259227Y-68826722D01*
X74975979Y-68792095D01*
X73623927Y-68761256D01*
X72223178Y-68734647D01*
X70793835Y-68712711D01*
X69356003Y-68695889D01*
X67929787Y-68684623D01*
X66535291Y-68679357D01*
X65972267Y-68679037D01*
X64629209Y-68681852D01*
X63432227Y-68689906D01*
X62358109Y-68704461D01*
X61383644Y-68726778D01*
X60485620Y-68758120D01*
X59640827Y-68799747D01*
X58826053Y-68852921D01*
X58018088Y-68918905D01*
X57193718Y-68998960D01*
X56329735Y-69094348D01*
X55402926Y-69206331D01*
X54753933Y-69288859D01*
X54212792Y-69375639D01*
X53609094Y-69500236D01*
X52990322Y-69650416D01*
X52403957Y-69813942D01*
X51897482Y-69978578D01*
X51563748Y-70110937D01*
X51046895Y-70389867D01*
X50640888Y-70701652D01*
X50370004Y-71026229D01*
X50307278Y-71149395D01*
X50252986Y-71492748D01*
X50355260Y-71886582D01*
X50615155Y-72334213D01*
X50734071Y-72492256D01*
X50943526Y-72765304D01*
X51050989Y-72934602D01*
X51047980Y-73003135D01*
X50926021Y-72973889D01*
X50676631Y-72849847D01*
X50306617Y-72642733D01*
X49495548Y-72161861D01*
X48829010Y-71726400D01*
X48292099Y-71324720D01*
X47869909Y-70945193D01*
X47547534Y-70576190D01*
X47416555Y-70387990D01*
X47230876Y-69995774D01*
X47196501Y-69635653D01*
X47315099Y-69306908D01*
X47588333Y-69008818D01*
X48017871Y-68740665D01*
X48605379Y-68501728D01*
X49352522Y-68291287D01*
X50260969Y-68108624D01*
X51332383Y-67953017D01*
X52568433Y-67823749D01*
X53526267Y-67748975D01*
X54534937Y-67694545D01*
X55697783Y-67658448D01*
X57000691Y-67640233D01*
X58429550Y-67639452D01*
X59970245Y-67655655D01*
G37*
X59970245Y-67655655D02*
X61608665Y-67688393D01*
X63330696Y-67737216D01*
X65122225Y-67801675D01*
X66969139Y-67881321D01*
X68857326Y-67975703D01*
X70772673Y-68084373D01*
X72701066Y-68206881D01*
X74628393Y-68342778D01*
X76343933Y-68475636D01*
X77026543Y-68530425D01*
X77693529Y-68583208D01*
X78315203Y-68631692D01*
X78861878Y-68673583D01*
X79303866Y-68706588D01*
X79611480Y-68728415D01*
X79645933Y-68730696D01*
X80202930Y-68771943D01*
X80605781Y-68813997D01*
X80869667Y-68859329D01*
X81009768Y-68910406D01*
X81042933Y-68957865D01*
X80962036Y-68995768D01*
X80731210Y-69009523D01*
X80368250Y-68998255D01*
X80302100Y-68994263D01*
X79495109Y-68948907D01*
X78538897Y-68905571D01*
X77453568Y-68864695D01*
X76259227Y-68826722D01*
X74975979Y-68792095D01*
X73623927Y-68761256D01*
X72223178Y-68734647D01*
X70793835Y-68712711D01*
X69356003Y-68695889D01*
X67929787Y-68684623D01*
X66535291Y-68679357D01*
X65972267Y-68679037D01*
X64629209Y-68681852D01*
X63432227Y-68689906D01*
X62358109Y-68704461D01*
X61383644Y-68726778D01*
X60485620Y-68758120D01*
X59640827Y-68799747D01*
X58826053Y-68852921D01*
X58018088Y-68918905D01*
X57193718Y-68998960D01*
X56329735Y-69094348D01*
X55402926Y-69206331D01*
X54753933Y-69288859D01*
X54212792Y-69375639D01*
X53609094Y-69500236D01*
X52990322Y-69650416D01*
X52403957Y-69813942D01*
X51897482Y-69978578D01*
X51563748Y-70110937D01*
X51046895Y-70389867D01*
X50640888Y-70701652D01*
X50370004Y-71026229D01*
X50307278Y-71149395D01*
X50252986Y-71492748D01*
X50355260Y-71886582D01*
X50615155Y-72334213D01*
X50734071Y-72492256D01*
X50943526Y-72765304D01*
X51050989Y-72934602D01*
X51047980Y-73003135D01*
X50926021Y-72973889D01*
X50676631Y-72849847D01*
X50306617Y-72642733D01*
X49495548Y-72161861D01*
X48829010Y-71726400D01*
X48292099Y-71324720D01*
X47869909Y-70945193D01*
X47547534Y-70576190D01*
X47416555Y-70387990D01*
X47230876Y-69995774D01*
X47196501Y-69635653D01*
X47315099Y-69306908D01*
X47588333Y-69008818D01*
X48017871Y-68740665D01*
X48605379Y-68501728D01*
X49352522Y-68291287D01*
X50260969Y-68108624D01*
X51332383Y-67953017D01*
X52568433Y-67823749D01*
X53526267Y-67748975D01*
X54534937Y-67694545D01*
X55697783Y-67658448D01*
X57000691Y-67640233D01*
X58429550Y-67639452D01*
X59970245Y-67655655D01*
G36*
X55009732Y-70081556D02*
G01*
X55053915Y-70207030D01*
X55048144Y-70443788D01*
X55000867Y-70818119D01*
X54994865Y-70859457D01*
X54917572Y-71335249D01*
X54837473Y-71674544D01*
X54739182Y-71909712D01*
X54607312Y-72073123D01*
X54426475Y-72197146D01*
X54337267Y-72242839D01*
X54017683Y-72372442D01*
X53758401Y-72401461D01*
X53486265Y-72333536D01*
X53381050Y-72290413D01*
X53192315Y-72172375D01*
X53077407Y-71996368D01*
X53027244Y-71731269D01*
X53032743Y-71345956D01*
X53048514Y-71150986D01*
X53094053Y-70699231D01*
X53138279Y-70389888D01*
X53190885Y-70196392D01*
X53261565Y-70092179D01*
X53360010Y-70050686D01*
X53452183Y-70044733D01*
X53589745Y-70060600D01*
X53669175Y-70127088D01*
X53695354Y-70272532D01*
X53673162Y-70525266D01*
X53607480Y-70913624D01*
X53604569Y-70929397D01*
X53551805Y-71359357D01*
X53580925Y-71652882D01*
X53694348Y-71823071D01*
X53777265Y-71864114D01*
X53980721Y-71889544D01*
X54143804Y-71811891D01*
X54275303Y-71615973D01*
X54384001Y-71286604D01*
X54478686Y-70808602D01*
X54511260Y-70595646D01*
X54568081Y-70292296D01*
X54637369Y-70124936D01*
X54733201Y-70060230D01*
X54737712Y-70059319D01*
X54907147Y-70041082D01*
X55009732Y-70081556D01*
G37*
X55009732Y-70081556D02*
X55053915Y-70207030D01*
X55048144Y-70443788D01*
X55000867Y-70818119D01*
X54994865Y-70859457D01*
X54917572Y-71335249D01*
X54837473Y-71674544D01*
X54739182Y-71909712D01*
X54607312Y-72073123D01*
X54426475Y-72197146D01*
X54337267Y-72242839D01*
X54017683Y-72372442D01*
X53758401Y-72401461D01*
X53486265Y-72333536D01*
X53381050Y-72290413D01*
X53192315Y-72172375D01*
X53077407Y-71996368D01*
X53027244Y-71731269D01*
X53032743Y-71345956D01*
X53048514Y-71150986D01*
X53094053Y-70699231D01*
X53138279Y-70389888D01*
X53190885Y-70196392D01*
X53261565Y-70092179D01*
X53360010Y-70050686D01*
X53452183Y-70044733D01*
X53589745Y-70060600D01*
X53669175Y-70127088D01*
X53695354Y-70272532D01*
X53673162Y-70525266D01*
X53607480Y-70913624D01*
X53604569Y-70929397D01*
X53551805Y-71359357D01*
X53580925Y-71652882D01*
X53694348Y-71823071D01*
X53777265Y-71864114D01*
X53980721Y-71889544D01*
X54143804Y-71811891D01*
X54275303Y-71615973D01*
X54384001Y-71286604D01*
X54478686Y-70808602D01*
X54511260Y-70595646D01*
X54568081Y-70292296D01*
X54637369Y-70124936D01*
X54733201Y-70060230D01*
X54737712Y-70059319D01*
X54907147Y-70041082D01*
X55009732Y-70081556D01*
G36*
X58273374Y-70024352D02*
G01*
X58344653Y-70042683D01*
X58595137Y-70142352D01*
X58680694Y-70267445D01*
X58604938Y-70427025D01*
X58528643Y-70504026D01*
X58369793Y-70601347D01*
X58206968Y-70565350D01*
X58189976Y-70556503D01*
X57973700Y-70507565D01*
X57844267Y-70552733D01*
X57702702Y-70662387D01*
X57709249Y-70771804D01*
X57870540Y-70894303D01*
X58060467Y-70986795D01*
X58383997Y-71174817D01*
X58546474Y-71389548D01*
X58555822Y-71646688D01*
X58488170Y-71834345D01*
X58352666Y-72055017D01*
X58202268Y-72213512D01*
X58186656Y-72224093D01*
X57845135Y-72352772D01*
X57457220Y-72373255D01*
X57106372Y-72281481D01*
X57097594Y-72277104D01*
X56816588Y-72134593D01*
X57018634Y-71932548D01*
X57182900Y-71798962D01*
X57333323Y-71781843D01*
X57453350Y-71818963D01*
X57717884Y-71862116D01*
X57849810Y-71819766D01*
X57988709Y-71709728D01*
X57976603Y-71598794D01*
X57807533Y-71474690D01*
X57643785Y-71395625D01*
X57328971Y-71235038D01*
X57155280Y-71078243D01*
X57098887Y-70890740D01*
X57131872Y-70654317D01*
X57210976Y-70442613D01*
X57353508Y-70289958D01*
X57603820Y-70145253D01*
X57863238Y-70030374D01*
X58059538Y-69993796D01*
X58273374Y-70024352D01*
G37*
X58273374Y-70024352D02*
X58344653Y-70042683D01*
X58595137Y-70142352D01*
X58680694Y-70267445D01*
X58604938Y-70427025D01*
X58528643Y-70504026D01*
X58369793Y-70601347D01*
X58206968Y-70565350D01*
X58189976Y-70556503D01*
X57973700Y-70507565D01*
X57844267Y-70552733D01*
X57702702Y-70662387D01*
X57709249Y-70771804D01*
X57870540Y-70894303D01*
X58060467Y-70986795D01*
X58383997Y-71174817D01*
X58546474Y-71389548D01*
X58555822Y-71646688D01*
X58488170Y-71834345D01*
X58352666Y-72055017D01*
X58202268Y-72213512D01*
X58186656Y-72224093D01*
X57845135Y-72352772D01*
X57457220Y-72373255D01*
X57106372Y-72281481D01*
X57097594Y-72277104D01*
X56816588Y-72134593D01*
X57018634Y-71932548D01*
X57182900Y-71798962D01*
X57333323Y-71781843D01*
X57453350Y-71818963D01*
X57717884Y-71862116D01*
X57849810Y-71819766D01*
X57988709Y-71709728D01*
X57976603Y-71598794D01*
X57807533Y-71474690D01*
X57643785Y-71395625D01*
X57328971Y-71235038D01*
X57155280Y-71078243D01*
X57098887Y-70890740D01*
X57131872Y-70654317D01*
X57210976Y-70442613D01*
X57353508Y-70289958D01*
X57603820Y-70145253D01*
X57863238Y-70030374D01*
X58059538Y-69993796D01*
X58273374Y-70024352D01*
G36*
X57082267Y-70298733D02*
G01*
X57068396Y-70462916D01*
X56994102Y-70534954D01*
X56810362Y-70552463D01*
X56751250Y-70552733D01*
X56420233Y-70552733D01*
X56325005Y-71166567D01*
X56270863Y-71515053D01*
X56220952Y-71835447D01*
X56186519Y-72055567D01*
X56135188Y-72246631D01*
X56026785Y-72320619D01*
X55883483Y-72330733D01*
X55722430Y-72322026D01*
X55655343Y-72264793D01*
X55654967Y-72112361D01*
X55673340Y-71970900D01*
X55710315Y-71681455D01*
X55752560Y-71320184D01*
X55778556Y-71081900D01*
X55834139Y-70552733D01*
X55516994Y-70552733D01*
X55312329Y-70542209D01*
X55236272Y-70491384D01*
X55248482Y-70371377D01*
X55250902Y-70362233D01*
X55291791Y-70186493D01*
X55303110Y-70108233D01*
X55382434Y-70082163D01*
X55596034Y-70061280D01*
X55908875Y-70048084D01*
X56193267Y-70044733D01*
X57082267Y-70044733D01*
X57082267Y-70298733D01*
G37*
X57082267Y-70298733D02*
X57068396Y-70462916D01*
X56994102Y-70534954D01*
X56810362Y-70552463D01*
X56751250Y-70552733D01*
X56420233Y-70552733D01*
X56325005Y-71166567D01*
X56270863Y-71515053D01*
X56220952Y-71835447D01*
X56186519Y-72055567D01*
X56135188Y-72246631D01*
X56026785Y-72320619D01*
X55883483Y-72330733D01*
X55722430Y-72322026D01*
X55655343Y-72264793D01*
X55654967Y-72112361D01*
X55673340Y-71970900D01*
X55710315Y-71681455D01*
X55752560Y-71320184D01*
X55778556Y-71081900D01*
X55834139Y-70552733D01*
X55516994Y-70552733D01*
X55312329Y-70542209D01*
X55236272Y-70491384D01*
X55248482Y-70371377D01*
X55250902Y-70362233D01*
X55291791Y-70186493D01*
X55303110Y-70108233D01*
X55382434Y-70082163D01*
X55596034Y-70061280D01*
X55908875Y-70048084D01*
X56193267Y-70044733D01*
X57082267Y-70044733D01*
X57082267Y-70298733D01*
G36*
X62110391Y-70052313D02*
G01*
X62468421Y-70063642D01*
X62730103Y-70082409D01*
X62862943Y-70106874D01*
X62872130Y-70113538D01*
X62888296Y-70245066D01*
X62869176Y-70364113D01*
X62783856Y-70497710D01*
X62590691Y-70560887D01*
X62513426Y-70569306D01*
X62204600Y-70595067D01*
X62082993Y-71462900D01*
X62027038Y-71851349D01*
X61981930Y-72102160D01*
X61935359Y-72245437D01*
X61875017Y-72311285D01*
X61788595Y-72329809D01*
X61728157Y-72330733D01*
X61544556Y-72310143D01*
X61457735Y-72267233D01*
X61453422Y-72159333D01*
X61474934Y-71928982D01*
X61517789Y-71620329D01*
X61532918Y-71526400D01*
X61600698Y-71111057D01*
X61636776Y-70834639D01*
X61636251Y-70668872D01*
X61594222Y-70585481D01*
X61505788Y-70556193D01*
X61366048Y-70552733D01*
X61364141Y-70552733D01*
X61136285Y-70519085D01*
X61046641Y-70414381D01*
X60999346Y-70432756D01*
X60888391Y-70578480D01*
X60728810Y-70828968D01*
X60535639Y-71161633D01*
X60468933Y-71282214D01*
X60238533Y-71696132D01*
X60066745Y-71982317D01*
X59935895Y-72164210D01*
X59828307Y-72265255D01*
X59726306Y-72308892D01*
X59690423Y-72314741D01*
X59535978Y-72311105D01*
X59446334Y-72224997D01*
X59377500Y-72018408D01*
X59314955Y-71778947D01*
X59227430Y-71442203D01*
X59132249Y-71074853D01*
X59117651Y-71018400D01*
X59029882Y-70682921D01*
X58953282Y-70397304D01*
X58901494Y-70212230D01*
X58893938Y-70187344D01*
X58884996Y-70088249D01*
X58970307Y-70052852D01*
X59159262Y-70060344D01*
X59473195Y-70087067D01*
X59632075Y-70714688D01*
X59712454Y-71018777D01*
X59780647Y-71252624D01*
X59823940Y-71373130D01*
X59828261Y-71379616D01*
X59879703Y-71326343D01*
X59986294Y-71152389D01*
X60129330Y-70889454D01*
X60207210Y-70737426D01*
X60548854Y-70057931D01*
X61688508Y-70050163D01*
X62110391Y-70052313D01*
G37*
X62110391Y-70052313D02*
X62468421Y-70063642D01*
X62730103Y-70082409D01*
X62862943Y-70106874D01*
X62872130Y-70113538D01*
X62888296Y-70245066D01*
X62869176Y-70364113D01*
X62783856Y-70497710D01*
X62590691Y-70560887D01*
X62513426Y-70569306D01*
X62204600Y-70595067D01*
X62082993Y-71462900D01*
X62027038Y-71851349D01*
X61981930Y-72102160D01*
X61935359Y-72245437D01*
X61875017Y-72311285D01*
X61788595Y-72329809D01*
X61728157Y-72330733D01*
X61544556Y-72310143D01*
X61457735Y-72267233D01*
X61453422Y-72159333D01*
X61474934Y-71928982D01*
X61517789Y-71620329D01*
X61532918Y-71526400D01*
X61600698Y-71111057D01*
X61636776Y-70834639D01*
X61636251Y-70668872D01*
X61594222Y-70585481D01*
X61505788Y-70556193D01*
X61366048Y-70552733D01*
X61364141Y-70552733D01*
X61136285Y-70519085D01*
X61046641Y-70414381D01*
X60999346Y-70432756D01*
X60888391Y-70578480D01*
X60728810Y-70828968D01*
X60535639Y-71161633D01*
X60468933Y-71282214D01*
X60238533Y-71696132D01*
X60066745Y-71982317D01*
X59935895Y-72164210D01*
X59828307Y-72265255D01*
X59726306Y-72308892D01*
X59690423Y-72314741D01*
X59535978Y-72311105D01*
X59446334Y-72224997D01*
X59377500Y-72018408D01*
X59314955Y-71778947D01*
X59227430Y-71442203D01*
X59132249Y-71074853D01*
X59117651Y-71018400D01*
X59029882Y-70682921D01*
X58953282Y-70397304D01*
X58901494Y-70212230D01*
X58893938Y-70187344D01*
X58884996Y-70088249D01*
X58970307Y-70052852D01*
X59159262Y-70060344D01*
X59473195Y-70087067D01*
X59632075Y-70714688D01*
X59712454Y-71018777D01*
X59780647Y-71252624D01*
X59823940Y-71373130D01*
X59828261Y-71379616D01*
X59879703Y-71326343D01*
X59986294Y-71152389D01*
X60129330Y-70889454D01*
X60207210Y-70737426D01*
X60548854Y-70057931D01*
X61688508Y-70050163D01*
X62110391Y-70052313D01*
G36*
X69269763Y-63395679D02*
G01*
X70226631Y-63565518D01*
X71141494Y-63884675D01*
X72020392Y-64353007D01*
X72368468Y-64585784D01*
X72661820Y-64816922D01*
X73000731Y-65121540D01*
X73366449Y-65478506D01*
X73740222Y-65866685D01*
X74103297Y-66264945D01*
X74436922Y-66652151D01*
X74722345Y-67007170D01*
X74940812Y-67308869D01*
X75073572Y-67536114D01*
X75102275Y-67666703D01*
X75031970Y-67643415D01*
X74858582Y-67525688D01*
X74605886Y-67331251D01*
X74297659Y-67077831D01*
X74193077Y-66988801D01*
X73260522Y-66236319D01*
X72376734Y-65627437D01*
X71519296Y-65152110D01*
X70665791Y-64800294D01*
X69793800Y-64561946D01*
X68880906Y-64427021D01*
X68404516Y-64395305D01*
X67581214Y-64391871D01*
X66768865Y-64456552D01*
X65944394Y-64595424D01*
X65084729Y-64814565D01*
X64166795Y-65120051D01*
X63167518Y-65517957D01*
X62063824Y-66014361D01*
X61823600Y-66128351D01*
X61450752Y-66307159D01*
X61133468Y-66460254D01*
X60902963Y-66572510D01*
X60790447Y-66628798D01*
X60786433Y-66631028D01*
X60725210Y-66607224D01*
X60722933Y-66587102D01*
X60794168Y-66496366D01*
X60993063Y-66340473D01*
X61297406Y-66133080D01*
X61684983Y-65887845D01*
X62133581Y-65618425D01*
X62620986Y-65338476D01*
X63124986Y-65061655D01*
X63623367Y-64801620D01*
X63643933Y-64791225D01*
X64901431Y-64212343D01*
X66086723Y-63783490D01*
X67205849Y-63504523D01*
X68264849Y-63375300D01*
X69269763Y-63395679D01*
G37*
X69269763Y-63395679D02*
X70226631Y-63565518D01*
X71141494Y-63884675D01*
X72020392Y-64353007D01*
X72368468Y-64585784D01*
X72661820Y-64816922D01*
X73000731Y-65121540D01*
X73366449Y-65478506D01*
X73740222Y-65866685D01*
X74103297Y-66264945D01*
X74436922Y-66652151D01*
X74722345Y-67007170D01*
X74940812Y-67308869D01*
X75073572Y-67536114D01*
X75102275Y-67666703D01*
X75031970Y-67643415D01*
X74858582Y-67525688D01*
X74605886Y-67331251D01*
X74297659Y-67077831D01*
X74193077Y-66988801D01*
X73260522Y-66236319D01*
X72376734Y-65627437D01*
X71519296Y-65152110D01*
X70665791Y-64800294D01*
X69793800Y-64561946D01*
X68880906Y-64427021D01*
X68404516Y-64395305D01*
X67581214Y-64391871D01*
X66768865Y-64456552D01*
X65944394Y-64595424D01*
X65084729Y-64814565D01*
X64166795Y-65120051D01*
X63167518Y-65517957D01*
X62063824Y-66014361D01*
X61823600Y-66128351D01*
X61450752Y-66307159D01*
X61133468Y-66460254D01*
X60902963Y-66572510D01*
X60790447Y-66628798D01*
X60786433Y-66631028D01*
X60725210Y-66607224D01*
X60722933Y-66587102D01*
X60794168Y-66496366D01*
X60993063Y-66340473D01*
X61297406Y-66133080D01*
X61684983Y-65887845D01*
X62133581Y-65618425D01*
X62620986Y-65338476D01*
X63124986Y-65061655D01*
X63623367Y-64801620D01*
X63643933Y-64791225D01*
X64901431Y-64212343D01*
X66086723Y-63783490D01*
X67205849Y-63504523D01*
X68264849Y-63375300D01*
X69269763Y-63395679D01*
D12*
X99009200Y-103937000D02*
X99009200Y-104887000D01*
X99009200Y-109677000D02*
X99009200Y-108727000D01*
X98089200Y-104887000D02*
X98089200Y-108727000D01*
X99929200Y-104887000D02*
X98089200Y-104887000D01*
X99929200Y-108727000D02*
X99929200Y-104887000D01*
X98089200Y-108727000D02*
X99929200Y-108727000D01*
X112719600Y-108727000D02*
X114559600Y-108727000D01*
X114559600Y-108727000D02*
X114559600Y-104887000D01*
X114559600Y-104887000D02*
X112719600Y-104887000D01*
X112719600Y-104887000D02*
X112719600Y-108727000D01*
X113639600Y-109677000D02*
X113639600Y-108727000D01*
X113639600Y-103937000D02*
X113639600Y-104887000D01*
X128219200Y-103937000D02*
X128219200Y-104887000D01*
X128219200Y-109677000D02*
X128219200Y-108727000D01*
X127299200Y-104887000D02*
X127299200Y-108727000D01*
X129139200Y-104887000D02*
X127299200Y-104887000D01*
X129139200Y-108727000D02*
X129139200Y-104887000D01*
X127299200Y-108727000D02*
X129139200Y-108727000D01*
X142183600Y-108727000D02*
X144023600Y-108727000D01*
X144023600Y-108727000D02*
X144023600Y-104887000D01*
X144023600Y-104887000D02*
X142183600Y-104887000D01*
X142183600Y-104887000D02*
X142183600Y-108727000D01*
X143103600Y-109677000D02*
X143103600Y-108727000D01*
X143103600Y-103937000D02*
X143103600Y-104887000D01*
X158140400Y-103937000D02*
X158140400Y-104887000D01*
X158140400Y-109677000D02*
X158140400Y-108727000D01*
X157220400Y-104887000D02*
X157220400Y-108727000D01*
X159060400Y-104887000D02*
X157220400Y-104887000D01*
X159060400Y-108727000D02*
X159060400Y-104887000D01*
X157220400Y-108727000D02*
X159060400Y-108727000D01*
X158140400Y-83540400D02*
X158140400Y-82590400D01*
X158140400Y-77800400D02*
X158140400Y-78750400D01*
X159060400Y-82590400D02*
X159060400Y-78750400D01*
X157220400Y-82590400D02*
X159060400Y-82590400D01*
X157220400Y-78750400D02*
X157220400Y-82590400D01*
X159060400Y-78750400D02*
X157220400Y-78750400D01*
X144023600Y-78775800D02*
X142183600Y-78775800D01*
X142183600Y-78775800D02*
X142183600Y-82615800D01*
X142183600Y-82615800D02*
X144023600Y-82615800D01*
X144023600Y-82615800D02*
X144023600Y-78775800D01*
X143103600Y-77825800D02*
X143103600Y-78775800D01*
X143103600Y-83565800D02*
X143103600Y-82615800D01*
X128270000Y-83540400D02*
X128270000Y-82590400D01*
X128270000Y-77800400D02*
X128270000Y-78750400D01*
X129190000Y-82590400D02*
X129190000Y-78750400D01*
X127350000Y-82590400D02*
X129190000Y-82590400D01*
X127350000Y-78750400D02*
X127350000Y-82590400D01*
X129190000Y-78750400D02*
X127350000Y-78750400D01*
X114559600Y-78750400D02*
X112719600Y-78750400D01*
X112719600Y-78750400D02*
X112719600Y-82590400D01*
X112719600Y-82590400D02*
X114559600Y-82590400D01*
X114559600Y-82590400D02*
X114559600Y-78750400D01*
X113639600Y-77800400D02*
X113639600Y-78750400D01*
X113639600Y-83540400D02*
X113639600Y-82590400D01*
X98983800Y-83540400D02*
X98983800Y-82590400D01*
X98983800Y-77800400D02*
X98983800Y-78750400D01*
X99903800Y-82590400D02*
X99903800Y-78750400D01*
X98063800Y-82590400D02*
X99903800Y-82590400D01*
X98063800Y-78750400D02*
X98063800Y-82590400D01*
X99903800Y-78750400D02*
X98063800Y-78750400D01*
X155784200Y-67265400D02*
X155784200Y-64055400D01*
X155784200Y-64055400D02*
X145914200Y-64055400D01*
X145914200Y-64055400D02*
X145914200Y-67265400D01*
X154479200Y-68645400D02*
X154364200Y-68645400D01*
X154364200Y-68645400D02*
X154364200Y-68145400D01*
X154364200Y-68145400D02*
X147334200Y-68145400D01*
X147334200Y-68145400D02*
X147334200Y-68645400D01*
X147334200Y-68645400D02*
X147219200Y-68645400D01*
X119054600Y-83406400D02*
X119054600Y-80206400D01*
X123054600Y-80206400D02*
X123054600Y-83406400D01*
X121054600Y-82556400D02*
X121054600Y-81056400D01*
X117584600Y-73706400D02*
X117584600Y-89906400D01*
X124524600Y-73706400D02*
X117584600Y-73706400D01*
X124524600Y-89906400D02*
X124524600Y-73706400D01*
X117584600Y-89906400D02*
X124524600Y-89906400D01*
X103316000Y-68645400D02*
X103201000Y-68645400D01*
X103316000Y-68145400D02*
X103316000Y-68645400D01*
X110346000Y-68145400D02*
X103316000Y-68145400D01*
X110346000Y-68645400D02*
X110346000Y-68145400D01*
X110461000Y-68645400D02*
X110346000Y-68645400D01*
X101896000Y-64055400D02*
X101896000Y-67265400D01*
X111766000Y-64055400D02*
X101896000Y-64055400D01*
X111766000Y-67265400D02*
X111766000Y-64055400D01*
X104627400Y-83406400D02*
X104627400Y-80206400D01*
X108627400Y-80206400D02*
X108627400Y-83406400D01*
X106627400Y-82556400D02*
X106627400Y-81056400D01*
X103157400Y-73706400D02*
X103157400Y-89906400D01*
X110097400Y-73706400D02*
X103157400Y-73706400D01*
X110097400Y-89906400D02*
X110097400Y-73706400D01*
X103157400Y-89906400D02*
X110097400Y-89906400D01*
X100089200Y-89926600D02*
X100245200Y-89926600D01*
X97773200Y-89926600D02*
X97929200Y-89926600D01*
X100089037Y-87325470D02*
G75*
G02*
X100089200Y-89407561I-1079837J-1041130D01*
G01*
X97929363Y-87325470D02*
G75*
G03*
X97929200Y-89407561I1079837J-1041130D01*
G01*
X100087808Y-86694265D02*
G75*
G02*
X100244716Y-89926600I-1078608J-1672335D01*
G01*
X97930592Y-86694265D02*
G75*
G03*
X97773684Y-89926600I1078608J-1672335D01*
G01*
X100245200Y-97550800D02*
X100089200Y-97550800D01*
X97929200Y-97550800D02*
X97773200Y-97550800D01*
X100087808Y-100783135D02*
G75*
G03*
X100244716Y-97550800I-1078608J1672335D01*
G01*
X97930592Y-100783135D02*
G75*
G02*
X97773684Y-97550800I1078608J1672335D01*
G01*
X100089037Y-100151930D02*
G75*
G03*
X100089200Y-98069839I-1079837J1041130D01*
G01*
X97929363Y-100151930D02*
G75*
G02*
X97929200Y-98069839I1079837J1041130D01*
G01*
X112585000Y-97550800D02*
X112429000Y-97550800D01*
X114901000Y-97550800D02*
X114745000Y-97550800D01*
X112585163Y-100151930D02*
G75*
G02*
X112585000Y-98069839I1079837J1041130D01*
G01*
X114744837Y-100151930D02*
G75*
G03*
X114745000Y-98069839I-1079837J1041130D01*
G01*
X112586392Y-100783135D02*
G75*
G02*
X112429484Y-97550800I1078608J1672335D01*
G01*
X114743608Y-100783135D02*
G75*
G03*
X114900516Y-97550800I-1078608J1672335D01*
G01*
X127164600Y-97550800D02*
X127008600Y-97550800D01*
X129480600Y-97550800D02*
X129324600Y-97550800D01*
X127164763Y-100151930D02*
G75*
G02*
X127164600Y-98069839I1079837J1041130D01*
G01*
X129324437Y-100151930D02*
G75*
G03*
X129324600Y-98069839I-1079837J1041130D01*
G01*
X127165992Y-100783135D02*
G75*
G02*
X127009084Y-97550800I1078608J1672335D01*
G01*
X129323208Y-100783135D02*
G75*
G03*
X129480116Y-97550800I-1078608J1672335D01*
G01*
X144339600Y-97550800D02*
X144183600Y-97550800D01*
X142023600Y-97550800D02*
X141867600Y-97550800D01*
X144182208Y-100783135D02*
G75*
G03*
X144339116Y-97550800I-1078608J1672335D01*
G01*
X142024992Y-100783135D02*
G75*
G02*
X141868084Y-97550800I1078608J1672335D01*
G01*
X144183437Y-100151930D02*
G75*
G03*
X144183600Y-98069839I-1079837J1041130D01*
G01*
X142023763Y-100151930D02*
G75*
G02*
X142023600Y-98069839I1079837J1041130D01*
G01*
X157060400Y-97550800D02*
X156904400Y-97550800D01*
X159376400Y-97550800D02*
X159220400Y-97550800D01*
X157060563Y-100151930D02*
G75*
G02*
X157060400Y-98069839I1079837J1041130D01*
G01*
X159220237Y-100151930D02*
G75*
G03*
X159220400Y-98069839I-1079837J1041130D01*
G01*
X157061792Y-100783135D02*
G75*
G02*
X156904884Y-97550800I1078608J1672335D01*
G01*
X159219008Y-100783135D02*
G75*
G03*
X159375916Y-97550800I-1078608J1672335D01*
G01*
X159245800Y-89926600D02*
X159401800Y-89926600D01*
X156929800Y-89926600D02*
X157085800Y-89926600D01*
X159245637Y-87325470D02*
G75*
G02*
X159245800Y-89407561I-1079837J-1041130D01*
G01*
X157085963Y-87325470D02*
G75*
G03*
X157085800Y-89407561I1079837J-1041130D01*
G01*
X159244408Y-86694265D02*
G75*
G02*
X159401316Y-89926600I-1078608J-1672335D01*
G01*
X157087192Y-86694265D02*
G75*
G03*
X156930284Y-89926600I1078608J-1672335D01*
G01*
X141867600Y-89926600D02*
X142023600Y-89926600D01*
X144183600Y-89926600D02*
X144339600Y-89926600D01*
X142024992Y-86694265D02*
G75*
G03*
X141868084Y-89926600I1078608J-1672335D01*
G01*
X144182208Y-86694265D02*
G75*
G02*
X144339116Y-89926600I-1078608J-1672335D01*
G01*
X142023763Y-87325470D02*
G75*
G03*
X142023600Y-89407561I1079837J-1041130D01*
G01*
X144183437Y-87325470D02*
G75*
G02*
X144183600Y-89407561I-1079837J-1041130D01*
G01*
X129324600Y-89926600D02*
X129480600Y-89926600D01*
X127008600Y-89926600D02*
X127164600Y-89926600D01*
X129324437Y-87325470D02*
G75*
G02*
X129324600Y-89407561I-1079837J-1041130D01*
G01*
X127164763Y-87325470D02*
G75*
G03*
X127164600Y-89407561I1079837J-1041130D01*
G01*
X129323208Y-86694265D02*
G75*
G02*
X129480116Y-89926600I-1078608J-1672335D01*
G01*
X127165992Y-86694265D02*
G75*
G03*
X127009084Y-89926600I1078608J-1672335D01*
G01*
X114694200Y-89926600D02*
X114850200Y-89926600D01*
X112378200Y-89926600D02*
X112534200Y-89926600D01*
X114694037Y-87325470D02*
G75*
G02*
X114694200Y-89407561I-1079837J-1041130D01*
G01*
X112534363Y-87325470D02*
G75*
G03*
X112534200Y-89407561I1079837J-1041130D01*
G01*
X114692808Y-86694265D02*
G75*
G02*
X114849716Y-89926600I-1078608J-1672335D01*
G01*
X112535592Y-86694265D02*
G75*
G03*
X112378684Y-89926600I1078608J-1672335D01*
G01*
X95365400Y-97558300D02*
X88425400Y-97558300D01*
X88425400Y-97558300D02*
X88425400Y-113758300D01*
X88425400Y-113758300D02*
X95365400Y-113758300D01*
X95365400Y-113758300D02*
X95365400Y-97558300D01*
X91895400Y-104908300D02*
X91895400Y-106408300D01*
X89895400Y-107258300D02*
X89895400Y-104058300D01*
X93895400Y-104058300D02*
X93895400Y-107258300D01*
X110097400Y-97558300D02*
X103157400Y-97558300D01*
X103157400Y-97558300D02*
X103157400Y-113758300D01*
X103157400Y-113758300D02*
X110097400Y-113758300D01*
X110097400Y-113758300D02*
X110097400Y-97558300D01*
X106627400Y-104908300D02*
X106627400Y-106408300D01*
X104627400Y-107258300D02*
X104627400Y-104058300D01*
X108627400Y-104058300D02*
X108627400Y-107258300D01*
X123054600Y-104058300D02*
X123054600Y-107258300D01*
X119054600Y-107258300D02*
X119054600Y-104058300D01*
X121054600Y-104908300D02*
X121054600Y-106408300D01*
X124524600Y-113758300D02*
X124524600Y-97558300D01*
X117584600Y-113758300D02*
X124524600Y-113758300D01*
X117584600Y-97558300D02*
X117584600Y-113758300D01*
X124524600Y-97558300D02*
X117584600Y-97558300D01*
X139358400Y-97558300D02*
X132418400Y-97558300D01*
X132418400Y-97558300D02*
X132418400Y-113758300D01*
X132418400Y-113758300D02*
X139358400Y-113758300D01*
X139358400Y-113758300D02*
X139358400Y-97558300D01*
X135888400Y-104908300D02*
X135888400Y-106408300D01*
X133888400Y-107258300D02*
X133888400Y-104058300D01*
X137888400Y-104058300D02*
X137888400Y-107258300D01*
X154141000Y-97558300D02*
X147201000Y-97558300D01*
X147201000Y-97558300D02*
X147201000Y-113758300D01*
X147201000Y-113758300D02*
X154141000Y-113758300D01*
X154141000Y-113758300D02*
X154141000Y-97558300D01*
X150671000Y-104908300D02*
X150671000Y-106408300D01*
X148671000Y-107258300D02*
X148671000Y-104058300D01*
X152671000Y-104058300D02*
X152671000Y-107258300D01*
X148671000Y-83406400D02*
X148671000Y-80206400D01*
X152671000Y-80206400D02*
X152671000Y-83406400D01*
X150671000Y-82556400D02*
X150671000Y-81056400D01*
X147201000Y-73706400D02*
X147201000Y-89906400D01*
X154141000Y-73706400D02*
X147201000Y-73706400D01*
X154141000Y-89906400D02*
X154141000Y-73706400D01*
X147201000Y-89906400D02*
X154141000Y-89906400D01*
X133888400Y-83406400D02*
X133888400Y-80206400D01*
X137888400Y-80206400D02*
X137888400Y-83406400D01*
X135888400Y-82556400D02*
X135888400Y-81056400D01*
X132418400Y-73706400D02*
X132418400Y-89906400D01*
X139358400Y-73706400D02*
X132418400Y-73706400D01*
X139358400Y-89906400D02*
X139358400Y-73706400D01*
X132418400Y-89906400D02*
X139358400Y-89906400D01*
X86785800Y-117291000D02*
X86785800Y-120501000D01*
X86785800Y-120501000D02*
X96655800Y-120501000D01*
X96655800Y-120501000D02*
X96655800Y-117291000D01*
X88090800Y-115911000D02*
X88205800Y-115911000D01*
X88205800Y-115911000D02*
X88205800Y-116411000D01*
X88205800Y-116411000D02*
X95235800Y-116411000D01*
X95235800Y-116411000D02*
X95235800Y-115911000D01*
X95235800Y-115911000D02*
X95350800Y-115911000D01*
X109917000Y-115911000D02*
X110032000Y-115911000D01*
X109917000Y-116411000D02*
X109917000Y-115911000D01*
X102887000Y-116411000D02*
X109917000Y-116411000D01*
X102887000Y-115911000D02*
X102887000Y-116411000D01*
X102772000Y-115911000D02*
X102887000Y-115911000D01*
X111337000Y-120501000D02*
X111337000Y-117291000D01*
X101467000Y-120501000D02*
X111337000Y-120501000D01*
X101467000Y-117291000D02*
X101467000Y-120501000D01*
X124369600Y-115911000D02*
X124484600Y-115911000D01*
X124369600Y-116411000D02*
X124369600Y-115911000D01*
X117339600Y-116411000D02*
X124369600Y-116411000D01*
X117339600Y-115911000D02*
X117339600Y-116411000D01*
X117224600Y-115911000D02*
X117339600Y-115911000D01*
X125789600Y-120501000D02*
X125789600Y-117291000D01*
X115919600Y-120501000D02*
X125789600Y-120501000D01*
X115919600Y-117291000D02*
X115919600Y-120501000D01*
X139152400Y-115911000D02*
X139267400Y-115911000D01*
X139152400Y-116411000D02*
X139152400Y-115911000D01*
X132122400Y-116411000D02*
X139152400Y-116411000D01*
X132122400Y-115911000D02*
X132122400Y-116411000D01*
X132007400Y-115911000D02*
X132122400Y-115911000D01*
X140572400Y-120501000D02*
X140572400Y-117291000D01*
X130702400Y-120501000D02*
X140572400Y-120501000D01*
X130702400Y-117291000D02*
X130702400Y-120501000D01*
X154011400Y-115911000D02*
X154126400Y-115911000D01*
X154011400Y-116411000D02*
X154011400Y-115911000D01*
X146981400Y-116411000D02*
X154011400Y-116411000D01*
X146981400Y-115911000D02*
X146981400Y-116411000D01*
X146866400Y-115911000D02*
X146981400Y-115911000D01*
X155431400Y-120501000D02*
X155431400Y-117291000D01*
X145561400Y-120501000D02*
X155431400Y-120501000D01*
X145561400Y-117291000D02*
X145561400Y-120501000D01*
X141052200Y-67265400D02*
X141052200Y-64055400D01*
X141052200Y-64055400D02*
X131182200Y-64055400D01*
X131182200Y-64055400D02*
X131182200Y-67265400D01*
X139747200Y-68645400D02*
X139632200Y-68645400D01*
X139632200Y-68645400D02*
X139632200Y-68145400D01*
X139632200Y-68145400D02*
X132602200Y-68145400D01*
X132602200Y-68145400D02*
X132602200Y-68645400D01*
X132602200Y-68645400D02*
X132487200Y-68645400D01*
X117768600Y-68645400D02*
X117653600Y-68645400D01*
X117768600Y-68145400D02*
X117768600Y-68645400D01*
X124798600Y-68145400D02*
X117768600Y-68145400D01*
X124798600Y-68645400D02*
X124798600Y-68145400D01*
X124913600Y-68645400D02*
X124798600Y-68645400D01*
X116348600Y-64055400D02*
X116348600Y-67265400D01*
X126218600Y-64055400D02*
X116348600Y-64055400D01*
X126218600Y-67265400D02*
X126218600Y-64055400D01*
X89895400Y-83406400D02*
X89895400Y-80206400D01*
X93895400Y-80206400D02*
X93895400Y-83406400D01*
X91895400Y-82556400D02*
X91895400Y-81056400D01*
X88425400Y-73706400D02*
X88425400Y-89906400D01*
X95365400Y-73706400D02*
X88425400Y-73706400D01*
X95365400Y-89906400D02*
X95365400Y-73706400D01*
X88425400Y-89906400D02*
X95365400Y-89906400D01*
X88558600Y-68645400D02*
X88443600Y-68645400D01*
X88558600Y-68145400D02*
X88558600Y-68645400D01*
X95588600Y-68145400D02*
X88558600Y-68145400D01*
X95588600Y-68645400D02*
X95588600Y-68145400D01*
X95703600Y-68645400D02*
X95588600Y-68645400D01*
X87138600Y-64055400D02*
X87138600Y-67265400D01*
X97008600Y-64055400D02*
X87138600Y-64055400D01*
X97008600Y-67265400D02*
X97008600Y-64055400D01*
X172525400Y-74686600D02*
X172681400Y-74686600D01*
X174841400Y-74686600D02*
X174997400Y-74686600D01*
X172682792Y-71454265D02*
G75*
G03*
X172525884Y-74686600I1078608J-1672335D01*
G01*
X174840008Y-71454265D02*
G75*
G02*
X174996916Y-74686600I-1078608J-1672335D01*
G01*
X172681563Y-72085470D02*
G75*
G03*
X172681400Y-74167561I1079837J-1041130D01*
G01*
X174841237Y-72085470D02*
G75*
G02*
X174841400Y-74167561I-1079837J-1041130D01*
G01*
X177540400Y-77561200D02*
X179380400Y-77561200D01*
X179380400Y-77561200D02*
X179380400Y-73721200D01*
X179380400Y-73721200D02*
X177540400Y-73721200D01*
X177540400Y-73721200D02*
X177540400Y-77561200D01*
X178460400Y-78511200D02*
X178460400Y-77561200D01*
X178460400Y-72771200D02*
X178460400Y-73721200D01*
X28524800Y-125014400D02*
X31324800Y-125014400D01*
X35324800Y-125014400D02*
X38124800Y-125014400D01*
X35324800Y-102514400D02*
X38124800Y-102514400D01*
X38124800Y-102514400D02*
X38124800Y-125014400D01*
X28524800Y-102514400D02*
X28524800Y-125014400D01*
X28524800Y-102514400D02*
X31324800Y-102514400D01*
D10*
X203152380Y-81460876D02*
X203152380Y-82032304D01*
X203152380Y-81746590D02*
X202152380Y-81746590D01*
X202295238Y-81841828D01*
X202390476Y-81937066D01*
X202438095Y-82032304D01*
X203152380Y-80508495D02*
X203152380Y-81079923D01*
X203152380Y-80794209D02*
X202152380Y-80794209D01*
X202295238Y-80889447D01*
X202390476Y-80984685D01*
X202438095Y-81079923D01*
X203152380Y-80079923D02*
X202152380Y-80079923D01*
X203152380Y-79508495D02*
X202580952Y-79937066D01*
X202152380Y-79508495D02*
X202723809Y-80079923D01*
X218392380Y-81460876D02*
X218392380Y-82032304D01*
X218392380Y-81746590D02*
X217392380Y-81746590D01*
X217535238Y-81841828D01*
X217630476Y-81937066D01*
X217678095Y-82032304D01*
X218392380Y-80508495D02*
X218392380Y-81079923D01*
X218392380Y-80794209D02*
X217392380Y-80794209D01*
X217535238Y-80889447D01*
X217630476Y-80984685D01*
X217678095Y-81079923D01*
X218392380Y-80079923D02*
X217392380Y-80079923D01*
X218392380Y-79508495D02*
X217820952Y-79937066D01*
X217392380Y-79508495D02*
X217963809Y-80079923D01*
X233632380Y-81460876D02*
X233632380Y-82032304D01*
X233632380Y-81746590D02*
X232632380Y-81746590D01*
X232775238Y-81841828D01*
X232870476Y-81937066D01*
X232918095Y-82032304D01*
X233632380Y-80508495D02*
X233632380Y-81079923D01*
X233632380Y-80794209D02*
X232632380Y-80794209D01*
X232775238Y-80889447D01*
X232870476Y-80984685D01*
X232918095Y-81079923D01*
X233632380Y-80079923D02*
X232632380Y-80079923D01*
X233632380Y-79508495D02*
X233060952Y-79937066D01*
X232632380Y-79508495D02*
X233203809Y-80079923D01*
X233512380Y-107370476D02*
X233512380Y-107941904D01*
X233512380Y-107656190D02*
X232512380Y-107656190D01*
X232655238Y-107751428D01*
X232750476Y-107846666D01*
X232798095Y-107941904D01*
X233512380Y-106418095D02*
X233512380Y-106989523D01*
X233512380Y-106703809D02*
X232512380Y-106703809D01*
X232655238Y-106799047D01*
X232750476Y-106894285D01*
X232798095Y-106989523D01*
X233512380Y-105989523D02*
X232512380Y-105989523D01*
X233512380Y-105418095D02*
X232940952Y-105846666D01*
X232512380Y-105418095D02*
X233083809Y-105989523D01*
X218272380Y-107370476D02*
X218272380Y-107941904D01*
X218272380Y-107656190D02*
X217272380Y-107656190D01*
X217415238Y-107751428D01*
X217510476Y-107846666D01*
X217558095Y-107941904D01*
X218272380Y-106418095D02*
X218272380Y-106989523D01*
X218272380Y-106703809D02*
X217272380Y-106703809D01*
X217415238Y-106799047D01*
X217510476Y-106894285D01*
X217558095Y-106989523D01*
X218272380Y-105989523D02*
X217272380Y-105989523D01*
X218272380Y-105418095D02*
X217700952Y-105846666D01*
X217272380Y-105418095D02*
X217843809Y-105989523D01*
X203032380Y-107370476D02*
X203032380Y-107941904D01*
X203032380Y-107656190D02*
X202032380Y-107656190D01*
X202175238Y-107751428D01*
X202270476Y-107846666D01*
X202318095Y-107941904D01*
X203032380Y-106418095D02*
X203032380Y-106989523D01*
X203032380Y-106703809D02*
X202032380Y-106703809D01*
X202175238Y-106799047D01*
X202270476Y-106894285D01*
X202318095Y-106989523D01*
X203032380Y-105989523D02*
X202032380Y-105989523D01*
X203032380Y-105418095D02*
X202460952Y-105846666D01*
X202032380Y-105418095D02*
X202603809Y-105989523D01*
X196476666Y-69445238D02*
X196333809Y-69397619D01*
X196095714Y-69397619D01*
X196000476Y-69445238D01*
X195952857Y-69492857D01*
X195905238Y-69588095D01*
X195905238Y-69683333D01*
X195952857Y-69778571D01*
X196000476Y-69826190D01*
X196095714Y-69873809D01*
X196286190Y-69921428D01*
X196381428Y-69969047D01*
X196429047Y-70016666D01*
X196476666Y-70111904D01*
X196476666Y-70207142D01*
X196429047Y-70302380D01*
X196381428Y-70350000D01*
X196286190Y-70397619D01*
X196048095Y-70397619D01*
X195905238Y-70350000D01*
X195476666Y-69397619D02*
X195476666Y-70397619D01*
X195095714Y-70397619D01*
X195000476Y-70350000D01*
X194952857Y-70302380D01*
X194905238Y-70207142D01*
X194905238Y-70064285D01*
X194952857Y-69969047D01*
X195000476Y-69921428D01*
X195095714Y-69873809D01*
X195476666Y-69873809D01*
X194524285Y-69683333D02*
X194048095Y-69683333D01*
X194619523Y-69397619D02*
X194286190Y-70397619D01*
X193952857Y-69397619D01*
X193048095Y-69397619D02*
X193381428Y-69873809D01*
X193619523Y-69397619D02*
X193619523Y-70397619D01*
X193238571Y-70397619D01*
X193143333Y-70350000D01*
X193095714Y-70302380D01*
X193048095Y-70207142D01*
X193048095Y-70064285D01*
X193095714Y-69969047D01*
X193143333Y-69921428D01*
X193238571Y-69873809D01*
X193619523Y-69873809D01*
X192619523Y-69921428D02*
X192286190Y-69921428D01*
X192143333Y-69397619D02*
X192619523Y-69397619D01*
X192619523Y-70397619D01*
X192143333Y-70397619D01*
X210446666Y-69445238D02*
X210303809Y-69397619D01*
X210065714Y-69397619D01*
X209970476Y-69445238D01*
X209922857Y-69492857D01*
X209875238Y-69588095D01*
X209875238Y-69683333D01*
X209922857Y-69778571D01*
X209970476Y-69826190D01*
X210065714Y-69873809D01*
X210256190Y-69921428D01*
X210351428Y-69969047D01*
X210399047Y-70016666D01*
X210446666Y-70111904D01*
X210446666Y-70207142D01*
X210399047Y-70302380D01*
X210351428Y-70350000D01*
X210256190Y-70397619D01*
X210018095Y-70397619D01*
X209875238Y-70350000D01*
X209446666Y-69397619D02*
X209446666Y-70397619D01*
X209065714Y-70397619D01*
X208970476Y-70350000D01*
X208922857Y-70302380D01*
X208875238Y-70207142D01*
X208875238Y-70064285D01*
X208922857Y-69969047D01*
X208970476Y-69921428D01*
X209065714Y-69873809D01*
X209446666Y-69873809D01*
X208494285Y-69683333D02*
X208018095Y-69683333D01*
X208589523Y-69397619D02*
X208256190Y-70397619D01*
X207922857Y-69397619D01*
X207018095Y-69397619D02*
X207351428Y-69873809D01*
X207589523Y-69397619D02*
X207589523Y-70397619D01*
X207208571Y-70397619D01*
X207113333Y-70350000D01*
X207065714Y-70302380D01*
X207018095Y-70207142D01*
X207018095Y-70064285D01*
X207065714Y-69969047D01*
X207113333Y-69921428D01*
X207208571Y-69873809D01*
X207589523Y-69873809D01*
X206589523Y-69921428D02*
X206256190Y-69921428D01*
X206113333Y-69397619D02*
X206589523Y-69397619D01*
X206589523Y-70397619D01*
X206113333Y-70397619D01*
X226186666Y-69445238D02*
X226043809Y-69397619D01*
X225805714Y-69397619D01*
X225710476Y-69445238D01*
X225662857Y-69492857D01*
X225615238Y-69588095D01*
X225615238Y-69683333D01*
X225662857Y-69778571D01*
X225710476Y-69826190D01*
X225805714Y-69873809D01*
X225996190Y-69921428D01*
X226091428Y-69969047D01*
X226139047Y-70016666D01*
X226186666Y-70111904D01*
X226186666Y-70207142D01*
X226139047Y-70302380D01*
X226091428Y-70350000D01*
X225996190Y-70397619D01*
X225758095Y-70397619D01*
X225615238Y-70350000D01*
X225186666Y-69397619D02*
X225186666Y-70397619D01*
X224805714Y-70397619D01*
X224710476Y-70350000D01*
X224662857Y-70302380D01*
X224615238Y-70207142D01*
X224615238Y-70064285D01*
X224662857Y-69969047D01*
X224710476Y-69921428D01*
X224805714Y-69873809D01*
X225186666Y-69873809D01*
X224234285Y-69683333D02*
X223758095Y-69683333D01*
X224329523Y-69397619D02*
X223996190Y-70397619D01*
X223662857Y-69397619D01*
X222758095Y-69397619D02*
X223091428Y-69873809D01*
X223329523Y-69397619D02*
X223329523Y-70397619D01*
X222948571Y-70397619D01*
X222853333Y-70350000D01*
X222805714Y-70302380D01*
X222758095Y-70207142D01*
X222758095Y-70064285D01*
X222805714Y-69969047D01*
X222853333Y-69921428D01*
X222948571Y-69873809D01*
X223329523Y-69873809D01*
X222329523Y-69921428D02*
X221996190Y-69921428D01*
X221853333Y-69397619D02*
X222329523Y-69397619D01*
X222329523Y-70397619D01*
X221853333Y-70397619D01*
X221353333Y-115974761D02*
X221496190Y-116022380D01*
X221734285Y-116022380D01*
X221829523Y-115974761D01*
X221877142Y-115927142D01*
X221924761Y-115831904D01*
X221924761Y-115736666D01*
X221877142Y-115641428D01*
X221829523Y-115593809D01*
X221734285Y-115546190D01*
X221543809Y-115498571D01*
X221448571Y-115450952D01*
X221400952Y-115403333D01*
X221353333Y-115308095D01*
X221353333Y-115212857D01*
X221400952Y-115117619D01*
X221448571Y-115070000D01*
X221543809Y-115022380D01*
X221781904Y-115022380D01*
X221924761Y-115070000D01*
X222353333Y-116022380D02*
X222353333Y-115022380D01*
X222734285Y-115022380D01*
X222829523Y-115070000D01*
X222877142Y-115117619D01*
X222924761Y-115212857D01*
X222924761Y-115355714D01*
X222877142Y-115450952D01*
X222829523Y-115498571D01*
X222734285Y-115546190D01*
X222353333Y-115546190D01*
X223305714Y-115736666D02*
X223781904Y-115736666D01*
X223210476Y-116022380D02*
X223543809Y-115022380D01*
X223877142Y-116022380D01*
X224781904Y-116022380D02*
X224448571Y-115546190D01*
X224210476Y-116022380D02*
X224210476Y-115022380D01*
X224591428Y-115022380D01*
X224686666Y-115070000D01*
X224734285Y-115117619D01*
X224781904Y-115212857D01*
X224781904Y-115355714D01*
X224734285Y-115450952D01*
X224686666Y-115498571D01*
X224591428Y-115546190D01*
X224210476Y-115546190D01*
X225210476Y-115498571D02*
X225543809Y-115498571D01*
X225686666Y-116022380D02*
X225210476Y-116022380D01*
X225210476Y-115022380D01*
X225686666Y-115022380D01*
X206113333Y-115974761D02*
X206256190Y-116022380D01*
X206494285Y-116022380D01*
X206589523Y-115974761D01*
X206637142Y-115927142D01*
X206684761Y-115831904D01*
X206684761Y-115736666D01*
X206637142Y-115641428D01*
X206589523Y-115593809D01*
X206494285Y-115546190D01*
X206303809Y-115498571D01*
X206208571Y-115450952D01*
X206160952Y-115403333D01*
X206113333Y-115308095D01*
X206113333Y-115212857D01*
X206160952Y-115117619D01*
X206208571Y-115070000D01*
X206303809Y-115022380D01*
X206541904Y-115022380D01*
X206684761Y-115070000D01*
X207113333Y-116022380D02*
X207113333Y-115022380D01*
X207494285Y-115022380D01*
X207589523Y-115070000D01*
X207637142Y-115117619D01*
X207684761Y-115212857D01*
X207684761Y-115355714D01*
X207637142Y-115450952D01*
X207589523Y-115498571D01*
X207494285Y-115546190D01*
X207113333Y-115546190D01*
X208065714Y-115736666D02*
X208541904Y-115736666D01*
X207970476Y-116022380D02*
X208303809Y-115022380D01*
X208637142Y-116022380D01*
X209541904Y-116022380D02*
X209208571Y-115546190D01*
X208970476Y-116022380D02*
X208970476Y-115022380D01*
X209351428Y-115022380D01*
X209446666Y-115070000D01*
X209494285Y-115117619D01*
X209541904Y-115212857D01*
X209541904Y-115355714D01*
X209494285Y-115450952D01*
X209446666Y-115498571D01*
X209351428Y-115546190D01*
X208970476Y-115546190D01*
X209970476Y-115498571D02*
X210303809Y-115498571D01*
X210446666Y-116022380D02*
X209970476Y-116022380D01*
X209970476Y-115022380D01*
X210446666Y-115022380D01*
X190873333Y-115974761D02*
X191016190Y-116022380D01*
X191254285Y-116022380D01*
X191349523Y-115974761D01*
X191397142Y-115927142D01*
X191444761Y-115831904D01*
X191444761Y-115736666D01*
X191397142Y-115641428D01*
X191349523Y-115593809D01*
X191254285Y-115546190D01*
X191063809Y-115498571D01*
X190968571Y-115450952D01*
X190920952Y-115403333D01*
X190873333Y-115308095D01*
X190873333Y-115212857D01*
X190920952Y-115117619D01*
X190968571Y-115070000D01*
X191063809Y-115022380D01*
X191301904Y-115022380D01*
X191444761Y-115070000D01*
X191873333Y-116022380D02*
X191873333Y-115022380D01*
X192254285Y-115022380D01*
X192349523Y-115070000D01*
X192397142Y-115117619D01*
X192444761Y-115212857D01*
X192444761Y-115355714D01*
X192397142Y-115450952D01*
X192349523Y-115498571D01*
X192254285Y-115546190D01*
X191873333Y-115546190D01*
X192825714Y-115736666D02*
X193301904Y-115736666D01*
X192730476Y-116022380D02*
X193063809Y-115022380D01*
X193397142Y-116022380D01*
X194301904Y-116022380D02*
X193968571Y-115546190D01*
X193730476Y-116022380D02*
X193730476Y-115022380D01*
X194111428Y-115022380D01*
X194206666Y-115070000D01*
X194254285Y-115117619D01*
X194301904Y-115212857D01*
X194301904Y-115355714D01*
X194254285Y-115450952D01*
X194206666Y-115498571D01*
X194111428Y-115546190D01*
X193730476Y-115546190D01*
X194730476Y-115498571D02*
X195063809Y-115498571D01*
X195206666Y-116022380D02*
X194730476Y-116022380D01*
X194730476Y-115022380D01*
X195206666Y-115022380D01*
X198244761Y-83973066D02*
X198292380Y-83830209D01*
X198292380Y-83592114D01*
X198244761Y-83496876D01*
X198197142Y-83449257D01*
X198101904Y-83401638D01*
X198006666Y-83401638D01*
X197911428Y-83449257D01*
X197863809Y-83496876D01*
X197816190Y-83592114D01*
X197768571Y-83782590D01*
X197720952Y-83877828D01*
X197673333Y-83925447D01*
X197578095Y-83973066D01*
X197482857Y-83973066D01*
X197387619Y-83925447D01*
X197340000Y-83877828D01*
X197292380Y-83782590D01*
X197292380Y-83544495D01*
X197340000Y-83401638D01*
X198292380Y-82973066D02*
X197292380Y-82973066D01*
X197292380Y-82592114D01*
X197340000Y-82496876D01*
X197387619Y-82449257D01*
X197482857Y-82401638D01*
X197625714Y-82401638D01*
X197720952Y-82449257D01*
X197768571Y-82496876D01*
X197816190Y-82592114D01*
X197816190Y-82973066D01*
X198006666Y-82020685D02*
X198006666Y-81544495D01*
X198292380Y-82115923D02*
X197292380Y-81782590D01*
X198292380Y-81449257D01*
X198292380Y-80544495D02*
X197816190Y-80877828D01*
X198292380Y-81115923D02*
X197292380Y-81115923D01*
X197292380Y-80734971D01*
X197340000Y-80639733D01*
X197387619Y-80592114D01*
X197482857Y-80544495D01*
X197625714Y-80544495D01*
X197720952Y-80592114D01*
X197768571Y-80639733D01*
X197816190Y-80734971D01*
X197816190Y-81115923D01*
X197768571Y-80115923D02*
X197768571Y-79782590D01*
X198292380Y-79639733D02*
X198292380Y-80115923D01*
X197292380Y-80115923D01*
X197292380Y-79639733D01*
X213027361Y-83973066D02*
X213074980Y-83830209D01*
X213074980Y-83592114D01*
X213027361Y-83496876D01*
X212979742Y-83449257D01*
X212884504Y-83401638D01*
X212789266Y-83401638D01*
X212694028Y-83449257D01*
X212646409Y-83496876D01*
X212598790Y-83592114D01*
X212551171Y-83782590D01*
X212503552Y-83877828D01*
X212455933Y-83925447D01*
X212360695Y-83973066D01*
X212265457Y-83973066D01*
X212170219Y-83925447D01*
X212122600Y-83877828D01*
X212074980Y-83782590D01*
X212074980Y-83544495D01*
X212122600Y-83401638D01*
X213074980Y-82973066D02*
X212074980Y-82973066D01*
X212074980Y-82592114D01*
X212122600Y-82496876D01*
X212170219Y-82449257D01*
X212265457Y-82401638D01*
X212408314Y-82401638D01*
X212503552Y-82449257D01*
X212551171Y-82496876D01*
X212598790Y-82592114D01*
X212598790Y-82973066D01*
X212789266Y-82020685D02*
X212789266Y-81544495D01*
X213074980Y-82115923D02*
X212074980Y-81782590D01*
X213074980Y-81449257D01*
X213074980Y-80544495D02*
X212598790Y-80877828D01*
X213074980Y-81115923D02*
X212074980Y-81115923D01*
X212074980Y-80734971D01*
X212122600Y-80639733D01*
X212170219Y-80592114D01*
X212265457Y-80544495D01*
X212408314Y-80544495D01*
X212503552Y-80592114D01*
X212551171Y-80639733D01*
X212598790Y-80734971D01*
X212598790Y-81115923D01*
X212551171Y-80115923D02*
X212551171Y-79782590D01*
X213074980Y-79639733D02*
X213074980Y-80115923D01*
X212074980Y-80115923D01*
X212074980Y-79639733D01*
X228224761Y-83973066D02*
X228272380Y-83830209D01*
X228272380Y-83592114D01*
X228224761Y-83496876D01*
X228177142Y-83449257D01*
X228081904Y-83401638D01*
X227986666Y-83401638D01*
X227891428Y-83449257D01*
X227843809Y-83496876D01*
X227796190Y-83592114D01*
X227748571Y-83782590D01*
X227700952Y-83877828D01*
X227653333Y-83925447D01*
X227558095Y-83973066D01*
X227462857Y-83973066D01*
X227367619Y-83925447D01*
X227320000Y-83877828D01*
X227272380Y-83782590D01*
X227272380Y-83544495D01*
X227320000Y-83401638D01*
X228272380Y-82973066D02*
X227272380Y-82973066D01*
X227272380Y-82592114D01*
X227320000Y-82496876D01*
X227367619Y-82449257D01*
X227462857Y-82401638D01*
X227605714Y-82401638D01*
X227700952Y-82449257D01*
X227748571Y-82496876D01*
X227796190Y-82592114D01*
X227796190Y-82973066D01*
X227986666Y-82020685D02*
X227986666Y-81544495D01*
X228272380Y-82115923D02*
X227272380Y-81782590D01*
X228272380Y-81449257D01*
X228272380Y-80544495D02*
X227796190Y-80877828D01*
X228272380Y-81115923D02*
X227272380Y-81115923D01*
X227272380Y-80734971D01*
X227320000Y-80639733D01*
X227367619Y-80592114D01*
X227462857Y-80544495D01*
X227605714Y-80544495D01*
X227700952Y-80592114D01*
X227748571Y-80639733D01*
X227796190Y-80734971D01*
X227796190Y-81115923D01*
X227748571Y-80115923D02*
X227748571Y-79782590D01*
X228272380Y-79639733D02*
X228272380Y-80115923D01*
X227272380Y-80115923D01*
X227272380Y-79639733D01*
X229004761Y-107893066D02*
X229052380Y-107750209D01*
X229052380Y-107512114D01*
X229004761Y-107416876D01*
X228957142Y-107369257D01*
X228861904Y-107321638D01*
X228766666Y-107321638D01*
X228671428Y-107369257D01*
X228623809Y-107416876D01*
X228576190Y-107512114D01*
X228528571Y-107702590D01*
X228480952Y-107797828D01*
X228433333Y-107845447D01*
X228338095Y-107893066D01*
X228242857Y-107893066D01*
X228147619Y-107845447D01*
X228100000Y-107797828D01*
X228052380Y-107702590D01*
X228052380Y-107464495D01*
X228100000Y-107321638D01*
X229052380Y-106893066D02*
X228052380Y-106893066D01*
X228052380Y-106512114D01*
X228100000Y-106416876D01*
X228147619Y-106369257D01*
X228242857Y-106321638D01*
X228385714Y-106321638D01*
X228480952Y-106369257D01*
X228528571Y-106416876D01*
X228576190Y-106512114D01*
X228576190Y-106893066D01*
X228766666Y-105940685D02*
X228766666Y-105464495D01*
X229052380Y-106035923D02*
X228052380Y-105702590D01*
X229052380Y-105369257D01*
X229052380Y-104464495D02*
X228576190Y-104797828D01*
X229052380Y-105035923D02*
X228052380Y-105035923D01*
X228052380Y-104654971D01*
X228100000Y-104559733D01*
X228147619Y-104512114D01*
X228242857Y-104464495D01*
X228385714Y-104464495D01*
X228480952Y-104512114D01*
X228528571Y-104559733D01*
X228576190Y-104654971D01*
X228576190Y-105035923D01*
X228528571Y-104035923D02*
X228528571Y-103702590D01*
X229052380Y-103559733D02*
X229052380Y-104035923D01*
X228052380Y-104035923D01*
X228052380Y-103559733D01*
X214307361Y-107893066D02*
X214354980Y-107750209D01*
X214354980Y-107512114D01*
X214307361Y-107416876D01*
X214259742Y-107369257D01*
X214164504Y-107321638D01*
X214069266Y-107321638D01*
X213974028Y-107369257D01*
X213926409Y-107416876D01*
X213878790Y-107512114D01*
X213831171Y-107702590D01*
X213783552Y-107797828D01*
X213735933Y-107845447D01*
X213640695Y-107893066D01*
X213545457Y-107893066D01*
X213450219Y-107845447D01*
X213402600Y-107797828D01*
X213354980Y-107702590D01*
X213354980Y-107464495D01*
X213402600Y-107321638D01*
X214354980Y-106893066D02*
X213354980Y-106893066D01*
X213354980Y-106512114D01*
X213402600Y-106416876D01*
X213450219Y-106369257D01*
X213545457Y-106321638D01*
X213688314Y-106321638D01*
X213783552Y-106369257D01*
X213831171Y-106416876D01*
X213878790Y-106512114D01*
X213878790Y-106893066D01*
X214069266Y-105940685D02*
X214069266Y-105464495D01*
X214354980Y-106035923D02*
X213354980Y-105702590D01*
X214354980Y-105369257D01*
X214354980Y-104464495D02*
X213878790Y-104797828D01*
X214354980Y-105035923D02*
X213354980Y-105035923D01*
X213354980Y-104654971D01*
X213402600Y-104559733D01*
X213450219Y-104512114D01*
X213545457Y-104464495D01*
X213688314Y-104464495D01*
X213783552Y-104512114D01*
X213831171Y-104559733D01*
X213878790Y-104654971D01*
X213878790Y-105035923D01*
X213831171Y-104035923D02*
X213831171Y-103702590D01*
X214354980Y-103559733D02*
X214354980Y-104035923D01*
X213354980Y-104035923D01*
X213354980Y-103559733D01*
X199024761Y-108846666D02*
X199072380Y-108703809D01*
X199072380Y-108465714D01*
X199024761Y-108370476D01*
X198977142Y-108322857D01*
X198881904Y-108275238D01*
X198786666Y-108275238D01*
X198691428Y-108322857D01*
X198643809Y-108370476D01*
X198596190Y-108465714D01*
X198548571Y-108656190D01*
X198500952Y-108751428D01*
X198453333Y-108799047D01*
X198358095Y-108846666D01*
X198262857Y-108846666D01*
X198167619Y-108799047D01*
X198120000Y-108751428D01*
X198072380Y-108656190D01*
X198072380Y-108418095D01*
X198120000Y-108275238D01*
X199072380Y-107846666D02*
X198072380Y-107846666D01*
X198072380Y-107465714D01*
X198120000Y-107370476D01*
X198167619Y-107322857D01*
X198262857Y-107275238D01*
X198405714Y-107275238D01*
X198500952Y-107322857D01*
X198548571Y-107370476D01*
X198596190Y-107465714D01*
X198596190Y-107846666D01*
X198786666Y-106894285D02*
X198786666Y-106418095D01*
X199072380Y-106989523D02*
X198072380Y-106656190D01*
X199072380Y-106322857D01*
X199072380Y-105418095D02*
X198596190Y-105751428D01*
X199072380Y-105989523D02*
X198072380Y-105989523D01*
X198072380Y-105608571D01*
X198120000Y-105513333D01*
X198167619Y-105465714D01*
X198262857Y-105418095D01*
X198405714Y-105418095D01*
X198500952Y-105465714D01*
X198548571Y-105513333D01*
X198596190Y-105608571D01*
X198596190Y-105989523D01*
X198548571Y-104989523D02*
X198548571Y-104656190D01*
X199072380Y-104513333D02*
X199072380Y-104989523D01*
X198072380Y-104989523D01*
X198072380Y-104513333D01*
X60449365Y-92674700D02*
X60449365Y-91674700D01*
X60449365Y-92150891D02*
X61020794Y-92150891D01*
X61020794Y-92674700D02*
X61020794Y-91674700D01*
X61354127Y-91674700D02*
X61687460Y-92674700D01*
X62020794Y-91674700D01*
X63116032Y-92674700D02*
X63116032Y-92008034D01*
X63116032Y-91674700D02*
X63068413Y-91722320D01*
X63116032Y-91769939D01*
X63163651Y-91722320D01*
X63116032Y-91674700D01*
X63116032Y-91769939D01*
X63592222Y-92008034D02*
X63592222Y-92674700D01*
X63592222Y-92103272D02*
X63639841Y-92055653D01*
X63735080Y-92008034D01*
X63877937Y-92008034D01*
X63973175Y-92055653D01*
X64020794Y-92150891D01*
X64020794Y-92674700D01*
X101468180Y-107446676D02*
X101468180Y-108018104D01*
X101468180Y-107732390D02*
X100468180Y-107732390D01*
X100611038Y-107827628D01*
X100706276Y-107922866D01*
X100753895Y-108018104D01*
X101468180Y-106494295D02*
X101468180Y-107065723D01*
X101468180Y-106780009D02*
X100468180Y-106780009D01*
X100611038Y-106875247D01*
X100706276Y-106970485D01*
X100753895Y-107065723D01*
X101468180Y-106065723D02*
X100468180Y-106065723D01*
X101468180Y-105494295D02*
X100896752Y-105922866D01*
X100468180Y-105494295D02*
X101039609Y-106065723D01*
X116047780Y-107294276D02*
X116047780Y-107865704D01*
X116047780Y-107579990D02*
X115047780Y-107579990D01*
X115190638Y-107675228D01*
X115285876Y-107770466D01*
X115333495Y-107865704D01*
X116047780Y-106341895D02*
X116047780Y-106913323D01*
X116047780Y-106627609D02*
X115047780Y-106627609D01*
X115190638Y-106722847D01*
X115285876Y-106818085D01*
X115333495Y-106913323D01*
X116047780Y-105913323D02*
X115047780Y-105913323D01*
X116047780Y-105341895D02*
X115476352Y-105770466D01*
X115047780Y-105341895D02*
X115619209Y-105913323D01*
X130576580Y-107345076D02*
X130576580Y-107916504D01*
X130576580Y-107630790D02*
X129576580Y-107630790D01*
X129719438Y-107726028D01*
X129814676Y-107821266D01*
X129862295Y-107916504D01*
X130576580Y-106392695D02*
X130576580Y-106964123D01*
X130576580Y-106678409D02*
X129576580Y-106678409D01*
X129719438Y-106773647D01*
X129814676Y-106868885D01*
X129862295Y-106964123D01*
X130576580Y-105964123D02*
X129576580Y-105964123D01*
X130576580Y-105392695D02*
X130005152Y-105821266D01*
X129576580Y-105392695D02*
X130148009Y-105964123D01*
X145740380Y-107573676D02*
X145740380Y-108145104D01*
X145740380Y-107859390D02*
X144740380Y-107859390D01*
X144883238Y-107954628D01*
X144978476Y-108049866D01*
X145026095Y-108145104D01*
X145740380Y-106621295D02*
X145740380Y-107192723D01*
X145740380Y-106907009D02*
X144740380Y-106907009D01*
X144883238Y-107002247D01*
X144978476Y-107097485D01*
X145026095Y-107192723D01*
X145740380Y-106192723D02*
X144740380Y-106192723D01*
X145740380Y-105621295D02*
X145168952Y-106049866D01*
X144740380Y-105621295D02*
X145311809Y-106192723D01*
X160523180Y-107446676D02*
X160523180Y-108018104D01*
X160523180Y-107732390D02*
X159523180Y-107732390D01*
X159666038Y-107827628D01*
X159761276Y-107922866D01*
X159808895Y-108018104D01*
X160523180Y-106494295D02*
X160523180Y-107065723D01*
X160523180Y-106780009D02*
X159523180Y-106780009D01*
X159666038Y-106875247D01*
X159761276Y-106970485D01*
X159808895Y-107065723D01*
X160523180Y-106065723D02*
X159523180Y-106065723D01*
X160523180Y-105494295D02*
X159951752Y-105922866D01*
X159523180Y-105494295D02*
X160094609Y-106065723D01*
X160599380Y-81386276D02*
X160599380Y-81957704D01*
X160599380Y-81671990D02*
X159599380Y-81671990D01*
X159742238Y-81767228D01*
X159837476Y-81862466D01*
X159885095Y-81957704D01*
X160599380Y-80433895D02*
X160599380Y-81005323D01*
X160599380Y-80719609D02*
X159599380Y-80719609D01*
X159742238Y-80814847D01*
X159837476Y-80910085D01*
X159885095Y-81005323D01*
X160599380Y-80005323D02*
X159599380Y-80005323D01*
X160599380Y-79433895D02*
X160027952Y-79862466D01*
X159599380Y-79433895D02*
X160170809Y-80005323D01*
X145435580Y-81462476D02*
X145435580Y-82033904D01*
X145435580Y-81748190D02*
X144435580Y-81748190D01*
X144578438Y-81843428D01*
X144673676Y-81938666D01*
X144721295Y-82033904D01*
X145435580Y-80510095D02*
X145435580Y-81081523D01*
X145435580Y-80795809D02*
X144435580Y-80795809D01*
X144578438Y-80891047D01*
X144673676Y-80986285D01*
X144721295Y-81081523D01*
X145435580Y-80081523D02*
X144435580Y-80081523D01*
X145435580Y-79510095D02*
X144864152Y-79938666D01*
X144435580Y-79510095D02*
X145007009Y-80081523D01*
X130601980Y-81538676D02*
X130601980Y-82110104D01*
X130601980Y-81824390D02*
X129601980Y-81824390D01*
X129744838Y-81919628D01*
X129840076Y-82014866D01*
X129887695Y-82110104D01*
X130601980Y-80586295D02*
X130601980Y-81157723D01*
X130601980Y-80872009D02*
X129601980Y-80872009D01*
X129744838Y-80967247D01*
X129840076Y-81062485D01*
X129887695Y-81157723D01*
X130601980Y-80157723D02*
X129601980Y-80157723D01*
X130601980Y-79586295D02*
X130030552Y-80014866D01*
X129601980Y-79586295D02*
X130173409Y-80157723D01*
X116200180Y-81538676D02*
X116200180Y-82110104D01*
X116200180Y-81824390D02*
X115200180Y-81824390D01*
X115343038Y-81919628D01*
X115438276Y-82014866D01*
X115485895Y-82110104D01*
X116200180Y-80586295D02*
X116200180Y-81157723D01*
X116200180Y-80872009D02*
X115200180Y-80872009D01*
X115343038Y-80967247D01*
X115438276Y-81062485D01*
X115485895Y-81157723D01*
X116200180Y-80157723D02*
X115200180Y-80157723D01*
X116200180Y-79586295D02*
X115628752Y-80014866D01*
X115200180Y-79586295D02*
X115771609Y-80157723D01*
X101442780Y-81513276D02*
X101442780Y-82084704D01*
X101442780Y-81798990D02*
X100442780Y-81798990D01*
X100585638Y-81894228D01*
X100680876Y-81989466D01*
X100728495Y-82084704D01*
X101442780Y-80560895D02*
X101442780Y-81132323D01*
X101442780Y-80846609D02*
X100442780Y-80846609D01*
X100585638Y-80941847D01*
X100680876Y-81037085D01*
X100728495Y-81132323D01*
X101442780Y-80132323D02*
X100442780Y-80132323D01*
X101442780Y-79560895D02*
X100871352Y-79989466D01*
X100442780Y-79560895D02*
X101014209Y-80132323D01*
X152050001Y-69403268D02*
X151907144Y-69355649D01*
X151859525Y-69308030D01*
X151811906Y-69212792D01*
X151811906Y-69069935D01*
X151859525Y-68974697D01*
X151907144Y-68927078D01*
X152002382Y-68879459D01*
X152383335Y-68879459D01*
X152383335Y-69879459D01*
X152050001Y-69879459D01*
X151954763Y-69831840D01*
X151907144Y-69784220D01*
X151859525Y-69688982D01*
X151859525Y-69593744D01*
X151907144Y-69498506D01*
X151954763Y-69450887D01*
X152050001Y-69403268D01*
X152383335Y-69403268D01*
X151383335Y-68879459D02*
X151383335Y-69879459D01*
X151002382Y-69879459D01*
X150907144Y-69831840D01*
X150859525Y-69784220D01*
X150811906Y-69688982D01*
X150811906Y-69546125D01*
X150859525Y-69450887D01*
X150907144Y-69403268D01*
X151002382Y-69355649D01*
X151383335Y-69355649D01*
X150430954Y-68927078D02*
X150288097Y-68879459D01*
X150050001Y-68879459D01*
X149954763Y-68927078D01*
X149907144Y-68974697D01*
X149859525Y-69069935D01*
X149859525Y-69165173D01*
X149907144Y-69260411D01*
X149954763Y-69308030D01*
X150050001Y-69355649D01*
X150240478Y-69403268D01*
X150335716Y-69450887D01*
X150383335Y-69498506D01*
X150430954Y-69593744D01*
X150430954Y-69688982D01*
X150383335Y-69784220D01*
X150335716Y-69831840D01*
X150240478Y-69879459D01*
X150002382Y-69879459D01*
X149859525Y-69831840D01*
X126236361Y-83141866D02*
X126283980Y-82999009D01*
X126283980Y-82760914D01*
X126236361Y-82665676D01*
X126188742Y-82618057D01*
X126093504Y-82570438D01*
X125998266Y-82570438D01*
X125903028Y-82618057D01*
X125855409Y-82665676D01*
X125807790Y-82760914D01*
X125760171Y-82951390D01*
X125712552Y-83046628D01*
X125664933Y-83094247D01*
X125569695Y-83141866D01*
X125474457Y-83141866D01*
X125379219Y-83094247D01*
X125331600Y-83046628D01*
X125283980Y-82951390D01*
X125283980Y-82713295D01*
X125331600Y-82570438D01*
X126283980Y-82141866D02*
X125283980Y-82141866D01*
X125283980Y-81760914D01*
X125331600Y-81665676D01*
X125379219Y-81618057D01*
X125474457Y-81570438D01*
X125617314Y-81570438D01*
X125712552Y-81618057D01*
X125760171Y-81665676D01*
X125807790Y-81760914D01*
X125807790Y-82141866D01*
X125998266Y-81189485D02*
X125998266Y-80713295D01*
X126283980Y-81284723D02*
X125283980Y-80951390D01*
X126283980Y-80618057D01*
X126283980Y-79713295D02*
X125807790Y-80046628D01*
X126283980Y-80284723D02*
X125283980Y-80284723D01*
X125283980Y-79903771D01*
X125331600Y-79808533D01*
X125379219Y-79760914D01*
X125474457Y-79713295D01*
X125617314Y-79713295D01*
X125712552Y-79760914D01*
X125760171Y-79808533D01*
X125807790Y-79903771D01*
X125807790Y-80284723D01*
X125760171Y-79284723D02*
X125760171Y-78951390D01*
X126283980Y-78808533D02*
X126283980Y-79284723D01*
X125283980Y-79284723D01*
X125283980Y-78808533D01*
X109146386Y-69165838D02*
X109003529Y-69118219D01*
X108765434Y-69118219D01*
X108670196Y-69165838D01*
X108622577Y-69213457D01*
X108574958Y-69308695D01*
X108574958Y-69403933D01*
X108622577Y-69499171D01*
X108670196Y-69546790D01*
X108765434Y-69594409D01*
X108955910Y-69642028D01*
X109051148Y-69689647D01*
X109098767Y-69737266D01*
X109146386Y-69832504D01*
X109146386Y-69927742D01*
X109098767Y-70022980D01*
X109051148Y-70070600D01*
X108955910Y-70118219D01*
X108717815Y-70118219D01*
X108574958Y-70070600D01*
X108146386Y-69118219D02*
X108146386Y-70118219D01*
X107765434Y-70118219D01*
X107670196Y-70070600D01*
X107622577Y-70022980D01*
X107574958Y-69927742D01*
X107574958Y-69784885D01*
X107622577Y-69689647D01*
X107670196Y-69642028D01*
X107765434Y-69594409D01*
X108146386Y-69594409D01*
X107194005Y-69403933D02*
X106717815Y-69403933D01*
X107289243Y-69118219D02*
X106955910Y-70118219D01*
X106622577Y-69118219D01*
X105717815Y-69118219D02*
X106051148Y-69594409D01*
X106289243Y-69118219D02*
X106289243Y-70118219D01*
X105908291Y-70118219D01*
X105813053Y-70070600D01*
X105765434Y-70022980D01*
X105717815Y-69927742D01*
X105717815Y-69784885D01*
X105765434Y-69689647D01*
X105813053Y-69642028D01*
X105908291Y-69594409D01*
X106289243Y-69594409D01*
X105289243Y-69642028D02*
X104955910Y-69642028D01*
X104813053Y-69118219D02*
X105289243Y-69118219D01*
X105289243Y-70118219D01*
X104813053Y-70118219D01*
X111936161Y-82760866D02*
X111983780Y-82618009D01*
X111983780Y-82379914D01*
X111936161Y-82284676D01*
X111888542Y-82237057D01*
X111793304Y-82189438D01*
X111698066Y-82189438D01*
X111602828Y-82237057D01*
X111555209Y-82284676D01*
X111507590Y-82379914D01*
X111459971Y-82570390D01*
X111412352Y-82665628D01*
X111364733Y-82713247D01*
X111269495Y-82760866D01*
X111174257Y-82760866D01*
X111079019Y-82713247D01*
X111031400Y-82665628D01*
X110983780Y-82570390D01*
X110983780Y-82332295D01*
X111031400Y-82189438D01*
X111983780Y-81760866D02*
X110983780Y-81760866D01*
X110983780Y-81379914D01*
X111031400Y-81284676D01*
X111079019Y-81237057D01*
X111174257Y-81189438D01*
X111317114Y-81189438D01*
X111412352Y-81237057D01*
X111459971Y-81284676D01*
X111507590Y-81379914D01*
X111507590Y-81760866D01*
X111698066Y-80808485D02*
X111698066Y-80332295D01*
X111983780Y-80903723D02*
X110983780Y-80570390D01*
X111983780Y-80237057D01*
X111983780Y-79332295D02*
X111507590Y-79665628D01*
X111983780Y-79903723D02*
X110983780Y-79903723D01*
X110983780Y-79522771D01*
X111031400Y-79427533D01*
X111079019Y-79379914D01*
X111174257Y-79332295D01*
X111317114Y-79332295D01*
X111412352Y-79379914D01*
X111459971Y-79427533D01*
X111507590Y-79522771D01*
X111507590Y-79903723D01*
X111459971Y-78903723D02*
X111459971Y-78570390D01*
X111983780Y-78427533D02*
X111983780Y-78903723D01*
X110983780Y-78903723D01*
X110983780Y-78427533D01*
X97175580Y-110268876D02*
X96175580Y-110268876D01*
X96175580Y-110030780D01*
X96223200Y-109887923D01*
X96318438Y-109792685D01*
X96413676Y-109745066D01*
X96604152Y-109697447D01*
X96747009Y-109697447D01*
X96937485Y-109745066D01*
X97032723Y-109792685D01*
X97127961Y-109887923D01*
X97175580Y-110030780D01*
X97175580Y-110268876D01*
X97175580Y-108840304D02*
X96651771Y-108840304D01*
X96556533Y-108887923D01*
X96508914Y-108983161D01*
X96508914Y-109173638D01*
X96556533Y-109268876D01*
X97127961Y-108840304D02*
X97175580Y-108935542D01*
X97175580Y-109173638D01*
X97127961Y-109268876D01*
X97032723Y-109316495D01*
X96937485Y-109316495D01*
X96842247Y-109268876D01*
X96794628Y-109173638D01*
X96794628Y-108935542D01*
X96747009Y-108840304D01*
X97127961Y-108411733D02*
X97175580Y-108316495D01*
X97175580Y-108126019D01*
X97127961Y-108030780D01*
X97032723Y-107983161D01*
X96985104Y-107983161D01*
X96889866Y-108030780D01*
X96842247Y-108126019D01*
X96842247Y-108268876D01*
X96794628Y-108364114D01*
X96699390Y-108411733D01*
X96651771Y-108411733D01*
X96556533Y-108364114D01*
X96508914Y-108268876D01*
X96508914Y-108126019D01*
X96556533Y-108030780D01*
X97175580Y-107554590D02*
X96175580Y-107554590D01*
X97175580Y-107126019D02*
X96651771Y-107126019D01*
X96556533Y-107173638D01*
X96508914Y-107268876D01*
X96508914Y-107411733D01*
X96556533Y-107506971D01*
X96604152Y-107554590D01*
X97175580Y-106649828D02*
X96175580Y-106649828D01*
X96556533Y-106649828D02*
X96508914Y-106554590D01*
X96508914Y-106364114D01*
X96556533Y-106268876D01*
X96604152Y-106221257D01*
X96699390Y-106173638D01*
X96985104Y-106173638D01*
X97080342Y-106221257D01*
X97127961Y-106268876D01*
X97175580Y-106364114D01*
X97175580Y-106554590D01*
X97127961Y-106649828D01*
X97175580Y-105602209D02*
X97127961Y-105697447D01*
X97080342Y-105745066D01*
X96985104Y-105792685D01*
X96699390Y-105792685D01*
X96604152Y-105745066D01*
X96556533Y-105697447D01*
X96508914Y-105602209D01*
X96508914Y-105459352D01*
X96556533Y-105364114D01*
X96604152Y-105316495D01*
X96699390Y-105268876D01*
X96985104Y-105268876D01*
X97080342Y-105316495D01*
X97127961Y-105364114D01*
X97175580Y-105459352D01*
X97175580Y-105602209D01*
X97175580Y-104411733D02*
X96651771Y-104411733D01*
X96556533Y-104459352D01*
X96508914Y-104554590D01*
X96508914Y-104745066D01*
X96556533Y-104840304D01*
X97127961Y-104411733D02*
X97175580Y-104506971D01*
X97175580Y-104745066D01*
X97127961Y-104840304D01*
X97032723Y-104887923D01*
X96937485Y-104887923D01*
X96842247Y-104840304D01*
X96794628Y-104745066D01*
X96794628Y-104506971D01*
X96747009Y-104411733D01*
X97175580Y-103935542D02*
X96508914Y-103935542D01*
X96699390Y-103935542D02*
X96604152Y-103887923D01*
X96556533Y-103840304D01*
X96508914Y-103745066D01*
X96508914Y-103649828D01*
X97175580Y-102887923D02*
X96175580Y-102887923D01*
X97127961Y-102887923D02*
X97175580Y-102983161D01*
X97175580Y-103173638D01*
X97127961Y-103268876D01*
X97080342Y-103316495D01*
X96985104Y-103364114D01*
X96699390Y-103364114D01*
X96604152Y-103316495D01*
X96556533Y-103268876D01*
X96508914Y-103173638D01*
X96508914Y-102983161D01*
X96556533Y-102887923D01*
X110780580Y-110232390D02*
X110780580Y-109660961D01*
X111780580Y-109946676D02*
X110780580Y-109946676D01*
X111732961Y-108946676D02*
X111780580Y-109041914D01*
X111780580Y-109232390D01*
X111732961Y-109327628D01*
X111637723Y-109375247D01*
X111256771Y-109375247D01*
X111161533Y-109327628D01*
X111113914Y-109232390D01*
X111113914Y-109041914D01*
X111161533Y-108946676D01*
X111256771Y-108899057D01*
X111352009Y-108899057D01*
X111447247Y-109375247D01*
X111780580Y-108327628D02*
X111732961Y-108422866D01*
X111637723Y-108470485D01*
X110780580Y-108470485D01*
X111732961Y-107565723D02*
X111780580Y-107660961D01*
X111780580Y-107851438D01*
X111732961Y-107946676D01*
X111637723Y-107994295D01*
X111256771Y-107994295D01*
X111161533Y-107946676D01*
X111113914Y-107851438D01*
X111113914Y-107660961D01*
X111161533Y-107565723D01*
X111256771Y-107518104D01*
X111352009Y-107518104D01*
X111447247Y-107994295D01*
X111780580Y-107089533D02*
X111113914Y-107089533D01*
X111209152Y-107089533D02*
X111161533Y-107041914D01*
X111113914Y-106946676D01*
X111113914Y-106803819D01*
X111161533Y-106708580D01*
X111256771Y-106660961D01*
X111780580Y-106660961D01*
X111256771Y-106660961D02*
X111161533Y-106613342D01*
X111113914Y-106518104D01*
X111113914Y-106375247D01*
X111161533Y-106280009D01*
X111256771Y-106232390D01*
X111780580Y-106232390D01*
X111732961Y-105375247D02*
X111780580Y-105470485D01*
X111780580Y-105660961D01*
X111732961Y-105756200D01*
X111637723Y-105803819D01*
X111256771Y-105803819D01*
X111161533Y-105756200D01*
X111113914Y-105660961D01*
X111113914Y-105470485D01*
X111161533Y-105375247D01*
X111256771Y-105327628D01*
X111352009Y-105327628D01*
X111447247Y-105803819D01*
X111113914Y-105041914D02*
X111113914Y-104660961D01*
X110780580Y-104899057D02*
X111637723Y-104899057D01*
X111732961Y-104851438D01*
X111780580Y-104756200D01*
X111780580Y-104660961D01*
X111780580Y-104327628D02*
X111113914Y-104327628D01*
X111304390Y-104327628D02*
X111209152Y-104280009D01*
X111161533Y-104232390D01*
X111113914Y-104137152D01*
X111113914Y-104041914D01*
X111113914Y-103803819D02*
X111780580Y-103565723D01*
X111113914Y-103327628D02*
X111780580Y-103565723D01*
X112018676Y-103660961D01*
X112066295Y-103708580D01*
X112113914Y-103803819D01*
X126283980Y-108589533D02*
X125283980Y-108589533D01*
X125998266Y-108256200D01*
X125283980Y-107922866D01*
X126283980Y-107922866D01*
X126283980Y-107303819D02*
X126236361Y-107399057D01*
X126188742Y-107446676D01*
X126093504Y-107494295D01*
X125807790Y-107494295D01*
X125712552Y-107446676D01*
X125664933Y-107399057D01*
X125617314Y-107303819D01*
X125617314Y-107160961D01*
X125664933Y-107065723D01*
X125712552Y-107018104D01*
X125807790Y-106970485D01*
X126093504Y-106970485D01*
X126188742Y-107018104D01*
X126236361Y-107065723D01*
X126283980Y-107160961D01*
X126283980Y-107303819D01*
X125617314Y-106684771D02*
X125617314Y-106303819D01*
X125283980Y-106541914D02*
X126141123Y-106541914D01*
X126236361Y-106494295D01*
X126283980Y-106399057D01*
X126283980Y-106303819D01*
X126283980Y-105827628D02*
X126236361Y-105922866D01*
X126188742Y-105970485D01*
X126093504Y-106018104D01*
X125807790Y-106018104D01*
X125712552Y-105970485D01*
X125664933Y-105922866D01*
X125617314Y-105827628D01*
X125617314Y-105684771D01*
X125664933Y-105589533D01*
X125712552Y-105541914D01*
X125807790Y-105494295D01*
X126093504Y-105494295D01*
X126188742Y-105541914D01*
X126236361Y-105589533D01*
X126283980Y-105684771D01*
X126283980Y-105827628D01*
X126283980Y-105065723D02*
X125617314Y-105065723D01*
X125807790Y-105065723D02*
X125712552Y-105018104D01*
X125664933Y-104970485D01*
X125617314Y-104875247D01*
X125617314Y-104780009D01*
X141193780Y-109022828D02*
X140193780Y-109022828D01*
X140908066Y-108689495D01*
X140193780Y-108356161D01*
X141193780Y-108356161D01*
X141193780Y-107879971D02*
X140193780Y-107879971D01*
X140193780Y-107499019D01*
X140241400Y-107403780D01*
X140289019Y-107356161D01*
X140384257Y-107308542D01*
X140527114Y-107308542D01*
X140622352Y-107356161D01*
X140669971Y-107403780D01*
X140717590Y-107499019D01*
X140717590Y-107879971D01*
X141193780Y-106879971D02*
X140193780Y-106879971D01*
X140193780Y-106499019D01*
X140241400Y-106403780D01*
X140289019Y-106356161D01*
X140384257Y-106308542D01*
X140527114Y-106308542D01*
X140622352Y-106356161D01*
X140669971Y-106403780D01*
X140717590Y-106499019D01*
X140717590Y-106879971D01*
X140193780Y-106022828D02*
X140193780Y-105451400D01*
X141193780Y-105737114D02*
X140193780Y-105737114D01*
X141193780Y-103832352D02*
X141193780Y-104403780D01*
X141193780Y-104118066D02*
X140193780Y-104118066D01*
X140336638Y-104213304D01*
X140431876Y-104308542D01*
X140479495Y-104403780D01*
X156230580Y-109048228D02*
X155230580Y-109048228D01*
X155944866Y-108714895D01*
X155230580Y-108381561D01*
X156230580Y-108381561D01*
X156230580Y-107905371D02*
X155230580Y-107905371D01*
X155230580Y-107524419D01*
X155278200Y-107429180D01*
X155325819Y-107381561D01*
X155421057Y-107333942D01*
X155563914Y-107333942D01*
X155659152Y-107381561D01*
X155706771Y-107429180D01*
X155754390Y-107524419D01*
X155754390Y-107905371D01*
X156230580Y-106905371D02*
X155230580Y-106905371D01*
X155230580Y-106524419D01*
X155278200Y-106429180D01*
X155325819Y-106381561D01*
X155421057Y-106333942D01*
X155563914Y-106333942D01*
X155659152Y-106381561D01*
X155706771Y-106429180D01*
X155754390Y-106524419D01*
X155754390Y-106905371D01*
X155230580Y-106048228D02*
X155230580Y-105476800D01*
X156230580Y-105762514D02*
X155230580Y-105762514D01*
X155325819Y-104429180D02*
X155278200Y-104381561D01*
X155230580Y-104286323D01*
X155230580Y-104048228D01*
X155278200Y-103952990D01*
X155325819Y-103905371D01*
X155421057Y-103857752D01*
X155516295Y-103857752D01*
X155659152Y-103905371D01*
X156230580Y-104476800D01*
X156230580Y-103857752D01*
X155706771Y-82260961D02*
X155754390Y-82118104D01*
X155802009Y-82070485D01*
X155897247Y-82022866D01*
X156040104Y-82022866D01*
X156135342Y-82070485D01*
X156182961Y-82118104D01*
X156230580Y-82213342D01*
X156230580Y-82594295D01*
X155230580Y-82594295D01*
X155230580Y-82260961D01*
X155278200Y-82165723D01*
X155325819Y-82118104D01*
X155421057Y-82070485D01*
X155516295Y-82070485D01*
X155611533Y-82118104D01*
X155659152Y-82165723D01*
X155706771Y-82260961D01*
X155706771Y-82594295D01*
X156230580Y-81594295D02*
X155230580Y-81594295D01*
X155230580Y-81213342D01*
X155278200Y-81118104D01*
X155325819Y-81070485D01*
X155421057Y-81022866D01*
X155563914Y-81022866D01*
X155659152Y-81070485D01*
X155706771Y-81118104D01*
X155754390Y-81213342D01*
X155754390Y-81594295D01*
X156182961Y-80641914D02*
X156230580Y-80499057D01*
X156230580Y-80260961D01*
X156182961Y-80165723D01*
X156135342Y-80118104D01*
X156040104Y-80070485D01*
X155944866Y-80070485D01*
X155849628Y-80118104D01*
X155802009Y-80165723D01*
X155754390Y-80260961D01*
X155706771Y-80451438D01*
X155659152Y-80546676D01*
X155611533Y-80594295D01*
X155516295Y-80641914D01*
X155421057Y-80641914D01*
X155325819Y-80594295D01*
X155278200Y-80546676D01*
X155230580Y-80451438D01*
X155230580Y-80213342D01*
X155278200Y-80070485D01*
X141219180Y-85770266D02*
X140219180Y-85770266D01*
X140219180Y-85389314D01*
X140266800Y-85294076D01*
X140314419Y-85246457D01*
X140409657Y-85198838D01*
X140552514Y-85198838D01*
X140647752Y-85246457D01*
X140695371Y-85294076D01*
X140742990Y-85389314D01*
X140742990Y-85770266D01*
X141219180Y-84770266D02*
X140552514Y-84770266D01*
X140742990Y-84770266D02*
X140647752Y-84722647D01*
X140600133Y-84675028D01*
X140552514Y-84579790D01*
X140552514Y-84484552D01*
X141219180Y-84151219D02*
X140552514Y-84151219D01*
X140219180Y-84151219D02*
X140266800Y-84198838D01*
X140314419Y-84151219D01*
X140266800Y-84103600D01*
X140219180Y-84151219D01*
X140314419Y-84151219D01*
X141219180Y-83675028D02*
X140552514Y-83675028D01*
X140647752Y-83675028D02*
X140600133Y-83627409D01*
X140552514Y-83532171D01*
X140552514Y-83389314D01*
X140600133Y-83294076D01*
X140695371Y-83246457D01*
X141219180Y-83246457D01*
X140695371Y-83246457D02*
X140600133Y-83198838D01*
X140552514Y-83103600D01*
X140552514Y-82960742D01*
X140600133Y-82865504D01*
X140695371Y-82817885D01*
X141219180Y-82817885D01*
X141219180Y-81913123D02*
X140695371Y-81913123D01*
X140600133Y-81960742D01*
X140552514Y-82055980D01*
X140552514Y-82246457D01*
X140600133Y-82341695D01*
X141171561Y-81913123D02*
X141219180Y-82008361D01*
X141219180Y-82246457D01*
X141171561Y-82341695D01*
X141076323Y-82389314D01*
X140981085Y-82389314D01*
X140885847Y-82341695D01*
X140838228Y-82246457D01*
X140838228Y-82008361D01*
X140790609Y-81913123D01*
X141219180Y-81436933D02*
X140552514Y-81436933D01*
X140742990Y-81436933D02*
X140647752Y-81389314D01*
X140600133Y-81341695D01*
X140552514Y-81246457D01*
X140552514Y-81151219D01*
X140552514Y-80913123D02*
X141219180Y-80675028D01*
X140552514Y-80436933D02*
X141219180Y-80675028D01*
X141457276Y-80770266D01*
X141504895Y-80817885D01*
X141552514Y-80913123D01*
X141219180Y-79294076D02*
X140219180Y-79294076D01*
X140219180Y-79055980D01*
X140266800Y-78913123D01*
X140362038Y-78817885D01*
X140457276Y-78770266D01*
X140647752Y-78722647D01*
X140790609Y-78722647D01*
X140981085Y-78770266D01*
X141076323Y-78817885D01*
X141171561Y-78913123D01*
X141219180Y-79055980D01*
X141219180Y-79294076D01*
X141219180Y-78294076D02*
X140552514Y-78294076D01*
X140219180Y-78294076D02*
X140266800Y-78341695D01*
X140314419Y-78294076D01*
X140266800Y-78246457D01*
X140219180Y-78294076D01*
X140314419Y-78294076D01*
X141171561Y-77865504D02*
X141219180Y-77770266D01*
X141219180Y-77579790D01*
X141171561Y-77484552D01*
X141076323Y-77436933D01*
X141028704Y-77436933D01*
X140933466Y-77484552D01*
X140885847Y-77579790D01*
X140885847Y-77722647D01*
X140838228Y-77817885D01*
X140742990Y-77865504D01*
X140695371Y-77865504D01*
X140600133Y-77817885D01*
X140552514Y-77722647D01*
X140552514Y-77579790D01*
X140600133Y-77484552D01*
X141171561Y-76579790D02*
X141219180Y-76675028D01*
X141219180Y-76865504D01*
X141171561Y-76960742D01*
X141123942Y-77008361D01*
X141028704Y-77055980D01*
X140742990Y-77055980D01*
X140647752Y-77008361D01*
X140600133Y-76960742D01*
X140552514Y-76865504D01*
X140552514Y-76675028D01*
X140600133Y-76579790D01*
X141219180Y-76008361D02*
X141171561Y-76103600D01*
X141123942Y-76151219D01*
X141028704Y-76198838D01*
X140742990Y-76198838D01*
X140647752Y-76151219D01*
X140600133Y-76103600D01*
X140552514Y-76008361D01*
X140552514Y-75865504D01*
X140600133Y-75770266D01*
X140647752Y-75722647D01*
X140742990Y-75675028D01*
X141028704Y-75675028D01*
X141123942Y-75722647D01*
X141171561Y-75770266D01*
X141219180Y-75865504D01*
X141219180Y-76008361D01*
X140552514Y-75246457D02*
X141219180Y-75246457D01*
X140647752Y-75246457D02*
X140600133Y-75198838D01*
X140552514Y-75103600D01*
X140552514Y-74960742D01*
X140600133Y-74865504D01*
X140695371Y-74817885D01*
X141219180Y-74817885D01*
X140552514Y-74341695D02*
X141219180Y-74341695D01*
X140647752Y-74341695D02*
X140600133Y-74294076D01*
X140552514Y-74198838D01*
X140552514Y-74055980D01*
X140600133Y-73960742D01*
X140695371Y-73913123D01*
X141219180Y-73913123D01*
X141123942Y-73436933D02*
X141171561Y-73389314D01*
X141219180Y-73436933D01*
X141171561Y-73484552D01*
X141123942Y-73436933D01*
X141219180Y-73436933D01*
X88013683Y-115372140D02*
X88013683Y-114372140D01*
X88251779Y-114372140D01*
X88394636Y-114419760D01*
X88489874Y-114514998D01*
X88537493Y-114610236D01*
X88585112Y-114800712D01*
X88585112Y-114943569D01*
X88537493Y-115134045D01*
X88489874Y-115229283D01*
X88394636Y-115324521D01*
X88251779Y-115372140D01*
X88013683Y-115372140D01*
X89442255Y-115372140D02*
X89442255Y-114848331D01*
X89394636Y-114753093D01*
X89299398Y-114705474D01*
X89108921Y-114705474D01*
X89013683Y-114753093D01*
X89442255Y-115324521D02*
X89347017Y-115372140D01*
X89108921Y-115372140D01*
X89013683Y-115324521D01*
X88966064Y-115229283D01*
X88966064Y-115134045D01*
X89013683Y-115038807D01*
X89108921Y-114991188D01*
X89347017Y-114991188D01*
X89442255Y-114943569D01*
X89870826Y-115324521D02*
X89966064Y-115372140D01*
X90156540Y-115372140D01*
X90251779Y-115324521D01*
X90299398Y-115229283D01*
X90299398Y-115181664D01*
X90251779Y-115086426D01*
X90156540Y-115038807D01*
X90013683Y-115038807D01*
X89918445Y-114991188D01*
X89870826Y-114895950D01*
X89870826Y-114848331D01*
X89918445Y-114753093D01*
X90013683Y-114705474D01*
X90156540Y-114705474D01*
X90251779Y-114753093D01*
X90727969Y-115372140D02*
X90727969Y-114372140D01*
X91156540Y-115372140D02*
X91156540Y-114848331D01*
X91108921Y-114753093D01*
X91013683Y-114705474D01*
X90870826Y-114705474D01*
X90775588Y-114753093D01*
X90727969Y-114800712D01*
X91632731Y-115372140D02*
X91632731Y-114372140D01*
X91632731Y-114753093D02*
X91727969Y-114705474D01*
X91918445Y-114705474D01*
X92013683Y-114753093D01*
X92061302Y-114800712D01*
X92108921Y-114895950D01*
X92108921Y-115181664D01*
X92061302Y-115276902D01*
X92013683Y-115324521D01*
X91918445Y-115372140D01*
X91727969Y-115372140D01*
X91632731Y-115324521D01*
X92680350Y-115372140D02*
X92585112Y-115324521D01*
X92537493Y-115276902D01*
X92489874Y-115181664D01*
X92489874Y-114895950D01*
X92537493Y-114800712D01*
X92585112Y-114753093D01*
X92680350Y-114705474D01*
X92823207Y-114705474D01*
X92918445Y-114753093D01*
X92966064Y-114800712D01*
X93013683Y-114895950D01*
X93013683Y-115181664D01*
X92966064Y-115276902D01*
X92918445Y-115324521D01*
X92823207Y-115372140D01*
X92680350Y-115372140D01*
X93870826Y-115372140D02*
X93870826Y-114848331D01*
X93823207Y-114753093D01*
X93727969Y-114705474D01*
X93537493Y-114705474D01*
X93442255Y-114753093D01*
X93870826Y-115324521D02*
X93775588Y-115372140D01*
X93537493Y-115372140D01*
X93442255Y-115324521D01*
X93394636Y-115229283D01*
X93394636Y-115134045D01*
X93442255Y-115038807D01*
X93537493Y-114991188D01*
X93775588Y-114991188D01*
X93870826Y-114943569D01*
X94347017Y-115372140D02*
X94347017Y-114705474D01*
X94347017Y-114895950D02*
X94394636Y-114800712D01*
X94442255Y-114753093D01*
X94537493Y-114705474D01*
X94632731Y-114705474D01*
X95394636Y-115372140D02*
X95394636Y-114372140D01*
X95394636Y-115324521D02*
X95299398Y-115372140D01*
X95108921Y-115372140D01*
X95013683Y-115324521D01*
X94966064Y-115276902D01*
X94918445Y-115181664D01*
X94918445Y-114895950D01*
X94966064Y-114800712D01*
X95013683Y-114753093D01*
X95108921Y-114705474D01*
X95299398Y-114705474D01*
X95394636Y-114753093D01*
X102924409Y-114544860D02*
X103495838Y-114544860D01*
X103210123Y-115544860D02*
X103210123Y-114544860D01*
X104210123Y-115497241D02*
X104114885Y-115544860D01*
X103924409Y-115544860D01*
X103829171Y-115497241D01*
X103781552Y-115402003D01*
X103781552Y-115021051D01*
X103829171Y-114925813D01*
X103924409Y-114878194D01*
X104114885Y-114878194D01*
X104210123Y-114925813D01*
X104257742Y-115021051D01*
X104257742Y-115116289D01*
X103781552Y-115211527D01*
X104829171Y-115544860D02*
X104733933Y-115497241D01*
X104686314Y-115402003D01*
X104686314Y-114544860D01*
X105591076Y-115497241D02*
X105495838Y-115544860D01*
X105305361Y-115544860D01*
X105210123Y-115497241D01*
X105162504Y-115402003D01*
X105162504Y-115021051D01*
X105210123Y-114925813D01*
X105305361Y-114878194D01*
X105495838Y-114878194D01*
X105591076Y-114925813D01*
X105638695Y-115021051D01*
X105638695Y-115116289D01*
X105162504Y-115211527D01*
X106067266Y-115544860D02*
X106067266Y-114878194D01*
X106067266Y-114973432D02*
X106114885Y-114925813D01*
X106210123Y-114878194D01*
X106352980Y-114878194D01*
X106448219Y-114925813D01*
X106495838Y-115021051D01*
X106495838Y-115544860D01*
X106495838Y-115021051D02*
X106543457Y-114925813D01*
X106638695Y-114878194D01*
X106781552Y-114878194D01*
X106876790Y-114925813D01*
X106924409Y-115021051D01*
X106924409Y-115544860D01*
X107781552Y-115497241D02*
X107686314Y-115544860D01*
X107495838Y-115544860D01*
X107400600Y-115497241D01*
X107352980Y-115402003D01*
X107352980Y-115021051D01*
X107400600Y-114925813D01*
X107495838Y-114878194D01*
X107686314Y-114878194D01*
X107781552Y-114925813D01*
X107829171Y-115021051D01*
X107829171Y-115116289D01*
X107352980Y-115211527D01*
X108114885Y-114878194D02*
X108495838Y-114878194D01*
X108257742Y-114544860D02*
X108257742Y-115402003D01*
X108305361Y-115497241D01*
X108400600Y-115544860D01*
X108495838Y-115544860D01*
X108829171Y-115544860D02*
X108829171Y-114878194D01*
X108829171Y-115068670D02*
X108876790Y-114973432D01*
X108924409Y-114925813D01*
X109019647Y-114878194D01*
X109114885Y-114878194D01*
X109352980Y-114878194D02*
X109591076Y-115544860D01*
X109829171Y-114878194D02*
X109591076Y-115544860D01*
X109495838Y-115782956D01*
X109448219Y-115830575D01*
X109352980Y-115878194D01*
X118969066Y-115682020D02*
X118969066Y-114682020D01*
X119302400Y-115396306D01*
X119635733Y-114682020D01*
X119635733Y-115682020D01*
X120254780Y-115682020D02*
X120159542Y-115634401D01*
X120111923Y-115586782D01*
X120064304Y-115491544D01*
X120064304Y-115205830D01*
X120111923Y-115110592D01*
X120159542Y-115062973D01*
X120254780Y-115015354D01*
X120397638Y-115015354D01*
X120492876Y-115062973D01*
X120540495Y-115110592D01*
X120588114Y-115205830D01*
X120588114Y-115491544D01*
X120540495Y-115586782D01*
X120492876Y-115634401D01*
X120397638Y-115682020D01*
X120254780Y-115682020D01*
X120873828Y-115015354D02*
X121254780Y-115015354D01*
X121016685Y-114682020D02*
X121016685Y-115539163D01*
X121064304Y-115634401D01*
X121159542Y-115682020D01*
X121254780Y-115682020D01*
X121730971Y-115682020D02*
X121635733Y-115634401D01*
X121588114Y-115586782D01*
X121540495Y-115491544D01*
X121540495Y-115205830D01*
X121588114Y-115110592D01*
X121635733Y-115062973D01*
X121730971Y-115015354D01*
X121873828Y-115015354D01*
X121969066Y-115062973D01*
X122016685Y-115110592D01*
X122064304Y-115205830D01*
X122064304Y-115491544D01*
X122016685Y-115586782D01*
X121969066Y-115634401D01*
X121873828Y-115682020D01*
X121730971Y-115682020D01*
X122492876Y-115682020D02*
X122492876Y-115015354D01*
X122492876Y-115205830D02*
X122540495Y-115110592D01*
X122588114Y-115062973D01*
X122683352Y-115015354D01*
X122778590Y-115015354D01*
X133018851Y-115687100D02*
X133018851Y-114687100D01*
X133352184Y-115401386D01*
X133685518Y-114687100D01*
X133685518Y-115687100D01*
X134161708Y-115687100D02*
X134161708Y-114687100D01*
X134542660Y-114687100D01*
X134637899Y-114734720D01*
X134685518Y-114782339D01*
X134733137Y-114877577D01*
X134733137Y-115020434D01*
X134685518Y-115115672D01*
X134637899Y-115163291D01*
X134542660Y-115210910D01*
X134161708Y-115210910D01*
X135161708Y-115687100D02*
X135161708Y-114687100D01*
X135542660Y-114687100D01*
X135637899Y-114734720D01*
X135685518Y-114782339D01*
X135733137Y-114877577D01*
X135733137Y-115020434D01*
X135685518Y-115115672D01*
X135637899Y-115163291D01*
X135542660Y-115210910D01*
X135161708Y-115210910D01*
X136018851Y-114687100D02*
X136590280Y-114687100D01*
X136304565Y-115687100D02*
X136304565Y-114687100D01*
X138209327Y-115687100D02*
X137637899Y-115687100D01*
X137923613Y-115687100D02*
X137923613Y-114687100D01*
X137828375Y-114829958D01*
X137733137Y-114925196D01*
X137637899Y-114972815D01*
X147928651Y-115585500D02*
X147928651Y-114585500D01*
X148261984Y-115299786D01*
X148595318Y-114585500D01*
X148595318Y-115585500D01*
X149071508Y-115585500D02*
X149071508Y-114585500D01*
X149452460Y-114585500D01*
X149547699Y-114633120D01*
X149595318Y-114680739D01*
X149642937Y-114775977D01*
X149642937Y-114918834D01*
X149595318Y-115014072D01*
X149547699Y-115061691D01*
X149452460Y-115109310D01*
X149071508Y-115109310D01*
X150071508Y-115585500D02*
X150071508Y-114585500D01*
X150452460Y-114585500D01*
X150547699Y-114633120D01*
X150595318Y-114680739D01*
X150642937Y-114775977D01*
X150642937Y-114918834D01*
X150595318Y-115014072D01*
X150547699Y-115061691D01*
X150452460Y-115109310D01*
X150071508Y-115109310D01*
X150928651Y-114585500D02*
X151500080Y-114585500D01*
X151214365Y-115585500D02*
X151214365Y-114585500D01*
X152547699Y-114680739D02*
X152595318Y-114633120D01*
X152690556Y-114585500D01*
X152928651Y-114585500D01*
X153023889Y-114633120D01*
X153071508Y-114680739D01*
X153119127Y-114775977D01*
X153119127Y-114871215D01*
X153071508Y-115014072D01*
X152500080Y-115585500D01*
X153119127Y-115585500D01*
X141985546Y-69494139D02*
X141985546Y-70494139D01*
X141604594Y-70494139D01*
X141509356Y-70446520D01*
X141461737Y-70398900D01*
X141414118Y-70303662D01*
X141414118Y-70160805D01*
X141461737Y-70065567D01*
X141509356Y-70017948D01*
X141604594Y-69970329D01*
X141985546Y-69970329D01*
X140985546Y-69494139D02*
X140985546Y-70160805D01*
X140985546Y-69970329D02*
X140937927Y-70065567D01*
X140890308Y-70113186D01*
X140795070Y-70160805D01*
X140699832Y-70160805D01*
X140366499Y-69494139D02*
X140366499Y-70160805D01*
X140366499Y-70494139D02*
X140414118Y-70446520D01*
X140366499Y-70398900D01*
X140318880Y-70446520D01*
X140366499Y-70494139D01*
X140366499Y-70398900D01*
X139890308Y-69494139D02*
X139890308Y-70160805D01*
X139890308Y-70065567D02*
X139842689Y-70113186D01*
X139747451Y-70160805D01*
X139604594Y-70160805D01*
X139509356Y-70113186D01*
X139461737Y-70017948D01*
X139461737Y-69494139D01*
X139461737Y-70017948D02*
X139414118Y-70113186D01*
X139318880Y-70160805D01*
X139176022Y-70160805D01*
X139080784Y-70113186D01*
X139033165Y-70017948D01*
X139033165Y-69494139D01*
X138128403Y-69494139D02*
X138128403Y-70017948D01*
X138176022Y-70113186D01*
X138271260Y-70160805D01*
X138461737Y-70160805D01*
X138556975Y-70113186D01*
X138128403Y-69541758D02*
X138223641Y-69494139D01*
X138461737Y-69494139D01*
X138556975Y-69541758D01*
X138604594Y-69636996D01*
X138604594Y-69732234D01*
X138556975Y-69827472D01*
X138461737Y-69875091D01*
X138223641Y-69875091D01*
X138128403Y-69922710D01*
X137652213Y-69494139D02*
X137652213Y-70160805D01*
X137652213Y-69970329D02*
X137604594Y-70065567D01*
X137556975Y-70113186D01*
X137461737Y-70160805D01*
X137366499Y-70160805D01*
X137128403Y-70160805D02*
X136890308Y-69494139D01*
X136652213Y-70160805D02*
X136890308Y-69494139D01*
X136985546Y-69256043D01*
X137033165Y-69208424D01*
X137128403Y-69160805D01*
X135509356Y-69494139D02*
X135509356Y-70494139D01*
X135271260Y-70494139D01*
X135128403Y-70446520D01*
X135033165Y-70351281D01*
X134985546Y-70256043D01*
X134937927Y-70065567D01*
X134937927Y-69922710D01*
X134985546Y-69732234D01*
X135033165Y-69636996D01*
X135128403Y-69541758D01*
X135271260Y-69494139D01*
X135509356Y-69494139D01*
X134509356Y-69494139D02*
X134509356Y-70160805D01*
X134509356Y-70494139D02*
X134556975Y-70446520D01*
X134509356Y-70398900D01*
X134461737Y-70446520D01*
X134509356Y-70494139D01*
X134509356Y-70398900D01*
X134080784Y-69541758D02*
X133985546Y-69494139D01*
X133795070Y-69494139D01*
X133699832Y-69541758D01*
X133652213Y-69636996D01*
X133652213Y-69684615D01*
X133699832Y-69779853D01*
X133795070Y-69827472D01*
X133937927Y-69827472D01*
X134033165Y-69875091D01*
X134080784Y-69970329D01*
X134080784Y-70017948D01*
X134033165Y-70113186D01*
X133937927Y-70160805D01*
X133795070Y-70160805D01*
X133699832Y-70113186D01*
X132795070Y-69541758D02*
X132890308Y-69494139D01*
X133080784Y-69494139D01*
X133176022Y-69541758D01*
X133223641Y-69589377D01*
X133271260Y-69684615D01*
X133271260Y-69970329D01*
X133223641Y-70065567D01*
X133176022Y-70113186D01*
X133080784Y-70160805D01*
X132890308Y-70160805D01*
X132795070Y-70113186D01*
X132223641Y-69494139D02*
X132318880Y-69541758D01*
X132366499Y-69589377D01*
X132414118Y-69684615D01*
X132414118Y-69970329D01*
X132366499Y-70065567D01*
X132318880Y-70113186D01*
X132223641Y-70160805D01*
X132080784Y-70160805D01*
X131985546Y-70113186D01*
X131937927Y-70065567D01*
X131890308Y-69970329D01*
X131890308Y-69684615D01*
X131937927Y-69589377D01*
X131985546Y-69541758D01*
X132080784Y-69494139D01*
X132223641Y-69494139D01*
X131461737Y-70160805D02*
X131461737Y-69494139D01*
X131461737Y-70065567D02*
X131414118Y-70113186D01*
X131318880Y-70160805D01*
X131176022Y-70160805D01*
X131080784Y-70113186D01*
X131033165Y-70017948D01*
X131033165Y-69494139D01*
X130556975Y-70160805D02*
X130556975Y-69494139D01*
X130556975Y-70065567D02*
X130509356Y-70113186D01*
X130414118Y-70160805D01*
X130271260Y-70160805D01*
X130176022Y-70113186D01*
X130128403Y-70017948D01*
X130128403Y-69494139D01*
X129652213Y-69589377D02*
X129604594Y-69541758D01*
X129652213Y-69494139D01*
X129699832Y-69541758D01*
X129652213Y-69589377D01*
X129652213Y-69494139D01*
X123527466Y-69277598D02*
X123384609Y-69229979D01*
X123146514Y-69229979D01*
X123051276Y-69277598D01*
X123003657Y-69325217D01*
X122956038Y-69420455D01*
X122956038Y-69515693D01*
X123003657Y-69610931D01*
X123051276Y-69658550D01*
X123146514Y-69706169D01*
X123336990Y-69753788D01*
X123432228Y-69801407D01*
X123479847Y-69849026D01*
X123527466Y-69944264D01*
X123527466Y-70039502D01*
X123479847Y-70134740D01*
X123432228Y-70182360D01*
X123336990Y-70229979D01*
X123098895Y-70229979D01*
X122956038Y-70182360D01*
X122527466Y-69229979D02*
X122527466Y-70229979D01*
X122146514Y-70229979D01*
X122051276Y-70182360D01*
X122003657Y-70134740D01*
X121956038Y-70039502D01*
X121956038Y-69896645D01*
X122003657Y-69801407D01*
X122051276Y-69753788D01*
X122146514Y-69706169D01*
X122527466Y-69706169D01*
X121575085Y-69515693D02*
X121098895Y-69515693D01*
X121670323Y-69229979D02*
X121336990Y-70229979D01*
X121003657Y-69229979D01*
X120098895Y-69229979D02*
X120432228Y-69706169D01*
X120670323Y-69229979D02*
X120670323Y-70229979D01*
X120289371Y-70229979D01*
X120194133Y-70182360D01*
X120146514Y-70134740D01*
X120098895Y-70039502D01*
X120098895Y-69896645D01*
X120146514Y-69801407D01*
X120194133Y-69753788D01*
X120289371Y-69706169D01*
X120670323Y-69706169D01*
X119670323Y-69753788D02*
X119336990Y-69753788D01*
X119194133Y-69229979D02*
X119670323Y-69229979D01*
X119670323Y-70229979D01*
X119194133Y-70229979D01*
X97254961Y-82862466D02*
X97302580Y-82719609D01*
X97302580Y-82481514D01*
X97254961Y-82386276D01*
X97207342Y-82338657D01*
X97112104Y-82291038D01*
X97016866Y-82291038D01*
X96921628Y-82338657D01*
X96874009Y-82386276D01*
X96826390Y-82481514D01*
X96778771Y-82671990D01*
X96731152Y-82767228D01*
X96683533Y-82814847D01*
X96588295Y-82862466D01*
X96493057Y-82862466D01*
X96397819Y-82814847D01*
X96350200Y-82767228D01*
X96302580Y-82671990D01*
X96302580Y-82433895D01*
X96350200Y-82291038D01*
X97302580Y-81862466D02*
X96302580Y-81862466D01*
X96302580Y-81481514D01*
X96350200Y-81386276D01*
X96397819Y-81338657D01*
X96493057Y-81291038D01*
X96635914Y-81291038D01*
X96731152Y-81338657D01*
X96778771Y-81386276D01*
X96826390Y-81481514D01*
X96826390Y-81862466D01*
X97016866Y-80910085D02*
X97016866Y-80433895D01*
X97302580Y-81005323D02*
X96302580Y-80671990D01*
X97302580Y-80338657D01*
X97302580Y-79433895D02*
X96826390Y-79767228D01*
X97302580Y-80005323D02*
X96302580Y-80005323D01*
X96302580Y-79624371D01*
X96350200Y-79529133D01*
X96397819Y-79481514D01*
X96493057Y-79433895D01*
X96635914Y-79433895D01*
X96731152Y-79481514D01*
X96778771Y-79529133D01*
X96826390Y-79624371D01*
X96826390Y-80005323D01*
X96778771Y-79005323D02*
X96778771Y-78671990D01*
X97302580Y-78529133D02*
X97302580Y-79005323D01*
X96302580Y-79005323D01*
X96302580Y-78529133D01*
X94160386Y-69343638D02*
X94017529Y-69296019D01*
X93779434Y-69296019D01*
X93684196Y-69343638D01*
X93636577Y-69391257D01*
X93588958Y-69486495D01*
X93588958Y-69581733D01*
X93636577Y-69676971D01*
X93684196Y-69724590D01*
X93779434Y-69772209D01*
X93969910Y-69819828D01*
X94065148Y-69867447D01*
X94112767Y-69915066D01*
X94160386Y-70010304D01*
X94160386Y-70105542D01*
X94112767Y-70200780D01*
X94065148Y-70248400D01*
X93969910Y-70296019D01*
X93731815Y-70296019D01*
X93588958Y-70248400D01*
X93160386Y-69296019D02*
X93160386Y-70296019D01*
X92779434Y-70296019D01*
X92684196Y-70248400D01*
X92636577Y-70200780D01*
X92588958Y-70105542D01*
X92588958Y-69962685D01*
X92636577Y-69867447D01*
X92684196Y-69819828D01*
X92779434Y-69772209D01*
X93160386Y-69772209D01*
X92208005Y-69581733D02*
X91731815Y-69581733D01*
X92303243Y-69296019D02*
X91969910Y-70296019D01*
X91636577Y-69296019D01*
X90731815Y-69296019D02*
X91065148Y-69772209D01*
X91303243Y-69296019D02*
X91303243Y-70296019D01*
X90922291Y-70296019D01*
X90827053Y-70248400D01*
X90779434Y-70200780D01*
X90731815Y-70105542D01*
X90731815Y-69962685D01*
X90779434Y-69867447D01*
X90827053Y-69819828D01*
X90922291Y-69772209D01*
X91303243Y-69772209D01*
X90303243Y-69819828D02*
X89969910Y-69819828D01*
X89827053Y-69296019D02*
X90303243Y-69296019D01*
X90303243Y-70296019D01*
X89827053Y-70296019D01*
X180766980Y-76306276D02*
X180766980Y-76877704D01*
X180766980Y-76591990D02*
X179766980Y-76591990D01*
X179909838Y-76687228D01*
X180005076Y-76782466D01*
X180052695Y-76877704D01*
X180766980Y-75353895D02*
X180766980Y-75925323D01*
X180766980Y-75639609D02*
X179766980Y-75639609D01*
X179909838Y-75734847D01*
X180005076Y-75830085D01*
X180052695Y-75925323D01*
X180766980Y-74925323D02*
X179766980Y-74925323D01*
X180766980Y-74353895D02*
X180195552Y-74782466D01*
X179766980Y-74353895D02*
X180338409Y-74925323D01*
X27777180Y-117502495D02*
X26777180Y-117502495D01*
X27253371Y-117502495D02*
X27253371Y-116931066D01*
X27777180Y-116931066D02*
X26777180Y-116931066D01*
X26777180Y-116597733D02*
X27777180Y-116264400D01*
X26777180Y-115931066D01*
X27253371Y-114502495D02*
X27300990Y-114359638D01*
X27348609Y-114312019D01*
X27443847Y-114264400D01*
X27586704Y-114264400D01*
X27681942Y-114312019D01*
X27729561Y-114359638D01*
X27777180Y-114454876D01*
X27777180Y-114835828D01*
X26777180Y-114835828D01*
X26777180Y-114502495D01*
X26824800Y-114407257D01*
X26872419Y-114359638D01*
X26967657Y-114312019D01*
X27062895Y-114312019D01*
X27158133Y-114359638D01*
X27205752Y-114407257D01*
X27253371Y-114502495D01*
X27253371Y-114835828D01*
X27777180Y-113407257D02*
X27253371Y-113407257D01*
X27158133Y-113454876D01*
X27110514Y-113550114D01*
X27110514Y-113740590D01*
X27158133Y-113835828D01*
X27729561Y-113407257D02*
X27777180Y-113502495D01*
X27777180Y-113740590D01*
X27729561Y-113835828D01*
X27634323Y-113883447D01*
X27539085Y-113883447D01*
X27443847Y-113835828D01*
X27396228Y-113740590D01*
X27396228Y-113502495D01*
X27348609Y-113407257D01*
X27110514Y-113073923D02*
X27110514Y-112692971D01*
X26777180Y-112931066D02*
X27634323Y-112931066D01*
X27729561Y-112883447D01*
X27777180Y-112788209D01*
X27777180Y-112692971D01*
X27110514Y-112502495D02*
X27110514Y-112121542D01*
X26777180Y-112359638D02*
X27634323Y-112359638D01*
X27729561Y-112312019D01*
X27777180Y-112216780D01*
X27777180Y-112121542D01*
X27729561Y-111407257D02*
X27777180Y-111502495D01*
X27777180Y-111692971D01*
X27729561Y-111788209D01*
X27634323Y-111835828D01*
X27253371Y-111835828D01*
X27158133Y-111788209D01*
X27110514Y-111692971D01*
X27110514Y-111502495D01*
X27158133Y-111407257D01*
X27253371Y-111359638D01*
X27348609Y-111359638D01*
X27443847Y-111835828D01*
X27777180Y-110931066D02*
X27110514Y-110931066D01*
X27300990Y-110931066D02*
X27205752Y-110883447D01*
X27158133Y-110835828D01*
X27110514Y-110740590D01*
X27110514Y-110645352D01*
X27110514Y-110407257D02*
X27777180Y-110169161D01*
X27110514Y-109931066D02*
X27777180Y-110169161D01*
X28015276Y-110264400D01*
X28062895Y-110312019D01*
X28110514Y-110407257D01*
M02*
