G04 #@! TF.GenerationSoftware,KiCad,Pcbnew,(5.1.6)-1*
G04 #@! TF.CreationDate,2020-09-29T14:02:11-05:00*
G04 #@! TF.ProjectId,Power-Primary,506f7765-722d-4507-9269-6d6172792e6b,rev?*
G04 #@! TF.SameCoordinates,Original*
G04 #@! TF.FileFunction,Copper,L1,Top*
G04 #@! TF.FilePolarity,Positive*
%FSLAX46Y46*%
G04 Gerber Fmt 4.6, Leading zero omitted, Abs format (unit mm)*
G04 Created by KiCad (PCBNEW (5.1.6)-1) date 2020-09-29 14:02:11*
%MOMM*%
%LPD*%
G01*
G04 APERTURE LIST*
G04 #@! TA.AperFunction,ComponentPad*
%ADD10O,1.400000X1.400000*%
G04 #@! TD*
G04 #@! TA.AperFunction,ComponentPad*
%ADD11C,1.400000*%
G04 #@! TD*
G04 #@! TA.AperFunction,ComponentPad*
%ADD12O,1.500000X2.020000*%
G04 #@! TD*
G04 #@! TA.AperFunction,ComponentPad*
%ADD13C,2.780000*%
G04 #@! TD*
G04 #@! TA.AperFunction,ComponentPad*
%ADD14C,1.800000*%
G04 #@! TD*
G04 #@! TA.AperFunction,ComponentPad*
%ADD15R,1.800000X1.800000*%
G04 #@! TD*
G04 #@! TA.AperFunction,WasherPad*
%ADD16C,4.000000*%
G04 #@! TD*
G04 #@! TA.AperFunction,ComponentPad*
%ADD17C,2.200000*%
G04 #@! TD*
G04 #@! TA.AperFunction,ComponentPad*
%ADD18C,3.000000*%
G04 #@! TD*
G04 #@! TA.AperFunction,WasherPad*
%ADD19C,5.000000*%
G04 #@! TD*
G04 #@! TA.AperFunction,ComponentPad*
%ADD20R,1.500000X2.000000*%
G04 #@! TD*
G04 #@! TA.AperFunction,ComponentPad*
%ADD21O,1.500000X2.000000*%
G04 #@! TD*
G04 #@! TA.AperFunction,ViaPad*
%ADD22C,0.800000*%
G04 #@! TD*
G04 #@! TA.AperFunction,Conductor*
%ADD23C,1.000000*%
G04 #@! TD*
G04 #@! TA.AperFunction,Conductor*
%ADD24C,1.250000*%
G04 #@! TD*
G04 #@! TA.AperFunction,Conductor*
%ADD25C,0.800000*%
G04 #@! TD*
G04 #@! TA.AperFunction,Conductor*
%ADD26C,0.254000*%
G04 #@! TD*
G04 APERTURE END LIST*
D10*
X200660000Y-84580400D03*
D11*
X200660000Y-76860400D03*
D10*
X215900000Y-84580400D03*
D11*
X215900000Y-76860400D03*
D10*
X231140000Y-84580400D03*
D11*
X231140000Y-76860400D03*
D10*
X231140000Y-102870000D03*
D11*
X231140000Y-110490000D03*
D10*
X215900000Y-102870000D03*
D11*
X215900000Y-110490000D03*
D10*
X200660000Y-102870000D03*
D11*
X200660000Y-110490000D03*
D12*
X192270000Y-66040000D03*
G04 #@! TA.AperFunction,ComponentPad*
G36*
G01*
X196020000Y-65280000D02*
X196020000Y-66800000D01*
G75*
G02*
X195770000Y-67050000I-250000J0D01*
G01*
X194770000Y-67050000D01*
G75*
G02*
X194520000Y-66800000I0J250000D01*
G01*
X194520000Y-65280000D01*
G75*
G02*
X194770000Y-65030000I250000J0D01*
G01*
X195770000Y-65030000D01*
G75*
G02*
X196020000Y-65280000I0J-250000D01*
G01*
G37*
G04 #@! TD.AperFunction*
X207002000Y-66040000D03*
G04 #@! TA.AperFunction,ComponentPad*
G36*
G01*
X210752000Y-65280000D02*
X210752000Y-66800000D01*
G75*
G02*
X210502000Y-67050000I-250000J0D01*
G01*
X209502000Y-67050000D01*
G75*
G02*
X209252000Y-66800000I0J250000D01*
G01*
X209252000Y-65280000D01*
G75*
G02*
X209502000Y-65030000I250000J0D01*
G01*
X210502000Y-65030000D01*
G75*
G02*
X210752000Y-65280000I0J-250000D01*
G01*
G37*
G04 #@! TD.AperFunction*
X222234000Y-66040000D03*
G04 #@! TA.AperFunction,ComponentPad*
G36*
G01*
X225984000Y-65280000D02*
X225984000Y-66800000D01*
G75*
G02*
X225734000Y-67050000I-250000J0D01*
G01*
X224734000Y-67050000D01*
G75*
G02*
X224484000Y-66800000I0J250000D01*
G01*
X224484000Y-65280000D01*
G75*
G02*
X224734000Y-65030000I250000J0D01*
G01*
X225734000Y-65030000D01*
G75*
G02*
X225984000Y-65280000I0J-250000D01*
G01*
G37*
G04 #@! TD.AperFunction*
X225250000Y-118491000D03*
G04 #@! TA.AperFunction,ComponentPad*
G36*
G01*
X221500000Y-119251000D02*
X221500000Y-117731000D01*
G75*
G02*
X221750000Y-117481000I250000J0D01*
G01*
X222750000Y-117481000D01*
G75*
G02*
X223000000Y-117731000I0J-250000D01*
G01*
X223000000Y-119251000D01*
G75*
G02*
X222750000Y-119501000I-250000J0D01*
G01*
X221750000Y-119501000D01*
G75*
G02*
X221500000Y-119251000I0J250000D01*
G01*
G37*
G04 #@! TD.AperFunction*
X210010000Y-118491000D03*
G04 #@! TA.AperFunction,ComponentPad*
G36*
G01*
X206260000Y-119251000D02*
X206260000Y-117731000D01*
G75*
G02*
X206510000Y-117481000I250000J0D01*
G01*
X207510000Y-117481000D01*
G75*
G02*
X207760000Y-117731000I0J-250000D01*
G01*
X207760000Y-119251000D01*
G75*
G02*
X207510000Y-119501000I-250000J0D01*
G01*
X206510000Y-119501000D01*
G75*
G02*
X206260000Y-119251000I0J250000D01*
G01*
G37*
G04 #@! TD.AperFunction*
X194770000Y-118491000D03*
G04 #@! TA.AperFunction,ComponentPad*
G36*
G01*
X191020000Y-119251000D02*
X191020000Y-117731000D01*
G75*
G02*
X191270000Y-117481000I250000J0D01*
G01*
X192270000Y-117481000D01*
G75*
G02*
X192520000Y-117731000I0J-250000D01*
G01*
X192520000Y-119251000D01*
G75*
G02*
X192270000Y-119501000I-250000J0D01*
G01*
X191270000Y-119501000D01*
G75*
G02*
X191020000Y-119251000I0J250000D01*
G01*
G37*
G04 #@! TD.AperFunction*
D13*
X195170000Y-76846400D03*
X191770000Y-76846400D03*
X195170000Y-86766400D03*
X191770000Y-86766400D03*
X209952600Y-76846400D03*
X206552600Y-76846400D03*
X209952600Y-86766400D03*
X206552600Y-86766400D03*
X225150000Y-76846400D03*
X221750000Y-76846400D03*
X225150000Y-86766400D03*
X221750000Y-86766400D03*
X221750000Y-110686400D03*
X225150000Y-110686400D03*
X221750000Y-100766400D03*
X225150000Y-100766400D03*
X206552600Y-110686400D03*
X209952600Y-110686400D03*
X206552600Y-100766400D03*
X209952600Y-100766400D03*
X195170000Y-100766400D03*
X191770000Y-100766400D03*
X195170000Y-110686400D03*
X191770000Y-110686400D03*
D14*
X200660000Y-89636600D03*
D15*
X200660000Y-87096600D03*
D14*
X215900000Y-89636600D03*
D15*
X215900000Y-87096600D03*
D14*
X231140000Y-89636600D03*
D15*
X231140000Y-87096600D03*
D14*
X231140000Y-97790000D03*
D15*
X231140000Y-100330000D03*
D14*
X215900000Y-97790000D03*
D15*
X215900000Y-100330000D03*
D14*
X200660000Y-97790000D03*
D15*
X200660000Y-100330000D03*
D16*
X74155880Y-105283920D03*
X50415880Y-105283920D03*
D17*
X66095880Y-102483920D03*
X66095880Y-99943920D03*
X58475880Y-102483920D03*
X58475880Y-99943920D03*
X66095880Y-94863920D03*
X58475880Y-94863920D03*
D18*
X26430200Y-87301000D03*
X26430200Y-97301000D03*
D19*
X162430200Y-66301000D03*
X42430200Y-118301000D03*
X42430200Y-66301000D03*
X162430200Y-118301000D03*
D18*
X178430200Y-87301000D03*
X178430200Y-97301000D03*
D10*
X99009200Y-102997000D03*
D11*
X99009200Y-110617000D03*
X113639600Y-110617000D03*
D10*
X113639600Y-102997000D03*
X128219200Y-102997000D03*
D11*
X128219200Y-110617000D03*
X143103600Y-110617000D03*
D10*
X143103600Y-102997000D03*
X158140400Y-102997000D03*
D11*
X158140400Y-110617000D03*
D10*
X158140400Y-84480400D03*
D11*
X158140400Y-76860400D03*
X143103600Y-76885800D03*
D10*
X143103600Y-84505800D03*
X128270000Y-84480400D03*
D11*
X128270000Y-76860400D03*
X113639600Y-76860400D03*
D10*
X113639600Y-84480400D03*
X98983800Y-84480400D03*
D11*
X98983800Y-76860400D03*
D20*
X152349200Y-66065400D03*
D21*
X149349200Y-66065400D03*
D13*
X122754600Y-76846400D03*
X119354600Y-76846400D03*
X122754600Y-86766400D03*
X119354600Y-86766400D03*
D21*
X105331000Y-66065400D03*
D20*
X108331000Y-66065400D03*
D13*
X108327400Y-76846400D03*
X104927400Y-76846400D03*
X108327400Y-86766400D03*
X104927400Y-86766400D03*
D15*
X99009200Y-87096600D03*
D14*
X99009200Y-89636600D03*
X99009200Y-97840800D03*
D15*
X99009200Y-100380800D03*
X113665000Y-100380800D03*
D14*
X113665000Y-97840800D03*
D15*
X128244600Y-100380800D03*
D14*
X128244600Y-97840800D03*
X143103600Y-97840800D03*
D15*
X143103600Y-100380800D03*
X158140400Y-100380800D03*
D14*
X158140400Y-97840800D03*
D15*
X158165800Y-87096600D03*
D14*
X158165800Y-89636600D03*
X143103600Y-89636600D03*
D15*
X143103600Y-87096600D03*
X128244600Y-87096600D03*
D14*
X128244600Y-89636600D03*
D15*
X113614200Y-87096600D03*
D14*
X113614200Y-89636600D03*
D13*
X93595400Y-100698300D03*
X90195400Y-100698300D03*
X93595400Y-110618300D03*
X90195400Y-110618300D03*
X108327400Y-100698300D03*
X104927400Y-100698300D03*
X108327400Y-110618300D03*
X104927400Y-110618300D03*
X119354600Y-110618300D03*
X122754600Y-110618300D03*
X119354600Y-100698300D03*
X122754600Y-100698300D03*
X137588400Y-100698300D03*
X134188400Y-100698300D03*
X137588400Y-110618300D03*
X134188400Y-110618300D03*
X152371000Y-100698300D03*
X148971000Y-100698300D03*
X152371000Y-110618300D03*
X148971000Y-110618300D03*
X152371000Y-76846400D03*
X148971000Y-76846400D03*
X152371000Y-86766400D03*
X148971000Y-86766400D03*
X137588400Y-76846400D03*
X134188400Y-76846400D03*
X137588400Y-86766400D03*
X134188400Y-86766400D03*
D20*
X90220800Y-118491000D03*
D21*
X93220800Y-118491000D03*
X107902000Y-118491000D03*
D20*
X104902000Y-118491000D03*
D21*
X122354600Y-118491000D03*
D20*
X119354600Y-118491000D03*
D21*
X137137400Y-118491000D03*
D20*
X134137400Y-118491000D03*
D21*
X151996400Y-118491000D03*
D20*
X148996400Y-118491000D03*
X137617200Y-66065400D03*
D21*
X134617200Y-66065400D03*
X119783600Y-66065400D03*
D20*
X122783600Y-66065400D03*
D13*
X93595400Y-76846400D03*
X90195400Y-76846400D03*
X93595400Y-86766400D03*
X90195400Y-86766400D03*
D21*
X90573600Y-66065400D03*
D20*
X93573600Y-66065400D03*
D15*
X173761400Y-74396600D03*
D14*
X173761400Y-71856600D03*
D11*
X178460400Y-79451200D03*
D10*
X178460400Y-71831200D03*
D18*
X33324800Y-102514400D03*
X33324800Y-125014400D03*
D22*
X121310400Y-58750200D03*
X120878600Y-125349000D03*
X84206080Y-118460520D03*
X99110800Y-118460520D03*
X113654840Y-118460520D03*
X128483360Y-118460520D03*
X143149320Y-118460520D03*
X156895800Y-66090800D03*
X143484600Y-66090800D03*
X128803400Y-66090800D03*
X114147600Y-66090800D03*
X99390200Y-66090800D03*
X185978800Y-118079520D03*
X201218800Y-118079520D03*
X216458800Y-118079520D03*
X231140000Y-66040000D03*
X215900000Y-66040000D03*
X200660000Y-66040000D03*
D23*
X31108600Y-97301000D02*
X26430200Y-97301000D01*
X33324800Y-102514400D02*
X33324800Y-99517200D01*
X33324800Y-99517200D02*
X31108600Y-97301000D01*
D24*
X66095880Y-94863920D02*
X66095880Y-99943920D01*
X66095880Y-99943920D02*
X66095880Y-102483920D01*
D23*
X33324800Y-125014400D02*
X62234400Y-125014400D01*
X62234400Y-125014400D02*
X66116200Y-121132600D01*
X66095880Y-121112280D02*
X66095880Y-102483920D01*
X66116200Y-121132600D02*
X66095880Y-121112280D01*
X178460400Y-87270800D02*
X178430200Y-87301000D01*
X178460400Y-79451200D02*
X178460400Y-81960720D01*
X178460400Y-81960720D02*
X174701200Y-85719920D01*
X99009200Y-102997000D02*
X99009200Y-100380800D01*
X113665000Y-102971600D02*
X113639600Y-102997000D01*
X113665000Y-100380800D02*
X113665000Y-102971600D01*
X128219200Y-100406200D02*
X128244600Y-100380800D01*
X128219200Y-102997000D02*
X128219200Y-100406200D01*
X143103600Y-102997000D02*
X143103600Y-100380800D01*
X158140400Y-100406200D02*
X158140400Y-102997000D01*
X158140400Y-87071200D02*
X158165800Y-87096600D01*
X158140400Y-84480400D02*
X158140400Y-87071200D01*
X143103600Y-87122000D02*
X143103600Y-84505800D01*
X128270000Y-87071200D02*
X128244600Y-87096600D01*
X128270000Y-84480400D02*
X128270000Y-87071200D01*
X113639600Y-87071200D02*
X113614200Y-87096600D01*
X113639600Y-84480400D02*
X113639600Y-87071200D01*
X98983800Y-87071200D02*
X99009200Y-87096600D01*
X98983800Y-84480400D02*
X98983800Y-87071200D01*
X200660000Y-100330000D02*
X200660000Y-102870000D01*
D24*
X90195400Y-110618300D02*
X93595400Y-110618300D01*
D23*
X99007900Y-110618300D02*
X99009200Y-110617000D01*
X93595400Y-110618300D02*
X99007900Y-110618300D01*
X90190320Y-118460520D02*
X90220800Y-118491000D01*
D25*
X84206080Y-118460520D02*
X90190320Y-118460520D01*
D24*
X90195400Y-118465600D02*
X90220800Y-118491000D01*
X90195400Y-110618300D02*
X90195400Y-118465600D01*
D23*
X113638300Y-110618300D02*
X113639600Y-110617000D01*
X108327400Y-110618300D02*
X113638300Y-110618300D01*
D24*
X104927400Y-110618300D02*
X108327400Y-110618300D01*
X104927400Y-118389400D02*
X104902000Y-118414800D01*
X104927400Y-118465600D02*
X104902000Y-118491000D01*
X104927400Y-110618300D02*
X104927400Y-118465600D01*
D23*
X104871520Y-118460520D02*
X104902000Y-118491000D01*
D25*
X99110800Y-118460520D02*
X104871520Y-118460520D01*
D24*
X119354600Y-110618300D02*
X122754600Y-110618300D01*
D23*
X128217900Y-110618300D02*
X128219200Y-110617000D01*
X122754600Y-110618300D02*
X128217900Y-110618300D01*
D24*
X119354600Y-110618300D02*
X119354600Y-118491000D01*
D23*
X119324120Y-118460520D02*
X119354600Y-118491000D01*
D25*
X113654840Y-118460520D02*
X119324120Y-118460520D01*
D24*
X134188400Y-118338400D02*
X134137400Y-118389400D01*
X134188400Y-110618300D02*
X137588400Y-110618300D01*
D23*
X143102300Y-110618300D02*
X143103600Y-110617000D01*
X137588400Y-110618300D02*
X143102300Y-110618300D01*
D24*
X134188400Y-118440000D02*
X134137400Y-118491000D01*
X134188400Y-110618300D02*
X134188400Y-118440000D01*
D23*
X134061200Y-118414800D02*
X134137400Y-118491000D01*
X134106920Y-118460520D02*
X134137400Y-118491000D01*
D25*
X128483360Y-118460520D02*
X134106920Y-118460520D01*
D24*
X148971000Y-118516400D02*
X148996400Y-118541800D01*
X148971000Y-110618300D02*
X152371000Y-110618300D01*
D23*
X152372300Y-110617000D02*
X152371000Y-110618300D01*
X158140400Y-110617000D02*
X152372300Y-110617000D01*
D24*
X148971000Y-118465600D02*
X148996400Y-118491000D01*
X148971000Y-110618300D02*
X148971000Y-118465600D01*
D23*
X148965920Y-118460520D02*
X148996400Y-118491000D01*
D25*
X143179800Y-118491000D02*
X143149320Y-118460520D01*
X148996400Y-118491000D02*
X143179800Y-118491000D01*
D23*
X158126400Y-76846400D02*
X158140400Y-76860400D01*
X152371000Y-76846400D02*
X158126400Y-76846400D01*
D24*
X152349200Y-76824600D02*
X152371000Y-76846400D01*
X148971000Y-76846400D02*
X152371000Y-76846400D01*
X152371000Y-66087200D02*
X152349200Y-66065400D01*
X152371000Y-76846400D02*
X152371000Y-66087200D01*
D23*
X152374600Y-66090800D02*
X152349200Y-66065400D01*
D25*
X156895800Y-66090800D02*
X152374600Y-66090800D01*
D23*
X137627800Y-76885800D02*
X137588400Y-76846400D01*
X143103600Y-76885800D02*
X137627800Y-76885800D01*
D24*
X137642600Y-76792200D02*
X137588400Y-76846400D01*
X134188400Y-76846400D02*
X137588400Y-76846400D01*
X137588400Y-66094200D02*
X137617200Y-66065400D01*
X137588400Y-76846400D02*
X137588400Y-66094200D01*
D23*
X137642600Y-66090800D02*
X137617200Y-66065400D01*
D25*
X143484600Y-66090800D02*
X137642600Y-66090800D01*
D23*
X128256000Y-76846400D02*
X128270000Y-76860400D01*
X122754600Y-76846400D02*
X128256000Y-76846400D01*
D24*
X119354600Y-76846400D02*
X122754600Y-76846400D01*
X122783600Y-76817400D02*
X122754600Y-76846400D01*
X122754600Y-66094400D02*
X122783600Y-66065400D01*
X122754600Y-76846400D02*
X122754600Y-66094400D01*
D23*
X122809000Y-66090800D02*
X122783600Y-66065400D01*
D25*
X128803400Y-66090800D02*
X122809000Y-66090800D01*
D23*
X113625600Y-76846400D02*
X113639600Y-76860400D01*
X108327400Y-76846400D02*
X113625600Y-76846400D01*
D24*
X108331000Y-76842800D02*
X108327400Y-76846400D01*
X104927400Y-76846400D02*
X108327400Y-76846400D01*
X108327400Y-66069000D02*
X108331000Y-66065400D01*
X108327400Y-76846400D02*
X108327400Y-66069000D01*
D23*
X108356400Y-66090800D02*
X108331000Y-66065400D01*
D25*
X114147600Y-66090800D02*
X108356400Y-66090800D01*
D23*
X93609400Y-76860400D02*
X93595400Y-76846400D01*
X98983800Y-76860400D02*
X93609400Y-76860400D01*
D24*
X90195400Y-76846400D02*
X93595400Y-76846400D01*
X93573600Y-76824600D02*
X93595400Y-76846400D01*
X93595400Y-66087200D02*
X93573600Y-66065400D01*
X93595400Y-76846400D02*
X93595400Y-66087200D01*
D23*
X93599000Y-66090800D02*
X93573600Y-66065400D01*
D25*
X99390200Y-66090800D02*
X93599000Y-66090800D01*
D23*
X215900000Y-100330000D02*
X215900000Y-102870000D01*
X231140000Y-102870000D02*
X231140000Y-100330000D01*
X231140000Y-84580400D02*
X231140000Y-87096600D01*
X215900000Y-87096600D02*
X215900000Y-84580400D01*
X200660000Y-84580400D02*
X200660000Y-87096600D01*
X178435000Y-71856600D02*
X178460400Y-71831200D01*
X173761400Y-71856600D02*
X178435000Y-71856600D01*
D25*
X185978800Y-118079520D02*
X185978800Y-118079520D01*
D24*
X191770000Y-110490000D02*
X191770000Y-118110000D01*
D23*
X195170000Y-110490000D02*
X200660000Y-110490000D01*
D24*
X191770000Y-110490000D02*
X195170000Y-110490000D01*
D25*
X185978800Y-118079520D02*
X191739520Y-118079520D01*
X201218800Y-118079520D02*
X201218800Y-118079520D01*
D24*
X207010000Y-118110000D02*
X207010000Y-110490000D01*
X207010000Y-110490000D02*
X210410000Y-110490000D01*
D23*
X210410000Y-110490000D02*
X215900000Y-110490000D01*
D25*
X201218800Y-118079520D02*
X206979520Y-118079520D01*
X216458800Y-118079520D02*
X216458800Y-118079520D01*
D24*
X222250000Y-118110000D02*
X222250000Y-110490000D01*
X222250000Y-110490000D02*
X225650000Y-110490000D01*
D23*
X225650000Y-110490000D02*
X231140000Y-110490000D01*
D25*
X216458800Y-118079520D02*
X222219520Y-118079520D01*
D24*
X225790000Y-76706400D02*
X225650000Y-76846400D01*
X222250000Y-76846400D02*
X225650000Y-76846400D01*
D23*
X231126000Y-76846400D02*
X231140000Y-76860400D01*
X225150000Y-76846400D02*
X231126000Y-76846400D01*
D24*
X225150000Y-66124000D02*
X225234000Y-66040000D01*
X225150000Y-76846400D02*
X225150000Y-66124000D01*
D25*
X225234000Y-66040000D02*
X231140000Y-66040000D01*
D24*
X210510000Y-77370000D02*
X210410000Y-77470000D01*
X210410000Y-66140000D02*
X210510000Y-66040000D01*
D25*
X210510000Y-66040000D02*
X215900000Y-66040000D01*
D24*
X207010000Y-76846400D02*
X210410000Y-76846400D01*
X209952600Y-66089400D02*
X210002000Y-66040000D01*
X209952600Y-76846400D02*
X209952600Y-66089400D01*
D23*
X215886000Y-76846400D02*
X215900000Y-76860400D01*
X209952600Y-76846400D02*
X215886000Y-76846400D01*
D24*
X195270000Y-77370000D02*
X195170000Y-77470000D01*
X195270000Y-76746400D02*
X195170000Y-76846400D01*
X191770000Y-76846400D02*
X195170000Y-76846400D01*
D25*
X195270000Y-66040000D02*
X200660000Y-66040000D01*
D24*
X195270000Y-66040000D02*
X195270000Y-76746400D01*
D23*
X200646000Y-76846400D02*
X200660000Y-76860400D01*
X195170000Y-76846400D02*
X200646000Y-76846400D01*
D26*
G36*
X97648800Y-84571158D02*
G01*
X97648800Y-84611886D01*
X97700104Y-84869805D01*
X97800739Y-85112759D01*
X97848800Y-85184688D01*
X97848800Y-85615768D01*
X97754706Y-85666063D01*
X97658015Y-85745415D01*
X97578663Y-85842106D01*
X97519698Y-85952420D01*
X97483388Y-86072118D01*
X97471128Y-86196600D01*
X97471128Y-87996600D01*
X97483388Y-88121082D01*
X97519698Y-88240780D01*
X97578663Y-88351094D01*
X97658015Y-88447785D01*
X97754706Y-88527137D01*
X97865020Y-88586102D01*
X97883327Y-88591656D01*
X97816888Y-88658095D01*
X97648901Y-88909505D01*
X97533189Y-89188857D01*
X97474200Y-89485416D01*
X97474200Y-89787784D01*
X97533189Y-90084343D01*
X97648901Y-90363695D01*
X97816888Y-90615105D01*
X98030695Y-90828912D01*
X98282105Y-90996899D01*
X98561457Y-91112611D01*
X98858016Y-91171600D01*
X99160384Y-91171600D01*
X99456943Y-91112611D01*
X99736295Y-90996899D01*
X99987705Y-90828912D01*
X100201512Y-90615105D01*
X100369499Y-90363695D01*
X100485211Y-90084343D01*
X100544200Y-89787784D01*
X100544200Y-89485416D01*
X100485211Y-89188857D01*
X100369499Y-88909505D01*
X100201512Y-88658095D01*
X100135073Y-88591656D01*
X100153380Y-88586102D01*
X100263694Y-88527137D01*
X100360385Y-88447785D01*
X100401641Y-88397514D01*
X104000565Y-88397514D01*
X104170639Y-88655240D01*
X104553674Y-88766583D01*
X104951072Y-88801061D01*
X105347559Y-88757348D01*
X105684161Y-88655240D01*
X105854235Y-88397514D01*
X107400565Y-88397514D01*
X107570639Y-88655240D01*
X107953674Y-88766583D01*
X108351072Y-88801061D01*
X108747559Y-88757348D01*
X109084161Y-88655240D01*
X109254235Y-88397514D01*
X108327400Y-87470678D01*
X107400565Y-88397514D01*
X105854235Y-88397514D01*
X104927400Y-87470678D01*
X104000565Y-88397514D01*
X100401641Y-88397514D01*
X100439737Y-88351094D01*
X100498702Y-88240780D01*
X100535012Y-88121082D01*
X100547272Y-87996600D01*
X100547272Y-86790072D01*
X102892739Y-86790072D01*
X102936452Y-87186559D01*
X103038560Y-87523161D01*
X103296286Y-87693235D01*
X104223122Y-86766400D01*
X105631678Y-86766400D01*
X106558514Y-87693235D01*
X106627400Y-87647777D01*
X106696286Y-87693235D01*
X107623122Y-86766400D01*
X109031678Y-86766400D01*
X109958514Y-87693235D01*
X110216240Y-87523161D01*
X110327583Y-87140126D01*
X110362061Y-86742728D01*
X110318348Y-86346241D01*
X110216240Y-86009639D01*
X109958514Y-85839565D01*
X109031678Y-86766400D01*
X107623122Y-86766400D01*
X106696286Y-85839565D01*
X106627400Y-85885023D01*
X106558514Y-85839565D01*
X105631678Y-86766400D01*
X104223122Y-86766400D01*
X103296286Y-85839565D01*
X103038560Y-86009639D01*
X102927217Y-86392674D01*
X102892739Y-86790072D01*
X100547272Y-86790072D01*
X100547272Y-86196600D01*
X100535012Y-86072118D01*
X100498702Y-85952420D01*
X100439737Y-85842106D01*
X100360385Y-85745415D01*
X100263694Y-85666063D01*
X100153380Y-85607098D01*
X100118800Y-85596608D01*
X100118800Y-85184688D01*
X100151809Y-85135286D01*
X104000565Y-85135286D01*
X104927400Y-86062122D01*
X105854235Y-85135286D01*
X107400565Y-85135286D01*
X108327400Y-86062122D01*
X109254235Y-85135286D01*
X109084161Y-84877560D01*
X108701126Y-84766217D01*
X108303728Y-84731739D01*
X107907241Y-84775452D01*
X107570639Y-84877560D01*
X107400565Y-85135286D01*
X105854235Y-85135286D01*
X105684161Y-84877560D01*
X105301126Y-84766217D01*
X104903728Y-84731739D01*
X104507241Y-84775452D01*
X104170639Y-84877560D01*
X104000565Y-85135286D01*
X100151809Y-85135286D01*
X100166861Y-85112759D01*
X100267496Y-84869805D01*
X100318800Y-84611886D01*
X100318800Y-84576212D01*
X112304600Y-84598899D01*
X112304600Y-84611886D01*
X112355904Y-84869805D01*
X112456539Y-85112759D01*
X112504600Y-85184688D01*
X112504600Y-85596608D01*
X112470020Y-85607098D01*
X112359706Y-85666063D01*
X112263015Y-85745415D01*
X112183663Y-85842106D01*
X112124698Y-85952420D01*
X112088388Y-86072118D01*
X112076128Y-86196600D01*
X112076128Y-87996600D01*
X112088388Y-88121082D01*
X112124698Y-88240780D01*
X112183663Y-88351094D01*
X112263015Y-88447785D01*
X112359706Y-88527137D01*
X112470020Y-88586102D01*
X112488327Y-88591656D01*
X112421888Y-88658095D01*
X112253901Y-88909505D01*
X112138189Y-89188857D01*
X112079200Y-89485416D01*
X112079200Y-89787784D01*
X112138189Y-90084343D01*
X112253901Y-90363695D01*
X112421888Y-90615105D01*
X112635695Y-90828912D01*
X112887105Y-90996899D01*
X113166457Y-91112611D01*
X113463016Y-91171600D01*
X113765384Y-91171600D01*
X114061943Y-91112611D01*
X114341295Y-90996899D01*
X114592705Y-90828912D01*
X114806512Y-90615105D01*
X114974499Y-90363695D01*
X115090211Y-90084343D01*
X115149200Y-89787784D01*
X115149200Y-89485416D01*
X115090211Y-89188857D01*
X114974499Y-88909505D01*
X114806512Y-88658095D01*
X114740073Y-88591656D01*
X114758380Y-88586102D01*
X114868694Y-88527137D01*
X114965385Y-88447785D01*
X115006641Y-88397514D01*
X118427765Y-88397514D01*
X118597839Y-88655240D01*
X118980874Y-88766583D01*
X119378272Y-88801061D01*
X119774759Y-88757348D01*
X120111361Y-88655240D01*
X120281435Y-88397514D01*
X121827765Y-88397514D01*
X121997839Y-88655240D01*
X122380874Y-88766583D01*
X122778272Y-88801061D01*
X123174759Y-88757348D01*
X123511361Y-88655240D01*
X123681435Y-88397514D01*
X122754600Y-87470678D01*
X121827765Y-88397514D01*
X120281435Y-88397514D01*
X119354600Y-87470678D01*
X118427765Y-88397514D01*
X115006641Y-88397514D01*
X115044737Y-88351094D01*
X115103702Y-88240780D01*
X115140012Y-88121082D01*
X115152272Y-87996600D01*
X115152272Y-86790072D01*
X117319939Y-86790072D01*
X117363652Y-87186559D01*
X117465760Y-87523161D01*
X117723486Y-87693235D01*
X118650322Y-86766400D01*
X120058878Y-86766400D01*
X120985714Y-87693235D01*
X121054600Y-87647777D01*
X121123486Y-87693235D01*
X122050322Y-86766400D01*
X123458878Y-86766400D01*
X124385714Y-87693235D01*
X124643440Y-87523161D01*
X124754783Y-87140126D01*
X124789261Y-86742728D01*
X124745548Y-86346241D01*
X124643440Y-86009639D01*
X124385714Y-85839565D01*
X123458878Y-86766400D01*
X122050322Y-86766400D01*
X121123486Y-85839565D01*
X121054600Y-85885023D01*
X120985714Y-85839565D01*
X120058878Y-86766400D01*
X118650322Y-86766400D01*
X117723486Y-85839565D01*
X117465760Y-86009639D01*
X117354417Y-86392674D01*
X117319939Y-86790072D01*
X115152272Y-86790072D01*
X115152272Y-86196600D01*
X115140012Y-86072118D01*
X115103702Y-85952420D01*
X115044737Y-85842106D01*
X114965385Y-85745415D01*
X114868694Y-85666063D01*
X114774600Y-85615768D01*
X114774600Y-85184688D01*
X114807609Y-85135286D01*
X118427765Y-85135286D01*
X119354600Y-86062122D01*
X120281435Y-85135286D01*
X121827765Y-85135286D01*
X122754600Y-86062122D01*
X123681435Y-85135286D01*
X123511361Y-84877560D01*
X123128326Y-84766217D01*
X122730928Y-84731739D01*
X122334441Y-84775452D01*
X121997839Y-84877560D01*
X121827765Y-85135286D01*
X120281435Y-85135286D01*
X120111361Y-84877560D01*
X119728326Y-84766217D01*
X119330928Y-84731739D01*
X118934441Y-84775452D01*
X118597839Y-84877560D01*
X118427765Y-85135286D01*
X114807609Y-85135286D01*
X114822661Y-85112759D01*
X114923296Y-84869805D01*
X114974600Y-84611886D01*
X114974600Y-84603953D01*
X126937926Y-84626597D01*
X126986304Y-84869805D01*
X127086939Y-85112759D01*
X127135000Y-85184688D01*
X127135000Y-85596608D01*
X127100420Y-85607098D01*
X126990106Y-85666063D01*
X126893415Y-85745415D01*
X126814063Y-85842106D01*
X126755098Y-85952420D01*
X126718788Y-86072118D01*
X126706528Y-86196600D01*
X126706528Y-87996600D01*
X126718788Y-88121082D01*
X126755098Y-88240780D01*
X126814063Y-88351094D01*
X126893415Y-88447785D01*
X126990106Y-88527137D01*
X127100420Y-88586102D01*
X127118727Y-88591656D01*
X127052288Y-88658095D01*
X126884301Y-88909505D01*
X126768589Y-89188857D01*
X126709600Y-89485416D01*
X126709600Y-89787784D01*
X126768589Y-90084343D01*
X126884301Y-90363695D01*
X127052288Y-90615105D01*
X127266095Y-90828912D01*
X127517505Y-90996899D01*
X127796857Y-91112611D01*
X128093416Y-91171600D01*
X128395784Y-91171600D01*
X128692343Y-91112611D01*
X128971695Y-90996899D01*
X129223105Y-90828912D01*
X129436912Y-90615105D01*
X129604899Y-90363695D01*
X129720611Y-90084343D01*
X129779600Y-89787784D01*
X129779600Y-89485416D01*
X129720611Y-89188857D01*
X129604899Y-88909505D01*
X129436912Y-88658095D01*
X129370473Y-88591656D01*
X129388780Y-88586102D01*
X129499094Y-88527137D01*
X129595785Y-88447785D01*
X129637041Y-88397514D01*
X133261565Y-88397514D01*
X133431639Y-88655240D01*
X133814674Y-88766583D01*
X134212072Y-88801061D01*
X134608559Y-88757348D01*
X134945161Y-88655240D01*
X135115235Y-88397514D01*
X136661565Y-88397514D01*
X136831639Y-88655240D01*
X137214674Y-88766583D01*
X137612072Y-88801061D01*
X138008559Y-88757348D01*
X138345161Y-88655240D01*
X138515235Y-88397514D01*
X137588400Y-87470678D01*
X136661565Y-88397514D01*
X135115235Y-88397514D01*
X134188400Y-87470678D01*
X133261565Y-88397514D01*
X129637041Y-88397514D01*
X129675137Y-88351094D01*
X129734102Y-88240780D01*
X129770412Y-88121082D01*
X129782672Y-87996600D01*
X129782672Y-86790072D01*
X132153739Y-86790072D01*
X132197452Y-87186559D01*
X132299560Y-87523161D01*
X132557286Y-87693235D01*
X133484122Y-86766400D01*
X134892678Y-86766400D01*
X135819514Y-87693235D01*
X135888400Y-87647777D01*
X135957286Y-87693235D01*
X136884122Y-86766400D01*
X138292678Y-86766400D01*
X139219514Y-87693235D01*
X139477240Y-87523161D01*
X139588583Y-87140126D01*
X139623061Y-86742728D01*
X139579348Y-86346241D01*
X139477240Y-86009639D01*
X139219514Y-85839565D01*
X138292678Y-86766400D01*
X136884122Y-86766400D01*
X135957286Y-85839565D01*
X135888400Y-85885023D01*
X135819514Y-85839565D01*
X134892678Y-86766400D01*
X133484122Y-86766400D01*
X132557286Y-85839565D01*
X132299560Y-86009639D01*
X132188217Y-86392674D01*
X132153739Y-86790072D01*
X129782672Y-86790072D01*
X129782672Y-86196600D01*
X129770412Y-86072118D01*
X129734102Y-85952420D01*
X129675137Y-85842106D01*
X129595785Y-85745415D01*
X129499094Y-85666063D01*
X129405000Y-85615768D01*
X129405000Y-85184688D01*
X129438009Y-85135286D01*
X133261565Y-85135286D01*
X134188400Y-86062122D01*
X135115235Y-85135286D01*
X136661565Y-85135286D01*
X137588400Y-86062122D01*
X138515235Y-85135286D01*
X138345161Y-84877560D01*
X137962126Y-84766217D01*
X137564728Y-84731739D01*
X137168241Y-84775452D01*
X136831639Y-84877560D01*
X136661565Y-85135286D01*
X135115235Y-85135286D01*
X134945161Y-84877560D01*
X134562126Y-84766217D01*
X134164728Y-84731739D01*
X133768241Y-84775452D01*
X133431639Y-84877560D01*
X133261565Y-85135286D01*
X129438009Y-85135286D01*
X129453061Y-85112759D01*
X129553696Y-84869805D01*
X129601071Y-84631638D01*
X141772059Y-84654676D01*
X141819904Y-84895205D01*
X141920539Y-85138159D01*
X141968601Y-85210089D01*
X141968601Y-85604313D01*
X141959420Y-85607098D01*
X141849106Y-85666063D01*
X141752415Y-85745415D01*
X141673063Y-85842106D01*
X141614098Y-85952420D01*
X141577788Y-86072118D01*
X141565528Y-86196600D01*
X141565528Y-87996600D01*
X141577788Y-88121082D01*
X141614098Y-88240780D01*
X141673063Y-88351094D01*
X141752415Y-88447785D01*
X141849106Y-88527137D01*
X141959420Y-88586102D01*
X141977727Y-88591656D01*
X141911288Y-88658095D01*
X141743301Y-88909505D01*
X141627589Y-89188857D01*
X141568600Y-89485416D01*
X141568600Y-89787784D01*
X141627589Y-90084343D01*
X141743301Y-90363695D01*
X141911288Y-90615105D01*
X142125095Y-90828912D01*
X142376505Y-90996899D01*
X142655857Y-91112611D01*
X142952416Y-91171600D01*
X143254784Y-91171600D01*
X143551343Y-91112611D01*
X143830695Y-90996899D01*
X144082105Y-90828912D01*
X144295912Y-90615105D01*
X144463899Y-90363695D01*
X144579611Y-90084343D01*
X144638600Y-89787784D01*
X144638600Y-89485416D01*
X144579611Y-89188857D01*
X144463899Y-88909505D01*
X144295912Y-88658095D01*
X144229473Y-88591656D01*
X144247780Y-88586102D01*
X144358094Y-88527137D01*
X144454785Y-88447785D01*
X144496041Y-88397514D01*
X148044165Y-88397514D01*
X148214239Y-88655240D01*
X148597274Y-88766583D01*
X148994672Y-88801061D01*
X149391159Y-88757348D01*
X149727761Y-88655240D01*
X149897835Y-88397514D01*
X151444165Y-88397514D01*
X151614239Y-88655240D01*
X151997274Y-88766583D01*
X152394672Y-88801061D01*
X152791159Y-88757348D01*
X153127761Y-88655240D01*
X153297835Y-88397514D01*
X152371000Y-87470678D01*
X151444165Y-88397514D01*
X149897835Y-88397514D01*
X148971000Y-87470678D01*
X148044165Y-88397514D01*
X144496041Y-88397514D01*
X144534137Y-88351094D01*
X144593102Y-88240780D01*
X144629412Y-88121082D01*
X144641672Y-87996600D01*
X144641672Y-86790072D01*
X146936339Y-86790072D01*
X146980052Y-87186559D01*
X147082160Y-87523161D01*
X147339886Y-87693235D01*
X148266722Y-86766400D01*
X149675278Y-86766400D01*
X150602114Y-87693235D01*
X150671000Y-87647777D01*
X150739886Y-87693235D01*
X151666722Y-86766400D01*
X153075278Y-86766400D01*
X154002114Y-87693235D01*
X154259840Y-87523161D01*
X154371183Y-87140126D01*
X154405661Y-86742728D01*
X154361948Y-86346241D01*
X154259840Y-86009639D01*
X154002114Y-85839565D01*
X153075278Y-86766400D01*
X151666722Y-86766400D01*
X150739886Y-85839565D01*
X150671000Y-85885023D01*
X150602114Y-85839565D01*
X149675278Y-86766400D01*
X148266722Y-86766400D01*
X147339886Y-85839565D01*
X147082160Y-86009639D01*
X146970817Y-86392674D01*
X146936339Y-86790072D01*
X144641672Y-86790072D01*
X144641672Y-86196600D01*
X144629412Y-86072118D01*
X144593102Y-85952420D01*
X144534137Y-85842106D01*
X144454785Y-85745415D01*
X144358094Y-85666063D01*
X144247780Y-85607098D01*
X144238600Y-85604313D01*
X144238600Y-85210088D01*
X144286661Y-85138159D01*
X144287851Y-85135286D01*
X148044165Y-85135286D01*
X148971000Y-86062122D01*
X149897835Y-85135286D01*
X151444165Y-85135286D01*
X152371000Y-86062122D01*
X153297835Y-85135286D01*
X153127761Y-84877560D01*
X152744726Y-84766217D01*
X152347328Y-84731739D01*
X151950841Y-84775452D01*
X151614239Y-84877560D01*
X151444165Y-85135286D01*
X149897835Y-85135286D01*
X149727761Y-84877560D01*
X149344726Y-84766217D01*
X148947328Y-84731739D01*
X148550841Y-84775452D01*
X148214239Y-84877560D01*
X148044165Y-85135286D01*
X144287851Y-85135286D01*
X144387296Y-84895205D01*
X144434139Y-84659715D01*
X156819577Y-84683159D01*
X156856704Y-84869805D01*
X156957339Y-85112759D01*
X157005400Y-85184688D01*
X157005400Y-85615768D01*
X156911306Y-85666063D01*
X156814615Y-85745415D01*
X156735263Y-85842106D01*
X156676298Y-85952420D01*
X156639988Y-86072118D01*
X156627728Y-86196600D01*
X156627728Y-87996600D01*
X156639988Y-88121082D01*
X156676298Y-88240780D01*
X156735263Y-88351094D01*
X156814615Y-88447785D01*
X156911306Y-88527137D01*
X157021620Y-88586102D01*
X157039927Y-88591656D01*
X156973488Y-88658095D01*
X156805501Y-88909505D01*
X156689789Y-89188857D01*
X156630800Y-89485416D01*
X156630800Y-89787784D01*
X156689789Y-90084343D01*
X156805501Y-90363695D01*
X156973488Y-90615105D01*
X157187295Y-90828912D01*
X157438705Y-90996899D01*
X157718057Y-91112611D01*
X158014616Y-91171600D01*
X158316984Y-91171600D01*
X158613543Y-91112611D01*
X158892895Y-90996899D01*
X159144305Y-90828912D01*
X159358112Y-90615105D01*
X159526099Y-90363695D01*
X159641811Y-90084343D01*
X159700800Y-89787784D01*
X159700800Y-89485416D01*
X159641811Y-89188857D01*
X159568972Y-89013009D01*
X177422469Y-89013009D01*
X177606542Y-89281917D01*
X178008826Y-89404542D01*
X178427303Y-89446329D01*
X178845891Y-89405672D01*
X179248505Y-89284135D01*
X179253858Y-89281917D01*
X179437931Y-89013009D01*
X178822436Y-88397514D01*
X190843165Y-88397514D01*
X191013239Y-88655240D01*
X191396274Y-88766583D01*
X191793672Y-88801061D01*
X192190159Y-88757348D01*
X192526761Y-88655240D01*
X192696835Y-88397514D01*
X194243165Y-88397514D01*
X194413239Y-88655240D01*
X194796274Y-88766583D01*
X195193672Y-88801061D01*
X195590159Y-88757348D01*
X195926761Y-88655240D01*
X196096835Y-88397514D01*
X195170000Y-87470678D01*
X194243165Y-88397514D01*
X192696835Y-88397514D01*
X191770000Y-87470678D01*
X190843165Y-88397514D01*
X178822436Y-88397514D01*
X178430200Y-88005278D01*
X177422469Y-89013009D01*
X159568972Y-89013009D01*
X159526099Y-88909505D01*
X159358112Y-88658095D01*
X159291673Y-88591656D01*
X159309980Y-88586102D01*
X159420294Y-88527137D01*
X159516985Y-88447785D01*
X159596337Y-88351094D01*
X159655302Y-88240780D01*
X159691612Y-88121082D01*
X159703872Y-87996600D01*
X159703872Y-87298103D01*
X176284871Y-87298103D01*
X176325528Y-87716691D01*
X176447065Y-88119305D01*
X176449283Y-88124658D01*
X176718191Y-88308731D01*
X177725922Y-87301000D01*
X179134478Y-87301000D01*
X180142209Y-88308731D01*
X180411117Y-88124658D01*
X180533742Y-87722374D01*
X180575529Y-87303897D01*
X180534872Y-86885309D01*
X180506123Y-86790072D01*
X189735339Y-86790072D01*
X189779052Y-87186559D01*
X189881160Y-87523161D01*
X190138886Y-87693235D01*
X191065722Y-86766400D01*
X192474278Y-86766400D01*
X193401114Y-87693235D01*
X193470000Y-87647777D01*
X193538886Y-87693235D01*
X194465722Y-86766400D01*
X195874278Y-86766400D01*
X196801114Y-87693235D01*
X197058840Y-87523161D01*
X197170183Y-87140126D01*
X197204661Y-86742728D01*
X197160948Y-86346241D01*
X197058840Y-86009639D01*
X196801114Y-85839565D01*
X195874278Y-86766400D01*
X194465722Y-86766400D01*
X193538886Y-85839565D01*
X193470000Y-85885023D01*
X193401114Y-85839565D01*
X192474278Y-86766400D01*
X191065722Y-86766400D01*
X190138886Y-85839565D01*
X189881160Y-86009639D01*
X189769817Y-86392674D01*
X189735339Y-86790072D01*
X180506123Y-86790072D01*
X180413335Y-86482695D01*
X180411117Y-86477342D01*
X180142209Y-86293269D01*
X179134478Y-87301000D01*
X177725922Y-87301000D01*
X176718191Y-86293269D01*
X176449283Y-86477342D01*
X176326658Y-86879626D01*
X176284871Y-87298103D01*
X159703872Y-87298103D01*
X159703872Y-86196600D01*
X159691612Y-86072118D01*
X159655302Y-85952420D01*
X159596337Y-85842106D01*
X159516985Y-85745415D01*
X159420294Y-85666063D01*
X159309980Y-85607098D01*
X159275400Y-85596608D01*
X159275400Y-85588991D01*
X177422469Y-85588991D01*
X178430200Y-86596722D01*
X179437931Y-85588991D01*
X179253858Y-85320083D01*
X178851574Y-85197458D01*
X178433097Y-85155671D01*
X178014509Y-85196328D01*
X177611895Y-85317865D01*
X177606542Y-85320083D01*
X177422469Y-85588991D01*
X159275400Y-85588991D01*
X159275400Y-85184688D01*
X159323461Y-85112759D01*
X159424096Y-84869805D01*
X159460229Y-84688157D01*
X191590008Y-84748973D01*
X191349841Y-84775452D01*
X191013239Y-84877560D01*
X190843165Y-85135286D01*
X191770000Y-86062122D01*
X192696835Y-85135286D01*
X192526761Y-84877560D01*
X192143726Y-84766217D01*
X191952892Y-84749660D01*
X194932620Y-84755300D01*
X194749841Y-84775452D01*
X194413239Y-84877560D01*
X194243165Y-85135286D01*
X195170000Y-86062122D01*
X196096835Y-85135286D01*
X195926761Y-84877560D01*
X195543726Y-84766217D01*
X195428724Y-84756240D01*
X199335293Y-84763634D01*
X199376304Y-84969805D01*
X199476939Y-85212759D01*
X199525000Y-85284688D01*
X199525000Y-85604313D01*
X199515820Y-85607098D01*
X199405506Y-85666063D01*
X199308815Y-85745415D01*
X199229463Y-85842106D01*
X199170498Y-85952420D01*
X199134188Y-86072118D01*
X199121928Y-86196600D01*
X199121928Y-87996600D01*
X199134188Y-88121082D01*
X199170498Y-88240780D01*
X199229463Y-88351094D01*
X199308815Y-88447785D01*
X199405506Y-88527137D01*
X199515820Y-88586102D01*
X199534127Y-88591656D01*
X199467688Y-88658095D01*
X199299701Y-88909505D01*
X199183989Y-89188857D01*
X199125000Y-89485416D01*
X199125000Y-89787784D01*
X199183989Y-90084343D01*
X199299701Y-90363695D01*
X199467688Y-90615105D01*
X199681495Y-90828912D01*
X199932905Y-90996899D01*
X200212257Y-91112611D01*
X200508816Y-91171600D01*
X200811184Y-91171600D01*
X201107743Y-91112611D01*
X201387095Y-90996899D01*
X201638505Y-90828912D01*
X201852312Y-90615105D01*
X202020299Y-90363695D01*
X202136011Y-90084343D01*
X202195000Y-89787784D01*
X202195000Y-89485416D01*
X202136011Y-89188857D01*
X202020299Y-88909505D01*
X201852312Y-88658095D01*
X201785873Y-88591656D01*
X201804180Y-88586102D01*
X201914494Y-88527137D01*
X202011185Y-88447785D01*
X202052441Y-88397514D01*
X206083165Y-88397514D01*
X206253239Y-88655240D01*
X206636274Y-88766583D01*
X207033672Y-88801061D01*
X207430159Y-88757348D01*
X207766761Y-88655240D01*
X207936835Y-88397514D01*
X209483165Y-88397514D01*
X209653239Y-88655240D01*
X210036274Y-88766583D01*
X210433672Y-88801061D01*
X210830159Y-88757348D01*
X211166761Y-88655240D01*
X211336835Y-88397514D01*
X210410000Y-87470678D01*
X209483165Y-88397514D01*
X207936835Y-88397514D01*
X207010000Y-87470678D01*
X206083165Y-88397514D01*
X202052441Y-88397514D01*
X202090537Y-88351094D01*
X202149502Y-88240780D01*
X202185812Y-88121082D01*
X202198072Y-87996600D01*
X202198072Y-86790072D01*
X204975339Y-86790072D01*
X205019052Y-87186559D01*
X205121160Y-87523161D01*
X205378886Y-87693235D01*
X206305722Y-86766400D01*
X207714278Y-86766400D01*
X208641114Y-87693235D01*
X208710000Y-87647777D01*
X208778886Y-87693235D01*
X209705722Y-86766400D01*
X211114278Y-86766400D01*
X212041114Y-87693235D01*
X212298840Y-87523161D01*
X212410183Y-87140126D01*
X212444661Y-86742728D01*
X212400948Y-86346241D01*
X212298840Y-86009639D01*
X212041114Y-85839565D01*
X211114278Y-86766400D01*
X209705722Y-86766400D01*
X208778886Y-85839565D01*
X208710000Y-85885023D01*
X208641114Y-85839565D01*
X207714278Y-86766400D01*
X206305722Y-86766400D01*
X205378886Y-85839565D01*
X205121160Y-86009639D01*
X205009817Y-86392674D01*
X204975339Y-86790072D01*
X202198072Y-86790072D01*
X202198072Y-86196600D01*
X202185812Y-86072118D01*
X202149502Y-85952420D01*
X202090537Y-85842106D01*
X202011185Y-85745415D01*
X201914494Y-85666063D01*
X201804180Y-85607098D01*
X201795000Y-85604313D01*
X201795000Y-85284688D01*
X201843061Y-85212759D01*
X201943696Y-84969805D01*
X201983709Y-84768647D01*
X206583571Y-84777354D01*
X206253239Y-84877560D01*
X206083165Y-85135286D01*
X207010000Y-86062122D01*
X207936835Y-85135286D01*
X207766761Y-84877560D01*
X207427534Y-84778951D01*
X209962488Y-84783750D01*
X209653239Y-84877560D01*
X209483165Y-85135286D01*
X210410000Y-86062122D01*
X211336835Y-85135286D01*
X211166761Y-84877560D01*
X210849819Y-84785429D01*
X214581034Y-84792492D01*
X214616304Y-84969805D01*
X214716939Y-85212759D01*
X214765001Y-85284689D01*
X214765001Y-85604313D01*
X214755820Y-85607098D01*
X214645506Y-85666063D01*
X214548815Y-85745415D01*
X214469463Y-85842106D01*
X214410498Y-85952420D01*
X214374188Y-86072118D01*
X214361928Y-86196600D01*
X214361928Y-87996600D01*
X214374188Y-88121082D01*
X214410498Y-88240780D01*
X214469463Y-88351094D01*
X214548815Y-88447785D01*
X214645506Y-88527137D01*
X214755820Y-88586102D01*
X214774127Y-88591656D01*
X214707688Y-88658095D01*
X214539701Y-88909505D01*
X214423989Y-89188857D01*
X214365000Y-89485416D01*
X214365000Y-89787784D01*
X214423989Y-90084343D01*
X214539701Y-90363695D01*
X214707688Y-90615105D01*
X214921495Y-90828912D01*
X215172905Y-90996899D01*
X215452257Y-91112611D01*
X215748816Y-91171600D01*
X216051184Y-91171600D01*
X216347743Y-91112611D01*
X216627095Y-90996899D01*
X216878505Y-90828912D01*
X217092312Y-90615105D01*
X217260299Y-90363695D01*
X217376011Y-90084343D01*
X217435000Y-89787784D01*
X217435000Y-89485416D01*
X217376011Y-89188857D01*
X217260299Y-88909505D01*
X217092312Y-88658095D01*
X217025873Y-88591656D01*
X217044180Y-88586102D01*
X217154494Y-88527137D01*
X217251185Y-88447785D01*
X217292441Y-88397514D01*
X221323165Y-88397514D01*
X221493239Y-88655240D01*
X221876274Y-88766583D01*
X222273672Y-88801061D01*
X222670159Y-88757348D01*
X223006761Y-88655240D01*
X223176835Y-88397514D01*
X224723165Y-88397514D01*
X224893239Y-88655240D01*
X225276274Y-88766583D01*
X225673672Y-88801061D01*
X226070159Y-88757348D01*
X226406761Y-88655240D01*
X226576835Y-88397514D01*
X225650000Y-87470678D01*
X224723165Y-88397514D01*
X223176835Y-88397514D01*
X222250000Y-87470678D01*
X221323165Y-88397514D01*
X217292441Y-88397514D01*
X217330537Y-88351094D01*
X217389502Y-88240780D01*
X217425812Y-88121082D01*
X217438072Y-87996600D01*
X217438072Y-86790072D01*
X220215339Y-86790072D01*
X220259052Y-87186559D01*
X220361160Y-87523161D01*
X220618886Y-87693235D01*
X221545722Y-86766400D01*
X222954278Y-86766400D01*
X223881114Y-87693235D01*
X223950000Y-87647777D01*
X224018886Y-87693235D01*
X224945722Y-86766400D01*
X226354278Y-86766400D01*
X227281114Y-87693235D01*
X227538840Y-87523161D01*
X227650183Y-87140126D01*
X227684661Y-86742728D01*
X227640948Y-86346241D01*
X227538840Y-86009639D01*
X227281114Y-85839565D01*
X226354278Y-86766400D01*
X224945722Y-86766400D01*
X224018886Y-85839565D01*
X223950000Y-85885023D01*
X223881114Y-85839565D01*
X222954278Y-86766400D01*
X221545722Y-86766400D01*
X220618886Y-85839565D01*
X220361160Y-86009639D01*
X220249817Y-86392674D01*
X220215339Y-86790072D01*
X217438072Y-86790072D01*
X217438072Y-86196600D01*
X217425812Y-86072118D01*
X217389502Y-85952420D01*
X217330537Y-85842106D01*
X217251185Y-85745415D01*
X217154494Y-85666063D01*
X217044180Y-85607098D01*
X217035000Y-85604313D01*
X217035000Y-85284688D01*
X217083061Y-85212759D01*
X217183696Y-84969805D01*
X217217973Y-84797483D01*
X221729067Y-84806022D01*
X221493239Y-84877560D01*
X221323165Y-85135286D01*
X222250000Y-86062122D01*
X223176835Y-85135286D01*
X223006761Y-84877560D01*
X222767422Y-84807987D01*
X225107983Y-84812418D01*
X224893239Y-84877560D01*
X224723165Y-85135286D01*
X225650000Y-86062122D01*
X226576835Y-85135286D01*
X226406761Y-84877560D01*
X226189706Y-84814465D01*
X229826774Y-84821350D01*
X229856304Y-84969805D01*
X229956939Y-85212759D01*
X230005000Y-85284688D01*
X230005000Y-85604313D01*
X229995820Y-85607098D01*
X229885506Y-85666063D01*
X229788815Y-85745415D01*
X229709463Y-85842106D01*
X229650498Y-85952420D01*
X229614188Y-86072118D01*
X229601928Y-86196600D01*
X229601928Y-87996600D01*
X229614188Y-88121082D01*
X229650498Y-88240780D01*
X229709463Y-88351094D01*
X229788815Y-88447785D01*
X229885506Y-88527137D01*
X229995820Y-88586102D01*
X230014127Y-88591656D01*
X229947688Y-88658095D01*
X229779701Y-88909505D01*
X229663989Y-89188857D01*
X229605000Y-89485416D01*
X229605000Y-89787784D01*
X229663989Y-90084343D01*
X229779701Y-90363695D01*
X229947688Y-90615105D01*
X230161495Y-90828912D01*
X230412905Y-90996899D01*
X230692257Y-91112611D01*
X230988816Y-91171600D01*
X231291184Y-91171600D01*
X231587743Y-91112611D01*
X231867095Y-90996899D01*
X232118505Y-90828912D01*
X232332312Y-90615105D01*
X232500299Y-90363695D01*
X232616011Y-90084343D01*
X232675000Y-89787784D01*
X232675000Y-89485416D01*
X232616011Y-89188857D01*
X232500299Y-88909505D01*
X232332312Y-88658095D01*
X232265873Y-88591656D01*
X232284180Y-88586102D01*
X232394494Y-88527137D01*
X232491185Y-88447785D01*
X232570537Y-88351094D01*
X232629502Y-88240780D01*
X232665812Y-88121082D01*
X232678072Y-87996600D01*
X232678072Y-86196600D01*
X232665812Y-86072118D01*
X232629502Y-85952420D01*
X232570537Y-85842106D01*
X232491185Y-85745415D01*
X232394494Y-85666063D01*
X232284180Y-85607098D01*
X232275000Y-85604313D01*
X232275000Y-85284688D01*
X232323061Y-85212759D01*
X232423696Y-84969805D01*
X232452238Y-84826319D01*
X236098011Y-84833220D01*
X236087990Y-103126451D01*
X232450648Y-103123908D01*
X232475000Y-103001486D01*
X232475000Y-102738514D01*
X232423696Y-102480595D01*
X232323061Y-102237641D01*
X232275000Y-102165712D01*
X232275000Y-101822287D01*
X232284180Y-101819502D01*
X232394494Y-101760537D01*
X232491185Y-101681185D01*
X232570537Y-101584494D01*
X232629502Y-101474180D01*
X232665812Y-101354482D01*
X232678072Y-101230000D01*
X232678072Y-99430000D01*
X232665812Y-99305518D01*
X232629502Y-99185820D01*
X232570537Y-99075506D01*
X232491185Y-98978815D01*
X232394494Y-98899463D01*
X232284180Y-98840498D01*
X232265873Y-98834944D01*
X232332312Y-98768505D01*
X232500299Y-98517095D01*
X232616011Y-98237743D01*
X232675000Y-97941184D01*
X232675000Y-97638816D01*
X232616011Y-97342257D01*
X232500299Y-97062905D01*
X232332312Y-96811495D01*
X232118505Y-96597688D01*
X231867095Y-96429701D01*
X231587743Y-96313989D01*
X231291184Y-96255000D01*
X230988816Y-96255000D01*
X230692257Y-96313989D01*
X230412905Y-96429701D01*
X230161495Y-96597688D01*
X229947688Y-96811495D01*
X229779701Y-97062905D01*
X229663989Y-97342257D01*
X229605000Y-97638816D01*
X229605000Y-97941184D01*
X229663989Y-98237743D01*
X229779701Y-98517095D01*
X229947688Y-98768505D01*
X230014127Y-98834944D01*
X229995820Y-98840498D01*
X229885506Y-98899463D01*
X229788815Y-98978815D01*
X229709463Y-99075506D01*
X229650498Y-99185820D01*
X229614188Y-99305518D01*
X229601928Y-99430000D01*
X229601928Y-101230000D01*
X229614188Y-101354482D01*
X229650498Y-101474180D01*
X229709463Y-101584494D01*
X229788815Y-101681185D01*
X229885506Y-101760537D01*
X229995820Y-101819502D01*
X230005000Y-101822287D01*
X230005000Y-102165712D01*
X229956939Y-102237641D01*
X229856304Y-102480595D01*
X229805000Y-102738514D01*
X229805000Y-103001486D01*
X229828987Y-103122075D01*
X217212768Y-103113253D01*
X217235000Y-103001486D01*
X217235000Y-102738514D01*
X217183696Y-102480595D01*
X217083061Y-102237641D01*
X217058655Y-102201114D01*
X221323165Y-102201114D01*
X221493239Y-102458840D01*
X221876274Y-102570183D01*
X222273672Y-102604661D01*
X222670159Y-102560948D01*
X223006761Y-102458840D01*
X223176835Y-102201114D01*
X224723165Y-102201114D01*
X224893239Y-102458840D01*
X225276274Y-102570183D01*
X225673672Y-102604661D01*
X226070159Y-102560948D01*
X226406761Y-102458840D01*
X226576835Y-102201114D01*
X225650000Y-101274278D01*
X224723165Y-102201114D01*
X223176835Y-102201114D01*
X222250000Y-101274278D01*
X221323165Y-102201114D01*
X217058655Y-102201114D01*
X217035000Y-102165712D01*
X217035000Y-101822287D01*
X217044180Y-101819502D01*
X217154494Y-101760537D01*
X217251185Y-101681185D01*
X217330537Y-101584494D01*
X217389502Y-101474180D01*
X217425812Y-101354482D01*
X217438072Y-101230000D01*
X217438072Y-100593672D01*
X220215339Y-100593672D01*
X220259052Y-100990159D01*
X220361160Y-101326761D01*
X220618886Y-101496835D01*
X221545722Y-100570000D01*
X222954278Y-100570000D01*
X223881114Y-101496835D01*
X223950000Y-101451377D01*
X224018886Y-101496835D01*
X224945722Y-100570000D01*
X226354278Y-100570000D01*
X227281114Y-101496835D01*
X227538840Y-101326761D01*
X227650183Y-100943726D01*
X227684661Y-100546328D01*
X227640948Y-100149841D01*
X227538840Y-99813239D01*
X227281114Y-99643165D01*
X226354278Y-100570000D01*
X224945722Y-100570000D01*
X224018886Y-99643165D01*
X223950000Y-99688623D01*
X223881114Y-99643165D01*
X222954278Y-100570000D01*
X221545722Y-100570000D01*
X220618886Y-99643165D01*
X220361160Y-99813239D01*
X220249817Y-100196274D01*
X220215339Y-100593672D01*
X217438072Y-100593672D01*
X217438072Y-99430000D01*
X217425812Y-99305518D01*
X217389502Y-99185820D01*
X217330537Y-99075506D01*
X217251185Y-98978815D01*
X217202532Y-98938886D01*
X221323165Y-98938886D01*
X222250000Y-99865722D01*
X223176835Y-98938886D01*
X224723165Y-98938886D01*
X225650000Y-99865722D01*
X226576835Y-98938886D01*
X226406761Y-98681160D01*
X226023726Y-98569817D01*
X225626328Y-98535339D01*
X225229841Y-98579052D01*
X224893239Y-98681160D01*
X224723165Y-98938886D01*
X223176835Y-98938886D01*
X223006761Y-98681160D01*
X222623726Y-98569817D01*
X222226328Y-98535339D01*
X221829841Y-98579052D01*
X221493239Y-98681160D01*
X221323165Y-98938886D01*
X217202532Y-98938886D01*
X217154494Y-98899463D01*
X217044180Y-98840498D01*
X217025873Y-98834944D01*
X217092312Y-98768505D01*
X217260299Y-98517095D01*
X217376011Y-98237743D01*
X217435000Y-97941184D01*
X217435000Y-97638816D01*
X217376011Y-97342257D01*
X217260299Y-97062905D01*
X217092312Y-96811495D01*
X216878505Y-96597688D01*
X216627095Y-96429701D01*
X216347743Y-96313989D01*
X216051184Y-96255000D01*
X215748816Y-96255000D01*
X215452257Y-96313989D01*
X215172905Y-96429701D01*
X214921495Y-96597688D01*
X214707688Y-96811495D01*
X214539701Y-97062905D01*
X214423989Y-97342257D01*
X214365000Y-97638816D01*
X214365000Y-97941184D01*
X214423989Y-98237743D01*
X214539701Y-98517095D01*
X214707688Y-98768505D01*
X214774127Y-98834944D01*
X214755820Y-98840498D01*
X214645506Y-98899463D01*
X214548815Y-98978815D01*
X214469463Y-99075506D01*
X214410498Y-99185820D01*
X214374188Y-99305518D01*
X214361928Y-99430000D01*
X214361928Y-101230000D01*
X214374188Y-101354482D01*
X214410498Y-101474180D01*
X214469463Y-101584494D01*
X214548815Y-101681185D01*
X214645506Y-101760537D01*
X214755820Y-101819502D01*
X214765001Y-101822287D01*
X214765001Y-102165711D01*
X214716939Y-102237641D01*
X214616304Y-102480595D01*
X214565000Y-102738514D01*
X214565000Y-103001486D01*
X214586867Y-103111417D01*
X201974887Y-103102599D01*
X201995000Y-103001486D01*
X201995000Y-102738514D01*
X201943696Y-102480595D01*
X201843061Y-102237641D01*
X201818655Y-102201114D01*
X206083165Y-102201114D01*
X206253239Y-102458840D01*
X206636274Y-102570183D01*
X207033672Y-102604661D01*
X207430159Y-102560948D01*
X207766761Y-102458840D01*
X207936835Y-102201114D01*
X209483165Y-102201114D01*
X209653239Y-102458840D01*
X210036274Y-102570183D01*
X210433672Y-102604661D01*
X210830159Y-102560948D01*
X211166761Y-102458840D01*
X211336835Y-102201114D01*
X210410000Y-101274278D01*
X209483165Y-102201114D01*
X207936835Y-102201114D01*
X207010000Y-101274278D01*
X206083165Y-102201114D01*
X201818655Y-102201114D01*
X201795000Y-102165712D01*
X201795000Y-101822287D01*
X201804180Y-101819502D01*
X201914494Y-101760537D01*
X202011185Y-101681185D01*
X202090537Y-101584494D01*
X202149502Y-101474180D01*
X202185812Y-101354482D01*
X202198072Y-101230000D01*
X202198072Y-100593672D01*
X204975339Y-100593672D01*
X205019052Y-100990159D01*
X205121160Y-101326761D01*
X205378886Y-101496835D01*
X206305722Y-100570000D01*
X207714278Y-100570000D01*
X208641114Y-101496835D01*
X208710000Y-101451377D01*
X208778886Y-101496835D01*
X209705722Y-100570000D01*
X211114278Y-100570000D01*
X212041114Y-101496835D01*
X212298840Y-101326761D01*
X212410183Y-100943726D01*
X212444661Y-100546328D01*
X212400948Y-100149841D01*
X212298840Y-99813239D01*
X212041114Y-99643165D01*
X211114278Y-100570000D01*
X209705722Y-100570000D01*
X208778886Y-99643165D01*
X208710000Y-99688623D01*
X208641114Y-99643165D01*
X207714278Y-100570000D01*
X206305722Y-100570000D01*
X205378886Y-99643165D01*
X205121160Y-99813239D01*
X205009817Y-100196274D01*
X204975339Y-100593672D01*
X202198072Y-100593672D01*
X202198072Y-99430000D01*
X202185812Y-99305518D01*
X202149502Y-99185820D01*
X202090537Y-99075506D01*
X202011185Y-98978815D01*
X201962532Y-98938886D01*
X206083165Y-98938886D01*
X207010000Y-99865722D01*
X207936835Y-98938886D01*
X209483165Y-98938886D01*
X210410000Y-99865722D01*
X211336835Y-98938886D01*
X211166761Y-98681160D01*
X210783726Y-98569817D01*
X210386328Y-98535339D01*
X209989841Y-98579052D01*
X209653239Y-98681160D01*
X209483165Y-98938886D01*
X207936835Y-98938886D01*
X207766761Y-98681160D01*
X207383726Y-98569817D01*
X206986328Y-98535339D01*
X206589841Y-98579052D01*
X206253239Y-98681160D01*
X206083165Y-98938886D01*
X201962532Y-98938886D01*
X201914494Y-98899463D01*
X201804180Y-98840498D01*
X201785873Y-98834944D01*
X201852312Y-98768505D01*
X202020299Y-98517095D01*
X202136011Y-98237743D01*
X202195000Y-97941184D01*
X202195000Y-97638816D01*
X202136011Y-97342257D01*
X202020299Y-97062905D01*
X201852312Y-96811495D01*
X201638505Y-96597688D01*
X201387095Y-96429701D01*
X201107743Y-96313989D01*
X200811184Y-96255000D01*
X200508816Y-96255000D01*
X200212257Y-96313989D01*
X199932905Y-96429701D01*
X199681495Y-96597688D01*
X199467688Y-96811495D01*
X199299701Y-97062905D01*
X199183989Y-97342257D01*
X199125000Y-97638816D01*
X199125000Y-97941184D01*
X199183989Y-98237743D01*
X199299701Y-98517095D01*
X199467688Y-98768505D01*
X199534127Y-98834944D01*
X199515820Y-98840498D01*
X199405506Y-98899463D01*
X199308815Y-98978815D01*
X199229463Y-99075506D01*
X199170498Y-99185820D01*
X199134188Y-99305518D01*
X199121928Y-99430000D01*
X199121928Y-101230000D01*
X199134188Y-101354482D01*
X199170498Y-101474180D01*
X199229463Y-101584494D01*
X199308815Y-101681185D01*
X199405506Y-101760537D01*
X199515820Y-101819502D01*
X199525001Y-101822287D01*
X199525001Y-102165711D01*
X199476939Y-102237641D01*
X199376304Y-102480595D01*
X199325000Y-102738514D01*
X199325000Y-103001486D01*
X199344747Y-103100760D01*
X159475400Y-103072883D01*
X159475400Y-102865514D01*
X159424096Y-102607595D01*
X159323461Y-102364641D01*
X159275400Y-102292712D01*
X159275400Y-102201114D01*
X190843165Y-102201114D01*
X191013239Y-102458840D01*
X191396274Y-102570183D01*
X191793672Y-102604661D01*
X192190159Y-102560948D01*
X192526761Y-102458840D01*
X192696835Y-102201114D01*
X194243165Y-102201114D01*
X194413239Y-102458840D01*
X194796274Y-102570183D01*
X195193672Y-102604661D01*
X195590159Y-102560948D01*
X195926761Y-102458840D01*
X196096835Y-102201114D01*
X195170000Y-101274278D01*
X194243165Y-102201114D01*
X192696835Y-102201114D01*
X191770000Y-101274278D01*
X190843165Y-102201114D01*
X159275400Y-102201114D01*
X159275400Y-101873087D01*
X159284580Y-101870302D01*
X159394894Y-101811337D01*
X159491585Y-101731985D01*
X159570937Y-101635294D01*
X159629902Y-101524980D01*
X159666212Y-101405282D01*
X159678472Y-101280800D01*
X159678472Y-100593672D01*
X189735339Y-100593672D01*
X189779052Y-100990159D01*
X189881160Y-101326761D01*
X190138886Y-101496835D01*
X191065722Y-100570000D01*
X192474278Y-100570000D01*
X193401114Y-101496835D01*
X193470000Y-101451377D01*
X193538886Y-101496835D01*
X194465722Y-100570000D01*
X195874278Y-100570000D01*
X196801114Y-101496835D01*
X197058840Y-101326761D01*
X197170183Y-100943726D01*
X197204661Y-100546328D01*
X197160948Y-100149841D01*
X197058840Y-99813239D01*
X196801114Y-99643165D01*
X195874278Y-100570000D01*
X194465722Y-100570000D01*
X193538886Y-99643165D01*
X193470000Y-99688623D01*
X193401114Y-99643165D01*
X192474278Y-100570000D01*
X191065722Y-100570000D01*
X190138886Y-99643165D01*
X189881160Y-99813239D01*
X189769817Y-100196274D01*
X189735339Y-100593672D01*
X159678472Y-100593672D01*
X159678472Y-99480800D01*
X159666212Y-99356318D01*
X159629902Y-99236620D01*
X159570937Y-99126306D01*
X159491585Y-99029615D01*
X159394894Y-98950263D01*
X159284580Y-98891298D01*
X159266273Y-98885744D01*
X159332712Y-98819305D01*
X159500699Y-98567895D01*
X159616411Y-98288543D01*
X159675400Y-97991984D01*
X159675400Y-97689616D01*
X159616411Y-97393057D01*
X159500699Y-97113705D01*
X159485342Y-97090721D01*
X176295200Y-97090721D01*
X176295200Y-97511279D01*
X176377247Y-97923756D01*
X176538188Y-98312302D01*
X176771837Y-98661983D01*
X177069217Y-98959363D01*
X177418898Y-99193012D01*
X177807444Y-99353953D01*
X178219921Y-99436000D01*
X178640479Y-99436000D01*
X179052956Y-99353953D01*
X179441502Y-99193012D01*
X179791183Y-98959363D01*
X179811660Y-98938886D01*
X190843165Y-98938886D01*
X191770000Y-99865722D01*
X192696835Y-98938886D01*
X194243165Y-98938886D01*
X195170000Y-99865722D01*
X196096835Y-98938886D01*
X195926761Y-98681160D01*
X195543726Y-98569817D01*
X195146328Y-98535339D01*
X194749841Y-98579052D01*
X194413239Y-98681160D01*
X194243165Y-98938886D01*
X192696835Y-98938886D01*
X192526761Y-98681160D01*
X192143726Y-98569817D01*
X191746328Y-98535339D01*
X191349841Y-98579052D01*
X191013239Y-98681160D01*
X190843165Y-98938886D01*
X179811660Y-98938886D01*
X180088563Y-98661983D01*
X180322212Y-98312302D01*
X180483153Y-97923756D01*
X180565200Y-97511279D01*
X180565200Y-97090721D01*
X180483153Y-96678244D01*
X180322212Y-96289698D01*
X180088563Y-95940017D01*
X179791183Y-95642637D01*
X179441502Y-95408988D01*
X179052956Y-95248047D01*
X178640479Y-95166000D01*
X178219921Y-95166000D01*
X177807444Y-95248047D01*
X177418898Y-95408988D01*
X177069217Y-95642637D01*
X176771837Y-95940017D01*
X176538188Y-96289698D01*
X176377247Y-96678244D01*
X176295200Y-97090721D01*
X159485342Y-97090721D01*
X159332712Y-96862295D01*
X159118905Y-96648488D01*
X158867495Y-96480501D01*
X158588143Y-96364789D01*
X158291584Y-96305800D01*
X157989216Y-96305800D01*
X157692657Y-96364789D01*
X157413305Y-96480501D01*
X157161895Y-96648488D01*
X156948088Y-96862295D01*
X156780101Y-97113705D01*
X156664389Y-97393057D01*
X156605400Y-97689616D01*
X156605400Y-97991984D01*
X156664389Y-98288543D01*
X156780101Y-98567895D01*
X156948088Y-98819305D01*
X157014527Y-98885744D01*
X156996220Y-98891298D01*
X156885906Y-98950263D01*
X156789215Y-99029615D01*
X156709863Y-99126306D01*
X156650898Y-99236620D01*
X156614588Y-99356318D01*
X156602328Y-99480800D01*
X156602328Y-101280800D01*
X156614588Y-101405282D01*
X156650898Y-101524980D01*
X156709863Y-101635294D01*
X156789215Y-101731985D01*
X156885906Y-101811337D01*
X156996220Y-101870302D01*
X157005401Y-101873087D01*
X157005401Y-102292711D01*
X156957339Y-102364641D01*
X156856704Y-102607595D01*
X156805400Y-102865514D01*
X156805400Y-103071016D01*
X144438600Y-103062370D01*
X144438600Y-102865514D01*
X144387296Y-102607595D01*
X144286661Y-102364641D01*
X144263124Y-102329414D01*
X148044165Y-102329414D01*
X148214239Y-102587140D01*
X148597274Y-102698483D01*
X148994672Y-102732961D01*
X149391159Y-102689248D01*
X149727761Y-102587140D01*
X149897835Y-102329414D01*
X151444165Y-102329414D01*
X151614239Y-102587140D01*
X151997274Y-102698483D01*
X152394672Y-102732961D01*
X152791159Y-102689248D01*
X153127761Y-102587140D01*
X153297835Y-102329414D01*
X152371000Y-101402578D01*
X151444165Y-102329414D01*
X149897835Y-102329414D01*
X148971000Y-101402578D01*
X148044165Y-102329414D01*
X144263124Y-102329414D01*
X144238600Y-102292712D01*
X144238600Y-101873087D01*
X144247780Y-101870302D01*
X144358094Y-101811337D01*
X144454785Y-101731985D01*
X144534137Y-101635294D01*
X144593102Y-101524980D01*
X144629412Y-101405282D01*
X144641672Y-101280800D01*
X144641672Y-100721972D01*
X146936339Y-100721972D01*
X146980052Y-101118459D01*
X147082160Y-101455061D01*
X147339886Y-101625135D01*
X148266722Y-100698300D01*
X149675278Y-100698300D01*
X150602114Y-101625135D01*
X150671000Y-101579677D01*
X150739886Y-101625135D01*
X151666722Y-100698300D01*
X153075278Y-100698300D01*
X154002114Y-101625135D01*
X154259840Y-101455061D01*
X154371183Y-101072026D01*
X154405661Y-100674628D01*
X154361948Y-100278141D01*
X154259840Y-99941539D01*
X154002114Y-99771465D01*
X153075278Y-100698300D01*
X151666722Y-100698300D01*
X150739886Y-99771465D01*
X150671000Y-99816923D01*
X150602114Y-99771465D01*
X149675278Y-100698300D01*
X148266722Y-100698300D01*
X147339886Y-99771465D01*
X147082160Y-99941539D01*
X146970817Y-100324574D01*
X146936339Y-100721972D01*
X144641672Y-100721972D01*
X144641672Y-99480800D01*
X144629412Y-99356318D01*
X144593102Y-99236620D01*
X144534137Y-99126306D01*
X144485619Y-99067186D01*
X148044165Y-99067186D01*
X148971000Y-99994022D01*
X149897835Y-99067186D01*
X151444165Y-99067186D01*
X152371000Y-99994022D01*
X153297835Y-99067186D01*
X153127761Y-98809460D01*
X152744726Y-98698117D01*
X152347328Y-98663639D01*
X151950841Y-98707352D01*
X151614239Y-98809460D01*
X151444165Y-99067186D01*
X149897835Y-99067186D01*
X149727761Y-98809460D01*
X149344726Y-98698117D01*
X148947328Y-98663639D01*
X148550841Y-98707352D01*
X148214239Y-98809460D01*
X148044165Y-99067186D01*
X144485619Y-99067186D01*
X144454785Y-99029615D01*
X144358094Y-98950263D01*
X144247780Y-98891298D01*
X144229473Y-98885744D01*
X144295912Y-98819305D01*
X144463899Y-98567895D01*
X144579611Y-98288543D01*
X144638600Y-97991984D01*
X144638600Y-97689616D01*
X144579611Y-97393057D01*
X144463899Y-97113705D01*
X144295912Y-96862295D01*
X144082105Y-96648488D01*
X143830695Y-96480501D01*
X143551343Y-96364789D01*
X143254784Y-96305800D01*
X142952416Y-96305800D01*
X142655857Y-96364789D01*
X142376505Y-96480501D01*
X142125095Y-96648488D01*
X141911288Y-96862295D01*
X141743301Y-97113705D01*
X141627589Y-97393057D01*
X141568600Y-97689616D01*
X141568600Y-97991984D01*
X141627589Y-98288543D01*
X141743301Y-98567895D01*
X141911288Y-98819305D01*
X141977727Y-98885744D01*
X141959420Y-98891298D01*
X141849106Y-98950263D01*
X141752415Y-99029615D01*
X141673063Y-99126306D01*
X141614098Y-99236620D01*
X141577788Y-99356318D01*
X141565528Y-99480800D01*
X141565528Y-101280800D01*
X141577788Y-101405282D01*
X141614098Y-101524980D01*
X141673063Y-101635294D01*
X141752415Y-101731985D01*
X141849106Y-101811337D01*
X141959420Y-101870302D01*
X141968600Y-101873087D01*
X141968600Y-102292712D01*
X141920539Y-102364641D01*
X141819904Y-102607595D01*
X141768600Y-102865514D01*
X141768600Y-103060503D01*
X129554200Y-103051962D01*
X129554200Y-102865514D01*
X129502896Y-102607595D01*
X129402261Y-102364641D01*
X129378724Y-102329414D01*
X133261565Y-102329414D01*
X133431639Y-102587140D01*
X133814674Y-102698483D01*
X134212072Y-102732961D01*
X134608559Y-102689248D01*
X134945161Y-102587140D01*
X135115235Y-102329414D01*
X136661565Y-102329414D01*
X136831639Y-102587140D01*
X137214674Y-102698483D01*
X137612072Y-102732961D01*
X138008559Y-102689248D01*
X138345161Y-102587140D01*
X138515235Y-102329414D01*
X137588400Y-101402578D01*
X136661565Y-102329414D01*
X135115235Y-102329414D01*
X134188400Y-101402578D01*
X133261565Y-102329414D01*
X129378724Y-102329414D01*
X129354200Y-102292712D01*
X129354200Y-101880792D01*
X129388780Y-101870302D01*
X129499094Y-101811337D01*
X129595785Y-101731985D01*
X129675137Y-101635294D01*
X129734102Y-101524980D01*
X129770412Y-101405282D01*
X129782672Y-101280800D01*
X129782672Y-100721972D01*
X132153739Y-100721972D01*
X132197452Y-101118459D01*
X132299560Y-101455061D01*
X132557286Y-101625135D01*
X133484122Y-100698300D01*
X134892678Y-100698300D01*
X135819514Y-101625135D01*
X135888400Y-101579677D01*
X135957286Y-101625135D01*
X136884122Y-100698300D01*
X138292678Y-100698300D01*
X139219514Y-101625135D01*
X139477240Y-101455061D01*
X139588583Y-101072026D01*
X139623061Y-100674628D01*
X139579348Y-100278141D01*
X139477240Y-99941539D01*
X139219514Y-99771465D01*
X138292678Y-100698300D01*
X136884122Y-100698300D01*
X135957286Y-99771465D01*
X135888400Y-99816923D01*
X135819514Y-99771465D01*
X134892678Y-100698300D01*
X133484122Y-100698300D01*
X132557286Y-99771465D01*
X132299560Y-99941539D01*
X132188217Y-100324574D01*
X132153739Y-100721972D01*
X129782672Y-100721972D01*
X129782672Y-99480800D01*
X129770412Y-99356318D01*
X129734102Y-99236620D01*
X129675137Y-99126306D01*
X129626619Y-99067186D01*
X133261565Y-99067186D01*
X134188400Y-99994022D01*
X135115235Y-99067186D01*
X136661565Y-99067186D01*
X137588400Y-99994022D01*
X138515235Y-99067186D01*
X138345161Y-98809460D01*
X137962126Y-98698117D01*
X137564728Y-98663639D01*
X137168241Y-98707352D01*
X136831639Y-98809460D01*
X136661565Y-99067186D01*
X135115235Y-99067186D01*
X134945161Y-98809460D01*
X134562126Y-98698117D01*
X134164728Y-98663639D01*
X133768241Y-98707352D01*
X133431639Y-98809460D01*
X133261565Y-99067186D01*
X129626619Y-99067186D01*
X129595785Y-99029615D01*
X129499094Y-98950263D01*
X129388780Y-98891298D01*
X129370473Y-98885744D01*
X129436912Y-98819305D01*
X129604899Y-98567895D01*
X129720611Y-98288543D01*
X129779600Y-97991984D01*
X129779600Y-97689616D01*
X129720611Y-97393057D01*
X129604899Y-97113705D01*
X129436912Y-96862295D01*
X129223105Y-96648488D01*
X128971695Y-96480501D01*
X128692343Y-96364789D01*
X128395784Y-96305800D01*
X128093416Y-96305800D01*
X127796857Y-96364789D01*
X127517505Y-96480501D01*
X127266095Y-96648488D01*
X127052288Y-96862295D01*
X126884301Y-97113705D01*
X126768589Y-97393057D01*
X126709600Y-97689616D01*
X126709600Y-97991984D01*
X126768589Y-98288543D01*
X126884301Y-98567895D01*
X127052288Y-98819305D01*
X127118727Y-98885744D01*
X127100420Y-98891298D01*
X126990106Y-98950263D01*
X126893415Y-99029615D01*
X126814063Y-99126306D01*
X126755098Y-99236620D01*
X126718788Y-99356318D01*
X126706528Y-99480800D01*
X126706528Y-101280800D01*
X126718788Y-101405282D01*
X126755098Y-101524980D01*
X126814063Y-101635294D01*
X126893415Y-101731985D01*
X126990106Y-101811337D01*
X127084200Y-101861632D01*
X127084200Y-102292712D01*
X127036139Y-102364641D01*
X126935504Y-102607595D01*
X126884200Y-102865514D01*
X126884200Y-103050095D01*
X114974600Y-103041768D01*
X114974600Y-102865514D01*
X114923296Y-102607595D01*
X114822661Y-102364641D01*
X114800000Y-102330726D01*
X114800000Y-102329414D01*
X118427765Y-102329414D01*
X118597839Y-102587140D01*
X118980874Y-102698483D01*
X119378272Y-102732961D01*
X119774759Y-102689248D01*
X120111361Y-102587140D01*
X120281435Y-102329414D01*
X121827765Y-102329414D01*
X121997839Y-102587140D01*
X122380874Y-102698483D01*
X122778272Y-102732961D01*
X123174759Y-102689248D01*
X123511361Y-102587140D01*
X123681435Y-102329414D01*
X122754600Y-101402578D01*
X121827765Y-102329414D01*
X120281435Y-102329414D01*
X119354600Y-101402578D01*
X118427765Y-102329414D01*
X114800000Y-102329414D01*
X114800000Y-101873087D01*
X114809180Y-101870302D01*
X114919494Y-101811337D01*
X115016185Y-101731985D01*
X115095537Y-101635294D01*
X115154502Y-101524980D01*
X115190812Y-101405282D01*
X115203072Y-101280800D01*
X115203072Y-100721972D01*
X117319939Y-100721972D01*
X117363652Y-101118459D01*
X117465760Y-101455061D01*
X117723486Y-101625135D01*
X118650322Y-100698300D01*
X120058878Y-100698300D01*
X120985714Y-101625135D01*
X121054600Y-101579677D01*
X121123486Y-101625135D01*
X122050322Y-100698300D01*
X123458878Y-100698300D01*
X124385714Y-101625135D01*
X124643440Y-101455061D01*
X124754783Y-101072026D01*
X124789261Y-100674628D01*
X124745548Y-100278141D01*
X124643440Y-99941539D01*
X124385714Y-99771465D01*
X123458878Y-100698300D01*
X122050322Y-100698300D01*
X121123486Y-99771465D01*
X121054600Y-99816923D01*
X120985714Y-99771465D01*
X120058878Y-100698300D01*
X118650322Y-100698300D01*
X117723486Y-99771465D01*
X117465760Y-99941539D01*
X117354417Y-100324574D01*
X117319939Y-100721972D01*
X115203072Y-100721972D01*
X115203072Y-99480800D01*
X115190812Y-99356318D01*
X115154502Y-99236620D01*
X115095537Y-99126306D01*
X115047019Y-99067186D01*
X118427765Y-99067186D01*
X119354600Y-99994022D01*
X120281435Y-99067186D01*
X121827765Y-99067186D01*
X122754600Y-99994022D01*
X123681435Y-99067186D01*
X123511361Y-98809460D01*
X123128326Y-98698117D01*
X122730928Y-98663639D01*
X122334441Y-98707352D01*
X121997839Y-98809460D01*
X121827765Y-99067186D01*
X120281435Y-99067186D01*
X120111361Y-98809460D01*
X119728326Y-98698117D01*
X119330928Y-98663639D01*
X118934441Y-98707352D01*
X118597839Y-98809460D01*
X118427765Y-99067186D01*
X115047019Y-99067186D01*
X115016185Y-99029615D01*
X114919494Y-98950263D01*
X114809180Y-98891298D01*
X114790873Y-98885744D01*
X114857312Y-98819305D01*
X115025299Y-98567895D01*
X115141011Y-98288543D01*
X115200000Y-97991984D01*
X115200000Y-97689616D01*
X115141011Y-97393057D01*
X115025299Y-97113705D01*
X114857312Y-96862295D01*
X114643505Y-96648488D01*
X114392095Y-96480501D01*
X114112743Y-96364789D01*
X113816184Y-96305800D01*
X113513816Y-96305800D01*
X113217257Y-96364789D01*
X112937905Y-96480501D01*
X112686495Y-96648488D01*
X112472688Y-96862295D01*
X112304701Y-97113705D01*
X112188989Y-97393057D01*
X112130000Y-97689616D01*
X112130000Y-97991984D01*
X112188989Y-98288543D01*
X112304701Y-98567895D01*
X112472688Y-98819305D01*
X112539127Y-98885744D01*
X112520820Y-98891298D01*
X112410506Y-98950263D01*
X112313815Y-99029615D01*
X112234463Y-99126306D01*
X112175498Y-99236620D01*
X112139188Y-99356318D01*
X112126928Y-99480800D01*
X112126928Y-101280800D01*
X112139188Y-101405282D01*
X112175498Y-101524980D01*
X112234463Y-101635294D01*
X112313815Y-101731985D01*
X112410506Y-101811337D01*
X112520820Y-101870302D01*
X112530001Y-101873087D01*
X112530001Y-102254697D01*
X112456539Y-102364641D01*
X112355904Y-102607595D01*
X112304600Y-102865514D01*
X112304600Y-103039901D01*
X100344200Y-103031539D01*
X100344200Y-102865514D01*
X100292896Y-102607595D01*
X100192261Y-102364641D01*
X100168724Y-102329414D01*
X104000565Y-102329414D01*
X104170639Y-102587140D01*
X104553674Y-102698483D01*
X104951072Y-102732961D01*
X105347559Y-102689248D01*
X105684161Y-102587140D01*
X105854235Y-102329414D01*
X107400565Y-102329414D01*
X107570639Y-102587140D01*
X107953674Y-102698483D01*
X108351072Y-102732961D01*
X108747559Y-102689248D01*
X109084161Y-102587140D01*
X109254235Y-102329414D01*
X108327400Y-101402578D01*
X107400565Y-102329414D01*
X105854235Y-102329414D01*
X104927400Y-101402578D01*
X104000565Y-102329414D01*
X100168724Y-102329414D01*
X100144200Y-102292712D01*
X100144200Y-101873087D01*
X100153380Y-101870302D01*
X100263694Y-101811337D01*
X100360385Y-101731985D01*
X100439737Y-101635294D01*
X100498702Y-101524980D01*
X100535012Y-101405282D01*
X100547272Y-101280800D01*
X100547272Y-100721972D01*
X102892739Y-100721972D01*
X102936452Y-101118459D01*
X103038560Y-101455061D01*
X103296286Y-101625135D01*
X104223122Y-100698300D01*
X105631678Y-100698300D01*
X106558514Y-101625135D01*
X106627400Y-101579677D01*
X106696286Y-101625135D01*
X107623122Y-100698300D01*
X109031678Y-100698300D01*
X109958514Y-101625135D01*
X110216240Y-101455061D01*
X110327583Y-101072026D01*
X110362061Y-100674628D01*
X110318348Y-100278141D01*
X110216240Y-99941539D01*
X109958514Y-99771465D01*
X109031678Y-100698300D01*
X107623122Y-100698300D01*
X106696286Y-99771465D01*
X106627400Y-99816923D01*
X106558514Y-99771465D01*
X105631678Y-100698300D01*
X104223122Y-100698300D01*
X103296286Y-99771465D01*
X103038560Y-99941539D01*
X102927217Y-100324574D01*
X102892739Y-100721972D01*
X100547272Y-100721972D01*
X100547272Y-99480800D01*
X100535012Y-99356318D01*
X100498702Y-99236620D01*
X100439737Y-99126306D01*
X100391219Y-99067186D01*
X104000565Y-99067186D01*
X104927400Y-99994022D01*
X105854235Y-99067186D01*
X107400565Y-99067186D01*
X108327400Y-99994022D01*
X109254235Y-99067186D01*
X109084161Y-98809460D01*
X108701126Y-98698117D01*
X108303728Y-98663639D01*
X107907241Y-98707352D01*
X107570639Y-98809460D01*
X107400565Y-99067186D01*
X105854235Y-99067186D01*
X105684161Y-98809460D01*
X105301126Y-98698117D01*
X104903728Y-98663639D01*
X104507241Y-98707352D01*
X104170639Y-98809460D01*
X104000565Y-99067186D01*
X100391219Y-99067186D01*
X100360385Y-99029615D01*
X100263694Y-98950263D01*
X100153380Y-98891298D01*
X100135073Y-98885744D01*
X100201512Y-98819305D01*
X100369499Y-98567895D01*
X100485211Y-98288543D01*
X100544200Y-97991984D01*
X100544200Y-97689616D01*
X100485211Y-97393057D01*
X100369499Y-97113705D01*
X100201512Y-96862295D01*
X99987705Y-96648488D01*
X99736295Y-96480501D01*
X99456943Y-96364789D01*
X99160384Y-96305800D01*
X98858016Y-96305800D01*
X98561457Y-96364789D01*
X98282105Y-96480501D01*
X98030695Y-96648488D01*
X97816888Y-96862295D01*
X97648901Y-97113705D01*
X97533189Y-97393057D01*
X97474200Y-97689616D01*
X97474200Y-97991984D01*
X97533189Y-98288543D01*
X97648901Y-98567895D01*
X97816888Y-98819305D01*
X97883327Y-98885744D01*
X97865020Y-98891298D01*
X97754706Y-98950263D01*
X97658015Y-99029615D01*
X97578663Y-99126306D01*
X97519698Y-99236620D01*
X97483388Y-99356318D01*
X97471128Y-99480800D01*
X97471128Y-101280800D01*
X97483388Y-101405282D01*
X97519698Y-101524980D01*
X97578663Y-101635294D01*
X97658015Y-101731985D01*
X97754706Y-101811337D01*
X97865020Y-101870302D01*
X97874200Y-101873087D01*
X97874200Y-102292712D01*
X97826139Y-102364641D01*
X97725504Y-102607595D01*
X97674200Y-102865514D01*
X97674200Y-103029672D01*
X87401400Y-103022489D01*
X87401400Y-102329414D01*
X89268565Y-102329414D01*
X89438639Y-102587140D01*
X89821674Y-102698483D01*
X90219072Y-102732961D01*
X90615559Y-102689248D01*
X90952161Y-102587140D01*
X91122235Y-102329414D01*
X92668565Y-102329414D01*
X92838639Y-102587140D01*
X93221674Y-102698483D01*
X93619072Y-102732961D01*
X94015559Y-102689248D01*
X94352161Y-102587140D01*
X94522235Y-102329414D01*
X93595400Y-101402578D01*
X92668565Y-102329414D01*
X91122235Y-102329414D01*
X90195400Y-101402578D01*
X89268565Y-102329414D01*
X87401400Y-102329414D01*
X87401400Y-100721972D01*
X88160739Y-100721972D01*
X88204452Y-101118459D01*
X88306560Y-101455061D01*
X88564286Y-101625135D01*
X89491122Y-100698300D01*
X90899678Y-100698300D01*
X91826514Y-101625135D01*
X91895400Y-101579677D01*
X91964286Y-101625135D01*
X92891122Y-100698300D01*
X94299678Y-100698300D01*
X95226514Y-101625135D01*
X95484240Y-101455061D01*
X95595583Y-101072026D01*
X95630061Y-100674628D01*
X95586348Y-100278141D01*
X95484240Y-99941539D01*
X95226514Y-99771465D01*
X94299678Y-100698300D01*
X92891122Y-100698300D01*
X91964286Y-99771465D01*
X91895400Y-99816923D01*
X91826514Y-99771465D01*
X90899678Y-100698300D01*
X89491122Y-100698300D01*
X88564286Y-99771465D01*
X88306560Y-99941539D01*
X88195217Y-100324574D01*
X88160739Y-100721972D01*
X87401400Y-100721972D01*
X87401400Y-99067186D01*
X89268565Y-99067186D01*
X90195400Y-99994022D01*
X91122235Y-99067186D01*
X92668565Y-99067186D01*
X93595400Y-99994022D01*
X94522235Y-99067186D01*
X94352161Y-98809460D01*
X93969126Y-98698117D01*
X93571728Y-98663639D01*
X93175241Y-98707352D01*
X92838639Y-98809460D01*
X92668565Y-99067186D01*
X91122235Y-99067186D01*
X90952161Y-98809460D01*
X90569126Y-98698117D01*
X90171728Y-98663639D01*
X89775241Y-98707352D01*
X89438639Y-98809460D01*
X89268565Y-99067186D01*
X87401400Y-99067186D01*
X87401400Y-88397514D01*
X89268565Y-88397514D01*
X89438639Y-88655240D01*
X89821674Y-88766583D01*
X90219072Y-88801061D01*
X90615559Y-88757348D01*
X90952161Y-88655240D01*
X91122235Y-88397514D01*
X92668565Y-88397514D01*
X92838639Y-88655240D01*
X93221674Y-88766583D01*
X93619072Y-88801061D01*
X94015559Y-88757348D01*
X94352161Y-88655240D01*
X94522235Y-88397514D01*
X93595400Y-87470678D01*
X92668565Y-88397514D01*
X91122235Y-88397514D01*
X90195400Y-87470678D01*
X89268565Y-88397514D01*
X87401400Y-88397514D01*
X87401400Y-86790072D01*
X88160739Y-86790072D01*
X88204452Y-87186559D01*
X88306560Y-87523161D01*
X88564286Y-87693235D01*
X89491122Y-86766400D01*
X90899678Y-86766400D01*
X91826514Y-87693235D01*
X91895400Y-87647777D01*
X91964286Y-87693235D01*
X92891122Y-86766400D01*
X94299678Y-86766400D01*
X95226514Y-87693235D01*
X95484240Y-87523161D01*
X95595583Y-87140126D01*
X95630061Y-86742728D01*
X95586348Y-86346241D01*
X95484240Y-86009639D01*
X95226514Y-85839565D01*
X94299678Y-86766400D01*
X92891122Y-86766400D01*
X91964286Y-85839565D01*
X91895400Y-85885023D01*
X91826514Y-85839565D01*
X90899678Y-86766400D01*
X89491122Y-86766400D01*
X88564286Y-85839565D01*
X88306560Y-86009639D01*
X88195217Y-86392674D01*
X88160739Y-86790072D01*
X87401400Y-86790072D01*
X87401400Y-85135286D01*
X89268565Y-85135286D01*
X90195400Y-86062122D01*
X91122235Y-85135286D01*
X92668565Y-85135286D01*
X93595400Y-86062122D01*
X94522235Y-85135286D01*
X94352161Y-84877560D01*
X93969126Y-84766217D01*
X93571728Y-84731739D01*
X93175241Y-84775452D01*
X92838639Y-84877560D01*
X92668565Y-85135286D01*
X91122235Y-85135286D01*
X90952161Y-84877560D01*
X90569126Y-84766217D01*
X90171728Y-84731739D01*
X89775241Y-84775452D01*
X89438639Y-84877560D01*
X89268565Y-85135286D01*
X87401400Y-85135286D01*
X87401400Y-84551761D01*
X97648800Y-84571158D01*
G37*
X97648800Y-84571158D02*
X97648800Y-84611886D01*
X97700104Y-84869805D01*
X97800739Y-85112759D01*
X97848800Y-85184688D01*
X97848800Y-85615768D01*
X97754706Y-85666063D01*
X97658015Y-85745415D01*
X97578663Y-85842106D01*
X97519698Y-85952420D01*
X97483388Y-86072118D01*
X97471128Y-86196600D01*
X97471128Y-87996600D01*
X97483388Y-88121082D01*
X97519698Y-88240780D01*
X97578663Y-88351094D01*
X97658015Y-88447785D01*
X97754706Y-88527137D01*
X97865020Y-88586102D01*
X97883327Y-88591656D01*
X97816888Y-88658095D01*
X97648901Y-88909505D01*
X97533189Y-89188857D01*
X97474200Y-89485416D01*
X97474200Y-89787784D01*
X97533189Y-90084343D01*
X97648901Y-90363695D01*
X97816888Y-90615105D01*
X98030695Y-90828912D01*
X98282105Y-90996899D01*
X98561457Y-91112611D01*
X98858016Y-91171600D01*
X99160384Y-91171600D01*
X99456943Y-91112611D01*
X99736295Y-90996899D01*
X99987705Y-90828912D01*
X100201512Y-90615105D01*
X100369499Y-90363695D01*
X100485211Y-90084343D01*
X100544200Y-89787784D01*
X100544200Y-89485416D01*
X100485211Y-89188857D01*
X100369499Y-88909505D01*
X100201512Y-88658095D01*
X100135073Y-88591656D01*
X100153380Y-88586102D01*
X100263694Y-88527137D01*
X100360385Y-88447785D01*
X100401641Y-88397514D01*
X104000565Y-88397514D01*
X104170639Y-88655240D01*
X104553674Y-88766583D01*
X104951072Y-88801061D01*
X105347559Y-88757348D01*
X105684161Y-88655240D01*
X105854235Y-88397514D01*
X107400565Y-88397514D01*
X107570639Y-88655240D01*
X107953674Y-88766583D01*
X108351072Y-88801061D01*
X108747559Y-88757348D01*
X109084161Y-88655240D01*
X109254235Y-88397514D01*
X108327400Y-87470678D01*
X107400565Y-88397514D01*
X105854235Y-88397514D01*
X104927400Y-87470678D01*
X104000565Y-88397514D01*
X100401641Y-88397514D01*
X100439737Y-88351094D01*
X100498702Y-88240780D01*
X100535012Y-88121082D01*
X100547272Y-87996600D01*
X100547272Y-86790072D01*
X102892739Y-86790072D01*
X102936452Y-87186559D01*
X103038560Y-87523161D01*
X103296286Y-87693235D01*
X104223122Y-86766400D01*
X105631678Y-86766400D01*
X106558514Y-87693235D01*
X106627400Y-87647777D01*
X106696286Y-87693235D01*
X107623122Y-86766400D01*
X109031678Y-86766400D01*
X109958514Y-87693235D01*
X110216240Y-87523161D01*
X110327583Y-87140126D01*
X110362061Y-86742728D01*
X110318348Y-86346241D01*
X110216240Y-86009639D01*
X109958514Y-85839565D01*
X109031678Y-86766400D01*
X107623122Y-86766400D01*
X106696286Y-85839565D01*
X106627400Y-85885023D01*
X106558514Y-85839565D01*
X105631678Y-86766400D01*
X104223122Y-86766400D01*
X103296286Y-85839565D01*
X103038560Y-86009639D01*
X102927217Y-86392674D01*
X102892739Y-86790072D01*
X100547272Y-86790072D01*
X100547272Y-86196600D01*
X100535012Y-86072118D01*
X100498702Y-85952420D01*
X100439737Y-85842106D01*
X100360385Y-85745415D01*
X100263694Y-85666063D01*
X100153380Y-85607098D01*
X100118800Y-85596608D01*
X100118800Y-85184688D01*
X100151809Y-85135286D01*
X104000565Y-85135286D01*
X104927400Y-86062122D01*
X105854235Y-85135286D01*
X107400565Y-85135286D01*
X108327400Y-86062122D01*
X109254235Y-85135286D01*
X109084161Y-84877560D01*
X108701126Y-84766217D01*
X108303728Y-84731739D01*
X107907241Y-84775452D01*
X107570639Y-84877560D01*
X107400565Y-85135286D01*
X105854235Y-85135286D01*
X105684161Y-84877560D01*
X105301126Y-84766217D01*
X104903728Y-84731739D01*
X104507241Y-84775452D01*
X104170639Y-84877560D01*
X104000565Y-85135286D01*
X100151809Y-85135286D01*
X100166861Y-85112759D01*
X100267496Y-84869805D01*
X100318800Y-84611886D01*
X100318800Y-84576212D01*
X112304600Y-84598899D01*
X112304600Y-84611886D01*
X112355904Y-84869805D01*
X112456539Y-85112759D01*
X112504600Y-85184688D01*
X112504600Y-85596608D01*
X112470020Y-85607098D01*
X112359706Y-85666063D01*
X112263015Y-85745415D01*
X112183663Y-85842106D01*
X112124698Y-85952420D01*
X112088388Y-86072118D01*
X112076128Y-86196600D01*
X112076128Y-87996600D01*
X112088388Y-88121082D01*
X112124698Y-88240780D01*
X112183663Y-88351094D01*
X112263015Y-88447785D01*
X112359706Y-88527137D01*
X112470020Y-88586102D01*
X112488327Y-88591656D01*
X112421888Y-88658095D01*
X112253901Y-88909505D01*
X112138189Y-89188857D01*
X112079200Y-89485416D01*
X112079200Y-89787784D01*
X112138189Y-90084343D01*
X112253901Y-90363695D01*
X112421888Y-90615105D01*
X112635695Y-90828912D01*
X112887105Y-90996899D01*
X113166457Y-91112611D01*
X113463016Y-91171600D01*
X113765384Y-91171600D01*
X114061943Y-91112611D01*
X114341295Y-90996899D01*
X114592705Y-90828912D01*
X114806512Y-90615105D01*
X114974499Y-90363695D01*
X115090211Y-90084343D01*
X115149200Y-89787784D01*
X115149200Y-89485416D01*
X115090211Y-89188857D01*
X114974499Y-88909505D01*
X114806512Y-88658095D01*
X114740073Y-88591656D01*
X114758380Y-88586102D01*
X114868694Y-88527137D01*
X114965385Y-88447785D01*
X115006641Y-88397514D01*
X118427765Y-88397514D01*
X118597839Y-88655240D01*
X118980874Y-88766583D01*
X119378272Y-88801061D01*
X119774759Y-88757348D01*
X120111361Y-88655240D01*
X120281435Y-88397514D01*
X121827765Y-88397514D01*
X121997839Y-88655240D01*
X122380874Y-88766583D01*
X122778272Y-88801061D01*
X123174759Y-88757348D01*
X123511361Y-88655240D01*
X123681435Y-88397514D01*
X122754600Y-87470678D01*
X121827765Y-88397514D01*
X120281435Y-88397514D01*
X119354600Y-87470678D01*
X118427765Y-88397514D01*
X115006641Y-88397514D01*
X115044737Y-88351094D01*
X115103702Y-88240780D01*
X115140012Y-88121082D01*
X115152272Y-87996600D01*
X115152272Y-86790072D01*
X117319939Y-86790072D01*
X117363652Y-87186559D01*
X117465760Y-87523161D01*
X117723486Y-87693235D01*
X118650322Y-86766400D01*
X120058878Y-86766400D01*
X120985714Y-87693235D01*
X121054600Y-87647777D01*
X121123486Y-87693235D01*
X122050322Y-86766400D01*
X123458878Y-86766400D01*
X124385714Y-87693235D01*
X124643440Y-87523161D01*
X124754783Y-87140126D01*
X124789261Y-86742728D01*
X124745548Y-86346241D01*
X124643440Y-86009639D01*
X124385714Y-85839565D01*
X123458878Y-86766400D01*
X122050322Y-86766400D01*
X121123486Y-85839565D01*
X121054600Y-85885023D01*
X120985714Y-85839565D01*
X120058878Y-86766400D01*
X118650322Y-86766400D01*
X117723486Y-85839565D01*
X117465760Y-86009639D01*
X117354417Y-86392674D01*
X117319939Y-86790072D01*
X115152272Y-86790072D01*
X115152272Y-86196600D01*
X115140012Y-86072118D01*
X115103702Y-85952420D01*
X115044737Y-85842106D01*
X114965385Y-85745415D01*
X114868694Y-85666063D01*
X114774600Y-85615768D01*
X114774600Y-85184688D01*
X114807609Y-85135286D01*
X118427765Y-85135286D01*
X119354600Y-86062122D01*
X120281435Y-85135286D01*
X121827765Y-85135286D01*
X122754600Y-86062122D01*
X123681435Y-85135286D01*
X123511361Y-84877560D01*
X123128326Y-84766217D01*
X122730928Y-84731739D01*
X122334441Y-84775452D01*
X121997839Y-84877560D01*
X121827765Y-85135286D01*
X120281435Y-85135286D01*
X120111361Y-84877560D01*
X119728326Y-84766217D01*
X119330928Y-84731739D01*
X118934441Y-84775452D01*
X118597839Y-84877560D01*
X118427765Y-85135286D01*
X114807609Y-85135286D01*
X114822661Y-85112759D01*
X114923296Y-84869805D01*
X114974600Y-84611886D01*
X114974600Y-84603953D01*
X126937926Y-84626597D01*
X126986304Y-84869805D01*
X127086939Y-85112759D01*
X127135000Y-85184688D01*
X127135000Y-85596608D01*
X127100420Y-85607098D01*
X126990106Y-85666063D01*
X126893415Y-85745415D01*
X126814063Y-85842106D01*
X126755098Y-85952420D01*
X126718788Y-86072118D01*
X126706528Y-86196600D01*
X126706528Y-87996600D01*
X126718788Y-88121082D01*
X126755098Y-88240780D01*
X126814063Y-88351094D01*
X126893415Y-88447785D01*
X126990106Y-88527137D01*
X127100420Y-88586102D01*
X127118727Y-88591656D01*
X127052288Y-88658095D01*
X126884301Y-88909505D01*
X126768589Y-89188857D01*
X126709600Y-89485416D01*
X126709600Y-89787784D01*
X126768589Y-90084343D01*
X126884301Y-90363695D01*
X127052288Y-90615105D01*
X127266095Y-90828912D01*
X127517505Y-90996899D01*
X127796857Y-91112611D01*
X128093416Y-91171600D01*
X128395784Y-91171600D01*
X128692343Y-91112611D01*
X128971695Y-90996899D01*
X129223105Y-90828912D01*
X129436912Y-90615105D01*
X129604899Y-90363695D01*
X129720611Y-90084343D01*
X129779600Y-89787784D01*
X129779600Y-89485416D01*
X129720611Y-89188857D01*
X129604899Y-88909505D01*
X129436912Y-88658095D01*
X129370473Y-88591656D01*
X129388780Y-88586102D01*
X129499094Y-88527137D01*
X129595785Y-88447785D01*
X129637041Y-88397514D01*
X133261565Y-88397514D01*
X133431639Y-88655240D01*
X133814674Y-88766583D01*
X134212072Y-88801061D01*
X134608559Y-88757348D01*
X134945161Y-88655240D01*
X135115235Y-88397514D01*
X136661565Y-88397514D01*
X136831639Y-88655240D01*
X137214674Y-88766583D01*
X137612072Y-88801061D01*
X138008559Y-88757348D01*
X138345161Y-88655240D01*
X138515235Y-88397514D01*
X137588400Y-87470678D01*
X136661565Y-88397514D01*
X135115235Y-88397514D01*
X134188400Y-87470678D01*
X133261565Y-88397514D01*
X129637041Y-88397514D01*
X129675137Y-88351094D01*
X129734102Y-88240780D01*
X129770412Y-88121082D01*
X129782672Y-87996600D01*
X129782672Y-86790072D01*
X132153739Y-86790072D01*
X132197452Y-87186559D01*
X132299560Y-87523161D01*
X132557286Y-87693235D01*
X133484122Y-86766400D01*
X134892678Y-86766400D01*
X135819514Y-87693235D01*
X135888400Y-87647777D01*
X135957286Y-87693235D01*
X136884122Y-86766400D01*
X138292678Y-86766400D01*
X139219514Y-87693235D01*
X139477240Y-87523161D01*
X139588583Y-87140126D01*
X139623061Y-86742728D01*
X139579348Y-86346241D01*
X139477240Y-86009639D01*
X139219514Y-85839565D01*
X138292678Y-86766400D01*
X136884122Y-86766400D01*
X135957286Y-85839565D01*
X135888400Y-85885023D01*
X135819514Y-85839565D01*
X134892678Y-86766400D01*
X133484122Y-86766400D01*
X132557286Y-85839565D01*
X132299560Y-86009639D01*
X132188217Y-86392674D01*
X132153739Y-86790072D01*
X129782672Y-86790072D01*
X129782672Y-86196600D01*
X129770412Y-86072118D01*
X129734102Y-85952420D01*
X129675137Y-85842106D01*
X129595785Y-85745415D01*
X129499094Y-85666063D01*
X129405000Y-85615768D01*
X129405000Y-85184688D01*
X129438009Y-85135286D01*
X133261565Y-85135286D01*
X134188400Y-86062122D01*
X135115235Y-85135286D01*
X136661565Y-85135286D01*
X137588400Y-86062122D01*
X138515235Y-85135286D01*
X138345161Y-84877560D01*
X137962126Y-84766217D01*
X137564728Y-84731739D01*
X137168241Y-84775452D01*
X136831639Y-84877560D01*
X136661565Y-85135286D01*
X135115235Y-85135286D01*
X134945161Y-84877560D01*
X134562126Y-84766217D01*
X134164728Y-84731739D01*
X133768241Y-84775452D01*
X133431639Y-84877560D01*
X133261565Y-85135286D01*
X129438009Y-85135286D01*
X129453061Y-85112759D01*
X129553696Y-84869805D01*
X129601071Y-84631638D01*
X141772059Y-84654676D01*
X141819904Y-84895205D01*
X141920539Y-85138159D01*
X141968601Y-85210089D01*
X141968601Y-85604313D01*
X141959420Y-85607098D01*
X141849106Y-85666063D01*
X141752415Y-85745415D01*
X141673063Y-85842106D01*
X141614098Y-85952420D01*
X141577788Y-86072118D01*
X141565528Y-86196600D01*
X141565528Y-87996600D01*
X141577788Y-88121082D01*
X141614098Y-88240780D01*
X141673063Y-88351094D01*
X141752415Y-88447785D01*
X141849106Y-88527137D01*
X141959420Y-88586102D01*
X141977727Y-88591656D01*
X141911288Y-88658095D01*
X141743301Y-88909505D01*
X141627589Y-89188857D01*
X141568600Y-89485416D01*
X141568600Y-89787784D01*
X141627589Y-90084343D01*
X141743301Y-90363695D01*
X141911288Y-90615105D01*
X142125095Y-90828912D01*
X142376505Y-90996899D01*
X142655857Y-91112611D01*
X142952416Y-91171600D01*
X143254784Y-91171600D01*
X143551343Y-91112611D01*
X143830695Y-90996899D01*
X144082105Y-90828912D01*
X144295912Y-90615105D01*
X144463899Y-90363695D01*
X144579611Y-90084343D01*
X144638600Y-89787784D01*
X144638600Y-89485416D01*
X144579611Y-89188857D01*
X144463899Y-88909505D01*
X144295912Y-88658095D01*
X144229473Y-88591656D01*
X144247780Y-88586102D01*
X144358094Y-88527137D01*
X144454785Y-88447785D01*
X144496041Y-88397514D01*
X148044165Y-88397514D01*
X148214239Y-88655240D01*
X148597274Y-88766583D01*
X148994672Y-88801061D01*
X149391159Y-88757348D01*
X149727761Y-88655240D01*
X149897835Y-88397514D01*
X151444165Y-88397514D01*
X151614239Y-88655240D01*
X151997274Y-88766583D01*
X152394672Y-88801061D01*
X152791159Y-88757348D01*
X153127761Y-88655240D01*
X153297835Y-88397514D01*
X152371000Y-87470678D01*
X151444165Y-88397514D01*
X149897835Y-88397514D01*
X148971000Y-87470678D01*
X148044165Y-88397514D01*
X144496041Y-88397514D01*
X144534137Y-88351094D01*
X144593102Y-88240780D01*
X144629412Y-88121082D01*
X144641672Y-87996600D01*
X144641672Y-86790072D01*
X146936339Y-86790072D01*
X146980052Y-87186559D01*
X147082160Y-87523161D01*
X147339886Y-87693235D01*
X148266722Y-86766400D01*
X149675278Y-86766400D01*
X150602114Y-87693235D01*
X150671000Y-87647777D01*
X150739886Y-87693235D01*
X151666722Y-86766400D01*
X153075278Y-86766400D01*
X154002114Y-87693235D01*
X154259840Y-87523161D01*
X154371183Y-87140126D01*
X154405661Y-86742728D01*
X154361948Y-86346241D01*
X154259840Y-86009639D01*
X154002114Y-85839565D01*
X153075278Y-86766400D01*
X151666722Y-86766400D01*
X150739886Y-85839565D01*
X150671000Y-85885023D01*
X150602114Y-85839565D01*
X149675278Y-86766400D01*
X148266722Y-86766400D01*
X147339886Y-85839565D01*
X147082160Y-86009639D01*
X146970817Y-86392674D01*
X146936339Y-86790072D01*
X144641672Y-86790072D01*
X144641672Y-86196600D01*
X144629412Y-86072118D01*
X144593102Y-85952420D01*
X144534137Y-85842106D01*
X144454785Y-85745415D01*
X144358094Y-85666063D01*
X144247780Y-85607098D01*
X144238600Y-85604313D01*
X144238600Y-85210088D01*
X144286661Y-85138159D01*
X144287851Y-85135286D01*
X148044165Y-85135286D01*
X148971000Y-86062122D01*
X149897835Y-85135286D01*
X151444165Y-85135286D01*
X152371000Y-86062122D01*
X153297835Y-85135286D01*
X153127761Y-84877560D01*
X152744726Y-84766217D01*
X152347328Y-84731739D01*
X151950841Y-84775452D01*
X151614239Y-84877560D01*
X151444165Y-85135286D01*
X149897835Y-85135286D01*
X149727761Y-84877560D01*
X149344726Y-84766217D01*
X148947328Y-84731739D01*
X148550841Y-84775452D01*
X148214239Y-84877560D01*
X148044165Y-85135286D01*
X144287851Y-85135286D01*
X144387296Y-84895205D01*
X144434139Y-84659715D01*
X156819577Y-84683159D01*
X156856704Y-84869805D01*
X156957339Y-85112759D01*
X157005400Y-85184688D01*
X157005400Y-85615768D01*
X156911306Y-85666063D01*
X156814615Y-85745415D01*
X156735263Y-85842106D01*
X156676298Y-85952420D01*
X156639988Y-86072118D01*
X156627728Y-86196600D01*
X156627728Y-87996600D01*
X156639988Y-88121082D01*
X156676298Y-88240780D01*
X156735263Y-88351094D01*
X156814615Y-88447785D01*
X156911306Y-88527137D01*
X157021620Y-88586102D01*
X157039927Y-88591656D01*
X156973488Y-88658095D01*
X156805501Y-88909505D01*
X156689789Y-89188857D01*
X156630800Y-89485416D01*
X156630800Y-89787784D01*
X156689789Y-90084343D01*
X156805501Y-90363695D01*
X156973488Y-90615105D01*
X157187295Y-90828912D01*
X157438705Y-90996899D01*
X157718057Y-91112611D01*
X158014616Y-91171600D01*
X158316984Y-91171600D01*
X158613543Y-91112611D01*
X158892895Y-90996899D01*
X159144305Y-90828912D01*
X159358112Y-90615105D01*
X159526099Y-90363695D01*
X159641811Y-90084343D01*
X159700800Y-89787784D01*
X159700800Y-89485416D01*
X159641811Y-89188857D01*
X159568972Y-89013009D01*
X177422469Y-89013009D01*
X177606542Y-89281917D01*
X178008826Y-89404542D01*
X178427303Y-89446329D01*
X178845891Y-89405672D01*
X179248505Y-89284135D01*
X179253858Y-89281917D01*
X179437931Y-89013009D01*
X178822436Y-88397514D01*
X190843165Y-88397514D01*
X191013239Y-88655240D01*
X191396274Y-88766583D01*
X191793672Y-88801061D01*
X192190159Y-88757348D01*
X192526761Y-88655240D01*
X192696835Y-88397514D01*
X194243165Y-88397514D01*
X194413239Y-88655240D01*
X194796274Y-88766583D01*
X195193672Y-88801061D01*
X195590159Y-88757348D01*
X195926761Y-88655240D01*
X196096835Y-88397514D01*
X195170000Y-87470678D01*
X194243165Y-88397514D01*
X192696835Y-88397514D01*
X191770000Y-87470678D01*
X190843165Y-88397514D01*
X178822436Y-88397514D01*
X178430200Y-88005278D01*
X177422469Y-89013009D01*
X159568972Y-89013009D01*
X159526099Y-88909505D01*
X159358112Y-88658095D01*
X159291673Y-88591656D01*
X159309980Y-88586102D01*
X159420294Y-88527137D01*
X159516985Y-88447785D01*
X159596337Y-88351094D01*
X159655302Y-88240780D01*
X159691612Y-88121082D01*
X159703872Y-87996600D01*
X159703872Y-87298103D01*
X176284871Y-87298103D01*
X176325528Y-87716691D01*
X176447065Y-88119305D01*
X176449283Y-88124658D01*
X176718191Y-88308731D01*
X177725922Y-87301000D01*
X179134478Y-87301000D01*
X180142209Y-88308731D01*
X180411117Y-88124658D01*
X180533742Y-87722374D01*
X180575529Y-87303897D01*
X180534872Y-86885309D01*
X180506123Y-86790072D01*
X189735339Y-86790072D01*
X189779052Y-87186559D01*
X189881160Y-87523161D01*
X190138886Y-87693235D01*
X191065722Y-86766400D01*
X192474278Y-86766400D01*
X193401114Y-87693235D01*
X193470000Y-87647777D01*
X193538886Y-87693235D01*
X194465722Y-86766400D01*
X195874278Y-86766400D01*
X196801114Y-87693235D01*
X197058840Y-87523161D01*
X197170183Y-87140126D01*
X197204661Y-86742728D01*
X197160948Y-86346241D01*
X197058840Y-86009639D01*
X196801114Y-85839565D01*
X195874278Y-86766400D01*
X194465722Y-86766400D01*
X193538886Y-85839565D01*
X193470000Y-85885023D01*
X193401114Y-85839565D01*
X192474278Y-86766400D01*
X191065722Y-86766400D01*
X190138886Y-85839565D01*
X189881160Y-86009639D01*
X189769817Y-86392674D01*
X189735339Y-86790072D01*
X180506123Y-86790072D01*
X180413335Y-86482695D01*
X180411117Y-86477342D01*
X180142209Y-86293269D01*
X179134478Y-87301000D01*
X177725922Y-87301000D01*
X176718191Y-86293269D01*
X176449283Y-86477342D01*
X176326658Y-86879626D01*
X176284871Y-87298103D01*
X159703872Y-87298103D01*
X159703872Y-86196600D01*
X159691612Y-86072118D01*
X159655302Y-85952420D01*
X159596337Y-85842106D01*
X159516985Y-85745415D01*
X159420294Y-85666063D01*
X159309980Y-85607098D01*
X159275400Y-85596608D01*
X159275400Y-85588991D01*
X177422469Y-85588991D01*
X178430200Y-86596722D01*
X179437931Y-85588991D01*
X179253858Y-85320083D01*
X178851574Y-85197458D01*
X178433097Y-85155671D01*
X178014509Y-85196328D01*
X177611895Y-85317865D01*
X177606542Y-85320083D01*
X177422469Y-85588991D01*
X159275400Y-85588991D01*
X159275400Y-85184688D01*
X159323461Y-85112759D01*
X159424096Y-84869805D01*
X159460229Y-84688157D01*
X191590008Y-84748973D01*
X191349841Y-84775452D01*
X191013239Y-84877560D01*
X190843165Y-85135286D01*
X191770000Y-86062122D01*
X192696835Y-85135286D01*
X192526761Y-84877560D01*
X192143726Y-84766217D01*
X191952892Y-84749660D01*
X194932620Y-84755300D01*
X194749841Y-84775452D01*
X194413239Y-84877560D01*
X194243165Y-85135286D01*
X195170000Y-86062122D01*
X196096835Y-85135286D01*
X195926761Y-84877560D01*
X195543726Y-84766217D01*
X195428724Y-84756240D01*
X199335293Y-84763634D01*
X199376304Y-84969805D01*
X199476939Y-85212759D01*
X199525000Y-85284688D01*
X199525000Y-85604313D01*
X199515820Y-85607098D01*
X199405506Y-85666063D01*
X199308815Y-85745415D01*
X199229463Y-85842106D01*
X199170498Y-85952420D01*
X199134188Y-86072118D01*
X199121928Y-86196600D01*
X199121928Y-87996600D01*
X199134188Y-88121082D01*
X199170498Y-88240780D01*
X199229463Y-88351094D01*
X199308815Y-88447785D01*
X199405506Y-88527137D01*
X199515820Y-88586102D01*
X199534127Y-88591656D01*
X199467688Y-88658095D01*
X199299701Y-88909505D01*
X199183989Y-89188857D01*
X199125000Y-89485416D01*
X199125000Y-89787784D01*
X199183989Y-90084343D01*
X199299701Y-90363695D01*
X199467688Y-90615105D01*
X199681495Y-90828912D01*
X199932905Y-90996899D01*
X200212257Y-91112611D01*
X200508816Y-91171600D01*
X200811184Y-91171600D01*
X201107743Y-91112611D01*
X201387095Y-90996899D01*
X201638505Y-90828912D01*
X201852312Y-90615105D01*
X202020299Y-90363695D01*
X202136011Y-90084343D01*
X202195000Y-89787784D01*
X202195000Y-89485416D01*
X202136011Y-89188857D01*
X202020299Y-88909505D01*
X201852312Y-88658095D01*
X201785873Y-88591656D01*
X201804180Y-88586102D01*
X201914494Y-88527137D01*
X202011185Y-88447785D01*
X202052441Y-88397514D01*
X206083165Y-88397514D01*
X206253239Y-88655240D01*
X206636274Y-88766583D01*
X207033672Y-88801061D01*
X207430159Y-88757348D01*
X207766761Y-88655240D01*
X207936835Y-88397514D01*
X209483165Y-88397514D01*
X209653239Y-88655240D01*
X210036274Y-88766583D01*
X210433672Y-88801061D01*
X210830159Y-88757348D01*
X211166761Y-88655240D01*
X211336835Y-88397514D01*
X210410000Y-87470678D01*
X209483165Y-88397514D01*
X207936835Y-88397514D01*
X207010000Y-87470678D01*
X206083165Y-88397514D01*
X202052441Y-88397514D01*
X202090537Y-88351094D01*
X202149502Y-88240780D01*
X202185812Y-88121082D01*
X202198072Y-87996600D01*
X202198072Y-86790072D01*
X204975339Y-86790072D01*
X205019052Y-87186559D01*
X205121160Y-87523161D01*
X205378886Y-87693235D01*
X206305722Y-86766400D01*
X207714278Y-86766400D01*
X208641114Y-87693235D01*
X208710000Y-87647777D01*
X208778886Y-87693235D01*
X209705722Y-86766400D01*
X211114278Y-86766400D01*
X212041114Y-87693235D01*
X212298840Y-87523161D01*
X212410183Y-87140126D01*
X212444661Y-86742728D01*
X212400948Y-86346241D01*
X212298840Y-86009639D01*
X212041114Y-85839565D01*
X211114278Y-86766400D01*
X209705722Y-86766400D01*
X208778886Y-85839565D01*
X208710000Y-85885023D01*
X208641114Y-85839565D01*
X207714278Y-86766400D01*
X206305722Y-86766400D01*
X205378886Y-85839565D01*
X205121160Y-86009639D01*
X205009817Y-86392674D01*
X204975339Y-86790072D01*
X202198072Y-86790072D01*
X202198072Y-86196600D01*
X202185812Y-86072118D01*
X202149502Y-85952420D01*
X202090537Y-85842106D01*
X202011185Y-85745415D01*
X201914494Y-85666063D01*
X201804180Y-85607098D01*
X201795000Y-85604313D01*
X201795000Y-85284688D01*
X201843061Y-85212759D01*
X201943696Y-84969805D01*
X201983709Y-84768647D01*
X206583571Y-84777354D01*
X206253239Y-84877560D01*
X206083165Y-85135286D01*
X207010000Y-86062122D01*
X207936835Y-85135286D01*
X207766761Y-84877560D01*
X207427534Y-84778951D01*
X209962488Y-84783750D01*
X209653239Y-84877560D01*
X209483165Y-85135286D01*
X210410000Y-86062122D01*
X211336835Y-85135286D01*
X211166761Y-84877560D01*
X210849819Y-84785429D01*
X214581034Y-84792492D01*
X214616304Y-84969805D01*
X214716939Y-85212759D01*
X214765001Y-85284689D01*
X214765001Y-85604313D01*
X214755820Y-85607098D01*
X214645506Y-85666063D01*
X214548815Y-85745415D01*
X214469463Y-85842106D01*
X214410498Y-85952420D01*
X214374188Y-86072118D01*
X214361928Y-86196600D01*
X214361928Y-87996600D01*
X214374188Y-88121082D01*
X214410498Y-88240780D01*
X214469463Y-88351094D01*
X214548815Y-88447785D01*
X214645506Y-88527137D01*
X214755820Y-88586102D01*
X214774127Y-88591656D01*
X214707688Y-88658095D01*
X214539701Y-88909505D01*
X214423989Y-89188857D01*
X214365000Y-89485416D01*
X214365000Y-89787784D01*
X214423989Y-90084343D01*
X214539701Y-90363695D01*
X214707688Y-90615105D01*
X214921495Y-90828912D01*
X215172905Y-90996899D01*
X215452257Y-91112611D01*
X215748816Y-91171600D01*
X216051184Y-91171600D01*
X216347743Y-91112611D01*
X216627095Y-90996899D01*
X216878505Y-90828912D01*
X217092312Y-90615105D01*
X217260299Y-90363695D01*
X217376011Y-90084343D01*
X217435000Y-89787784D01*
X217435000Y-89485416D01*
X217376011Y-89188857D01*
X217260299Y-88909505D01*
X217092312Y-88658095D01*
X217025873Y-88591656D01*
X217044180Y-88586102D01*
X217154494Y-88527137D01*
X217251185Y-88447785D01*
X217292441Y-88397514D01*
X221323165Y-88397514D01*
X221493239Y-88655240D01*
X221876274Y-88766583D01*
X222273672Y-88801061D01*
X222670159Y-88757348D01*
X223006761Y-88655240D01*
X223176835Y-88397514D01*
X224723165Y-88397514D01*
X224893239Y-88655240D01*
X225276274Y-88766583D01*
X225673672Y-88801061D01*
X226070159Y-88757348D01*
X226406761Y-88655240D01*
X226576835Y-88397514D01*
X225650000Y-87470678D01*
X224723165Y-88397514D01*
X223176835Y-88397514D01*
X222250000Y-87470678D01*
X221323165Y-88397514D01*
X217292441Y-88397514D01*
X217330537Y-88351094D01*
X217389502Y-88240780D01*
X217425812Y-88121082D01*
X217438072Y-87996600D01*
X217438072Y-86790072D01*
X220215339Y-86790072D01*
X220259052Y-87186559D01*
X220361160Y-87523161D01*
X220618886Y-87693235D01*
X221545722Y-86766400D01*
X222954278Y-86766400D01*
X223881114Y-87693235D01*
X223950000Y-87647777D01*
X224018886Y-87693235D01*
X224945722Y-86766400D01*
X226354278Y-86766400D01*
X227281114Y-87693235D01*
X227538840Y-87523161D01*
X227650183Y-87140126D01*
X227684661Y-86742728D01*
X227640948Y-86346241D01*
X227538840Y-86009639D01*
X227281114Y-85839565D01*
X226354278Y-86766400D01*
X224945722Y-86766400D01*
X224018886Y-85839565D01*
X223950000Y-85885023D01*
X223881114Y-85839565D01*
X222954278Y-86766400D01*
X221545722Y-86766400D01*
X220618886Y-85839565D01*
X220361160Y-86009639D01*
X220249817Y-86392674D01*
X220215339Y-86790072D01*
X217438072Y-86790072D01*
X217438072Y-86196600D01*
X217425812Y-86072118D01*
X217389502Y-85952420D01*
X217330537Y-85842106D01*
X217251185Y-85745415D01*
X217154494Y-85666063D01*
X217044180Y-85607098D01*
X217035000Y-85604313D01*
X217035000Y-85284688D01*
X217083061Y-85212759D01*
X217183696Y-84969805D01*
X217217973Y-84797483D01*
X221729067Y-84806022D01*
X221493239Y-84877560D01*
X221323165Y-85135286D01*
X222250000Y-86062122D01*
X223176835Y-85135286D01*
X223006761Y-84877560D01*
X222767422Y-84807987D01*
X225107983Y-84812418D01*
X224893239Y-84877560D01*
X224723165Y-85135286D01*
X225650000Y-86062122D01*
X226576835Y-85135286D01*
X226406761Y-84877560D01*
X226189706Y-84814465D01*
X229826774Y-84821350D01*
X229856304Y-84969805D01*
X229956939Y-85212759D01*
X230005000Y-85284688D01*
X230005000Y-85604313D01*
X229995820Y-85607098D01*
X229885506Y-85666063D01*
X229788815Y-85745415D01*
X229709463Y-85842106D01*
X229650498Y-85952420D01*
X229614188Y-86072118D01*
X229601928Y-86196600D01*
X229601928Y-87996600D01*
X229614188Y-88121082D01*
X229650498Y-88240780D01*
X229709463Y-88351094D01*
X229788815Y-88447785D01*
X229885506Y-88527137D01*
X229995820Y-88586102D01*
X230014127Y-88591656D01*
X229947688Y-88658095D01*
X229779701Y-88909505D01*
X229663989Y-89188857D01*
X229605000Y-89485416D01*
X229605000Y-89787784D01*
X229663989Y-90084343D01*
X229779701Y-90363695D01*
X229947688Y-90615105D01*
X230161495Y-90828912D01*
X230412905Y-90996899D01*
X230692257Y-91112611D01*
X230988816Y-91171600D01*
X231291184Y-91171600D01*
X231587743Y-91112611D01*
X231867095Y-90996899D01*
X232118505Y-90828912D01*
X232332312Y-90615105D01*
X232500299Y-90363695D01*
X232616011Y-90084343D01*
X232675000Y-89787784D01*
X232675000Y-89485416D01*
X232616011Y-89188857D01*
X232500299Y-88909505D01*
X232332312Y-88658095D01*
X232265873Y-88591656D01*
X232284180Y-88586102D01*
X232394494Y-88527137D01*
X232491185Y-88447785D01*
X232570537Y-88351094D01*
X232629502Y-88240780D01*
X232665812Y-88121082D01*
X232678072Y-87996600D01*
X232678072Y-86196600D01*
X232665812Y-86072118D01*
X232629502Y-85952420D01*
X232570537Y-85842106D01*
X232491185Y-85745415D01*
X232394494Y-85666063D01*
X232284180Y-85607098D01*
X232275000Y-85604313D01*
X232275000Y-85284688D01*
X232323061Y-85212759D01*
X232423696Y-84969805D01*
X232452238Y-84826319D01*
X236098011Y-84833220D01*
X236087990Y-103126451D01*
X232450648Y-103123908D01*
X232475000Y-103001486D01*
X232475000Y-102738514D01*
X232423696Y-102480595D01*
X232323061Y-102237641D01*
X232275000Y-102165712D01*
X232275000Y-101822287D01*
X232284180Y-101819502D01*
X232394494Y-101760537D01*
X232491185Y-101681185D01*
X232570537Y-101584494D01*
X232629502Y-101474180D01*
X232665812Y-101354482D01*
X232678072Y-101230000D01*
X232678072Y-99430000D01*
X232665812Y-99305518D01*
X232629502Y-99185820D01*
X232570537Y-99075506D01*
X232491185Y-98978815D01*
X232394494Y-98899463D01*
X232284180Y-98840498D01*
X232265873Y-98834944D01*
X232332312Y-98768505D01*
X232500299Y-98517095D01*
X232616011Y-98237743D01*
X232675000Y-97941184D01*
X232675000Y-97638816D01*
X232616011Y-97342257D01*
X232500299Y-97062905D01*
X232332312Y-96811495D01*
X232118505Y-96597688D01*
X231867095Y-96429701D01*
X231587743Y-96313989D01*
X231291184Y-96255000D01*
X230988816Y-96255000D01*
X230692257Y-96313989D01*
X230412905Y-96429701D01*
X230161495Y-96597688D01*
X229947688Y-96811495D01*
X229779701Y-97062905D01*
X229663989Y-97342257D01*
X229605000Y-97638816D01*
X229605000Y-97941184D01*
X229663989Y-98237743D01*
X229779701Y-98517095D01*
X229947688Y-98768505D01*
X230014127Y-98834944D01*
X229995820Y-98840498D01*
X229885506Y-98899463D01*
X229788815Y-98978815D01*
X229709463Y-99075506D01*
X229650498Y-99185820D01*
X229614188Y-99305518D01*
X229601928Y-99430000D01*
X229601928Y-101230000D01*
X229614188Y-101354482D01*
X229650498Y-101474180D01*
X229709463Y-101584494D01*
X229788815Y-101681185D01*
X229885506Y-101760537D01*
X229995820Y-101819502D01*
X230005000Y-101822287D01*
X230005000Y-102165712D01*
X229956939Y-102237641D01*
X229856304Y-102480595D01*
X229805000Y-102738514D01*
X229805000Y-103001486D01*
X229828987Y-103122075D01*
X217212768Y-103113253D01*
X217235000Y-103001486D01*
X217235000Y-102738514D01*
X217183696Y-102480595D01*
X217083061Y-102237641D01*
X217058655Y-102201114D01*
X221323165Y-102201114D01*
X221493239Y-102458840D01*
X221876274Y-102570183D01*
X222273672Y-102604661D01*
X222670159Y-102560948D01*
X223006761Y-102458840D01*
X223176835Y-102201114D01*
X224723165Y-102201114D01*
X224893239Y-102458840D01*
X225276274Y-102570183D01*
X225673672Y-102604661D01*
X226070159Y-102560948D01*
X226406761Y-102458840D01*
X226576835Y-102201114D01*
X225650000Y-101274278D01*
X224723165Y-102201114D01*
X223176835Y-102201114D01*
X222250000Y-101274278D01*
X221323165Y-102201114D01*
X217058655Y-102201114D01*
X217035000Y-102165712D01*
X217035000Y-101822287D01*
X217044180Y-101819502D01*
X217154494Y-101760537D01*
X217251185Y-101681185D01*
X217330537Y-101584494D01*
X217389502Y-101474180D01*
X217425812Y-101354482D01*
X217438072Y-101230000D01*
X217438072Y-100593672D01*
X220215339Y-100593672D01*
X220259052Y-100990159D01*
X220361160Y-101326761D01*
X220618886Y-101496835D01*
X221545722Y-100570000D01*
X222954278Y-100570000D01*
X223881114Y-101496835D01*
X223950000Y-101451377D01*
X224018886Y-101496835D01*
X224945722Y-100570000D01*
X226354278Y-100570000D01*
X227281114Y-101496835D01*
X227538840Y-101326761D01*
X227650183Y-100943726D01*
X227684661Y-100546328D01*
X227640948Y-100149841D01*
X227538840Y-99813239D01*
X227281114Y-99643165D01*
X226354278Y-100570000D01*
X224945722Y-100570000D01*
X224018886Y-99643165D01*
X223950000Y-99688623D01*
X223881114Y-99643165D01*
X222954278Y-100570000D01*
X221545722Y-100570000D01*
X220618886Y-99643165D01*
X220361160Y-99813239D01*
X220249817Y-100196274D01*
X220215339Y-100593672D01*
X217438072Y-100593672D01*
X217438072Y-99430000D01*
X217425812Y-99305518D01*
X217389502Y-99185820D01*
X217330537Y-99075506D01*
X217251185Y-98978815D01*
X217202532Y-98938886D01*
X221323165Y-98938886D01*
X222250000Y-99865722D01*
X223176835Y-98938886D01*
X224723165Y-98938886D01*
X225650000Y-99865722D01*
X226576835Y-98938886D01*
X226406761Y-98681160D01*
X226023726Y-98569817D01*
X225626328Y-98535339D01*
X225229841Y-98579052D01*
X224893239Y-98681160D01*
X224723165Y-98938886D01*
X223176835Y-98938886D01*
X223006761Y-98681160D01*
X222623726Y-98569817D01*
X222226328Y-98535339D01*
X221829841Y-98579052D01*
X221493239Y-98681160D01*
X221323165Y-98938886D01*
X217202532Y-98938886D01*
X217154494Y-98899463D01*
X217044180Y-98840498D01*
X217025873Y-98834944D01*
X217092312Y-98768505D01*
X217260299Y-98517095D01*
X217376011Y-98237743D01*
X217435000Y-97941184D01*
X217435000Y-97638816D01*
X217376011Y-97342257D01*
X217260299Y-97062905D01*
X217092312Y-96811495D01*
X216878505Y-96597688D01*
X216627095Y-96429701D01*
X216347743Y-96313989D01*
X216051184Y-96255000D01*
X215748816Y-96255000D01*
X215452257Y-96313989D01*
X215172905Y-96429701D01*
X214921495Y-96597688D01*
X214707688Y-96811495D01*
X214539701Y-97062905D01*
X214423989Y-97342257D01*
X214365000Y-97638816D01*
X214365000Y-97941184D01*
X214423989Y-98237743D01*
X214539701Y-98517095D01*
X214707688Y-98768505D01*
X214774127Y-98834944D01*
X214755820Y-98840498D01*
X214645506Y-98899463D01*
X214548815Y-98978815D01*
X214469463Y-99075506D01*
X214410498Y-99185820D01*
X214374188Y-99305518D01*
X214361928Y-99430000D01*
X214361928Y-101230000D01*
X214374188Y-101354482D01*
X214410498Y-101474180D01*
X214469463Y-101584494D01*
X214548815Y-101681185D01*
X214645506Y-101760537D01*
X214755820Y-101819502D01*
X214765001Y-101822287D01*
X214765001Y-102165711D01*
X214716939Y-102237641D01*
X214616304Y-102480595D01*
X214565000Y-102738514D01*
X214565000Y-103001486D01*
X214586867Y-103111417D01*
X201974887Y-103102599D01*
X201995000Y-103001486D01*
X201995000Y-102738514D01*
X201943696Y-102480595D01*
X201843061Y-102237641D01*
X201818655Y-102201114D01*
X206083165Y-102201114D01*
X206253239Y-102458840D01*
X206636274Y-102570183D01*
X207033672Y-102604661D01*
X207430159Y-102560948D01*
X207766761Y-102458840D01*
X207936835Y-102201114D01*
X209483165Y-102201114D01*
X209653239Y-102458840D01*
X210036274Y-102570183D01*
X210433672Y-102604661D01*
X210830159Y-102560948D01*
X211166761Y-102458840D01*
X211336835Y-102201114D01*
X210410000Y-101274278D01*
X209483165Y-102201114D01*
X207936835Y-102201114D01*
X207010000Y-101274278D01*
X206083165Y-102201114D01*
X201818655Y-102201114D01*
X201795000Y-102165712D01*
X201795000Y-101822287D01*
X201804180Y-101819502D01*
X201914494Y-101760537D01*
X202011185Y-101681185D01*
X202090537Y-101584494D01*
X202149502Y-101474180D01*
X202185812Y-101354482D01*
X202198072Y-101230000D01*
X202198072Y-100593672D01*
X204975339Y-100593672D01*
X205019052Y-100990159D01*
X205121160Y-101326761D01*
X205378886Y-101496835D01*
X206305722Y-100570000D01*
X207714278Y-100570000D01*
X208641114Y-101496835D01*
X208710000Y-101451377D01*
X208778886Y-101496835D01*
X209705722Y-100570000D01*
X211114278Y-100570000D01*
X212041114Y-101496835D01*
X212298840Y-101326761D01*
X212410183Y-100943726D01*
X212444661Y-100546328D01*
X212400948Y-100149841D01*
X212298840Y-99813239D01*
X212041114Y-99643165D01*
X211114278Y-100570000D01*
X209705722Y-100570000D01*
X208778886Y-99643165D01*
X208710000Y-99688623D01*
X208641114Y-99643165D01*
X207714278Y-100570000D01*
X206305722Y-100570000D01*
X205378886Y-99643165D01*
X205121160Y-99813239D01*
X205009817Y-100196274D01*
X204975339Y-100593672D01*
X202198072Y-100593672D01*
X202198072Y-99430000D01*
X202185812Y-99305518D01*
X202149502Y-99185820D01*
X202090537Y-99075506D01*
X202011185Y-98978815D01*
X201962532Y-98938886D01*
X206083165Y-98938886D01*
X207010000Y-99865722D01*
X207936835Y-98938886D01*
X209483165Y-98938886D01*
X210410000Y-99865722D01*
X211336835Y-98938886D01*
X211166761Y-98681160D01*
X210783726Y-98569817D01*
X210386328Y-98535339D01*
X209989841Y-98579052D01*
X209653239Y-98681160D01*
X209483165Y-98938886D01*
X207936835Y-98938886D01*
X207766761Y-98681160D01*
X207383726Y-98569817D01*
X206986328Y-98535339D01*
X206589841Y-98579052D01*
X206253239Y-98681160D01*
X206083165Y-98938886D01*
X201962532Y-98938886D01*
X201914494Y-98899463D01*
X201804180Y-98840498D01*
X201785873Y-98834944D01*
X201852312Y-98768505D01*
X202020299Y-98517095D01*
X202136011Y-98237743D01*
X202195000Y-97941184D01*
X202195000Y-97638816D01*
X202136011Y-97342257D01*
X202020299Y-97062905D01*
X201852312Y-96811495D01*
X201638505Y-96597688D01*
X201387095Y-96429701D01*
X201107743Y-96313989D01*
X200811184Y-96255000D01*
X200508816Y-96255000D01*
X200212257Y-96313989D01*
X199932905Y-96429701D01*
X199681495Y-96597688D01*
X199467688Y-96811495D01*
X199299701Y-97062905D01*
X199183989Y-97342257D01*
X199125000Y-97638816D01*
X199125000Y-97941184D01*
X199183989Y-98237743D01*
X199299701Y-98517095D01*
X199467688Y-98768505D01*
X199534127Y-98834944D01*
X199515820Y-98840498D01*
X199405506Y-98899463D01*
X199308815Y-98978815D01*
X199229463Y-99075506D01*
X199170498Y-99185820D01*
X199134188Y-99305518D01*
X199121928Y-99430000D01*
X199121928Y-101230000D01*
X199134188Y-101354482D01*
X199170498Y-101474180D01*
X199229463Y-101584494D01*
X199308815Y-101681185D01*
X199405506Y-101760537D01*
X199515820Y-101819502D01*
X199525001Y-101822287D01*
X199525001Y-102165711D01*
X199476939Y-102237641D01*
X199376304Y-102480595D01*
X199325000Y-102738514D01*
X199325000Y-103001486D01*
X199344747Y-103100760D01*
X159475400Y-103072883D01*
X159475400Y-102865514D01*
X159424096Y-102607595D01*
X159323461Y-102364641D01*
X159275400Y-102292712D01*
X159275400Y-102201114D01*
X190843165Y-102201114D01*
X191013239Y-102458840D01*
X191396274Y-102570183D01*
X191793672Y-102604661D01*
X192190159Y-102560948D01*
X192526761Y-102458840D01*
X192696835Y-102201114D01*
X194243165Y-102201114D01*
X194413239Y-102458840D01*
X194796274Y-102570183D01*
X195193672Y-102604661D01*
X195590159Y-102560948D01*
X195926761Y-102458840D01*
X196096835Y-102201114D01*
X195170000Y-101274278D01*
X194243165Y-102201114D01*
X192696835Y-102201114D01*
X191770000Y-101274278D01*
X190843165Y-102201114D01*
X159275400Y-102201114D01*
X159275400Y-101873087D01*
X159284580Y-101870302D01*
X159394894Y-101811337D01*
X159491585Y-101731985D01*
X159570937Y-101635294D01*
X159629902Y-101524980D01*
X159666212Y-101405282D01*
X159678472Y-101280800D01*
X159678472Y-100593672D01*
X189735339Y-100593672D01*
X189779052Y-100990159D01*
X189881160Y-101326761D01*
X190138886Y-101496835D01*
X191065722Y-100570000D01*
X192474278Y-100570000D01*
X193401114Y-101496835D01*
X193470000Y-101451377D01*
X193538886Y-101496835D01*
X194465722Y-100570000D01*
X195874278Y-100570000D01*
X196801114Y-101496835D01*
X197058840Y-101326761D01*
X197170183Y-100943726D01*
X197204661Y-100546328D01*
X197160948Y-100149841D01*
X197058840Y-99813239D01*
X196801114Y-99643165D01*
X195874278Y-100570000D01*
X194465722Y-100570000D01*
X193538886Y-99643165D01*
X193470000Y-99688623D01*
X193401114Y-99643165D01*
X192474278Y-100570000D01*
X191065722Y-100570000D01*
X190138886Y-99643165D01*
X189881160Y-99813239D01*
X189769817Y-100196274D01*
X189735339Y-100593672D01*
X159678472Y-100593672D01*
X159678472Y-99480800D01*
X159666212Y-99356318D01*
X159629902Y-99236620D01*
X159570937Y-99126306D01*
X159491585Y-99029615D01*
X159394894Y-98950263D01*
X159284580Y-98891298D01*
X159266273Y-98885744D01*
X159332712Y-98819305D01*
X159500699Y-98567895D01*
X159616411Y-98288543D01*
X159675400Y-97991984D01*
X159675400Y-97689616D01*
X159616411Y-97393057D01*
X159500699Y-97113705D01*
X159485342Y-97090721D01*
X176295200Y-97090721D01*
X176295200Y-97511279D01*
X176377247Y-97923756D01*
X176538188Y-98312302D01*
X176771837Y-98661983D01*
X177069217Y-98959363D01*
X177418898Y-99193012D01*
X177807444Y-99353953D01*
X178219921Y-99436000D01*
X178640479Y-99436000D01*
X179052956Y-99353953D01*
X179441502Y-99193012D01*
X179791183Y-98959363D01*
X179811660Y-98938886D01*
X190843165Y-98938886D01*
X191770000Y-99865722D01*
X192696835Y-98938886D01*
X194243165Y-98938886D01*
X195170000Y-99865722D01*
X196096835Y-98938886D01*
X195926761Y-98681160D01*
X195543726Y-98569817D01*
X195146328Y-98535339D01*
X194749841Y-98579052D01*
X194413239Y-98681160D01*
X194243165Y-98938886D01*
X192696835Y-98938886D01*
X192526761Y-98681160D01*
X192143726Y-98569817D01*
X191746328Y-98535339D01*
X191349841Y-98579052D01*
X191013239Y-98681160D01*
X190843165Y-98938886D01*
X179811660Y-98938886D01*
X180088563Y-98661983D01*
X180322212Y-98312302D01*
X180483153Y-97923756D01*
X180565200Y-97511279D01*
X180565200Y-97090721D01*
X180483153Y-96678244D01*
X180322212Y-96289698D01*
X180088563Y-95940017D01*
X179791183Y-95642637D01*
X179441502Y-95408988D01*
X179052956Y-95248047D01*
X178640479Y-95166000D01*
X178219921Y-95166000D01*
X177807444Y-95248047D01*
X177418898Y-95408988D01*
X177069217Y-95642637D01*
X176771837Y-95940017D01*
X176538188Y-96289698D01*
X176377247Y-96678244D01*
X176295200Y-97090721D01*
X159485342Y-97090721D01*
X159332712Y-96862295D01*
X159118905Y-96648488D01*
X158867495Y-96480501D01*
X158588143Y-96364789D01*
X158291584Y-96305800D01*
X157989216Y-96305800D01*
X157692657Y-96364789D01*
X157413305Y-96480501D01*
X157161895Y-96648488D01*
X156948088Y-96862295D01*
X156780101Y-97113705D01*
X156664389Y-97393057D01*
X156605400Y-97689616D01*
X156605400Y-97991984D01*
X156664389Y-98288543D01*
X156780101Y-98567895D01*
X156948088Y-98819305D01*
X157014527Y-98885744D01*
X156996220Y-98891298D01*
X156885906Y-98950263D01*
X156789215Y-99029615D01*
X156709863Y-99126306D01*
X156650898Y-99236620D01*
X156614588Y-99356318D01*
X156602328Y-99480800D01*
X156602328Y-101280800D01*
X156614588Y-101405282D01*
X156650898Y-101524980D01*
X156709863Y-101635294D01*
X156789215Y-101731985D01*
X156885906Y-101811337D01*
X156996220Y-101870302D01*
X157005401Y-101873087D01*
X157005401Y-102292711D01*
X156957339Y-102364641D01*
X156856704Y-102607595D01*
X156805400Y-102865514D01*
X156805400Y-103071016D01*
X144438600Y-103062370D01*
X144438600Y-102865514D01*
X144387296Y-102607595D01*
X144286661Y-102364641D01*
X144263124Y-102329414D01*
X148044165Y-102329414D01*
X148214239Y-102587140D01*
X148597274Y-102698483D01*
X148994672Y-102732961D01*
X149391159Y-102689248D01*
X149727761Y-102587140D01*
X149897835Y-102329414D01*
X151444165Y-102329414D01*
X151614239Y-102587140D01*
X151997274Y-102698483D01*
X152394672Y-102732961D01*
X152791159Y-102689248D01*
X153127761Y-102587140D01*
X153297835Y-102329414D01*
X152371000Y-101402578D01*
X151444165Y-102329414D01*
X149897835Y-102329414D01*
X148971000Y-101402578D01*
X148044165Y-102329414D01*
X144263124Y-102329414D01*
X144238600Y-102292712D01*
X144238600Y-101873087D01*
X144247780Y-101870302D01*
X144358094Y-101811337D01*
X144454785Y-101731985D01*
X144534137Y-101635294D01*
X144593102Y-101524980D01*
X144629412Y-101405282D01*
X144641672Y-101280800D01*
X144641672Y-100721972D01*
X146936339Y-100721972D01*
X146980052Y-101118459D01*
X147082160Y-101455061D01*
X147339886Y-101625135D01*
X148266722Y-100698300D01*
X149675278Y-100698300D01*
X150602114Y-101625135D01*
X150671000Y-101579677D01*
X150739886Y-101625135D01*
X151666722Y-100698300D01*
X153075278Y-100698300D01*
X154002114Y-101625135D01*
X154259840Y-101455061D01*
X154371183Y-101072026D01*
X154405661Y-100674628D01*
X154361948Y-100278141D01*
X154259840Y-99941539D01*
X154002114Y-99771465D01*
X153075278Y-100698300D01*
X151666722Y-100698300D01*
X150739886Y-99771465D01*
X150671000Y-99816923D01*
X150602114Y-99771465D01*
X149675278Y-100698300D01*
X148266722Y-100698300D01*
X147339886Y-99771465D01*
X147082160Y-99941539D01*
X146970817Y-100324574D01*
X146936339Y-100721972D01*
X144641672Y-100721972D01*
X144641672Y-99480800D01*
X144629412Y-99356318D01*
X144593102Y-99236620D01*
X144534137Y-99126306D01*
X144485619Y-99067186D01*
X148044165Y-99067186D01*
X148971000Y-99994022D01*
X149897835Y-99067186D01*
X151444165Y-99067186D01*
X152371000Y-99994022D01*
X153297835Y-99067186D01*
X153127761Y-98809460D01*
X152744726Y-98698117D01*
X152347328Y-98663639D01*
X151950841Y-98707352D01*
X151614239Y-98809460D01*
X151444165Y-99067186D01*
X149897835Y-99067186D01*
X149727761Y-98809460D01*
X149344726Y-98698117D01*
X148947328Y-98663639D01*
X148550841Y-98707352D01*
X148214239Y-98809460D01*
X148044165Y-99067186D01*
X144485619Y-99067186D01*
X144454785Y-99029615D01*
X144358094Y-98950263D01*
X144247780Y-98891298D01*
X144229473Y-98885744D01*
X144295912Y-98819305D01*
X144463899Y-98567895D01*
X144579611Y-98288543D01*
X144638600Y-97991984D01*
X144638600Y-97689616D01*
X144579611Y-97393057D01*
X144463899Y-97113705D01*
X144295912Y-96862295D01*
X144082105Y-96648488D01*
X143830695Y-96480501D01*
X143551343Y-96364789D01*
X143254784Y-96305800D01*
X142952416Y-96305800D01*
X142655857Y-96364789D01*
X142376505Y-96480501D01*
X142125095Y-96648488D01*
X141911288Y-96862295D01*
X141743301Y-97113705D01*
X141627589Y-97393057D01*
X141568600Y-97689616D01*
X141568600Y-97991984D01*
X141627589Y-98288543D01*
X141743301Y-98567895D01*
X141911288Y-98819305D01*
X141977727Y-98885744D01*
X141959420Y-98891298D01*
X141849106Y-98950263D01*
X141752415Y-99029615D01*
X141673063Y-99126306D01*
X141614098Y-99236620D01*
X141577788Y-99356318D01*
X141565528Y-99480800D01*
X141565528Y-101280800D01*
X141577788Y-101405282D01*
X141614098Y-101524980D01*
X141673063Y-101635294D01*
X141752415Y-101731985D01*
X141849106Y-101811337D01*
X141959420Y-101870302D01*
X141968600Y-101873087D01*
X141968600Y-102292712D01*
X141920539Y-102364641D01*
X141819904Y-102607595D01*
X141768600Y-102865514D01*
X141768600Y-103060503D01*
X129554200Y-103051962D01*
X129554200Y-102865514D01*
X129502896Y-102607595D01*
X129402261Y-102364641D01*
X129378724Y-102329414D01*
X133261565Y-102329414D01*
X133431639Y-102587140D01*
X133814674Y-102698483D01*
X134212072Y-102732961D01*
X134608559Y-102689248D01*
X134945161Y-102587140D01*
X135115235Y-102329414D01*
X136661565Y-102329414D01*
X136831639Y-102587140D01*
X137214674Y-102698483D01*
X137612072Y-102732961D01*
X138008559Y-102689248D01*
X138345161Y-102587140D01*
X138515235Y-102329414D01*
X137588400Y-101402578D01*
X136661565Y-102329414D01*
X135115235Y-102329414D01*
X134188400Y-101402578D01*
X133261565Y-102329414D01*
X129378724Y-102329414D01*
X129354200Y-102292712D01*
X129354200Y-101880792D01*
X129388780Y-101870302D01*
X129499094Y-101811337D01*
X129595785Y-101731985D01*
X129675137Y-101635294D01*
X129734102Y-101524980D01*
X129770412Y-101405282D01*
X129782672Y-101280800D01*
X129782672Y-100721972D01*
X132153739Y-100721972D01*
X132197452Y-101118459D01*
X132299560Y-101455061D01*
X132557286Y-101625135D01*
X133484122Y-100698300D01*
X134892678Y-100698300D01*
X135819514Y-101625135D01*
X135888400Y-101579677D01*
X135957286Y-101625135D01*
X136884122Y-100698300D01*
X138292678Y-100698300D01*
X139219514Y-101625135D01*
X139477240Y-101455061D01*
X139588583Y-101072026D01*
X139623061Y-100674628D01*
X139579348Y-100278141D01*
X139477240Y-99941539D01*
X139219514Y-99771465D01*
X138292678Y-100698300D01*
X136884122Y-100698300D01*
X135957286Y-99771465D01*
X135888400Y-99816923D01*
X135819514Y-99771465D01*
X134892678Y-100698300D01*
X133484122Y-100698300D01*
X132557286Y-99771465D01*
X132299560Y-99941539D01*
X132188217Y-100324574D01*
X132153739Y-100721972D01*
X129782672Y-100721972D01*
X129782672Y-99480800D01*
X129770412Y-99356318D01*
X129734102Y-99236620D01*
X129675137Y-99126306D01*
X129626619Y-99067186D01*
X133261565Y-99067186D01*
X134188400Y-99994022D01*
X135115235Y-99067186D01*
X136661565Y-99067186D01*
X137588400Y-99994022D01*
X138515235Y-99067186D01*
X138345161Y-98809460D01*
X137962126Y-98698117D01*
X137564728Y-98663639D01*
X137168241Y-98707352D01*
X136831639Y-98809460D01*
X136661565Y-99067186D01*
X135115235Y-99067186D01*
X134945161Y-98809460D01*
X134562126Y-98698117D01*
X134164728Y-98663639D01*
X133768241Y-98707352D01*
X133431639Y-98809460D01*
X133261565Y-99067186D01*
X129626619Y-99067186D01*
X129595785Y-99029615D01*
X129499094Y-98950263D01*
X129388780Y-98891298D01*
X129370473Y-98885744D01*
X129436912Y-98819305D01*
X129604899Y-98567895D01*
X129720611Y-98288543D01*
X129779600Y-97991984D01*
X129779600Y-97689616D01*
X129720611Y-97393057D01*
X129604899Y-97113705D01*
X129436912Y-96862295D01*
X129223105Y-96648488D01*
X128971695Y-96480501D01*
X128692343Y-96364789D01*
X128395784Y-96305800D01*
X128093416Y-96305800D01*
X127796857Y-96364789D01*
X127517505Y-96480501D01*
X127266095Y-96648488D01*
X127052288Y-96862295D01*
X126884301Y-97113705D01*
X126768589Y-97393057D01*
X126709600Y-97689616D01*
X126709600Y-97991984D01*
X126768589Y-98288543D01*
X126884301Y-98567895D01*
X127052288Y-98819305D01*
X127118727Y-98885744D01*
X127100420Y-98891298D01*
X126990106Y-98950263D01*
X126893415Y-99029615D01*
X126814063Y-99126306D01*
X126755098Y-99236620D01*
X126718788Y-99356318D01*
X126706528Y-99480800D01*
X126706528Y-101280800D01*
X126718788Y-101405282D01*
X126755098Y-101524980D01*
X126814063Y-101635294D01*
X126893415Y-101731985D01*
X126990106Y-101811337D01*
X127084200Y-101861632D01*
X127084200Y-102292712D01*
X127036139Y-102364641D01*
X126935504Y-102607595D01*
X126884200Y-102865514D01*
X126884200Y-103050095D01*
X114974600Y-103041768D01*
X114974600Y-102865514D01*
X114923296Y-102607595D01*
X114822661Y-102364641D01*
X114800000Y-102330726D01*
X114800000Y-102329414D01*
X118427765Y-102329414D01*
X118597839Y-102587140D01*
X118980874Y-102698483D01*
X119378272Y-102732961D01*
X119774759Y-102689248D01*
X120111361Y-102587140D01*
X120281435Y-102329414D01*
X121827765Y-102329414D01*
X121997839Y-102587140D01*
X122380874Y-102698483D01*
X122778272Y-102732961D01*
X123174759Y-102689248D01*
X123511361Y-102587140D01*
X123681435Y-102329414D01*
X122754600Y-101402578D01*
X121827765Y-102329414D01*
X120281435Y-102329414D01*
X119354600Y-101402578D01*
X118427765Y-102329414D01*
X114800000Y-102329414D01*
X114800000Y-101873087D01*
X114809180Y-101870302D01*
X114919494Y-101811337D01*
X115016185Y-101731985D01*
X115095537Y-101635294D01*
X115154502Y-101524980D01*
X115190812Y-101405282D01*
X115203072Y-101280800D01*
X115203072Y-100721972D01*
X117319939Y-100721972D01*
X117363652Y-101118459D01*
X117465760Y-101455061D01*
X117723486Y-101625135D01*
X118650322Y-100698300D01*
X120058878Y-100698300D01*
X120985714Y-101625135D01*
X121054600Y-101579677D01*
X121123486Y-101625135D01*
X122050322Y-100698300D01*
X123458878Y-100698300D01*
X124385714Y-101625135D01*
X124643440Y-101455061D01*
X124754783Y-101072026D01*
X124789261Y-100674628D01*
X124745548Y-100278141D01*
X124643440Y-99941539D01*
X124385714Y-99771465D01*
X123458878Y-100698300D01*
X122050322Y-100698300D01*
X121123486Y-99771465D01*
X121054600Y-99816923D01*
X120985714Y-99771465D01*
X120058878Y-100698300D01*
X118650322Y-100698300D01*
X117723486Y-99771465D01*
X117465760Y-99941539D01*
X117354417Y-100324574D01*
X117319939Y-100721972D01*
X115203072Y-100721972D01*
X115203072Y-99480800D01*
X115190812Y-99356318D01*
X115154502Y-99236620D01*
X115095537Y-99126306D01*
X115047019Y-99067186D01*
X118427765Y-99067186D01*
X119354600Y-99994022D01*
X120281435Y-99067186D01*
X121827765Y-99067186D01*
X122754600Y-99994022D01*
X123681435Y-99067186D01*
X123511361Y-98809460D01*
X123128326Y-98698117D01*
X122730928Y-98663639D01*
X122334441Y-98707352D01*
X121997839Y-98809460D01*
X121827765Y-99067186D01*
X120281435Y-99067186D01*
X120111361Y-98809460D01*
X119728326Y-98698117D01*
X119330928Y-98663639D01*
X118934441Y-98707352D01*
X118597839Y-98809460D01*
X118427765Y-99067186D01*
X115047019Y-99067186D01*
X115016185Y-99029615D01*
X114919494Y-98950263D01*
X114809180Y-98891298D01*
X114790873Y-98885744D01*
X114857312Y-98819305D01*
X115025299Y-98567895D01*
X115141011Y-98288543D01*
X115200000Y-97991984D01*
X115200000Y-97689616D01*
X115141011Y-97393057D01*
X115025299Y-97113705D01*
X114857312Y-96862295D01*
X114643505Y-96648488D01*
X114392095Y-96480501D01*
X114112743Y-96364789D01*
X113816184Y-96305800D01*
X113513816Y-96305800D01*
X113217257Y-96364789D01*
X112937905Y-96480501D01*
X112686495Y-96648488D01*
X112472688Y-96862295D01*
X112304701Y-97113705D01*
X112188989Y-97393057D01*
X112130000Y-97689616D01*
X112130000Y-97991984D01*
X112188989Y-98288543D01*
X112304701Y-98567895D01*
X112472688Y-98819305D01*
X112539127Y-98885744D01*
X112520820Y-98891298D01*
X112410506Y-98950263D01*
X112313815Y-99029615D01*
X112234463Y-99126306D01*
X112175498Y-99236620D01*
X112139188Y-99356318D01*
X112126928Y-99480800D01*
X112126928Y-101280800D01*
X112139188Y-101405282D01*
X112175498Y-101524980D01*
X112234463Y-101635294D01*
X112313815Y-101731985D01*
X112410506Y-101811337D01*
X112520820Y-101870302D01*
X112530001Y-101873087D01*
X112530001Y-102254697D01*
X112456539Y-102364641D01*
X112355904Y-102607595D01*
X112304600Y-102865514D01*
X112304600Y-103039901D01*
X100344200Y-103031539D01*
X100344200Y-102865514D01*
X100292896Y-102607595D01*
X100192261Y-102364641D01*
X100168724Y-102329414D01*
X104000565Y-102329414D01*
X104170639Y-102587140D01*
X104553674Y-102698483D01*
X104951072Y-102732961D01*
X105347559Y-102689248D01*
X105684161Y-102587140D01*
X105854235Y-102329414D01*
X107400565Y-102329414D01*
X107570639Y-102587140D01*
X107953674Y-102698483D01*
X108351072Y-102732961D01*
X108747559Y-102689248D01*
X109084161Y-102587140D01*
X109254235Y-102329414D01*
X108327400Y-101402578D01*
X107400565Y-102329414D01*
X105854235Y-102329414D01*
X104927400Y-101402578D01*
X104000565Y-102329414D01*
X100168724Y-102329414D01*
X100144200Y-102292712D01*
X100144200Y-101873087D01*
X100153380Y-101870302D01*
X100263694Y-101811337D01*
X100360385Y-101731985D01*
X100439737Y-101635294D01*
X100498702Y-101524980D01*
X100535012Y-101405282D01*
X100547272Y-101280800D01*
X100547272Y-100721972D01*
X102892739Y-100721972D01*
X102936452Y-101118459D01*
X103038560Y-101455061D01*
X103296286Y-101625135D01*
X104223122Y-100698300D01*
X105631678Y-100698300D01*
X106558514Y-101625135D01*
X106627400Y-101579677D01*
X106696286Y-101625135D01*
X107623122Y-100698300D01*
X109031678Y-100698300D01*
X109958514Y-101625135D01*
X110216240Y-101455061D01*
X110327583Y-101072026D01*
X110362061Y-100674628D01*
X110318348Y-100278141D01*
X110216240Y-99941539D01*
X109958514Y-99771465D01*
X109031678Y-100698300D01*
X107623122Y-100698300D01*
X106696286Y-99771465D01*
X106627400Y-99816923D01*
X106558514Y-99771465D01*
X105631678Y-100698300D01*
X104223122Y-100698300D01*
X103296286Y-99771465D01*
X103038560Y-99941539D01*
X102927217Y-100324574D01*
X102892739Y-100721972D01*
X100547272Y-100721972D01*
X100547272Y-99480800D01*
X100535012Y-99356318D01*
X100498702Y-99236620D01*
X100439737Y-99126306D01*
X100391219Y-99067186D01*
X104000565Y-99067186D01*
X104927400Y-99994022D01*
X105854235Y-99067186D01*
X107400565Y-99067186D01*
X108327400Y-99994022D01*
X109254235Y-99067186D01*
X109084161Y-98809460D01*
X108701126Y-98698117D01*
X108303728Y-98663639D01*
X107907241Y-98707352D01*
X107570639Y-98809460D01*
X107400565Y-99067186D01*
X105854235Y-99067186D01*
X105684161Y-98809460D01*
X105301126Y-98698117D01*
X104903728Y-98663639D01*
X104507241Y-98707352D01*
X104170639Y-98809460D01*
X104000565Y-99067186D01*
X100391219Y-99067186D01*
X100360385Y-99029615D01*
X100263694Y-98950263D01*
X100153380Y-98891298D01*
X100135073Y-98885744D01*
X100201512Y-98819305D01*
X100369499Y-98567895D01*
X100485211Y-98288543D01*
X100544200Y-97991984D01*
X100544200Y-97689616D01*
X100485211Y-97393057D01*
X100369499Y-97113705D01*
X100201512Y-96862295D01*
X99987705Y-96648488D01*
X99736295Y-96480501D01*
X99456943Y-96364789D01*
X99160384Y-96305800D01*
X98858016Y-96305800D01*
X98561457Y-96364789D01*
X98282105Y-96480501D01*
X98030695Y-96648488D01*
X97816888Y-96862295D01*
X97648901Y-97113705D01*
X97533189Y-97393057D01*
X97474200Y-97689616D01*
X97474200Y-97991984D01*
X97533189Y-98288543D01*
X97648901Y-98567895D01*
X97816888Y-98819305D01*
X97883327Y-98885744D01*
X97865020Y-98891298D01*
X97754706Y-98950263D01*
X97658015Y-99029615D01*
X97578663Y-99126306D01*
X97519698Y-99236620D01*
X97483388Y-99356318D01*
X97471128Y-99480800D01*
X97471128Y-101280800D01*
X97483388Y-101405282D01*
X97519698Y-101524980D01*
X97578663Y-101635294D01*
X97658015Y-101731985D01*
X97754706Y-101811337D01*
X97865020Y-101870302D01*
X97874200Y-101873087D01*
X97874200Y-102292712D01*
X97826139Y-102364641D01*
X97725504Y-102607595D01*
X97674200Y-102865514D01*
X97674200Y-103029672D01*
X87401400Y-103022489D01*
X87401400Y-102329414D01*
X89268565Y-102329414D01*
X89438639Y-102587140D01*
X89821674Y-102698483D01*
X90219072Y-102732961D01*
X90615559Y-102689248D01*
X90952161Y-102587140D01*
X91122235Y-102329414D01*
X92668565Y-102329414D01*
X92838639Y-102587140D01*
X93221674Y-102698483D01*
X93619072Y-102732961D01*
X94015559Y-102689248D01*
X94352161Y-102587140D01*
X94522235Y-102329414D01*
X93595400Y-101402578D01*
X92668565Y-102329414D01*
X91122235Y-102329414D01*
X90195400Y-101402578D01*
X89268565Y-102329414D01*
X87401400Y-102329414D01*
X87401400Y-100721972D01*
X88160739Y-100721972D01*
X88204452Y-101118459D01*
X88306560Y-101455061D01*
X88564286Y-101625135D01*
X89491122Y-100698300D01*
X90899678Y-100698300D01*
X91826514Y-101625135D01*
X91895400Y-101579677D01*
X91964286Y-101625135D01*
X92891122Y-100698300D01*
X94299678Y-100698300D01*
X95226514Y-101625135D01*
X95484240Y-101455061D01*
X95595583Y-101072026D01*
X95630061Y-100674628D01*
X95586348Y-100278141D01*
X95484240Y-99941539D01*
X95226514Y-99771465D01*
X94299678Y-100698300D01*
X92891122Y-100698300D01*
X91964286Y-99771465D01*
X91895400Y-99816923D01*
X91826514Y-99771465D01*
X90899678Y-100698300D01*
X89491122Y-100698300D01*
X88564286Y-99771465D01*
X88306560Y-99941539D01*
X88195217Y-100324574D01*
X88160739Y-100721972D01*
X87401400Y-100721972D01*
X87401400Y-99067186D01*
X89268565Y-99067186D01*
X90195400Y-99994022D01*
X91122235Y-99067186D01*
X92668565Y-99067186D01*
X93595400Y-99994022D01*
X94522235Y-99067186D01*
X94352161Y-98809460D01*
X93969126Y-98698117D01*
X93571728Y-98663639D01*
X93175241Y-98707352D01*
X92838639Y-98809460D01*
X92668565Y-99067186D01*
X91122235Y-99067186D01*
X90952161Y-98809460D01*
X90569126Y-98698117D01*
X90171728Y-98663639D01*
X89775241Y-98707352D01*
X89438639Y-98809460D01*
X89268565Y-99067186D01*
X87401400Y-99067186D01*
X87401400Y-88397514D01*
X89268565Y-88397514D01*
X89438639Y-88655240D01*
X89821674Y-88766583D01*
X90219072Y-88801061D01*
X90615559Y-88757348D01*
X90952161Y-88655240D01*
X91122235Y-88397514D01*
X92668565Y-88397514D01*
X92838639Y-88655240D01*
X93221674Y-88766583D01*
X93619072Y-88801061D01*
X94015559Y-88757348D01*
X94352161Y-88655240D01*
X94522235Y-88397514D01*
X93595400Y-87470678D01*
X92668565Y-88397514D01*
X91122235Y-88397514D01*
X90195400Y-87470678D01*
X89268565Y-88397514D01*
X87401400Y-88397514D01*
X87401400Y-86790072D01*
X88160739Y-86790072D01*
X88204452Y-87186559D01*
X88306560Y-87523161D01*
X88564286Y-87693235D01*
X89491122Y-86766400D01*
X90899678Y-86766400D01*
X91826514Y-87693235D01*
X91895400Y-87647777D01*
X91964286Y-87693235D01*
X92891122Y-86766400D01*
X94299678Y-86766400D01*
X95226514Y-87693235D01*
X95484240Y-87523161D01*
X95595583Y-87140126D01*
X95630061Y-86742728D01*
X95586348Y-86346241D01*
X95484240Y-86009639D01*
X95226514Y-85839565D01*
X94299678Y-86766400D01*
X92891122Y-86766400D01*
X91964286Y-85839565D01*
X91895400Y-85885023D01*
X91826514Y-85839565D01*
X90899678Y-86766400D01*
X89491122Y-86766400D01*
X88564286Y-85839565D01*
X88306560Y-86009639D01*
X88195217Y-86392674D01*
X88160739Y-86790072D01*
X87401400Y-86790072D01*
X87401400Y-85135286D01*
X89268565Y-85135286D01*
X90195400Y-86062122D01*
X91122235Y-85135286D01*
X92668565Y-85135286D01*
X93595400Y-86062122D01*
X94522235Y-85135286D01*
X94352161Y-84877560D01*
X93969126Y-84766217D01*
X93571728Y-84731739D01*
X93175241Y-84775452D01*
X92838639Y-84877560D01*
X92668565Y-85135286D01*
X91122235Y-85135286D01*
X90952161Y-84877560D01*
X90569126Y-84766217D01*
X90171728Y-84731739D01*
X89775241Y-84775452D01*
X89438639Y-84877560D01*
X89268565Y-85135286D01*
X87401400Y-85135286D01*
X87401400Y-84551761D01*
X97648800Y-84571158D01*
M02*
