G04 #@! TF.GenerationSoftware,KiCad,Pcbnew,(5.1.5)-3*
G04 #@! TF.CreationDate,2021-01-11T22:53:22-06:00*
G04 #@! TF.ProjectId,Power-Primary,506f7765-722d-4507-9269-6d6172792e6b,rev?*
G04 #@! TF.SameCoordinates,Original*
G04 #@! TF.FileFunction,Legend,Bot*
G04 #@! TF.FilePolarity,Positive*
%FSLAX46Y46*%
G04 Gerber Fmt 4.6, Leading zero omitted, Abs format (unit mm)*
G04 Created by KiCad (PCBNEW (5.1.5)-3) date 2021-01-11 22:53:22*
%MOMM*%
%LPD*%
G04 APERTURE LIST*
%ADD10C,0.300000*%
%ADD11C,0.150000*%
%ADD12C,0.010000*%
G04 APERTURE END LIST*
D10*
X81304761Y-66900000D02*
X79304761Y-66900000D01*
X79304761Y-67376190D01*
X79400000Y-67661904D01*
X79590476Y-67852380D01*
X79780952Y-67947619D01*
X80161904Y-68042857D01*
X80447619Y-68042857D01*
X80828571Y-67947619D01*
X81019047Y-67852380D01*
X81209523Y-67661904D01*
X81304761Y-67376190D01*
X81304761Y-66900000D01*
X81304761Y-68900000D02*
X79971428Y-68900000D01*
X80352380Y-68900000D02*
X80161904Y-68995238D01*
X80066666Y-69090476D01*
X79971428Y-69280952D01*
X79971428Y-69471428D01*
X81114285Y-70138095D02*
X81209523Y-70233333D01*
X81304761Y-70138095D01*
X81209523Y-70042857D01*
X81114285Y-70138095D01*
X81304761Y-70138095D01*
X79400000Y-73661904D02*
X79304761Y-73471428D01*
X79304761Y-73185714D01*
X79400000Y-72900000D01*
X79590476Y-72709523D01*
X79780952Y-72614285D01*
X80161904Y-72519047D01*
X80447619Y-72519047D01*
X80828571Y-72614285D01*
X81019047Y-72709523D01*
X81209523Y-72900000D01*
X81304761Y-73185714D01*
X81304761Y-73376190D01*
X81209523Y-73661904D01*
X81114285Y-73757142D01*
X80447619Y-73757142D01*
X80447619Y-73376190D01*
X81304761Y-75471428D02*
X80257142Y-75471428D01*
X80066666Y-75376190D01*
X79971428Y-75185714D01*
X79971428Y-74804761D01*
X80066666Y-74614285D01*
X81209523Y-75471428D02*
X81304761Y-75280952D01*
X81304761Y-74804761D01*
X81209523Y-74614285D01*
X81019047Y-74519047D01*
X80828571Y-74519047D01*
X80638095Y-74614285D01*
X80542857Y-74804761D01*
X80542857Y-75280952D01*
X80447619Y-75471428D01*
X81304761Y-76423809D02*
X79971428Y-76423809D01*
X80352380Y-76423809D02*
X80161904Y-76519047D01*
X80066666Y-76614285D01*
X79971428Y-76804761D01*
X79971428Y-76995238D01*
X79971428Y-77471428D02*
X81304761Y-77947619D01*
X79971428Y-78423809D02*
X81304761Y-77947619D01*
X81780952Y-77757142D01*
X81876190Y-77661904D01*
X81971428Y-77471428D01*
X81304761Y-80709523D02*
X79304761Y-80709523D01*
X80257142Y-80709523D02*
X80257142Y-81852380D01*
X81304761Y-81852380D02*
X79304761Y-81852380D01*
X81304761Y-83661904D02*
X80257142Y-83661904D01*
X80066666Y-83566666D01*
X79971428Y-83376190D01*
X79971428Y-82995238D01*
X80066666Y-82804761D01*
X81209523Y-83661904D02*
X81304761Y-83471428D01*
X81304761Y-82995238D01*
X81209523Y-82804761D01*
X81019047Y-82709523D01*
X80828571Y-82709523D01*
X80638095Y-82804761D01*
X80542857Y-82995238D01*
X80542857Y-83471428D01*
X80447619Y-83661904D01*
X81304761Y-84900000D02*
X81209523Y-84709523D01*
X81019047Y-84614285D01*
X79304761Y-84614285D01*
X81304761Y-85947619D02*
X81209523Y-85757142D01*
X81019047Y-85661904D01*
X79304761Y-85661904D01*
X81304761Y-86995238D02*
X81209523Y-86804761D01*
X81114285Y-86709523D01*
X80923809Y-86614285D01*
X80352380Y-86614285D01*
X80161904Y-86709523D01*
X80066666Y-86804761D01*
X79971428Y-86995238D01*
X79971428Y-87280952D01*
X80066666Y-87471428D01*
X80161904Y-87566666D01*
X80352380Y-87661904D01*
X80923809Y-87661904D01*
X81114285Y-87566666D01*
X81209523Y-87471428D01*
X81304761Y-87280952D01*
X81304761Y-86995238D01*
X81209523Y-89376190D02*
X81304761Y-89185714D01*
X81304761Y-88804761D01*
X81209523Y-88614285D01*
X81114285Y-88519047D01*
X80923809Y-88423809D01*
X80352380Y-88423809D01*
X80161904Y-88519047D01*
X80066666Y-88614285D01*
X79971428Y-88804761D01*
X79971428Y-89185714D01*
X80066666Y-89376190D01*
X81304761Y-90233333D02*
X79304761Y-90233333D01*
X80542857Y-90423809D02*
X81304761Y-90995238D01*
X79971428Y-90995238D02*
X80733333Y-90233333D01*
X22821428Y-106464285D02*
X21321428Y-105964285D01*
X22821428Y-105464285D01*
X21321428Y-104964285D02*
X22321428Y-104964285D01*
X22821428Y-104964285D02*
X22750000Y-105035714D01*
X22678571Y-104964285D01*
X22750000Y-104892857D01*
X22821428Y-104964285D01*
X22678571Y-104964285D01*
X22321428Y-104250000D02*
X21321428Y-104250000D01*
X22178571Y-104250000D02*
X22250000Y-104178571D01*
X22321428Y-104035714D01*
X22321428Y-103821428D01*
X22250000Y-103678571D01*
X22107142Y-103607142D01*
X21321428Y-103607142D01*
X20750000Y-102464285D02*
X20821428Y-102535714D01*
X21035714Y-102678571D01*
X21178571Y-102750000D01*
X21392857Y-102821428D01*
X21750000Y-102892857D01*
X22035714Y-102892857D01*
X22392857Y-102821428D01*
X22607142Y-102750000D01*
X22750000Y-102678571D01*
X22964285Y-102535714D01*
X23035714Y-102464285D01*
X21892857Y-101892857D02*
X21892857Y-100750000D01*
X21321428Y-101321428D02*
X22464285Y-101321428D01*
X20750000Y-100178571D02*
X20821428Y-100107142D01*
X21035714Y-99964285D01*
X21178571Y-99892857D01*
X21392857Y-99821428D01*
X21750000Y-99750000D01*
X22035714Y-99750000D01*
X22392857Y-99821428D01*
X22607142Y-99892857D01*
X22750000Y-99964285D01*
X22964285Y-100107142D01*
X23035714Y-100178571D01*
X22821428Y-97064285D02*
X21321428Y-96564285D01*
X22821428Y-96064285D01*
X21321428Y-95564285D02*
X22321428Y-95564285D01*
X22821428Y-95564285D02*
X22750000Y-95635714D01*
X22678571Y-95564285D01*
X22750000Y-95492857D01*
X22821428Y-95564285D01*
X22678571Y-95564285D01*
X22321428Y-94850000D02*
X21321428Y-94850000D01*
X22178571Y-94850000D02*
X22250000Y-94778571D01*
X22321428Y-94635714D01*
X22321428Y-94421428D01*
X22250000Y-94278571D01*
X22107142Y-94207142D01*
X21321428Y-94207142D01*
X20750000Y-93064285D02*
X20821428Y-93135714D01*
X21035714Y-93278571D01*
X21178571Y-93350000D01*
X21392857Y-93421428D01*
X21750000Y-93492857D01*
X22035714Y-93492857D01*
X22392857Y-93421428D01*
X22607142Y-93350000D01*
X22750000Y-93278571D01*
X22964285Y-93135714D01*
X23035714Y-93064285D01*
X21892857Y-92492857D02*
X21892857Y-91350000D01*
X20750000Y-90778571D02*
X20821428Y-90707142D01*
X21035714Y-90564285D01*
X21178571Y-90492857D01*
X21392857Y-90421428D01*
X21750000Y-90350000D01*
X22035714Y-90350000D01*
X22392857Y-90421428D01*
X22607142Y-90492857D01*
X22750000Y-90564285D01*
X22964285Y-90707142D01*
X23035714Y-90778571D01*
X237378571Y-95885714D02*
X238878571Y-96385714D01*
X237378571Y-96885714D01*
X238878571Y-97600000D02*
X238807142Y-97457142D01*
X238735714Y-97385714D01*
X238592857Y-97314285D01*
X238164285Y-97314285D01*
X238021428Y-97385714D01*
X237950000Y-97457142D01*
X237878571Y-97600000D01*
X237878571Y-97814285D01*
X237950000Y-97957142D01*
X238021428Y-98028571D01*
X238164285Y-98100000D01*
X238592857Y-98100000D01*
X238735714Y-98028571D01*
X238807142Y-97957142D01*
X238878571Y-97814285D01*
X238878571Y-97600000D01*
X237878571Y-99385714D02*
X238878571Y-99385714D01*
X237878571Y-98742857D02*
X238664285Y-98742857D01*
X238807142Y-98814285D01*
X238878571Y-98957142D01*
X238878571Y-99171428D01*
X238807142Y-99314285D01*
X238735714Y-99385714D01*
X237878571Y-99885714D02*
X237878571Y-100457142D01*
X237378571Y-100100000D02*
X238664285Y-100100000D01*
X238807142Y-100171428D01*
X238878571Y-100314285D01*
X238878571Y-100457142D01*
X239450000Y-101385714D02*
X239378571Y-101314285D01*
X239164285Y-101171428D01*
X239021428Y-101100000D01*
X238807142Y-101028571D01*
X238450000Y-100957142D01*
X238164285Y-100957142D01*
X237807142Y-101028571D01*
X237592857Y-101100000D01*
X237450000Y-101171428D01*
X237235714Y-101314285D01*
X237164285Y-101385714D01*
X238307142Y-101957142D02*
X238307142Y-103100000D01*
X239450000Y-103671428D02*
X239378571Y-103742857D01*
X239164285Y-103885714D01*
X239021428Y-103957142D01*
X238807142Y-104028571D01*
X238450000Y-104100000D01*
X238164285Y-104100000D01*
X237807142Y-104028571D01*
X237592857Y-103957142D01*
X237450000Y-103885714D01*
X237235714Y-103742857D01*
X237164285Y-103671428D01*
X237378571Y-82885714D02*
X238878571Y-83385714D01*
X237378571Y-83885714D01*
X238878571Y-84600000D02*
X238807142Y-84457142D01*
X238735714Y-84385714D01*
X238592857Y-84314285D01*
X238164285Y-84314285D01*
X238021428Y-84385714D01*
X237950000Y-84457142D01*
X237878571Y-84600000D01*
X237878571Y-84814285D01*
X237950000Y-84957142D01*
X238021428Y-85028571D01*
X238164285Y-85100000D01*
X238592857Y-85100000D01*
X238735714Y-85028571D01*
X238807142Y-84957142D01*
X238878571Y-84814285D01*
X238878571Y-84600000D01*
X237878571Y-86385714D02*
X238878571Y-86385714D01*
X237878571Y-85742857D02*
X238664285Y-85742857D01*
X238807142Y-85814285D01*
X238878571Y-85957142D01*
X238878571Y-86171428D01*
X238807142Y-86314285D01*
X238735714Y-86385714D01*
X237878571Y-86885714D02*
X237878571Y-87457142D01*
X237378571Y-87100000D02*
X238664285Y-87100000D01*
X238807142Y-87171428D01*
X238878571Y-87314285D01*
X238878571Y-87457142D01*
X239450000Y-88385714D02*
X239378571Y-88314285D01*
X239164285Y-88171428D01*
X239021428Y-88100000D01*
X238807142Y-88028571D01*
X238450000Y-87957142D01*
X238164285Y-87957142D01*
X237807142Y-88028571D01*
X237592857Y-88100000D01*
X237450000Y-88171428D01*
X237235714Y-88314285D01*
X237164285Y-88385714D01*
X238307142Y-88957142D02*
X238307142Y-90100000D01*
X238878571Y-89528571D02*
X237735714Y-89528571D01*
X239450000Y-90671428D02*
X239378571Y-90742857D01*
X239164285Y-90885714D01*
X239021428Y-90957142D01*
X238807142Y-91028571D01*
X238450000Y-91100000D01*
X238164285Y-91100000D01*
X237807142Y-91028571D01*
X237592857Y-90957142D01*
X237450000Y-90885714D01*
X237235714Y-90742857D01*
X237164285Y-90671428D01*
D11*
X15600000Y-132100000D02*
X35600000Y-132100000D01*
X15600000Y-55100000D02*
X224600000Y-55100000D01*
X224600000Y-55100000D02*
X244600000Y-55100000D01*
X224600000Y-132100000D02*
X244600000Y-132100000D01*
X244600000Y-132100000D02*
X244600000Y-55100000D01*
X224600000Y-132100000D02*
X224600000Y-55100000D01*
X35600000Y-132100000D02*
X224600000Y-132100000D01*
X15600000Y-132100000D02*
X15600000Y-55100000D01*
X35600000Y-132100000D02*
X35600000Y-55100000D01*
X35600000Y-55100000D02*
X224600000Y-55100000D01*
D12*
G36*
X55381559Y-84514376D02*
G01*
X55656611Y-84624408D01*
X56085435Y-84676284D01*
X56317512Y-84681333D01*
X56665866Y-84665606D01*
X56858929Y-84620366D01*
X56892885Y-84548521D01*
X56763916Y-84452982D01*
X56671834Y-84411251D01*
X56455563Y-84359425D01*
X56152822Y-84330963D01*
X55952167Y-84329320D01*
X55676423Y-84331396D01*
X55529914Y-84307953D01*
X55473033Y-84246352D01*
X55465334Y-84173973D01*
X55424514Y-84032203D01*
X55339282Y-84015051D01*
X55274502Y-84109833D01*
X55255711Y-84343685D01*
X55381559Y-84514376D01*
G37*
X55381559Y-84514376D02*
X55656611Y-84624408D01*
X56085435Y-84676284D01*
X56317512Y-84681333D01*
X56665866Y-84665606D01*
X56858929Y-84620366D01*
X56892885Y-84548521D01*
X56763916Y-84452982D01*
X56671834Y-84411251D01*
X56455563Y-84359425D01*
X56152822Y-84330963D01*
X55952167Y-84329320D01*
X55676423Y-84331396D01*
X55529914Y-84307953D01*
X55473033Y-84246352D01*
X55465334Y-84173973D01*
X55424514Y-84032203D01*
X55339282Y-84015051D01*
X55274502Y-84109833D01*
X55255711Y-84343685D01*
X55381559Y-84514376D01*
G36*
X56700656Y-83390809D02*
G01*
X56816380Y-83554740D01*
X56946473Y-83695787D01*
X57034965Y-83750000D01*
X57061681Y-83747348D01*
X57057841Y-83709912D01*
X57010196Y-83593468D01*
X56939851Y-83432500D01*
X56829882Y-83243092D01*
X56726746Y-83158928D01*
X56660529Y-83197085D01*
X56650667Y-83268368D01*
X56700656Y-83390809D01*
G37*
X56700656Y-83390809D02*
X56816380Y-83554740D01*
X56946473Y-83695787D01*
X57034965Y-83750000D01*
X57061681Y-83747348D01*
X57057841Y-83709912D01*
X57010196Y-83593468D01*
X56939851Y-83432500D01*
X56829882Y-83243092D01*
X56726746Y-83158928D01*
X56660529Y-83197085D01*
X56650667Y-83268368D01*
X56700656Y-83390809D01*
G36*
X56960024Y-82190404D02*
G01*
X57010500Y-82202977D01*
X57226534Y-82214924D01*
X57306834Y-82202977D01*
X57410640Y-82168650D01*
X57357309Y-82125516D01*
X57306834Y-82103044D01*
X57104325Y-82079523D01*
X57010500Y-82103044D01*
X56906694Y-82157728D01*
X56960024Y-82190404D01*
G37*
X56960024Y-82190404D02*
X57010500Y-82202977D01*
X57226534Y-82214924D01*
X57306834Y-82202977D01*
X57410640Y-82168650D01*
X57357309Y-82125516D01*
X57306834Y-82103044D01*
X57104325Y-82079523D01*
X57010500Y-82103044D01*
X56906694Y-82157728D01*
X56960024Y-82190404D01*
G36*
X57123399Y-84034215D02*
G01*
X57243044Y-84151635D01*
X57337059Y-84173333D01*
X57468897Y-84161330D01*
X57471498Y-84105421D01*
X57343516Y-83975754D01*
X57327481Y-83961196D01*
X57171114Y-83856518D01*
X57097652Y-83884954D01*
X57123399Y-84034215D01*
G37*
X57123399Y-84034215D02*
X57243044Y-84151635D01*
X57337059Y-84173333D01*
X57468897Y-84161330D01*
X57471498Y-84105421D01*
X57343516Y-83975754D01*
X57327481Y-83961196D01*
X57171114Y-83856518D01*
X57097652Y-83884954D01*
X57123399Y-84034215D01*
G36*
X57709000Y-82141333D02*
G01*
X57751334Y-82099000D01*
X57709000Y-82056666D01*
X57666667Y-82099000D01*
X57709000Y-82141333D01*
G37*
X57709000Y-82141333D02*
X57751334Y-82099000D01*
X57709000Y-82056666D01*
X57666667Y-82099000D01*
X57709000Y-82141333D01*
G36*
X58033556Y-83637111D02*
G01*
X58083890Y-83625488D01*
X58090000Y-83580666D01*
X58059022Y-83510976D01*
X58033556Y-83524222D01*
X58023423Y-83624701D01*
X58033556Y-83637111D01*
G37*
X58033556Y-83637111D02*
X58083890Y-83625488D01*
X58090000Y-83580666D01*
X58059022Y-83510976D01*
X58033556Y-83524222D01*
X58023423Y-83624701D01*
X58033556Y-83637111D01*
G36*
X58348070Y-83287046D02*
G01*
X58467972Y-83306913D01*
X58505956Y-83288892D01*
X58576436Y-83181658D01*
X58595855Y-83031380D01*
X58560466Y-82919494D01*
X58523700Y-82903333D01*
X58413891Y-82961329D01*
X58341022Y-83033921D01*
X58292611Y-83175733D01*
X58348070Y-83287046D01*
G37*
X58348070Y-83287046D02*
X58467972Y-83306913D01*
X58505956Y-83288892D01*
X58576436Y-83181658D01*
X58595855Y-83031380D01*
X58560466Y-82919494D01*
X58523700Y-82903333D01*
X58413891Y-82961329D01*
X58341022Y-83033921D01*
X58292611Y-83175733D01*
X58348070Y-83287046D01*
G36*
X59698530Y-82743488D02*
G01*
X59707153Y-82767921D01*
X59799518Y-82963918D01*
X59890331Y-83067704D01*
X59908503Y-83072666D01*
X60058142Y-83020019D01*
X60255009Y-82894711D01*
X60428496Y-82745686D01*
X60489064Y-82670206D01*
X60620128Y-82543720D01*
X60743064Y-82472208D01*
X60871516Y-82412437D01*
X60842999Y-82407375D01*
X60735834Y-82427351D01*
X60588582Y-82435378D01*
X60545334Y-82408573D01*
X60473701Y-82362815D01*
X60252084Y-82329440D01*
X59918878Y-82308780D01*
X59721552Y-82346740D01*
X59649505Y-82488601D01*
X59698530Y-82743488D01*
G37*
X59698530Y-82743488D02*
X59707153Y-82767921D01*
X59799518Y-82963918D01*
X59890331Y-83067704D01*
X59908503Y-83072666D01*
X60058142Y-83020019D01*
X60255009Y-82894711D01*
X60428496Y-82745686D01*
X60489064Y-82670206D01*
X60620128Y-82543720D01*
X60743064Y-82472208D01*
X60871516Y-82412437D01*
X60842999Y-82407375D01*
X60735834Y-82427351D01*
X60588582Y-82435378D01*
X60545334Y-82408573D01*
X60473701Y-82362815D01*
X60252084Y-82329440D01*
X59918878Y-82308780D01*
X59721552Y-82346740D01*
X59649505Y-82488601D01*
X59698530Y-82743488D01*
G36*
X61180334Y-81718000D02*
G01*
X61222667Y-81675666D01*
X61180334Y-81633333D01*
X61138000Y-81675666D01*
X61180334Y-81718000D01*
G37*
X61180334Y-81718000D02*
X61222667Y-81675666D01*
X61180334Y-81633333D01*
X61138000Y-81675666D01*
X61180334Y-81718000D01*
G36*
X61048640Y-82370461D02*
G01*
X61197979Y-82381489D01*
X61328500Y-82385316D01*
X61562808Y-82375191D01*
X61707773Y-82338190D01*
X61730667Y-82310666D01*
X61661448Y-82243787D01*
X61582500Y-82236017D01*
X61393357Y-82263927D01*
X61180334Y-82310666D01*
X61047498Y-82349241D01*
X61048640Y-82370461D01*
G37*
X61048640Y-82370461D02*
X61197979Y-82381489D01*
X61328500Y-82385316D01*
X61562808Y-82375191D01*
X61707773Y-82338190D01*
X61730667Y-82310666D01*
X61661448Y-82243787D01*
X61582500Y-82236017D01*
X61393357Y-82263927D01*
X61180334Y-82310666D01*
X61047498Y-82349241D01*
X61048640Y-82370461D01*
G36*
X61844641Y-81166608D02*
G01*
X61938823Y-81148774D01*
X61984750Y-81125288D01*
X62123683Y-80991961D01*
X62146219Y-80839255D01*
X62075184Y-80747949D01*
X61971553Y-80763830D01*
X61880036Y-80907975D01*
X61839033Y-81064767D01*
X61844641Y-81166608D01*
G37*
X61844641Y-81166608D02*
X61938823Y-81148774D01*
X61984750Y-81125288D01*
X62123683Y-80991961D01*
X62146219Y-80839255D01*
X62075184Y-80747949D01*
X61971553Y-80763830D01*
X61880036Y-80907975D01*
X61839033Y-81064767D01*
X61844641Y-81166608D01*
G36*
X61903542Y-82389179D02*
G01*
X62034981Y-82327585D01*
X62116651Y-82271026D01*
X62209242Y-82175161D01*
X62169119Y-82144026D01*
X62021730Y-82197030D01*
X61930238Y-82268333D01*
X61858147Y-82369277D01*
X61903542Y-82389179D01*
G37*
X61903542Y-82389179D02*
X62034981Y-82327585D01*
X62116651Y-82271026D01*
X62209242Y-82175161D01*
X62169119Y-82144026D01*
X62021730Y-82197030D01*
X61930238Y-82268333D01*
X61858147Y-82369277D01*
X61903542Y-82389179D01*
G36*
X62834845Y-80577853D02*
G01*
X62861691Y-80567879D01*
X62965730Y-80491733D01*
X63009819Y-80401559D01*
X62968700Y-80363333D01*
X62895734Y-80419501D01*
X62829725Y-80492271D01*
X62767951Y-80584062D01*
X62834845Y-80577853D01*
G37*
X62834845Y-80577853D02*
X62861691Y-80567879D01*
X62965730Y-80491733D01*
X63009819Y-80401559D01*
X62968700Y-80363333D01*
X62895734Y-80419501D01*
X62829725Y-80492271D01*
X62767951Y-80584062D01*
X62834845Y-80577853D01*
G36*
X63113556Y-80335111D02*
G01*
X63163890Y-80323488D01*
X63170000Y-80278666D01*
X63139022Y-80208976D01*
X63113556Y-80222222D01*
X63103423Y-80322701D01*
X63113556Y-80335111D01*
G37*
X63113556Y-80335111D02*
X63163890Y-80323488D01*
X63170000Y-80278666D01*
X63139022Y-80208976D01*
X63113556Y-80222222D01*
X63103423Y-80322701D01*
X63113556Y-80335111D01*
G36*
X63889667Y-80363333D02*
G01*
X63932000Y-80321000D01*
X63889667Y-80278666D01*
X63847334Y-80321000D01*
X63889667Y-80363333D01*
G37*
X63889667Y-80363333D02*
X63932000Y-80321000D01*
X63889667Y-80278666D01*
X63847334Y-80321000D01*
X63889667Y-80363333D01*
G36*
X63381211Y-75971281D02*
G01*
X63477815Y-76094361D01*
X63643793Y-76220166D01*
X63819597Y-76312426D01*
X63945682Y-76334870D01*
X63962453Y-76325324D01*
X64010823Y-76234194D01*
X63969771Y-76110527D01*
X63824290Y-75914678D01*
X63792623Y-75876730D01*
X63640283Y-75713958D01*
X63540066Y-75671691D01*
X63450845Y-75728202D01*
X63374248Y-75883120D01*
X63381211Y-75971281D01*
G37*
X63381211Y-75971281D02*
X63477815Y-76094361D01*
X63643793Y-76220166D01*
X63819597Y-76312426D01*
X63945682Y-76334870D01*
X63962453Y-76325324D01*
X64010823Y-76234194D01*
X63969771Y-76110527D01*
X63824290Y-75914678D01*
X63792623Y-75876730D01*
X63640283Y-75713958D01*
X63540066Y-75671691D01*
X63450845Y-75728202D01*
X63374248Y-75883120D01*
X63381211Y-75971281D01*
G36*
X64143667Y-81718000D02*
G01*
X64186000Y-81675666D01*
X64143667Y-81633333D01*
X64101334Y-81675666D01*
X64143667Y-81718000D01*
G37*
X64143667Y-81718000D02*
X64186000Y-81675666D01*
X64143667Y-81633333D01*
X64101334Y-81675666D01*
X64143667Y-81718000D01*
G36*
X64595221Y-79685982D02*
G01*
X64596617Y-79686000D01*
X64698644Y-79618605D01*
X64819863Y-79460888D01*
X64916077Y-79279543D01*
X64945307Y-79159812D01*
X64903738Y-79130322D01*
X64812104Y-79220333D01*
X64643628Y-79462433D01*
X64567817Y-79625249D01*
X64595221Y-79685982D01*
G37*
X64595221Y-79685982D02*
X64596617Y-79686000D01*
X64698644Y-79618605D01*
X64819863Y-79460888D01*
X64916077Y-79279543D01*
X64945307Y-79159812D01*
X64903738Y-79130322D01*
X64812104Y-79220333D01*
X64643628Y-79462433D01*
X64567817Y-79625249D01*
X64595221Y-79685982D01*
G36*
X65677203Y-82958896D02*
G01*
X65710000Y-82945666D01*
X65790771Y-82869584D01*
X65794667Y-82856003D01*
X65729161Y-82819637D01*
X65710000Y-82818666D01*
X65628587Y-82883754D01*
X65625334Y-82908330D01*
X65677203Y-82958896D01*
G37*
X65677203Y-82958896D02*
X65710000Y-82945666D01*
X65790771Y-82869584D01*
X65794667Y-82856003D01*
X65729161Y-82819637D01*
X65710000Y-82818666D01*
X65628587Y-82883754D01*
X65625334Y-82908330D01*
X65677203Y-82958896D01*
G36*
X66514334Y-78500666D02*
G01*
X66556667Y-78458333D01*
X66514334Y-78416000D01*
X66472000Y-78458333D01*
X66514334Y-78500666D01*
G37*
X66514334Y-78500666D02*
X66556667Y-78458333D01*
X66514334Y-78416000D01*
X66472000Y-78458333D01*
X66514334Y-78500666D01*
G36*
X66599000Y-78331333D02*
G01*
X66641334Y-78289000D01*
X66599000Y-78246666D01*
X66556667Y-78289000D01*
X66599000Y-78331333D01*
G37*
X66599000Y-78331333D02*
X66641334Y-78289000D01*
X66599000Y-78246666D01*
X66556667Y-78289000D01*
X66599000Y-78331333D01*
G36*
X69216318Y-89291467D02*
G01*
X69272376Y-89449381D01*
X69352280Y-89507333D01*
X69419765Y-89436406D01*
X69435334Y-89338000D01*
X69396133Y-89200482D01*
X69341608Y-89168666D01*
X69287450Y-89105959D01*
X69304291Y-89020500D01*
X69327775Y-88925063D01*
X69263250Y-88969033D01*
X69260282Y-88971967D01*
X69208003Y-89107399D01*
X69216318Y-89291467D01*
G37*
X69216318Y-89291467D02*
X69272376Y-89449381D01*
X69352280Y-89507333D01*
X69419765Y-89436406D01*
X69435334Y-89338000D01*
X69396133Y-89200482D01*
X69341608Y-89168666D01*
X69287450Y-89105959D01*
X69304291Y-89020500D01*
X69327775Y-88925063D01*
X69263250Y-88969033D01*
X69260282Y-88971967D01*
X69208003Y-89107399D01*
X69216318Y-89291467D01*
G36*
X69496794Y-89757887D02*
G01*
X69520000Y-89761333D01*
X69602466Y-89732446D01*
X69604667Y-89723996D01*
X69545338Y-89651710D01*
X69520000Y-89634333D01*
X69441981Y-89641046D01*
X69435334Y-89671669D01*
X69496794Y-89757887D01*
G37*
X69496794Y-89757887D02*
X69520000Y-89761333D01*
X69602466Y-89732446D01*
X69604667Y-89723996D01*
X69545338Y-89651710D01*
X69520000Y-89634333D01*
X69441981Y-89641046D01*
X69435334Y-89671669D01*
X69496794Y-89757887D01*
G36*
X69476379Y-88795631D02*
G01*
X69520000Y-88787666D01*
X69601437Y-88679423D01*
X69604667Y-88655669D01*
X69540088Y-88578280D01*
X69520000Y-88576000D01*
X69445696Y-88644915D01*
X69435334Y-88707996D01*
X69476379Y-88795631D01*
G37*
X69476379Y-88795631D02*
X69520000Y-88787666D01*
X69601437Y-88679423D01*
X69604667Y-88655669D01*
X69540088Y-88578280D01*
X69520000Y-88576000D01*
X69445696Y-88644915D01*
X69435334Y-88707996D01*
X69476379Y-88795631D01*
G36*
X69545917Y-89253333D02*
G01*
X69627626Y-89428352D01*
X69695264Y-89507000D01*
X69698286Y-89507333D01*
X69748701Y-89433895D01*
X69791531Y-89256903D01*
X69792060Y-89253333D01*
X69800031Y-89073908D01*
X69729837Y-89006683D01*
X69639691Y-88999333D01*
X69515099Y-89014214D01*
X69493190Y-89091411D01*
X69545917Y-89253333D01*
G37*
X69545917Y-89253333D02*
X69627626Y-89428352D01*
X69695264Y-89507000D01*
X69698286Y-89507333D01*
X69748701Y-89433895D01*
X69791531Y-89256903D01*
X69792060Y-89253333D01*
X69800031Y-89073908D01*
X69729837Y-89006683D01*
X69639691Y-88999333D01*
X69515099Y-89014214D01*
X69493190Y-89091411D01*
X69545917Y-89253333D01*
G36*
X46397891Y-78514613D02*
G01*
X46445539Y-78959306D01*
X46524268Y-79418786D01*
X46628299Y-79843893D01*
X46665407Y-79962889D01*
X46987188Y-80710585D01*
X47436703Y-81436917D01*
X47976791Y-82082000D01*
X47986510Y-82091886D01*
X48340288Y-82424879D01*
X48691780Y-82710178D01*
X49010212Y-82926032D01*
X49264809Y-83050692D01*
X49374278Y-83072666D01*
X49490398Y-83128443D01*
X49695003Y-83279383D01*
X49956851Y-83500902D01*
X50183202Y-83709221D01*
X50554447Y-84040394D01*
X50909745Y-84298550D01*
X51274954Y-84489722D01*
X51675933Y-84619941D01*
X52138539Y-84695239D01*
X52688630Y-84721649D01*
X53352064Y-84705203D01*
X54154700Y-84651933D01*
X54206618Y-84647796D01*
X55022236Y-84582345D01*
X55026893Y-84244917D01*
X55051294Y-84033011D01*
X55134749Y-83831547D01*
X55302315Y-83590424D01*
X55436186Y-83426577D01*
X55733570Y-83075340D01*
X55948843Y-82830061D01*
X56107710Y-82666126D01*
X56235878Y-82558921D01*
X56359054Y-82483833D01*
X56481334Y-82425846D01*
X56664991Y-82337038D01*
X56709519Y-82280845D01*
X56632528Y-82225796D01*
X56601577Y-82210970D01*
X56433792Y-82080012D01*
X56282334Y-81885977D01*
X56132944Y-81700097D01*
X55973137Y-81590945D01*
X55971590Y-81590446D01*
X55840394Y-81473899D01*
X55806744Y-81281211D01*
X55875620Y-81078033D01*
X55927847Y-81013582D01*
X56078169Y-80924495D01*
X56327524Y-80831832D01*
X56499347Y-80785100D01*
X57153406Y-80582236D01*
X57658258Y-80309075D01*
X58022895Y-79955705D01*
X58256312Y-79512213D01*
X58367500Y-78968686D01*
X58379872Y-78712333D01*
X58367680Y-78148993D01*
X58311715Y-77717174D01*
X58203837Y-77382853D01*
X58035908Y-77112010D01*
X57981782Y-77048210D01*
X57786485Y-76862248D01*
X57518576Y-76647777D01*
X57217815Y-76431843D01*
X56923959Y-76241493D01*
X56676764Y-76103772D01*
X56515989Y-76045726D01*
X56507562Y-76045333D01*
X56316821Y-75990049D01*
X56124492Y-75858056D01*
X55994763Y-75700144D01*
X55973334Y-75622629D01*
X55997741Y-75496096D01*
X56089016Y-75392787D01*
X56274235Y-75297205D01*
X56580475Y-75193852D01*
X56862334Y-75113773D01*
X57210423Y-75011652D01*
X57520784Y-74908459D01*
X57736272Y-74823464D01*
X57764397Y-74809585D01*
X58111839Y-74697590D01*
X58413690Y-74731703D01*
X58648866Y-74890483D01*
X58796280Y-75152485D01*
X58834845Y-75496269D01*
X58768368Y-75830531D01*
X58711579Y-76088682D01*
X58733887Y-76346895D01*
X58778025Y-76516258D01*
X58860247Y-76732155D01*
X58942821Y-76852939D01*
X58976558Y-76863078D01*
X59029363Y-76818917D01*
X59050576Y-76710933D01*
X59042210Y-76502990D01*
X59012665Y-76214666D01*
X58979000Y-75918333D01*
X59346492Y-75926206D01*
X59574021Y-75924465D01*
X59674438Y-75886148D01*
X59689835Y-75781229D01*
X59678109Y-75689645D01*
X59673914Y-75500832D01*
X59712783Y-75401608D01*
X59772980Y-75289856D01*
X59783334Y-75202728D01*
X59844027Y-75047157D01*
X59910333Y-74998715D01*
X60022964Y-74885564D01*
X60037334Y-74820323D01*
X60085159Y-74704991D01*
X60202428Y-74707360D01*
X60349826Y-74815337D01*
X60449828Y-74947197D01*
X60508458Y-75060424D01*
X60548866Y-75194396D01*
X60573193Y-75378245D01*
X60583581Y-75641100D01*
X60582171Y-76012093D01*
X60571103Y-76520354D01*
X60569622Y-76577030D01*
X60558107Y-77053836D01*
X60549780Y-77480488D01*
X60545130Y-77824046D01*
X60544649Y-78051569D01*
X60546640Y-78119666D01*
X60563848Y-78349746D01*
X60570745Y-78447188D01*
X60653931Y-78593524D01*
X60840439Y-78724573D01*
X61065184Y-78807367D01*
X61263080Y-78808940D01*
X61276098Y-78804456D01*
X61374116Y-78742742D01*
X61318470Y-78676882D01*
X61196763Y-78551951D01*
X61105079Y-78406270D01*
X61048954Y-78230194D01*
X61092360Y-78051728D01*
X61144700Y-77950333D01*
X61224095Y-77760335D01*
X61305996Y-77489825D01*
X61379697Y-77187559D01*
X61434491Y-76902292D01*
X61459673Y-76682778D01*
X61445846Y-76578957D01*
X61349705Y-76568440D01*
X61264979Y-76654579D01*
X61254195Y-76767373D01*
X61244754Y-76902119D01*
X61151702Y-77004684D01*
X61034287Y-77029971D01*
X60972053Y-76982146D01*
X60917751Y-76793828D01*
X60901379Y-76519303D01*
X60922094Y-76237197D01*
X60979053Y-76026136D01*
X60982376Y-76019717D01*
X61063515Y-75799219D01*
X61093287Y-75647867D01*
X61160553Y-75423261D01*
X61272772Y-75313591D01*
X61387993Y-75323125D01*
X61464268Y-75456127D01*
X61473196Y-75609229D01*
X61463746Y-75962346D01*
X61487080Y-76186000D01*
X61540956Y-76263713D01*
X61561334Y-76257000D01*
X61633063Y-76277105D01*
X61646000Y-76341666D01*
X61685824Y-76433114D01*
X61730667Y-76426333D01*
X61789332Y-76312886D01*
X61814041Y-76111163D01*
X61814037Y-76103836D01*
X61801973Y-75935773D01*
X61761931Y-75919928D01*
X61730667Y-75960666D01*
X61668686Y-76027798D01*
X61648185Y-75943945D01*
X61647297Y-75899823D01*
X61677723Y-75764204D01*
X61791240Y-75762049D01*
X61794167Y-75763047D01*
X61884334Y-75786115D01*
X61840948Y-75736222D01*
X61780410Y-75687967D01*
X61674281Y-75538959D01*
X61686385Y-75396440D01*
X61801799Y-75319335D01*
X61873596Y-75320016D01*
X61992326Y-75401479D01*
X62000512Y-75524960D01*
X62025453Y-75676088D01*
X62106345Y-75706666D01*
X62215041Y-75778354D01*
X62238667Y-75890499D01*
X62294285Y-76097638D01*
X62380600Y-76231167D01*
X62470934Y-76374283D01*
X62425885Y-76484611D01*
X62422933Y-76487600D01*
X62323485Y-76662980D01*
X62337106Y-76828371D01*
X62441947Y-76932449D01*
X62609750Y-76926423D01*
X62724251Y-76817898D01*
X62862360Y-76599658D01*
X62998897Y-76324137D01*
X63108681Y-76043773D01*
X63166533Y-75811001D01*
X63170000Y-75759754D01*
X63223778Y-75407129D01*
X63369715Y-75167390D01*
X63584719Y-75056075D01*
X63845694Y-75088725D01*
X64020048Y-75187778D01*
X64199532Y-75307959D01*
X64321239Y-75367237D01*
X64330738Y-75368535D01*
X64413442Y-75435152D01*
X64527244Y-75597363D01*
X64541896Y-75622535D01*
X64617405Y-75794528D01*
X64605436Y-75874450D01*
X64595521Y-75876000D01*
X64539975Y-75942737D01*
X64547542Y-76038998D01*
X64549168Y-76157929D01*
X64451584Y-76158300D01*
X64424434Y-76179013D01*
X64510179Y-76280595D01*
X64598002Y-76360981D01*
X64785861Y-76552591D01*
X64868193Y-76746528D01*
X64885585Y-76982512D01*
X64877463Y-77268984D01*
X64854062Y-77518748D01*
X64845480Y-77569333D01*
X64769561Y-77811179D01*
X64647539Y-78072647D01*
X64507325Y-78305690D01*
X64376829Y-78462261D01*
X64304452Y-78500666D01*
X64208892Y-78571331D01*
X64186000Y-78672657D01*
X64130829Y-78835462D01*
X64059000Y-78893382D01*
X63962779Y-79018551D01*
X63932000Y-79266728D01*
X63908554Y-79491557D01*
X63850551Y-79637133D01*
X63834252Y-79651751D01*
X63776315Y-79661730D01*
X63796915Y-79614415D01*
X63800318Y-79527410D01*
X63765006Y-79516666D01*
X63661787Y-79585432D01*
X63618019Y-79664833D01*
X63525373Y-79823344D01*
X63473217Y-79872974D01*
X63432675Y-79964255D01*
X63480575Y-80030441D01*
X63564450Y-80050820D01*
X63703216Y-79975387D01*
X63918493Y-79790190D01*
X64051367Y-79662135D01*
X64276170Y-79425299D01*
X64443142Y-79219679D01*
X64522094Y-79083218D01*
X64524667Y-79067223D01*
X64571028Y-78935930D01*
X64608052Y-78909888D01*
X64666239Y-78817935D01*
X64733287Y-78607453D01*
X64784866Y-78373666D01*
X64846503Y-78070967D01*
X64908803Y-77816071D01*
X64946525Y-77696333D01*
X65125293Y-77216154D01*
X65241452Y-76823722D01*
X65286404Y-76548460D01*
X65286667Y-76532208D01*
X65319996Y-76315603D01*
X65403202Y-76071939D01*
X65511116Y-75856514D01*
X65618568Y-75724626D01*
X65662181Y-75707224D01*
X65789387Y-75750896D01*
X65977560Y-75856414D01*
X65994732Y-75867591D01*
X66202513Y-75958493D01*
X66472251Y-76017488D01*
X66756968Y-76042728D01*
X67009685Y-76032363D01*
X67183422Y-75984542D01*
X67234000Y-75916383D01*
X67261455Y-75815361D01*
X67363751Y-75805929D01*
X67570783Y-75888508D01*
X67639444Y-75922099D01*
X67845039Y-76002590D01*
X67995291Y-75987041D01*
X68075785Y-75944066D01*
X68227718Y-75816210D01*
X68220957Y-75711001D01*
X68156294Y-75658746D01*
X68117651Y-75582313D01*
X68177461Y-75528046D01*
X68218682Y-75473423D01*
X68102545Y-75453096D01*
X68080667Y-75452666D01*
X67944350Y-75438792D01*
X67960619Y-75391752D01*
X67996000Y-75366703D01*
X68080376Y-75286774D01*
X68014695Y-75208670D01*
X67996000Y-75195525D01*
X67968108Y-75147918D01*
X68067666Y-75143223D01*
X68260216Y-75174767D01*
X68511296Y-75235879D01*
X68786447Y-75319886D01*
X68956443Y-75381486D01*
X69206820Y-75493948D01*
X69412697Y-75612375D01*
X69543787Y-75714906D01*
X69569805Y-75779679D01*
X69562334Y-75781589D01*
X69562334Y-75960666D01*
X69604667Y-76003000D01*
X69562334Y-76045333D01*
X69520000Y-76003000D01*
X69562334Y-75960666D01*
X69562334Y-75781589D01*
X69524233Y-75791333D01*
X69427331Y-75860567D01*
X69327685Y-76023005D01*
X69206971Y-76241831D01*
X69096667Y-76389493D01*
X68842597Y-76674876D01*
X68666834Y-76904735D01*
X68590305Y-77051230D01*
X68588667Y-77065350D01*
X68543027Y-77225654D01*
X68425561Y-77469140D01*
X68265449Y-77743083D01*
X68091874Y-77994756D01*
X68034854Y-78066027D01*
X67885455Y-78256337D01*
X67842053Y-78340935D01*
X67888379Y-78331262D01*
X68008167Y-78238761D01*
X68185149Y-78074875D01*
X68403056Y-77851045D01*
X68515159Y-77728196D01*
X68789347Y-77421723D01*
X69056227Y-77123830D01*
X69271505Y-76883942D01*
X69330789Y-76818029D01*
X69521606Y-76581489D01*
X69674299Y-76350005D01*
X69711290Y-76278166D01*
X69801250Y-76113567D01*
X69871052Y-76045333D01*
X69933983Y-75974371D01*
X70011509Y-75801943D01*
X70017188Y-75785956D01*
X70064828Y-75610628D01*
X70023702Y-75510336D01*
X69861635Y-75423988D01*
X69816523Y-75404956D01*
X69593408Y-75324026D01*
X69425881Y-75284194D01*
X69410113Y-75283333D01*
X69289052Y-75247585D01*
X69055239Y-75151243D01*
X68746763Y-75010656D01*
X68520680Y-74901529D01*
X68165940Y-74729298D01*
X67912555Y-74621130D01*
X67710479Y-74565249D01*
X67509665Y-74549883D01*
X67260066Y-74563255D01*
X67130453Y-74574449D01*
X66805302Y-74611636D01*
X66533408Y-74657621D01*
X66371140Y-74702774D01*
X66366681Y-74704957D01*
X66195634Y-74735226D01*
X65911718Y-74730431D01*
X65566142Y-74697357D01*
X65210117Y-74642790D01*
X64894853Y-74573516D01*
X64671560Y-74496321D01*
X64634289Y-74475399D01*
X64434496Y-74352268D01*
X64172953Y-74200422D01*
X64076683Y-74146537D01*
X63309824Y-73726258D01*
X62667760Y-73383992D01*
X62129895Y-73110943D01*
X61675634Y-72898318D01*
X61284383Y-72737322D01*
X60935546Y-72619158D01*
X60608527Y-72535034D01*
X60282733Y-72476153D01*
X60111070Y-72453091D01*
X59751645Y-72380216D01*
X59511929Y-72255505D01*
X59446093Y-72194517D01*
X59248590Y-72053074D01*
X58971383Y-71931374D01*
X58851893Y-71896641D01*
X58596065Y-71817173D01*
X58555667Y-71790041D01*
X58555667Y-72828000D01*
X58598000Y-72870333D01*
X58555667Y-72912666D01*
X58513334Y-72870333D01*
X58555667Y-72828000D01*
X58555667Y-71790041D01*
X58418522Y-71697929D01*
X58255443Y-71490042D01*
X58193003Y-71392178D01*
X58052076Y-71184383D01*
X57907828Y-71036267D01*
X57714553Y-70915112D01*
X57426544Y-70788199D01*
X57255697Y-70721201D01*
X56931509Y-70601154D01*
X56659939Y-70509682D01*
X56485241Y-70461360D01*
X56454435Y-70457333D01*
X56322147Y-70410436D01*
X56114785Y-70290849D01*
X55986770Y-70203333D01*
X55614663Y-70000554D01*
X55340680Y-69949333D01*
X55331278Y-69950261D01*
X55331278Y-81301350D01*
X55441092Y-81316917D01*
X55442403Y-81345819D01*
X55338334Y-81364380D01*
X55338334Y-82310666D01*
X55380667Y-82353000D01*
X55338334Y-82395333D01*
X55296000Y-82353000D01*
X55338334Y-82310666D01*
X55338334Y-81364380D01*
X55329086Y-81366030D01*
X55280125Y-81352503D01*
X55248055Y-81314908D01*
X55331278Y-81301350D01*
X55331278Y-69950261D01*
X55132962Y-69969846D01*
X55031829Y-70058320D01*
X54992098Y-70182166D01*
X54886039Y-70632082D01*
X54803759Y-70938773D01*
X54736845Y-71125261D01*
X54676887Y-71214566D01*
X54615470Y-71229709D01*
X54609817Y-71228287D01*
X54465517Y-71186976D01*
X54222760Y-71116998D01*
X54043715Y-71065227D01*
X53828458Y-71012989D01*
X53828458Y-72833000D01*
X53957375Y-72859410D01*
X54061009Y-72935580D01*
X54281815Y-73268595D01*
X54364622Y-73659938D01*
X54364667Y-73669100D01*
X54383476Y-73849905D01*
X54428924Y-73928557D01*
X54430849Y-73928666D01*
X54491521Y-74002185D01*
X54570401Y-74188783D01*
X54609528Y-74309666D01*
X54689111Y-74534012D01*
X54763397Y-74670924D01*
X54791137Y-74690666D01*
X54857485Y-74736294D01*
X54903253Y-74886896D01*
X54931820Y-75163051D01*
X54946565Y-75585335D01*
X54947512Y-75643166D01*
X54941700Y-76004128D01*
X54912893Y-76228118D01*
X54866961Y-76299333D01*
X54814947Y-76365033D01*
X54829062Y-76464659D01*
X54839157Y-76587458D01*
X54729926Y-76600611D01*
X54713503Y-76597625D01*
X54608390Y-76604231D01*
X54534834Y-76697279D01*
X54469671Y-76912306D01*
X54448763Y-77003799D01*
X54375482Y-77382474D01*
X54304773Y-77827065D01*
X54244276Y-78280136D01*
X54201635Y-78684251D01*
X54184491Y-78981974D01*
X54184445Y-78990384D01*
X54250189Y-79278519D01*
X54359098Y-79413717D01*
X54481843Y-79579807D01*
X54589067Y-79869935D01*
X54685478Y-80300072D01*
X54761120Y-80778185D01*
X54784319Y-81003779D01*
X54765158Y-81093837D01*
X54696958Y-81078354D01*
X54694608Y-81076899D01*
X54521998Y-81001245D01*
X54292368Y-80939136D01*
X54052376Y-80897205D01*
X53848681Y-80882085D01*
X53727940Y-80900410D01*
X53718634Y-80938147D01*
X53698188Y-80984877D01*
X53579833Y-80977586D01*
X53421830Y-80927711D01*
X53292001Y-80854409D01*
X53175512Y-80841392D01*
X53122346Y-80903532D01*
X53072866Y-80946444D01*
X52964935Y-80979884D01*
X52778423Y-81005462D01*
X52493199Y-81024788D01*
X52089133Y-81039471D01*
X51546096Y-81051120D01*
X51210423Y-81056394D01*
X50672262Y-81062313D01*
X50195673Y-81064001D01*
X49805045Y-81061665D01*
X49524766Y-81055514D01*
X49379223Y-81045755D01*
X49364144Y-81040666D01*
X49353566Y-80938441D01*
X49332373Y-80726710D01*
X49319322Y-80594899D01*
X49276886Y-80299642D01*
X49217756Y-80038810D01*
X49195054Y-79969323D01*
X49150681Y-79785904D01*
X49171889Y-79690061D01*
X49243337Y-79714194D01*
X49287974Y-79773118D01*
X49347719Y-79836732D01*
X49367385Y-79747977D01*
X49368037Y-79712163D01*
X49403730Y-79541317D01*
X49454000Y-79474333D01*
X49525729Y-79494438D01*
X49538667Y-79559000D01*
X49580891Y-79648795D01*
X49629106Y-79640099D01*
X49684406Y-79524547D01*
X49673359Y-79463848D01*
X49693615Y-79321775D01*
X49796108Y-79174558D01*
X49944242Y-78967308D01*
X50081845Y-78644507D01*
X50215283Y-78188011D01*
X50344459Y-77611666D01*
X50478769Y-77011746D01*
X50607679Y-76567591D01*
X50735462Y-76265911D01*
X50816166Y-76144386D01*
X50911736Y-75999950D01*
X51051263Y-75753742D01*
X51205899Y-75456872D01*
X51218374Y-75431829D01*
X51405847Y-75093045D01*
X51608991Y-74830362D01*
X51880831Y-74581567D01*
X52065040Y-74438456D01*
X52363788Y-74221670D01*
X52644124Y-74031370D01*
X52853772Y-73902779D01*
X52883000Y-73887373D01*
X53180118Y-73719866D01*
X53348757Y-73563790D01*
X53421685Y-73378873D01*
X53433334Y-73210958D01*
X53445219Y-73005210D01*
X53497296Y-72928261D01*
X53602667Y-72937198D01*
X53737675Y-72941947D01*
X53772000Y-72904740D01*
X53828458Y-72833000D01*
X53828458Y-71012989D01*
X53821892Y-71011395D01*
X53586585Y-70981287D01*
X53297975Y-70973667D01*
X52916246Y-70987294D01*
X52467371Y-71016186D01*
X52007130Y-71050778D01*
X51675731Y-71084249D01*
X51433040Y-71126492D01*
X51238925Y-71187399D01*
X51053251Y-71276864D01*
X50835886Y-71404779D01*
X50798656Y-71427534D01*
X49835000Y-72081688D01*
X49835000Y-78839333D01*
X49877334Y-78881666D01*
X49835000Y-78924000D01*
X49792667Y-78881666D01*
X49835000Y-78839333D01*
X49835000Y-72081688D01*
X49725451Y-72156053D01*
X49308936Y-72499374D01*
X49308936Y-76990314D01*
X49356252Y-77010915D01*
X49447145Y-77096165D01*
X49428500Y-77145175D01*
X49416664Y-77146000D01*
X49345051Y-77085863D01*
X49318915Y-77048251D01*
X49308936Y-76990314D01*
X49308936Y-72499374D01*
X49090163Y-72679703D01*
X49090163Y-76944863D01*
X49101965Y-77061333D01*
X49088660Y-77181528D01*
X49059260Y-77167166D01*
X49048078Y-76993824D01*
X49059260Y-76955500D01*
X49090163Y-76944863D01*
X49090163Y-72679703D01*
X48889556Y-72845059D01*
X48889556Y-75988888D01*
X48939890Y-76000511D01*
X48946000Y-76045333D01*
X48915022Y-76115023D01*
X48889556Y-76101777D01*
X48879423Y-76001298D01*
X48889556Y-75988888D01*
X48889556Y-72845059D01*
X48820576Y-72901917D01*
X48820576Y-76350857D01*
X48842278Y-76372125D01*
X48852130Y-76546847D01*
X48852894Y-76574500D01*
X48838408Y-76778458D01*
X48791911Y-76886711D01*
X48776667Y-76892000D01*
X48708889Y-76839332D01*
X48720720Y-76668916D01*
X48776667Y-76468666D01*
X48820576Y-76350857D01*
X48820576Y-72901917D01*
X48758574Y-72953025D01*
X48758574Y-75693514D01*
X48749536Y-75803322D01*
X48696791Y-75997944D01*
X48649667Y-76130000D01*
X48574213Y-76293780D01*
X48536669Y-76297617D01*
X48532927Y-76257000D01*
X48565859Y-76060493D01*
X48646609Y-75833666D01*
X48724174Y-75694851D01*
X48758574Y-75693514D01*
X48758574Y-72953025D01*
X48742158Y-72966557D01*
X48454026Y-73237843D01*
X48183623Y-73510833D01*
X48068652Y-73643746D01*
X48068652Y-76258915D01*
X48099334Y-76299333D01*
X48155658Y-76392741D01*
X48172760Y-76477671D01*
X48146562Y-76607372D01*
X48072982Y-76835091D01*
X48053922Y-76892000D01*
X47982580Y-77095590D01*
X47954012Y-77144388D01*
X47961864Y-77045652D01*
X47970540Y-76987250D01*
X48003102Y-76695226D01*
X48015963Y-76436916D01*
X48028111Y-76271828D01*
X48068652Y-76258915D01*
X48068652Y-73643746D01*
X47973554Y-73753686D01*
X47794438Y-74009816D01*
X47774934Y-74044180D01*
X47774934Y-75553791D01*
X47816155Y-75576396D01*
X47853926Y-75664333D01*
X47890948Y-75884933D01*
X47877981Y-76003000D01*
X47829089Y-76194714D01*
X47764242Y-76453791D01*
X47750061Y-76511000D01*
X47678553Y-76744573D01*
X47604192Y-76907074D01*
X47586478Y-76930100D01*
X47559611Y-76988437D01*
X47559611Y-77896250D01*
X47574269Y-78008707D01*
X47574828Y-78035000D01*
X47565676Y-78179595D01*
X47539172Y-78192326D01*
X47535798Y-78184778D01*
X47519049Y-78016698D01*
X47532660Y-77930778D01*
X47559611Y-77896250D01*
X47559611Y-76988437D01*
X47521643Y-77070878D01*
X47497600Y-77226433D01*
X47481420Y-77311199D01*
X47445497Y-77233386D01*
X47407261Y-77079015D01*
X47369126Y-76771613D01*
X47419103Y-76483882D01*
X47467680Y-76344688D01*
X47539397Y-76102649D01*
X47557683Y-75917520D01*
X47544936Y-75869424D01*
X47528652Y-75804419D01*
X47572156Y-75821814D01*
X47663512Y-75798273D01*
X47724765Y-75686729D01*
X47774934Y-75553791D01*
X47774934Y-74044180D01*
X47616893Y-74322639D01*
X47411535Y-74735570D01*
X47342812Y-74879762D01*
X47051789Y-75527483D01*
X47041000Y-75554586D01*
X47041000Y-78162000D01*
X47083334Y-78204333D01*
X47041000Y-78246666D01*
X46998667Y-78204333D01*
X47041000Y-78162000D01*
X47041000Y-75554586D01*
X46812330Y-76129033D01*
X46633223Y-76658711D01*
X46523260Y-77090816D01*
X46490667Y-77371369D01*
X46466094Y-77639759D01*
X46418952Y-77866225D01*
X46387103Y-78133867D01*
X46397891Y-78514613D01*
G37*
X46397891Y-78514613D02*
X46445539Y-78959306D01*
X46524268Y-79418786D01*
X46628299Y-79843893D01*
X46665407Y-79962889D01*
X46987188Y-80710585D01*
X47436703Y-81436917D01*
X47976791Y-82082000D01*
X47986510Y-82091886D01*
X48340288Y-82424879D01*
X48691780Y-82710178D01*
X49010212Y-82926032D01*
X49264809Y-83050692D01*
X49374278Y-83072666D01*
X49490398Y-83128443D01*
X49695003Y-83279383D01*
X49956851Y-83500902D01*
X50183202Y-83709221D01*
X50554447Y-84040394D01*
X50909745Y-84298550D01*
X51274954Y-84489722D01*
X51675933Y-84619941D01*
X52138539Y-84695239D01*
X52688630Y-84721649D01*
X53352064Y-84705203D01*
X54154700Y-84651933D01*
X54206618Y-84647796D01*
X55022236Y-84582345D01*
X55026893Y-84244917D01*
X55051294Y-84033011D01*
X55134749Y-83831547D01*
X55302315Y-83590424D01*
X55436186Y-83426577D01*
X55733570Y-83075340D01*
X55948843Y-82830061D01*
X56107710Y-82666126D01*
X56235878Y-82558921D01*
X56359054Y-82483833D01*
X56481334Y-82425846D01*
X56664991Y-82337038D01*
X56709519Y-82280845D01*
X56632528Y-82225796D01*
X56601577Y-82210970D01*
X56433792Y-82080012D01*
X56282334Y-81885977D01*
X56132944Y-81700097D01*
X55973137Y-81590945D01*
X55971590Y-81590446D01*
X55840394Y-81473899D01*
X55806744Y-81281211D01*
X55875620Y-81078033D01*
X55927847Y-81013582D01*
X56078169Y-80924495D01*
X56327524Y-80831832D01*
X56499347Y-80785100D01*
X57153406Y-80582236D01*
X57658258Y-80309075D01*
X58022895Y-79955705D01*
X58256312Y-79512213D01*
X58367500Y-78968686D01*
X58379872Y-78712333D01*
X58367680Y-78148993D01*
X58311715Y-77717174D01*
X58203837Y-77382853D01*
X58035908Y-77112010D01*
X57981782Y-77048210D01*
X57786485Y-76862248D01*
X57518576Y-76647777D01*
X57217815Y-76431843D01*
X56923959Y-76241493D01*
X56676764Y-76103772D01*
X56515989Y-76045726D01*
X56507562Y-76045333D01*
X56316821Y-75990049D01*
X56124492Y-75858056D01*
X55994763Y-75700144D01*
X55973334Y-75622629D01*
X55997741Y-75496096D01*
X56089016Y-75392787D01*
X56274235Y-75297205D01*
X56580475Y-75193852D01*
X56862334Y-75113773D01*
X57210423Y-75011652D01*
X57520784Y-74908459D01*
X57736272Y-74823464D01*
X57764397Y-74809585D01*
X58111839Y-74697590D01*
X58413690Y-74731703D01*
X58648866Y-74890483D01*
X58796280Y-75152485D01*
X58834845Y-75496269D01*
X58768368Y-75830531D01*
X58711579Y-76088682D01*
X58733887Y-76346895D01*
X58778025Y-76516258D01*
X58860247Y-76732155D01*
X58942821Y-76852939D01*
X58976558Y-76863078D01*
X59029363Y-76818917D01*
X59050576Y-76710933D01*
X59042210Y-76502990D01*
X59012665Y-76214666D01*
X58979000Y-75918333D01*
X59346492Y-75926206D01*
X59574021Y-75924465D01*
X59674438Y-75886148D01*
X59689835Y-75781229D01*
X59678109Y-75689645D01*
X59673914Y-75500832D01*
X59712783Y-75401608D01*
X59772980Y-75289856D01*
X59783334Y-75202728D01*
X59844027Y-75047157D01*
X59910333Y-74998715D01*
X60022964Y-74885564D01*
X60037334Y-74820323D01*
X60085159Y-74704991D01*
X60202428Y-74707360D01*
X60349826Y-74815337D01*
X60449828Y-74947197D01*
X60508458Y-75060424D01*
X60548866Y-75194396D01*
X60573193Y-75378245D01*
X60583581Y-75641100D01*
X60582171Y-76012093D01*
X60571103Y-76520354D01*
X60569622Y-76577030D01*
X60558107Y-77053836D01*
X60549780Y-77480488D01*
X60545130Y-77824046D01*
X60544649Y-78051569D01*
X60546640Y-78119666D01*
X60563848Y-78349746D01*
X60570745Y-78447188D01*
X60653931Y-78593524D01*
X60840439Y-78724573D01*
X61065184Y-78807367D01*
X61263080Y-78808940D01*
X61276098Y-78804456D01*
X61374116Y-78742742D01*
X61318470Y-78676882D01*
X61196763Y-78551951D01*
X61105079Y-78406270D01*
X61048954Y-78230194D01*
X61092360Y-78051728D01*
X61144700Y-77950333D01*
X61224095Y-77760335D01*
X61305996Y-77489825D01*
X61379697Y-77187559D01*
X61434491Y-76902292D01*
X61459673Y-76682778D01*
X61445846Y-76578957D01*
X61349705Y-76568440D01*
X61264979Y-76654579D01*
X61254195Y-76767373D01*
X61244754Y-76902119D01*
X61151702Y-77004684D01*
X61034287Y-77029971D01*
X60972053Y-76982146D01*
X60917751Y-76793828D01*
X60901379Y-76519303D01*
X60922094Y-76237197D01*
X60979053Y-76026136D01*
X60982376Y-76019717D01*
X61063515Y-75799219D01*
X61093287Y-75647867D01*
X61160553Y-75423261D01*
X61272772Y-75313591D01*
X61387993Y-75323125D01*
X61464268Y-75456127D01*
X61473196Y-75609229D01*
X61463746Y-75962346D01*
X61487080Y-76186000D01*
X61540956Y-76263713D01*
X61561334Y-76257000D01*
X61633063Y-76277105D01*
X61646000Y-76341666D01*
X61685824Y-76433114D01*
X61730667Y-76426333D01*
X61789332Y-76312886D01*
X61814041Y-76111163D01*
X61814037Y-76103836D01*
X61801973Y-75935773D01*
X61761931Y-75919928D01*
X61730667Y-75960666D01*
X61668686Y-76027798D01*
X61648185Y-75943945D01*
X61647297Y-75899823D01*
X61677723Y-75764204D01*
X61791240Y-75762049D01*
X61794167Y-75763047D01*
X61884334Y-75786115D01*
X61840948Y-75736222D01*
X61780410Y-75687967D01*
X61674281Y-75538959D01*
X61686385Y-75396440D01*
X61801799Y-75319335D01*
X61873596Y-75320016D01*
X61992326Y-75401479D01*
X62000512Y-75524960D01*
X62025453Y-75676088D01*
X62106345Y-75706666D01*
X62215041Y-75778354D01*
X62238667Y-75890499D01*
X62294285Y-76097638D01*
X62380600Y-76231167D01*
X62470934Y-76374283D01*
X62425885Y-76484611D01*
X62422933Y-76487600D01*
X62323485Y-76662980D01*
X62337106Y-76828371D01*
X62441947Y-76932449D01*
X62609750Y-76926423D01*
X62724251Y-76817898D01*
X62862360Y-76599658D01*
X62998897Y-76324137D01*
X63108681Y-76043773D01*
X63166533Y-75811001D01*
X63170000Y-75759754D01*
X63223778Y-75407129D01*
X63369715Y-75167390D01*
X63584719Y-75056075D01*
X63845694Y-75088725D01*
X64020048Y-75187778D01*
X64199532Y-75307959D01*
X64321239Y-75367237D01*
X64330738Y-75368535D01*
X64413442Y-75435152D01*
X64527244Y-75597363D01*
X64541896Y-75622535D01*
X64617405Y-75794528D01*
X64605436Y-75874450D01*
X64595521Y-75876000D01*
X64539975Y-75942737D01*
X64547542Y-76038998D01*
X64549168Y-76157929D01*
X64451584Y-76158300D01*
X64424434Y-76179013D01*
X64510179Y-76280595D01*
X64598002Y-76360981D01*
X64785861Y-76552591D01*
X64868193Y-76746528D01*
X64885585Y-76982512D01*
X64877463Y-77268984D01*
X64854062Y-77518748D01*
X64845480Y-77569333D01*
X64769561Y-77811179D01*
X64647539Y-78072647D01*
X64507325Y-78305690D01*
X64376829Y-78462261D01*
X64304452Y-78500666D01*
X64208892Y-78571331D01*
X64186000Y-78672657D01*
X64130829Y-78835462D01*
X64059000Y-78893382D01*
X63962779Y-79018551D01*
X63932000Y-79266728D01*
X63908554Y-79491557D01*
X63850551Y-79637133D01*
X63834252Y-79651751D01*
X63776315Y-79661730D01*
X63796915Y-79614415D01*
X63800318Y-79527410D01*
X63765006Y-79516666D01*
X63661787Y-79585432D01*
X63618019Y-79664833D01*
X63525373Y-79823344D01*
X63473217Y-79872974D01*
X63432675Y-79964255D01*
X63480575Y-80030441D01*
X63564450Y-80050820D01*
X63703216Y-79975387D01*
X63918493Y-79790190D01*
X64051367Y-79662135D01*
X64276170Y-79425299D01*
X64443142Y-79219679D01*
X64522094Y-79083218D01*
X64524667Y-79067223D01*
X64571028Y-78935930D01*
X64608052Y-78909888D01*
X64666239Y-78817935D01*
X64733287Y-78607453D01*
X64784866Y-78373666D01*
X64846503Y-78070967D01*
X64908803Y-77816071D01*
X64946525Y-77696333D01*
X65125293Y-77216154D01*
X65241452Y-76823722D01*
X65286404Y-76548460D01*
X65286667Y-76532208D01*
X65319996Y-76315603D01*
X65403202Y-76071939D01*
X65511116Y-75856514D01*
X65618568Y-75724626D01*
X65662181Y-75707224D01*
X65789387Y-75750896D01*
X65977560Y-75856414D01*
X65994732Y-75867591D01*
X66202513Y-75958493D01*
X66472251Y-76017488D01*
X66756968Y-76042728D01*
X67009685Y-76032363D01*
X67183422Y-75984542D01*
X67234000Y-75916383D01*
X67261455Y-75815361D01*
X67363751Y-75805929D01*
X67570783Y-75888508D01*
X67639444Y-75922099D01*
X67845039Y-76002590D01*
X67995291Y-75987041D01*
X68075785Y-75944066D01*
X68227718Y-75816210D01*
X68220957Y-75711001D01*
X68156294Y-75658746D01*
X68117651Y-75582313D01*
X68177461Y-75528046D01*
X68218682Y-75473423D01*
X68102545Y-75453096D01*
X68080667Y-75452666D01*
X67944350Y-75438792D01*
X67960619Y-75391752D01*
X67996000Y-75366703D01*
X68080376Y-75286774D01*
X68014695Y-75208670D01*
X67996000Y-75195525D01*
X67968108Y-75147918D01*
X68067666Y-75143223D01*
X68260216Y-75174767D01*
X68511296Y-75235879D01*
X68786447Y-75319886D01*
X68956443Y-75381486D01*
X69206820Y-75493948D01*
X69412697Y-75612375D01*
X69543787Y-75714906D01*
X69569805Y-75779679D01*
X69562334Y-75781589D01*
X69562334Y-75960666D01*
X69604667Y-76003000D01*
X69562334Y-76045333D01*
X69520000Y-76003000D01*
X69562334Y-75960666D01*
X69562334Y-75781589D01*
X69524233Y-75791333D01*
X69427331Y-75860567D01*
X69327685Y-76023005D01*
X69206971Y-76241831D01*
X69096667Y-76389493D01*
X68842597Y-76674876D01*
X68666834Y-76904735D01*
X68590305Y-77051230D01*
X68588667Y-77065350D01*
X68543027Y-77225654D01*
X68425561Y-77469140D01*
X68265449Y-77743083D01*
X68091874Y-77994756D01*
X68034854Y-78066027D01*
X67885455Y-78256337D01*
X67842053Y-78340935D01*
X67888379Y-78331262D01*
X68008167Y-78238761D01*
X68185149Y-78074875D01*
X68403056Y-77851045D01*
X68515159Y-77728196D01*
X68789347Y-77421723D01*
X69056227Y-77123830D01*
X69271505Y-76883942D01*
X69330789Y-76818029D01*
X69521606Y-76581489D01*
X69674299Y-76350005D01*
X69711290Y-76278166D01*
X69801250Y-76113567D01*
X69871052Y-76045333D01*
X69933983Y-75974371D01*
X70011509Y-75801943D01*
X70017188Y-75785956D01*
X70064828Y-75610628D01*
X70023702Y-75510336D01*
X69861635Y-75423988D01*
X69816523Y-75404956D01*
X69593408Y-75324026D01*
X69425881Y-75284194D01*
X69410113Y-75283333D01*
X69289052Y-75247585D01*
X69055239Y-75151243D01*
X68746763Y-75010656D01*
X68520680Y-74901529D01*
X68165940Y-74729298D01*
X67912555Y-74621130D01*
X67710479Y-74565249D01*
X67509665Y-74549883D01*
X67260066Y-74563255D01*
X67130453Y-74574449D01*
X66805302Y-74611636D01*
X66533408Y-74657621D01*
X66371140Y-74702774D01*
X66366681Y-74704957D01*
X66195634Y-74735226D01*
X65911718Y-74730431D01*
X65566142Y-74697357D01*
X65210117Y-74642790D01*
X64894853Y-74573516D01*
X64671560Y-74496321D01*
X64634289Y-74475399D01*
X64434496Y-74352268D01*
X64172953Y-74200422D01*
X64076683Y-74146537D01*
X63309824Y-73726258D01*
X62667760Y-73383992D01*
X62129895Y-73110943D01*
X61675634Y-72898318D01*
X61284383Y-72737322D01*
X60935546Y-72619158D01*
X60608527Y-72535034D01*
X60282733Y-72476153D01*
X60111070Y-72453091D01*
X59751645Y-72380216D01*
X59511929Y-72255505D01*
X59446093Y-72194517D01*
X59248590Y-72053074D01*
X58971383Y-71931374D01*
X58851893Y-71896641D01*
X58596065Y-71817173D01*
X58555667Y-71790041D01*
X58555667Y-72828000D01*
X58598000Y-72870333D01*
X58555667Y-72912666D01*
X58513334Y-72870333D01*
X58555667Y-72828000D01*
X58555667Y-71790041D01*
X58418522Y-71697929D01*
X58255443Y-71490042D01*
X58193003Y-71392178D01*
X58052076Y-71184383D01*
X57907828Y-71036267D01*
X57714553Y-70915112D01*
X57426544Y-70788199D01*
X57255697Y-70721201D01*
X56931509Y-70601154D01*
X56659939Y-70509682D01*
X56485241Y-70461360D01*
X56454435Y-70457333D01*
X56322147Y-70410436D01*
X56114785Y-70290849D01*
X55986770Y-70203333D01*
X55614663Y-70000554D01*
X55340680Y-69949333D01*
X55331278Y-69950261D01*
X55331278Y-81301350D01*
X55441092Y-81316917D01*
X55442403Y-81345819D01*
X55338334Y-81364380D01*
X55338334Y-82310666D01*
X55380667Y-82353000D01*
X55338334Y-82395333D01*
X55296000Y-82353000D01*
X55338334Y-82310666D01*
X55338334Y-81364380D01*
X55329086Y-81366030D01*
X55280125Y-81352503D01*
X55248055Y-81314908D01*
X55331278Y-81301350D01*
X55331278Y-69950261D01*
X55132962Y-69969846D01*
X55031829Y-70058320D01*
X54992098Y-70182166D01*
X54886039Y-70632082D01*
X54803759Y-70938773D01*
X54736845Y-71125261D01*
X54676887Y-71214566D01*
X54615470Y-71229709D01*
X54609817Y-71228287D01*
X54465517Y-71186976D01*
X54222760Y-71116998D01*
X54043715Y-71065227D01*
X53828458Y-71012989D01*
X53828458Y-72833000D01*
X53957375Y-72859410D01*
X54061009Y-72935580D01*
X54281815Y-73268595D01*
X54364622Y-73659938D01*
X54364667Y-73669100D01*
X54383476Y-73849905D01*
X54428924Y-73928557D01*
X54430849Y-73928666D01*
X54491521Y-74002185D01*
X54570401Y-74188783D01*
X54609528Y-74309666D01*
X54689111Y-74534012D01*
X54763397Y-74670924D01*
X54791137Y-74690666D01*
X54857485Y-74736294D01*
X54903253Y-74886896D01*
X54931820Y-75163051D01*
X54946565Y-75585335D01*
X54947512Y-75643166D01*
X54941700Y-76004128D01*
X54912893Y-76228118D01*
X54866961Y-76299333D01*
X54814947Y-76365033D01*
X54829062Y-76464659D01*
X54839157Y-76587458D01*
X54729926Y-76600611D01*
X54713503Y-76597625D01*
X54608390Y-76604231D01*
X54534834Y-76697279D01*
X54469671Y-76912306D01*
X54448763Y-77003799D01*
X54375482Y-77382474D01*
X54304773Y-77827065D01*
X54244276Y-78280136D01*
X54201635Y-78684251D01*
X54184491Y-78981974D01*
X54184445Y-78990384D01*
X54250189Y-79278519D01*
X54359098Y-79413717D01*
X54481843Y-79579807D01*
X54589067Y-79869935D01*
X54685478Y-80300072D01*
X54761120Y-80778185D01*
X54784319Y-81003779D01*
X54765158Y-81093837D01*
X54696958Y-81078354D01*
X54694608Y-81076899D01*
X54521998Y-81001245D01*
X54292368Y-80939136D01*
X54052376Y-80897205D01*
X53848681Y-80882085D01*
X53727940Y-80900410D01*
X53718634Y-80938147D01*
X53698188Y-80984877D01*
X53579833Y-80977586D01*
X53421830Y-80927711D01*
X53292001Y-80854409D01*
X53175512Y-80841392D01*
X53122346Y-80903532D01*
X53072866Y-80946444D01*
X52964935Y-80979884D01*
X52778423Y-81005462D01*
X52493199Y-81024788D01*
X52089133Y-81039471D01*
X51546096Y-81051120D01*
X51210423Y-81056394D01*
X50672262Y-81062313D01*
X50195673Y-81064001D01*
X49805045Y-81061665D01*
X49524766Y-81055514D01*
X49379223Y-81045755D01*
X49364144Y-81040666D01*
X49353566Y-80938441D01*
X49332373Y-80726710D01*
X49319322Y-80594899D01*
X49276886Y-80299642D01*
X49217756Y-80038810D01*
X49195054Y-79969323D01*
X49150681Y-79785904D01*
X49171889Y-79690061D01*
X49243337Y-79714194D01*
X49287974Y-79773118D01*
X49347719Y-79836732D01*
X49367385Y-79747977D01*
X49368037Y-79712163D01*
X49403730Y-79541317D01*
X49454000Y-79474333D01*
X49525729Y-79494438D01*
X49538667Y-79559000D01*
X49580891Y-79648795D01*
X49629106Y-79640099D01*
X49684406Y-79524547D01*
X49673359Y-79463848D01*
X49693615Y-79321775D01*
X49796108Y-79174558D01*
X49944242Y-78967308D01*
X50081845Y-78644507D01*
X50215283Y-78188011D01*
X50344459Y-77611666D01*
X50478769Y-77011746D01*
X50607679Y-76567591D01*
X50735462Y-76265911D01*
X50816166Y-76144386D01*
X50911736Y-75999950D01*
X51051263Y-75753742D01*
X51205899Y-75456872D01*
X51218374Y-75431829D01*
X51405847Y-75093045D01*
X51608991Y-74830362D01*
X51880831Y-74581567D01*
X52065040Y-74438456D01*
X52363788Y-74221670D01*
X52644124Y-74031370D01*
X52853772Y-73902779D01*
X52883000Y-73887373D01*
X53180118Y-73719866D01*
X53348757Y-73563790D01*
X53421685Y-73378873D01*
X53433334Y-73210958D01*
X53445219Y-73005210D01*
X53497296Y-72928261D01*
X53602667Y-72937198D01*
X53737675Y-72941947D01*
X53772000Y-72904740D01*
X53828458Y-72833000D01*
X53828458Y-71012989D01*
X53821892Y-71011395D01*
X53586585Y-70981287D01*
X53297975Y-70973667D01*
X52916246Y-70987294D01*
X52467371Y-71016186D01*
X52007130Y-71050778D01*
X51675731Y-71084249D01*
X51433040Y-71126492D01*
X51238925Y-71187399D01*
X51053251Y-71276864D01*
X50835886Y-71404779D01*
X50798656Y-71427534D01*
X49835000Y-72081688D01*
X49835000Y-78839333D01*
X49877334Y-78881666D01*
X49835000Y-78924000D01*
X49792667Y-78881666D01*
X49835000Y-78839333D01*
X49835000Y-72081688D01*
X49725451Y-72156053D01*
X49308936Y-72499374D01*
X49308936Y-76990314D01*
X49356252Y-77010915D01*
X49447145Y-77096165D01*
X49428500Y-77145175D01*
X49416664Y-77146000D01*
X49345051Y-77085863D01*
X49318915Y-77048251D01*
X49308936Y-76990314D01*
X49308936Y-72499374D01*
X49090163Y-72679703D01*
X49090163Y-76944863D01*
X49101965Y-77061333D01*
X49088660Y-77181528D01*
X49059260Y-77167166D01*
X49048078Y-76993824D01*
X49059260Y-76955500D01*
X49090163Y-76944863D01*
X49090163Y-72679703D01*
X48889556Y-72845059D01*
X48889556Y-75988888D01*
X48939890Y-76000511D01*
X48946000Y-76045333D01*
X48915022Y-76115023D01*
X48889556Y-76101777D01*
X48879423Y-76001298D01*
X48889556Y-75988888D01*
X48889556Y-72845059D01*
X48820576Y-72901917D01*
X48820576Y-76350857D01*
X48842278Y-76372125D01*
X48852130Y-76546847D01*
X48852894Y-76574500D01*
X48838408Y-76778458D01*
X48791911Y-76886711D01*
X48776667Y-76892000D01*
X48708889Y-76839332D01*
X48720720Y-76668916D01*
X48776667Y-76468666D01*
X48820576Y-76350857D01*
X48820576Y-72901917D01*
X48758574Y-72953025D01*
X48758574Y-75693514D01*
X48749536Y-75803322D01*
X48696791Y-75997944D01*
X48649667Y-76130000D01*
X48574213Y-76293780D01*
X48536669Y-76297617D01*
X48532927Y-76257000D01*
X48565859Y-76060493D01*
X48646609Y-75833666D01*
X48724174Y-75694851D01*
X48758574Y-75693514D01*
X48758574Y-72953025D01*
X48742158Y-72966557D01*
X48454026Y-73237843D01*
X48183623Y-73510833D01*
X48068652Y-73643746D01*
X48068652Y-76258915D01*
X48099334Y-76299333D01*
X48155658Y-76392741D01*
X48172760Y-76477671D01*
X48146562Y-76607372D01*
X48072982Y-76835091D01*
X48053922Y-76892000D01*
X47982580Y-77095590D01*
X47954012Y-77144388D01*
X47961864Y-77045652D01*
X47970540Y-76987250D01*
X48003102Y-76695226D01*
X48015963Y-76436916D01*
X48028111Y-76271828D01*
X48068652Y-76258915D01*
X48068652Y-73643746D01*
X47973554Y-73753686D01*
X47794438Y-74009816D01*
X47774934Y-74044180D01*
X47774934Y-75553791D01*
X47816155Y-75576396D01*
X47853926Y-75664333D01*
X47890948Y-75884933D01*
X47877981Y-76003000D01*
X47829089Y-76194714D01*
X47764242Y-76453791D01*
X47750061Y-76511000D01*
X47678553Y-76744573D01*
X47604192Y-76907074D01*
X47586478Y-76930100D01*
X47559611Y-76988437D01*
X47559611Y-77896250D01*
X47574269Y-78008707D01*
X47574828Y-78035000D01*
X47565676Y-78179595D01*
X47539172Y-78192326D01*
X47535798Y-78184778D01*
X47519049Y-78016698D01*
X47532660Y-77930778D01*
X47559611Y-77896250D01*
X47559611Y-76988437D01*
X47521643Y-77070878D01*
X47497600Y-77226433D01*
X47481420Y-77311199D01*
X47445497Y-77233386D01*
X47407261Y-77079015D01*
X47369126Y-76771613D01*
X47419103Y-76483882D01*
X47467680Y-76344688D01*
X47539397Y-76102649D01*
X47557683Y-75917520D01*
X47544936Y-75869424D01*
X47528652Y-75804419D01*
X47572156Y-75821814D01*
X47663512Y-75798273D01*
X47724765Y-75686729D01*
X47774934Y-75553791D01*
X47774934Y-74044180D01*
X47616893Y-74322639D01*
X47411535Y-74735570D01*
X47342812Y-74879762D01*
X47051789Y-75527483D01*
X47041000Y-75554586D01*
X47041000Y-78162000D01*
X47083334Y-78204333D01*
X47041000Y-78246666D01*
X46998667Y-78204333D01*
X47041000Y-78162000D01*
X47041000Y-75554586D01*
X46812330Y-76129033D01*
X46633223Y-76658711D01*
X46523260Y-77090816D01*
X46490667Y-77371369D01*
X46466094Y-77639759D01*
X46418952Y-77866225D01*
X46387103Y-78133867D01*
X46397891Y-78514613D01*
G36*
X69943378Y-90574650D02*
G01*
X69998357Y-90692666D01*
X70114517Y-90891479D01*
X70179637Y-90931798D01*
X70187249Y-90818491D01*
X70138971Y-90586833D01*
X70051993Y-90461031D01*
X69985948Y-90438666D01*
X69921023Y-90466144D01*
X69943378Y-90574650D01*
G37*
X69943378Y-90574650D02*
X69998357Y-90692666D01*
X70114517Y-90891479D01*
X70179637Y-90931798D01*
X70187249Y-90818491D01*
X70138971Y-90586833D01*
X70051993Y-90461031D01*
X69985948Y-90438666D01*
X69921023Y-90466144D01*
X69943378Y-90574650D01*
G36*
X69699271Y-90163954D02*
G01*
X69702949Y-90169295D01*
X69839062Y-90282753D01*
X70006834Y-90260617D01*
X70146090Y-90173880D01*
X70200470Y-90076146D01*
X70147181Y-90017857D01*
X70117664Y-90015333D01*
X70003203Y-90076950D01*
X69984813Y-90101381D01*
X69896372Y-90158055D01*
X69823732Y-90094126D01*
X69810320Y-89956056D01*
X69818595Y-89923541D01*
X69822995Y-89791533D01*
X69777048Y-89761333D01*
X69663643Y-89827327D01*
X69633856Y-89982793D01*
X69699271Y-90163954D01*
G37*
X69699271Y-90163954D02*
X69702949Y-90169295D01*
X69839062Y-90282753D01*
X70006834Y-90260617D01*
X70146090Y-90173880D01*
X70200470Y-90076146D01*
X70147181Y-90017857D01*
X70117664Y-90015333D01*
X70003203Y-90076950D01*
X69984813Y-90101381D01*
X69896372Y-90158055D01*
X69823732Y-90094126D01*
X69810320Y-89956056D01*
X69818595Y-89923541D01*
X69822995Y-89791533D01*
X69777048Y-89761333D01*
X69663643Y-89827327D01*
X69633856Y-89982793D01*
X69699271Y-90163954D01*
G36*
X70331229Y-89909468D02*
G01*
X70382542Y-89911263D01*
X70494350Y-89826991D01*
X70508566Y-89725537D01*
X70416056Y-89676666D01*
X70299424Y-89744836D01*
X70282000Y-89810722D01*
X70331229Y-89909468D01*
G37*
X70331229Y-89909468D02*
X70382542Y-89911263D01*
X70494350Y-89826991D01*
X70508566Y-89725537D01*
X70416056Y-89676666D01*
X70299424Y-89744836D01*
X70282000Y-89810722D01*
X70331229Y-89909468D01*
G36*
X70503499Y-75677896D02*
G01*
X70536000Y-75664333D01*
X70617506Y-75552174D01*
X70620667Y-75527339D01*
X70568501Y-75481436D01*
X70536000Y-75495000D01*
X70454494Y-75607159D01*
X70451334Y-75631993D01*
X70503499Y-75677896D01*
G37*
X70503499Y-75677896D02*
X70536000Y-75664333D01*
X70617506Y-75552174D01*
X70620667Y-75527339D01*
X70568501Y-75481436D01*
X70536000Y-75495000D01*
X70454494Y-75607159D01*
X70451334Y-75631993D01*
X70503499Y-75677896D01*
G36*
X70578334Y-90777333D02*
G01*
X70654416Y-90858103D01*
X70667997Y-90862000D01*
X70704363Y-90796494D01*
X70705334Y-90777333D01*
X70640246Y-90695920D01*
X70615670Y-90692666D01*
X70565104Y-90744536D01*
X70578334Y-90777333D01*
G37*
X70578334Y-90777333D02*
X70654416Y-90858103D01*
X70667997Y-90862000D01*
X70704363Y-90796494D01*
X70705334Y-90777333D01*
X70640246Y-90695920D01*
X70615670Y-90692666D01*
X70565104Y-90744536D01*
X70578334Y-90777333D01*
G36*
X70295716Y-91059684D02*
G01*
X70339841Y-91156754D01*
X70381055Y-91149440D01*
X70444655Y-91145339D01*
X70426124Y-91228907D01*
X70432186Y-91389626D01*
X70516891Y-91611390D01*
X70547099Y-91666129D01*
X70691247Y-91885524D01*
X70774138Y-91962217D01*
X70786062Y-91896196D01*
X70717312Y-91687448D01*
X70708754Y-91666333D01*
X70671677Y-91455292D01*
X70683711Y-91260386D01*
X70692101Y-91086825D01*
X70621196Y-91048029D01*
X70617977Y-91048720D01*
X70524167Y-90992377D01*
X70450152Y-90807647D01*
X70447119Y-90794203D01*
X70380884Y-90550456D01*
X70328154Y-90475188D01*
X70293635Y-90567932D01*
X70282000Y-90810552D01*
X70295716Y-91059684D01*
G37*
X70295716Y-91059684D02*
X70339841Y-91156754D01*
X70381055Y-91149440D01*
X70444655Y-91145339D01*
X70426124Y-91228907D01*
X70432186Y-91389626D01*
X70516891Y-91611390D01*
X70547099Y-91666129D01*
X70691247Y-91885524D01*
X70774138Y-91962217D01*
X70786062Y-91896196D01*
X70717312Y-91687448D01*
X70708754Y-91666333D01*
X70671677Y-91455292D01*
X70683711Y-91260386D01*
X70692101Y-91086825D01*
X70621196Y-91048029D01*
X70617977Y-91048720D01*
X70524167Y-90992377D01*
X70450152Y-90807647D01*
X70447119Y-90794203D01*
X70380884Y-90550456D01*
X70328154Y-90475188D01*
X70293635Y-90567932D01*
X70282000Y-90810552D01*
X70295716Y-91059684D01*
G36*
X70395485Y-74917040D02*
G01*
X70493491Y-74915053D01*
X70567138Y-74869291D01*
X70670995Y-74737883D01*
X70734281Y-74581293D01*
X70737601Y-74462985D01*
X70699359Y-74436666D01*
X70602796Y-74499028D01*
X70491471Y-74642407D01*
X70406856Y-74801242D01*
X70390422Y-74909975D01*
X70395485Y-74917040D01*
G37*
X70395485Y-74917040D02*
X70493491Y-74915053D01*
X70567138Y-74869291D01*
X70670995Y-74737883D01*
X70734281Y-74581293D01*
X70737601Y-74462985D01*
X70699359Y-74436666D01*
X70602796Y-74499028D01*
X70491471Y-74642407D01*
X70406856Y-74801242D01*
X70390422Y-74909975D01*
X70395485Y-74917040D01*
G36*
X70917000Y-90862000D02*
G01*
X70959334Y-90819666D01*
X70917000Y-90777333D01*
X70874667Y-90819666D01*
X70917000Y-90862000D01*
G37*
X70917000Y-90862000D02*
X70959334Y-90819666D01*
X70917000Y-90777333D01*
X70874667Y-90819666D01*
X70917000Y-90862000D01*
G36*
X70917000Y-90523333D02*
G01*
X70959334Y-90481000D01*
X70917000Y-90438666D01*
X70874667Y-90481000D01*
X70917000Y-90523333D01*
G37*
X70917000Y-90523333D02*
X70959334Y-90481000D01*
X70917000Y-90438666D01*
X70874667Y-90481000D01*
X70917000Y-90523333D01*
G36*
X71086334Y-74267333D02*
G01*
X71128667Y-74225000D01*
X71086334Y-74182666D01*
X71044000Y-74225000D01*
X71086334Y-74267333D01*
G37*
X71086334Y-74267333D02*
X71128667Y-74225000D01*
X71086334Y-74182666D01*
X71044000Y-74225000D01*
X71086334Y-74267333D01*
G36*
X71171000Y-90777333D02*
G01*
X71213334Y-90735000D01*
X71171000Y-90692666D01*
X71128667Y-90735000D01*
X71171000Y-90777333D01*
G37*
X71171000Y-90777333D02*
X71213334Y-90735000D01*
X71171000Y-90692666D01*
X71128667Y-90735000D01*
X71171000Y-90777333D01*
G36*
X70903452Y-91654499D02*
G01*
X70972670Y-91658090D01*
X71036720Y-91660863D01*
X71022930Y-91780093D01*
X71019025Y-91922726D01*
X71131884Y-91962645D01*
X71136593Y-91962666D01*
X71265811Y-91953460D01*
X71289357Y-91941500D01*
X71260364Y-91855175D01*
X71201179Y-91672858D01*
X71193847Y-91650064D01*
X71095845Y-91437638D01*
X70990433Y-91335196D01*
X70906949Y-91356105D01*
X70874667Y-91504654D01*
X70903452Y-91654499D01*
G37*
X70903452Y-91654499D02*
X70972670Y-91658090D01*
X71036720Y-91660863D01*
X71022930Y-91780093D01*
X71019025Y-91922726D01*
X71131884Y-91962645D01*
X71136593Y-91962666D01*
X71265811Y-91953460D01*
X71289357Y-91941500D01*
X71260364Y-91855175D01*
X71201179Y-91672858D01*
X71193847Y-91650064D01*
X71095845Y-91437638D01*
X70990433Y-91335196D01*
X70906949Y-91356105D01*
X70874667Y-91504654D01*
X70903452Y-91654499D01*
G36*
X71183357Y-90496770D02*
G01*
X71213334Y-90481000D01*
X71294190Y-90401225D01*
X71298000Y-90386339D01*
X71243310Y-90380563D01*
X71213334Y-90396333D01*
X71132477Y-90476107D01*
X71128667Y-90490993D01*
X71183357Y-90496770D01*
G37*
X71183357Y-90496770D02*
X71213334Y-90481000D01*
X71294190Y-90401225D01*
X71298000Y-90386339D01*
X71243310Y-90380563D01*
X71213334Y-90396333D01*
X71132477Y-90476107D01*
X71128667Y-90490993D01*
X71183357Y-90496770D01*
G36*
X71065167Y-92105696D02*
G01*
X71279901Y-92118863D01*
X71361500Y-92105696D01*
X71387851Y-92081155D01*
X71270778Y-92067795D01*
X71213334Y-92066976D01*
X71059298Y-92075803D01*
X71041144Y-92097780D01*
X71065167Y-92105696D01*
G37*
X71065167Y-92105696D02*
X71279901Y-92118863D01*
X71361500Y-92105696D01*
X71387851Y-92081155D01*
X71270778Y-92067795D01*
X71213334Y-92066976D01*
X71059298Y-92075803D01*
X71041144Y-92097780D01*
X71065167Y-92105696D01*
G36*
X71749556Y-91934444D02*
G01*
X71799890Y-91922822D01*
X71806000Y-91878000D01*
X71775022Y-91808309D01*
X71749556Y-91821555D01*
X71739423Y-91922035D01*
X71749556Y-91934444D01*
G37*
X71749556Y-91934444D02*
X71799890Y-91922822D01*
X71806000Y-91878000D01*
X71775022Y-91808309D01*
X71749556Y-91821555D01*
X71739423Y-91922035D01*
X71749556Y-91934444D01*
G36*
X71923890Y-92131303D02*
G01*
X71964967Y-92132000D01*
X72110951Y-92081443D01*
X72144667Y-92005000D01*
X72104459Y-91892249D01*
X72070367Y-91878000D01*
X71960025Y-91935925D01*
X71890667Y-92005000D01*
X71836133Y-92102313D01*
X71923890Y-92131303D01*
G37*
X71923890Y-92131303D02*
X71964967Y-92132000D01*
X72110951Y-92081443D01*
X72144667Y-92005000D01*
X72104459Y-91892249D01*
X72070367Y-91878000D01*
X71960025Y-91935925D01*
X71890667Y-92005000D01*
X71836133Y-92102313D01*
X71923890Y-92131303D01*
G36*
X72596222Y-91934444D02*
G01*
X72646557Y-91922822D01*
X72652667Y-91878000D01*
X72621689Y-91808309D01*
X72596222Y-91821555D01*
X72586089Y-91922035D01*
X72596222Y-91934444D01*
G37*
X72596222Y-91934444D02*
X72646557Y-91922822D01*
X72652667Y-91878000D01*
X72621689Y-91808309D01*
X72596222Y-91821555D01*
X72586089Y-91922035D01*
X72596222Y-91934444D01*
G36*
X71337339Y-74008923D02*
G01*
X71377413Y-74013333D01*
X71498319Y-73994801D01*
X71739126Y-73945841D01*
X72055286Y-73876402D01*
X72402251Y-73796433D01*
X72735474Y-73715887D01*
X72922551Y-73668209D01*
X73208630Y-73531007D01*
X73360561Y-73334159D01*
X73433527Y-73157193D01*
X73413222Y-73087291D01*
X73379394Y-73082000D01*
X73244586Y-73110207D01*
X72994903Y-73184848D01*
X72673278Y-73290952D01*
X72322646Y-73413549D01*
X71985939Y-73537668D01*
X71706091Y-73648339D01*
X71538935Y-73723756D01*
X71370021Y-73839789D01*
X71296094Y-73946907D01*
X71337339Y-74008923D01*
G37*
X71337339Y-74008923D02*
X71377413Y-74013333D01*
X71498319Y-73994801D01*
X71739126Y-73945841D01*
X72055286Y-73876402D01*
X72402251Y-73796433D01*
X72735474Y-73715887D01*
X72922551Y-73668209D01*
X73208630Y-73531007D01*
X73360561Y-73334159D01*
X73433527Y-73157193D01*
X73413222Y-73087291D01*
X73379394Y-73082000D01*
X73244586Y-73110207D01*
X72994903Y-73184848D01*
X72673278Y-73290952D01*
X72322646Y-73413549D01*
X71985939Y-73537668D01*
X71706091Y-73648339D01*
X71538935Y-73723756D01*
X71370021Y-73839789D01*
X71296094Y-73946907D01*
X71337339Y-74008923D01*
G36*
X71673633Y-76060076D02*
G01*
X71857657Y-76166012D01*
X72122334Y-76288912D01*
X72144667Y-76298328D01*
X72695000Y-76528741D01*
X73076000Y-76334148D01*
X73392309Y-76155121D01*
X73649522Y-75976963D01*
X73821361Y-75821546D01*
X73881549Y-75710744D01*
X73862513Y-75679482D01*
X73735908Y-75670071D01*
X73510672Y-75706491D01*
X73361615Y-75744744D01*
X72803643Y-75867559D01*
X72279157Y-75891796D01*
X72216093Y-75888767D01*
X72055163Y-75852837D01*
X72025444Y-75750487D01*
X72032661Y-75717400D01*
X72104520Y-75574590D01*
X72259362Y-75335765D01*
X72471587Y-75034844D01*
X72715595Y-74705749D01*
X72965785Y-74382401D01*
X73196558Y-74098720D01*
X73382313Y-73888627D01*
X73483888Y-73794488D01*
X73623175Y-73653874D01*
X73668667Y-73540161D01*
X73618947Y-73467551D01*
X73485105Y-73511054D01*
X73290117Y-73655622D01*
X73056959Y-73886205D01*
X72946279Y-74013333D01*
X72785723Y-74219223D01*
X72579564Y-74502251D01*
X72349731Y-74829955D01*
X72118152Y-75169871D01*
X71906757Y-75489537D01*
X71737475Y-75756490D01*
X71632234Y-75938266D01*
X71608916Y-75993124D01*
X71673633Y-76060076D01*
G37*
X71673633Y-76060076D02*
X71857657Y-76166012D01*
X72122334Y-76288912D01*
X72144667Y-76298328D01*
X72695000Y-76528741D01*
X73076000Y-76334148D01*
X73392309Y-76155121D01*
X73649522Y-75976963D01*
X73821361Y-75821546D01*
X73881549Y-75710744D01*
X73862513Y-75679482D01*
X73735908Y-75670071D01*
X73510672Y-75706491D01*
X73361615Y-75744744D01*
X72803643Y-75867559D01*
X72279157Y-75891796D01*
X72216093Y-75888767D01*
X72055163Y-75852837D01*
X72025444Y-75750487D01*
X72032661Y-75717400D01*
X72104520Y-75574590D01*
X72259362Y-75335765D01*
X72471587Y-75034844D01*
X72715595Y-74705749D01*
X72965785Y-74382401D01*
X73196558Y-74098720D01*
X73382313Y-73888627D01*
X73483888Y-73794488D01*
X73623175Y-73653874D01*
X73668667Y-73540161D01*
X73618947Y-73467551D01*
X73485105Y-73511054D01*
X73290117Y-73655622D01*
X73056959Y-73886205D01*
X72946279Y-74013333D01*
X72785723Y-74219223D01*
X72579564Y-74502251D01*
X72349731Y-74829955D01*
X72118152Y-75169871D01*
X71906757Y-75489537D01*
X71737475Y-75756490D01*
X71632234Y-75938266D01*
X71608916Y-75993124D01*
X71673633Y-76060076D01*
G36*
X73827550Y-73829990D02*
G01*
X73891817Y-73876595D01*
X73945625Y-73768603D01*
X73952098Y-73745323D01*
X73998693Y-73536307D01*
X73981016Y-73442992D01*
X73889197Y-73420719D01*
X73880334Y-73420666D01*
X73779685Y-73486849D01*
X73759691Y-73644257D01*
X73827550Y-73829990D01*
G37*
X73827550Y-73829990D02*
X73891817Y-73876595D01*
X73945625Y-73768603D01*
X73952098Y-73745323D01*
X73998693Y-73536307D01*
X73981016Y-73442992D01*
X73889197Y-73420719D01*
X73880334Y-73420666D01*
X73779685Y-73486849D01*
X73759691Y-73644257D01*
X73827550Y-73829990D01*
G36*
X74256375Y-73463513D02*
G01*
X74441018Y-73455420D01*
X74455591Y-73452990D01*
X74730897Y-73390431D01*
X74954723Y-73320703D01*
X75147452Y-73274688D01*
X75266373Y-73286892D01*
X75379779Y-73279339D01*
X75403480Y-73252714D01*
X75524057Y-73179654D01*
X75616000Y-73166666D01*
X75776119Y-73129605D01*
X75827157Y-73048119D01*
X75742841Y-72966760D01*
X75735589Y-72963871D01*
X75518299Y-72917556D01*
X75253804Y-72942074D01*
X74898929Y-73043081D01*
X74762330Y-73091349D01*
X74476477Y-73212868D01*
X74287762Y-73326136D01*
X74209842Y-73415052D01*
X74256375Y-73463513D01*
G37*
X74256375Y-73463513D02*
X74441018Y-73455420D01*
X74455591Y-73452990D01*
X74730897Y-73390431D01*
X74954723Y-73320703D01*
X75147452Y-73274688D01*
X75266373Y-73286892D01*
X75379779Y-73279339D01*
X75403480Y-73252714D01*
X75524057Y-73179654D01*
X75616000Y-73166666D01*
X75776119Y-73129605D01*
X75827157Y-73048119D01*
X75742841Y-72966760D01*
X75735589Y-72963871D01*
X75518299Y-72917556D01*
X75253804Y-72942074D01*
X74898929Y-73043081D01*
X74762330Y-73091349D01*
X74476477Y-73212868D01*
X74287762Y-73326136D01*
X74209842Y-73415052D01*
X74256375Y-73463513D01*
G36*
X73917322Y-74498153D02*
G01*
X74118753Y-74665195D01*
X74414353Y-74851868D01*
X74745292Y-75022906D01*
X75011417Y-75170473D01*
X75324338Y-75376095D01*
X75536062Y-75533092D01*
X75829572Y-75743921D01*
X76050143Y-75859323D01*
X76179343Y-75871606D01*
X76205454Y-75812500D01*
X76140008Y-75731654D01*
X75976043Y-75594118D01*
X75845620Y-75498115D01*
X75603516Y-75332938D01*
X75298064Y-75131917D01*
X74960652Y-74914784D01*
X74622671Y-74701271D01*
X74315509Y-74511111D01*
X74070556Y-74364035D01*
X73919200Y-74279775D01*
X73887727Y-74267333D01*
X73843516Y-74334566D01*
X73841262Y-74373166D01*
X73917322Y-74498153D01*
G37*
X73917322Y-74498153D02*
X74118753Y-74665195D01*
X74414353Y-74851868D01*
X74745292Y-75022906D01*
X75011417Y-75170473D01*
X75324338Y-75376095D01*
X75536062Y-75533092D01*
X75829572Y-75743921D01*
X76050143Y-75859323D01*
X76179343Y-75871606D01*
X76205454Y-75812500D01*
X76140008Y-75731654D01*
X75976043Y-75594118D01*
X75845620Y-75498115D01*
X75603516Y-75332938D01*
X75298064Y-75131917D01*
X74960652Y-74914784D01*
X74622671Y-74701271D01*
X74315509Y-74511111D01*
X74070556Y-74364035D01*
X73919200Y-74279775D01*
X73887727Y-74267333D01*
X73843516Y-74334566D01*
X73841262Y-74373166D01*
X73917322Y-74498153D01*
G36*
X76256786Y-72393223D02*
G01*
X76262402Y-72399373D01*
X76413997Y-72466668D01*
X76558735Y-72465698D01*
X76659710Y-72434567D01*
X76617758Y-72416196D01*
X76413596Y-72377670D01*
X76321425Y-72349872D01*
X76219966Y-72328007D01*
X76256786Y-72393223D01*
G37*
X76256786Y-72393223D02*
X76262402Y-72399373D01*
X76413997Y-72466668D01*
X76558735Y-72465698D01*
X76659710Y-72434567D01*
X76617758Y-72416196D01*
X76413596Y-72377670D01*
X76321425Y-72349872D01*
X76219966Y-72328007D01*
X76256786Y-72393223D01*
G36*
X64383783Y-83140061D02*
G01*
X64566847Y-83299858D01*
X64826011Y-83488587D01*
X65070657Y-83645427D01*
X65640830Y-84000867D01*
X66072486Y-84293811D01*
X66379541Y-84535506D01*
X66575912Y-84737199D01*
X66675515Y-84910136D01*
X66687303Y-84951890D01*
X66799040Y-85235997D01*
X67012277Y-85585672D01*
X67298262Y-85954505D01*
X67495054Y-86193064D01*
X67699314Y-86456443D01*
X67883333Y-86706803D01*
X68019403Y-86906306D01*
X68079815Y-87017114D01*
X68080667Y-87022917D01*
X68124674Y-87127773D01*
X68238799Y-87324493D01*
X68364118Y-87518796D01*
X68541867Y-87811981D01*
X68691412Y-88107629D01*
X68751941Y-88259279D01*
X68834424Y-88447681D01*
X68913825Y-88532061D01*
X68934157Y-88529449D01*
X68990220Y-88564721D01*
X69012000Y-88708370D01*
X69025477Y-88860537D01*
X69084605Y-88869941D01*
X69142126Y-88827405D01*
X69245474Y-88674754D01*
X69259377Y-88584205D01*
X69252808Y-88281545D01*
X69310205Y-88116737D01*
X69435334Y-88068000D01*
X69575360Y-88123608D01*
X69604667Y-88201047D01*
X69660998Y-88374019D01*
X69712909Y-88442337D01*
X69825816Y-88507460D01*
X69924576Y-88439863D01*
X70014460Y-88298917D01*
X70028000Y-88240906D01*
X70100434Y-88174582D01*
X70239667Y-88152666D01*
X70412661Y-88198970D01*
X70451334Y-88288725D01*
X70398772Y-88385084D01*
X70328645Y-88377703D01*
X70242736Y-88381460D01*
X70253037Y-88453311D01*
X70235059Y-88557424D01*
X70157003Y-88576000D01*
X70052809Y-88624909D01*
X70049167Y-88681833D01*
X70153105Y-88778900D01*
X70203230Y-88787666D01*
X70312712Y-88848341D01*
X70350347Y-88974330D01*
X70299880Y-89081583D01*
X70263243Y-89098027D01*
X70210540Y-89150335D01*
X70291987Y-89265610D01*
X70314115Y-89287871D01*
X70430407Y-89395941D01*
X70456281Y-89379022D01*
X70430298Y-89266704D01*
X70419195Y-89124606D01*
X70452335Y-89084000D01*
X70585246Y-89060125D01*
X70677242Y-89033679D01*
X70777708Y-89008851D01*
X70728653Y-89057726D01*
X70705334Y-89074716D01*
X70635114Y-89150217D01*
X70684167Y-89167370D01*
X70779407Y-89236330D01*
X70790000Y-89288611D01*
X70726405Y-89421849D01*
X70684167Y-89447361D01*
X70624951Y-89505202D01*
X70694750Y-89602583D01*
X70797779Y-89672767D01*
X70849972Y-89613166D01*
X70951962Y-89516373D01*
X71086377Y-89538623D01*
X71156763Y-89627761D01*
X71266601Y-89710611D01*
X71367932Y-89705051D01*
X71518563Y-89705900D01*
X71594265Y-89769941D01*
X71557595Y-89851645D01*
X71509181Y-89876804D01*
X71409528Y-89989162D01*
X71385808Y-90160943D01*
X71448359Y-90298664D01*
X71461483Y-90308050D01*
X71570223Y-90297433D01*
X71593480Y-90270714D01*
X71703556Y-90186752D01*
X71790552Y-90248618D01*
X71806000Y-90335183D01*
X71745489Y-90502087D01*
X71636667Y-90630688D01*
X71508627Y-90775146D01*
X71467334Y-90875929D01*
X71518999Y-90892891D01*
X71646496Y-90806701D01*
X71678666Y-90777646D01*
X71834349Y-90659833D01*
X71939252Y-90631014D01*
X71947111Y-90636222D01*
X71934239Y-90728599D01*
X71933000Y-90730365D01*
X71933000Y-91031333D01*
X71975334Y-91073666D01*
X71933000Y-91116000D01*
X71890667Y-91073666D01*
X71933000Y-91031333D01*
X71933000Y-90730365D01*
X71827886Y-90880274D01*
X71805687Y-90904667D01*
X71701269Y-91042907D01*
X71697923Y-91113546D01*
X71711572Y-91116000D01*
X71775976Y-91165337D01*
X71763774Y-91200492D01*
X71769813Y-91320056D01*
X71844539Y-91502771D01*
X71951692Y-91680736D01*
X72055012Y-91786052D01*
X72080372Y-91793333D01*
X72142507Y-91720107D01*
X72198944Y-91542848D01*
X72201066Y-91532504D01*
X72250923Y-91367630D01*
X72308793Y-91359397D01*
X72328521Y-91384337D01*
X72370380Y-91410890D01*
X72354343Y-91283665D01*
X72351568Y-91271503D01*
X72357205Y-91039334D01*
X72473173Y-90872160D01*
X72647020Y-90698313D01*
X72768004Y-90871041D01*
X72882789Y-90979605D01*
X72947449Y-90949176D01*
X72951766Y-90810891D01*
X72914255Y-90744142D01*
X72877675Y-90623225D01*
X72970466Y-90506729D01*
X73112244Y-90397286D01*
X73244184Y-90312605D01*
X73322346Y-90277989D01*
X73309568Y-90311469D01*
X73299239Y-90426464D01*
X73332195Y-90483645D01*
X73376996Y-90641762D01*
X73372334Y-90667000D01*
X73372334Y-91031333D01*
X73414667Y-91073666D01*
X73372334Y-91116000D01*
X73330000Y-91073666D01*
X73372334Y-91031333D01*
X73372334Y-90667000D01*
X73358989Y-90739244D01*
X73307717Y-90843521D01*
X73262720Y-90793225D01*
X73236479Y-90728809D01*
X73189750Y-90636837D01*
X73165711Y-90692884D01*
X73156034Y-90798500D01*
X73136428Y-90992726D01*
X73117527Y-91094833D01*
X73076145Y-91218832D01*
X73033569Y-91348833D01*
X72957985Y-91496327D01*
X72896792Y-91539333D01*
X72825767Y-91487117D01*
X72867860Y-91366105D01*
X72914044Y-91311822D01*
X72956242Y-91208318D01*
X72901200Y-91154954D01*
X72781126Y-91162056D01*
X72662247Y-91275682D01*
X72590722Y-91439100D01*
X72589789Y-91537695D01*
X72680900Y-91638232D01*
X72750275Y-91644048D01*
X72912650Y-91684026D01*
X72987576Y-91746472D01*
X73041008Y-91836536D01*
X72957524Y-91844776D01*
X72914204Y-91837118D01*
X72768216Y-91852736D01*
X72737334Y-91918139D01*
X72670986Y-92050929D01*
X72631500Y-92074795D01*
X72687097Y-92084883D01*
X72893343Y-92094530D01*
X73231553Y-92103396D01*
X73683045Y-92111144D01*
X74229133Y-92117435D01*
X74851134Y-92121930D01*
X75340834Y-92123879D01*
X78156000Y-92131389D01*
X78157949Y-90967528D01*
X78158883Y-90617240D01*
X78160696Y-90124457D01*
X78163265Y-89516013D01*
X78166466Y-88818742D01*
X78170176Y-88059479D01*
X78174270Y-87265059D01*
X78178626Y-86462316D01*
X78179116Y-86374666D01*
X78183101Y-85453219D01*
X78185468Y-84433747D01*
X78186240Y-83363944D01*
X78185439Y-82291504D01*
X78183086Y-81264123D01*
X78179203Y-80329495D01*
X78176118Y-79828794D01*
X78153903Y-76711921D01*
X78029000Y-76749581D01*
X78029000Y-90354000D01*
X78071334Y-90396333D01*
X78029000Y-90438666D01*
X77986667Y-90396333D01*
X78029000Y-90354000D01*
X78029000Y-76749581D01*
X77964451Y-76769044D01*
X77746187Y-76844207D01*
X77521000Y-76932322D01*
X77351667Y-77002780D01*
X77351667Y-90862000D01*
X77394000Y-90904333D01*
X77351667Y-90946666D01*
X77309334Y-90904333D01*
X77351667Y-90862000D01*
X77351667Y-77002780D01*
X77110299Y-77103211D01*
X77110299Y-90946666D01*
X77189228Y-90992991D01*
X77309431Y-91087684D01*
X77387692Y-91164324D01*
X77390780Y-91170543D01*
X77321259Y-91175514D01*
X77193134Y-91170543D01*
X77048063Y-91124935D01*
X77032859Y-91052500D01*
X77093001Y-90954841D01*
X77110299Y-90946666D01*
X77110299Y-77103211D01*
X76776655Y-77242038D01*
X76776655Y-90981110D01*
X76807184Y-90992615D01*
X76882258Y-91074349D01*
X76796751Y-91114343D01*
X76754003Y-91116000D01*
X76666801Y-91074343D01*
X76675187Y-91029952D01*
X76776655Y-90981110D01*
X76776655Y-77242038D01*
X76717923Y-77266477D01*
X76632000Y-77301777D01*
X76632000Y-91285333D01*
X76701690Y-91316311D01*
X76688445Y-91341777D01*
X76587965Y-91351910D01*
X76575556Y-91341777D01*
X76587178Y-91291443D01*
X76632000Y-91285333D01*
X76632000Y-77301777D01*
X76059499Y-77536983D01*
X75573667Y-77732399D01*
X75573667Y-91708666D01*
X75616000Y-91751000D01*
X75573667Y-91793333D01*
X75531334Y-91751000D01*
X75573667Y-91708666D01*
X75573667Y-77732399D01*
X75535167Y-77747885D01*
X75446667Y-77782185D01*
X75446667Y-89676666D01*
X75516357Y-89707644D01*
X75503111Y-89733111D01*
X75402632Y-89743244D01*
X75390222Y-89733111D01*
X75401845Y-89682776D01*
X75446667Y-89676666D01*
X75446667Y-77782185D01*
X75201286Y-77877288D01*
X75201286Y-91908050D01*
X75328715Y-91937005D01*
X75440494Y-91988964D01*
X75395198Y-92018129D01*
X75334207Y-92031149D01*
X75179629Y-92034108D01*
X75129596Y-92012484D01*
X75107173Y-91934617D01*
X75201286Y-91908050D01*
X75201286Y-77877288D01*
X75134363Y-77903226D01*
X74889278Y-77991629D01*
X74889278Y-91969350D01*
X74999092Y-91984917D01*
X75000403Y-92013819D01*
X74887086Y-92034030D01*
X74838125Y-92020503D01*
X74806055Y-91982908D01*
X74889278Y-91969350D01*
X74889278Y-77991629D01*
X74846527Y-78007050D01*
X74661097Y-78063402D01*
X74567512Y-78076326D01*
X74552491Y-78068957D01*
X74458889Y-78058484D01*
X74458889Y-89535555D01*
X74509223Y-89547177D01*
X74515334Y-89592000D01*
X74484355Y-89661690D01*
X74458889Y-89648444D01*
X74448756Y-89547964D01*
X74458889Y-89535555D01*
X74458889Y-78058484D01*
X74455373Y-78058090D01*
X74425670Y-78071867D01*
X74425670Y-90100000D01*
X74511888Y-90161460D01*
X74515334Y-90184666D01*
X74486447Y-90267132D01*
X74477997Y-90269333D01*
X74405711Y-90210004D01*
X74388334Y-90184666D01*
X74395046Y-90106647D01*
X74425670Y-90100000D01*
X74425670Y-78071867D01*
X74289556Y-78135004D01*
X74289556Y-90466888D01*
X74339890Y-90478511D01*
X74346000Y-90523333D01*
X74315022Y-90593023D01*
X74289556Y-90579777D01*
X74279423Y-90479298D01*
X74289556Y-90466888D01*
X74289556Y-78135004D01*
X74266804Y-78145558D01*
X74092000Y-78264147D01*
X74092000Y-89338000D01*
X74161690Y-89368978D01*
X74148445Y-89394444D01*
X74047965Y-89404577D01*
X74035556Y-89394444D01*
X74047178Y-89344110D01*
X74092000Y-89338000D01*
X74092000Y-78264147D01*
X74018798Y-78313809D01*
X73983420Y-78342546D01*
X73983420Y-89733851D01*
X74059250Y-89734392D01*
X74151330Y-89823347D01*
X74174847Y-89943115D01*
X74117688Y-90013878D01*
X74101875Y-90015333D01*
X74022092Y-89945085D01*
X73984458Y-89852334D01*
X73983420Y-89733851D01*
X73983420Y-78342546D01*
X73838000Y-78460672D01*
X73807371Y-78482194D01*
X73807371Y-90023546D01*
X73937012Y-90105166D01*
X73963470Y-90127573D01*
X74128068Y-90296548D01*
X74169066Y-90399310D01*
X74080284Y-90419214D01*
X74071140Y-90417500D01*
X73912832Y-90320615D01*
X73786017Y-90149154D01*
X73756026Y-90042906D01*
X73807371Y-90023546D01*
X73807371Y-78482194D01*
X73652800Y-78590808D01*
X73523603Y-78666055D01*
X73523603Y-89690314D01*
X73570918Y-89710915D01*
X73661812Y-89796165D01*
X73643166Y-89845175D01*
X73631330Y-89846000D01*
X73559718Y-89785863D01*
X73533582Y-89748251D01*
X73523603Y-89690314D01*
X73523603Y-78666055D01*
X73374232Y-78753052D01*
X73311693Y-78785059D01*
X73311693Y-89905580D01*
X73396087Y-89999785D01*
X73414667Y-90025498D01*
X73555910Y-90197876D01*
X73751103Y-90409927D01*
X73808540Y-90468363D01*
X74003940Y-90680152D01*
X74080313Y-90803329D01*
X74033189Y-90829212D01*
X73986167Y-90813464D01*
X73879265Y-90725572D01*
X73716495Y-90545254D01*
X73626334Y-90431788D01*
X73626334Y-90777333D01*
X73668667Y-90819666D01*
X73626334Y-90862000D01*
X73584000Y-90819666D01*
X73626334Y-90777333D01*
X73626334Y-90431788D01*
X73593388Y-90390325D01*
X73427425Y-90177742D01*
X73322161Y-90081688D01*
X73237865Y-90082353D01*
X73134808Y-90159929D01*
X73133535Y-90161037D01*
X72960628Y-90311666D01*
X73124148Y-90080468D01*
X73239315Y-89929018D01*
X73311693Y-89905580D01*
X73311693Y-78785059D01*
X73076000Y-78905686D01*
X72991334Y-78946066D01*
X72991334Y-84102035D01*
X73111529Y-84115340D01*
X73097167Y-84144739D01*
X72923825Y-84155922D01*
X72896097Y-84147832D01*
X72896097Y-90375999D01*
X72855517Y-90438021D01*
X72844578Y-90449172D01*
X72733570Y-90516049D01*
X72692760Y-90506981D01*
X72718168Y-90444000D01*
X72797182Y-90401776D01*
X72896097Y-90375999D01*
X72896097Y-84147832D01*
X72885500Y-84144739D01*
X72874864Y-84113837D01*
X72991334Y-84102035D01*
X72991334Y-78946066D01*
X72596222Y-79134513D01*
X72596222Y-81576888D01*
X72646557Y-81588511D01*
X72652667Y-81633333D01*
X72621689Y-81703023D01*
X72596222Y-81689777D01*
X72586089Y-81589298D01*
X72596222Y-81576888D01*
X72596222Y-79134513D01*
X72379293Y-79237977D01*
X72328320Y-79262484D01*
X72328320Y-90438666D01*
X72339959Y-90495555D01*
X72261174Y-90633386D01*
X72254453Y-90642496D01*
X72141155Y-90761163D01*
X72074619Y-90770012D01*
X72073162Y-90766650D01*
X72099157Y-90639251D01*
X72205087Y-90502815D01*
X72327684Y-90438669D01*
X72328320Y-90438666D01*
X72328320Y-79262484D01*
X72187000Y-79330432D01*
X72187000Y-89422666D01*
X72229334Y-89465000D01*
X72187000Y-89507333D01*
X72144667Y-89465000D01*
X72187000Y-89422666D01*
X72187000Y-79330432D01*
X71811384Y-79511031D01*
X71347640Y-79737253D01*
X71340334Y-79740900D01*
X71340334Y-89084000D01*
X71382667Y-89126333D01*
X71340334Y-89168666D01*
X71298000Y-89126333D01*
X71340334Y-89084000D01*
X71340334Y-79740900D01*
X71213334Y-79804296D01*
X71213334Y-89295666D01*
X71291352Y-89302379D01*
X71298000Y-89333003D01*
X71236540Y-89419221D01*
X71213334Y-89422666D01*
X71130868Y-89393779D01*
X71128667Y-89385330D01*
X71187996Y-89313044D01*
X71213334Y-89295666D01*
X71213334Y-79804296D01*
X70963427Y-79929046D01*
X70740611Y-80043912D01*
X70740611Y-84095350D01*
X70850425Y-84110917D01*
X70851736Y-84139819D01*
X70738419Y-84160030D01*
X70689459Y-84146503D01*
X70657388Y-84108908D01*
X70740611Y-84095350D01*
X70740611Y-80043912D01*
X70685091Y-80072534D01*
X70685091Y-82601388D01*
X70698649Y-82684611D01*
X70683083Y-82794425D01*
X70654181Y-82795736D01*
X70633969Y-82682419D01*
X70647497Y-82633458D01*
X70685091Y-82601388D01*
X70685091Y-80072534D01*
X70634112Y-80098815D01*
X70335063Y-80258964D01*
X70239667Y-80311937D01*
X70239667Y-81548666D01*
X70282000Y-81591000D01*
X70239667Y-81633333D01*
X70197334Y-81591000D01*
X70239667Y-81548666D01*
X70239667Y-80311937D01*
X70041644Y-80421899D01*
X69985667Y-80453685D01*
X69985667Y-81548666D01*
X70028000Y-81591000D01*
X69985667Y-81633333D01*
X69985667Y-83665333D01*
X70028000Y-83707666D01*
X69985667Y-83750000D01*
X69943334Y-83707666D01*
X69985667Y-83665333D01*
X69985667Y-81633333D01*
X69943334Y-81591000D01*
X69985667Y-81548666D01*
X69985667Y-80453685D01*
X69858667Y-80525802D01*
X69731667Y-80597991D01*
X69731667Y-81633333D01*
X69774000Y-81675666D01*
X69731667Y-81718000D01*
X69689334Y-81675666D01*
X69731667Y-81633333D01*
X69731667Y-80597991D01*
X69501671Y-80728725D01*
X69400056Y-80785833D01*
X69400056Y-82988000D01*
X69492774Y-83037353D01*
X69477989Y-83138903D01*
X69366542Y-83222597D01*
X69308334Y-83197763D01*
X69308334Y-83834666D01*
X69350667Y-83877000D01*
X69308334Y-83919333D01*
X69266000Y-83877000D01*
X69308334Y-83834666D01*
X69308334Y-83197763D01*
X69280175Y-83185748D01*
X69266000Y-83122055D01*
X69334170Y-83005423D01*
X69400056Y-82988000D01*
X69400056Y-80785833D01*
X69330425Y-80824967D01*
X69330425Y-81754721D01*
X69343983Y-81837944D01*
X69328416Y-81947758D01*
X69308334Y-81948668D01*
X69308334Y-82226000D01*
X69350667Y-82268333D01*
X69308334Y-82310666D01*
X69266000Y-82268333D01*
X69308334Y-82226000D01*
X69308334Y-81948668D01*
X69299514Y-81949069D01*
X69279303Y-81835752D01*
X69292830Y-81786791D01*
X69330425Y-81754721D01*
X69330425Y-80824967D01*
X69219122Y-80887520D01*
X69219122Y-83587437D01*
X69229648Y-83676121D01*
X69221010Y-83707666D01*
X69204881Y-83758807D01*
X69204881Y-84364861D01*
X69258623Y-84380440D01*
X69345521Y-84464189D01*
X69308334Y-84484547D01*
X69308334Y-87560000D01*
X69350667Y-87602333D01*
X69308334Y-87644666D01*
X69266000Y-87602333D01*
X69308334Y-87560000D01*
X69308334Y-84484547D01*
X69268312Y-84506459D01*
X69200194Y-84510091D01*
X69200194Y-87729333D01*
X69301579Y-87749701D01*
X69280607Y-87841051D01*
X69246351Y-87898666D01*
X69147119Y-88030113D01*
X69094443Y-88068000D01*
X69056887Y-87996810D01*
X69048286Y-87898666D01*
X69108734Y-87755874D01*
X69200194Y-87729333D01*
X69200194Y-84510091D01*
X69164400Y-84512000D01*
X69041567Y-84491257D01*
X69070405Y-84419742D01*
X69072356Y-84417777D01*
X69204881Y-84364861D01*
X69204881Y-83758807D01*
X69158913Y-83904560D01*
X69136225Y-83975824D01*
X69069604Y-84064761D01*
X69002273Y-84028139D01*
X68964456Y-83896057D01*
X69025415Y-83759982D01*
X69139965Y-83618354D01*
X69219122Y-83587437D01*
X69219122Y-80887520D01*
X69190579Y-80903562D01*
X69139000Y-80932069D01*
X69139000Y-81887333D01*
X69181334Y-81929666D01*
X69139000Y-81972000D01*
X69096667Y-81929666D01*
X69139000Y-81887333D01*
X69139000Y-80932069D01*
X69075996Y-80966891D01*
X69075996Y-83291037D01*
X69077283Y-83342484D01*
X68973686Y-83462611D01*
X68955556Y-83470930D01*
X68955556Y-86910888D01*
X69005890Y-86922511D01*
X69012000Y-86967333D01*
X68981022Y-87037023D01*
X68955556Y-87023777D01*
X68945423Y-86923298D01*
X68955556Y-86910888D01*
X68955556Y-83470930D01*
X68943209Y-83476597D01*
X68885000Y-83471540D01*
X68885000Y-84512000D01*
X68927334Y-84554333D01*
X68885000Y-84596666D01*
X68842667Y-84554333D01*
X68842667Y-87814000D01*
X68916971Y-87882915D01*
X68927334Y-87945996D01*
X68886288Y-88033631D01*
X68842667Y-88025666D01*
X68761230Y-87917423D01*
X68758000Y-87893669D01*
X68822579Y-87816280D01*
X68842667Y-87814000D01*
X68842667Y-84554333D01*
X68885000Y-84512000D01*
X68885000Y-83471540D01*
X68852640Y-83468728D01*
X68857883Y-83391466D01*
X68947637Y-83306573D01*
X68976742Y-83293334D01*
X69075996Y-83291037D01*
X69075996Y-80966891D01*
X68969667Y-81025659D01*
X68969667Y-82310666D01*
X69012000Y-82353000D01*
X68969667Y-82395333D01*
X68927334Y-82353000D01*
X68969667Y-82310666D01*
X68969667Y-81025659D01*
X68959261Y-81031411D01*
X68842667Y-81092868D01*
X68809574Y-81110018D01*
X68809574Y-82829057D01*
X68926668Y-82850077D01*
X68955556Y-82875111D01*
X69009487Y-82999034D01*
X68921365Y-83069827D01*
X68885000Y-83072666D01*
X68772752Y-83004893D01*
X68758000Y-82945666D01*
X68809574Y-82829057D01*
X68809574Y-81110018D01*
X68721890Y-81155460D01*
X68616889Y-81212114D01*
X68616889Y-81830888D01*
X68667223Y-81842511D01*
X68673334Y-81887333D01*
X68642355Y-81957023D01*
X68616889Y-81943777D01*
X68606756Y-81843298D01*
X68616889Y-81830888D01*
X68616889Y-81212114D01*
X68487180Y-81282100D01*
X68444896Y-81305240D01*
X68444896Y-82186523D01*
X68475582Y-82205360D01*
X68558824Y-82274055D01*
X68595898Y-82263864D01*
X68670086Y-82239189D01*
X68642545Y-82300602D01*
X68588667Y-82353651D01*
X68588667Y-83284333D01*
X68666810Y-83288203D01*
X68673334Y-83316673D01*
X68611548Y-83436364D01*
X68588667Y-83453666D01*
X68546334Y-83451570D01*
X68546334Y-83665333D01*
X68588667Y-83707666D01*
X68546334Y-83750000D01*
X68532222Y-83735888D01*
X68532222Y-84032222D01*
X68582557Y-84043844D01*
X68588667Y-84088666D01*
X68557689Y-84158356D01*
X68532222Y-84145111D01*
X68522089Y-84044631D01*
X68532222Y-84032222D01*
X68532222Y-83735888D01*
X68504000Y-83707666D01*
X68546334Y-83665333D01*
X68546334Y-83451570D01*
X68510523Y-83449796D01*
X68504000Y-83421326D01*
X68565786Y-83301635D01*
X68588667Y-83284333D01*
X68588667Y-82353651D01*
X68546334Y-82395333D01*
X68452733Y-82448397D01*
X68447556Y-82432744D01*
X68447556Y-82592888D01*
X68497890Y-82604511D01*
X68504000Y-82649333D01*
X68473022Y-82719023D01*
X68447556Y-82705777D01*
X68437423Y-82605298D01*
X68447556Y-82592888D01*
X68447556Y-82432744D01*
X68425355Y-82365614D01*
X68426018Y-82299866D01*
X68444896Y-82186523D01*
X68444896Y-81305240D01*
X68321230Y-81372918D01*
X68321230Y-82597453D01*
X68312975Y-82721979D01*
X68303068Y-82763705D01*
X68282623Y-82926200D01*
X68311887Y-82988379D01*
X68358804Y-83063212D01*
X68389660Y-83246646D01*
X68392148Y-83284712D01*
X68382446Y-83480114D01*
X68340541Y-83574542D01*
X68340541Y-83925217D01*
X68416714Y-83975646D01*
X68419334Y-84004000D01*
X68347625Y-84069579D01*
X68334667Y-84071519D01*
X68334667Y-84258000D01*
X68404357Y-84288978D01*
X68391111Y-84314444D01*
X68382279Y-84315334D01*
X68382279Y-84525080D01*
X68486120Y-84546014D01*
X68485529Y-84609747D01*
X68461667Y-84636320D01*
X68461667Y-87221333D01*
X68504000Y-87263666D01*
X68461667Y-87306000D01*
X68419334Y-87263666D01*
X68461667Y-87221333D01*
X68461667Y-84636320D01*
X68392046Y-84713852D01*
X68348778Y-84723666D01*
X68286636Y-84693977D01*
X68286636Y-85706306D01*
X68326754Y-85755580D01*
X68334667Y-85871663D01*
X68303408Y-85989708D01*
X68253698Y-85995951D01*
X68207573Y-85885809D01*
X68220423Y-85821621D01*
X68286636Y-85706306D01*
X68286636Y-84693977D01*
X68253504Y-84678147D01*
X68271370Y-84588146D01*
X68382279Y-84525080D01*
X68382279Y-84315334D01*
X68290632Y-84324577D01*
X68278222Y-84314444D01*
X68289845Y-84264110D01*
X68334667Y-84258000D01*
X68334667Y-84071519D01*
X68228834Y-84087370D01*
X68123000Y-84075935D01*
X68123000Y-86290000D01*
X68165334Y-86332333D01*
X68123000Y-86374666D01*
X68080667Y-86332333D01*
X68123000Y-86290000D01*
X68123000Y-84075935D01*
X68105119Y-84074002D01*
X68135535Y-84024200D01*
X68165334Y-84004000D01*
X68340541Y-83925217D01*
X68340541Y-83574542D01*
X68338993Y-83578031D01*
X68328648Y-83580666D01*
X68254728Y-83514173D01*
X68250000Y-83479817D01*
X68209518Y-83459034D01*
X68125693Y-83543317D01*
X68040841Y-83641870D01*
X68006482Y-83611693D01*
X67998693Y-83435157D01*
X68014504Y-83250815D01*
X68079651Y-83201078D01*
X68128965Y-83213671D01*
X68212635Y-83221471D01*
X68230411Y-83129003D01*
X68206029Y-82966710D01*
X68192895Y-82710860D01*
X68254745Y-82604067D01*
X68321230Y-82597453D01*
X68321230Y-81372918D01*
X68193556Y-81442791D01*
X68193556Y-82169555D01*
X68243890Y-82181177D01*
X68250000Y-82226000D01*
X68219022Y-82295690D01*
X68193556Y-82282444D01*
X68183423Y-82181964D01*
X68193556Y-82169555D01*
X68193556Y-81442791D01*
X68172475Y-81454329D01*
X67890748Y-81610004D01*
X67890748Y-82104862D01*
X67985539Y-82214435D01*
X68050673Y-82402273D01*
X68063897Y-82564666D01*
X68053567Y-82861000D01*
X68038334Y-82738252D01*
X68038334Y-82903333D01*
X68080667Y-82945666D01*
X68038334Y-82988000D01*
X67996000Y-82945666D01*
X68038334Y-82903333D01*
X68038334Y-82738252D01*
X68019419Y-82585833D01*
X67959973Y-82383120D01*
X67863636Y-82310666D01*
X67854889Y-82306528D01*
X67854889Y-82846888D01*
X67905223Y-82858511D01*
X67911334Y-82903333D01*
X67880355Y-82973023D01*
X67873756Y-82969591D01*
X67873756Y-83259562D01*
X67887786Y-83361326D01*
X67889982Y-83453666D01*
X67883167Y-83627917D01*
X67863980Y-83672892D01*
X67853161Y-83645153D01*
X67837390Y-83441832D01*
X67851452Y-83306487D01*
X67873756Y-83259562D01*
X67873756Y-82969591D01*
X67854889Y-82959777D01*
X67844756Y-82859298D01*
X67854889Y-82846888D01*
X67854889Y-82306528D01*
X67770222Y-82266468D01*
X67770222Y-82592888D01*
X67820557Y-82604511D01*
X67826667Y-82649333D01*
X67795689Y-82719023D01*
X67770222Y-82705777D01*
X67760089Y-82605298D01*
X67770222Y-82592888D01*
X67770222Y-82266468D01*
X67751251Y-82257491D01*
X67773454Y-82140794D01*
X67793355Y-82118200D01*
X67890748Y-82104862D01*
X67890748Y-81610004D01*
X67814820Y-81651960D01*
X67699667Y-81717163D01*
X67699667Y-81972000D01*
X67742000Y-82014333D01*
X67721758Y-82034575D01*
X67721758Y-83024721D01*
X67735316Y-83107944D01*
X67719749Y-83217758D01*
X67708204Y-83218281D01*
X67708204Y-83879830D01*
X67732252Y-83941167D01*
X67742000Y-84088666D01*
X67756168Y-84268197D01*
X67784988Y-84294898D01*
X67826667Y-84215666D01*
X67882586Y-84103447D01*
X67902388Y-84144732D01*
X67905383Y-84199496D01*
X67946709Y-84302679D01*
X67996000Y-84300333D01*
X68071705Y-84290299D01*
X68064419Y-84372456D01*
X67979533Y-84494555D01*
X67975541Y-84498592D01*
X67915623Y-84602652D01*
X67986388Y-84675392D01*
X68063975Y-84776854D01*
X68005136Y-84862672D01*
X67841283Y-84894733D01*
X67826667Y-84893698D01*
X67826667Y-86078333D01*
X67904810Y-86082203D01*
X67911334Y-86110673D01*
X67849548Y-86230364D01*
X67826667Y-86247666D01*
X67748523Y-86243796D01*
X67742000Y-86215326D01*
X67803786Y-86095635D01*
X67826667Y-86078333D01*
X67826667Y-84893698D01*
X67807586Y-84892345D01*
X67556117Y-84870358D01*
X67530334Y-84868618D01*
X67530334Y-85866666D01*
X67572667Y-85909000D01*
X67530334Y-85951333D01*
X67488000Y-85909000D01*
X67530334Y-85866666D01*
X67530334Y-84868618D01*
X67424500Y-84861472D01*
X67361000Y-84841883D01*
X67361000Y-85612666D01*
X67403334Y-85655000D01*
X67361000Y-85697333D01*
X67318667Y-85655000D01*
X67361000Y-85612666D01*
X67361000Y-84841883D01*
X67265712Y-84812487D01*
X67257854Y-84699721D01*
X67400116Y-84534545D01*
X67450814Y-84492825D01*
X67589844Y-84349480D01*
X67633589Y-84232539D01*
X67631864Y-84226639D01*
X67631283Y-84075633D01*
X67663099Y-83961666D01*
X67708204Y-83879830D01*
X67708204Y-83218281D01*
X67690847Y-83219069D01*
X67670636Y-83105752D01*
X67684163Y-83056791D01*
X67721758Y-83024721D01*
X67721758Y-82034575D01*
X67699667Y-82056666D01*
X67657334Y-82014333D01*
X67699667Y-81972000D01*
X67699667Y-81717163D01*
X67445667Y-81860987D01*
X67445667Y-82988000D01*
X67488000Y-83030333D01*
X67445667Y-83072666D01*
X67403334Y-83030333D01*
X67445667Y-82988000D01*
X67445667Y-81860987D01*
X67430242Y-81869722D01*
X67361000Y-81912597D01*
X67361000Y-82310666D01*
X67403334Y-82353000D01*
X67361000Y-82395333D01*
X67318667Y-82353000D01*
X67361000Y-82310666D01*
X67361000Y-81912597D01*
X67276334Y-81965024D01*
X67276334Y-82564666D01*
X67318667Y-82607000D01*
X67276334Y-82649333D01*
X67234000Y-82607000D01*
X67276334Y-82564666D01*
X67276334Y-81965024D01*
X67204956Y-82009223D01*
X67204956Y-83057653D01*
X67287658Y-83115223D01*
X67317965Y-83142520D01*
X67444242Y-83371142D01*
X67468930Y-83623000D01*
X67463971Y-83961666D01*
X67403334Y-83623000D01*
X67363816Y-83448278D01*
X67337774Y-83432356D01*
X67330681Y-83488944D01*
X67309856Y-83639937D01*
X67276575Y-83625839D01*
X67233282Y-83450237D01*
X67210005Y-83311854D01*
X67184647Y-83114451D01*
X67204956Y-83057653D01*
X67204956Y-82009223D01*
X67173832Y-82028496D01*
X67064667Y-82113639D01*
X67064667Y-83369000D01*
X67131307Y-83394923D01*
X67149334Y-83491003D01*
X67114790Y-83631274D01*
X67064667Y-83665333D01*
X66988728Y-83597118D01*
X66980000Y-83543330D01*
X67031600Y-83399181D01*
X67064667Y-83369000D01*
X67064667Y-82113639D01*
X67022904Y-82146213D01*
X66954769Y-82240804D01*
X66946743Y-82330202D01*
X66947925Y-82337161D01*
X66956251Y-82440046D01*
X66931550Y-82416500D01*
X66823128Y-82315333D01*
X66698761Y-82354276D01*
X66607876Y-82517231D01*
X66606566Y-82522333D01*
X66584889Y-82570384D01*
X66584889Y-83185555D01*
X66635223Y-83197177D01*
X66641334Y-83242000D01*
X66610355Y-83311690D01*
X66599000Y-83305784D01*
X66599000Y-83580666D01*
X66641334Y-83623000D01*
X66599000Y-83665333D01*
X66556667Y-83623000D01*
X66599000Y-83580666D01*
X66599000Y-83305784D01*
X66584889Y-83298444D01*
X66574756Y-83197964D01*
X66584889Y-83185555D01*
X66584889Y-82570384D01*
X66534986Y-82681004D01*
X66514334Y-82695603D01*
X66514334Y-83919333D01*
X66556667Y-83961666D01*
X66514334Y-84004000D01*
X66472000Y-83961666D01*
X66514334Y-83919333D01*
X66514334Y-82695603D01*
X66460020Y-82734000D01*
X66429667Y-82701203D01*
X66429667Y-83665333D01*
X66472000Y-83707666D01*
X66429667Y-83750000D01*
X66387334Y-83707666D01*
X66429667Y-83665333D01*
X66429667Y-82701203D01*
X66418799Y-82689459D01*
X66472000Y-82607000D01*
X66533682Y-82506660D01*
X66466270Y-82482599D01*
X66461200Y-82482692D01*
X66294973Y-82536743D01*
X66133545Y-82655142D01*
X66049997Y-82782286D01*
X66048667Y-82796562D01*
X65982753Y-82888178D01*
X65828272Y-82976169D01*
X65650115Y-83035813D01*
X65513170Y-83042388D01*
X65478684Y-83013717D01*
X65384603Y-82956602D01*
X65283560Y-82964280D01*
X65172295Y-83031814D01*
X65169874Y-83089182D01*
X65146138Y-83144593D01*
X65063088Y-83145169D01*
X64873590Y-83156135D01*
X64799184Y-83186011D01*
X64657473Y-83187144D01*
X64560303Y-83120398D01*
X64415567Y-83013468D01*
X64336164Y-82988000D01*
X64299371Y-83029379D01*
X64383783Y-83140061D01*
G37*
X64383783Y-83140061D02*
X64566847Y-83299858D01*
X64826011Y-83488587D01*
X65070657Y-83645427D01*
X65640830Y-84000867D01*
X66072486Y-84293811D01*
X66379541Y-84535506D01*
X66575912Y-84737199D01*
X66675515Y-84910136D01*
X66687303Y-84951890D01*
X66799040Y-85235997D01*
X67012277Y-85585672D01*
X67298262Y-85954505D01*
X67495054Y-86193064D01*
X67699314Y-86456443D01*
X67883333Y-86706803D01*
X68019403Y-86906306D01*
X68079815Y-87017114D01*
X68080667Y-87022917D01*
X68124674Y-87127773D01*
X68238799Y-87324493D01*
X68364118Y-87518796D01*
X68541867Y-87811981D01*
X68691412Y-88107629D01*
X68751941Y-88259279D01*
X68834424Y-88447681D01*
X68913825Y-88532061D01*
X68934157Y-88529449D01*
X68990220Y-88564721D01*
X69012000Y-88708370D01*
X69025477Y-88860537D01*
X69084605Y-88869941D01*
X69142126Y-88827405D01*
X69245474Y-88674754D01*
X69259377Y-88584205D01*
X69252808Y-88281545D01*
X69310205Y-88116737D01*
X69435334Y-88068000D01*
X69575360Y-88123608D01*
X69604667Y-88201047D01*
X69660998Y-88374019D01*
X69712909Y-88442337D01*
X69825816Y-88507460D01*
X69924576Y-88439863D01*
X70014460Y-88298917D01*
X70028000Y-88240906D01*
X70100434Y-88174582D01*
X70239667Y-88152666D01*
X70412661Y-88198970D01*
X70451334Y-88288725D01*
X70398772Y-88385084D01*
X70328645Y-88377703D01*
X70242736Y-88381460D01*
X70253037Y-88453311D01*
X70235059Y-88557424D01*
X70157003Y-88576000D01*
X70052809Y-88624909D01*
X70049167Y-88681833D01*
X70153105Y-88778900D01*
X70203230Y-88787666D01*
X70312712Y-88848341D01*
X70350347Y-88974330D01*
X70299880Y-89081583D01*
X70263243Y-89098027D01*
X70210540Y-89150335D01*
X70291987Y-89265610D01*
X70314115Y-89287871D01*
X70430407Y-89395941D01*
X70456281Y-89379022D01*
X70430298Y-89266704D01*
X70419195Y-89124606D01*
X70452335Y-89084000D01*
X70585246Y-89060125D01*
X70677242Y-89033679D01*
X70777708Y-89008851D01*
X70728653Y-89057726D01*
X70705334Y-89074716D01*
X70635114Y-89150217D01*
X70684167Y-89167370D01*
X70779407Y-89236330D01*
X70790000Y-89288611D01*
X70726405Y-89421849D01*
X70684167Y-89447361D01*
X70624951Y-89505202D01*
X70694750Y-89602583D01*
X70797779Y-89672767D01*
X70849972Y-89613166D01*
X70951962Y-89516373D01*
X71086377Y-89538623D01*
X71156763Y-89627761D01*
X71266601Y-89710611D01*
X71367932Y-89705051D01*
X71518563Y-89705900D01*
X71594265Y-89769941D01*
X71557595Y-89851645D01*
X71509181Y-89876804D01*
X71409528Y-89989162D01*
X71385808Y-90160943D01*
X71448359Y-90298664D01*
X71461483Y-90308050D01*
X71570223Y-90297433D01*
X71593480Y-90270714D01*
X71703556Y-90186752D01*
X71790552Y-90248618D01*
X71806000Y-90335183D01*
X71745489Y-90502087D01*
X71636667Y-90630688D01*
X71508627Y-90775146D01*
X71467334Y-90875929D01*
X71518999Y-90892891D01*
X71646496Y-90806701D01*
X71678666Y-90777646D01*
X71834349Y-90659833D01*
X71939252Y-90631014D01*
X71947111Y-90636222D01*
X71934239Y-90728599D01*
X71933000Y-90730365D01*
X71933000Y-91031333D01*
X71975334Y-91073666D01*
X71933000Y-91116000D01*
X71890667Y-91073666D01*
X71933000Y-91031333D01*
X71933000Y-90730365D01*
X71827886Y-90880274D01*
X71805687Y-90904667D01*
X71701269Y-91042907D01*
X71697923Y-91113546D01*
X71711572Y-91116000D01*
X71775976Y-91165337D01*
X71763774Y-91200492D01*
X71769813Y-91320056D01*
X71844539Y-91502771D01*
X71951692Y-91680736D01*
X72055012Y-91786052D01*
X72080372Y-91793333D01*
X72142507Y-91720107D01*
X72198944Y-91542848D01*
X72201066Y-91532504D01*
X72250923Y-91367630D01*
X72308793Y-91359397D01*
X72328521Y-91384337D01*
X72370380Y-91410890D01*
X72354343Y-91283665D01*
X72351568Y-91271503D01*
X72357205Y-91039334D01*
X72473173Y-90872160D01*
X72647020Y-90698313D01*
X72768004Y-90871041D01*
X72882789Y-90979605D01*
X72947449Y-90949176D01*
X72951766Y-90810891D01*
X72914255Y-90744142D01*
X72877675Y-90623225D01*
X72970466Y-90506729D01*
X73112244Y-90397286D01*
X73244184Y-90312605D01*
X73322346Y-90277989D01*
X73309568Y-90311469D01*
X73299239Y-90426464D01*
X73332195Y-90483645D01*
X73376996Y-90641762D01*
X73372334Y-90667000D01*
X73372334Y-91031333D01*
X73414667Y-91073666D01*
X73372334Y-91116000D01*
X73330000Y-91073666D01*
X73372334Y-91031333D01*
X73372334Y-90667000D01*
X73358989Y-90739244D01*
X73307717Y-90843521D01*
X73262720Y-90793225D01*
X73236479Y-90728809D01*
X73189750Y-90636837D01*
X73165711Y-90692884D01*
X73156034Y-90798500D01*
X73136428Y-90992726D01*
X73117527Y-91094833D01*
X73076145Y-91218832D01*
X73033569Y-91348833D01*
X72957985Y-91496327D01*
X72896792Y-91539333D01*
X72825767Y-91487117D01*
X72867860Y-91366105D01*
X72914044Y-91311822D01*
X72956242Y-91208318D01*
X72901200Y-91154954D01*
X72781126Y-91162056D01*
X72662247Y-91275682D01*
X72590722Y-91439100D01*
X72589789Y-91537695D01*
X72680900Y-91638232D01*
X72750275Y-91644048D01*
X72912650Y-91684026D01*
X72987576Y-91746472D01*
X73041008Y-91836536D01*
X72957524Y-91844776D01*
X72914204Y-91837118D01*
X72768216Y-91852736D01*
X72737334Y-91918139D01*
X72670986Y-92050929D01*
X72631500Y-92074795D01*
X72687097Y-92084883D01*
X72893343Y-92094530D01*
X73231553Y-92103396D01*
X73683045Y-92111144D01*
X74229133Y-92117435D01*
X74851134Y-92121930D01*
X75340834Y-92123879D01*
X78156000Y-92131389D01*
X78157949Y-90967528D01*
X78158883Y-90617240D01*
X78160696Y-90124457D01*
X78163265Y-89516013D01*
X78166466Y-88818742D01*
X78170176Y-88059479D01*
X78174270Y-87265059D01*
X78178626Y-86462316D01*
X78179116Y-86374666D01*
X78183101Y-85453219D01*
X78185468Y-84433747D01*
X78186240Y-83363944D01*
X78185439Y-82291504D01*
X78183086Y-81264123D01*
X78179203Y-80329495D01*
X78176118Y-79828794D01*
X78153903Y-76711921D01*
X78029000Y-76749581D01*
X78029000Y-90354000D01*
X78071334Y-90396333D01*
X78029000Y-90438666D01*
X77986667Y-90396333D01*
X78029000Y-90354000D01*
X78029000Y-76749581D01*
X77964451Y-76769044D01*
X77746187Y-76844207D01*
X77521000Y-76932322D01*
X77351667Y-77002780D01*
X77351667Y-90862000D01*
X77394000Y-90904333D01*
X77351667Y-90946666D01*
X77309334Y-90904333D01*
X77351667Y-90862000D01*
X77351667Y-77002780D01*
X77110299Y-77103211D01*
X77110299Y-90946666D01*
X77189228Y-90992991D01*
X77309431Y-91087684D01*
X77387692Y-91164324D01*
X77390780Y-91170543D01*
X77321259Y-91175514D01*
X77193134Y-91170543D01*
X77048063Y-91124935D01*
X77032859Y-91052500D01*
X77093001Y-90954841D01*
X77110299Y-90946666D01*
X77110299Y-77103211D01*
X76776655Y-77242038D01*
X76776655Y-90981110D01*
X76807184Y-90992615D01*
X76882258Y-91074349D01*
X76796751Y-91114343D01*
X76754003Y-91116000D01*
X76666801Y-91074343D01*
X76675187Y-91029952D01*
X76776655Y-90981110D01*
X76776655Y-77242038D01*
X76717923Y-77266477D01*
X76632000Y-77301777D01*
X76632000Y-91285333D01*
X76701690Y-91316311D01*
X76688445Y-91341777D01*
X76587965Y-91351910D01*
X76575556Y-91341777D01*
X76587178Y-91291443D01*
X76632000Y-91285333D01*
X76632000Y-77301777D01*
X76059499Y-77536983D01*
X75573667Y-77732399D01*
X75573667Y-91708666D01*
X75616000Y-91751000D01*
X75573667Y-91793333D01*
X75531334Y-91751000D01*
X75573667Y-91708666D01*
X75573667Y-77732399D01*
X75535167Y-77747885D01*
X75446667Y-77782185D01*
X75446667Y-89676666D01*
X75516357Y-89707644D01*
X75503111Y-89733111D01*
X75402632Y-89743244D01*
X75390222Y-89733111D01*
X75401845Y-89682776D01*
X75446667Y-89676666D01*
X75446667Y-77782185D01*
X75201286Y-77877288D01*
X75201286Y-91908050D01*
X75328715Y-91937005D01*
X75440494Y-91988964D01*
X75395198Y-92018129D01*
X75334207Y-92031149D01*
X75179629Y-92034108D01*
X75129596Y-92012484D01*
X75107173Y-91934617D01*
X75201286Y-91908050D01*
X75201286Y-77877288D01*
X75134363Y-77903226D01*
X74889278Y-77991629D01*
X74889278Y-91969350D01*
X74999092Y-91984917D01*
X75000403Y-92013819D01*
X74887086Y-92034030D01*
X74838125Y-92020503D01*
X74806055Y-91982908D01*
X74889278Y-91969350D01*
X74889278Y-77991629D01*
X74846527Y-78007050D01*
X74661097Y-78063402D01*
X74567512Y-78076326D01*
X74552491Y-78068957D01*
X74458889Y-78058484D01*
X74458889Y-89535555D01*
X74509223Y-89547177D01*
X74515334Y-89592000D01*
X74484355Y-89661690D01*
X74458889Y-89648444D01*
X74448756Y-89547964D01*
X74458889Y-89535555D01*
X74458889Y-78058484D01*
X74455373Y-78058090D01*
X74425670Y-78071867D01*
X74425670Y-90100000D01*
X74511888Y-90161460D01*
X74515334Y-90184666D01*
X74486447Y-90267132D01*
X74477997Y-90269333D01*
X74405711Y-90210004D01*
X74388334Y-90184666D01*
X74395046Y-90106647D01*
X74425670Y-90100000D01*
X74425670Y-78071867D01*
X74289556Y-78135004D01*
X74289556Y-90466888D01*
X74339890Y-90478511D01*
X74346000Y-90523333D01*
X74315022Y-90593023D01*
X74289556Y-90579777D01*
X74279423Y-90479298D01*
X74289556Y-90466888D01*
X74289556Y-78135004D01*
X74266804Y-78145558D01*
X74092000Y-78264147D01*
X74092000Y-89338000D01*
X74161690Y-89368978D01*
X74148445Y-89394444D01*
X74047965Y-89404577D01*
X74035556Y-89394444D01*
X74047178Y-89344110D01*
X74092000Y-89338000D01*
X74092000Y-78264147D01*
X74018798Y-78313809D01*
X73983420Y-78342546D01*
X73983420Y-89733851D01*
X74059250Y-89734392D01*
X74151330Y-89823347D01*
X74174847Y-89943115D01*
X74117688Y-90013878D01*
X74101875Y-90015333D01*
X74022092Y-89945085D01*
X73984458Y-89852334D01*
X73983420Y-89733851D01*
X73983420Y-78342546D01*
X73838000Y-78460672D01*
X73807371Y-78482194D01*
X73807371Y-90023546D01*
X73937012Y-90105166D01*
X73963470Y-90127573D01*
X74128068Y-90296548D01*
X74169066Y-90399310D01*
X74080284Y-90419214D01*
X74071140Y-90417500D01*
X73912832Y-90320615D01*
X73786017Y-90149154D01*
X73756026Y-90042906D01*
X73807371Y-90023546D01*
X73807371Y-78482194D01*
X73652800Y-78590808D01*
X73523603Y-78666055D01*
X73523603Y-89690314D01*
X73570918Y-89710915D01*
X73661812Y-89796165D01*
X73643166Y-89845175D01*
X73631330Y-89846000D01*
X73559718Y-89785863D01*
X73533582Y-89748251D01*
X73523603Y-89690314D01*
X73523603Y-78666055D01*
X73374232Y-78753052D01*
X73311693Y-78785059D01*
X73311693Y-89905580D01*
X73396087Y-89999785D01*
X73414667Y-90025498D01*
X73555910Y-90197876D01*
X73751103Y-90409927D01*
X73808540Y-90468363D01*
X74003940Y-90680152D01*
X74080313Y-90803329D01*
X74033189Y-90829212D01*
X73986167Y-90813464D01*
X73879265Y-90725572D01*
X73716495Y-90545254D01*
X73626334Y-90431788D01*
X73626334Y-90777333D01*
X73668667Y-90819666D01*
X73626334Y-90862000D01*
X73584000Y-90819666D01*
X73626334Y-90777333D01*
X73626334Y-90431788D01*
X73593388Y-90390325D01*
X73427425Y-90177742D01*
X73322161Y-90081688D01*
X73237865Y-90082353D01*
X73134808Y-90159929D01*
X73133535Y-90161037D01*
X72960628Y-90311666D01*
X73124148Y-90080468D01*
X73239315Y-89929018D01*
X73311693Y-89905580D01*
X73311693Y-78785059D01*
X73076000Y-78905686D01*
X72991334Y-78946066D01*
X72991334Y-84102035D01*
X73111529Y-84115340D01*
X73097167Y-84144739D01*
X72923825Y-84155922D01*
X72896097Y-84147832D01*
X72896097Y-90375999D01*
X72855517Y-90438021D01*
X72844578Y-90449172D01*
X72733570Y-90516049D01*
X72692760Y-90506981D01*
X72718168Y-90444000D01*
X72797182Y-90401776D01*
X72896097Y-90375999D01*
X72896097Y-84147832D01*
X72885500Y-84144739D01*
X72874864Y-84113837D01*
X72991334Y-84102035D01*
X72991334Y-78946066D01*
X72596222Y-79134513D01*
X72596222Y-81576888D01*
X72646557Y-81588511D01*
X72652667Y-81633333D01*
X72621689Y-81703023D01*
X72596222Y-81689777D01*
X72586089Y-81589298D01*
X72596222Y-81576888D01*
X72596222Y-79134513D01*
X72379293Y-79237977D01*
X72328320Y-79262484D01*
X72328320Y-90438666D01*
X72339959Y-90495555D01*
X72261174Y-90633386D01*
X72254453Y-90642496D01*
X72141155Y-90761163D01*
X72074619Y-90770012D01*
X72073162Y-90766650D01*
X72099157Y-90639251D01*
X72205087Y-90502815D01*
X72327684Y-90438669D01*
X72328320Y-90438666D01*
X72328320Y-79262484D01*
X72187000Y-79330432D01*
X72187000Y-89422666D01*
X72229334Y-89465000D01*
X72187000Y-89507333D01*
X72144667Y-89465000D01*
X72187000Y-89422666D01*
X72187000Y-79330432D01*
X71811384Y-79511031D01*
X71347640Y-79737253D01*
X71340334Y-79740900D01*
X71340334Y-89084000D01*
X71382667Y-89126333D01*
X71340334Y-89168666D01*
X71298000Y-89126333D01*
X71340334Y-89084000D01*
X71340334Y-79740900D01*
X71213334Y-79804296D01*
X71213334Y-89295666D01*
X71291352Y-89302379D01*
X71298000Y-89333003D01*
X71236540Y-89419221D01*
X71213334Y-89422666D01*
X71130868Y-89393779D01*
X71128667Y-89385330D01*
X71187996Y-89313044D01*
X71213334Y-89295666D01*
X71213334Y-79804296D01*
X70963427Y-79929046D01*
X70740611Y-80043912D01*
X70740611Y-84095350D01*
X70850425Y-84110917D01*
X70851736Y-84139819D01*
X70738419Y-84160030D01*
X70689459Y-84146503D01*
X70657388Y-84108908D01*
X70740611Y-84095350D01*
X70740611Y-80043912D01*
X70685091Y-80072534D01*
X70685091Y-82601388D01*
X70698649Y-82684611D01*
X70683083Y-82794425D01*
X70654181Y-82795736D01*
X70633969Y-82682419D01*
X70647497Y-82633458D01*
X70685091Y-82601388D01*
X70685091Y-80072534D01*
X70634112Y-80098815D01*
X70335063Y-80258964D01*
X70239667Y-80311937D01*
X70239667Y-81548666D01*
X70282000Y-81591000D01*
X70239667Y-81633333D01*
X70197334Y-81591000D01*
X70239667Y-81548666D01*
X70239667Y-80311937D01*
X70041644Y-80421899D01*
X69985667Y-80453685D01*
X69985667Y-81548666D01*
X70028000Y-81591000D01*
X69985667Y-81633333D01*
X69985667Y-83665333D01*
X70028000Y-83707666D01*
X69985667Y-83750000D01*
X69943334Y-83707666D01*
X69985667Y-83665333D01*
X69985667Y-81633333D01*
X69943334Y-81591000D01*
X69985667Y-81548666D01*
X69985667Y-80453685D01*
X69858667Y-80525802D01*
X69731667Y-80597991D01*
X69731667Y-81633333D01*
X69774000Y-81675666D01*
X69731667Y-81718000D01*
X69689334Y-81675666D01*
X69731667Y-81633333D01*
X69731667Y-80597991D01*
X69501671Y-80728725D01*
X69400056Y-80785833D01*
X69400056Y-82988000D01*
X69492774Y-83037353D01*
X69477989Y-83138903D01*
X69366542Y-83222597D01*
X69308334Y-83197763D01*
X69308334Y-83834666D01*
X69350667Y-83877000D01*
X69308334Y-83919333D01*
X69266000Y-83877000D01*
X69308334Y-83834666D01*
X69308334Y-83197763D01*
X69280175Y-83185748D01*
X69266000Y-83122055D01*
X69334170Y-83005423D01*
X69400056Y-82988000D01*
X69400056Y-80785833D01*
X69330425Y-80824967D01*
X69330425Y-81754721D01*
X69343983Y-81837944D01*
X69328416Y-81947758D01*
X69308334Y-81948668D01*
X69308334Y-82226000D01*
X69350667Y-82268333D01*
X69308334Y-82310666D01*
X69266000Y-82268333D01*
X69308334Y-82226000D01*
X69308334Y-81948668D01*
X69299514Y-81949069D01*
X69279303Y-81835752D01*
X69292830Y-81786791D01*
X69330425Y-81754721D01*
X69330425Y-80824967D01*
X69219122Y-80887520D01*
X69219122Y-83587437D01*
X69229648Y-83676121D01*
X69221010Y-83707666D01*
X69204881Y-83758807D01*
X69204881Y-84364861D01*
X69258623Y-84380440D01*
X69345521Y-84464189D01*
X69308334Y-84484547D01*
X69308334Y-87560000D01*
X69350667Y-87602333D01*
X69308334Y-87644666D01*
X69266000Y-87602333D01*
X69308334Y-87560000D01*
X69308334Y-84484547D01*
X69268312Y-84506459D01*
X69200194Y-84510091D01*
X69200194Y-87729333D01*
X69301579Y-87749701D01*
X69280607Y-87841051D01*
X69246351Y-87898666D01*
X69147119Y-88030113D01*
X69094443Y-88068000D01*
X69056887Y-87996810D01*
X69048286Y-87898666D01*
X69108734Y-87755874D01*
X69200194Y-87729333D01*
X69200194Y-84510091D01*
X69164400Y-84512000D01*
X69041567Y-84491257D01*
X69070405Y-84419742D01*
X69072356Y-84417777D01*
X69204881Y-84364861D01*
X69204881Y-83758807D01*
X69158913Y-83904560D01*
X69136225Y-83975824D01*
X69069604Y-84064761D01*
X69002273Y-84028139D01*
X68964456Y-83896057D01*
X69025415Y-83759982D01*
X69139965Y-83618354D01*
X69219122Y-83587437D01*
X69219122Y-80887520D01*
X69190579Y-80903562D01*
X69139000Y-80932069D01*
X69139000Y-81887333D01*
X69181334Y-81929666D01*
X69139000Y-81972000D01*
X69096667Y-81929666D01*
X69139000Y-81887333D01*
X69139000Y-80932069D01*
X69075996Y-80966891D01*
X69075996Y-83291037D01*
X69077283Y-83342484D01*
X68973686Y-83462611D01*
X68955556Y-83470930D01*
X68955556Y-86910888D01*
X69005890Y-86922511D01*
X69012000Y-86967333D01*
X68981022Y-87037023D01*
X68955556Y-87023777D01*
X68945423Y-86923298D01*
X68955556Y-86910888D01*
X68955556Y-83470930D01*
X68943209Y-83476597D01*
X68885000Y-83471540D01*
X68885000Y-84512000D01*
X68927334Y-84554333D01*
X68885000Y-84596666D01*
X68842667Y-84554333D01*
X68842667Y-87814000D01*
X68916971Y-87882915D01*
X68927334Y-87945996D01*
X68886288Y-88033631D01*
X68842667Y-88025666D01*
X68761230Y-87917423D01*
X68758000Y-87893669D01*
X68822579Y-87816280D01*
X68842667Y-87814000D01*
X68842667Y-84554333D01*
X68885000Y-84512000D01*
X68885000Y-83471540D01*
X68852640Y-83468728D01*
X68857883Y-83391466D01*
X68947637Y-83306573D01*
X68976742Y-83293334D01*
X69075996Y-83291037D01*
X69075996Y-80966891D01*
X68969667Y-81025659D01*
X68969667Y-82310666D01*
X69012000Y-82353000D01*
X68969667Y-82395333D01*
X68927334Y-82353000D01*
X68969667Y-82310666D01*
X68969667Y-81025659D01*
X68959261Y-81031411D01*
X68842667Y-81092868D01*
X68809574Y-81110018D01*
X68809574Y-82829057D01*
X68926668Y-82850077D01*
X68955556Y-82875111D01*
X69009487Y-82999034D01*
X68921365Y-83069827D01*
X68885000Y-83072666D01*
X68772752Y-83004893D01*
X68758000Y-82945666D01*
X68809574Y-82829057D01*
X68809574Y-81110018D01*
X68721890Y-81155460D01*
X68616889Y-81212114D01*
X68616889Y-81830888D01*
X68667223Y-81842511D01*
X68673334Y-81887333D01*
X68642355Y-81957023D01*
X68616889Y-81943777D01*
X68606756Y-81843298D01*
X68616889Y-81830888D01*
X68616889Y-81212114D01*
X68487180Y-81282100D01*
X68444896Y-81305240D01*
X68444896Y-82186523D01*
X68475582Y-82205360D01*
X68558824Y-82274055D01*
X68595898Y-82263864D01*
X68670086Y-82239189D01*
X68642545Y-82300602D01*
X68588667Y-82353651D01*
X68588667Y-83284333D01*
X68666810Y-83288203D01*
X68673334Y-83316673D01*
X68611548Y-83436364D01*
X68588667Y-83453666D01*
X68546334Y-83451570D01*
X68546334Y-83665333D01*
X68588667Y-83707666D01*
X68546334Y-83750000D01*
X68532222Y-83735888D01*
X68532222Y-84032222D01*
X68582557Y-84043844D01*
X68588667Y-84088666D01*
X68557689Y-84158356D01*
X68532222Y-84145111D01*
X68522089Y-84044631D01*
X68532222Y-84032222D01*
X68532222Y-83735888D01*
X68504000Y-83707666D01*
X68546334Y-83665333D01*
X68546334Y-83451570D01*
X68510523Y-83449796D01*
X68504000Y-83421326D01*
X68565786Y-83301635D01*
X68588667Y-83284333D01*
X68588667Y-82353651D01*
X68546334Y-82395333D01*
X68452733Y-82448397D01*
X68447556Y-82432744D01*
X68447556Y-82592888D01*
X68497890Y-82604511D01*
X68504000Y-82649333D01*
X68473022Y-82719023D01*
X68447556Y-82705777D01*
X68437423Y-82605298D01*
X68447556Y-82592888D01*
X68447556Y-82432744D01*
X68425355Y-82365614D01*
X68426018Y-82299866D01*
X68444896Y-82186523D01*
X68444896Y-81305240D01*
X68321230Y-81372918D01*
X68321230Y-82597453D01*
X68312975Y-82721979D01*
X68303068Y-82763705D01*
X68282623Y-82926200D01*
X68311887Y-82988379D01*
X68358804Y-83063212D01*
X68389660Y-83246646D01*
X68392148Y-83284712D01*
X68382446Y-83480114D01*
X68340541Y-83574542D01*
X68340541Y-83925217D01*
X68416714Y-83975646D01*
X68419334Y-84004000D01*
X68347625Y-84069579D01*
X68334667Y-84071519D01*
X68334667Y-84258000D01*
X68404357Y-84288978D01*
X68391111Y-84314444D01*
X68382279Y-84315334D01*
X68382279Y-84525080D01*
X68486120Y-84546014D01*
X68485529Y-84609747D01*
X68461667Y-84636320D01*
X68461667Y-87221333D01*
X68504000Y-87263666D01*
X68461667Y-87306000D01*
X68419334Y-87263666D01*
X68461667Y-87221333D01*
X68461667Y-84636320D01*
X68392046Y-84713852D01*
X68348778Y-84723666D01*
X68286636Y-84693977D01*
X68286636Y-85706306D01*
X68326754Y-85755580D01*
X68334667Y-85871663D01*
X68303408Y-85989708D01*
X68253698Y-85995951D01*
X68207573Y-85885809D01*
X68220423Y-85821621D01*
X68286636Y-85706306D01*
X68286636Y-84693977D01*
X68253504Y-84678147D01*
X68271370Y-84588146D01*
X68382279Y-84525080D01*
X68382279Y-84315334D01*
X68290632Y-84324577D01*
X68278222Y-84314444D01*
X68289845Y-84264110D01*
X68334667Y-84258000D01*
X68334667Y-84071519D01*
X68228834Y-84087370D01*
X68123000Y-84075935D01*
X68123000Y-86290000D01*
X68165334Y-86332333D01*
X68123000Y-86374666D01*
X68080667Y-86332333D01*
X68123000Y-86290000D01*
X68123000Y-84075935D01*
X68105119Y-84074002D01*
X68135535Y-84024200D01*
X68165334Y-84004000D01*
X68340541Y-83925217D01*
X68340541Y-83574542D01*
X68338993Y-83578031D01*
X68328648Y-83580666D01*
X68254728Y-83514173D01*
X68250000Y-83479817D01*
X68209518Y-83459034D01*
X68125693Y-83543317D01*
X68040841Y-83641870D01*
X68006482Y-83611693D01*
X67998693Y-83435157D01*
X68014504Y-83250815D01*
X68079651Y-83201078D01*
X68128965Y-83213671D01*
X68212635Y-83221471D01*
X68230411Y-83129003D01*
X68206029Y-82966710D01*
X68192895Y-82710860D01*
X68254745Y-82604067D01*
X68321230Y-82597453D01*
X68321230Y-81372918D01*
X68193556Y-81442791D01*
X68193556Y-82169555D01*
X68243890Y-82181177D01*
X68250000Y-82226000D01*
X68219022Y-82295690D01*
X68193556Y-82282444D01*
X68183423Y-82181964D01*
X68193556Y-82169555D01*
X68193556Y-81442791D01*
X68172475Y-81454329D01*
X67890748Y-81610004D01*
X67890748Y-82104862D01*
X67985539Y-82214435D01*
X68050673Y-82402273D01*
X68063897Y-82564666D01*
X68053567Y-82861000D01*
X68038334Y-82738252D01*
X68038334Y-82903333D01*
X68080667Y-82945666D01*
X68038334Y-82988000D01*
X67996000Y-82945666D01*
X68038334Y-82903333D01*
X68038334Y-82738252D01*
X68019419Y-82585833D01*
X67959973Y-82383120D01*
X67863636Y-82310666D01*
X67854889Y-82306528D01*
X67854889Y-82846888D01*
X67905223Y-82858511D01*
X67911334Y-82903333D01*
X67880355Y-82973023D01*
X67873756Y-82969591D01*
X67873756Y-83259562D01*
X67887786Y-83361326D01*
X67889982Y-83453666D01*
X67883167Y-83627917D01*
X67863980Y-83672892D01*
X67853161Y-83645153D01*
X67837390Y-83441832D01*
X67851452Y-83306487D01*
X67873756Y-83259562D01*
X67873756Y-82969591D01*
X67854889Y-82959777D01*
X67844756Y-82859298D01*
X67854889Y-82846888D01*
X67854889Y-82306528D01*
X67770222Y-82266468D01*
X67770222Y-82592888D01*
X67820557Y-82604511D01*
X67826667Y-82649333D01*
X67795689Y-82719023D01*
X67770222Y-82705777D01*
X67760089Y-82605298D01*
X67770222Y-82592888D01*
X67770222Y-82266468D01*
X67751251Y-82257491D01*
X67773454Y-82140794D01*
X67793355Y-82118200D01*
X67890748Y-82104862D01*
X67890748Y-81610004D01*
X67814820Y-81651960D01*
X67699667Y-81717163D01*
X67699667Y-81972000D01*
X67742000Y-82014333D01*
X67721758Y-82034575D01*
X67721758Y-83024721D01*
X67735316Y-83107944D01*
X67719749Y-83217758D01*
X67708204Y-83218281D01*
X67708204Y-83879830D01*
X67732252Y-83941167D01*
X67742000Y-84088666D01*
X67756168Y-84268197D01*
X67784988Y-84294898D01*
X67826667Y-84215666D01*
X67882586Y-84103447D01*
X67902388Y-84144732D01*
X67905383Y-84199496D01*
X67946709Y-84302679D01*
X67996000Y-84300333D01*
X68071705Y-84290299D01*
X68064419Y-84372456D01*
X67979533Y-84494555D01*
X67975541Y-84498592D01*
X67915623Y-84602652D01*
X67986388Y-84675392D01*
X68063975Y-84776854D01*
X68005136Y-84862672D01*
X67841283Y-84894733D01*
X67826667Y-84893698D01*
X67826667Y-86078333D01*
X67904810Y-86082203D01*
X67911334Y-86110673D01*
X67849548Y-86230364D01*
X67826667Y-86247666D01*
X67748523Y-86243796D01*
X67742000Y-86215326D01*
X67803786Y-86095635D01*
X67826667Y-86078333D01*
X67826667Y-84893698D01*
X67807586Y-84892345D01*
X67556117Y-84870358D01*
X67530334Y-84868618D01*
X67530334Y-85866666D01*
X67572667Y-85909000D01*
X67530334Y-85951333D01*
X67488000Y-85909000D01*
X67530334Y-85866666D01*
X67530334Y-84868618D01*
X67424500Y-84861472D01*
X67361000Y-84841883D01*
X67361000Y-85612666D01*
X67403334Y-85655000D01*
X67361000Y-85697333D01*
X67318667Y-85655000D01*
X67361000Y-85612666D01*
X67361000Y-84841883D01*
X67265712Y-84812487D01*
X67257854Y-84699721D01*
X67400116Y-84534545D01*
X67450814Y-84492825D01*
X67589844Y-84349480D01*
X67633589Y-84232539D01*
X67631864Y-84226639D01*
X67631283Y-84075633D01*
X67663099Y-83961666D01*
X67708204Y-83879830D01*
X67708204Y-83218281D01*
X67690847Y-83219069D01*
X67670636Y-83105752D01*
X67684163Y-83056791D01*
X67721758Y-83024721D01*
X67721758Y-82034575D01*
X67699667Y-82056666D01*
X67657334Y-82014333D01*
X67699667Y-81972000D01*
X67699667Y-81717163D01*
X67445667Y-81860987D01*
X67445667Y-82988000D01*
X67488000Y-83030333D01*
X67445667Y-83072666D01*
X67403334Y-83030333D01*
X67445667Y-82988000D01*
X67445667Y-81860987D01*
X67430242Y-81869722D01*
X67361000Y-81912597D01*
X67361000Y-82310666D01*
X67403334Y-82353000D01*
X67361000Y-82395333D01*
X67318667Y-82353000D01*
X67361000Y-82310666D01*
X67361000Y-81912597D01*
X67276334Y-81965024D01*
X67276334Y-82564666D01*
X67318667Y-82607000D01*
X67276334Y-82649333D01*
X67234000Y-82607000D01*
X67276334Y-82564666D01*
X67276334Y-81965024D01*
X67204956Y-82009223D01*
X67204956Y-83057653D01*
X67287658Y-83115223D01*
X67317965Y-83142520D01*
X67444242Y-83371142D01*
X67468930Y-83623000D01*
X67463971Y-83961666D01*
X67403334Y-83623000D01*
X67363816Y-83448278D01*
X67337774Y-83432356D01*
X67330681Y-83488944D01*
X67309856Y-83639937D01*
X67276575Y-83625839D01*
X67233282Y-83450237D01*
X67210005Y-83311854D01*
X67184647Y-83114451D01*
X67204956Y-83057653D01*
X67204956Y-82009223D01*
X67173832Y-82028496D01*
X67064667Y-82113639D01*
X67064667Y-83369000D01*
X67131307Y-83394923D01*
X67149334Y-83491003D01*
X67114790Y-83631274D01*
X67064667Y-83665333D01*
X66988728Y-83597118D01*
X66980000Y-83543330D01*
X67031600Y-83399181D01*
X67064667Y-83369000D01*
X67064667Y-82113639D01*
X67022904Y-82146213D01*
X66954769Y-82240804D01*
X66946743Y-82330202D01*
X66947925Y-82337161D01*
X66956251Y-82440046D01*
X66931550Y-82416500D01*
X66823128Y-82315333D01*
X66698761Y-82354276D01*
X66607876Y-82517231D01*
X66606566Y-82522333D01*
X66584889Y-82570384D01*
X66584889Y-83185555D01*
X66635223Y-83197177D01*
X66641334Y-83242000D01*
X66610355Y-83311690D01*
X66599000Y-83305784D01*
X66599000Y-83580666D01*
X66641334Y-83623000D01*
X66599000Y-83665333D01*
X66556667Y-83623000D01*
X66599000Y-83580666D01*
X66599000Y-83305784D01*
X66584889Y-83298444D01*
X66574756Y-83197964D01*
X66584889Y-83185555D01*
X66584889Y-82570384D01*
X66534986Y-82681004D01*
X66514334Y-82695603D01*
X66514334Y-83919333D01*
X66556667Y-83961666D01*
X66514334Y-84004000D01*
X66472000Y-83961666D01*
X66514334Y-83919333D01*
X66514334Y-82695603D01*
X66460020Y-82734000D01*
X66429667Y-82701203D01*
X66429667Y-83665333D01*
X66472000Y-83707666D01*
X66429667Y-83750000D01*
X66387334Y-83707666D01*
X66429667Y-83665333D01*
X66429667Y-82701203D01*
X66418799Y-82689459D01*
X66472000Y-82607000D01*
X66533682Y-82506660D01*
X66466270Y-82482599D01*
X66461200Y-82482692D01*
X66294973Y-82536743D01*
X66133545Y-82655142D01*
X66049997Y-82782286D01*
X66048667Y-82796562D01*
X65982753Y-82888178D01*
X65828272Y-82976169D01*
X65650115Y-83035813D01*
X65513170Y-83042388D01*
X65478684Y-83013717D01*
X65384603Y-82956602D01*
X65283560Y-82964280D01*
X65172295Y-83031814D01*
X65169874Y-83089182D01*
X65146138Y-83144593D01*
X65063088Y-83145169D01*
X64873590Y-83156135D01*
X64799184Y-83186011D01*
X64657473Y-83187144D01*
X64560303Y-83120398D01*
X64415567Y-83013468D01*
X64336164Y-82988000D01*
X64299371Y-83029379D01*
X64383783Y-83140061D01*
G36*
X67546283Y-73991764D02*
G01*
X67735303Y-73989551D01*
X67805500Y-73978931D01*
X68090914Y-73924562D01*
X68509212Y-73836150D01*
X69029027Y-73720830D01*
X69618994Y-73585737D01*
X70247744Y-73438005D01*
X70883912Y-73284770D01*
X71213334Y-73203770D01*
X71705772Y-73081811D01*
X72210249Y-72956995D01*
X72668702Y-72843681D01*
X73023064Y-72756229D01*
X73033667Y-72753617D01*
X73465689Y-72654795D01*
X73940847Y-72557696D01*
X74346000Y-72485085D01*
X74666205Y-72424956D01*
X75098305Y-72331469D01*
X75590960Y-72216313D01*
X76092833Y-72091175D01*
X76208667Y-72061030D01*
X76668954Y-71941876D01*
X77096784Y-71834277D01*
X77453246Y-71747794D01*
X77699433Y-71691991D01*
X77754769Y-71681037D01*
X77972705Y-71625441D01*
X78108032Y-71560924D01*
X78120015Y-71547727D01*
X78130782Y-71449349D01*
X78141237Y-71204770D01*
X78151181Y-70837124D01*
X78160419Y-70369543D01*
X78168753Y-69825161D01*
X78175986Y-69227110D01*
X78181920Y-68598524D01*
X78186359Y-67962535D01*
X78189105Y-67342277D01*
X78189961Y-66760881D01*
X78188730Y-66241482D01*
X78185214Y-65807213D01*
X78179217Y-65481205D01*
X78173075Y-65323439D01*
X78147817Y-64888545D01*
X77453409Y-65049118D01*
X77119974Y-65124989D01*
X76670675Y-65225496D01*
X76155183Y-65339613D01*
X75623169Y-65456314D01*
X75404334Y-65503971D01*
X74341287Y-65742180D01*
X73430892Y-65963187D01*
X72657984Y-66172383D01*
X72007395Y-66375166D01*
X71463959Y-66576927D01*
X71012510Y-66783063D01*
X70637882Y-66998966D01*
X70324908Y-67230031D01*
X70175420Y-67363754D01*
X69999376Y-67544556D01*
X69859323Y-67728469D01*
X69736855Y-67951465D01*
X69613568Y-68249516D01*
X69471055Y-68658592D01*
X69396583Y-68885908D01*
X69278016Y-69231960D01*
X69108644Y-69699102D01*
X68901879Y-70251738D01*
X68671134Y-70854273D01*
X68429822Y-71471112D01*
X68292575Y-71815747D01*
X68073780Y-72365237D01*
X67877614Y-72865525D01*
X67712555Y-73294364D01*
X67587082Y-73629504D01*
X67509675Y-73848697D01*
X67488000Y-73926966D01*
X67546283Y-73991764D01*
G37*
X67546283Y-73991764D02*
X67735303Y-73989551D01*
X67805500Y-73978931D01*
X68090914Y-73924562D01*
X68509212Y-73836150D01*
X69029027Y-73720830D01*
X69618994Y-73585737D01*
X70247744Y-73438005D01*
X70883912Y-73284770D01*
X71213334Y-73203770D01*
X71705772Y-73081811D01*
X72210249Y-72956995D01*
X72668702Y-72843681D01*
X73023064Y-72756229D01*
X73033667Y-72753617D01*
X73465689Y-72654795D01*
X73940847Y-72557696D01*
X74346000Y-72485085D01*
X74666205Y-72424956D01*
X75098305Y-72331469D01*
X75590960Y-72216313D01*
X76092833Y-72091175D01*
X76208667Y-72061030D01*
X76668954Y-71941876D01*
X77096784Y-71834277D01*
X77453246Y-71747794D01*
X77699433Y-71691991D01*
X77754769Y-71681037D01*
X77972705Y-71625441D01*
X78108032Y-71560924D01*
X78120015Y-71547727D01*
X78130782Y-71449349D01*
X78141237Y-71204770D01*
X78151181Y-70837124D01*
X78160419Y-70369543D01*
X78168753Y-69825161D01*
X78175986Y-69227110D01*
X78181920Y-68598524D01*
X78186359Y-67962535D01*
X78189105Y-67342277D01*
X78189961Y-66760881D01*
X78188730Y-66241482D01*
X78185214Y-65807213D01*
X78179217Y-65481205D01*
X78173075Y-65323439D01*
X78147817Y-64888545D01*
X77453409Y-65049118D01*
X77119974Y-65124989D01*
X76670675Y-65225496D01*
X76155183Y-65339613D01*
X75623169Y-65456314D01*
X75404334Y-65503971D01*
X74341287Y-65742180D01*
X73430892Y-65963187D01*
X72657984Y-66172383D01*
X72007395Y-66375166D01*
X71463959Y-66576927D01*
X71012510Y-66783063D01*
X70637882Y-66998966D01*
X70324908Y-67230031D01*
X70175420Y-67363754D01*
X69999376Y-67544556D01*
X69859323Y-67728469D01*
X69736855Y-67951465D01*
X69613568Y-68249516D01*
X69471055Y-68658592D01*
X69396583Y-68885908D01*
X69278016Y-69231960D01*
X69108644Y-69699102D01*
X68901879Y-70251738D01*
X68671134Y-70854273D01*
X68429822Y-71471112D01*
X68292575Y-71815747D01*
X68073780Y-72365237D01*
X67877614Y-72865525D01*
X67712555Y-73294364D01*
X67587082Y-73629504D01*
X67509675Y-73848697D01*
X67488000Y-73926966D01*
X67546283Y-73991764D01*
D11*
X130861904Y-92552380D02*
X130861904Y-93361904D01*
X130814285Y-93457142D01*
X130766666Y-93504761D01*
X130671428Y-93552380D01*
X130480952Y-93552380D01*
X130385714Y-93504761D01*
X130338095Y-93457142D01*
X130290476Y-93361904D01*
X130290476Y-92552380D01*
X129290476Y-93552380D02*
X129861904Y-93552380D01*
X129576190Y-93552380D02*
X129576190Y-92552380D01*
X129671428Y-92695238D01*
X129766666Y-92790476D01*
X129861904Y-92838095D01*
D10*
X230707142Y-86528571D02*
X230707142Y-87671428D01*
X231278571Y-87100000D02*
X230135714Y-87100000D01*
X230707142Y-99528571D02*
X230707142Y-100671428D01*
X226278571Y-89992857D02*
X226278571Y-90278571D01*
X226350000Y-90421428D01*
X226492857Y-90564285D01*
X226778571Y-90635714D01*
X227278571Y-90635714D01*
X227564285Y-90564285D01*
X227707142Y-90421428D01*
X227778571Y-90278571D01*
X227778571Y-89992857D01*
X227707142Y-89850000D01*
X227564285Y-89707142D01*
X227278571Y-89635714D01*
X226778571Y-89635714D01*
X226492857Y-89707142D01*
X226350000Y-89850000D01*
X226278571Y-89992857D01*
X226278571Y-91278571D02*
X227492857Y-91278571D01*
X227635714Y-91350000D01*
X227707142Y-91421428D01*
X227778571Y-91564285D01*
X227778571Y-91850000D01*
X227707142Y-91992857D01*
X227635714Y-92064285D01*
X227492857Y-92135714D01*
X226278571Y-92135714D01*
X226278571Y-92635714D02*
X226278571Y-93492857D01*
X227778571Y-93064285D02*
X226278571Y-93064285D01*
X227778571Y-93992857D02*
X226278571Y-93992857D01*
X226278571Y-94564285D01*
X226350000Y-94707142D01*
X226421428Y-94778571D01*
X226564285Y-94850000D01*
X226778571Y-94850000D01*
X226921428Y-94778571D01*
X226992857Y-94707142D01*
X227064285Y-94564285D01*
X227064285Y-93992857D01*
X226278571Y-95492857D02*
X227492857Y-95492857D01*
X227635714Y-95564285D01*
X227707142Y-95635714D01*
X227778571Y-95778571D01*
X227778571Y-96064285D01*
X227707142Y-96207142D01*
X227635714Y-96278571D01*
X227492857Y-96350000D01*
X226278571Y-96350000D01*
X226278571Y-96850000D02*
X226278571Y-97707142D01*
X227778571Y-97278571D02*
X226278571Y-97278571D01*
X29707142Y-84635714D02*
X29707142Y-85135714D01*
X28921428Y-85135714D02*
X30421428Y-85135714D01*
X30421428Y-84421428D01*
X30350000Y-83064285D02*
X30421428Y-83207142D01*
X30421428Y-83421428D01*
X30350000Y-83635714D01*
X30207142Y-83778571D01*
X30064285Y-83850000D01*
X29778571Y-83921428D01*
X29564285Y-83921428D01*
X29278571Y-83850000D01*
X29135714Y-83778571D01*
X28992857Y-83635714D01*
X28921428Y-83421428D01*
X28921428Y-83278571D01*
X28992857Y-83064285D01*
X29064285Y-82992857D01*
X29564285Y-82992857D01*
X29564285Y-83278571D01*
X29707142Y-93028571D02*
X29707142Y-94171428D01*
X30207142Y-102528571D02*
X30207142Y-103671428D01*
X30778571Y-103100000D02*
X29635714Y-103100000D01*
X32421428Y-96492857D02*
X33921428Y-96492857D01*
X32421428Y-95778571D02*
X33921428Y-95778571D01*
X32421428Y-94921428D01*
X33921428Y-94921428D01*
X32421428Y-94207142D02*
X33921428Y-94207142D01*
X33921428Y-93635714D01*
X33850000Y-93492857D01*
X33778571Y-93421428D01*
X33635714Y-93350000D01*
X33421428Y-93350000D01*
X33278571Y-93421428D01*
X33207142Y-93492857D01*
X33135714Y-93635714D01*
X33135714Y-94207142D01*
X33921428Y-92707142D02*
X32707142Y-92707142D01*
X32564285Y-92635714D01*
X32492857Y-92564285D01*
X32421428Y-92421428D01*
X32421428Y-92135714D01*
X32492857Y-91992857D01*
X32564285Y-91921428D01*
X32707142Y-91850000D01*
X33921428Y-91850000D01*
X33921428Y-91350000D02*
X33921428Y-90492857D01*
X32421428Y-90921428D02*
X33921428Y-90921428D01*
M02*
