G04 #@! TF.GenerationSoftware,KiCad,Pcbnew,(5.1.5)-3*
G04 #@! TF.CreationDate,2021-01-11T22:53:22-06:00*
G04 #@! TF.ProjectId,Power-Primary,506f7765-722d-4507-9269-6d6172792e6b,rev?*
G04 #@! TF.SameCoordinates,Original*
G04 #@! TF.FileFunction,Soldermask,Top*
G04 #@! TF.FilePolarity,Negative*
%FSLAX46Y46*%
G04 Gerber Fmt 4.6, Leading zero omitted, Abs format (unit mm)*
G04 Created by KiCad (PCBNEW (5.1.5)-3) date 2021-01-11 22:53:22*
%MOMM*%
%LPD*%
G04 APERTURE LIST*
%ADD10C,4.400000*%
%ADD11C,2.600000*%
%ADD12C,3.400000*%
%ADD13C,5.400000*%
%ADD14O,1.900000X2.420000*%
%ADD15C,0.100000*%
%ADD16C,1.670000*%
%ADD17O,1.800000X1.800000*%
%ADD18C,1.800000*%
%ADD19C,3.180000*%
%ADD20C,2.200000*%
%ADD21R,2.200000X2.200000*%
%ADD22C,3.100000*%
G04 APERTURE END LIST*
D10*
X74255880Y-103983920D03*
X50515880Y-103983920D03*
D11*
X66195880Y-101183920D03*
X66195880Y-98643920D03*
X58575880Y-101183920D03*
X58575880Y-98643920D03*
X66195880Y-93563920D03*
X58575880Y-93563920D03*
D12*
X25600000Y-84100000D03*
X234600000Y-87100000D03*
X234600000Y-100100000D03*
X25600000Y-103100000D03*
X25600000Y-93600000D03*
D13*
X221600000Y-62100000D03*
X38600000Y-125100000D03*
X38600000Y-62100000D03*
X221600000Y-125100000D03*
D14*
X164995000Y-57265000D03*
D15*
G36*
X168659372Y-56056525D02*
G01*
X168690112Y-56061085D01*
X168720257Y-56068636D01*
X168749516Y-56079105D01*
X168777609Y-56092392D01*
X168804264Y-56108368D01*
X168829224Y-56126880D01*
X168852250Y-56147750D01*
X168873120Y-56170776D01*
X168891632Y-56195736D01*
X168907608Y-56222391D01*
X168920895Y-56250484D01*
X168931364Y-56279743D01*
X168938915Y-56309888D01*
X168943475Y-56340628D01*
X168945000Y-56371667D01*
X168945000Y-58158333D01*
X168943475Y-58189372D01*
X168938915Y-58220112D01*
X168931364Y-58250257D01*
X168920895Y-58279516D01*
X168907608Y-58307609D01*
X168891632Y-58334264D01*
X168873120Y-58359224D01*
X168852250Y-58382250D01*
X168829224Y-58403120D01*
X168804264Y-58421632D01*
X168777609Y-58437608D01*
X168749516Y-58450895D01*
X168720257Y-58461364D01*
X168690112Y-58468915D01*
X168659372Y-58473475D01*
X168628333Y-58475000D01*
X167361667Y-58475000D01*
X167330628Y-58473475D01*
X167299888Y-58468915D01*
X167269743Y-58461364D01*
X167240484Y-58450895D01*
X167212391Y-58437608D01*
X167185736Y-58421632D01*
X167160776Y-58403120D01*
X167137750Y-58382250D01*
X167116880Y-58359224D01*
X167098368Y-58334264D01*
X167082392Y-58307609D01*
X167069105Y-58279516D01*
X167058636Y-58250257D01*
X167051085Y-58220112D01*
X167046525Y-58189372D01*
X167045000Y-58158333D01*
X167045000Y-56371667D01*
X167046525Y-56340628D01*
X167051085Y-56309888D01*
X167058636Y-56279743D01*
X167069105Y-56250484D01*
X167082392Y-56222391D01*
X167098368Y-56195736D01*
X167116880Y-56170776D01*
X167137750Y-56147750D01*
X167160776Y-56126880D01*
X167185736Y-56108368D01*
X167212391Y-56092392D01*
X167240484Y-56079105D01*
X167269743Y-56068636D01*
X167299888Y-56061085D01*
X167330628Y-56056525D01*
X167361667Y-56055000D01*
X168628333Y-56055000D01*
X168659372Y-56056525D01*
G37*
D16*
X161995000Y-59225000D03*
X170995000Y-59225000D03*
D14*
X179727000Y-57265000D03*
D15*
G36*
X183391372Y-56056525D02*
G01*
X183422112Y-56061085D01*
X183452257Y-56068636D01*
X183481516Y-56079105D01*
X183509609Y-56092392D01*
X183536264Y-56108368D01*
X183561224Y-56126880D01*
X183584250Y-56147750D01*
X183605120Y-56170776D01*
X183623632Y-56195736D01*
X183639608Y-56222391D01*
X183652895Y-56250484D01*
X183663364Y-56279743D01*
X183670915Y-56309888D01*
X183675475Y-56340628D01*
X183677000Y-56371667D01*
X183677000Y-58158333D01*
X183675475Y-58189372D01*
X183670915Y-58220112D01*
X183663364Y-58250257D01*
X183652895Y-58279516D01*
X183639608Y-58307609D01*
X183623632Y-58334264D01*
X183605120Y-58359224D01*
X183584250Y-58382250D01*
X183561224Y-58403120D01*
X183536264Y-58421632D01*
X183509609Y-58437608D01*
X183481516Y-58450895D01*
X183452257Y-58461364D01*
X183422112Y-58468915D01*
X183391372Y-58473475D01*
X183360333Y-58475000D01*
X182093667Y-58475000D01*
X182062628Y-58473475D01*
X182031888Y-58468915D01*
X182001743Y-58461364D01*
X181972484Y-58450895D01*
X181944391Y-58437608D01*
X181917736Y-58421632D01*
X181892776Y-58403120D01*
X181869750Y-58382250D01*
X181848880Y-58359224D01*
X181830368Y-58334264D01*
X181814392Y-58307609D01*
X181801105Y-58279516D01*
X181790636Y-58250257D01*
X181783085Y-58220112D01*
X181778525Y-58189372D01*
X181777000Y-58158333D01*
X181777000Y-56371667D01*
X181778525Y-56340628D01*
X181783085Y-56309888D01*
X181790636Y-56279743D01*
X181801105Y-56250484D01*
X181814392Y-56222391D01*
X181830368Y-56195736D01*
X181848880Y-56170776D01*
X181869750Y-56147750D01*
X181892776Y-56126880D01*
X181917736Y-56108368D01*
X181944391Y-56092392D01*
X181972484Y-56079105D01*
X182001743Y-56068636D01*
X182031888Y-56061085D01*
X182062628Y-56056525D01*
X182093667Y-56055000D01*
X183360333Y-56055000D01*
X183391372Y-56056525D01*
G37*
D16*
X176727000Y-59225000D03*
X185727000Y-59225000D03*
D14*
X194959000Y-57265000D03*
D15*
G36*
X198623372Y-56056525D02*
G01*
X198654112Y-56061085D01*
X198684257Y-56068636D01*
X198713516Y-56079105D01*
X198741609Y-56092392D01*
X198768264Y-56108368D01*
X198793224Y-56126880D01*
X198816250Y-56147750D01*
X198837120Y-56170776D01*
X198855632Y-56195736D01*
X198871608Y-56222391D01*
X198884895Y-56250484D01*
X198895364Y-56279743D01*
X198902915Y-56309888D01*
X198907475Y-56340628D01*
X198909000Y-56371667D01*
X198909000Y-58158333D01*
X198907475Y-58189372D01*
X198902915Y-58220112D01*
X198895364Y-58250257D01*
X198884895Y-58279516D01*
X198871608Y-58307609D01*
X198855632Y-58334264D01*
X198837120Y-58359224D01*
X198816250Y-58382250D01*
X198793224Y-58403120D01*
X198768264Y-58421632D01*
X198741609Y-58437608D01*
X198713516Y-58450895D01*
X198684257Y-58461364D01*
X198654112Y-58468915D01*
X198623372Y-58473475D01*
X198592333Y-58475000D01*
X197325667Y-58475000D01*
X197294628Y-58473475D01*
X197263888Y-58468915D01*
X197233743Y-58461364D01*
X197204484Y-58450895D01*
X197176391Y-58437608D01*
X197149736Y-58421632D01*
X197124776Y-58403120D01*
X197101750Y-58382250D01*
X197080880Y-58359224D01*
X197062368Y-58334264D01*
X197046392Y-58307609D01*
X197033105Y-58279516D01*
X197022636Y-58250257D01*
X197015085Y-58220112D01*
X197010525Y-58189372D01*
X197009000Y-58158333D01*
X197009000Y-56371667D01*
X197010525Y-56340628D01*
X197015085Y-56309888D01*
X197022636Y-56279743D01*
X197033105Y-56250484D01*
X197046392Y-56222391D01*
X197062368Y-56195736D01*
X197080880Y-56170776D01*
X197101750Y-56147750D01*
X197124776Y-56126880D01*
X197149736Y-56108368D01*
X197176391Y-56092392D01*
X197204484Y-56079105D01*
X197233743Y-56068636D01*
X197263888Y-56061085D01*
X197294628Y-56056525D01*
X197325667Y-56055000D01*
X198592333Y-56055000D01*
X198623372Y-56056525D01*
G37*
D16*
X191959000Y-59225000D03*
X200959000Y-59225000D03*
D14*
X198375000Y-130116000D03*
D15*
G36*
X196039372Y-128907525D02*
G01*
X196070112Y-128912085D01*
X196100257Y-128919636D01*
X196129516Y-128930105D01*
X196157609Y-128943392D01*
X196184264Y-128959368D01*
X196209224Y-128977880D01*
X196232250Y-128998750D01*
X196253120Y-129021776D01*
X196271632Y-129046736D01*
X196287608Y-129073391D01*
X196300895Y-129101484D01*
X196311364Y-129130743D01*
X196318915Y-129160888D01*
X196323475Y-129191628D01*
X196325000Y-129222667D01*
X196325000Y-131009333D01*
X196323475Y-131040372D01*
X196318915Y-131071112D01*
X196311364Y-131101257D01*
X196300895Y-131130516D01*
X196287608Y-131158609D01*
X196271632Y-131185264D01*
X196253120Y-131210224D01*
X196232250Y-131233250D01*
X196209224Y-131254120D01*
X196184264Y-131272632D01*
X196157609Y-131288608D01*
X196129516Y-131301895D01*
X196100257Y-131312364D01*
X196070112Y-131319915D01*
X196039372Y-131324475D01*
X196008333Y-131326000D01*
X194741667Y-131326000D01*
X194710628Y-131324475D01*
X194679888Y-131319915D01*
X194649743Y-131312364D01*
X194620484Y-131301895D01*
X194592391Y-131288608D01*
X194565736Y-131272632D01*
X194540776Y-131254120D01*
X194517750Y-131233250D01*
X194496880Y-131210224D01*
X194478368Y-131185264D01*
X194462392Y-131158609D01*
X194449105Y-131130516D01*
X194438636Y-131101257D01*
X194431085Y-131071112D01*
X194426525Y-131040372D01*
X194425000Y-131009333D01*
X194425000Y-129222667D01*
X194426525Y-129191628D01*
X194431085Y-129160888D01*
X194438636Y-129130743D01*
X194449105Y-129101484D01*
X194462392Y-129073391D01*
X194478368Y-129046736D01*
X194496880Y-129021776D01*
X194517750Y-128998750D01*
X194540776Y-128977880D01*
X194565736Y-128959368D01*
X194592391Y-128943392D01*
X194620484Y-128930105D01*
X194649743Y-128919636D01*
X194679888Y-128912085D01*
X194710628Y-128907525D01*
X194741667Y-128906000D01*
X196008333Y-128906000D01*
X196039372Y-128907525D01*
G37*
D16*
X201375000Y-128156000D03*
X192375000Y-128156000D03*
D14*
X183135000Y-130116000D03*
D15*
G36*
X180799372Y-128907525D02*
G01*
X180830112Y-128912085D01*
X180860257Y-128919636D01*
X180889516Y-128930105D01*
X180917609Y-128943392D01*
X180944264Y-128959368D01*
X180969224Y-128977880D01*
X180992250Y-128998750D01*
X181013120Y-129021776D01*
X181031632Y-129046736D01*
X181047608Y-129073391D01*
X181060895Y-129101484D01*
X181071364Y-129130743D01*
X181078915Y-129160888D01*
X181083475Y-129191628D01*
X181085000Y-129222667D01*
X181085000Y-131009333D01*
X181083475Y-131040372D01*
X181078915Y-131071112D01*
X181071364Y-131101257D01*
X181060895Y-131130516D01*
X181047608Y-131158609D01*
X181031632Y-131185264D01*
X181013120Y-131210224D01*
X180992250Y-131233250D01*
X180969224Y-131254120D01*
X180944264Y-131272632D01*
X180917609Y-131288608D01*
X180889516Y-131301895D01*
X180860257Y-131312364D01*
X180830112Y-131319915D01*
X180799372Y-131324475D01*
X180768333Y-131326000D01*
X179501667Y-131326000D01*
X179470628Y-131324475D01*
X179439888Y-131319915D01*
X179409743Y-131312364D01*
X179380484Y-131301895D01*
X179352391Y-131288608D01*
X179325736Y-131272632D01*
X179300776Y-131254120D01*
X179277750Y-131233250D01*
X179256880Y-131210224D01*
X179238368Y-131185264D01*
X179222392Y-131158609D01*
X179209105Y-131130516D01*
X179198636Y-131101257D01*
X179191085Y-131071112D01*
X179186525Y-131040372D01*
X179185000Y-131009333D01*
X179185000Y-129222667D01*
X179186525Y-129191628D01*
X179191085Y-129160888D01*
X179198636Y-129130743D01*
X179209105Y-129101484D01*
X179222392Y-129073391D01*
X179238368Y-129046736D01*
X179256880Y-129021776D01*
X179277750Y-128998750D01*
X179300776Y-128977880D01*
X179325736Y-128959368D01*
X179352391Y-128943392D01*
X179380484Y-128930105D01*
X179409743Y-128919636D01*
X179439888Y-128912085D01*
X179470628Y-128907525D01*
X179501667Y-128906000D01*
X180768333Y-128906000D01*
X180799372Y-128907525D01*
G37*
D16*
X186135000Y-128156000D03*
X177135000Y-128156000D03*
D14*
X167895000Y-130116000D03*
D15*
G36*
X165559372Y-128907525D02*
G01*
X165590112Y-128912085D01*
X165620257Y-128919636D01*
X165649516Y-128930105D01*
X165677609Y-128943392D01*
X165704264Y-128959368D01*
X165729224Y-128977880D01*
X165752250Y-128998750D01*
X165773120Y-129021776D01*
X165791632Y-129046736D01*
X165807608Y-129073391D01*
X165820895Y-129101484D01*
X165831364Y-129130743D01*
X165838915Y-129160888D01*
X165843475Y-129191628D01*
X165845000Y-129222667D01*
X165845000Y-131009333D01*
X165843475Y-131040372D01*
X165838915Y-131071112D01*
X165831364Y-131101257D01*
X165820895Y-131130516D01*
X165807608Y-131158609D01*
X165791632Y-131185264D01*
X165773120Y-131210224D01*
X165752250Y-131233250D01*
X165729224Y-131254120D01*
X165704264Y-131272632D01*
X165677609Y-131288608D01*
X165649516Y-131301895D01*
X165620257Y-131312364D01*
X165590112Y-131319915D01*
X165559372Y-131324475D01*
X165528333Y-131326000D01*
X164261667Y-131326000D01*
X164230628Y-131324475D01*
X164199888Y-131319915D01*
X164169743Y-131312364D01*
X164140484Y-131301895D01*
X164112391Y-131288608D01*
X164085736Y-131272632D01*
X164060776Y-131254120D01*
X164037750Y-131233250D01*
X164016880Y-131210224D01*
X163998368Y-131185264D01*
X163982392Y-131158609D01*
X163969105Y-131130516D01*
X163958636Y-131101257D01*
X163951085Y-131071112D01*
X163946525Y-131040372D01*
X163945000Y-131009333D01*
X163945000Y-129222667D01*
X163946525Y-129191628D01*
X163951085Y-129160888D01*
X163958636Y-129130743D01*
X163969105Y-129101484D01*
X163982392Y-129073391D01*
X163998368Y-129046736D01*
X164016880Y-129021776D01*
X164037750Y-128998750D01*
X164060776Y-128977880D01*
X164085736Y-128959368D01*
X164112391Y-128943392D01*
X164140484Y-128930105D01*
X164169743Y-128919636D01*
X164199888Y-128912085D01*
X164230628Y-128907525D01*
X164261667Y-128906000D01*
X165528333Y-128906000D01*
X165559372Y-128907525D01*
G37*
D16*
X170895000Y-128156000D03*
X161895000Y-128156000D03*
D14*
X91473600Y-57265400D03*
D15*
G36*
X95137972Y-56056925D02*
G01*
X95168712Y-56061485D01*
X95198857Y-56069036D01*
X95228116Y-56079505D01*
X95256209Y-56092792D01*
X95282864Y-56108768D01*
X95307824Y-56127280D01*
X95330850Y-56148150D01*
X95351720Y-56171176D01*
X95370232Y-56196136D01*
X95386208Y-56222791D01*
X95399495Y-56250884D01*
X95409964Y-56280143D01*
X95417515Y-56310288D01*
X95422075Y-56341028D01*
X95423600Y-56372067D01*
X95423600Y-58158733D01*
X95422075Y-58189772D01*
X95417515Y-58220512D01*
X95409964Y-58250657D01*
X95399495Y-58279916D01*
X95386208Y-58308009D01*
X95370232Y-58334664D01*
X95351720Y-58359624D01*
X95330850Y-58382650D01*
X95307824Y-58403520D01*
X95282864Y-58422032D01*
X95256209Y-58438008D01*
X95228116Y-58451295D01*
X95198857Y-58461764D01*
X95168712Y-58469315D01*
X95137972Y-58473875D01*
X95106933Y-58475400D01*
X93840267Y-58475400D01*
X93809228Y-58473875D01*
X93778488Y-58469315D01*
X93748343Y-58461764D01*
X93719084Y-58451295D01*
X93690991Y-58438008D01*
X93664336Y-58422032D01*
X93639376Y-58403520D01*
X93616350Y-58382650D01*
X93595480Y-58359624D01*
X93576968Y-58334664D01*
X93560992Y-58308009D01*
X93547705Y-58279916D01*
X93537236Y-58250657D01*
X93529685Y-58220512D01*
X93525125Y-58189772D01*
X93523600Y-58158733D01*
X93523600Y-56372067D01*
X93525125Y-56341028D01*
X93529685Y-56310288D01*
X93537236Y-56280143D01*
X93547705Y-56250884D01*
X93560992Y-56222791D01*
X93576968Y-56196136D01*
X93595480Y-56171176D01*
X93616350Y-56148150D01*
X93639376Y-56127280D01*
X93664336Y-56108768D01*
X93690991Y-56092792D01*
X93719084Y-56079505D01*
X93748343Y-56069036D01*
X93778488Y-56061485D01*
X93809228Y-56056925D01*
X93840267Y-56055400D01*
X95106933Y-56055400D01*
X95137972Y-56056925D01*
G37*
D16*
X88473600Y-59225400D03*
X97473600Y-59225400D03*
D14*
X106231000Y-57265400D03*
D15*
G36*
X109895372Y-56056925D02*
G01*
X109926112Y-56061485D01*
X109956257Y-56069036D01*
X109985516Y-56079505D01*
X110013609Y-56092792D01*
X110040264Y-56108768D01*
X110065224Y-56127280D01*
X110088250Y-56148150D01*
X110109120Y-56171176D01*
X110127632Y-56196136D01*
X110143608Y-56222791D01*
X110156895Y-56250884D01*
X110167364Y-56280143D01*
X110174915Y-56310288D01*
X110179475Y-56341028D01*
X110181000Y-56372067D01*
X110181000Y-58158733D01*
X110179475Y-58189772D01*
X110174915Y-58220512D01*
X110167364Y-58250657D01*
X110156895Y-58279916D01*
X110143608Y-58308009D01*
X110127632Y-58334664D01*
X110109120Y-58359624D01*
X110088250Y-58382650D01*
X110065224Y-58403520D01*
X110040264Y-58422032D01*
X110013609Y-58438008D01*
X109985516Y-58451295D01*
X109956257Y-58461764D01*
X109926112Y-58469315D01*
X109895372Y-58473875D01*
X109864333Y-58475400D01*
X108597667Y-58475400D01*
X108566628Y-58473875D01*
X108535888Y-58469315D01*
X108505743Y-58461764D01*
X108476484Y-58451295D01*
X108448391Y-58438008D01*
X108421736Y-58422032D01*
X108396776Y-58403520D01*
X108373750Y-58382650D01*
X108352880Y-58359624D01*
X108334368Y-58334664D01*
X108318392Y-58308009D01*
X108305105Y-58279916D01*
X108294636Y-58250657D01*
X108287085Y-58220512D01*
X108282525Y-58189772D01*
X108281000Y-58158733D01*
X108281000Y-56372067D01*
X108282525Y-56341028D01*
X108287085Y-56310288D01*
X108294636Y-56280143D01*
X108305105Y-56250884D01*
X108318392Y-56222791D01*
X108334368Y-56196136D01*
X108352880Y-56171176D01*
X108373750Y-56148150D01*
X108396776Y-56127280D01*
X108421736Y-56108768D01*
X108448391Y-56092792D01*
X108476484Y-56079505D01*
X108505743Y-56069036D01*
X108535888Y-56061485D01*
X108566628Y-56056925D01*
X108597667Y-56055400D01*
X109864333Y-56055400D01*
X109895372Y-56056925D01*
G37*
D16*
X103231000Y-59225400D03*
X112231000Y-59225400D03*
D14*
X120683600Y-57265400D03*
D15*
G36*
X124347972Y-56056925D02*
G01*
X124378712Y-56061485D01*
X124408857Y-56069036D01*
X124438116Y-56079505D01*
X124466209Y-56092792D01*
X124492864Y-56108768D01*
X124517824Y-56127280D01*
X124540850Y-56148150D01*
X124561720Y-56171176D01*
X124580232Y-56196136D01*
X124596208Y-56222791D01*
X124609495Y-56250884D01*
X124619964Y-56280143D01*
X124627515Y-56310288D01*
X124632075Y-56341028D01*
X124633600Y-56372067D01*
X124633600Y-58158733D01*
X124632075Y-58189772D01*
X124627515Y-58220512D01*
X124619964Y-58250657D01*
X124609495Y-58279916D01*
X124596208Y-58308009D01*
X124580232Y-58334664D01*
X124561720Y-58359624D01*
X124540850Y-58382650D01*
X124517824Y-58403520D01*
X124492864Y-58422032D01*
X124466209Y-58438008D01*
X124438116Y-58451295D01*
X124408857Y-58461764D01*
X124378712Y-58469315D01*
X124347972Y-58473875D01*
X124316933Y-58475400D01*
X123050267Y-58475400D01*
X123019228Y-58473875D01*
X122988488Y-58469315D01*
X122958343Y-58461764D01*
X122929084Y-58451295D01*
X122900991Y-58438008D01*
X122874336Y-58422032D01*
X122849376Y-58403520D01*
X122826350Y-58382650D01*
X122805480Y-58359624D01*
X122786968Y-58334664D01*
X122770992Y-58308009D01*
X122757705Y-58279916D01*
X122747236Y-58250657D01*
X122739685Y-58220512D01*
X122735125Y-58189772D01*
X122733600Y-58158733D01*
X122733600Y-56372067D01*
X122735125Y-56341028D01*
X122739685Y-56310288D01*
X122747236Y-56280143D01*
X122757705Y-56250884D01*
X122770992Y-56222791D01*
X122786968Y-56196136D01*
X122805480Y-56171176D01*
X122826350Y-56148150D01*
X122849376Y-56127280D01*
X122874336Y-56108768D01*
X122900991Y-56092792D01*
X122929084Y-56079505D01*
X122958343Y-56069036D01*
X122988488Y-56061485D01*
X123019228Y-56056925D01*
X123050267Y-56055400D01*
X124316933Y-56055400D01*
X124347972Y-56056925D01*
G37*
D16*
X117683600Y-59225400D03*
X126683600Y-59225400D03*
D14*
X135517200Y-57265400D03*
D15*
G36*
X139181572Y-56056925D02*
G01*
X139212312Y-56061485D01*
X139242457Y-56069036D01*
X139271716Y-56079505D01*
X139299809Y-56092792D01*
X139326464Y-56108768D01*
X139351424Y-56127280D01*
X139374450Y-56148150D01*
X139395320Y-56171176D01*
X139413832Y-56196136D01*
X139429808Y-56222791D01*
X139443095Y-56250884D01*
X139453564Y-56280143D01*
X139461115Y-56310288D01*
X139465675Y-56341028D01*
X139467200Y-56372067D01*
X139467200Y-58158733D01*
X139465675Y-58189772D01*
X139461115Y-58220512D01*
X139453564Y-58250657D01*
X139443095Y-58279916D01*
X139429808Y-58308009D01*
X139413832Y-58334664D01*
X139395320Y-58359624D01*
X139374450Y-58382650D01*
X139351424Y-58403520D01*
X139326464Y-58422032D01*
X139299809Y-58438008D01*
X139271716Y-58451295D01*
X139242457Y-58461764D01*
X139212312Y-58469315D01*
X139181572Y-58473875D01*
X139150533Y-58475400D01*
X137883867Y-58475400D01*
X137852828Y-58473875D01*
X137822088Y-58469315D01*
X137791943Y-58461764D01*
X137762684Y-58451295D01*
X137734591Y-58438008D01*
X137707936Y-58422032D01*
X137682976Y-58403520D01*
X137659950Y-58382650D01*
X137639080Y-58359624D01*
X137620568Y-58334664D01*
X137604592Y-58308009D01*
X137591305Y-58279916D01*
X137580836Y-58250657D01*
X137573285Y-58220512D01*
X137568725Y-58189772D01*
X137567200Y-58158733D01*
X137567200Y-56372067D01*
X137568725Y-56341028D01*
X137573285Y-56310288D01*
X137580836Y-56280143D01*
X137591305Y-56250884D01*
X137604592Y-56222791D01*
X137620568Y-56196136D01*
X137639080Y-56171176D01*
X137659950Y-56148150D01*
X137682976Y-56127280D01*
X137707936Y-56108768D01*
X137734591Y-56092792D01*
X137762684Y-56079505D01*
X137791943Y-56069036D01*
X137822088Y-56061485D01*
X137852828Y-56056925D01*
X137883867Y-56055400D01*
X139150533Y-56055400D01*
X139181572Y-56056925D01*
G37*
D16*
X132517200Y-59225400D03*
X141517200Y-59225400D03*
D14*
X150249200Y-57265400D03*
D15*
G36*
X153913572Y-56056925D02*
G01*
X153944312Y-56061485D01*
X153974457Y-56069036D01*
X154003716Y-56079505D01*
X154031809Y-56092792D01*
X154058464Y-56108768D01*
X154083424Y-56127280D01*
X154106450Y-56148150D01*
X154127320Y-56171176D01*
X154145832Y-56196136D01*
X154161808Y-56222791D01*
X154175095Y-56250884D01*
X154185564Y-56280143D01*
X154193115Y-56310288D01*
X154197675Y-56341028D01*
X154199200Y-56372067D01*
X154199200Y-58158733D01*
X154197675Y-58189772D01*
X154193115Y-58220512D01*
X154185564Y-58250657D01*
X154175095Y-58279916D01*
X154161808Y-58308009D01*
X154145832Y-58334664D01*
X154127320Y-58359624D01*
X154106450Y-58382650D01*
X154083424Y-58403520D01*
X154058464Y-58422032D01*
X154031809Y-58438008D01*
X154003716Y-58451295D01*
X153974457Y-58461764D01*
X153944312Y-58469315D01*
X153913572Y-58473875D01*
X153882533Y-58475400D01*
X152615867Y-58475400D01*
X152584828Y-58473875D01*
X152554088Y-58469315D01*
X152523943Y-58461764D01*
X152494684Y-58451295D01*
X152466591Y-58438008D01*
X152439936Y-58422032D01*
X152414976Y-58403520D01*
X152391950Y-58382650D01*
X152371080Y-58359624D01*
X152352568Y-58334664D01*
X152336592Y-58308009D01*
X152323305Y-58279916D01*
X152312836Y-58250657D01*
X152305285Y-58220512D01*
X152300725Y-58189772D01*
X152299200Y-58158733D01*
X152299200Y-56372067D01*
X152300725Y-56341028D01*
X152305285Y-56310288D01*
X152312836Y-56280143D01*
X152323305Y-56250884D01*
X152336592Y-56222791D01*
X152352568Y-56196136D01*
X152371080Y-56171176D01*
X152391950Y-56148150D01*
X152414976Y-56127280D01*
X152439936Y-56108768D01*
X152466591Y-56092792D01*
X152494684Y-56079505D01*
X152523943Y-56069036D01*
X152554088Y-56061485D01*
X152584828Y-56056925D01*
X152615867Y-56055400D01*
X153882533Y-56055400D01*
X153913572Y-56056925D01*
G37*
D16*
X147249200Y-59225400D03*
X156249200Y-59225400D03*
D14*
X153296400Y-130091000D03*
D15*
G36*
X150960772Y-128882525D02*
G01*
X150991512Y-128887085D01*
X151021657Y-128894636D01*
X151050916Y-128905105D01*
X151079009Y-128918392D01*
X151105664Y-128934368D01*
X151130624Y-128952880D01*
X151153650Y-128973750D01*
X151174520Y-128996776D01*
X151193032Y-129021736D01*
X151209008Y-129048391D01*
X151222295Y-129076484D01*
X151232764Y-129105743D01*
X151240315Y-129135888D01*
X151244875Y-129166628D01*
X151246400Y-129197667D01*
X151246400Y-130984333D01*
X151244875Y-131015372D01*
X151240315Y-131046112D01*
X151232764Y-131076257D01*
X151222295Y-131105516D01*
X151209008Y-131133609D01*
X151193032Y-131160264D01*
X151174520Y-131185224D01*
X151153650Y-131208250D01*
X151130624Y-131229120D01*
X151105664Y-131247632D01*
X151079009Y-131263608D01*
X151050916Y-131276895D01*
X151021657Y-131287364D01*
X150991512Y-131294915D01*
X150960772Y-131299475D01*
X150929733Y-131301000D01*
X149663067Y-131301000D01*
X149632028Y-131299475D01*
X149601288Y-131294915D01*
X149571143Y-131287364D01*
X149541884Y-131276895D01*
X149513791Y-131263608D01*
X149487136Y-131247632D01*
X149462176Y-131229120D01*
X149439150Y-131208250D01*
X149418280Y-131185224D01*
X149399768Y-131160264D01*
X149383792Y-131133609D01*
X149370505Y-131105516D01*
X149360036Y-131076257D01*
X149352485Y-131046112D01*
X149347925Y-131015372D01*
X149346400Y-130984333D01*
X149346400Y-129197667D01*
X149347925Y-129166628D01*
X149352485Y-129135888D01*
X149360036Y-129105743D01*
X149370505Y-129076484D01*
X149383792Y-129048391D01*
X149399768Y-129021736D01*
X149418280Y-128996776D01*
X149439150Y-128973750D01*
X149462176Y-128952880D01*
X149487136Y-128934368D01*
X149513791Y-128918392D01*
X149541884Y-128905105D01*
X149571143Y-128894636D01*
X149601288Y-128887085D01*
X149632028Y-128882525D01*
X149663067Y-128881000D01*
X150929733Y-128881000D01*
X150960772Y-128882525D01*
G37*
D16*
X156296400Y-128131000D03*
X147296400Y-128131000D03*
D14*
X138437400Y-130091000D03*
D15*
G36*
X136101772Y-128882525D02*
G01*
X136132512Y-128887085D01*
X136162657Y-128894636D01*
X136191916Y-128905105D01*
X136220009Y-128918392D01*
X136246664Y-128934368D01*
X136271624Y-128952880D01*
X136294650Y-128973750D01*
X136315520Y-128996776D01*
X136334032Y-129021736D01*
X136350008Y-129048391D01*
X136363295Y-129076484D01*
X136373764Y-129105743D01*
X136381315Y-129135888D01*
X136385875Y-129166628D01*
X136387400Y-129197667D01*
X136387400Y-130984333D01*
X136385875Y-131015372D01*
X136381315Y-131046112D01*
X136373764Y-131076257D01*
X136363295Y-131105516D01*
X136350008Y-131133609D01*
X136334032Y-131160264D01*
X136315520Y-131185224D01*
X136294650Y-131208250D01*
X136271624Y-131229120D01*
X136246664Y-131247632D01*
X136220009Y-131263608D01*
X136191916Y-131276895D01*
X136162657Y-131287364D01*
X136132512Y-131294915D01*
X136101772Y-131299475D01*
X136070733Y-131301000D01*
X134804067Y-131301000D01*
X134773028Y-131299475D01*
X134742288Y-131294915D01*
X134712143Y-131287364D01*
X134682884Y-131276895D01*
X134654791Y-131263608D01*
X134628136Y-131247632D01*
X134603176Y-131229120D01*
X134580150Y-131208250D01*
X134559280Y-131185224D01*
X134540768Y-131160264D01*
X134524792Y-131133609D01*
X134511505Y-131105516D01*
X134501036Y-131076257D01*
X134493485Y-131046112D01*
X134488925Y-131015372D01*
X134487400Y-130984333D01*
X134487400Y-129197667D01*
X134488925Y-129166628D01*
X134493485Y-129135888D01*
X134501036Y-129105743D01*
X134511505Y-129076484D01*
X134524792Y-129048391D01*
X134540768Y-129021736D01*
X134559280Y-128996776D01*
X134580150Y-128973750D01*
X134603176Y-128952880D01*
X134628136Y-128934368D01*
X134654791Y-128918392D01*
X134682884Y-128905105D01*
X134712143Y-128894636D01*
X134742288Y-128887085D01*
X134773028Y-128882525D01*
X134804067Y-128881000D01*
X136070733Y-128881000D01*
X136101772Y-128882525D01*
G37*
D16*
X141437400Y-128131000D03*
X132437400Y-128131000D03*
D14*
X123654600Y-130091000D03*
D15*
G36*
X121318972Y-128882525D02*
G01*
X121349712Y-128887085D01*
X121379857Y-128894636D01*
X121409116Y-128905105D01*
X121437209Y-128918392D01*
X121463864Y-128934368D01*
X121488824Y-128952880D01*
X121511850Y-128973750D01*
X121532720Y-128996776D01*
X121551232Y-129021736D01*
X121567208Y-129048391D01*
X121580495Y-129076484D01*
X121590964Y-129105743D01*
X121598515Y-129135888D01*
X121603075Y-129166628D01*
X121604600Y-129197667D01*
X121604600Y-130984333D01*
X121603075Y-131015372D01*
X121598515Y-131046112D01*
X121590964Y-131076257D01*
X121580495Y-131105516D01*
X121567208Y-131133609D01*
X121551232Y-131160264D01*
X121532720Y-131185224D01*
X121511850Y-131208250D01*
X121488824Y-131229120D01*
X121463864Y-131247632D01*
X121437209Y-131263608D01*
X121409116Y-131276895D01*
X121379857Y-131287364D01*
X121349712Y-131294915D01*
X121318972Y-131299475D01*
X121287933Y-131301000D01*
X120021267Y-131301000D01*
X119990228Y-131299475D01*
X119959488Y-131294915D01*
X119929343Y-131287364D01*
X119900084Y-131276895D01*
X119871991Y-131263608D01*
X119845336Y-131247632D01*
X119820376Y-131229120D01*
X119797350Y-131208250D01*
X119776480Y-131185224D01*
X119757968Y-131160264D01*
X119741992Y-131133609D01*
X119728705Y-131105516D01*
X119718236Y-131076257D01*
X119710685Y-131046112D01*
X119706125Y-131015372D01*
X119704600Y-130984333D01*
X119704600Y-129197667D01*
X119706125Y-129166628D01*
X119710685Y-129135888D01*
X119718236Y-129105743D01*
X119728705Y-129076484D01*
X119741992Y-129048391D01*
X119757968Y-129021736D01*
X119776480Y-128996776D01*
X119797350Y-128973750D01*
X119820376Y-128952880D01*
X119845336Y-128934368D01*
X119871991Y-128918392D01*
X119900084Y-128905105D01*
X119929343Y-128894636D01*
X119959488Y-128887085D01*
X119990228Y-128882525D01*
X120021267Y-128881000D01*
X121287933Y-128881000D01*
X121318972Y-128882525D01*
G37*
D16*
X126654600Y-128131000D03*
X117654600Y-128131000D03*
D14*
X109202000Y-130091000D03*
D15*
G36*
X106866372Y-128882525D02*
G01*
X106897112Y-128887085D01*
X106927257Y-128894636D01*
X106956516Y-128905105D01*
X106984609Y-128918392D01*
X107011264Y-128934368D01*
X107036224Y-128952880D01*
X107059250Y-128973750D01*
X107080120Y-128996776D01*
X107098632Y-129021736D01*
X107114608Y-129048391D01*
X107127895Y-129076484D01*
X107138364Y-129105743D01*
X107145915Y-129135888D01*
X107150475Y-129166628D01*
X107152000Y-129197667D01*
X107152000Y-130984333D01*
X107150475Y-131015372D01*
X107145915Y-131046112D01*
X107138364Y-131076257D01*
X107127895Y-131105516D01*
X107114608Y-131133609D01*
X107098632Y-131160264D01*
X107080120Y-131185224D01*
X107059250Y-131208250D01*
X107036224Y-131229120D01*
X107011264Y-131247632D01*
X106984609Y-131263608D01*
X106956516Y-131276895D01*
X106927257Y-131287364D01*
X106897112Y-131294915D01*
X106866372Y-131299475D01*
X106835333Y-131301000D01*
X105568667Y-131301000D01*
X105537628Y-131299475D01*
X105506888Y-131294915D01*
X105476743Y-131287364D01*
X105447484Y-131276895D01*
X105419391Y-131263608D01*
X105392736Y-131247632D01*
X105367776Y-131229120D01*
X105344750Y-131208250D01*
X105323880Y-131185224D01*
X105305368Y-131160264D01*
X105289392Y-131133609D01*
X105276105Y-131105516D01*
X105265636Y-131076257D01*
X105258085Y-131046112D01*
X105253525Y-131015372D01*
X105252000Y-130984333D01*
X105252000Y-129197667D01*
X105253525Y-129166628D01*
X105258085Y-129135888D01*
X105265636Y-129105743D01*
X105276105Y-129076484D01*
X105289392Y-129048391D01*
X105305368Y-129021736D01*
X105323880Y-128996776D01*
X105344750Y-128973750D01*
X105367776Y-128952880D01*
X105392736Y-128934368D01*
X105419391Y-128918392D01*
X105447484Y-128905105D01*
X105476743Y-128894636D01*
X105506888Y-128887085D01*
X105537628Y-128882525D01*
X105568667Y-128881000D01*
X106835333Y-128881000D01*
X106866372Y-128882525D01*
G37*
D16*
X112202000Y-128131000D03*
X103202000Y-128131000D03*
D14*
X94520800Y-130091000D03*
D15*
G36*
X92185172Y-128882525D02*
G01*
X92215912Y-128887085D01*
X92246057Y-128894636D01*
X92275316Y-128905105D01*
X92303409Y-128918392D01*
X92330064Y-128934368D01*
X92355024Y-128952880D01*
X92378050Y-128973750D01*
X92398920Y-128996776D01*
X92417432Y-129021736D01*
X92433408Y-129048391D01*
X92446695Y-129076484D01*
X92457164Y-129105743D01*
X92464715Y-129135888D01*
X92469275Y-129166628D01*
X92470800Y-129197667D01*
X92470800Y-130984333D01*
X92469275Y-131015372D01*
X92464715Y-131046112D01*
X92457164Y-131076257D01*
X92446695Y-131105516D01*
X92433408Y-131133609D01*
X92417432Y-131160264D01*
X92398920Y-131185224D01*
X92378050Y-131208250D01*
X92355024Y-131229120D01*
X92330064Y-131247632D01*
X92303409Y-131263608D01*
X92275316Y-131276895D01*
X92246057Y-131287364D01*
X92215912Y-131294915D01*
X92185172Y-131299475D01*
X92154133Y-131301000D01*
X90887467Y-131301000D01*
X90856428Y-131299475D01*
X90825688Y-131294915D01*
X90795543Y-131287364D01*
X90766284Y-131276895D01*
X90738191Y-131263608D01*
X90711536Y-131247632D01*
X90686576Y-131229120D01*
X90663550Y-131208250D01*
X90642680Y-131185224D01*
X90624168Y-131160264D01*
X90608192Y-131133609D01*
X90594905Y-131105516D01*
X90584436Y-131076257D01*
X90576885Y-131046112D01*
X90572325Y-131015372D01*
X90570800Y-130984333D01*
X90570800Y-129197667D01*
X90572325Y-129166628D01*
X90576885Y-129135888D01*
X90584436Y-129105743D01*
X90594905Y-129076484D01*
X90608192Y-129048391D01*
X90624168Y-129021736D01*
X90642680Y-128996776D01*
X90663550Y-128973750D01*
X90686576Y-128952880D01*
X90711536Y-128934368D01*
X90738191Y-128918392D01*
X90766284Y-128905105D01*
X90795543Y-128894636D01*
X90825688Y-128887085D01*
X90856428Y-128882525D01*
X90887467Y-128881000D01*
X92154133Y-128881000D01*
X92185172Y-128882525D01*
G37*
D16*
X97520800Y-128131000D03*
X88520800Y-128131000D03*
D12*
X249000000Y-136600000D03*
X11000000Y-136600000D03*
X249000000Y-50600000D03*
X11000000Y-50600000D03*
D17*
X173385000Y-75805400D03*
D18*
X173385000Y-68085400D03*
D17*
X188625000Y-75805400D03*
D18*
X188625000Y-68085400D03*
D17*
X203865000Y-75805400D03*
D18*
X203865000Y-68085400D03*
D17*
X204265000Y-114495000D03*
D18*
X204265000Y-122115000D03*
D17*
X189025000Y-114495000D03*
D18*
X189025000Y-122115000D03*
D17*
X173785000Y-114495000D03*
D18*
X173785000Y-122115000D03*
D19*
X167895000Y-68071400D03*
X164495000Y-68071400D03*
X167895000Y-77991400D03*
X164495000Y-77991400D03*
X182677600Y-68071400D03*
X179277600Y-68071400D03*
X182677600Y-77991400D03*
X179277600Y-77991400D03*
X197875000Y-68071400D03*
X194475000Y-68071400D03*
X197875000Y-77991400D03*
X194475000Y-77991400D03*
X194875000Y-122311400D03*
X198275000Y-122311400D03*
X194875000Y-112391400D03*
X198275000Y-112391400D03*
X179677600Y-122311400D03*
X183077600Y-122311400D03*
X179677600Y-112391400D03*
X183077600Y-112391400D03*
X168295000Y-112391400D03*
X164895000Y-112391400D03*
X168295000Y-122311400D03*
X164895000Y-122311400D03*
D20*
X173385000Y-80861600D03*
D21*
X173385000Y-78321600D03*
D20*
X188625000Y-80861600D03*
D21*
X188625000Y-78321600D03*
D20*
X203865000Y-80861600D03*
D21*
X203865000Y-78321600D03*
D20*
X204265000Y-109415000D03*
D21*
X204265000Y-111955000D03*
D20*
X189025000Y-109415000D03*
D21*
X189025000Y-111955000D03*
D20*
X173785000Y-109415000D03*
D21*
X173785000Y-111955000D03*
D17*
X100309200Y-114597000D03*
D18*
X100309200Y-122217000D03*
X114939600Y-122217000D03*
D17*
X114939600Y-114597000D03*
X129519200Y-114597000D03*
D18*
X129519200Y-122217000D03*
X144403600Y-122217000D03*
D17*
X144403600Y-114597000D03*
X159440400Y-114597000D03*
D18*
X159440400Y-122217000D03*
D17*
X159040400Y-75680400D03*
D18*
X159040400Y-68060400D03*
X144003600Y-68085800D03*
D17*
X144003600Y-75705800D03*
X129170000Y-75680400D03*
D18*
X129170000Y-68060400D03*
X114539600Y-68060400D03*
D17*
X114539600Y-75680400D03*
X99883800Y-75680400D03*
D18*
X99883800Y-68060400D03*
D19*
X123654600Y-68046400D03*
X120254600Y-68046400D03*
X123654600Y-77966400D03*
X120254600Y-77966400D03*
X109227400Y-68046400D03*
X105827400Y-68046400D03*
X109227400Y-77966400D03*
X105827400Y-77966400D03*
D21*
X99909200Y-78296600D03*
D20*
X99909200Y-80836600D03*
X100309200Y-109440800D03*
D21*
X100309200Y-111980800D03*
X114965000Y-111980800D03*
D20*
X114965000Y-109440800D03*
D21*
X129544600Y-111980800D03*
D20*
X129544600Y-109440800D03*
X144403600Y-109440800D03*
D21*
X144403600Y-111980800D03*
X159440400Y-111980800D03*
D20*
X159440400Y-109440800D03*
D21*
X159065800Y-78296600D03*
D20*
X159065800Y-80836600D03*
X144003600Y-80836600D03*
D21*
X144003600Y-78296600D03*
X129144600Y-78296600D03*
D20*
X129144600Y-80836600D03*
D21*
X114514200Y-78296600D03*
D20*
X114514200Y-80836600D03*
D19*
X94895400Y-112298300D03*
X91495400Y-112298300D03*
X94895400Y-122218300D03*
X91495400Y-122218300D03*
X109627400Y-112298300D03*
X106227400Y-112298300D03*
X109627400Y-122218300D03*
X106227400Y-122218300D03*
X120654600Y-122218300D03*
X124054600Y-122218300D03*
X120654600Y-112298300D03*
X124054600Y-112298300D03*
X138888400Y-112298300D03*
X135488400Y-112298300D03*
X138888400Y-122218300D03*
X135488400Y-122218300D03*
X153671000Y-112298300D03*
X150271000Y-112298300D03*
X153671000Y-122218300D03*
X150271000Y-122218300D03*
X153271000Y-68046400D03*
X149871000Y-68046400D03*
X153271000Y-77966400D03*
X149871000Y-77966400D03*
X138488400Y-68046400D03*
X135088400Y-68046400D03*
X138488400Y-77966400D03*
X135088400Y-77966400D03*
X94495400Y-68046400D03*
X91095400Y-68046400D03*
X94495400Y-77966400D03*
X91095400Y-77966400D03*
D21*
X213411400Y-93646600D03*
D20*
X213411400Y-91106600D03*
D18*
X218110400Y-98701200D03*
D17*
X218110400Y-91081200D03*
D12*
X17900000Y-114500000D03*
X40400000Y-114500000D03*
D22*
X29150000Y-114500000D03*
M02*
