M48
; DRILL file {KiCad (5.1.5)-3} date 1/10/2021 10:08:34 PM
; FORMAT={-:-/ absolute / inch / decimal}
; #@! TF.CreationDate,2021-01-10T22:08:34-06:00
; #@! TF.GenerationSoftware,Kicad,Pcbnew,(5.1.5)-3
FMAT,2
INCH
T1C0.0157
T2C0.0276
T3C0.0354
T4C0.0402
T5C0.0512
T6C0.0551
T7C0.0591
T8C0.0701
T9C0.0500
T10C0.1063
T11C0.1181
T12C0.1339
T13C0.1378
%
G90
G05
T1
X4.759Y-4.935
X4.776Y-2.313
T2
X3.898Y-4.055
X3.898Y-4.355
X5.048Y-4.055
X5.048Y-4.355
X8.5Y-4.05
X8.5Y-4.35
X3.897Y-3.026
X3.897Y-3.326
X4.474Y-3.026
X4.474Y-3.326
X5.05Y-3.026
X5.05Y-3.326
X7.9Y-4.05
X7.9Y-4.35
X9.1Y-4.05
X9.1Y-4.35
X5.634Y-4.055
X5.634Y-4.355
X7.9Y-3.026
X7.9Y-3.3299
X8.5Y-3.026
X8.5Y-3.3299
X9.1Y-3.026
X9.1Y-3.3299
X4.474Y-4.055
X4.474Y-4.355
X5.634Y-3.027
X5.634Y-3.327
X7.026Y-2.828
X7.026Y-3.128
X6.226Y-4.055
X6.226Y-4.355
X6.226Y-3.026
X6.226Y-3.326
T3
X6.841Y-2.829
X6.841Y-2.929
X7.9Y-3.85
X7.9Y-3.95
X8.5Y-3.85
X8.5Y-3.95
X5.049Y-3.429
X5.049Y-3.529
X4.475Y-3.852
X4.475Y-3.952
X6.226Y-3.852
X6.226Y-3.952
X8.5Y-3.429
X8.5Y-3.529
X3.898Y-3.852
X3.898Y-3.952
X5.634Y-3.852
X5.634Y-3.952
X9.1Y-3.429
X9.1Y-3.529
X7.9Y-3.429
X7.9Y-3.529
X4.473Y-3.429
X4.473Y-3.529
X9.1Y-3.85
X9.1Y-3.95
X3.898Y-3.429
X3.898Y-3.529
X6.227Y-3.429
X6.227Y-3.529
X5.049Y-3.852
X5.049Y-3.952
X5.634Y-3.429
X5.634Y-3.529
T4
X4.7159Y-2.601
X4.834Y-2.601
X3.5659Y-2.601
X3.684Y-2.601
X8.1497Y-2.6
X8.2678Y-2.6
X4.1469Y-2.601
X4.265Y-2.601
X8.75Y-4.665
X8.8681Y-4.665
X4.13Y-4.665
X4.2481Y-4.665
X5.281Y-4.665
X5.3991Y-4.665
X8.15Y-4.665
X8.2681Y-4.665
X4.699Y-4.665
X4.8171Y-4.665
X5.2999Y-2.601
X5.418Y-2.601
X7.55Y-4.665
X7.6681Y-4.665
X8.7494Y-2.6
X8.8675Y-2.6
X5.866Y-4.665
X5.9841Y-4.665
X7.5697Y-2.6
X7.6878Y-2.6
X3.552Y-4.665
X3.6701Y-4.665
X5.8799Y-2.601
X5.998Y-2.601
T5
X1.312Y-4.036
X1.312Y-4.9218
T6
X2.3022Y-3.7348
X2.3022Y-3.9348
X2.3022Y-4.0348
X2.6022Y-3.7348
X2.6022Y-3.9348
X2.6022Y-4.0348
T7
X1.0406Y-3.437
X1.0406Y-3.8307
X7.0248Y-3.437
X7.0248Y-3.8307
T8
X5.865Y-3.9645
X5.865Y-4.3551
X5.9989Y-3.9645
X5.9989Y-4.3551
X8.7303Y-3.0254
X8.7303Y-3.416
X8.8642Y-3.0254
X8.8642Y-3.416
X8.132Y-3.9672
X8.132Y-4.3577
X8.2659Y-3.9672
X8.2659Y-4.3577
X7.55Y-3.0254
X7.55Y-3.416
X7.6839Y-3.0254
X7.6839Y-3.416
X8.132Y-3.0254
X8.132Y-3.416
X8.2659Y-3.0254
X8.2659Y-3.416
X5.283Y-3.9645
X5.283Y-4.3551
X5.4169Y-3.9645
X5.4169Y-4.3551
X5.283Y-3.0254
X5.283Y-3.416
X5.4169Y-3.0254
X5.4169Y-3.416
X3.551Y-3.0254
X3.551Y-3.416
X3.6849Y-3.0254
X3.6849Y-3.416
X4.699Y-3.0254
X4.699Y-3.416
X4.8329Y-3.0254
X4.8329Y-3.416
X5.865Y-3.0254
X5.865Y-3.416
X5.9989Y-3.0254
X5.9989Y-3.416
X7.55Y-3.9672
X7.55Y-4.3577
X7.6839Y-3.9672
X7.6839Y-4.3577
X8.7303Y-3.9672
X8.7303Y-4.3577
X8.8642Y-3.9672
X8.8642Y-4.3577
X4.131Y-3.0254
X4.131Y-3.416
X4.2649Y-3.0254
X4.2649Y-3.416
X4.699Y-3.9645
X4.699Y-4.3551
X4.8329Y-3.9645
X4.8329Y-4.3551
X4.131Y-3.9645
X4.131Y-4.3551
X4.2649Y-3.9645
X4.2649Y-4.3551
X3.551Y-3.9645
X3.551Y-4.3551
X3.6849Y-3.9645
X3.6849Y-4.3551
T9
X3.4339Y-4.5878
X3.7882Y-4.5878
X5.7618Y-2.6782
X6.1161Y-2.6782
X4.5978Y-2.6782
X4.9521Y-2.6782
X3.4478Y-2.6782
X3.8021Y-2.6782
X8.0316Y-2.6772
X8.3859Y-2.6772
X4.0288Y-2.6782
X4.3831Y-2.6782
X8.6319Y-4.5878
X8.9862Y-4.5878
X4.0119Y-4.5878
X4.3662Y-4.5878
X5.1629Y-4.5878
X5.5172Y-4.5878
X8.0319Y-4.5878
X8.3862Y-4.5878
X4.5809Y-4.5878
X4.9352Y-4.5878
X5.1818Y-2.6782
X5.5361Y-2.6782
X7.4319Y-4.5878
X7.7862Y-4.5878
X8.6313Y-2.6772
X8.9856Y-2.6772
X5.7479Y-4.5878
X6.1022Y-4.5878
X7.4516Y-2.6772
X7.8059Y-2.6772
T10
X1.312Y-4.4789
T11
X0.7283Y-4.9213
X0.7283Y-2.3425
X9.3307Y-4.9213
X9.3307Y-2.3425
T12
X1.9849Y-4.145
X2.9195Y-4.145
T13
X1.6705Y-2.6103
X1.6705Y-4.6575
X6.3949Y-2.6103
X6.3949Y-4.6575
T0
M30
