G04 #@! TF.GenerationSoftware,KiCad,Pcbnew,(5.1.5)-3*
G04 #@! TF.CreationDate,2021-01-10T22:08:32-06:00*
G04 #@! TF.ProjectId,Power-Primary,506f7765-722d-4507-9269-6d6172792e6b,rev?*
G04 #@! TF.SameCoordinates,Original*
G04 #@! TF.FileFunction,Legend,Top*
G04 #@! TF.FilePolarity,Positive*
%FSLAX46Y46*%
G04 Gerber Fmt 4.6, Leading zero omitted, Abs format (unit mm)*
G04 Created by KiCad (PCBNEW (5.1.5)-3) date 2021-01-10 22:08:32*
%MOMM*%
%LPD*%
G04 APERTURE LIST*
%ADD10C,0.150000*%
%ADD11C,0.375000*%
%ADD12C,0.010000*%
%ADD13C,0.120000*%
G04 APERTURE END LIST*
D10*
X39796980Y-114879238D02*
X39796980Y-115450666D01*
X39796980Y-115164952D02*
X38796980Y-115164952D01*
X38939838Y-115260190D01*
X39035076Y-115355428D01*
X39082695Y-115450666D01*
X39511266Y-113736380D02*
X39511266Y-113260190D01*
X39796980Y-113831619D02*
X38796980Y-113498285D01*
X39796980Y-113164952D01*
X39796980Y-112831619D02*
X38796980Y-112831619D01*
X39511266Y-112498285D01*
X38796980Y-112164952D01*
X39796980Y-112164952D01*
X39796980Y-111688761D02*
X38796980Y-111688761D01*
X38796980Y-111307809D01*
X38844600Y-111212571D01*
X38892219Y-111164952D01*
X38987457Y-111117333D01*
X39130314Y-111117333D01*
X39225552Y-111164952D01*
X39273171Y-111212571D01*
X39320790Y-111307809D01*
X39320790Y-111688761D01*
X123707209Y-58259600D02*
X123802447Y-58307219D01*
X123945304Y-58307219D01*
X124088161Y-58259600D01*
X124183400Y-58164361D01*
X124231019Y-58069123D01*
X124278638Y-57878647D01*
X124278638Y-57735790D01*
X124231019Y-57545314D01*
X124183400Y-57450076D01*
X124088161Y-57354838D01*
X123945304Y-57307219D01*
X123850066Y-57307219D01*
X123707209Y-57354838D01*
X123659590Y-57402457D01*
X123659590Y-57735790D01*
X123850066Y-57735790D01*
X123231019Y-57973885D02*
X123231019Y-57307219D01*
X123231019Y-57878647D02*
X123183400Y-57926266D01*
X123088161Y-57973885D01*
X122945304Y-57973885D01*
X122850066Y-57926266D01*
X122802447Y-57831028D01*
X122802447Y-57307219D01*
X121897685Y-57307219D02*
X121897685Y-58307219D01*
X121897685Y-57354838D02*
X121992923Y-57307219D01*
X122183400Y-57307219D01*
X122278638Y-57354838D01*
X122326257Y-57402457D01*
X122373876Y-57497695D01*
X122373876Y-57783409D01*
X122326257Y-57878647D01*
X122278638Y-57926266D01*
X122183400Y-57973885D01*
X121992923Y-57973885D01*
X121897685Y-57926266D01*
X120802447Y-58307219D02*
X120231019Y-58307219D01*
X120516733Y-57307219D02*
X120516733Y-58307219D01*
X119516733Y-57354838D02*
X119611971Y-57307219D01*
X119802447Y-57307219D01*
X119897685Y-57354838D01*
X119945304Y-57450076D01*
X119945304Y-57831028D01*
X119897685Y-57926266D01*
X119802447Y-57973885D01*
X119611971Y-57973885D01*
X119516733Y-57926266D01*
X119469114Y-57831028D01*
X119469114Y-57735790D01*
X119945304Y-57640552D01*
X119088161Y-57354838D02*
X118992923Y-57307219D01*
X118802447Y-57307219D01*
X118707209Y-57354838D01*
X118659590Y-57450076D01*
X118659590Y-57497695D01*
X118707209Y-57592933D01*
X118802447Y-57640552D01*
X118945304Y-57640552D01*
X119040542Y-57688171D01*
X119088161Y-57783409D01*
X119088161Y-57831028D01*
X119040542Y-57926266D01*
X118945304Y-57973885D01*
X118802447Y-57973885D01*
X118707209Y-57926266D01*
X118373876Y-57973885D02*
X117992923Y-57973885D01*
X118231019Y-58307219D02*
X118231019Y-57450076D01*
X118183400Y-57354838D01*
X118088161Y-57307219D01*
X117992923Y-57307219D01*
X118354790Y-125966600D02*
X118259552Y-125918980D01*
X118116695Y-125918980D01*
X117973838Y-125966600D01*
X117878600Y-126061838D01*
X117830980Y-126157076D01*
X117783361Y-126347552D01*
X117783361Y-126490409D01*
X117830980Y-126680885D01*
X117878600Y-126776123D01*
X117973838Y-126871361D01*
X118116695Y-126918980D01*
X118211933Y-126918980D01*
X118354790Y-126871361D01*
X118402409Y-126823742D01*
X118402409Y-126490409D01*
X118211933Y-126490409D01*
X118830980Y-126252314D02*
X118830980Y-126918980D01*
X118830980Y-126347552D02*
X118878600Y-126299933D01*
X118973838Y-126252314D01*
X119116695Y-126252314D01*
X119211933Y-126299933D01*
X119259552Y-126395171D01*
X119259552Y-126918980D01*
X120164314Y-126918980D02*
X120164314Y-125918980D01*
X120164314Y-126871361D02*
X120069076Y-126918980D01*
X119878600Y-126918980D01*
X119783361Y-126871361D01*
X119735742Y-126823742D01*
X119688123Y-126728504D01*
X119688123Y-126442790D01*
X119735742Y-126347552D01*
X119783361Y-126299933D01*
X119878600Y-126252314D01*
X120069076Y-126252314D01*
X120164314Y-126299933D01*
X121259552Y-125918980D02*
X121830980Y-125918980D01*
X121545266Y-126918980D02*
X121545266Y-125918980D01*
X122545266Y-126871361D02*
X122450028Y-126918980D01*
X122259552Y-126918980D01*
X122164314Y-126871361D01*
X122116695Y-126776123D01*
X122116695Y-126395171D01*
X122164314Y-126299933D01*
X122259552Y-126252314D01*
X122450028Y-126252314D01*
X122545266Y-126299933D01*
X122592885Y-126395171D01*
X122592885Y-126490409D01*
X122116695Y-126585647D01*
X122973838Y-126871361D02*
X123069076Y-126918980D01*
X123259552Y-126918980D01*
X123354790Y-126871361D01*
X123402409Y-126776123D01*
X123402409Y-126728504D01*
X123354790Y-126633266D01*
X123259552Y-126585647D01*
X123116695Y-126585647D01*
X123021457Y-126538028D01*
X122973838Y-126442790D01*
X122973838Y-126395171D01*
X123021457Y-126299933D01*
X123116695Y-126252314D01*
X123259552Y-126252314D01*
X123354790Y-126299933D01*
X123688123Y-126252314D02*
X124069076Y-126252314D01*
X123830980Y-125918980D02*
X123830980Y-126776123D01*
X123878600Y-126871361D01*
X123973838Y-126918980D01*
X124069076Y-126918980D01*
X65610123Y-123921780D02*
X65610123Y-122921780D01*
X65610123Y-123397971D02*
X66181552Y-123397971D01*
X66181552Y-123921780D02*
X66181552Y-122921780D01*
X66514885Y-122921780D02*
X66848219Y-123921780D01*
X67181552Y-122921780D01*
X67514885Y-123921780D02*
X67514885Y-123255114D01*
X67514885Y-122921780D02*
X67467266Y-122969400D01*
X67514885Y-123017019D01*
X67562504Y-122969400D01*
X67514885Y-122921780D01*
X67514885Y-123017019D01*
X67991076Y-123255114D02*
X67991076Y-123921780D01*
X67991076Y-123350352D02*
X68038695Y-123302733D01*
X68133933Y-123255114D01*
X68276790Y-123255114D01*
X68372028Y-123302733D01*
X68419647Y-123397971D01*
X68419647Y-123921780D01*
X69181552Y-124302733D02*
X69133933Y-124255114D01*
X69038695Y-124112257D01*
X68991076Y-124017019D01*
X68943457Y-123874161D01*
X68895838Y-123636066D01*
X68895838Y-123445590D01*
X68943457Y-123207495D01*
X68991076Y-123064638D01*
X69038695Y-122969400D01*
X69133933Y-122826542D01*
X69181552Y-122778923D01*
X69562504Y-123540828D02*
X70324409Y-123540828D01*
X69943457Y-123921780D02*
X69943457Y-123159876D01*
X70705361Y-124302733D02*
X70752980Y-124255114D01*
X70848219Y-124112257D01*
X70895838Y-124017019D01*
X70943457Y-123874161D01*
X70991076Y-123636066D01*
X70991076Y-123445590D01*
X70943457Y-123207495D01*
X70895838Y-123064638D01*
X70848219Y-122969400D01*
X70752980Y-122826542D01*
X70705361Y-122778923D01*
X55145323Y-123921780D02*
X55145323Y-122921780D01*
X55145323Y-123397971D02*
X55716752Y-123397971D01*
X55716752Y-123921780D02*
X55716752Y-122921780D01*
X56050085Y-122921780D02*
X56383419Y-123921780D01*
X56716752Y-122921780D01*
X57050085Y-123921780D02*
X57050085Y-123255114D01*
X57050085Y-122921780D02*
X57002466Y-122969400D01*
X57050085Y-123017019D01*
X57097704Y-122969400D01*
X57050085Y-122921780D01*
X57050085Y-123017019D01*
X57526276Y-123255114D02*
X57526276Y-123921780D01*
X57526276Y-123350352D02*
X57573895Y-123302733D01*
X57669133Y-123255114D01*
X57811990Y-123255114D01*
X57907228Y-123302733D01*
X57954847Y-123397971D01*
X57954847Y-123921780D01*
X58716752Y-124302733D02*
X58669133Y-124255114D01*
X58573895Y-124112257D01*
X58526276Y-124017019D01*
X58478657Y-123874161D01*
X58431038Y-123636066D01*
X58431038Y-123445590D01*
X58478657Y-123207495D01*
X58526276Y-123064638D01*
X58573895Y-122969400D01*
X58669133Y-122826542D01*
X58716752Y-122778923D01*
X59097704Y-123540828D02*
X59859609Y-123540828D01*
X60240561Y-124302733D02*
X60288180Y-124255114D01*
X60383419Y-124112257D01*
X60431038Y-124017019D01*
X60478657Y-123874161D01*
X60526276Y-123636066D01*
X60526276Y-123445590D01*
X60478657Y-123207495D01*
X60431038Y-123064638D01*
X60383419Y-122969400D01*
X60288180Y-122826542D01*
X60240561Y-122778923D01*
X178064800Y-69219819D02*
X178636228Y-69219819D01*
X178350514Y-69219819D02*
X178350514Y-70219819D01*
X178445752Y-70076961D01*
X178540990Y-69981723D01*
X178636228Y-69934104D01*
X177683847Y-70124580D02*
X177636228Y-70172200D01*
X177540990Y-70219819D01*
X177302895Y-70219819D01*
X177207657Y-70172200D01*
X177160038Y-70124580D01*
X177112419Y-70029342D01*
X177112419Y-69934104D01*
X177160038Y-69791247D01*
X177731466Y-69219819D01*
X177112419Y-69219819D01*
X176826704Y-70219819D02*
X176493371Y-69219819D01*
X176160038Y-70219819D01*
X174731466Y-69743628D02*
X174588609Y-69696009D01*
X174540990Y-69648390D01*
X174493371Y-69553152D01*
X174493371Y-69410295D01*
X174540990Y-69315057D01*
X174588609Y-69267438D01*
X174683847Y-69219819D01*
X175064800Y-69219819D01*
X175064800Y-70219819D01*
X174731466Y-70219819D01*
X174636228Y-70172200D01*
X174588609Y-70124580D01*
X174540990Y-70029342D01*
X174540990Y-69934104D01*
X174588609Y-69838866D01*
X174636228Y-69791247D01*
X174731466Y-69743628D01*
X175064800Y-69743628D01*
X174064800Y-70219819D02*
X174064800Y-69410295D01*
X174017180Y-69315057D01*
X173969561Y-69267438D01*
X173874323Y-69219819D01*
X173683847Y-69219819D01*
X173588609Y-69267438D01*
X173540990Y-69315057D01*
X173493371Y-69410295D01*
X173493371Y-70219819D01*
X173064800Y-69267438D02*
X172921942Y-69219819D01*
X172683847Y-69219819D01*
X172588609Y-69267438D01*
X172540990Y-69315057D01*
X172493371Y-69410295D01*
X172493371Y-69505533D01*
X172540990Y-69600771D01*
X172588609Y-69648390D01*
X172683847Y-69696009D01*
X172874323Y-69743628D01*
X172969561Y-69791247D01*
X173017180Y-69838866D01*
X173064800Y-69934104D01*
X173064800Y-70029342D01*
X173017180Y-70124580D01*
X172969561Y-70172200D01*
X172874323Y-70219819D01*
X172636228Y-70219819D01*
X172493371Y-70172200D01*
D11*
X55178571Y-79408371D02*
X55178571Y-80622657D01*
X55249999Y-80765514D01*
X55321428Y-80836942D01*
X55464285Y-80908371D01*
X55749999Y-80908371D01*
X55892857Y-80836942D01*
X55964285Y-80765514D01*
X56035714Y-80622657D01*
X56035714Y-79408371D01*
X56535714Y-79408371D02*
X57392857Y-79408371D01*
X56964285Y-80908371D02*
X56964285Y-79408371D01*
X57821428Y-80836942D02*
X58035714Y-80908371D01*
X58392857Y-80908371D01*
X58535714Y-80836942D01*
X58607142Y-80765514D01*
X58678571Y-80622657D01*
X58678571Y-80479800D01*
X58607142Y-80336942D01*
X58535714Y-80265514D01*
X58392857Y-80194085D01*
X58107142Y-80122657D01*
X57964285Y-80051228D01*
X57892857Y-79979800D01*
X57821428Y-79836942D01*
X57821428Y-79694085D01*
X57892857Y-79551228D01*
X57964285Y-79479800D01*
X58107142Y-79408371D01*
X58464285Y-79408371D01*
X58678571Y-79479800D01*
X59107142Y-79408371D02*
X59607142Y-80908371D01*
X60107142Y-79408371D01*
X60392857Y-79408371D02*
X61249999Y-79408371D01*
X60821428Y-80908371D02*
X60821428Y-79408371D01*
X62892857Y-80336942D02*
X64035714Y-80336942D01*
X65892857Y-80908371D02*
X65892857Y-79408371D01*
X66464285Y-79408371D01*
X66607142Y-79479800D01*
X66678571Y-79551228D01*
X66749999Y-79694085D01*
X66749999Y-79908371D01*
X66678571Y-80051228D01*
X66607142Y-80122657D01*
X66464285Y-80194085D01*
X65892857Y-80194085D01*
X67607142Y-80908371D02*
X67464285Y-80836942D01*
X67392857Y-80765514D01*
X67321428Y-80622657D01*
X67321428Y-80194085D01*
X67392857Y-80051228D01*
X67464285Y-79979800D01*
X67607142Y-79908371D01*
X67821428Y-79908371D01*
X67964285Y-79979800D01*
X68035714Y-80051228D01*
X68107142Y-80194085D01*
X68107142Y-80622657D01*
X68035714Y-80765514D01*
X67964285Y-80836942D01*
X67821428Y-80908371D01*
X67607142Y-80908371D01*
X68607142Y-79908371D02*
X68892857Y-80908371D01*
X69178571Y-80194085D01*
X69464285Y-80908371D01*
X69750000Y-79908371D01*
X70892857Y-80836942D02*
X70750000Y-80908371D01*
X70464285Y-80908371D01*
X70321428Y-80836942D01*
X70250000Y-80694085D01*
X70250000Y-80122657D01*
X70321428Y-79979800D01*
X70464285Y-79908371D01*
X70750000Y-79908371D01*
X70892857Y-79979800D01*
X70964285Y-80122657D01*
X70964285Y-80265514D01*
X70250000Y-80408371D01*
X71607142Y-80908371D02*
X71607142Y-79908371D01*
X71607142Y-80194085D02*
X71678571Y-80051228D01*
X71750000Y-79979800D01*
X71892857Y-79908371D01*
X72035714Y-79908371D01*
X48928571Y-83533371D02*
X48928571Y-82033371D01*
X49499999Y-82033371D01*
X49642857Y-82104800D01*
X49714285Y-82176228D01*
X49785714Y-82319085D01*
X49785714Y-82533371D01*
X49714285Y-82676228D01*
X49642857Y-82747657D01*
X49499999Y-82819085D01*
X48928571Y-82819085D01*
X50428571Y-83533371D02*
X50428571Y-82533371D01*
X50428571Y-82819085D02*
X50499999Y-82676228D01*
X50571428Y-82604800D01*
X50714285Y-82533371D01*
X50857142Y-82533371D01*
X51357142Y-83533371D02*
X51357142Y-82533371D01*
X51357142Y-82033371D02*
X51285714Y-82104800D01*
X51357142Y-82176228D01*
X51428571Y-82104800D01*
X51357142Y-82033371D01*
X51357142Y-82176228D01*
X52071428Y-83533371D02*
X52071428Y-82533371D01*
X52071428Y-82676228D02*
X52142857Y-82604800D01*
X52285714Y-82533371D01*
X52499999Y-82533371D01*
X52642857Y-82604800D01*
X52714285Y-82747657D01*
X52714285Y-83533371D01*
X52714285Y-82747657D02*
X52785714Y-82604800D01*
X52928571Y-82533371D01*
X53142857Y-82533371D01*
X53285714Y-82604800D01*
X53357142Y-82747657D01*
X53357142Y-83533371D01*
X54714285Y-83533371D02*
X54714285Y-82747657D01*
X54642857Y-82604800D01*
X54499999Y-82533371D01*
X54214285Y-82533371D01*
X54071428Y-82604800D01*
X54714285Y-83461942D02*
X54571428Y-83533371D01*
X54214285Y-83533371D01*
X54071428Y-83461942D01*
X53999999Y-83319085D01*
X53999999Y-83176228D01*
X54071428Y-83033371D01*
X54214285Y-82961942D01*
X54571428Y-82961942D01*
X54714285Y-82890514D01*
X55428571Y-83533371D02*
X55428571Y-82533371D01*
X55428571Y-82819085D02*
X55499999Y-82676228D01*
X55571428Y-82604800D01*
X55714285Y-82533371D01*
X55857142Y-82533371D01*
X56214285Y-82533371D02*
X56571428Y-83533371D01*
X56928571Y-82533371D02*
X56571428Y-83533371D01*
X56428571Y-83890514D01*
X56357142Y-83961942D01*
X56214285Y-84033371D01*
X58642857Y-83533371D02*
X58642857Y-82033371D01*
X59214285Y-82033371D01*
X59357142Y-82104800D01*
X59428571Y-82176228D01*
X59499999Y-82319085D01*
X59499999Y-82533371D01*
X59428571Y-82676228D01*
X59357142Y-82747657D01*
X59214285Y-82819085D01*
X58642857Y-82819085D01*
X60357142Y-83533371D02*
X60214285Y-83461942D01*
X60142857Y-83390514D01*
X60071428Y-83247657D01*
X60071428Y-82819085D01*
X60142857Y-82676228D01*
X60214285Y-82604800D01*
X60357142Y-82533371D01*
X60571428Y-82533371D01*
X60714285Y-82604800D01*
X60785714Y-82676228D01*
X60857142Y-82819085D01*
X60857142Y-83247657D01*
X60785714Y-83390514D01*
X60714285Y-83461942D01*
X60571428Y-83533371D01*
X60357142Y-83533371D01*
X61357142Y-82533371D02*
X61642857Y-83533371D01*
X61928571Y-82819085D01*
X62214285Y-83533371D01*
X62499999Y-82533371D01*
X63642857Y-83461942D02*
X63499999Y-83533371D01*
X63214285Y-83533371D01*
X63071428Y-83461942D01*
X62999999Y-83319085D01*
X62999999Y-82747657D01*
X63071428Y-82604800D01*
X63214285Y-82533371D01*
X63499999Y-82533371D01*
X63642857Y-82604800D01*
X63714285Y-82747657D01*
X63714285Y-82890514D01*
X62999999Y-83033371D01*
X64357142Y-83533371D02*
X64357142Y-82533371D01*
X64357142Y-82819085D02*
X64428571Y-82676228D01*
X64499999Y-82604800D01*
X64642857Y-82533371D01*
X64785714Y-82533371D01*
X66928571Y-82747657D02*
X67142857Y-82819085D01*
X67214285Y-82890514D01*
X67285714Y-83033371D01*
X67285714Y-83247657D01*
X67214285Y-83390514D01*
X67142857Y-83461942D01*
X66999999Y-83533371D01*
X66428571Y-83533371D01*
X66428571Y-82033371D01*
X66928571Y-82033371D01*
X67071428Y-82104800D01*
X67142857Y-82176228D01*
X67214285Y-82319085D01*
X67214285Y-82461942D01*
X67142857Y-82604800D01*
X67071428Y-82676228D01*
X66928571Y-82747657D01*
X66428571Y-82747657D01*
X68142857Y-83533371D02*
X68000000Y-83461942D01*
X67928571Y-83390514D01*
X67857142Y-83247657D01*
X67857142Y-82819085D01*
X67928571Y-82676228D01*
X68000000Y-82604800D01*
X68142857Y-82533371D01*
X68357142Y-82533371D01*
X68500000Y-82604800D01*
X68571428Y-82676228D01*
X68642857Y-82819085D01*
X68642857Y-83247657D01*
X68571428Y-83390514D01*
X68500000Y-83461942D01*
X68357142Y-83533371D01*
X68142857Y-83533371D01*
X69928571Y-83533371D02*
X69928571Y-82747657D01*
X69857142Y-82604800D01*
X69714285Y-82533371D01*
X69428571Y-82533371D01*
X69285714Y-82604800D01*
X69928571Y-83461942D02*
X69785714Y-83533371D01*
X69428571Y-83533371D01*
X69285714Y-83461942D01*
X69214285Y-83319085D01*
X69214285Y-83176228D01*
X69285714Y-83033371D01*
X69428571Y-82961942D01*
X69785714Y-82961942D01*
X69928571Y-82890514D01*
X70642857Y-83533371D02*
X70642857Y-82533371D01*
X70642857Y-82819085D02*
X70714285Y-82676228D01*
X70785714Y-82604800D01*
X70928571Y-82533371D01*
X71071428Y-82533371D01*
X72214285Y-83533371D02*
X72214285Y-82033371D01*
X72214285Y-83461942D02*
X72071428Y-83533371D01*
X71785714Y-83533371D01*
X71642857Y-83461942D01*
X71571428Y-83390514D01*
X71500000Y-83247657D01*
X71500000Y-82819085D01*
X71571428Y-82676228D01*
X71642857Y-82604800D01*
X71785714Y-82533371D01*
X72071428Y-82533371D01*
X72214285Y-82604800D01*
X73928571Y-82533371D02*
X74285714Y-83533371D01*
X74642857Y-82533371D01*
X76000000Y-83533371D02*
X75142857Y-83533371D01*
X75571428Y-83533371D02*
X75571428Y-82033371D01*
X75428571Y-82247657D01*
X75285714Y-82390514D01*
X75142857Y-82461942D01*
X76642857Y-83390514D02*
X76714285Y-83461942D01*
X76642857Y-83533371D01*
X76571428Y-83461942D01*
X76642857Y-83390514D01*
X76642857Y-83533371D01*
X77285714Y-82176228D02*
X77357142Y-82104800D01*
X77500000Y-82033371D01*
X77857142Y-82033371D01*
X78000000Y-82104800D01*
X78071428Y-82176228D01*
X78142857Y-82319085D01*
X78142857Y-82461942D01*
X78071428Y-82676228D01*
X77214285Y-83533371D01*
X78142857Y-83533371D01*
X58821428Y-85372657D02*
X58321428Y-85372657D01*
X58321428Y-86158371D02*
X58321428Y-84658371D01*
X59035714Y-84658371D01*
X60250000Y-86158371D02*
X60250000Y-85372657D01*
X60178571Y-85229800D01*
X60035714Y-85158371D01*
X59750000Y-85158371D01*
X59607142Y-85229800D01*
X60250000Y-86086942D02*
X60107142Y-86158371D01*
X59750000Y-86158371D01*
X59607142Y-86086942D01*
X59535714Y-85944085D01*
X59535714Y-85801228D01*
X59607142Y-85658371D01*
X59750000Y-85586942D01*
X60107142Y-85586942D01*
X60250000Y-85515514D01*
X61178571Y-86158371D02*
X61035714Y-86086942D01*
X60964285Y-85944085D01*
X60964285Y-84658371D01*
X61964285Y-86158371D02*
X61821428Y-86086942D01*
X61750000Y-85944085D01*
X61750000Y-84658371D01*
X63607142Y-84801228D02*
X63678571Y-84729800D01*
X63821428Y-84658371D01*
X64178571Y-84658371D01*
X64321428Y-84729800D01*
X64392857Y-84801228D01*
X64464285Y-84944085D01*
X64464285Y-85086942D01*
X64392857Y-85301228D01*
X63535714Y-86158371D01*
X64464285Y-86158371D01*
X65392857Y-84658371D02*
X65535714Y-84658371D01*
X65678571Y-84729800D01*
X65750000Y-84801228D01*
X65821428Y-84944085D01*
X65892857Y-85229800D01*
X65892857Y-85586942D01*
X65821428Y-85872657D01*
X65750000Y-86015514D01*
X65678571Y-86086942D01*
X65535714Y-86158371D01*
X65392857Y-86158371D01*
X65250000Y-86086942D01*
X65178571Y-86015514D01*
X65107142Y-85872657D01*
X65035714Y-85586942D01*
X65035714Y-85229800D01*
X65107142Y-84944085D01*
X65178571Y-84801228D01*
X65250000Y-84729800D01*
X65392857Y-84658371D01*
X66464285Y-84801228D02*
X66535714Y-84729800D01*
X66678571Y-84658371D01*
X67035714Y-84658371D01*
X67178571Y-84729800D01*
X67250000Y-84801228D01*
X67321428Y-84944085D01*
X67321428Y-85086942D01*
X67250000Y-85301228D01*
X66392857Y-86158371D01*
X67321428Y-86158371D01*
X68250000Y-84658371D02*
X68392857Y-84658371D01*
X68535714Y-84729800D01*
X68607142Y-84801228D01*
X68678571Y-84944085D01*
X68750000Y-85229800D01*
X68750000Y-85586942D01*
X68678571Y-85872657D01*
X68607142Y-86015514D01*
X68535714Y-86086942D01*
X68392857Y-86158371D01*
X68250000Y-86158371D01*
X68107142Y-86086942D01*
X68035714Y-86015514D01*
X67964285Y-85872657D01*
X67892857Y-85586942D01*
X67892857Y-85229800D01*
X67964285Y-84944085D01*
X68035714Y-84801228D01*
X68107142Y-84729800D01*
X68250000Y-84658371D01*
D12*
G36*
X66775022Y-69217039D02*
G01*
X67082668Y-69299318D01*
X67709242Y-69573482D01*
X68313510Y-69993275D01*
X68862345Y-70535341D01*
X68901770Y-70581975D01*
X69114432Y-70847321D01*
X69284812Y-71079225D01*
X69392543Y-71247853D01*
X69417260Y-71323370D01*
X69408479Y-71324302D01*
X69337298Y-71270987D01*
X69168916Y-71134039D01*
X68935169Y-70939479D01*
X68849559Y-70867442D01*
X68137133Y-70338873D01*
X67419895Y-69958433D01*
X66683426Y-69724838D01*
X65913309Y-69636807D01*
X65095127Y-69693057D01*
X64214463Y-69892308D01*
X63256897Y-70233276D01*
X62990314Y-70346400D01*
X62621517Y-70501373D01*
X62396415Y-70582557D01*
X62308855Y-70595023D01*
X62352683Y-70543842D01*
X62521746Y-70434085D01*
X62809890Y-70270824D01*
X63210962Y-70059130D01*
X63542334Y-69891458D01*
X64321464Y-69534603D01*
X65007658Y-69293189D01*
X65627555Y-69162760D01*
X66207797Y-69138863D01*
X66775022Y-69217039D01*
G37*
X66775022Y-69217039D02*
X67082668Y-69299318D01*
X67709242Y-69573482D01*
X68313510Y-69993275D01*
X68862345Y-70535341D01*
X68901770Y-70581975D01*
X69114432Y-70847321D01*
X69284812Y-71079225D01*
X69392543Y-71247853D01*
X69417260Y-71323370D01*
X69408479Y-71324302D01*
X69337298Y-71270987D01*
X69168916Y-71134039D01*
X68935169Y-70939479D01*
X68849559Y-70867442D01*
X68137133Y-70338873D01*
X67419895Y-69958433D01*
X66683426Y-69724838D01*
X65913309Y-69636807D01*
X65095127Y-69693057D01*
X64214463Y-69892308D01*
X63256897Y-70233276D01*
X62990314Y-70346400D01*
X62621517Y-70501373D01*
X62396415Y-70582557D01*
X62308855Y-70595023D01*
X62352683Y-70543842D01*
X62521746Y-70434085D01*
X62809890Y-70270824D01*
X63210962Y-70059130D01*
X63542334Y-69891458D01*
X64321464Y-69534603D01*
X65007658Y-69293189D01*
X65627555Y-69162760D01*
X66207797Y-69138863D01*
X66775022Y-69217039D01*
G36*
X62888000Y-72608171D02*
G01*
X63078544Y-72635224D01*
X63142975Y-72684973D01*
X63140591Y-72705834D01*
X63037889Y-72801847D01*
X62921868Y-72838722D01*
X62778364Y-72910816D01*
X62736844Y-73092722D01*
X62707513Y-73407587D01*
X62631073Y-73621292D01*
X62519432Y-73700663D01*
X62518575Y-73700667D01*
X62458213Y-73675620D01*
X62436959Y-73580418D01*
X62455037Y-73384973D01*
X62512673Y-73059193D01*
X62523775Y-73002167D01*
X62491544Y-72877742D01*
X62398463Y-72854000D01*
X62252358Y-72808815D01*
X62212284Y-72758517D01*
X62161169Y-72778527D01*
X62056145Y-72920276D01*
X61918902Y-73153984D01*
X61903930Y-73181851D01*
X61750318Y-73440806D01*
X61610268Y-73626760D01*
X61513380Y-73700593D01*
X61511376Y-73700667D01*
X61421830Y-73623915D01*
X61321428Y-73419296D01*
X61262341Y-73243136D01*
X61173659Y-72920851D01*
X61138360Y-72727502D01*
X61156067Y-72631449D01*
X61226406Y-72601054D01*
X61254720Y-72600000D01*
X61361642Y-72672943D01*
X61431125Y-72832834D01*
X61497921Y-73102998D01*
X61557097Y-73214036D01*
X61628480Y-73173914D01*
X61731897Y-72990599D01*
X61747167Y-72959834D01*
X61924694Y-72600000D01*
X62550069Y-72600000D01*
X62888000Y-72608171D01*
G37*
X62888000Y-72608171D02*
X63078544Y-72635224D01*
X63142975Y-72684973D01*
X63140591Y-72705834D01*
X63037889Y-72801847D01*
X62921868Y-72838722D01*
X62778364Y-72910816D01*
X62736844Y-73092722D01*
X62707513Y-73407587D01*
X62631073Y-73621292D01*
X62519432Y-73700663D01*
X62518575Y-73700667D01*
X62458213Y-73675620D01*
X62436959Y-73580418D01*
X62455037Y-73384973D01*
X62512673Y-73059193D01*
X62523775Y-73002167D01*
X62491544Y-72877742D01*
X62398463Y-72854000D01*
X62252358Y-72808815D01*
X62212284Y-72758517D01*
X62161169Y-72778527D01*
X62056145Y-72920276D01*
X61918902Y-73153984D01*
X61903930Y-73181851D01*
X61750318Y-73440806D01*
X61610268Y-73626760D01*
X61513380Y-73700593D01*
X61511376Y-73700667D01*
X61421830Y-73623915D01*
X61321428Y-73419296D01*
X61262341Y-73243136D01*
X61173659Y-72920851D01*
X61138360Y-72727502D01*
X61156067Y-72631449D01*
X61226406Y-72601054D01*
X61254720Y-72600000D01*
X61361642Y-72672943D01*
X61431125Y-72832834D01*
X61497921Y-73102998D01*
X61557097Y-73214036D01*
X61628480Y-73173914D01*
X61731897Y-72990599D01*
X61747167Y-72959834D01*
X61924694Y-72600000D01*
X62550069Y-72600000D01*
X62888000Y-72608171D01*
G36*
X59956219Y-72613596D02*
G01*
X60086244Y-72660668D01*
X60113334Y-72727000D01*
X60043050Y-72830509D01*
X59946916Y-72854000D01*
X59841195Y-72885175D01*
X59774996Y-73004676D01*
X59727834Y-73251465D01*
X59724342Y-73277334D01*
X59664866Y-73563175D01*
X59581182Y-73691210D01*
X59544148Y-73700667D01*
X59473253Y-73668698D01*
X59452093Y-73548218D01*
X59474936Y-73302366D01*
X59478334Y-73277334D01*
X59504950Y-73023201D01*
X59489181Y-72895507D01*
X59423926Y-72855076D01*
X59401612Y-72854000D01*
X59284343Y-72789644D01*
X59266667Y-72727000D01*
X59311986Y-72647135D01*
X59468894Y-72608127D01*
X59690000Y-72600000D01*
X59956219Y-72613596D01*
G37*
X59956219Y-72613596D02*
X60086244Y-72660668D01*
X60113334Y-72727000D01*
X60043050Y-72830509D01*
X59946916Y-72854000D01*
X59841195Y-72885175D01*
X59774996Y-73004676D01*
X59727834Y-73251465D01*
X59724342Y-73277334D01*
X59664866Y-73563175D01*
X59581182Y-73691210D01*
X59544148Y-73700667D01*
X59473253Y-73668698D01*
X59452093Y-73548218D01*
X59474936Y-73302366D01*
X59478334Y-73277334D01*
X59504950Y-73023201D01*
X59489181Y-72895507D01*
X59423926Y-72855076D01*
X59401612Y-72854000D01*
X59284343Y-72789644D01*
X59266667Y-72727000D01*
X59311986Y-72647135D01*
X59468894Y-72608127D01*
X59690000Y-72600000D01*
X59956219Y-72613596D01*
G36*
X60917135Y-72643696D02*
G01*
X60938412Y-72705834D01*
X60835971Y-72788619D01*
X60706000Y-72811667D01*
X60523919Y-72851982D01*
X60489271Y-72948427D01*
X60607901Y-73064247D01*
X60661474Y-73091596D01*
X60835609Y-73239319D01*
X60860343Y-73428490D01*
X60733769Y-73617372D01*
X60687161Y-73653533D01*
X60476083Y-73767544D01*
X60304919Y-73759270D01*
X60208320Y-73708836D01*
X60127683Y-73607447D01*
X60182926Y-73527410D01*
X60340992Y-73501665D01*
X60407646Y-73510225D01*
X60575718Y-73500631D01*
X60621882Y-73415169D01*
X60542230Y-73299420D01*
X60431328Y-73233910D01*
X60255049Y-73084940D01*
X60212433Y-72884311D01*
X60286042Y-72722933D01*
X60414838Y-72644772D01*
X60601927Y-72604491D01*
X60788847Y-72603621D01*
X60917135Y-72643696D01*
G37*
X60917135Y-72643696D02*
X60938412Y-72705834D01*
X60835971Y-72788619D01*
X60706000Y-72811667D01*
X60523919Y-72851982D01*
X60489271Y-72948427D01*
X60607901Y-73064247D01*
X60661474Y-73091596D01*
X60835609Y-73239319D01*
X60860343Y-73428490D01*
X60733769Y-73617372D01*
X60687161Y-73653533D01*
X60476083Y-73767544D01*
X60304919Y-73759270D01*
X60208320Y-73708836D01*
X60127683Y-73607447D01*
X60182926Y-73527410D01*
X60340992Y-73501665D01*
X60407646Y-73510225D01*
X60575718Y-73500631D01*
X60621882Y-73415169D01*
X60542230Y-73299420D01*
X60431328Y-73233910D01*
X60255049Y-73084940D01*
X60212433Y-72884311D01*
X60286042Y-72722933D01*
X60414838Y-72644772D01*
X60601927Y-72604491D01*
X60788847Y-72603621D01*
X60917135Y-72643696D01*
G36*
X59078617Y-72669315D02*
G01*
X59095314Y-72748167D01*
X59071556Y-72962794D01*
X59016406Y-73222471D01*
X58947108Y-73460123D01*
X58880907Y-73608676D01*
X58871082Y-73620361D01*
X58681009Y-73715001D01*
X58432331Y-73743677D01*
X58229500Y-73695932D01*
X58130859Y-73560585D01*
X58080401Y-73336812D01*
X58075347Y-73076811D01*
X58112919Y-72832782D01*
X58190335Y-72656923D01*
X58287858Y-72600000D01*
X58347526Y-72658109D01*
X58364710Y-72846093D01*
X58352373Y-73073009D01*
X58334174Y-73340789D01*
X58346265Y-73478448D01*
X58402683Y-73524415D01*
X58514740Y-73517509D01*
X58638993Y-73475283D01*
X58717221Y-73363762D01*
X58774798Y-73139613D01*
X58791741Y-73044500D01*
X58861395Y-72758155D01*
X58945765Y-72613690D01*
X58982241Y-72600000D01*
X59078617Y-72669315D01*
G37*
X59078617Y-72669315D02*
X59095314Y-72748167D01*
X59071556Y-72962794D01*
X59016406Y-73222471D01*
X58947108Y-73460123D01*
X58880907Y-73608676D01*
X58871082Y-73620361D01*
X58681009Y-73715001D01*
X58432331Y-73743677D01*
X58229500Y-73695932D01*
X58130859Y-73560585D01*
X58080401Y-73336812D01*
X58075347Y-73076811D01*
X58112919Y-72832782D01*
X58190335Y-72656923D01*
X58287858Y-72600000D01*
X58347526Y-72658109D01*
X58364710Y-72846093D01*
X58352373Y-73073009D01*
X58334174Y-73340789D01*
X58346265Y-73478448D01*
X58402683Y-73524415D01*
X58514740Y-73517509D01*
X58638993Y-73475283D01*
X58717221Y-73363762D01*
X58774798Y-73139613D01*
X58791741Y-73044500D01*
X58861395Y-72758155D01*
X58945765Y-72613690D01*
X58982241Y-72600000D01*
X59078617Y-72669315D01*
G36*
X62503943Y-71355662D02*
G01*
X64118301Y-71409837D01*
X65886221Y-71495813D01*
X67806529Y-71613673D01*
X68072000Y-71631663D01*
X68724946Y-71677680D01*
X69415556Y-71728602D01*
X70093333Y-71780553D01*
X70707778Y-71829655D01*
X71208393Y-71872030D01*
X71247000Y-71875458D01*
X72517000Y-71988801D01*
X70612000Y-71934567D01*
X69795080Y-71914732D01*
X68909053Y-71899324D01*
X67973882Y-71888234D01*
X67009527Y-71881357D01*
X66035950Y-71878585D01*
X65073113Y-71879811D01*
X64140978Y-71884927D01*
X63259507Y-71893828D01*
X62448660Y-71906404D01*
X61728401Y-71922551D01*
X61118690Y-71942159D01*
X60639489Y-71965123D01*
X60325000Y-71989767D01*
X59350440Y-72109425D01*
X58537746Y-72242204D01*
X57879780Y-72390644D01*
X57369406Y-72557283D01*
X56999487Y-72744661D01*
X56762886Y-72955318D01*
X56652467Y-73191793D01*
X56642000Y-73300189D01*
X56691925Y-73542824D01*
X56812500Y-73786887D01*
X56817099Y-73793430D01*
X56915263Y-73945554D01*
X56925725Y-74013634D01*
X56835276Y-73995003D01*
X56630705Y-73886997D01*
X56303334Y-73689745D01*
X55874626Y-73399938D01*
X55510792Y-73105182D01*
X55238285Y-72829932D01*
X55083559Y-72598643D01*
X55064892Y-72544878D01*
X55078979Y-72285570D01*
X55258382Y-72057240D01*
X55601926Y-71859968D01*
X56108435Y-71693839D01*
X56776734Y-71558934D01*
X57605647Y-71455336D01*
X58594000Y-71383127D01*
X59740618Y-71342390D01*
X61044323Y-71333208D01*
X62503943Y-71355662D01*
G37*
X62503943Y-71355662D02*
X64118301Y-71409837D01*
X65886221Y-71495813D01*
X67806529Y-71613673D01*
X68072000Y-71631663D01*
X68724946Y-71677680D01*
X69415556Y-71728602D01*
X70093333Y-71780553D01*
X70707778Y-71829655D01*
X71208393Y-71872030D01*
X71247000Y-71875458D01*
X72517000Y-71988801D01*
X70612000Y-71934567D01*
X69795080Y-71914732D01*
X68909053Y-71899324D01*
X67973882Y-71888234D01*
X67009527Y-71881357D01*
X66035950Y-71878585D01*
X65073113Y-71879811D01*
X64140978Y-71884927D01*
X63259507Y-71893828D01*
X62448660Y-71906404D01*
X61728401Y-71922551D01*
X61118690Y-71942159D01*
X60639489Y-71965123D01*
X60325000Y-71989767D01*
X59350440Y-72109425D01*
X58537746Y-72242204D01*
X57879780Y-72390644D01*
X57369406Y-72557283D01*
X56999487Y-72744661D01*
X56762886Y-72955318D01*
X56652467Y-73191793D01*
X56642000Y-73300189D01*
X56691925Y-73542824D01*
X56812500Y-73786887D01*
X56817099Y-73793430D01*
X56915263Y-73945554D01*
X56925725Y-74013634D01*
X56835276Y-73995003D01*
X56630705Y-73886997D01*
X56303334Y-73689745D01*
X55874626Y-73399938D01*
X55510792Y-73105182D01*
X55238285Y-72829932D01*
X55083559Y-72598643D01*
X55064892Y-72544878D01*
X55078979Y-72285570D01*
X55258382Y-72057240D01*
X55601926Y-71859968D01*
X56108435Y-71693839D01*
X56776734Y-71558934D01*
X57605647Y-71455336D01*
X58594000Y-71383127D01*
X59740618Y-71342390D01*
X61044323Y-71333208D01*
X62503943Y-71355662D01*
G36*
X67726616Y-72194884D02*
G01*
X68493095Y-72276699D01*
X69164321Y-72421139D01*
X69299667Y-72462989D01*
X69936279Y-72719973D01*
X70431666Y-73017975D01*
X70781375Y-73348364D01*
X70980952Y-73702511D01*
X71025944Y-74071786D01*
X70911897Y-74447560D01*
X70634357Y-74821203D01*
X70556059Y-74897501D01*
X70096706Y-75219800D01*
X69514328Y-75461745D01*
X68838434Y-75616518D01*
X68098531Y-75677305D01*
X67343722Y-75639577D01*
X66951259Y-75575619D01*
X66545114Y-75480150D01*
X66273042Y-75394726D01*
X65904244Y-75230908D01*
X65502742Y-75011585D01*
X65119164Y-74768294D01*
X64804138Y-74532570D01*
X64643000Y-74379358D01*
X64473667Y-74185501D01*
X64727667Y-74314686D01*
X65382755Y-74577412D01*
X66126130Y-74757303D01*
X66915448Y-74852579D01*
X67708366Y-74861459D01*
X68462542Y-74782163D01*
X69135632Y-74612909D01*
X69392139Y-74510870D01*
X69818518Y-74268059D01*
X70080214Y-74008225D01*
X70180009Y-73739425D01*
X70120686Y-73469717D01*
X69905027Y-73207160D01*
X69535815Y-72959810D01*
X69015831Y-72735726D01*
X68749334Y-72649350D01*
X67933203Y-72475229D01*
X67030398Y-72402743D01*
X66088694Y-72430587D01*
X65155866Y-72557453D01*
X64314889Y-72770601D01*
X63982610Y-72873953D01*
X63717131Y-72949913D01*
X63554974Y-72988382D01*
X63522758Y-72989647D01*
X63565005Y-72935450D01*
X63738575Y-72848737D01*
X64011235Y-72740844D01*
X64350752Y-72623111D01*
X64724894Y-72506876D01*
X65101428Y-72403478D01*
X65366657Y-72341034D01*
X66112297Y-72225467D01*
X66915983Y-72177279D01*
X67726616Y-72194884D01*
G37*
X67726616Y-72194884D02*
X68493095Y-72276699D01*
X69164321Y-72421139D01*
X69299667Y-72462989D01*
X69936279Y-72719973D01*
X70431666Y-73017975D01*
X70781375Y-73348364D01*
X70980952Y-73702511D01*
X71025944Y-74071786D01*
X70911897Y-74447560D01*
X70634357Y-74821203D01*
X70556059Y-74897501D01*
X70096706Y-75219800D01*
X69514328Y-75461745D01*
X68838434Y-75616518D01*
X68098531Y-75677305D01*
X67343722Y-75639577D01*
X66951259Y-75575619D01*
X66545114Y-75480150D01*
X66273042Y-75394726D01*
X65904244Y-75230908D01*
X65502742Y-75011585D01*
X65119164Y-74768294D01*
X64804138Y-74532570D01*
X64643000Y-74379358D01*
X64473667Y-74185501D01*
X64727667Y-74314686D01*
X65382755Y-74577412D01*
X66126130Y-74757303D01*
X66915448Y-74852579D01*
X67708366Y-74861459D01*
X68462542Y-74782163D01*
X69135632Y-74612909D01*
X69392139Y-74510870D01*
X69818518Y-74268059D01*
X70080214Y-74008225D01*
X70180009Y-73739425D01*
X70120686Y-73469717D01*
X69905027Y-73207160D01*
X69535815Y-72959810D01*
X69015831Y-72735726D01*
X68749334Y-72649350D01*
X67933203Y-72475229D01*
X67030398Y-72402743D01*
X66088694Y-72430587D01*
X65155866Y-72557453D01*
X64314889Y-72770601D01*
X63982610Y-72873953D01*
X63717131Y-72949913D01*
X63554974Y-72988382D01*
X63522758Y-72989647D01*
X63565005Y-72935450D01*
X63738575Y-72848737D01*
X64011235Y-72740844D01*
X64350752Y-72623111D01*
X64724894Y-72506876D01*
X65101428Y-72403478D01*
X65366657Y-72341034D01*
X66112297Y-72225467D01*
X66915983Y-72177279D01*
X67726616Y-72194884D01*
G36*
X64448417Y-73559313D02*
G01*
X64264990Y-73693627D01*
X63994708Y-73878048D01*
X63666558Y-74093760D01*
X63309526Y-74321948D01*
X62952599Y-74543795D01*
X62624765Y-74740486D01*
X62387621Y-74875489D01*
X61640408Y-75242640D01*
X60910966Y-75521038D01*
X60222950Y-75705144D01*
X59600012Y-75789424D01*
X59065807Y-75768339D01*
X58820343Y-75710469D01*
X58336869Y-75464277D01*
X57935459Y-75072205D01*
X57649551Y-74600429D01*
X57534503Y-74333420D01*
X57451827Y-74097845D01*
X57405925Y-73918973D01*
X57401199Y-73822074D01*
X57442050Y-73832418D01*
X57532879Y-73975274D01*
X57544449Y-73997000D01*
X57877640Y-74460842D01*
X58326388Y-74834930D01*
X58462334Y-74914921D01*
X58635425Y-74996448D01*
X58820015Y-75049418D01*
X59057005Y-75079376D01*
X59387296Y-75091869D01*
X59774667Y-75092887D01*
X60236913Y-75085070D01*
X60592277Y-75060514D01*
X60903059Y-75009661D01*
X61231558Y-74922955D01*
X61552667Y-74820125D01*
X61945692Y-74674784D01*
X62427735Y-74474941D01*
X62938793Y-74246511D01*
X63418863Y-74015408D01*
X63436500Y-74006512D01*
X63820340Y-73814671D01*
X64144034Y-73657028D01*
X64380927Y-73546240D01*
X64504364Y-73494964D01*
X64516000Y-73493923D01*
X64448417Y-73559313D01*
G37*
X64448417Y-73559313D02*
X64264990Y-73693627D01*
X63994708Y-73878048D01*
X63666558Y-74093760D01*
X63309526Y-74321948D01*
X62952599Y-74543795D01*
X62624765Y-74740486D01*
X62387621Y-74875489D01*
X61640408Y-75242640D01*
X60910966Y-75521038D01*
X60222950Y-75705144D01*
X59600012Y-75789424D01*
X59065807Y-75768339D01*
X58820343Y-75710469D01*
X58336869Y-75464277D01*
X57935459Y-75072205D01*
X57649551Y-74600429D01*
X57534503Y-74333420D01*
X57451827Y-74097845D01*
X57405925Y-73918973D01*
X57401199Y-73822074D01*
X57442050Y-73832418D01*
X57532879Y-73975274D01*
X57544449Y-73997000D01*
X57877640Y-74460842D01*
X58326388Y-74834930D01*
X58462334Y-74914921D01*
X58635425Y-74996448D01*
X58820015Y-75049418D01*
X59057005Y-75079376D01*
X59387296Y-75091869D01*
X59774667Y-75092887D01*
X60236913Y-75085070D01*
X60592277Y-75060514D01*
X60903059Y-75009661D01*
X61231558Y-74922955D01*
X61552667Y-74820125D01*
X61945692Y-74674784D01*
X62427735Y-74474941D01*
X62938793Y-74246511D01*
X63418863Y-74015408D01*
X63436500Y-74006512D01*
X63820340Y-73814671D01*
X64144034Y-73657028D01*
X64380927Y-73546240D01*
X64504364Y-73494964D01*
X64516000Y-73493923D01*
X64448417Y-73559313D01*
D13*
X190255000Y-68620000D02*
X190275000Y-68620000D01*
X190255000Y-68120000D02*
X190255000Y-68620000D01*
X197285000Y-68120000D02*
X190255000Y-68120000D01*
X197285000Y-68620000D02*
X197285000Y-68120000D01*
X197265000Y-68620000D02*
X197285000Y-68620000D01*
X188835000Y-64030000D02*
X188835000Y-67105000D01*
X198705000Y-64030000D02*
X188835000Y-64030000D01*
X198705000Y-67105000D02*
X198705000Y-64030000D01*
X204987000Y-68620000D02*
X205007000Y-68620000D01*
X204987000Y-68120000D02*
X204987000Y-68620000D01*
X212017000Y-68120000D02*
X204987000Y-68120000D01*
X212017000Y-68620000D02*
X212017000Y-68120000D01*
X211997000Y-68620000D02*
X212017000Y-68620000D01*
X203567000Y-64030000D02*
X203567000Y-67105000D01*
X213437000Y-64030000D02*
X203567000Y-64030000D01*
X213437000Y-67105000D02*
X213437000Y-64030000D01*
X220219000Y-68620000D02*
X220239000Y-68620000D01*
X220219000Y-68120000D02*
X220219000Y-68620000D01*
X227249000Y-68120000D02*
X220219000Y-68120000D01*
X227249000Y-68620000D02*
X227249000Y-68120000D01*
X227229000Y-68620000D02*
X227249000Y-68620000D01*
X218799000Y-64030000D02*
X218799000Y-67105000D01*
X228669000Y-64030000D02*
X218799000Y-64030000D01*
X228669000Y-67105000D02*
X228669000Y-64030000D01*
X227265000Y-115911000D02*
X227245000Y-115911000D01*
X227265000Y-116411000D02*
X227265000Y-115911000D01*
X220235000Y-116411000D02*
X227265000Y-116411000D01*
X220235000Y-115911000D02*
X220235000Y-116411000D01*
X220255000Y-115911000D02*
X220235000Y-115911000D01*
X228685000Y-120501000D02*
X228685000Y-117426000D01*
X218815000Y-120501000D02*
X228685000Y-120501000D01*
X218815000Y-117426000D02*
X218815000Y-120501000D01*
X212025000Y-115911000D02*
X212005000Y-115911000D01*
X212025000Y-116411000D02*
X212025000Y-115911000D01*
X204995000Y-116411000D02*
X212025000Y-116411000D01*
X204995000Y-115911000D02*
X204995000Y-116411000D01*
X205015000Y-115911000D02*
X204995000Y-115911000D01*
X213445000Y-120501000D02*
X213445000Y-117426000D01*
X203575000Y-120501000D02*
X213445000Y-120501000D01*
X203575000Y-117426000D02*
X203575000Y-120501000D01*
X196785000Y-115911000D02*
X196765000Y-115911000D01*
X196785000Y-116411000D02*
X196785000Y-115911000D01*
X189755000Y-116411000D02*
X196785000Y-116411000D01*
X189755000Y-115911000D02*
X189755000Y-116411000D01*
X189775000Y-115911000D02*
X189755000Y-115911000D01*
X198205000Y-120501000D02*
X198205000Y-117426000D01*
X188335000Y-120501000D02*
X198205000Y-120501000D01*
X188335000Y-117426000D02*
X188335000Y-120501000D01*
X88558600Y-68645400D02*
X88578600Y-68645400D01*
X88558600Y-68145400D02*
X88558600Y-68645400D01*
X95588600Y-68145400D02*
X88558600Y-68145400D01*
X95588600Y-68645400D02*
X95588600Y-68145400D01*
X95568600Y-68645400D02*
X95588600Y-68645400D01*
X87138600Y-64055400D02*
X87138600Y-67130400D01*
X97008600Y-64055400D02*
X87138600Y-64055400D01*
X97008600Y-67130400D02*
X97008600Y-64055400D01*
X103316000Y-68645400D02*
X103336000Y-68645400D01*
X103316000Y-68145400D02*
X103316000Y-68645400D01*
X110346000Y-68145400D02*
X103316000Y-68145400D01*
X110346000Y-68645400D02*
X110346000Y-68145400D01*
X110326000Y-68645400D02*
X110346000Y-68645400D01*
X101896000Y-64055400D02*
X101896000Y-67130400D01*
X111766000Y-64055400D02*
X101896000Y-64055400D01*
X111766000Y-67130400D02*
X111766000Y-64055400D01*
X117768600Y-68645400D02*
X117788600Y-68645400D01*
X117768600Y-68145400D02*
X117768600Y-68645400D01*
X124798600Y-68145400D02*
X117768600Y-68145400D01*
X124798600Y-68645400D02*
X124798600Y-68145400D01*
X124778600Y-68645400D02*
X124798600Y-68645400D01*
X116348600Y-64055400D02*
X116348600Y-67130400D01*
X126218600Y-64055400D02*
X116348600Y-64055400D01*
X126218600Y-67130400D02*
X126218600Y-64055400D01*
X132602200Y-68645400D02*
X132622200Y-68645400D01*
X132602200Y-68145400D02*
X132602200Y-68645400D01*
X139632200Y-68145400D02*
X132602200Y-68145400D01*
X139632200Y-68645400D02*
X139632200Y-68145400D01*
X139612200Y-68645400D02*
X139632200Y-68645400D01*
X131182200Y-64055400D02*
X131182200Y-67130400D01*
X141052200Y-64055400D02*
X131182200Y-64055400D01*
X141052200Y-67130400D02*
X141052200Y-64055400D01*
X147334200Y-68645400D02*
X147354200Y-68645400D01*
X147334200Y-68145400D02*
X147334200Y-68645400D01*
X154364200Y-68145400D02*
X147334200Y-68145400D01*
X154364200Y-68645400D02*
X154364200Y-68145400D01*
X154344200Y-68645400D02*
X154364200Y-68645400D01*
X145914200Y-64055400D02*
X145914200Y-67130400D01*
X155784200Y-64055400D02*
X145914200Y-64055400D01*
X155784200Y-67130400D02*
X155784200Y-64055400D01*
X154011400Y-115911000D02*
X153991400Y-115911000D01*
X154011400Y-116411000D02*
X154011400Y-115911000D01*
X146981400Y-116411000D02*
X154011400Y-116411000D01*
X146981400Y-115911000D02*
X146981400Y-116411000D01*
X147001400Y-115911000D02*
X146981400Y-115911000D01*
X155431400Y-120501000D02*
X155431400Y-117426000D01*
X145561400Y-120501000D02*
X155431400Y-120501000D01*
X145561400Y-117426000D02*
X145561400Y-120501000D01*
X139152400Y-115911000D02*
X139132400Y-115911000D01*
X139152400Y-116411000D02*
X139152400Y-115911000D01*
X132122400Y-116411000D02*
X139152400Y-116411000D01*
X132122400Y-115911000D02*
X132122400Y-116411000D01*
X132142400Y-115911000D02*
X132122400Y-115911000D01*
X140572400Y-120501000D02*
X140572400Y-117426000D01*
X130702400Y-120501000D02*
X140572400Y-120501000D01*
X130702400Y-117426000D02*
X130702400Y-120501000D01*
X124369600Y-115911000D02*
X124349600Y-115911000D01*
X124369600Y-116411000D02*
X124369600Y-115911000D01*
X117339600Y-116411000D02*
X124369600Y-116411000D01*
X117339600Y-115911000D02*
X117339600Y-116411000D01*
X117359600Y-115911000D02*
X117339600Y-115911000D01*
X125789600Y-120501000D02*
X125789600Y-117426000D01*
X115919600Y-120501000D02*
X125789600Y-120501000D01*
X115919600Y-117426000D02*
X115919600Y-120501000D01*
X109917000Y-115911000D02*
X109897000Y-115911000D01*
X109917000Y-116411000D02*
X109917000Y-115911000D01*
X102887000Y-116411000D02*
X109917000Y-116411000D01*
X102887000Y-115911000D02*
X102887000Y-116411000D01*
X102907000Y-115911000D02*
X102887000Y-115911000D01*
X111337000Y-120501000D02*
X111337000Y-117426000D01*
X101467000Y-120501000D02*
X111337000Y-120501000D01*
X101467000Y-117426000D02*
X101467000Y-120501000D01*
X95235800Y-115911000D02*
X95215800Y-115911000D01*
X95235800Y-116411000D02*
X95235800Y-115911000D01*
X88205800Y-116411000D02*
X95235800Y-116411000D01*
X88205800Y-115911000D02*
X88205800Y-116411000D01*
X88225800Y-115911000D02*
X88205800Y-115911000D01*
X96655800Y-120501000D02*
X96655800Y-117426000D01*
X86785800Y-120501000D02*
X96655800Y-120501000D01*
X86785800Y-117426000D02*
X86785800Y-120501000D01*
X200660000Y-83640400D02*
X200660000Y-82690400D01*
X200660000Y-77900400D02*
X200660000Y-78850400D01*
X201580000Y-82690400D02*
X201580000Y-78850400D01*
X199740000Y-82690400D02*
X201580000Y-82690400D01*
X199740000Y-78850400D02*
X199740000Y-82690400D01*
X201580000Y-78850400D02*
X199740000Y-78850400D01*
X215900000Y-83640400D02*
X215900000Y-82690400D01*
X215900000Y-77900400D02*
X215900000Y-78850400D01*
X216820000Y-82690400D02*
X216820000Y-78850400D01*
X214980000Y-82690400D02*
X216820000Y-82690400D01*
X214980000Y-78850400D02*
X214980000Y-82690400D01*
X216820000Y-78850400D02*
X214980000Y-78850400D01*
X231140000Y-83640400D02*
X231140000Y-82690400D01*
X231140000Y-77900400D02*
X231140000Y-78850400D01*
X232060000Y-82690400D02*
X232060000Y-78850400D01*
X230220000Y-82690400D02*
X232060000Y-82690400D01*
X230220000Y-78850400D02*
X230220000Y-82690400D01*
X232060000Y-78850400D02*
X230220000Y-78850400D01*
X231140000Y-103810000D02*
X231140000Y-104760000D01*
X231140000Y-109550000D02*
X231140000Y-108600000D01*
X230220000Y-104760000D02*
X230220000Y-108600000D01*
X232060000Y-104760000D02*
X230220000Y-104760000D01*
X232060000Y-108600000D02*
X232060000Y-104760000D01*
X230220000Y-108600000D02*
X232060000Y-108600000D01*
X215900000Y-103810000D02*
X215900000Y-104760000D01*
X215900000Y-109550000D02*
X215900000Y-108600000D01*
X214980000Y-104760000D02*
X214980000Y-108600000D01*
X216820000Y-104760000D02*
X214980000Y-104760000D01*
X216820000Y-108600000D02*
X216820000Y-104760000D01*
X214980000Y-108600000D02*
X216820000Y-108600000D01*
X200660000Y-103810000D02*
X200660000Y-104760000D01*
X200660000Y-109550000D02*
X200660000Y-108600000D01*
X199740000Y-104760000D02*
X199740000Y-108600000D01*
X201580000Y-104760000D02*
X199740000Y-104760000D01*
X201580000Y-108600000D02*
X201580000Y-104760000D01*
X199740000Y-108600000D02*
X201580000Y-108600000D01*
X191470000Y-83406400D02*
X191470000Y-80206400D01*
X195470000Y-80206400D02*
X195470000Y-83406400D01*
X193470000Y-82556400D02*
X193470000Y-81056400D01*
X190000000Y-73706400D02*
X190000000Y-89906400D01*
X196940000Y-73706400D02*
X190000000Y-73706400D01*
X196940000Y-89906400D02*
X196940000Y-73706400D01*
X190000000Y-89906400D02*
X196940000Y-89906400D01*
X206252600Y-83406400D02*
X206252600Y-80206400D01*
X210252600Y-80206400D02*
X210252600Y-83406400D01*
X208252600Y-82556400D02*
X208252600Y-81056400D01*
X204782600Y-73706400D02*
X204782600Y-89906400D01*
X211722600Y-73706400D02*
X204782600Y-73706400D01*
X211722600Y-89906400D02*
X211722600Y-73706400D01*
X204782600Y-89906400D02*
X211722600Y-89906400D01*
X221450000Y-83406400D02*
X221450000Y-80206400D01*
X225450000Y-80206400D02*
X225450000Y-83406400D01*
X223450000Y-82556400D02*
X223450000Y-81056400D01*
X219980000Y-73706400D02*
X219980000Y-89906400D01*
X226920000Y-73706400D02*
X219980000Y-73706400D01*
X226920000Y-89906400D02*
X226920000Y-73706400D01*
X219980000Y-89906400D02*
X226920000Y-89906400D01*
X225450000Y-104126400D02*
X225450000Y-107326400D01*
X221450000Y-107326400D02*
X221450000Y-104126400D01*
X223450000Y-104976400D02*
X223450000Y-106476400D01*
X226920000Y-113826400D02*
X226920000Y-97626400D01*
X219980000Y-113826400D02*
X226920000Y-113826400D01*
X219980000Y-97626400D02*
X219980000Y-113826400D01*
X226920000Y-97626400D02*
X219980000Y-97626400D01*
X210252600Y-104126400D02*
X210252600Y-107326400D01*
X206252600Y-107326400D02*
X206252600Y-104126400D01*
X208252600Y-104976400D02*
X208252600Y-106476400D01*
X211722600Y-113826400D02*
X211722600Y-97626400D01*
X204782600Y-113826400D02*
X211722600Y-113826400D01*
X204782600Y-97626400D02*
X204782600Y-113826400D01*
X211722600Y-97626400D02*
X204782600Y-97626400D01*
X196940000Y-97626400D02*
X190000000Y-97626400D01*
X190000000Y-97626400D02*
X190000000Y-113826400D01*
X190000000Y-113826400D02*
X196940000Y-113826400D01*
X196940000Y-113826400D02*
X196940000Y-97626400D01*
X193470000Y-104976400D02*
X193470000Y-106476400D01*
X191470000Y-107326400D02*
X191470000Y-104126400D01*
X195470000Y-104126400D02*
X195470000Y-107326400D01*
X199580000Y-86806600D02*
X199424000Y-86806600D01*
X201896000Y-86806600D02*
X201740000Y-86806600D01*
X199580163Y-89407730D02*
G75*
G02X199580000Y-87325639I1079837J1041130D01*
G01*
X201739837Y-89407730D02*
G75*
G03X201740000Y-87325639I-1079837J1041130D01*
G01*
X199581392Y-90038935D02*
G75*
G02X199424484Y-86806600I1078608J1672335D01*
G01*
X201738608Y-90038935D02*
G75*
G03X201895516Y-86806600I-1078608J1672335D01*
G01*
X214820000Y-86806600D02*
X214664000Y-86806600D01*
X217136000Y-86806600D02*
X216980000Y-86806600D01*
X214820163Y-89407730D02*
G75*
G02X214820000Y-87325639I1079837J1041130D01*
G01*
X216979837Y-89407730D02*
G75*
G03X216980000Y-87325639I-1079837J1041130D01*
G01*
X214821392Y-90038935D02*
G75*
G02X214664484Y-86806600I1078608J1672335D01*
G01*
X216978608Y-90038935D02*
G75*
G03X217135516Y-86806600I-1078608J1672335D01*
G01*
X230060000Y-86806600D02*
X229904000Y-86806600D01*
X232376000Y-86806600D02*
X232220000Y-86806600D01*
X230060163Y-89407730D02*
G75*
G02X230060000Y-87325639I1079837J1041130D01*
G01*
X232219837Y-89407730D02*
G75*
G03X232220000Y-87325639I-1079837J1041130D01*
G01*
X230061392Y-90038935D02*
G75*
G02X229904484Y-86806600I1078608J1672335D01*
G01*
X232218608Y-90038935D02*
G75*
G03X232375516Y-86806600I-1078608J1672335D01*
G01*
X232220000Y-100620000D02*
X232376000Y-100620000D01*
X229904000Y-100620000D02*
X230060000Y-100620000D01*
X232219837Y-98018870D02*
G75*
G02X232220000Y-100100961I-1079837J-1041130D01*
G01*
X230060163Y-98018870D02*
G75*
G03X230060000Y-100100961I1079837J-1041130D01*
G01*
X232218608Y-97387665D02*
G75*
G02X232375516Y-100620000I-1078608J-1672335D01*
G01*
X230061392Y-97387665D02*
G75*
G03X229904484Y-100620000I1078608J-1672335D01*
G01*
X216980000Y-100620000D02*
X217136000Y-100620000D01*
X214664000Y-100620000D02*
X214820000Y-100620000D01*
X216979837Y-98018870D02*
G75*
G02X216980000Y-100100961I-1079837J-1041130D01*
G01*
X214820163Y-98018870D02*
G75*
G03X214820000Y-100100961I1079837J-1041130D01*
G01*
X216978608Y-97387665D02*
G75*
G02X217135516Y-100620000I-1078608J-1672335D01*
G01*
X214821392Y-97387665D02*
G75*
G03X214664484Y-100620000I1078608J-1672335D01*
G01*
X201740000Y-100620000D02*
X201896000Y-100620000D01*
X199424000Y-100620000D02*
X199580000Y-100620000D01*
X201739837Y-98018870D02*
G75*
G02X201740000Y-100100961I-1079837J-1041130D01*
G01*
X199580163Y-98018870D02*
G75*
G03X199580000Y-100100961I1079837J-1041130D01*
G01*
X201738608Y-97387665D02*
G75*
G02X201895516Y-100620000I-1078608J-1672335D01*
G01*
X199581392Y-97387665D02*
G75*
G03X199424484Y-100620000I1078608J-1672335D01*
G01*
D10*
X46615880Y-122283920D02*
X46615880Y-93033920D01*
X77955880Y-122283920D02*
X46615880Y-122283920D01*
X77955880Y-93033920D02*
X77955880Y-122283920D01*
X46615880Y-93033920D02*
X77955880Y-93033920D01*
D13*
X99009200Y-103937000D02*
X99009200Y-104887000D01*
X99009200Y-109677000D02*
X99009200Y-108727000D01*
X98089200Y-104887000D02*
X98089200Y-108727000D01*
X99929200Y-104887000D02*
X98089200Y-104887000D01*
X99929200Y-108727000D02*
X99929200Y-104887000D01*
X98089200Y-108727000D02*
X99929200Y-108727000D01*
X112719600Y-108727000D02*
X114559600Y-108727000D01*
X114559600Y-108727000D02*
X114559600Y-104887000D01*
X114559600Y-104887000D02*
X112719600Y-104887000D01*
X112719600Y-104887000D02*
X112719600Y-108727000D01*
X113639600Y-109677000D02*
X113639600Y-108727000D01*
X113639600Y-103937000D02*
X113639600Y-104887000D01*
X128219200Y-103937000D02*
X128219200Y-104887000D01*
X128219200Y-109677000D02*
X128219200Y-108727000D01*
X127299200Y-104887000D02*
X127299200Y-108727000D01*
X129139200Y-104887000D02*
X127299200Y-104887000D01*
X129139200Y-108727000D02*
X129139200Y-104887000D01*
X127299200Y-108727000D02*
X129139200Y-108727000D01*
X142183600Y-108727000D02*
X144023600Y-108727000D01*
X144023600Y-108727000D02*
X144023600Y-104887000D01*
X144023600Y-104887000D02*
X142183600Y-104887000D01*
X142183600Y-104887000D02*
X142183600Y-108727000D01*
X143103600Y-109677000D02*
X143103600Y-108727000D01*
X143103600Y-103937000D02*
X143103600Y-104887000D01*
X158140400Y-103937000D02*
X158140400Y-104887000D01*
X158140400Y-109677000D02*
X158140400Y-108727000D01*
X157220400Y-104887000D02*
X157220400Y-108727000D01*
X159060400Y-104887000D02*
X157220400Y-104887000D01*
X159060400Y-108727000D02*
X159060400Y-104887000D01*
X157220400Y-108727000D02*
X159060400Y-108727000D01*
X158140400Y-83540400D02*
X158140400Y-82590400D01*
X158140400Y-77800400D02*
X158140400Y-78750400D01*
X159060400Y-82590400D02*
X159060400Y-78750400D01*
X157220400Y-82590400D02*
X159060400Y-82590400D01*
X157220400Y-78750400D02*
X157220400Y-82590400D01*
X159060400Y-78750400D02*
X157220400Y-78750400D01*
X144023600Y-78775800D02*
X142183600Y-78775800D01*
X142183600Y-78775800D02*
X142183600Y-82615800D01*
X142183600Y-82615800D02*
X144023600Y-82615800D01*
X144023600Y-82615800D02*
X144023600Y-78775800D01*
X143103600Y-77825800D02*
X143103600Y-78775800D01*
X143103600Y-83565800D02*
X143103600Y-82615800D01*
X128270000Y-83540400D02*
X128270000Y-82590400D01*
X128270000Y-77800400D02*
X128270000Y-78750400D01*
X129190000Y-82590400D02*
X129190000Y-78750400D01*
X127350000Y-82590400D02*
X129190000Y-82590400D01*
X127350000Y-78750400D02*
X127350000Y-82590400D01*
X129190000Y-78750400D02*
X127350000Y-78750400D01*
X114559600Y-78750400D02*
X112719600Y-78750400D01*
X112719600Y-78750400D02*
X112719600Y-82590400D01*
X112719600Y-82590400D02*
X114559600Y-82590400D01*
X114559600Y-82590400D02*
X114559600Y-78750400D01*
X113639600Y-77800400D02*
X113639600Y-78750400D01*
X113639600Y-83540400D02*
X113639600Y-82590400D01*
X98983800Y-83540400D02*
X98983800Y-82590400D01*
X98983800Y-77800400D02*
X98983800Y-78750400D01*
X99903800Y-82590400D02*
X99903800Y-78750400D01*
X98063800Y-82590400D02*
X99903800Y-82590400D01*
X98063800Y-78750400D02*
X98063800Y-82590400D01*
X99903800Y-78750400D02*
X98063800Y-78750400D01*
X119054600Y-83406400D02*
X119054600Y-80206400D01*
X123054600Y-80206400D02*
X123054600Y-83406400D01*
X121054600Y-82556400D02*
X121054600Y-81056400D01*
X117584600Y-73706400D02*
X117584600Y-89906400D01*
X124524600Y-73706400D02*
X117584600Y-73706400D01*
X124524600Y-89906400D02*
X124524600Y-73706400D01*
X117584600Y-89906400D02*
X124524600Y-89906400D01*
X104627400Y-83406400D02*
X104627400Y-80206400D01*
X108627400Y-80206400D02*
X108627400Y-83406400D01*
X106627400Y-82556400D02*
X106627400Y-81056400D01*
X103157400Y-73706400D02*
X103157400Y-89906400D01*
X110097400Y-73706400D02*
X103157400Y-73706400D01*
X110097400Y-89906400D02*
X110097400Y-73706400D01*
X103157400Y-89906400D02*
X110097400Y-89906400D01*
X100089200Y-89926600D02*
X100245200Y-89926600D01*
X97773200Y-89926600D02*
X97929200Y-89926600D01*
X100089037Y-87325470D02*
G75*
G02X100089200Y-89407561I-1079837J-1041130D01*
G01*
X97929363Y-87325470D02*
G75*
G03X97929200Y-89407561I1079837J-1041130D01*
G01*
X100087808Y-86694265D02*
G75*
G02X100244716Y-89926600I-1078608J-1672335D01*
G01*
X97930592Y-86694265D02*
G75*
G03X97773684Y-89926600I1078608J-1672335D01*
G01*
X100245200Y-97550800D02*
X100089200Y-97550800D01*
X97929200Y-97550800D02*
X97773200Y-97550800D01*
X100087808Y-100783135D02*
G75*
G03X100244716Y-97550800I-1078608J1672335D01*
G01*
X97930592Y-100783135D02*
G75*
G02X97773684Y-97550800I1078608J1672335D01*
G01*
X100089037Y-100151930D02*
G75*
G03X100089200Y-98069839I-1079837J1041130D01*
G01*
X97929363Y-100151930D02*
G75*
G02X97929200Y-98069839I1079837J1041130D01*
G01*
X112585000Y-97550800D02*
X112429000Y-97550800D01*
X114901000Y-97550800D02*
X114745000Y-97550800D01*
X112585163Y-100151930D02*
G75*
G02X112585000Y-98069839I1079837J1041130D01*
G01*
X114744837Y-100151930D02*
G75*
G03X114745000Y-98069839I-1079837J1041130D01*
G01*
X112586392Y-100783135D02*
G75*
G02X112429484Y-97550800I1078608J1672335D01*
G01*
X114743608Y-100783135D02*
G75*
G03X114900516Y-97550800I-1078608J1672335D01*
G01*
X127164600Y-97550800D02*
X127008600Y-97550800D01*
X129480600Y-97550800D02*
X129324600Y-97550800D01*
X127164763Y-100151930D02*
G75*
G02X127164600Y-98069839I1079837J1041130D01*
G01*
X129324437Y-100151930D02*
G75*
G03X129324600Y-98069839I-1079837J1041130D01*
G01*
X127165992Y-100783135D02*
G75*
G02X127009084Y-97550800I1078608J1672335D01*
G01*
X129323208Y-100783135D02*
G75*
G03X129480116Y-97550800I-1078608J1672335D01*
G01*
X144339600Y-97550800D02*
X144183600Y-97550800D01*
X142023600Y-97550800D02*
X141867600Y-97550800D01*
X144182208Y-100783135D02*
G75*
G03X144339116Y-97550800I-1078608J1672335D01*
G01*
X142024992Y-100783135D02*
G75*
G02X141868084Y-97550800I1078608J1672335D01*
G01*
X144183437Y-100151930D02*
G75*
G03X144183600Y-98069839I-1079837J1041130D01*
G01*
X142023763Y-100151930D02*
G75*
G02X142023600Y-98069839I1079837J1041130D01*
G01*
X157060400Y-97550800D02*
X156904400Y-97550800D01*
X159376400Y-97550800D02*
X159220400Y-97550800D01*
X157060563Y-100151930D02*
G75*
G02X157060400Y-98069839I1079837J1041130D01*
G01*
X159220237Y-100151930D02*
G75*
G03X159220400Y-98069839I-1079837J1041130D01*
G01*
X157061792Y-100783135D02*
G75*
G02X156904884Y-97550800I1078608J1672335D01*
G01*
X159219008Y-100783135D02*
G75*
G03X159375916Y-97550800I-1078608J1672335D01*
G01*
X159245800Y-89926600D02*
X159401800Y-89926600D01*
X156929800Y-89926600D02*
X157085800Y-89926600D01*
X159245637Y-87325470D02*
G75*
G02X159245800Y-89407561I-1079837J-1041130D01*
G01*
X157085963Y-87325470D02*
G75*
G03X157085800Y-89407561I1079837J-1041130D01*
G01*
X159244408Y-86694265D02*
G75*
G02X159401316Y-89926600I-1078608J-1672335D01*
G01*
X157087192Y-86694265D02*
G75*
G03X156930284Y-89926600I1078608J-1672335D01*
G01*
X141867600Y-89926600D02*
X142023600Y-89926600D01*
X144183600Y-89926600D02*
X144339600Y-89926600D01*
X142024992Y-86694265D02*
G75*
G03X141868084Y-89926600I1078608J-1672335D01*
G01*
X144182208Y-86694265D02*
G75*
G02X144339116Y-89926600I-1078608J-1672335D01*
G01*
X142023763Y-87325470D02*
G75*
G03X142023600Y-89407561I1079837J-1041130D01*
G01*
X144183437Y-87325470D02*
G75*
G02X144183600Y-89407561I-1079837J-1041130D01*
G01*
X129324600Y-89926600D02*
X129480600Y-89926600D01*
X127008600Y-89926600D02*
X127164600Y-89926600D01*
X129324437Y-87325470D02*
G75*
G02X129324600Y-89407561I-1079837J-1041130D01*
G01*
X127164763Y-87325470D02*
G75*
G03X127164600Y-89407561I1079837J-1041130D01*
G01*
X129323208Y-86694265D02*
G75*
G02X129480116Y-89926600I-1078608J-1672335D01*
G01*
X127165992Y-86694265D02*
G75*
G03X127009084Y-89926600I1078608J-1672335D01*
G01*
X114694200Y-89926600D02*
X114850200Y-89926600D01*
X112378200Y-89926600D02*
X112534200Y-89926600D01*
X114694037Y-87325470D02*
G75*
G02X114694200Y-89407561I-1079837J-1041130D01*
G01*
X112534363Y-87325470D02*
G75*
G03X112534200Y-89407561I1079837J-1041130D01*
G01*
X114692808Y-86694265D02*
G75*
G02X114849716Y-89926600I-1078608J-1672335D01*
G01*
X112535592Y-86694265D02*
G75*
G03X112378684Y-89926600I1078608J-1672335D01*
G01*
X95365400Y-97558300D02*
X88425400Y-97558300D01*
X88425400Y-97558300D02*
X88425400Y-113758300D01*
X88425400Y-113758300D02*
X95365400Y-113758300D01*
X95365400Y-113758300D02*
X95365400Y-97558300D01*
X91895400Y-104908300D02*
X91895400Y-106408300D01*
X89895400Y-107258300D02*
X89895400Y-104058300D01*
X93895400Y-104058300D02*
X93895400Y-107258300D01*
X110097400Y-97558300D02*
X103157400Y-97558300D01*
X103157400Y-97558300D02*
X103157400Y-113758300D01*
X103157400Y-113758300D02*
X110097400Y-113758300D01*
X110097400Y-113758300D02*
X110097400Y-97558300D01*
X106627400Y-104908300D02*
X106627400Y-106408300D01*
X104627400Y-107258300D02*
X104627400Y-104058300D01*
X108627400Y-104058300D02*
X108627400Y-107258300D01*
X123054600Y-104058300D02*
X123054600Y-107258300D01*
X119054600Y-107258300D02*
X119054600Y-104058300D01*
X121054600Y-104908300D02*
X121054600Y-106408300D01*
X124524600Y-113758300D02*
X124524600Y-97558300D01*
X117584600Y-113758300D02*
X124524600Y-113758300D01*
X117584600Y-97558300D02*
X117584600Y-113758300D01*
X124524600Y-97558300D02*
X117584600Y-97558300D01*
X139358400Y-97558300D02*
X132418400Y-97558300D01*
X132418400Y-97558300D02*
X132418400Y-113758300D01*
X132418400Y-113758300D02*
X139358400Y-113758300D01*
X139358400Y-113758300D02*
X139358400Y-97558300D01*
X135888400Y-104908300D02*
X135888400Y-106408300D01*
X133888400Y-107258300D02*
X133888400Y-104058300D01*
X137888400Y-104058300D02*
X137888400Y-107258300D01*
X154141000Y-97558300D02*
X147201000Y-97558300D01*
X147201000Y-97558300D02*
X147201000Y-113758300D01*
X147201000Y-113758300D02*
X154141000Y-113758300D01*
X154141000Y-113758300D02*
X154141000Y-97558300D01*
X150671000Y-104908300D02*
X150671000Y-106408300D01*
X148671000Y-107258300D02*
X148671000Y-104058300D01*
X152671000Y-104058300D02*
X152671000Y-107258300D01*
X148671000Y-83406400D02*
X148671000Y-80206400D01*
X152671000Y-80206400D02*
X152671000Y-83406400D01*
X150671000Y-82556400D02*
X150671000Y-81056400D01*
X147201000Y-73706400D02*
X147201000Y-89906400D01*
X154141000Y-73706400D02*
X147201000Y-73706400D01*
X154141000Y-89906400D02*
X154141000Y-73706400D01*
X147201000Y-89906400D02*
X154141000Y-89906400D01*
X133888400Y-83406400D02*
X133888400Y-80206400D01*
X137888400Y-80206400D02*
X137888400Y-83406400D01*
X135888400Y-82556400D02*
X135888400Y-81056400D01*
X132418400Y-73706400D02*
X132418400Y-89906400D01*
X139358400Y-73706400D02*
X132418400Y-73706400D01*
X139358400Y-89906400D02*
X139358400Y-73706400D01*
X132418400Y-89906400D02*
X139358400Y-89906400D01*
X89895400Y-83406400D02*
X89895400Y-80206400D01*
X93895400Y-80206400D02*
X93895400Y-83406400D01*
X91895400Y-82556400D02*
X91895400Y-81056400D01*
X88425400Y-73706400D02*
X88425400Y-89906400D01*
X95365400Y-73706400D02*
X88425400Y-73706400D01*
X95365400Y-89906400D02*
X95365400Y-73706400D01*
X88425400Y-89906400D02*
X95365400Y-89906400D01*
X172525400Y-74686600D02*
X172681400Y-74686600D01*
X174841400Y-74686600D02*
X174997400Y-74686600D01*
X172682792Y-71454265D02*
G75*
G03X172525884Y-74686600I1078608J-1672335D01*
G01*
X174840008Y-71454265D02*
G75*
G02X174996916Y-74686600I-1078608J-1672335D01*
G01*
X172681563Y-72085470D02*
G75*
G03X172681400Y-74167561I1079837J-1041130D01*
G01*
X174841237Y-72085470D02*
G75*
G02X174841400Y-74167561I-1079837J-1041130D01*
G01*
X177540400Y-77561200D02*
X179380400Y-77561200D01*
X179380400Y-77561200D02*
X179380400Y-73721200D01*
X179380400Y-73721200D02*
X177540400Y-73721200D01*
X177540400Y-73721200D02*
X177540400Y-77561200D01*
X178460400Y-78511200D02*
X178460400Y-77561200D01*
X178460400Y-72771200D02*
X178460400Y-73721200D01*
X28524800Y-125014400D02*
X31324800Y-125014400D01*
X35324800Y-125014400D02*
X38124800Y-125014400D01*
X35324800Y-102514400D02*
X38124800Y-102514400D01*
X38124800Y-102514400D02*
X38124800Y-125014400D01*
X28524800Y-102514400D02*
X28524800Y-125014400D01*
X28524800Y-102514400D02*
X31324800Y-102514400D01*
D10*
X192960476Y-69162380D02*
X192960476Y-69876666D01*
X192912857Y-70019523D01*
X192817619Y-70114761D01*
X192674761Y-70162380D01*
X192579523Y-70162380D01*
X193960476Y-70162380D02*
X193389047Y-70162380D01*
X193674761Y-70162380D02*
X193674761Y-69162380D01*
X193579523Y-69305238D01*
X193484285Y-69400476D01*
X193389047Y-69448095D01*
X194293809Y-69162380D02*
X194960476Y-69162380D01*
X194531904Y-70162380D01*
X207692476Y-69162380D02*
X207692476Y-69876666D01*
X207644857Y-70019523D01*
X207549619Y-70114761D01*
X207406761Y-70162380D01*
X207311523Y-70162380D01*
X208692476Y-70162380D02*
X208121047Y-70162380D01*
X208406761Y-70162380D02*
X208406761Y-69162380D01*
X208311523Y-69305238D01*
X208216285Y-69400476D01*
X208121047Y-69448095D01*
X209549619Y-69162380D02*
X209359142Y-69162380D01*
X209263904Y-69210000D01*
X209216285Y-69257619D01*
X209121047Y-69400476D01*
X209073428Y-69590952D01*
X209073428Y-69971904D01*
X209121047Y-70067142D01*
X209168666Y-70114761D01*
X209263904Y-70162380D01*
X209454380Y-70162380D01*
X209549619Y-70114761D01*
X209597238Y-70067142D01*
X209644857Y-69971904D01*
X209644857Y-69733809D01*
X209597238Y-69638571D01*
X209549619Y-69590952D01*
X209454380Y-69543333D01*
X209263904Y-69543333D01*
X209168666Y-69590952D01*
X209121047Y-69638571D01*
X209073428Y-69733809D01*
X222924476Y-69162380D02*
X222924476Y-69876666D01*
X222876857Y-70019523D01*
X222781619Y-70114761D01*
X222638761Y-70162380D01*
X222543523Y-70162380D01*
X223924476Y-70162380D02*
X223353047Y-70162380D01*
X223638761Y-70162380D02*
X223638761Y-69162380D01*
X223543523Y-69305238D01*
X223448285Y-69400476D01*
X223353047Y-69448095D01*
X224829238Y-69162380D02*
X224353047Y-69162380D01*
X224305428Y-69638571D01*
X224353047Y-69590952D01*
X224448285Y-69543333D01*
X224686380Y-69543333D01*
X224781619Y-69590952D01*
X224829238Y-69638571D01*
X224876857Y-69733809D01*
X224876857Y-69971904D01*
X224829238Y-70067142D01*
X224781619Y-70114761D01*
X224686380Y-70162380D01*
X224448285Y-70162380D01*
X224353047Y-70114761D01*
X224305428Y-70067142D01*
X222940476Y-114273380D02*
X222940476Y-114987666D01*
X222892857Y-115130523D01*
X222797619Y-115225761D01*
X222654761Y-115273380D01*
X222559523Y-115273380D01*
X223940476Y-115273380D02*
X223369047Y-115273380D01*
X223654761Y-115273380D02*
X223654761Y-114273380D01*
X223559523Y-114416238D01*
X223464285Y-114511476D01*
X223369047Y-114559095D01*
X224797619Y-114606714D02*
X224797619Y-115273380D01*
X224559523Y-114225761D02*
X224321428Y-114940047D01*
X224940476Y-114940047D01*
X207700476Y-114273380D02*
X207700476Y-114987666D01*
X207652857Y-115130523D01*
X207557619Y-115225761D01*
X207414761Y-115273380D01*
X207319523Y-115273380D01*
X208700476Y-115273380D02*
X208129047Y-115273380D01*
X208414761Y-115273380D02*
X208414761Y-114273380D01*
X208319523Y-114416238D01*
X208224285Y-114511476D01*
X208129047Y-114559095D01*
X209033809Y-114273380D02*
X209652857Y-114273380D01*
X209319523Y-114654333D01*
X209462380Y-114654333D01*
X209557619Y-114701952D01*
X209605238Y-114749571D01*
X209652857Y-114844809D01*
X209652857Y-115082904D01*
X209605238Y-115178142D01*
X209557619Y-115225761D01*
X209462380Y-115273380D01*
X209176666Y-115273380D01*
X209081428Y-115225761D01*
X209033809Y-115178142D01*
X192460476Y-114273380D02*
X192460476Y-114987666D01*
X192412857Y-115130523D01*
X192317619Y-115225761D01*
X192174761Y-115273380D01*
X192079523Y-115273380D01*
X193460476Y-115273380D02*
X192889047Y-115273380D01*
X193174761Y-115273380D02*
X193174761Y-114273380D01*
X193079523Y-114416238D01*
X192984285Y-114511476D01*
X192889047Y-114559095D01*
X193841428Y-114368619D02*
X193889047Y-114321000D01*
X193984285Y-114273380D01*
X194222380Y-114273380D01*
X194317619Y-114321000D01*
X194365238Y-114368619D01*
X194412857Y-114463857D01*
X194412857Y-114559095D01*
X194365238Y-114701952D01*
X193793809Y-115273380D01*
X194412857Y-115273380D01*
X91264076Y-69187780D02*
X91264076Y-69902066D01*
X91216457Y-70044923D01*
X91121219Y-70140161D01*
X90978361Y-70187780D01*
X90883123Y-70187780D01*
X92264076Y-70187780D02*
X91692647Y-70187780D01*
X91978361Y-70187780D02*
X91978361Y-69187780D01*
X91883123Y-69330638D01*
X91787885Y-69425876D01*
X91692647Y-69473495D01*
X93216457Y-70187780D02*
X92645028Y-70187780D01*
X92930742Y-70187780D02*
X92930742Y-69187780D01*
X92835504Y-69330638D01*
X92740266Y-69425876D01*
X92645028Y-69473495D01*
X106021476Y-69187780D02*
X106021476Y-69902066D01*
X105973857Y-70044923D01*
X105878619Y-70140161D01*
X105735761Y-70187780D01*
X105640523Y-70187780D01*
X107021476Y-70187780D02*
X106450047Y-70187780D01*
X106735761Y-70187780D02*
X106735761Y-69187780D01*
X106640523Y-69330638D01*
X106545285Y-69425876D01*
X106450047Y-69473495D01*
X107640523Y-69187780D02*
X107735761Y-69187780D01*
X107831000Y-69235400D01*
X107878619Y-69283019D01*
X107926238Y-69378257D01*
X107973857Y-69568733D01*
X107973857Y-69806828D01*
X107926238Y-69997304D01*
X107878619Y-70092542D01*
X107831000Y-70140161D01*
X107735761Y-70187780D01*
X107640523Y-70187780D01*
X107545285Y-70140161D01*
X107497666Y-70092542D01*
X107450047Y-69997304D01*
X107402428Y-69806828D01*
X107402428Y-69568733D01*
X107450047Y-69378257D01*
X107497666Y-69283019D01*
X107545285Y-69235400D01*
X107640523Y-69187780D01*
X120950266Y-69187780D02*
X120950266Y-69902066D01*
X120902647Y-70044923D01*
X120807409Y-70140161D01*
X120664552Y-70187780D01*
X120569314Y-70187780D01*
X121474076Y-70187780D02*
X121664552Y-70187780D01*
X121759790Y-70140161D01*
X121807409Y-70092542D01*
X121902647Y-69949685D01*
X121950266Y-69759209D01*
X121950266Y-69378257D01*
X121902647Y-69283019D01*
X121855028Y-69235400D01*
X121759790Y-69187780D01*
X121569314Y-69187780D01*
X121474076Y-69235400D01*
X121426457Y-69283019D01*
X121378838Y-69378257D01*
X121378838Y-69616352D01*
X121426457Y-69711590D01*
X121474076Y-69759209D01*
X121569314Y-69806828D01*
X121759790Y-69806828D01*
X121855028Y-69759209D01*
X121902647Y-69711590D01*
X121950266Y-69616352D01*
X135783866Y-69187780D02*
X135783866Y-69902066D01*
X135736247Y-70044923D01*
X135641009Y-70140161D01*
X135498152Y-70187780D01*
X135402914Y-70187780D01*
X136402914Y-69616352D02*
X136307676Y-69568733D01*
X136260057Y-69521114D01*
X136212438Y-69425876D01*
X136212438Y-69378257D01*
X136260057Y-69283019D01*
X136307676Y-69235400D01*
X136402914Y-69187780D01*
X136593390Y-69187780D01*
X136688628Y-69235400D01*
X136736247Y-69283019D01*
X136783866Y-69378257D01*
X136783866Y-69425876D01*
X136736247Y-69521114D01*
X136688628Y-69568733D01*
X136593390Y-69616352D01*
X136402914Y-69616352D01*
X136307676Y-69663971D01*
X136260057Y-69711590D01*
X136212438Y-69806828D01*
X136212438Y-69997304D01*
X136260057Y-70092542D01*
X136307676Y-70140161D01*
X136402914Y-70187780D01*
X136593390Y-70187780D01*
X136688628Y-70140161D01*
X136736247Y-70092542D01*
X136783866Y-69997304D01*
X136783866Y-69806828D01*
X136736247Y-69711590D01*
X136688628Y-69663971D01*
X136593390Y-69616352D01*
X150515866Y-69187780D02*
X150515866Y-69902066D01*
X150468247Y-70044923D01*
X150373009Y-70140161D01*
X150230152Y-70187780D01*
X150134914Y-70187780D01*
X150896819Y-69187780D02*
X151563485Y-69187780D01*
X151134914Y-70187780D01*
X150163066Y-114273380D02*
X150163066Y-114987666D01*
X150115447Y-115130523D01*
X150020209Y-115225761D01*
X149877352Y-115273380D01*
X149782114Y-115273380D01*
X151067828Y-114273380D02*
X150877352Y-114273380D01*
X150782114Y-114321000D01*
X150734495Y-114368619D01*
X150639257Y-114511476D01*
X150591638Y-114701952D01*
X150591638Y-115082904D01*
X150639257Y-115178142D01*
X150686876Y-115225761D01*
X150782114Y-115273380D01*
X150972590Y-115273380D01*
X151067828Y-115225761D01*
X151115447Y-115178142D01*
X151163066Y-115082904D01*
X151163066Y-114844809D01*
X151115447Y-114749571D01*
X151067828Y-114701952D01*
X150972590Y-114654333D01*
X150782114Y-114654333D01*
X150686876Y-114701952D01*
X150639257Y-114749571D01*
X150591638Y-114844809D01*
X135304066Y-114273380D02*
X135304066Y-114987666D01*
X135256447Y-115130523D01*
X135161209Y-115225761D01*
X135018352Y-115273380D01*
X134923114Y-115273380D01*
X136256447Y-114273380D02*
X135780257Y-114273380D01*
X135732638Y-114749571D01*
X135780257Y-114701952D01*
X135875495Y-114654333D01*
X136113590Y-114654333D01*
X136208828Y-114701952D01*
X136256447Y-114749571D01*
X136304066Y-114844809D01*
X136304066Y-115082904D01*
X136256447Y-115178142D01*
X136208828Y-115225761D01*
X136113590Y-115273380D01*
X135875495Y-115273380D01*
X135780257Y-115225761D01*
X135732638Y-115178142D01*
X120521266Y-114273380D02*
X120521266Y-114987666D01*
X120473647Y-115130523D01*
X120378409Y-115225761D01*
X120235552Y-115273380D01*
X120140314Y-115273380D01*
X121426028Y-114606714D02*
X121426028Y-115273380D01*
X121187933Y-114225761D02*
X120949838Y-114940047D01*
X121568885Y-114940047D01*
X106068666Y-114273380D02*
X106068666Y-114987666D01*
X106021047Y-115130523D01*
X105925809Y-115225761D01*
X105782952Y-115273380D01*
X105687714Y-115273380D01*
X106449619Y-114273380D02*
X107068666Y-114273380D01*
X106735333Y-114654333D01*
X106878190Y-114654333D01*
X106973428Y-114701952D01*
X107021047Y-114749571D01*
X107068666Y-114844809D01*
X107068666Y-115082904D01*
X107021047Y-115178142D01*
X106973428Y-115225761D01*
X106878190Y-115273380D01*
X106592476Y-115273380D01*
X106497238Y-115225761D01*
X106449619Y-115178142D01*
X91387466Y-114273380D02*
X91387466Y-114987666D01*
X91339847Y-115130523D01*
X91244609Y-115225761D01*
X91101752Y-115273380D01*
X91006514Y-115273380D01*
X91816038Y-114368619D02*
X91863657Y-114321000D01*
X91958895Y-114273380D01*
X92196990Y-114273380D01*
X92292228Y-114321000D01*
X92339847Y-114368619D01*
X92387466Y-114463857D01*
X92387466Y-114559095D01*
X92339847Y-114701952D01*
X91768419Y-115273380D01*
X92387466Y-115273380D01*
X203152380Y-81460876D02*
X203152380Y-82032304D01*
X203152380Y-81746590D02*
X202152380Y-81746590D01*
X202295238Y-81841828D01*
X202390476Y-81937066D01*
X202438095Y-82032304D01*
X203152380Y-80508495D02*
X203152380Y-81079923D01*
X203152380Y-80794209D02*
X202152380Y-80794209D01*
X202295238Y-80889447D01*
X202390476Y-80984685D01*
X202438095Y-81079923D01*
X203152380Y-80079923D02*
X202152380Y-80079923D01*
X203152380Y-79508495D02*
X202580952Y-79937066D01*
X202152380Y-79508495D02*
X202723809Y-80079923D01*
X218392380Y-81460876D02*
X218392380Y-82032304D01*
X218392380Y-81746590D02*
X217392380Y-81746590D01*
X217535238Y-81841828D01*
X217630476Y-81937066D01*
X217678095Y-82032304D01*
X218392380Y-80508495D02*
X218392380Y-81079923D01*
X218392380Y-80794209D02*
X217392380Y-80794209D01*
X217535238Y-80889447D01*
X217630476Y-80984685D01*
X217678095Y-81079923D01*
X218392380Y-80079923D02*
X217392380Y-80079923D01*
X218392380Y-79508495D02*
X217820952Y-79937066D01*
X217392380Y-79508495D02*
X217963809Y-80079923D01*
X233632380Y-81460876D02*
X233632380Y-82032304D01*
X233632380Y-81746590D02*
X232632380Y-81746590D01*
X232775238Y-81841828D01*
X232870476Y-81937066D01*
X232918095Y-82032304D01*
X233632380Y-80508495D02*
X233632380Y-81079923D01*
X233632380Y-80794209D02*
X232632380Y-80794209D01*
X232775238Y-80889447D01*
X232870476Y-80984685D01*
X232918095Y-81079923D01*
X233632380Y-80079923D02*
X232632380Y-80079923D01*
X233632380Y-79508495D02*
X233060952Y-79937066D01*
X232632380Y-79508495D02*
X233203809Y-80079923D01*
X233512380Y-107370476D02*
X233512380Y-107941904D01*
X233512380Y-107656190D02*
X232512380Y-107656190D01*
X232655238Y-107751428D01*
X232750476Y-107846666D01*
X232798095Y-107941904D01*
X233512380Y-106418095D02*
X233512380Y-106989523D01*
X233512380Y-106703809D02*
X232512380Y-106703809D01*
X232655238Y-106799047D01*
X232750476Y-106894285D01*
X232798095Y-106989523D01*
X233512380Y-105989523D02*
X232512380Y-105989523D01*
X233512380Y-105418095D02*
X232940952Y-105846666D01*
X232512380Y-105418095D02*
X233083809Y-105989523D01*
X218272380Y-107370476D02*
X218272380Y-107941904D01*
X218272380Y-107656190D02*
X217272380Y-107656190D01*
X217415238Y-107751428D01*
X217510476Y-107846666D01*
X217558095Y-107941904D01*
X218272380Y-106418095D02*
X218272380Y-106989523D01*
X218272380Y-106703809D02*
X217272380Y-106703809D01*
X217415238Y-106799047D01*
X217510476Y-106894285D01*
X217558095Y-106989523D01*
X218272380Y-105989523D02*
X217272380Y-105989523D01*
X218272380Y-105418095D02*
X217700952Y-105846666D01*
X217272380Y-105418095D02*
X217843809Y-105989523D01*
X203032380Y-107370476D02*
X203032380Y-107941904D01*
X203032380Y-107656190D02*
X202032380Y-107656190D01*
X202175238Y-107751428D01*
X202270476Y-107846666D01*
X202318095Y-107941904D01*
X203032380Y-106418095D02*
X203032380Y-106989523D01*
X203032380Y-106703809D02*
X202032380Y-106703809D01*
X202175238Y-106799047D01*
X202270476Y-106894285D01*
X202318095Y-106989523D01*
X203032380Y-105989523D02*
X202032380Y-105989523D01*
X203032380Y-105418095D02*
X202460952Y-105846666D01*
X202032380Y-105418095D02*
X202603809Y-105989523D01*
X60449365Y-92674700D02*
X60449365Y-91674700D01*
X60449365Y-92150891D02*
X61020794Y-92150891D01*
X61020794Y-92674700D02*
X61020794Y-91674700D01*
X61354127Y-91674700D02*
X61687460Y-92674700D01*
X62020794Y-91674700D01*
X63116032Y-92674700D02*
X63116032Y-92008034D01*
X63116032Y-91674700D02*
X63068413Y-91722320D01*
X63116032Y-91769939D01*
X63163651Y-91722320D01*
X63116032Y-91674700D01*
X63116032Y-91769939D01*
X63592222Y-92008034D02*
X63592222Y-92674700D01*
X63592222Y-92103272D02*
X63639841Y-92055653D01*
X63735080Y-92008034D01*
X63877937Y-92008034D01*
X63973175Y-92055653D01*
X64020794Y-92150891D01*
X64020794Y-92674700D01*
X101468180Y-107446676D02*
X101468180Y-108018104D01*
X101468180Y-107732390D02*
X100468180Y-107732390D01*
X100611038Y-107827628D01*
X100706276Y-107922866D01*
X100753895Y-108018104D01*
X101468180Y-106494295D02*
X101468180Y-107065723D01*
X101468180Y-106780009D02*
X100468180Y-106780009D01*
X100611038Y-106875247D01*
X100706276Y-106970485D01*
X100753895Y-107065723D01*
X101468180Y-106065723D02*
X100468180Y-106065723D01*
X101468180Y-105494295D02*
X100896752Y-105922866D01*
X100468180Y-105494295D02*
X101039609Y-106065723D01*
X116047780Y-107294276D02*
X116047780Y-107865704D01*
X116047780Y-107579990D02*
X115047780Y-107579990D01*
X115190638Y-107675228D01*
X115285876Y-107770466D01*
X115333495Y-107865704D01*
X116047780Y-106341895D02*
X116047780Y-106913323D01*
X116047780Y-106627609D02*
X115047780Y-106627609D01*
X115190638Y-106722847D01*
X115285876Y-106818085D01*
X115333495Y-106913323D01*
X116047780Y-105913323D02*
X115047780Y-105913323D01*
X116047780Y-105341895D02*
X115476352Y-105770466D01*
X115047780Y-105341895D02*
X115619209Y-105913323D01*
X130576580Y-107345076D02*
X130576580Y-107916504D01*
X130576580Y-107630790D02*
X129576580Y-107630790D01*
X129719438Y-107726028D01*
X129814676Y-107821266D01*
X129862295Y-107916504D01*
X130576580Y-106392695D02*
X130576580Y-106964123D01*
X130576580Y-106678409D02*
X129576580Y-106678409D01*
X129719438Y-106773647D01*
X129814676Y-106868885D01*
X129862295Y-106964123D01*
X130576580Y-105964123D02*
X129576580Y-105964123D01*
X130576580Y-105392695D02*
X130005152Y-105821266D01*
X129576580Y-105392695D02*
X130148009Y-105964123D01*
X145740380Y-107573676D02*
X145740380Y-108145104D01*
X145740380Y-107859390D02*
X144740380Y-107859390D01*
X144883238Y-107954628D01*
X144978476Y-108049866D01*
X145026095Y-108145104D01*
X145740380Y-106621295D02*
X145740380Y-107192723D01*
X145740380Y-106907009D02*
X144740380Y-106907009D01*
X144883238Y-107002247D01*
X144978476Y-107097485D01*
X145026095Y-107192723D01*
X145740380Y-106192723D02*
X144740380Y-106192723D01*
X145740380Y-105621295D02*
X145168952Y-106049866D01*
X144740380Y-105621295D02*
X145311809Y-106192723D01*
X160523180Y-107446676D02*
X160523180Y-108018104D01*
X160523180Y-107732390D02*
X159523180Y-107732390D01*
X159666038Y-107827628D01*
X159761276Y-107922866D01*
X159808895Y-108018104D01*
X160523180Y-106494295D02*
X160523180Y-107065723D01*
X160523180Y-106780009D02*
X159523180Y-106780009D01*
X159666038Y-106875247D01*
X159761276Y-106970485D01*
X159808895Y-107065723D01*
X160523180Y-106065723D02*
X159523180Y-106065723D01*
X160523180Y-105494295D02*
X159951752Y-105922866D01*
X159523180Y-105494295D02*
X160094609Y-106065723D01*
X160599380Y-81386276D02*
X160599380Y-81957704D01*
X160599380Y-81671990D02*
X159599380Y-81671990D01*
X159742238Y-81767228D01*
X159837476Y-81862466D01*
X159885095Y-81957704D01*
X160599380Y-80433895D02*
X160599380Y-81005323D01*
X160599380Y-80719609D02*
X159599380Y-80719609D01*
X159742238Y-80814847D01*
X159837476Y-80910085D01*
X159885095Y-81005323D01*
X160599380Y-80005323D02*
X159599380Y-80005323D01*
X160599380Y-79433895D02*
X160027952Y-79862466D01*
X159599380Y-79433895D02*
X160170809Y-80005323D01*
X145435580Y-81462476D02*
X145435580Y-82033904D01*
X145435580Y-81748190D02*
X144435580Y-81748190D01*
X144578438Y-81843428D01*
X144673676Y-81938666D01*
X144721295Y-82033904D01*
X145435580Y-80510095D02*
X145435580Y-81081523D01*
X145435580Y-80795809D02*
X144435580Y-80795809D01*
X144578438Y-80891047D01*
X144673676Y-80986285D01*
X144721295Y-81081523D01*
X145435580Y-80081523D02*
X144435580Y-80081523D01*
X145435580Y-79510095D02*
X144864152Y-79938666D01*
X144435580Y-79510095D02*
X145007009Y-80081523D01*
X130601980Y-81538676D02*
X130601980Y-82110104D01*
X130601980Y-81824390D02*
X129601980Y-81824390D01*
X129744838Y-81919628D01*
X129840076Y-82014866D01*
X129887695Y-82110104D01*
X130601980Y-80586295D02*
X130601980Y-81157723D01*
X130601980Y-80872009D02*
X129601980Y-80872009D01*
X129744838Y-80967247D01*
X129840076Y-81062485D01*
X129887695Y-81157723D01*
X130601980Y-80157723D02*
X129601980Y-80157723D01*
X130601980Y-79586295D02*
X130030552Y-80014866D01*
X129601980Y-79586295D02*
X130173409Y-80157723D01*
X116200180Y-81538676D02*
X116200180Y-82110104D01*
X116200180Y-81824390D02*
X115200180Y-81824390D01*
X115343038Y-81919628D01*
X115438276Y-82014866D01*
X115485895Y-82110104D01*
X116200180Y-80586295D02*
X116200180Y-81157723D01*
X116200180Y-80872009D02*
X115200180Y-80872009D01*
X115343038Y-80967247D01*
X115438276Y-81062485D01*
X115485895Y-81157723D01*
X116200180Y-80157723D02*
X115200180Y-80157723D01*
X116200180Y-79586295D02*
X115628752Y-80014866D01*
X115200180Y-79586295D02*
X115771609Y-80157723D01*
X101442780Y-81513276D02*
X101442780Y-82084704D01*
X101442780Y-81798990D02*
X100442780Y-81798990D01*
X100585638Y-81894228D01*
X100680876Y-81989466D01*
X100728495Y-82084704D01*
X101442780Y-80560895D02*
X101442780Y-81132323D01*
X101442780Y-80846609D02*
X100442780Y-80846609D01*
X100585638Y-80941847D01*
X100680876Y-81037085D01*
X100728495Y-81132323D01*
X101442780Y-80132323D02*
X100442780Y-80132323D01*
X101442780Y-79560895D02*
X100871352Y-79989466D01*
X100442780Y-79560895D02*
X101014209Y-80132323D01*
X180766980Y-76306276D02*
X180766980Y-76877704D01*
X180766980Y-76591990D02*
X179766980Y-76591990D01*
X179909838Y-76687228D01*
X180005076Y-76782466D01*
X180052695Y-76877704D01*
X180766980Y-75353895D02*
X180766980Y-75925323D01*
X180766980Y-75639609D02*
X179766980Y-75639609D01*
X179909838Y-75734847D01*
X180005076Y-75830085D01*
X180052695Y-75925323D01*
X180766980Y-74925323D02*
X179766980Y-74925323D01*
X180766980Y-74353895D02*
X180195552Y-74782466D01*
X179766980Y-74353895D02*
X180338409Y-74925323D01*
X27777180Y-117502495D02*
X26777180Y-117502495D01*
X27253371Y-117502495D02*
X27253371Y-116931066D01*
X27777180Y-116931066D02*
X26777180Y-116931066D01*
X26777180Y-116597733D02*
X27777180Y-116264400D01*
X26777180Y-115931066D01*
X27253371Y-114502495D02*
X27300990Y-114359638D01*
X27348609Y-114312019D01*
X27443847Y-114264400D01*
X27586704Y-114264400D01*
X27681942Y-114312019D01*
X27729561Y-114359638D01*
X27777180Y-114454876D01*
X27777180Y-114835828D01*
X26777180Y-114835828D01*
X26777180Y-114502495D01*
X26824800Y-114407257D01*
X26872419Y-114359638D01*
X26967657Y-114312019D01*
X27062895Y-114312019D01*
X27158133Y-114359638D01*
X27205752Y-114407257D01*
X27253371Y-114502495D01*
X27253371Y-114835828D01*
X27777180Y-113407257D02*
X27253371Y-113407257D01*
X27158133Y-113454876D01*
X27110514Y-113550114D01*
X27110514Y-113740590D01*
X27158133Y-113835828D01*
X27729561Y-113407257D02*
X27777180Y-113502495D01*
X27777180Y-113740590D01*
X27729561Y-113835828D01*
X27634323Y-113883447D01*
X27539085Y-113883447D01*
X27443847Y-113835828D01*
X27396228Y-113740590D01*
X27396228Y-113502495D01*
X27348609Y-113407257D01*
X27110514Y-113073923D02*
X27110514Y-112692971D01*
X26777180Y-112931066D02*
X27634323Y-112931066D01*
X27729561Y-112883447D01*
X27777180Y-112788209D01*
X27777180Y-112692971D01*
X27110514Y-112502495D02*
X27110514Y-112121542D01*
X26777180Y-112359638D02*
X27634323Y-112359638D01*
X27729561Y-112312019D01*
X27777180Y-112216780D01*
X27777180Y-112121542D01*
X27729561Y-111407257D02*
X27777180Y-111502495D01*
X27777180Y-111692971D01*
X27729561Y-111788209D01*
X27634323Y-111835828D01*
X27253371Y-111835828D01*
X27158133Y-111788209D01*
X27110514Y-111692971D01*
X27110514Y-111502495D01*
X27158133Y-111407257D01*
X27253371Y-111359638D01*
X27348609Y-111359638D01*
X27443847Y-111835828D01*
X27777180Y-110931066D02*
X27110514Y-110931066D01*
X27300990Y-110931066D02*
X27205752Y-110883447D01*
X27158133Y-110835828D01*
X27110514Y-110740590D01*
X27110514Y-110645352D01*
X27110514Y-110407257D02*
X27777180Y-110169161D01*
X27110514Y-109931066D02*
X27777180Y-110169161D01*
X28015276Y-110264400D01*
X28062895Y-110312019D01*
X28110514Y-110407257D01*
M02*
