M48
; DRILL file {KiCad (5.1.5)-3} date 1/11/2021 10:53:24 PM
; FORMAT={-:-/ absolute / inch / decimal}
; #@! TF.CreationDate,2021-01-11T22:53:24-06:00
; #@! TF.GenerationSoftware,Kicad,Pcbnew,(5.1.5)-3
FMAT,2
INCH
T1C0.0157
T2C0.0276
T3C0.0354
T4C0.0402
T5C0.0512
T6C0.0551
T7C0.0591
T8C0.0701
T9C0.0500
T10C0.1063
T11C0.1181
T12C0.1339
T13C0.1378
%
G90
G05
T1
X4.8102Y-5.3917
X4.8114Y-1.9665
T2
X8.587Y-3.5859
X8.587Y-3.8859
X5.6694Y-2.6805
X5.6694Y-2.9805
X6.2772Y-4.5117
X6.2772Y-4.8117
X5.0854Y-2.6795
X5.0854Y-2.9795
X7.4419Y-4.5077
X7.4419Y-4.8077
X6.8419Y-4.5077
X6.8419Y-4.8077
X5.0992Y-4.5117
X5.0992Y-4.8117
X5.6852Y-4.5117
X5.6852Y-4.8117
X6.2614Y-2.6795
X6.2614Y-2.9795
X7.4262Y-2.6805
X7.4262Y-2.9845
X8.0262Y-2.6805
X8.0262Y-2.9845
X4.5252Y-4.5117
X4.5252Y-4.8117
X3.9492Y-4.5117
X3.9492Y-4.8117
X6.8262Y-2.6805
X6.8262Y-2.9845
X4.5094Y-2.6795
X4.5094Y-2.9795
X8.0419Y-4.5077
X8.0419Y-4.8077
X3.9324Y-2.6795
X3.9324Y-2.9795
T3
X4.5084Y-3.0825
X4.5084Y-3.1825
X8.402Y-3.5869
X8.402Y-3.6869
X3.9492Y-4.3087
X3.9492Y-4.4087
X6.2624Y-3.0825
X6.2624Y-3.1825
X8.0419Y-4.3077
X8.0419Y-4.4077
X7.4419Y-4.3077
X7.4419Y-4.4077
X5.1002Y-4.3087
X5.1002Y-4.4087
X6.8262Y-3.0835
X6.8262Y-3.1835
X6.8419Y-4.3077
X6.8419Y-4.4077
X8.0262Y-3.0835
X8.0262Y-3.1835
X5.0844Y-3.0825
X5.0844Y-3.1825
X7.4262Y-3.0835
X7.4262Y-3.1835
X6.2772Y-4.3087
X6.2772Y-4.4087
X5.6694Y-3.0825
X5.6694Y-3.1825
X4.5262Y-4.3087
X4.5262Y-4.4087
X3.9334Y-3.0825
X3.9334Y-3.1825
X5.6852Y-4.3087
X5.6852Y-4.4087
T4
X4.7502Y-5.1217
X4.8683Y-5.1217
X5.9153Y-2.2545
X6.0334Y-2.2545
X7.6919Y-5.1227
X7.81Y-5.1227
X5.3353Y-2.2545
X5.4534Y-2.2545
X6.4959Y-2.2545
X6.614Y-2.2545
X5.3322Y-5.1217
X5.4503Y-5.1217
X7.0759Y-2.2545
X7.194Y-2.2545
X4.7513Y-2.2545
X4.8694Y-2.2545
X7.6756Y-2.2545
X7.7937Y-2.2545
X3.6032Y-5.1217
X3.7213Y-5.1217
X4.1823Y-2.2545
X4.3004Y-2.2545
X6.4919Y-5.1227
X6.61Y-5.1227
X3.6013Y-2.2545
X3.7194Y-2.2545
X4.1812Y-5.1217
X4.2993Y-5.1217
X5.9172Y-5.1217
X6.0353Y-5.1217
X7.0919Y-5.1227
X7.21Y-5.1227
T5
X0.7047Y-4.5079
X1.5906Y-4.5079
T6
X2.3061Y-3.6836
X2.3061Y-3.8836
X2.3061Y-3.9836
X2.6061Y-3.6836
X2.6061Y-3.8836
X2.6061Y-3.9836
T7
X1.0079Y-3.311
X1.0079Y-3.685
X1.0079Y-4.0591
X9.2362Y-3.4291
X9.2362Y-3.9409
T8
X7.0739Y-4.4249
X7.0739Y-4.8154
X7.2078Y-4.4249
X7.2078Y-4.8154
X6.4919Y-4.4249
X6.4919Y-4.8154
X6.6258Y-4.4249
X6.6258Y-4.8154
X5.9162Y-4.4212
X5.9162Y-4.8117
X6.05Y-4.4212
X6.05Y-4.8117
X4.7502Y-4.4212
X4.7502Y-4.8117
X4.884Y-4.4212
X4.884Y-4.8117
X4.7344Y-2.679
X4.7344Y-3.0695
X4.8683Y-2.679
X4.8683Y-3.0695
X5.3342Y-4.4212
X5.3342Y-4.8117
X5.468Y-4.4212
X5.468Y-4.8117
X7.6565Y-2.68
X7.6565Y-3.0705
X7.7904Y-2.68
X7.7904Y-3.0705
X4.1664Y-2.679
X4.1664Y-3.0695
X4.3003Y-2.679
X4.3003Y-3.0695
X4.1822Y-4.4212
X4.1822Y-4.8117
X4.316Y-4.4212
X4.316Y-4.8117
X7.0582Y-2.68
X7.0582Y-3.0705
X7.192Y-2.68
X7.192Y-3.0705
X7.6722Y-4.4249
X7.6722Y-4.8154
X7.8061Y-4.4249
X7.8061Y-4.8154
X3.5864Y-2.679
X3.5864Y-3.0695
X3.7203Y-2.679
X3.7203Y-3.0695
X6.4762Y-2.68
X6.4762Y-3.0705
X6.61Y-2.68
X6.61Y-3.0705
X5.3184Y-2.679
X5.3184Y-3.0695
X5.4523Y-2.679
X5.4523Y-3.0695
X3.6022Y-4.4212
X3.6022Y-4.8117
X3.736Y-4.4212
X3.736Y-4.8117
X5.9004Y-2.679
X5.9004Y-3.0695
X6.0343Y-2.679
X6.0343Y-3.0695
T9
X5.2141Y-5.0445
X5.5684Y-5.0445
X6.9578Y-2.3317
X7.3121Y-2.3317
X4.6332Y-2.3317
X4.9875Y-2.3317
X7.5574Y-2.3317
X7.9118Y-2.3317
X3.4851Y-5.0445
X3.8394Y-5.0445
X4.0642Y-2.3317
X4.4185Y-2.3317
X6.3738Y-5.0455
X6.7281Y-5.0455
X3.4832Y-2.3317
X3.8375Y-2.3317
X4.0631Y-5.0445
X4.4174Y-5.0445
X5.7991Y-5.0445
X6.1534Y-5.0445
X6.9738Y-5.0455
X7.3281Y-5.0455
X4.6321Y-5.0445
X4.9864Y-5.0445
X5.7972Y-2.3317
X6.1515Y-2.3317
X7.5738Y-5.0455
X7.9281Y-5.0455
X5.2172Y-2.3317
X5.5715Y-2.3317
X6.3778Y-2.3317
X6.7321Y-2.3317
T10
X1.1476Y-4.5079
T11
X0.4331Y-5.378
X9.8031Y-5.378
X9.8031Y-1.9921
X0.4331Y-1.9921
T12
X1.9888Y-4.0939
X2.9235Y-4.0939
T13
X1.5197Y-2.4449
X1.5197Y-4.9252
X8.7244Y-2.4449
X8.7244Y-4.9252
T0
M30
