G04 #@! TF.GenerationSoftware,KiCad,Pcbnew,(5.1.5)-3*
G04 #@! TF.CreationDate,2021-01-11T22:53:22-06:00*
G04 #@! TF.ProjectId,Power-Primary,506f7765-722d-4507-9269-6d6172792e6b,rev?*
G04 #@! TF.SameCoordinates,Original*
G04 #@! TF.FileFunction,Copper,L1,Top*
G04 #@! TF.FilePolarity,Positive*
%FSLAX46Y46*%
G04 Gerber Fmt 4.6, Leading zero omitted, Abs format (unit mm)*
G04 Created by KiCad (PCBNEW (5.1.5)-3) date 2021-01-11 22:53:22*
%MOMM*%
%LPD*%
G04 APERTURE LIST*
%ADD10C,4.000000*%
%ADD11C,2.200000*%
%ADD12C,3.000000*%
%ADD13C,5.000000*%
%ADD14O,1.500000X2.020000*%
%ADD15C,0.100000*%
%ADD16O,1.400000X1.400000*%
%ADD17C,1.400000*%
%ADD18C,2.780000*%
%ADD19C,1.800000*%
%ADD20R,1.800000X1.800000*%
%ADD21C,0.800000*%
%ADD22C,1.250000*%
%ADD23C,1.000000*%
%ADD24C,0.254000*%
G04 APERTURE END LIST*
D10*
X74255880Y-103983920D03*
X50515880Y-103983920D03*
D11*
X66195880Y-101183920D03*
X66195880Y-98643920D03*
X58575880Y-101183920D03*
X58575880Y-98643920D03*
X66195880Y-93563920D03*
X58575880Y-93563920D03*
D12*
X25600000Y-84100000D03*
X234600000Y-87100000D03*
X234600000Y-100100000D03*
X25600000Y-103100000D03*
X25600000Y-93600000D03*
D13*
X221600000Y-62100000D03*
X38600000Y-125100000D03*
X38600000Y-62100000D03*
X221600000Y-125100000D03*
D14*
X164995000Y-57265000D03*
G04 #@! TA.AperFunction,ComponentPad*
D15*
G36*
X168519504Y-56256204D02*
G01*
X168543773Y-56259804D01*
X168567571Y-56265765D01*
X168590671Y-56274030D01*
X168612849Y-56284520D01*
X168633893Y-56297133D01*
X168653598Y-56311747D01*
X168671777Y-56328223D01*
X168688253Y-56346402D01*
X168702867Y-56366107D01*
X168715480Y-56387151D01*
X168725970Y-56409329D01*
X168734235Y-56432429D01*
X168740196Y-56456227D01*
X168743796Y-56480496D01*
X168745000Y-56505000D01*
X168745000Y-58025000D01*
X168743796Y-58049504D01*
X168740196Y-58073773D01*
X168734235Y-58097571D01*
X168725970Y-58120671D01*
X168715480Y-58142849D01*
X168702867Y-58163893D01*
X168688253Y-58183598D01*
X168671777Y-58201777D01*
X168653598Y-58218253D01*
X168633893Y-58232867D01*
X168612849Y-58245480D01*
X168590671Y-58255970D01*
X168567571Y-58264235D01*
X168543773Y-58270196D01*
X168519504Y-58273796D01*
X168495000Y-58275000D01*
X167495000Y-58275000D01*
X167470496Y-58273796D01*
X167446227Y-58270196D01*
X167422429Y-58264235D01*
X167399329Y-58255970D01*
X167377151Y-58245480D01*
X167356107Y-58232867D01*
X167336402Y-58218253D01*
X167318223Y-58201777D01*
X167301747Y-58183598D01*
X167287133Y-58163893D01*
X167274520Y-58142849D01*
X167264030Y-58120671D01*
X167255765Y-58097571D01*
X167249804Y-58073773D01*
X167246204Y-58049504D01*
X167245000Y-58025000D01*
X167245000Y-56505000D01*
X167246204Y-56480496D01*
X167249804Y-56456227D01*
X167255765Y-56432429D01*
X167264030Y-56409329D01*
X167274520Y-56387151D01*
X167287133Y-56366107D01*
X167301747Y-56346402D01*
X167318223Y-56328223D01*
X167336402Y-56311747D01*
X167356107Y-56297133D01*
X167377151Y-56284520D01*
X167399329Y-56274030D01*
X167422429Y-56265765D01*
X167446227Y-56259804D01*
X167470496Y-56256204D01*
X167495000Y-56255000D01*
X168495000Y-56255000D01*
X168519504Y-56256204D01*
G37*
G04 #@! TD.AperFunction*
D14*
X179727000Y-57265000D03*
G04 #@! TA.AperFunction,ComponentPad*
D15*
G36*
X183251504Y-56256204D02*
G01*
X183275773Y-56259804D01*
X183299571Y-56265765D01*
X183322671Y-56274030D01*
X183344849Y-56284520D01*
X183365893Y-56297133D01*
X183385598Y-56311747D01*
X183403777Y-56328223D01*
X183420253Y-56346402D01*
X183434867Y-56366107D01*
X183447480Y-56387151D01*
X183457970Y-56409329D01*
X183466235Y-56432429D01*
X183472196Y-56456227D01*
X183475796Y-56480496D01*
X183477000Y-56505000D01*
X183477000Y-58025000D01*
X183475796Y-58049504D01*
X183472196Y-58073773D01*
X183466235Y-58097571D01*
X183457970Y-58120671D01*
X183447480Y-58142849D01*
X183434867Y-58163893D01*
X183420253Y-58183598D01*
X183403777Y-58201777D01*
X183385598Y-58218253D01*
X183365893Y-58232867D01*
X183344849Y-58245480D01*
X183322671Y-58255970D01*
X183299571Y-58264235D01*
X183275773Y-58270196D01*
X183251504Y-58273796D01*
X183227000Y-58275000D01*
X182227000Y-58275000D01*
X182202496Y-58273796D01*
X182178227Y-58270196D01*
X182154429Y-58264235D01*
X182131329Y-58255970D01*
X182109151Y-58245480D01*
X182088107Y-58232867D01*
X182068402Y-58218253D01*
X182050223Y-58201777D01*
X182033747Y-58183598D01*
X182019133Y-58163893D01*
X182006520Y-58142849D01*
X181996030Y-58120671D01*
X181987765Y-58097571D01*
X181981804Y-58073773D01*
X181978204Y-58049504D01*
X181977000Y-58025000D01*
X181977000Y-56505000D01*
X181978204Y-56480496D01*
X181981804Y-56456227D01*
X181987765Y-56432429D01*
X181996030Y-56409329D01*
X182006520Y-56387151D01*
X182019133Y-56366107D01*
X182033747Y-56346402D01*
X182050223Y-56328223D01*
X182068402Y-56311747D01*
X182088107Y-56297133D01*
X182109151Y-56284520D01*
X182131329Y-56274030D01*
X182154429Y-56265765D01*
X182178227Y-56259804D01*
X182202496Y-56256204D01*
X182227000Y-56255000D01*
X183227000Y-56255000D01*
X183251504Y-56256204D01*
G37*
G04 #@! TD.AperFunction*
D14*
X194959000Y-57265000D03*
G04 #@! TA.AperFunction,ComponentPad*
D15*
G36*
X198483504Y-56256204D02*
G01*
X198507773Y-56259804D01*
X198531571Y-56265765D01*
X198554671Y-56274030D01*
X198576849Y-56284520D01*
X198597893Y-56297133D01*
X198617598Y-56311747D01*
X198635777Y-56328223D01*
X198652253Y-56346402D01*
X198666867Y-56366107D01*
X198679480Y-56387151D01*
X198689970Y-56409329D01*
X198698235Y-56432429D01*
X198704196Y-56456227D01*
X198707796Y-56480496D01*
X198709000Y-56505000D01*
X198709000Y-58025000D01*
X198707796Y-58049504D01*
X198704196Y-58073773D01*
X198698235Y-58097571D01*
X198689970Y-58120671D01*
X198679480Y-58142849D01*
X198666867Y-58163893D01*
X198652253Y-58183598D01*
X198635777Y-58201777D01*
X198617598Y-58218253D01*
X198597893Y-58232867D01*
X198576849Y-58245480D01*
X198554671Y-58255970D01*
X198531571Y-58264235D01*
X198507773Y-58270196D01*
X198483504Y-58273796D01*
X198459000Y-58275000D01*
X197459000Y-58275000D01*
X197434496Y-58273796D01*
X197410227Y-58270196D01*
X197386429Y-58264235D01*
X197363329Y-58255970D01*
X197341151Y-58245480D01*
X197320107Y-58232867D01*
X197300402Y-58218253D01*
X197282223Y-58201777D01*
X197265747Y-58183598D01*
X197251133Y-58163893D01*
X197238520Y-58142849D01*
X197228030Y-58120671D01*
X197219765Y-58097571D01*
X197213804Y-58073773D01*
X197210204Y-58049504D01*
X197209000Y-58025000D01*
X197209000Y-56505000D01*
X197210204Y-56480496D01*
X197213804Y-56456227D01*
X197219765Y-56432429D01*
X197228030Y-56409329D01*
X197238520Y-56387151D01*
X197251133Y-56366107D01*
X197265747Y-56346402D01*
X197282223Y-56328223D01*
X197300402Y-56311747D01*
X197320107Y-56297133D01*
X197341151Y-56284520D01*
X197363329Y-56274030D01*
X197386429Y-56265765D01*
X197410227Y-56259804D01*
X197434496Y-56256204D01*
X197459000Y-56255000D01*
X198459000Y-56255000D01*
X198483504Y-56256204D01*
G37*
G04 #@! TD.AperFunction*
D14*
X198375000Y-130116000D03*
G04 #@! TA.AperFunction,ComponentPad*
D15*
G36*
X195899504Y-129107204D02*
G01*
X195923773Y-129110804D01*
X195947571Y-129116765D01*
X195970671Y-129125030D01*
X195992849Y-129135520D01*
X196013893Y-129148133D01*
X196033598Y-129162747D01*
X196051777Y-129179223D01*
X196068253Y-129197402D01*
X196082867Y-129217107D01*
X196095480Y-129238151D01*
X196105970Y-129260329D01*
X196114235Y-129283429D01*
X196120196Y-129307227D01*
X196123796Y-129331496D01*
X196125000Y-129356000D01*
X196125000Y-130876000D01*
X196123796Y-130900504D01*
X196120196Y-130924773D01*
X196114235Y-130948571D01*
X196105970Y-130971671D01*
X196095480Y-130993849D01*
X196082867Y-131014893D01*
X196068253Y-131034598D01*
X196051777Y-131052777D01*
X196033598Y-131069253D01*
X196013893Y-131083867D01*
X195992849Y-131096480D01*
X195970671Y-131106970D01*
X195947571Y-131115235D01*
X195923773Y-131121196D01*
X195899504Y-131124796D01*
X195875000Y-131126000D01*
X194875000Y-131126000D01*
X194850496Y-131124796D01*
X194826227Y-131121196D01*
X194802429Y-131115235D01*
X194779329Y-131106970D01*
X194757151Y-131096480D01*
X194736107Y-131083867D01*
X194716402Y-131069253D01*
X194698223Y-131052777D01*
X194681747Y-131034598D01*
X194667133Y-131014893D01*
X194654520Y-130993849D01*
X194644030Y-130971671D01*
X194635765Y-130948571D01*
X194629804Y-130924773D01*
X194626204Y-130900504D01*
X194625000Y-130876000D01*
X194625000Y-129356000D01*
X194626204Y-129331496D01*
X194629804Y-129307227D01*
X194635765Y-129283429D01*
X194644030Y-129260329D01*
X194654520Y-129238151D01*
X194667133Y-129217107D01*
X194681747Y-129197402D01*
X194698223Y-129179223D01*
X194716402Y-129162747D01*
X194736107Y-129148133D01*
X194757151Y-129135520D01*
X194779329Y-129125030D01*
X194802429Y-129116765D01*
X194826227Y-129110804D01*
X194850496Y-129107204D01*
X194875000Y-129106000D01*
X195875000Y-129106000D01*
X195899504Y-129107204D01*
G37*
G04 #@! TD.AperFunction*
D14*
X183135000Y-130116000D03*
G04 #@! TA.AperFunction,ComponentPad*
D15*
G36*
X180659504Y-129107204D02*
G01*
X180683773Y-129110804D01*
X180707571Y-129116765D01*
X180730671Y-129125030D01*
X180752849Y-129135520D01*
X180773893Y-129148133D01*
X180793598Y-129162747D01*
X180811777Y-129179223D01*
X180828253Y-129197402D01*
X180842867Y-129217107D01*
X180855480Y-129238151D01*
X180865970Y-129260329D01*
X180874235Y-129283429D01*
X180880196Y-129307227D01*
X180883796Y-129331496D01*
X180885000Y-129356000D01*
X180885000Y-130876000D01*
X180883796Y-130900504D01*
X180880196Y-130924773D01*
X180874235Y-130948571D01*
X180865970Y-130971671D01*
X180855480Y-130993849D01*
X180842867Y-131014893D01*
X180828253Y-131034598D01*
X180811777Y-131052777D01*
X180793598Y-131069253D01*
X180773893Y-131083867D01*
X180752849Y-131096480D01*
X180730671Y-131106970D01*
X180707571Y-131115235D01*
X180683773Y-131121196D01*
X180659504Y-131124796D01*
X180635000Y-131126000D01*
X179635000Y-131126000D01*
X179610496Y-131124796D01*
X179586227Y-131121196D01*
X179562429Y-131115235D01*
X179539329Y-131106970D01*
X179517151Y-131096480D01*
X179496107Y-131083867D01*
X179476402Y-131069253D01*
X179458223Y-131052777D01*
X179441747Y-131034598D01*
X179427133Y-131014893D01*
X179414520Y-130993849D01*
X179404030Y-130971671D01*
X179395765Y-130948571D01*
X179389804Y-130924773D01*
X179386204Y-130900504D01*
X179385000Y-130876000D01*
X179385000Y-129356000D01*
X179386204Y-129331496D01*
X179389804Y-129307227D01*
X179395765Y-129283429D01*
X179404030Y-129260329D01*
X179414520Y-129238151D01*
X179427133Y-129217107D01*
X179441747Y-129197402D01*
X179458223Y-129179223D01*
X179476402Y-129162747D01*
X179496107Y-129148133D01*
X179517151Y-129135520D01*
X179539329Y-129125030D01*
X179562429Y-129116765D01*
X179586227Y-129110804D01*
X179610496Y-129107204D01*
X179635000Y-129106000D01*
X180635000Y-129106000D01*
X180659504Y-129107204D01*
G37*
G04 #@! TD.AperFunction*
D14*
X167895000Y-130116000D03*
G04 #@! TA.AperFunction,ComponentPad*
D15*
G36*
X165419504Y-129107204D02*
G01*
X165443773Y-129110804D01*
X165467571Y-129116765D01*
X165490671Y-129125030D01*
X165512849Y-129135520D01*
X165533893Y-129148133D01*
X165553598Y-129162747D01*
X165571777Y-129179223D01*
X165588253Y-129197402D01*
X165602867Y-129217107D01*
X165615480Y-129238151D01*
X165625970Y-129260329D01*
X165634235Y-129283429D01*
X165640196Y-129307227D01*
X165643796Y-129331496D01*
X165645000Y-129356000D01*
X165645000Y-130876000D01*
X165643796Y-130900504D01*
X165640196Y-130924773D01*
X165634235Y-130948571D01*
X165625970Y-130971671D01*
X165615480Y-130993849D01*
X165602867Y-131014893D01*
X165588253Y-131034598D01*
X165571777Y-131052777D01*
X165553598Y-131069253D01*
X165533893Y-131083867D01*
X165512849Y-131096480D01*
X165490671Y-131106970D01*
X165467571Y-131115235D01*
X165443773Y-131121196D01*
X165419504Y-131124796D01*
X165395000Y-131126000D01*
X164395000Y-131126000D01*
X164370496Y-131124796D01*
X164346227Y-131121196D01*
X164322429Y-131115235D01*
X164299329Y-131106970D01*
X164277151Y-131096480D01*
X164256107Y-131083867D01*
X164236402Y-131069253D01*
X164218223Y-131052777D01*
X164201747Y-131034598D01*
X164187133Y-131014893D01*
X164174520Y-130993849D01*
X164164030Y-130971671D01*
X164155765Y-130948571D01*
X164149804Y-130924773D01*
X164146204Y-130900504D01*
X164145000Y-130876000D01*
X164145000Y-129356000D01*
X164146204Y-129331496D01*
X164149804Y-129307227D01*
X164155765Y-129283429D01*
X164164030Y-129260329D01*
X164174520Y-129238151D01*
X164187133Y-129217107D01*
X164201747Y-129197402D01*
X164218223Y-129179223D01*
X164236402Y-129162747D01*
X164256107Y-129148133D01*
X164277151Y-129135520D01*
X164299329Y-129125030D01*
X164322429Y-129116765D01*
X164346227Y-129110804D01*
X164370496Y-129107204D01*
X164395000Y-129106000D01*
X165395000Y-129106000D01*
X165419504Y-129107204D01*
G37*
G04 #@! TD.AperFunction*
D14*
X91473600Y-57265400D03*
G04 #@! TA.AperFunction,ComponentPad*
D15*
G36*
X94998104Y-56256604D02*
G01*
X95022373Y-56260204D01*
X95046171Y-56266165D01*
X95069271Y-56274430D01*
X95091449Y-56284920D01*
X95112493Y-56297533D01*
X95132198Y-56312147D01*
X95150377Y-56328623D01*
X95166853Y-56346802D01*
X95181467Y-56366507D01*
X95194080Y-56387551D01*
X95204570Y-56409729D01*
X95212835Y-56432829D01*
X95218796Y-56456627D01*
X95222396Y-56480896D01*
X95223600Y-56505400D01*
X95223600Y-58025400D01*
X95222396Y-58049904D01*
X95218796Y-58074173D01*
X95212835Y-58097971D01*
X95204570Y-58121071D01*
X95194080Y-58143249D01*
X95181467Y-58164293D01*
X95166853Y-58183998D01*
X95150377Y-58202177D01*
X95132198Y-58218653D01*
X95112493Y-58233267D01*
X95091449Y-58245880D01*
X95069271Y-58256370D01*
X95046171Y-58264635D01*
X95022373Y-58270596D01*
X94998104Y-58274196D01*
X94973600Y-58275400D01*
X93973600Y-58275400D01*
X93949096Y-58274196D01*
X93924827Y-58270596D01*
X93901029Y-58264635D01*
X93877929Y-58256370D01*
X93855751Y-58245880D01*
X93834707Y-58233267D01*
X93815002Y-58218653D01*
X93796823Y-58202177D01*
X93780347Y-58183998D01*
X93765733Y-58164293D01*
X93753120Y-58143249D01*
X93742630Y-58121071D01*
X93734365Y-58097971D01*
X93728404Y-58074173D01*
X93724804Y-58049904D01*
X93723600Y-58025400D01*
X93723600Y-56505400D01*
X93724804Y-56480896D01*
X93728404Y-56456627D01*
X93734365Y-56432829D01*
X93742630Y-56409729D01*
X93753120Y-56387551D01*
X93765733Y-56366507D01*
X93780347Y-56346802D01*
X93796823Y-56328623D01*
X93815002Y-56312147D01*
X93834707Y-56297533D01*
X93855751Y-56284920D01*
X93877929Y-56274430D01*
X93901029Y-56266165D01*
X93924827Y-56260204D01*
X93949096Y-56256604D01*
X93973600Y-56255400D01*
X94973600Y-56255400D01*
X94998104Y-56256604D01*
G37*
G04 #@! TD.AperFunction*
D14*
X106231000Y-57265400D03*
G04 #@! TA.AperFunction,ComponentPad*
D15*
G36*
X109755504Y-56256604D02*
G01*
X109779773Y-56260204D01*
X109803571Y-56266165D01*
X109826671Y-56274430D01*
X109848849Y-56284920D01*
X109869893Y-56297533D01*
X109889598Y-56312147D01*
X109907777Y-56328623D01*
X109924253Y-56346802D01*
X109938867Y-56366507D01*
X109951480Y-56387551D01*
X109961970Y-56409729D01*
X109970235Y-56432829D01*
X109976196Y-56456627D01*
X109979796Y-56480896D01*
X109981000Y-56505400D01*
X109981000Y-58025400D01*
X109979796Y-58049904D01*
X109976196Y-58074173D01*
X109970235Y-58097971D01*
X109961970Y-58121071D01*
X109951480Y-58143249D01*
X109938867Y-58164293D01*
X109924253Y-58183998D01*
X109907777Y-58202177D01*
X109889598Y-58218653D01*
X109869893Y-58233267D01*
X109848849Y-58245880D01*
X109826671Y-58256370D01*
X109803571Y-58264635D01*
X109779773Y-58270596D01*
X109755504Y-58274196D01*
X109731000Y-58275400D01*
X108731000Y-58275400D01*
X108706496Y-58274196D01*
X108682227Y-58270596D01*
X108658429Y-58264635D01*
X108635329Y-58256370D01*
X108613151Y-58245880D01*
X108592107Y-58233267D01*
X108572402Y-58218653D01*
X108554223Y-58202177D01*
X108537747Y-58183998D01*
X108523133Y-58164293D01*
X108510520Y-58143249D01*
X108500030Y-58121071D01*
X108491765Y-58097971D01*
X108485804Y-58074173D01*
X108482204Y-58049904D01*
X108481000Y-58025400D01*
X108481000Y-56505400D01*
X108482204Y-56480896D01*
X108485804Y-56456627D01*
X108491765Y-56432829D01*
X108500030Y-56409729D01*
X108510520Y-56387551D01*
X108523133Y-56366507D01*
X108537747Y-56346802D01*
X108554223Y-56328623D01*
X108572402Y-56312147D01*
X108592107Y-56297533D01*
X108613151Y-56284920D01*
X108635329Y-56274430D01*
X108658429Y-56266165D01*
X108682227Y-56260204D01*
X108706496Y-56256604D01*
X108731000Y-56255400D01*
X109731000Y-56255400D01*
X109755504Y-56256604D01*
G37*
G04 #@! TD.AperFunction*
D14*
X120683600Y-57265400D03*
G04 #@! TA.AperFunction,ComponentPad*
D15*
G36*
X124208104Y-56256604D02*
G01*
X124232373Y-56260204D01*
X124256171Y-56266165D01*
X124279271Y-56274430D01*
X124301449Y-56284920D01*
X124322493Y-56297533D01*
X124342198Y-56312147D01*
X124360377Y-56328623D01*
X124376853Y-56346802D01*
X124391467Y-56366507D01*
X124404080Y-56387551D01*
X124414570Y-56409729D01*
X124422835Y-56432829D01*
X124428796Y-56456627D01*
X124432396Y-56480896D01*
X124433600Y-56505400D01*
X124433600Y-58025400D01*
X124432396Y-58049904D01*
X124428796Y-58074173D01*
X124422835Y-58097971D01*
X124414570Y-58121071D01*
X124404080Y-58143249D01*
X124391467Y-58164293D01*
X124376853Y-58183998D01*
X124360377Y-58202177D01*
X124342198Y-58218653D01*
X124322493Y-58233267D01*
X124301449Y-58245880D01*
X124279271Y-58256370D01*
X124256171Y-58264635D01*
X124232373Y-58270596D01*
X124208104Y-58274196D01*
X124183600Y-58275400D01*
X123183600Y-58275400D01*
X123159096Y-58274196D01*
X123134827Y-58270596D01*
X123111029Y-58264635D01*
X123087929Y-58256370D01*
X123065751Y-58245880D01*
X123044707Y-58233267D01*
X123025002Y-58218653D01*
X123006823Y-58202177D01*
X122990347Y-58183998D01*
X122975733Y-58164293D01*
X122963120Y-58143249D01*
X122952630Y-58121071D01*
X122944365Y-58097971D01*
X122938404Y-58074173D01*
X122934804Y-58049904D01*
X122933600Y-58025400D01*
X122933600Y-56505400D01*
X122934804Y-56480896D01*
X122938404Y-56456627D01*
X122944365Y-56432829D01*
X122952630Y-56409729D01*
X122963120Y-56387551D01*
X122975733Y-56366507D01*
X122990347Y-56346802D01*
X123006823Y-56328623D01*
X123025002Y-56312147D01*
X123044707Y-56297533D01*
X123065751Y-56284920D01*
X123087929Y-56274430D01*
X123111029Y-56266165D01*
X123134827Y-56260204D01*
X123159096Y-56256604D01*
X123183600Y-56255400D01*
X124183600Y-56255400D01*
X124208104Y-56256604D01*
G37*
G04 #@! TD.AperFunction*
D14*
X135517200Y-57265400D03*
G04 #@! TA.AperFunction,ComponentPad*
D15*
G36*
X139041704Y-56256604D02*
G01*
X139065973Y-56260204D01*
X139089771Y-56266165D01*
X139112871Y-56274430D01*
X139135049Y-56284920D01*
X139156093Y-56297533D01*
X139175798Y-56312147D01*
X139193977Y-56328623D01*
X139210453Y-56346802D01*
X139225067Y-56366507D01*
X139237680Y-56387551D01*
X139248170Y-56409729D01*
X139256435Y-56432829D01*
X139262396Y-56456627D01*
X139265996Y-56480896D01*
X139267200Y-56505400D01*
X139267200Y-58025400D01*
X139265996Y-58049904D01*
X139262396Y-58074173D01*
X139256435Y-58097971D01*
X139248170Y-58121071D01*
X139237680Y-58143249D01*
X139225067Y-58164293D01*
X139210453Y-58183998D01*
X139193977Y-58202177D01*
X139175798Y-58218653D01*
X139156093Y-58233267D01*
X139135049Y-58245880D01*
X139112871Y-58256370D01*
X139089771Y-58264635D01*
X139065973Y-58270596D01*
X139041704Y-58274196D01*
X139017200Y-58275400D01*
X138017200Y-58275400D01*
X137992696Y-58274196D01*
X137968427Y-58270596D01*
X137944629Y-58264635D01*
X137921529Y-58256370D01*
X137899351Y-58245880D01*
X137878307Y-58233267D01*
X137858602Y-58218653D01*
X137840423Y-58202177D01*
X137823947Y-58183998D01*
X137809333Y-58164293D01*
X137796720Y-58143249D01*
X137786230Y-58121071D01*
X137777965Y-58097971D01*
X137772004Y-58074173D01*
X137768404Y-58049904D01*
X137767200Y-58025400D01*
X137767200Y-56505400D01*
X137768404Y-56480896D01*
X137772004Y-56456627D01*
X137777965Y-56432829D01*
X137786230Y-56409729D01*
X137796720Y-56387551D01*
X137809333Y-56366507D01*
X137823947Y-56346802D01*
X137840423Y-56328623D01*
X137858602Y-56312147D01*
X137878307Y-56297533D01*
X137899351Y-56284920D01*
X137921529Y-56274430D01*
X137944629Y-56266165D01*
X137968427Y-56260204D01*
X137992696Y-56256604D01*
X138017200Y-56255400D01*
X139017200Y-56255400D01*
X139041704Y-56256604D01*
G37*
G04 #@! TD.AperFunction*
D14*
X150249200Y-57265400D03*
G04 #@! TA.AperFunction,ComponentPad*
D15*
G36*
X153773704Y-56256604D02*
G01*
X153797973Y-56260204D01*
X153821771Y-56266165D01*
X153844871Y-56274430D01*
X153867049Y-56284920D01*
X153888093Y-56297533D01*
X153907798Y-56312147D01*
X153925977Y-56328623D01*
X153942453Y-56346802D01*
X153957067Y-56366507D01*
X153969680Y-56387551D01*
X153980170Y-56409729D01*
X153988435Y-56432829D01*
X153994396Y-56456627D01*
X153997996Y-56480896D01*
X153999200Y-56505400D01*
X153999200Y-58025400D01*
X153997996Y-58049904D01*
X153994396Y-58074173D01*
X153988435Y-58097971D01*
X153980170Y-58121071D01*
X153969680Y-58143249D01*
X153957067Y-58164293D01*
X153942453Y-58183998D01*
X153925977Y-58202177D01*
X153907798Y-58218653D01*
X153888093Y-58233267D01*
X153867049Y-58245880D01*
X153844871Y-58256370D01*
X153821771Y-58264635D01*
X153797973Y-58270596D01*
X153773704Y-58274196D01*
X153749200Y-58275400D01*
X152749200Y-58275400D01*
X152724696Y-58274196D01*
X152700427Y-58270596D01*
X152676629Y-58264635D01*
X152653529Y-58256370D01*
X152631351Y-58245880D01*
X152610307Y-58233267D01*
X152590602Y-58218653D01*
X152572423Y-58202177D01*
X152555947Y-58183998D01*
X152541333Y-58164293D01*
X152528720Y-58143249D01*
X152518230Y-58121071D01*
X152509965Y-58097971D01*
X152504004Y-58074173D01*
X152500404Y-58049904D01*
X152499200Y-58025400D01*
X152499200Y-56505400D01*
X152500404Y-56480896D01*
X152504004Y-56456627D01*
X152509965Y-56432829D01*
X152518230Y-56409729D01*
X152528720Y-56387551D01*
X152541333Y-56366507D01*
X152555947Y-56346802D01*
X152572423Y-56328623D01*
X152590602Y-56312147D01*
X152610307Y-56297533D01*
X152631351Y-56284920D01*
X152653529Y-56274430D01*
X152676629Y-56266165D01*
X152700427Y-56260204D01*
X152724696Y-56256604D01*
X152749200Y-56255400D01*
X153749200Y-56255400D01*
X153773704Y-56256604D01*
G37*
G04 #@! TD.AperFunction*
D14*
X153296400Y-130091000D03*
G04 #@! TA.AperFunction,ComponentPad*
D15*
G36*
X150820904Y-129082204D02*
G01*
X150845173Y-129085804D01*
X150868971Y-129091765D01*
X150892071Y-129100030D01*
X150914249Y-129110520D01*
X150935293Y-129123133D01*
X150954998Y-129137747D01*
X150973177Y-129154223D01*
X150989653Y-129172402D01*
X151004267Y-129192107D01*
X151016880Y-129213151D01*
X151027370Y-129235329D01*
X151035635Y-129258429D01*
X151041596Y-129282227D01*
X151045196Y-129306496D01*
X151046400Y-129331000D01*
X151046400Y-130851000D01*
X151045196Y-130875504D01*
X151041596Y-130899773D01*
X151035635Y-130923571D01*
X151027370Y-130946671D01*
X151016880Y-130968849D01*
X151004267Y-130989893D01*
X150989653Y-131009598D01*
X150973177Y-131027777D01*
X150954998Y-131044253D01*
X150935293Y-131058867D01*
X150914249Y-131071480D01*
X150892071Y-131081970D01*
X150868971Y-131090235D01*
X150845173Y-131096196D01*
X150820904Y-131099796D01*
X150796400Y-131101000D01*
X149796400Y-131101000D01*
X149771896Y-131099796D01*
X149747627Y-131096196D01*
X149723829Y-131090235D01*
X149700729Y-131081970D01*
X149678551Y-131071480D01*
X149657507Y-131058867D01*
X149637802Y-131044253D01*
X149619623Y-131027777D01*
X149603147Y-131009598D01*
X149588533Y-130989893D01*
X149575920Y-130968849D01*
X149565430Y-130946671D01*
X149557165Y-130923571D01*
X149551204Y-130899773D01*
X149547604Y-130875504D01*
X149546400Y-130851000D01*
X149546400Y-129331000D01*
X149547604Y-129306496D01*
X149551204Y-129282227D01*
X149557165Y-129258429D01*
X149565430Y-129235329D01*
X149575920Y-129213151D01*
X149588533Y-129192107D01*
X149603147Y-129172402D01*
X149619623Y-129154223D01*
X149637802Y-129137747D01*
X149657507Y-129123133D01*
X149678551Y-129110520D01*
X149700729Y-129100030D01*
X149723829Y-129091765D01*
X149747627Y-129085804D01*
X149771896Y-129082204D01*
X149796400Y-129081000D01*
X150796400Y-129081000D01*
X150820904Y-129082204D01*
G37*
G04 #@! TD.AperFunction*
D14*
X138437400Y-130091000D03*
G04 #@! TA.AperFunction,ComponentPad*
D15*
G36*
X135961904Y-129082204D02*
G01*
X135986173Y-129085804D01*
X136009971Y-129091765D01*
X136033071Y-129100030D01*
X136055249Y-129110520D01*
X136076293Y-129123133D01*
X136095998Y-129137747D01*
X136114177Y-129154223D01*
X136130653Y-129172402D01*
X136145267Y-129192107D01*
X136157880Y-129213151D01*
X136168370Y-129235329D01*
X136176635Y-129258429D01*
X136182596Y-129282227D01*
X136186196Y-129306496D01*
X136187400Y-129331000D01*
X136187400Y-130851000D01*
X136186196Y-130875504D01*
X136182596Y-130899773D01*
X136176635Y-130923571D01*
X136168370Y-130946671D01*
X136157880Y-130968849D01*
X136145267Y-130989893D01*
X136130653Y-131009598D01*
X136114177Y-131027777D01*
X136095998Y-131044253D01*
X136076293Y-131058867D01*
X136055249Y-131071480D01*
X136033071Y-131081970D01*
X136009971Y-131090235D01*
X135986173Y-131096196D01*
X135961904Y-131099796D01*
X135937400Y-131101000D01*
X134937400Y-131101000D01*
X134912896Y-131099796D01*
X134888627Y-131096196D01*
X134864829Y-131090235D01*
X134841729Y-131081970D01*
X134819551Y-131071480D01*
X134798507Y-131058867D01*
X134778802Y-131044253D01*
X134760623Y-131027777D01*
X134744147Y-131009598D01*
X134729533Y-130989893D01*
X134716920Y-130968849D01*
X134706430Y-130946671D01*
X134698165Y-130923571D01*
X134692204Y-130899773D01*
X134688604Y-130875504D01*
X134687400Y-130851000D01*
X134687400Y-129331000D01*
X134688604Y-129306496D01*
X134692204Y-129282227D01*
X134698165Y-129258429D01*
X134706430Y-129235329D01*
X134716920Y-129213151D01*
X134729533Y-129192107D01*
X134744147Y-129172402D01*
X134760623Y-129154223D01*
X134778802Y-129137747D01*
X134798507Y-129123133D01*
X134819551Y-129110520D01*
X134841729Y-129100030D01*
X134864829Y-129091765D01*
X134888627Y-129085804D01*
X134912896Y-129082204D01*
X134937400Y-129081000D01*
X135937400Y-129081000D01*
X135961904Y-129082204D01*
G37*
G04 #@! TD.AperFunction*
D14*
X123654600Y-130091000D03*
G04 #@! TA.AperFunction,ComponentPad*
D15*
G36*
X121179104Y-129082204D02*
G01*
X121203373Y-129085804D01*
X121227171Y-129091765D01*
X121250271Y-129100030D01*
X121272449Y-129110520D01*
X121293493Y-129123133D01*
X121313198Y-129137747D01*
X121331377Y-129154223D01*
X121347853Y-129172402D01*
X121362467Y-129192107D01*
X121375080Y-129213151D01*
X121385570Y-129235329D01*
X121393835Y-129258429D01*
X121399796Y-129282227D01*
X121403396Y-129306496D01*
X121404600Y-129331000D01*
X121404600Y-130851000D01*
X121403396Y-130875504D01*
X121399796Y-130899773D01*
X121393835Y-130923571D01*
X121385570Y-130946671D01*
X121375080Y-130968849D01*
X121362467Y-130989893D01*
X121347853Y-131009598D01*
X121331377Y-131027777D01*
X121313198Y-131044253D01*
X121293493Y-131058867D01*
X121272449Y-131071480D01*
X121250271Y-131081970D01*
X121227171Y-131090235D01*
X121203373Y-131096196D01*
X121179104Y-131099796D01*
X121154600Y-131101000D01*
X120154600Y-131101000D01*
X120130096Y-131099796D01*
X120105827Y-131096196D01*
X120082029Y-131090235D01*
X120058929Y-131081970D01*
X120036751Y-131071480D01*
X120015707Y-131058867D01*
X119996002Y-131044253D01*
X119977823Y-131027777D01*
X119961347Y-131009598D01*
X119946733Y-130989893D01*
X119934120Y-130968849D01*
X119923630Y-130946671D01*
X119915365Y-130923571D01*
X119909404Y-130899773D01*
X119905804Y-130875504D01*
X119904600Y-130851000D01*
X119904600Y-129331000D01*
X119905804Y-129306496D01*
X119909404Y-129282227D01*
X119915365Y-129258429D01*
X119923630Y-129235329D01*
X119934120Y-129213151D01*
X119946733Y-129192107D01*
X119961347Y-129172402D01*
X119977823Y-129154223D01*
X119996002Y-129137747D01*
X120015707Y-129123133D01*
X120036751Y-129110520D01*
X120058929Y-129100030D01*
X120082029Y-129091765D01*
X120105827Y-129085804D01*
X120130096Y-129082204D01*
X120154600Y-129081000D01*
X121154600Y-129081000D01*
X121179104Y-129082204D01*
G37*
G04 #@! TD.AperFunction*
D14*
X109202000Y-130091000D03*
G04 #@! TA.AperFunction,ComponentPad*
D15*
G36*
X106726504Y-129082204D02*
G01*
X106750773Y-129085804D01*
X106774571Y-129091765D01*
X106797671Y-129100030D01*
X106819849Y-129110520D01*
X106840893Y-129123133D01*
X106860598Y-129137747D01*
X106878777Y-129154223D01*
X106895253Y-129172402D01*
X106909867Y-129192107D01*
X106922480Y-129213151D01*
X106932970Y-129235329D01*
X106941235Y-129258429D01*
X106947196Y-129282227D01*
X106950796Y-129306496D01*
X106952000Y-129331000D01*
X106952000Y-130851000D01*
X106950796Y-130875504D01*
X106947196Y-130899773D01*
X106941235Y-130923571D01*
X106932970Y-130946671D01*
X106922480Y-130968849D01*
X106909867Y-130989893D01*
X106895253Y-131009598D01*
X106878777Y-131027777D01*
X106860598Y-131044253D01*
X106840893Y-131058867D01*
X106819849Y-131071480D01*
X106797671Y-131081970D01*
X106774571Y-131090235D01*
X106750773Y-131096196D01*
X106726504Y-131099796D01*
X106702000Y-131101000D01*
X105702000Y-131101000D01*
X105677496Y-131099796D01*
X105653227Y-131096196D01*
X105629429Y-131090235D01*
X105606329Y-131081970D01*
X105584151Y-131071480D01*
X105563107Y-131058867D01*
X105543402Y-131044253D01*
X105525223Y-131027777D01*
X105508747Y-131009598D01*
X105494133Y-130989893D01*
X105481520Y-130968849D01*
X105471030Y-130946671D01*
X105462765Y-130923571D01*
X105456804Y-130899773D01*
X105453204Y-130875504D01*
X105452000Y-130851000D01*
X105452000Y-129331000D01*
X105453204Y-129306496D01*
X105456804Y-129282227D01*
X105462765Y-129258429D01*
X105471030Y-129235329D01*
X105481520Y-129213151D01*
X105494133Y-129192107D01*
X105508747Y-129172402D01*
X105525223Y-129154223D01*
X105543402Y-129137747D01*
X105563107Y-129123133D01*
X105584151Y-129110520D01*
X105606329Y-129100030D01*
X105629429Y-129091765D01*
X105653227Y-129085804D01*
X105677496Y-129082204D01*
X105702000Y-129081000D01*
X106702000Y-129081000D01*
X106726504Y-129082204D01*
G37*
G04 #@! TD.AperFunction*
D14*
X94520800Y-130091000D03*
G04 #@! TA.AperFunction,ComponentPad*
D15*
G36*
X92045304Y-129082204D02*
G01*
X92069573Y-129085804D01*
X92093371Y-129091765D01*
X92116471Y-129100030D01*
X92138649Y-129110520D01*
X92159693Y-129123133D01*
X92179398Y-129137747D01*
X92197577Y-129154223D01*
X92214053Y-129172402D01*
X92228667Y-129192107D01*
X92241280Y-129213151D01*
X92251770Y-129235329D01*
X92260035Y-129258429D01*
X92265996Y-129282227D01*
X92269596Y-129306496D01*
X92270800Y-129331000D01*
X92270800Y-130851000D01*
X92269596Y-130875504D01*
X92265996Y-130899773D01*
X92260035Y-130923571D01*
X92251770Y-130946671D01*
X92241280Y-130968849D01*
X92228667Y-130989893D01*
X92214053Y-131009598D01*
X92197577Y-131027777D01*
X92179398Y-131044253D01*
X92159693Y-131058867D01*
X92138649Y-131071480D01*
X92116471Y-131081970D01*
X92093371Y-131090235D01*
X92069573Y-131096196D01*
X92045304Y-131099796D01*
X92020800Y-131101000D01*
X91020800Y-131101000D01*
X90996296Y-131099796D01*
X90972027Y-131096196D01*
X90948229Y-131090235D01*
X90925129Y-131081970D01*
X90902951Y-131071480D01*
X90881907Y-131058867D01*
X90862202Y-131044253D01*
X90844023Y-131027777D01*
X90827547Y-131009598D01*
X90812933Y-130989893D01*
X90800320Y-130968849D01*
X90789830Y-130946671D01*
X90781565Y-130923571D01*
X90775604Y-130899773D01*
X90772004Y-130875504D01*
X90770800Y-130851000D01*
X90770800Y-129331000D01*
X90772004Y-129306496D01*
X90775604Y-129282227D01*
X90781565Y-129258429D01*
X90789830Y-129235329D01*
X90800320Y-129213151D01*
X90812933Y-129192107D01*
X90827547Y-129172402D01*
X90844023Y-129154223D01*
X90862202Y-129137747D01*
X90881907Y-129123133D01*
X90902951Y-129110520D01*
X90925129Y-129100030D01*
X90948229Y-129091765D01*
X90972027Y-129085804D01*
X90996296Y-129082204D01*
X91020800Y-129081000D01*
X92020800Y-129081000D01*
X92045304Y-129082204D01*
G37*
G04 #@! TD.AperFunction*
D16*
X173385000Y-75805400D03*
D17*
X173385000Y-68085400D03*
D16*
X188625000Y-75805400D03*
D17*
X188625000Y-68085400D03*
D16*
X203865000Y-75805400D03*
D17*
X203865000Y-68085400D03*
D16*
X204265000Y-114495000D03*
D17*
X204265000Y-122115000D03*
D16*
X189025000Y-114495000D03*
D17*
X189025000Y-122115000D03*
D16*
X173785000Y-114495000D03*
D17*
X173785000Y-122115000D03*
D18*
X167895000Y-68071400D03*
X164495000Y-68071400D03*
X167895000Y-77991400D03*
X164495000Y-77991400D03*
X182677600Y-68071400D03*
X179277600Y-68071400D03*
X182677600Y-77991400D03*
X179277600Y-77991400D03*
X197875000Y-68071400D03*
X194475000Y-68071400D03*
X197875000Y-77991400D03*
X194475000Y-77991400D03*
X194875000Y-122311400D03*
X198275000Y-122311400D03*
X194875000Y-112391400D03*
X198275000Y-112391400D03*
X179677600Y-122311400D03*
X183077600Y-122311400D03*
X179677600Y-112391400D03*
X183077600Y-112391400D03*
X168295000Y-112391400D03*
X164895000Y-112391400D03*
X168295000Y-122311400D03*
X164895000Y-122311400D03*
D19*
X173385000Y-80861600D03*
D20*
X173385000Y-78321600D03*
D19*
X188625000Y-80861600D03*
D20*
X188625000Y-78321600D03*
D19*
X203865000Y-80861600D03*
D20*
X203865000Y-78321600D03*
D19*
X204265000Y-109415000D03*
D20*
X204265000Y-111955000D03*
D19*
X189025000Y-109415000D03*
D20*
X189025000Y-111955000D03*
D19*
X173785000Y-109415000D03*
D20*
X173785000Y-111955000D03*
D16*
X100309200Y-114597000D03*
D17*
X100309200Y-122217000D03*
X114939600Y-122217000D03*
D16*
X114939600Y-114597000D03*
X129519200Y-114597000D03*
D17*
X129519200Y-122217000D03*
X144403600Y-122217000D03*
D16*
X144403600Y-114597000D03*
X159440400Y-114597000D03*
D17*
X159440400Y-122217000D03*
D16*
X159040400Y-75680400D03*
D17*
X159040400Y-68060400D03*
X144003600Y-68085800D03*
D16*
X144003600Y-75705800D03*
X129170000Y-75680400D03*
D17*
X129170000Y-68060400D03*
X114539600Y-68060400D03*
D16*
X114539600Y-75680400D03*
X99883800Y-75680400D03*
D17*
X99883800Y-68060400D03*
D18*
X123654600Y-68046400D03*
X120254600Y-68046400D03*
X123654600Y-77966400D03*
X120254600Y-77966400D03*
X109227400Y-68046400D03*
X105827400Y-68046400D03*
X109227400Y-77966400D03*
X105827400Y-77966400D03*
D20*
X99909200Y-78296600D03*
D19*
X99909200Y-80836600D03*
X100309200Y-109440800D03*
D20*
X100309200Y-111980800D03*
X114965000Y-111980800D03*
D19*
X114965000Y-109440800D03*
D20*
X129544600Y-111980800D03*
D19*
X129544600Y-109440800D03*
X144403600Y-109440800D03*
D20*
X144403600Y-111980800D03*
X159440400Y-111980800D03*
D19*
X159440400Y-109440800D03*
D20*
X159065800Y-78296600D03*
D19*
X159065800Y-80836600D03*
X144003600Y-80836600D03*
D20*
X144003600Y-78296600D03*
X129144600Y-78296600D03*
D19*
X129144600Y-80836600D03*
D20*
X114514200Y-78296600D03*
D19*
X114514200Y-80836600D03*
D18*
X94895400Y-112298300D03*
X91495400Y-112298300D03*
X94895400Y-122218300D03*
X91495400Y-122218300D03*
X109627400Y-112298300D03*
X106227400Y-112298300D03*
X109627400Y-122218300D03*
X106227400Y-122218300D03*
X120654600Y-122218300D03*
X124054600Y-122218300D03*
X120654600Y-112298300D03*
X124054600Y-112298300D03*
X138888400Y-112298300D03*
X135488400Y-112298300D03*
X138888400Y-122218300D03*
X135488400Y-122218300D03*
X153671000Y-112298300D03*
X150271000Y-112298300D03*
X153671000Y-122218300D03*
X150271000Y-122218300D03*
X153271000Y-68046400D03*
X149871000Y-68046400D03*
X153271000Y-77966400D03*
X149871000Y-77966400D03*
X138488400Y-68046400D03*
X135088400Y-68046400D03*
X138488400Y-77966400D03*
X135088400Y-77966400D03*
X94495400Y-68046400D03*
X91095400Y-68046400D03*
X94495400Y-77966400D03*
X91095400Y-77966400D03*
D20*
X213411400Y-93646600D03*
D19*
X213411400Y-91106600D03*
D17*
X218110400Y-98701200D03*
D16*
X218110400Y-91081200D03*
D12*
X17900000Y-114500000D03*
X40400000Y-114500000D03*
D21*
X122210400Y-49950200D03*
X122178600Y-136949000D03*
D22*
X26185600Y-102514400D02*
X25600000Y-103100000D01*
X25600000Y-103100000D02*
X20400000Y-103100000D01*
X17900000Y-105600000D02*
X17900000Y-114500000D01*
X20400000Y-103100000D02*
X17900000Y-105600000D01*
X66195880Y-93563920D02*
X66195880Y-98643920D01*
X66195880Y-98643920D02*
X66195880Y-101183920D01*
D23*
X66195880Y-102739554D02*
X66200000Y-102743674D01*
X66195880Y-101183920D02*
X66195880Y-102739554D01*
D22*
X66200000Y-110300000D02*
X66200000Y-102743674D01*
X40400000Y-114500000D02*
X63800000Y-114500000D01*
X66200000Y-112100000D02*
X66200000Y-110300000D01*
X63800000Y-114500000D02*
X66200000Y-112100000D01*
D23*
X222998800Y-98701200D02*
X234600000Y-87100000D01*
X218110400Y-98701200D02*
X222998800Y-98701200D01*
X100309200Y-114597000D02*
X100309200Y-111980800D01*
X114965000Y-114571600D02*
X114939600Y-114597000D01*
X114965000Y-111980800D02*
X114965000Y-114571600D01*
X129519200Y-112006200D02*
X129544600Y-111980800D01*
X129519200Y-114597000D02*
X129519200Y-112006200D01*
X144403600Y-114597000D02*
X144403600Y-111980800D01*
X159440400Y-112006200D02*
X159440400Y-114597000D01*
X159040400Y-78271200D02*
X159065800Y-78296600D01*
X159040400Y-75680400D02*
X159040400Y-78271200D01*
X144003600Y-78322000D02*
X144003600Y-75705800D01*
X129170000Y-78271200D02*
X129144600Y-78296600D01*
X129170000Y-75680400D02*
X129170000Y-78271200D01*
X114539600Y-78271200D02*
X114514200Y-78296600D01*
X114539600Y-75680400D02*
X114539600Y-78271200D01*
X99883800Y-78271200D02*
X99909200Y-78296600D01*
X99883800Y-75680400D02*
X99883800Y-78271200D01*
X173785000Y-111955000D02*
X173785000Y-114495000D01*
X100307900Y-122218300D02*
X100309200Y-122217000D01*
X91490320Y-130060520D02*
X91520800Y-130091000D01*
D22*
X91495400Y-130065600D02*
X91520800Y-130091000D01*
D23*
X114938300Y-122218300D02*
X114939600Y-122217000D01*
D22*
X106227400Y-129989400D02*
X106202000Y-130014800D01*
X106227400Y-130065600D02*
X106202000Y-130091000D01*
D23*
X106171520Y-130060520D02*
X106202000Y-130091000D01*
X129517900Y-122218300D02*
X129519200Y-122217000D01*
X120624120Y-130060520D02*
X120654600Y-130091000D01*
D22*
X135488400Y-129938400D02*
X135437400Y-129989400D01*
D23*
X144402300Y-122218300D02*
X144403600Y-122217000D01*
D22*
X135488400Y-130040000D02*
X135437400Y-130091000D01*
D23*
X135361200Y-130014800D02*
X135437400Y-130091000D01*
X135406920Y-130060520D02*
X135437400Y-130091000D01*
D22*
X150271000Y-130116400D02*
X150296400Y-130141800D01*
D23*
X153672300Y-122217000D02*
X153671000Y-122218300D01*
D22*
X150271000Y-130065600D02*
X150296400Y-130091000D01*
D23*
X150265920Y-130060520D02*
X150296400Y-130091000D01*
X159026400Y-68046400D02*
X159040400Y-68060400D01*
D22*
X153249200Y-68024600D02*
X153271000Y-68046400D01*
X153271000Y-57287200D02*
X153249200Y-57265400D01*
D23*
X153274600Y-57290800D02*
X153249200Y-57265400D01*
X138527800Y-68085800D02*
X138488400Y-68046400D01*
D22*
X138542600Y-67992200D02*
X138488400Y-68046400D01*
X138488400Y-57294200D02*
X138517200Y-57265400D01*
D23*
X138542600Y-57290800D02*
X138517200Y-57265400D01*
X129156000Y-68046400D02*
X129170000Y-68060400D01*
D22*
X123683600Y-68017400D02*
X123654600Y-68046400D01*
X123654600Y-57294400D02*
X123683600Y-57265400D01*
D23*
X123709000Y-57290800D02*
X123683600Y-57265400D01*
X114525600Y-68046400D02*
X114539600Y-68060400D01*
D22*
X109231000Y-68042800D02*
X109227400Y-68046400D01*
X109227400Y-57269000D02*
X109231000Y-57265400D01*
D23*
X109256400Y-57290800D02*
X109231000Y-57265400D01*
X94509400Y-68060400D02*
X94495400Y-68046400D01*
D22*
X94473600Y-68024600D02*
X94495400Y-68046400D01*
D23*
X189025000Y-111955000D02*
X189025000Y-114495000D01*
X204265000Y-114495000D02*
X204265000Y-111955000D01*
X203865000Y-75805400D02*
X203865000Y-78321600D01*
X188625000Y-78321600D02*
X188625000Y-75805400D01*
X173385000Y-75805400D02*
X173385000Y-78321600D01*
X218085000Y-91106600D02*
X218110400Y-91081200D01*
X213411400Y-91106600D02*
X218085000Y-91106600D01*
D22*
X198515000Y-67931400D02*
X198375000Y-68071400D01*
D23*
X203851000Y-68071400D02*
X203865000Y-68085400D01*
D22*
X197875000Y-57349000D02*
X197959000Y-57265000D01*
X183235000Y-68595000D02*
X183135000Y-68695000D01*
X182677600Y-57314400D02*
X182727000Y-57265000D01*
D23*
X188611000Y-68071400D02*
X188625000Y-68085400D01*
D22*
X167995000Y-68595000D02*
X167895000Y-68695000D01*
X167995000Y-67971400D02*
X167895000Y-68071400D01*
D23*
X173371000Y-68071400D02*
X173385000Y-68085400D01*
D24*
G36*
X96023000Y-66130000D02*
G01*
X96025440Y-66154776D01*
X96032667Y-66178601D01*
X96044403Y-66200557D01*
X96060197Y-66219803D01*
X96079443Y-66235597D01*
X96101399Y-66247333D01*
X96125224Y-66254560D01*
X96150000Y-66257000D01*
X101103000Y-66257000D01*
X101103000Y-69813000D01*
X89292000Y-69813000D01*
X89292000Y-66257000D01*
X92975000Y-66257000D01*
X92999776Y-66254560D01*
X93023601Y-66247333D01*
X93045557Y-66235597D01*
X93064803Y-66219803D01*
X93080597Y-66200557D01*
X93092333Y-66178601D01*
X93099560Y-66154776D01*
X93102000Y-66130000D01*
X93102000Y-55462000D01*
X96023000Y-55462000D01*
X96023000Y-66130000D01*
G37*
X96023000Y-66130000D02*
X96025440Y-66154776D01*
X96032667Y-66178601D01*
X96044403Y-66200557D01*
X96060197Y-66219803D01*
X96079443Y-66235597D01*
X96101399Y-66247333D01*
X96125224Y-66254560D01*
X96150000Y-66257000D01*
X101103000Y-66257000D01*
X101103000Y-69813000D01*
X89292000Y-69813000D01*
X89292000Y-66257000D01*
X92975000Y-66257000D01*
X92999776Y-66254560D01*
X93023601Y-66247333D01*
X93045557Y-66235597D01*
X93064803Y-66219803D01*
X93080597Y-66200557D01*
X93092333Y-66178601D01*
X93099560Y-66154776D01*
X93102000Y-66130000D01*
X93102000Y-55462000D01*
X96023000Y-55462000D01*
X96023000Y-66130000D01*
G36*
X101503000Y-123233000D02*
G01*
X92740000Y-123233000D01*
X92715224Y-123235440D01*
X92691399Y-123242667D01*
X92669443Y-123254403D01*
X92650197Y-123270197D01*
X92634403Y-123289443D01*
X92622667Y-123311399D01*
X92615440Y-123335224D01*
X92613000Y-123360000D01*
X92613000Y-128438699D01*
X92552119Y-131361000D01*
X91346838Y-131361000D01*
X90418492Y-131304737D01*
X90327000Y-128437986D01*
X90327000Y-120947000D01*
X101503000Y-120947000D01*
X101503000Y-123233000D01*
G37*
X101503000Y-123233000D02*
X92740000Y-123233000D01*
X92715224Y-123235440D01*
X92691399Y-123242667D01*
X92669443Y-123254403D01*
X92650197Y-123270197D01*
X92634403Y-123289443D01*
X92622667Y-123311399D01*
X92615440Y-123335224D01*
X92613000Y-123360000D01*
X92613000Y-128438699D01*
X92552119Y-131361000D01*
X91346838Y-131361000D01*
X90418492Y-131304737D01*
X90327000Y-128437986D01*
X90327000Y-120947000D01*
X101503000Y-120947000D01*
X101503000Y-123233000D01*
G36*
X110628000Y-66130000D02*
G01*
X110630440Y-66154776D01*
X110637667Y-66178601D01*
X110649403Y-66200557D01*
X110665197Y-66219803D01*
X110684443Y-66235597D01*
X110706399Y-66247333D01*
X110730224Y-66254560D01*
X110755000Y-66257000D01*
X115708000Y-66257000D01*
X115708000Y-69813000D01*
X103897000Y-69813000D01*
X103897000Y-66257000D01*
X107580000Y-66257000D01*
X107604776Y-66254560D01*
X107628601Y-66247333D01*
X107650557Y-66235597D01*
X107669803Y-66219803D01*
X107685597Y-66200557D01*
X107697333Y-66178601D01*
X107704560Y-66154776D01*
X107707000Y-66130000D01*
X107707000Y-57608109D01*
X107708000Y-57597956D01*
X107708000Y-56932845D01*
X107707000Y-56922692D01*
X107707000Y-55462000D01*
X110628000Y-55462000D01*
X110628000Y-66130000D01*
G37*
X110628000Y-66130000D02*
X110630440Y-66154776D01*
X110637667Y-66178601D01*
X110649403Y-66200557D01*
X110665197Y-66219803D01*
X110684443Y-66235597D01*
X110706399Y-66247333D01*
X110730224Y-66254560D01*
X110755000Y-66257000D01*
X115708000Y-66257000D01*
X115708000Y-69813000D01*
X103897000Y-69813000D01*
X103897000Y-66257000D01*
X107580000Y-66257000D01*
X107604776Y-66254560D01*
X107628601Y-66247333D01*
X107650557Y-66235597D01*
X107669803Y-66219803D01*
X107685597Y-66200557D01*
X107697333Y-66178601D01*
X107704560Y-66154776D01*
X107707000Y-66130000D01*
X107707000Y-57608109D01*
X107708000Y-57597956D01*
X107708000Y-56932845D01*
X107707000Y-56922692D01*
X107707000Y-55462000D01*
X110628000Y-55462000D01*
X110628000Y-66130000D01*
G36*
X125233000Y-66130000D02*
G01*
X125235440Y-66154776D01*
X125242667Y-66178601D01*
X125254403Y-66200557D01*
X125270197Y-66219803D01*
X125289443Y-66235597D01*
X125311399Y-66247333D01*
X125335224Y-66254560D01*
X125360000Y-66257000D01*
X130313000Y-66257000D01*
X130313000Y-69813000D01*
X118502000Y-69813000D01*
X118502000Y-66257000D01*
X122185000Y-66257000D01*
X122209776Y-66254560D01*
X122233601Y-66247333D01*
X122255557Y-66235597D01*
X122274803Y-66219803D01*
X122290597Y-66200557D01*
X122302333Y-66178601D01*
X122309560Y-66154776D01*
X122312000Y-66130000D01*
X122312000Y-55462000D01*
X125233000Y-55462000D01*
X125233000Y-66130000D01*
G37*
X125233000Y-66130000D02*
X125235440Y-66154776D01*
X125242667Y-66178601D01*
X125254403Y-66200557D01*
X125270197Y-66219803D01*
X125289443Y-66235597D01*
X125311399Y-66247333D01*
X125335224Y-66254560D01*
X125360000Y-66257000D01*
X130313000Y-66257000D01*
X130313000Y-69813000D01*
X118502000Y-69813000D01*
X118502000Y-66257000D01*
X122185000Y-66257000D01*
X122209776Y-66254560D01*
X122233601Y-66247333D01*
X122255557Y-66235597D01*
X122274803Y-66219803D01*
X122290597Y-66200557D01*
X122302333Y-66178601D01*
X122309560Y-66154776D01*
X122312000Y-66130000D01*
X122312000Y-55462000D01*
X125233000Y-55462000D01*
X125233000Y-66130000D01*
G36*
X169448000Y-66155000D02*
G01*
X169450440Y-66179776D01*
X169457667Y-66203601D01*
X169469403Y-66225557D01*
X169485197Y-66244803D01*
X169504443Y-66260597D01*
X169526399Y-66272333D01*
X169550224Y-66279560D01*
X169575000Y-66282000D01*
X174528000Y-66282000D01*
X174528000Y-69838000D01*
X162717000Y-69838000D01*
X162717000Y-66282000D01*
X166400000Y-66282000D01*
X166424776Y-66279560D01*
X166448601Y-66272333D01*
X166470557Y-66260597D01*
X166489803Y-66244803D01*
X166505597Y-66225557D01*
X166517333Y-66203601D01*
X166524560Y-66179776D01*
X166527000Y-66155000D01*
X166527000Y-55487000D01*
X169448000Y-55487000D01*
X169448000Y-66155000D01*
G37*
X169448000Y-66155000D02*
X169450440Y-66179776D01*
X169457667Y-66203601D01*
X169469403Y-66225557D01*
X169485197Y-66244803D01*
X169504443Y-66260597D01*
X169526399Y-66272333D01*
X169550224Y-66279560D01*
X169575000Y-66282000D01*
X174528000Y-66282000D01*
X174528000Y-69838000D01*
X162717000Y-69838000D01*
X162717000Y-66282000D01*
X166400000Y-66282000D01*
X166424776Y-66279560D01*
X166448601Y-66272333D01*
X166470557Y-66260597D01*
X166489803Y-66244803D01*
X166505597Y-66225557D01*
X166517333Y-66203601D01*
X166524560Y-66179776D01*
X166527000Y-66155000D01*
X166527000Y-55487000D01*
X169448000Y-55487000D01*
X169448000Y-66155000D01*
G36*
X184307000Y-66218500D02*
G01*
X184309440Y-66243276D01*
X184316667Y-66267101D01*
X184328403Y-66289057D01*
X184344197Y-66308303D01*
X184363443Y-66324097D01*
X184385399Y-66335833D01*
X184409224Y-66343060D01*
X184434000Y-66345500D01*
X189387000Y-66345500D01*
X189387000Y-69901500D01*
X177576000Y-69901500D01*
X177576000Y-66345500D01*
X181259000Y-66345500D01*
X181283776Y-66343060D01*
X181307601Y-66335833D01*
X181329557Y-66324097D01*
X181348803Y-66308303D01*
X181364597Y-66289057D01*
X181376333Y-66267101D01*
X181383560Y-66243276D01*
X181386000Y-66218500D01*
X181386000Y-55550500D01*
X184307000Y-55550500D01*
X184307000Y-66218500D01*
G37*
X184307000Y-66218500D02*
X184309440Y-66243276D01*
X184316667Y-66267101D01*
X184328403Y-66289057D01*
X184344197Y-66308303D01*
X184363443Y-66324097D01*
X184385399Y-66335833D01*
X184409224Y-66343060D01*
X184434000Y-66345500D01*
X189387000Y-66345500D01*
X189387000Y-69901500D01*
X177576000Y-69901500D01*
X177576000Y-66345500D01*
X181259000Y-66345500D01*
X181283776Y-66343060D01*
X181307601Y-66335833D01*
X181329557Y-66324097D01*
X181348803Y-66308303D01*
X181364597Y-66289057D01*
X181376333Y-66267101D01*
X181383560Y-66243276D01*
X181386000Y-66218500D01*
X181386000Y-55550500D01*
X184307000Y-55550500D01*
X184307000Y-66218500D01*
G36*
X199420000Y-66218500D02*
G01*
X199422440Y-66243276D01*
X199429667Y-66267101D01*
X199441403Y-66289057D01*
X199457197Y-66308303D01*
X199476443Y-66324097D01*
X199498399Y-66335833D01*
X199522224Y-66343060D01*
X199547000Y-66345500D01*
X204500000Y-66345500D01*
X204500000Y-69901500D01*
X192689000Y-69901500D01*
X192689000Y-66345500D01*
X196372000Y-66345500D01*
X196396776Y-66343060D01*
X196420601Y-66335833D01*
X196442557Y-66324097D01*
X196461803Y-66308303D01*
X196477597Y-66289057D01*
X196489333Y-66267101D01*
X196496560Y-66243276D01*
X196499000Y-66218500D01*
X196499000Y-55550500D01*
X199420000Y-55550500D01*
X199420000Y-66218500D01*
G37*
X199420000Y-66218500D02*
X199422440Y-66243276D01*
X199429667Y-66267101D01*
X199441403Y-66289057D01*
X199457197Y-66308303D01*
X199476443Y-66324097D01*
X199498399Y-66335833D01*
X199522224Y-66343060D01*
X199547000Y-66345500D01*
X204500000Y-66345500D01*
X204500000Y-69901500D01*
X192689000Y-69901500D01*
X192689000Y-66345500D01*
X196372000Y-66345500D01*
X196396776Y-66343060D01*
X196420601Y-66335833D01*
X196442557Y-66324097D01*
X196461803Y-66308303D01*
X196477597Y-66289057D01*
X196489333Y-66267101D01*
X196496560Y-66243276D01*
X196499000Y-66218500D01*
X196499000Y-55550500D01*
X199420000Y-55550500D01*
X199420000Y-66218500D01*
G36*
X140028500Y-66130000D02*
G01*
X140030940Y-66154776D01*
X140038167Y-66178601D01*
X140049903Y-66200557D01*
X140065697Y-66219803D01*
X140084943Y-66235597D01*
X140106899Y-66247333D01*
X140130724Y-66254560D01*
X140155500Y-66257000D01*
X145108500Y-66257000D01*
X145108500Y-69813000D01*
X133297500Y-69813000D01*
X133297500Y-66257000D01*
X136980500Y-66257000D01*
X137005276Y-66254560D01*
X137029101Y-66247333D01*
X137051057Y-66235597D01*
X137070303Y-66219803D01*
X137086097Y-66200557D01*
X137097833Y-66178601D01*
X137105060Y-66154776D01*
X137107500Y-66130000D01*
X137107500Y-55462000D01*
X140028500Y-55462000D01*
X140028500Y-66130000D01*
G37*
X140028500Y-66130000D02*
X140030940Y-66154776D01*
X140038167Y-66178601D01*
X140049903Y-66200557D01*
X140065697Y-66219803D01*
X140084943Y-66235597D01*
X140106899Y-66247333D01*
X140130724Y-66254560D01*
X140155500Y-66257000D01*
X145108500Y-66257000D01*
X145108500Y-69813000D01*
X133297500Y-69813000D01*
X133297500Y-66257000D01*
X136980500Y-66257000D01*
X137005276Y-66254560D01*
X137029101Y-66247333D01*
X137051057Y-66235597D01*
X137070303Y-66219803D01*
X137086097Y-66200557D01*
X137097833Y-66178601D01*
X137105060Y-66154776D01*
X137107500Y-66130000D01*
X137107500Y-55462000D01*
X140028500Y-55462000D01*
X140028500Y-66130000D01*
G36*
X154887500Y-59089747D02*
G01*
X154887200Y-59091255D01*
X154887200Y-59359545D01*
X154887500Y-59361053D01*
X154887500Y-66130000D01*
X154889940Y-66154776D01*
X154897167Y-66178601D01*
X154908903Y-66200557D01*
X154924697Y-66219803D01*
X154943943Y-66235597D01*
X154965899Y-66247333D01*
X154989724Y-66254560D01*
X155014500Y-66257000D01*
X159967500Y-66257000D01*
X159967500Y-69813000D01*
X148156500Y-69813000D01*
X148156500Y-66257000D01*
X151839500Y-66257000D01*
X151864276Y-66254560D01*
X151888101Y-66247333D01*
X151910057Y-66235597D01*
X151929303Y-66219803D01*
X151945097Y-66200557D01*
X151956833Y-66178601D01*
X151964060Y-66154776D01*
X151966500Y-66130000D01*
X151966500Y-55462000D01*
X154887500Y-55462000D01*
X154887500Y-59089747D01*
G37*
X154887500Y-59089747D02*
X154887200Y-59091255D01*
X154887200Y-59359545D01*
X154887500Y-59361053D01*
X154887500Y-66130000D01*
X154889940Y-66154776D01*
X154897167Y-66178601D01*
X154908903Y-66200557D01*
X154924697Y-66219803D01*
X154943943Y-66235597D01*
X154965899Y-66247333D01*
X154989724Y-66254560D01*
X155014500Y-66257000D01*
X159967500Y-66257000D01*
X159967500Y-69813000D01*
X148156500Y-69813000D01*
X148156500Y-66257000D01*
X151839500Y-66257000D01*
X151864276Y-66254560D01*
X151888101Y-66247333D01*
X151910057Y-66235597D01*
X151929303Y-66219803D01*
X151945097Y-66200557D01*
X151956833Y-66178601D01*
X151964060Y-66154776D01*
X151966500Y-66130000D01*
X151966500Y-55462000D01*
X154887500Y-55462000D01*
X154887500Y-59089747D01*
G36*
X116171500Y-123296500D02*
G01*
X107408500Y-123296500D01*
X107383724Y-123298940D01*
X107359899Y-123306167D01*
X107337943Y-123317903D01*
X107318697Y-123333697D01*
X107302903Y-123352943D01*
X107291167Y-123374899D01*
X107283940Y-123398724D01*
X107281500Y-123423500D01*
X107281500Y-128502199D01*
X107220619Y-131424500D01*
X106015338Y-131424500D01*
X105086992Y-131368237D01*
X104995500Y-128501486D01*
X104995500Y-121010500D01*
X116171500Y-121010500D01*
X116171500Y-123296500D01*
G37*
X116171500Y-123296500D02*
X107408500Y-123296500D01*
X107383724Y-123298940D01*
X107359899Y-123306167D01*
X107337943Y-123317903D01*
X107318697Y-123333697D01*
X107302903Y-123352943D01*
X107291167Y-123374899D01*
X107283940Y-123398724D01*
X107281500Y-123423500D01*
X107281500Y-128502199D01*
X107220619Y-131424500D01*
X106015338Y-131424500D01*
X105086992Y-131368237D01*
X104995500Y-128501486D01*
X104995500Y-121010500D01*
X116171500Y-121010500D01*
X116171500Y-123296500D01*
G36*
X130649500Y-123360000D02*
G01*
X121886500Y-123360000D01*
X121861724Y-123362440D01*
X121837899Y-123369667D01*
X121815943Y-123381403D01*
X121796697Y-123397197D01*
X121780903Y-123416443D01*
X121769167Y-123438399D01*
X121761940Y-123462224D01*
X121759500Y-123487000D01*
X121759500Y-128565699D01*
X121698619Y-131488000D01*
X120493338Y-131488000D01*
X119564992Y-131431737D01*
X119473500Y-128564986D01*
X119473500Y-121074000D01*
X130649500Y-121074000D01*
X130649500Y-123360000D01*
G37*
X130649500Y-123360000D02*
X121886500Y-123360000D01*
X121861724Y-123362440D01*
X121837899Y-123369667D01*
X121815943Y-123381403D01*
X121796697Y-123397197D01*
X121780903Y-123416443D01*
X121769167Y-123438399D01*
X121761940Y-123462224D01*
X121759500Y-123487000D01*
X121759500Y-128565699D01*
X121698619Y-131488000D01*
X120493338Y-131488000D01*
X119564992Y-131431737D01*
X119473500Y-128564986D01*
X119473500Y-121074000D01*
X130649500Y-121074000D01*
X130649500Y-123360000D01*
G36*
X145445000Y-123423500D02*
G01*
X136682000Y-123423500D01*
X136657224Y-123425940D01*
X136633399Y-123433167D01*
X136611443Y-123444903D01*
X136592197Y-123460697D01*
X136576403Y-123479943D01*
X136564667Y-123501899D01*
X136557440Y-123525724D01*
X136555000Y-123550500D01*
X136555000Y-128629199D01*
X136494119Y-131551500D01*
X135288838Y-131551500D01*
X134360492Y-131495237D01*
X134269000Y-128628486D01*
X134269000Y-121137500D01*
X145445000Y-121137500D01*
X145445000Y-123423500D01*
G37*
X145445000Y-123423500D02*
X136682000Y-123423500D01*
X136657224Y-123425940D01*
X136633399Y-123433167D01*
X136611443Y-123444903D01*
X136592197Y-123460697D01*
X136576403Y-123479943D01*
X136564667Y-123501899D01*
X136557440Y-123525724D01*
X136555000Y-123550500D01*
X136555000Y-128629199D01*
X136494119Y-131551500D01*
X135288838Y-131551500D01*
X134360492Y-131495237D01*
X134269000Y-128628486D01*
X134269000Y-121137500D01*
X145445000Y-121137500D01*
X145445000Y-123423500D01*
G36*
X160304000Y-123360000D02*
G01*
X151541000Y-123360000D01*
X151516224Y-123362440D01*
X151492399Y-123369667D01*
X151470443Y-123381403D01*
X151451197Y-123397197D01*
X151435403Y-123416443D01*
X151423667Y-123438399D01*
X151416440Y-123462224D01*
X151414000Y-123487000D01*
X151414000Y-128565699D01*
X151353119Y-131488000D01*
X150147838Y-131488000D01*
X149219492Y-131431737D01*
X149128000Y-128564986D01*
X149128000Y-121074000D01*
X160304000Y-121074000D01*
X160304000Y-123360000D01*
G37*
X160304000Y-123360000D02*
X151541000Y-123360000D01*
X151516224Y-123362440D01*
X151492399Y-123369667D01*
X151470443Y-123381403D01*
X151451197Y-123397197D01*
X151435403Y-123416443D01*
X151423667Y-123438399D01*
X151416440Y-123462224D01*
X151414000Y-123487000D01*
X151414000Y-128565699D01*
X151353119Y-131488000D01*
X150147838Y-131488000D01*
X149219492Y-131431737D01*
X149128000Y-128564986D01*
X149128000Y-121074000D01*
X160304000Y-121074000D01*
X160304000Y-123360000D01*
G36*
X174864500Y-123385000D02*
G01*
X166101500Y-123385000D01*
X166076724Y-123387440D01*
X166052899Y-123394667D01*
X166030943Y-123406403D01*
X166011697Y-123422197D01*
X165995903Y-123441443D01*
X165984167Y-123463399D01*
X165976940Y-123487224D01*
X165974500Y-123512000D01*
X165974500Y-128590699D01*
X165913619Y-131513000D01*
X164708338Y-131513000D01*
X163779992Y-131456737D01*
X163688500Y-128589986D01*
X163688500Y-121099000D01*
X174864500Y-121099000D01*
X174864500Y-123385000D01*
G37*
X174864500Y-123385000D02*
X166101500Y-123385000D01*
X166076724Y-123387440D01*
X166052899Y-123394667D01*
X166030943Y-123406403D01*
X166011697Y-123422197D01*
X165995903Y-123441443D01*
X165984167Y-123463399D01*
X165976940Y-123487224D01*
X165974500Y-123512000D01*
X165974500Y-128590699D01*
X165913619Y-131513000D01*
X164708338Y-131513000D01*
X163779992Y-131456737D01*
X163688500Y-128589986D01*
X163688500Y-121099000D01*
X174864500Y-121099000D01*
X174864500Y-123385000D01*
G36*
X190041000Y-123321500D02*
G01*
X181278000Y-123321500D01*
X181253224Y-123323940D01*
X181229399Y-123331167D01*
X181207443Y-123342903D01*
X181188197Y-123358697D01*
X181172403Y-123377943D01*
X181160667Y-123399899D01*
X181153440Y-123423724D01*
X181151000Y-123448500D01*
X181151000Y-128527199D01*
X181090119Y-131449500D01*
X179884838Y-131449500D01*
X178956492Y-131393237D01*
X178865000Y-128526486D01*
X178865000Y-121035500D01*
X190041000Y-121035500D01*
X190041000Y-123321500D01*
G37*
X190041000Y-123321500D02*
X181278000Y-123321500D01*
X181253224Y-123323940D01*
X181229399Y-123331167D01*
X181207443Y-123342903D01*
X181188197Y-123358697D01*
X181172403Y-123377943D01*
X181160667Y-123399899D01*
X181153440Y-123423724D01*
X181151000Y-123448500D01*
X181151000Y-128527199D01*
X181090119Y-131449500D01*
X179884838Y-131449500D01*
X178956492Y-131393237D01*
X178865000Y-128526486D01*
X178865000Y-121035500D01*
X190041000Y-121035500D01*
X190041000Y-123321500D01*
G36*
X205281000Y-123385000D02*
G01*
X196518000Y-123385000D01*
X196493224Y-123387440D01*
X196469399Y-123394667D01*
X196447443Y-123406403D01*
X196428197Y-123422197D01*
X196412403Y-123441443D01*
X196400667Y-123463399D01*
X196393440Y-123487224D01*
X196391000Y-123512000D01*
X196391000Y-128590699D01*
X196330119Y-131513000D01*
X195124838Y-131513000D01*
X194196492Y-131456737D01*
X194105000Y-128589986D01*
X194105000Y-121099000D01*
X205281000Y-121099000D01*
X205281000Y-123385000D01*
G37*
X205281000Y-123385000D02*
X196518000Y-123385000D01*
X196493224Y-123387440D01*
X196469399Y-123394667D01*
X196447443Y-123406403D01*
X196428197Y-123422197D01*
X196412403Y-123441443D01*
X196400667Y-123463399D01*
X196393440Y-123487224D01*
X196391000Y-123512000D01*
X196391000Y-128590699D01*
X196330119Y-131513000D01*
X195124838Y-131513000D01*
X194196492Y-131456737D01*
X194105000Y-128589986D01*
X194105000Y-121099000D01*
X205281000Y-121099000D01*
X205281000Y-123385000D01*
G36*
X244373000Y-117373000D02*
G01*
X87127000Y-117373000D01*
X87127000Y-111080800D01*
X98678683Y-111080800D01*
X98678683Y-112880800D01*
X98692720Y-113023317D01*
X98734290Y-113160357D01*
X98801797Y-113286653D01*
X98892646Y-113397354D01*
X99003347Y-113488203D01*
X99082200Y-113530351D01*
X99082200Y-113864802D01*
X99044609Y-113921062D01*
X98937038Y-114180759D01*
X98882200Y-114456453D01*
X98882200Y-114737547D01*
X98937038Y-115013241D01*
X99044609Y-115272938D01*
X99200776Y-115506660D01*
X99399540Y-115705424D01*
X99633262Y-115861591D01*
X99892959Y-115969162D01*
X100168653Y-116024000D01*
X100449747Y-116024000D01*
X100725441Y-115969162D01*
X100985138Y-115861591D01*
X101218860Y-115705424D01*
X101417624Y-115506660D01*
X101573791Y-115272938D01*
X101681362Y-115013241D01*
X101736200Y-114737547D01*
X101736200Y-114456453D01*
X101681362Y-114180759D01*
X101573791Y-113921062D01*
X101536200Y-113864803D01*
X101536200Y-113530351D01*
X101615053Y-113488203D01*
X101725754Y-113397354D01*
X101816603Y-113286653D01*
X101884110Y-113160357D01*
X101925680Y-113023317D01*
X101939717Y-112880800D01*
X101939717Y-111080800D01*
X113334483Y-111080800D01*
X113334483Y-112880800D01*
X113348520Y-113023317D01*
X113390090Y-113160357D01*
X113457597Y-113286653D01*
X113548446Y-113397354D01*
X113659147Y-113488203D01*
X113738001Y-113530351D01*
X113738001Y-113826788D01*
X113675009Y-113921062D01*
X113567438Y-114180759D01*
X113512600Y-114456453D01*
X113512600Y-114737547D01*
X113567438Y-115013241D01*
X113675009Y-115272938D01*
X113831176Y-115506660D01*
X114029940Y-115705424D01*
X114263662Y-115861591D01*
X114523359Y-115969162D01*
X114799053Y-116024000D01*
X115080147Y-116024000D01*
X115355841Y-115969162D01*
X115615538Y-115861591D01*
X115849260Y-115705424D01*
X116048024Y-115506660D01*
X116204191Y-115272938D01*
X116311762Y-115013241D01*
X116366600Y-114737547D01*
X116366600Y-114456453D01*
X116311762Y-114180759D01*
X116204191Y-113921062D01*
X116192000Y-113902817D01*
X116192000Y-113530351D01*
X116270853Y-113488203D01*
X116381554Y-113397354D01*
X116472403Y-113286653D01*
X116539910Y-113160357D01*
X116581480Y-113023317D01*
X116595517Y-112880800D01*
X116595517Y-111080800D01*
X127914083Y-111080800D01*
X127914083Y-112880800D01*
X127928120Y-113023317D01*
X127969690Y-113160357D01*
X128037197Y-113286653D01*
X128128046Y-113397354D01*
X128238747Y-113488203D01*
X128292200Y-113516775D01*
X128292200Y-113864802D01*
X128254609Y-113921062D01*
X128147038Y-114180759D01*
X128092200Y-114456453D01*
X128092200Y-114737547D01*
X128147038Y-115013241D01*
X128254609Y-115272938D01*
X128410776Y-115506660D01*
X128609540Y-115705424D01*
X128843262Y-115861591D01*
X129102959Y-115969162D01*
X129378653Y-116024000D01*
X129659747Y-116024000D01*
X129935441Y-115969162D01*
X130195138Y-115861591D01*
X130428860Y-115705424D01*
X130627624Y-115506660D01*
X130783791Y-115272938D01*
X130891362Y-115013241D01*
X130946200Y-114737547D01*
X130946200Y-114456453D01*
X130891362Y-114180759D01*
X130783791Y-113921062D01*
X130746200Y-113864803D01*
X130746200Y-113543928D01*
X130850453Y-113488203D01*
X130961154Y-113397354D01*
X131052003Y-113286653D01*
X131119510Y-113160357D01*
X131161080Y-113023317D01*
X131175117Y-112880800D01*
X131175117Y-111080800D01*
X142773083Y-111080800D01*
X142773083Y-112880800D01*
X142787120Y-113023317D01*
X142828690Y-113160357D01*
X142896197Y-113286653D01*
X142987046Y-113397354D01*
X143097747Y-113488203D01*
X143176600Y-113530351D01*
X143176600Y-113864802D01*
X143139009Y-113921062D01*
X143031438Y-114180759D01*
X142976600Y-114456453D01*
X142976600Y-114737547D01*
X143031438Y-115013241D01*
X143139009Y-115272938D01*
X143295176Y-115506660D01*
X143493940Y-115705424D01*
X143727662Y-115861591D01*
X143987359Y-115969162D01*
X144263053Y-116024000D01*
X144544147Y-116024000D01*
X144819841Y-115969162D01*
X145079538Y-115861591D01*
X145313260Y-115705424D01*
X145512024Y-115506660D01*
X145668191Y-115272938D01*
X145775762Y-115013241D01*
X145830600Y-114737547D01*
X145830600Y-114456453D01*
X145775762Y-114180759D01*
X145668191Y-113921062D01*
X145630600Y-113864803D01*
X145630600Y-113530351D01*
X145709453Y-113488203D01*
X145820154Y-113397354D01*
X145911003Y-113286653D01*
X145978510Y-113160357D01*
X146020080Y-113023317D01*
X146034117Y-112880800D01*
X146034117Y-111080800D01*
X157809883Y-111080800D01*
X157809883Y-112880800D01*
X157823920Y-113023317D01*
X157865490Y-113160357D01*
X157932997Y-113286653D01*
X158023846Y-113397354D01*
X158134547Y-113488203D01*
X158213401Y-113530351D01*
X158213401Y-113864802D01*
X158175809Y-113921062D01*
X158068238Y-114180759D01*
X158013400Y-114456453D01*
X158013400Y-114737547D01*
X158068238Y-115013241D01*
X158175809Y-115272938D01*
X158331976Y-115506660D01*
X158530740Y-115705424D01*
X158764462Y-115861591D01*
X159024159Y-115969162D01*
X159299853Y-116024000D01*
X159580947Y-116024000D01*
X159856641Y-115969162D01*
X160116338Y-115861591D01*
X160350060Y-115705424D01*
X160548824Y-115506660D01*
X160704991Y-115272938D01*
X160812562Y-115013241D01*
X160867400Y-114737547D01*
X160867400Y-114456453D01*
X160812562Y-114180759D01*
X160704991Y-113921062D01*
X160667400Y-113864803D01*
X160667400Y-113530351D01*
X160746253Y-113488203D01*
X160856954Y-113397354D01*
X160947803Y-113286653D01*
X161015310Y-113160357D01*
X161056880Y-113023317D01*
X161070917Y-112880800D01*
X161070917Y-111080800D01*
X161068376Y-111055000D01*
X172154483Y-111055000D01*
X172154483Y-112855000D01*
X172168520Y-112997517D01*
X172210090Y-113134557D01*
X172277597Y-113260853D01*
X172368446Y-113371554D01*
X172479147Y-113462403D01*
X172558001Y-113504551D01*
X172558001Y-113762802D01*
X172520409Y-113819062D01*
X172412838Y-114078759D01*
X172358000Y-114354453D01*
X172358000Y-114635547D01*
X172412838Y-114911241D01*
X172520409Y-115170938D01*
X172676576Y-115404660D01*
X172875340Y-115603424D01*
X173109062Y-115759591D01*
X173368759Y-115867162D01*
X173644453Y-115922000D01*
X173925547Y-115922000D01*
X174201241Y-115867162D01*
X174460938Y-115759591D01*
X174694660Y-115603424D01*
X174893424Y-115404660D01*
X175049591Y-115170938D01*
X175157162Y-114911241D01*
X175212000Y-114635547D01*
X175212000Y-114354453D01*
X175157162Y-114078759D01*
X175049591Y-113819062D01*
X175012000Y-113762803D01*
X175012000Y-113504551D01*
X175090853Y-113462403D01*
X175201554Y-113371554D01*
X175292403Y-113260853D01*
X175359910Y-113134557D01*
X175401480Y-112997517D01*
X175415517Y-112855000D01*
X175415517Y-111055000D01*
X187394483Y-111055000D01*
X187394483Y-112855000D01*
X187408520Y-112997517D01*
X187450090Y-113134557D01*
X187517597Y-113260853D01*
X187608446Y-113371554D01*
X187719147Y-113462403D01*
X187798001Y-113504551D01*
X187798001Y-113762802D01*
X187760409Y-113819062D01*
X187652838Y-114078759D01*
X187598000Y-114354453D01*
X187598000Y-114635547D01*
X187652838Y-114911241D01*
X187760409Y-115170938D01*
X187916576Y-115404660D01*
X188115340Y-115603424D01*
X188349062Y-115759591D01*
X188608759Y-115867162D01*
X188884453Y-115922000D01*
X189165547Y-115922000D01*
X189441241Y-115867162D01*
X189700938Y-115759591D01*
X189934660Y-115603424D01*
X190133424Y-115404660D01*
X190289591Y-115170938D01*
X190397162Y-114911241D01*
X190452000Y-114635547D01*
X190452000Y-114354453D01*
X190397162Y-114078759D01*
X190289591Y-113819062D01*
X190252000Y-113762803D01*
X190252000Y-113504551D01*
X190330853Y-113462403D01*
X190441554Y-113371554D01*
X190532403Y-113260853D01*
X190599910Y-113134557D01*
X190641480Y-112997517D01*
X190655517Y-112855000D01*
X190655517Y-111055000D01*
X202634483Y-111055000D01*
X202634483Y-112855000D01*
X202648520Y-112997517D01*
X202690090Y-113134557D01*
X202757597Y-113260853D01*
X202848446Y-113371554D01*
X202959147Y-113462403D01*
X203038000Y-113504551D01*
X203038000Y-113762802D01*
X203000409Y-113819062D01*
X202892838Y-114078759D01*
X202838000Y-114354453D01*
X202838000Y-114635547D01*
X202892838Y-114911241D01*
X203000409Y-115170938D01*
X203156576Y-115404660D01*
X203355340Y-115603424D01*
X203589062Y-115759591D01*
X203848759Y-115867162D01*
X204124453Y-115922000D01*
X204405547Y-115922000D01*
X204681241Y-115867162D01*
X204940938Y-115759591D01*
X205174660Y-115603424D01*
X205373424Y-115404660D01*
X205529591Y-115170938D01*
X205637162Y-114911241D01*
X205692000Y-114635547D01*
X205692000Y-114354453D01*
X205637162Y-114078759D01*
X205529591Y-113819062D01*
X205492000Y-113762803D01*
X205492000Y-113504551D01*
X205570853Y-113462403D01*
X205681554Y-113371554D01*
X205772403Y-113260853D01*
X205839910Y-113134557D01*
X205881480Y-112997517D01*
X205895517Y-112855000D01*
X205895517Y-111055000D01*
X205881480Y-110912483D01*
X205839910Y-110775443D01*
X205772403Y-110649147D01*
X205681554Y-110538446D01*
X205570853Y-110447597D01*
X205542089Y-110432222D01*
X205706828Y-110185673D01*
X205829475Y-109889578D01*
X205892000Y-109575245D01*
X205892000Y-109254755D01*
X205829475Y-108940422D01*
X205706828Y-108644327D01*
X205528773Y-108377848D01*
X205302152Y-108151227D01*
X205035673Y-107973172D01*
X204739578Y-107850525D01*
X204425245Y-107788000D01*
X204104755Y-107788000D01*
X203790422Y-107850525D01*
X203494327Y-107973172D01*
X203227848Y-108151227D01*
X203001227Y-108377848D01*
X202823172Y-108644327D01*
X202700525Y-108940422D01*
X202638000Y-109254755D01*
X202638000Y-109575245D01*
X202700525Y-109889578D01*
X202823172Y-110185673D01*
X202987911Y-110432222D01*
X202959147Y-110447597D01*
X202848446Y-110538446D01*
X202757597Y-110649147D01*
X202690090Y-110775443D01*
X202648520Y-110912483D01*
X202634483Y-111055000D01*
X190655517Y-111055000D01*
X190641480Y-110912483D01*
X190599910Y-110775443D01*
X190532403Y-110649147D01*
X190441554Y-110538446D01*
X190330853Y-110447597D01*
X190302089Y-110432222D01*
X190466828Y-110185673D01*
X190589475Y-109889578D01*
X190652000Y-109575245D01*
X190652000Y-109254755D01*
X190589475Y-108940422D01*
X190466828Y-108644327D01*
X190288773Y-108377848D01*
X190062152Y-108151227D01*
X189795673Y-107973172D01*
X189499578Y-107850525D01*
X189185245Y-107788000D01*
X188864755Y-107788000D01*
X188550422Y-107850525D01*
X188254327Y-107973172D01*
X187987848Y-108151227D01*
X187761227Y-108377848D01*
X187583172Y-108644327D01*
X187460525Y-108940422D01*
X187398000Y-109254755D01*
X187398000Y-109575245D01*
X187460525Y-109889578D01*
X187583172Y-110185673D01*
X187747911Y-110432222D01*
X187719147Y-110447597D01*
X187608446Y-110538446D01*
X187517597Y-110649147D01*
X187450090Y-110775443D01*
X187408520Y-110912483D01*
X187394483Y-111055000D01*
X175415517Y-111055000D01*
X175401480Y-110912483D01*
X175359910Y-110775443D01*
X175292403Y-110649147D01*
X175201554Y-110538446D01*
X175090853Y-110447597D01*
X175062089Y-110432222D01*
X175226828Y-110185673D01*
X175349475Y-109889578D01*
X175412000Y-109575245D01*
X175412000Y-109254755D01*
X175349475Y-108940422D01*
X175226828Y-108644327D01*
X175048773Y-108377848D01*
X174822152Y-108151227D01*
X174555673Y-107973172D01*
X174259578Y-107850525D01*
X173945245Y-107788000D01*
X173624755Y-107788000D01*
X173310422Y-107850525D01*
X173014327Y-107973172D01*
X172747848Y-108151227D01*
X172521227Y-108377848D01*
X172343172Y-108644327D01*
X172220525Y-108940422D01*
X172158000Y-109254755D01*
X172158000Y-109575245D01*
X172220525Y-109889578D01*
X172343172Y-110185673D01*
X172507911Y-110432222D01*
X172479147Y-110447597D01*
X172368446Y-110538446D01*
X172277597Y-110649147D01*
X172210090Y-110775443D01*
X172168520Y-110912483D01*
X172154483Y-111055000D01*
X161068376Y-111055000D01*
X161056880Y-110938283D01*
X161015310Y-110801243D01*
X160947803Y-110674947D01*
X160856954Y-110564246D01*
X160746253Y-110473397D01*
X160717489Y-110458022D01*
X160882228Y-110211473D01*
X161004875Y-109915378D01*
X161067400Y-109601045D01*
X161067400Y-109280555D01*
X161004875Y-108966222D01*
X160882228Y-108670127D01*
X160704173Y-108403648D01*
X160477552Y-108177027D01*
X160211073Y-107998972D01*
X159914978Y-107876325D01*
X159600645Y-107813800D01*
X159280155Y-107813800D01*
X158965822Y-107876325D01*
X158669727Y-107998972D01*
X158403248Y-108177027D01*
X158176627Y-108403648D01*
X157998572Y-108670127D01*
X157875925Y-108966222D01*
X157813400Y-109280555D01*
X157813400Y-109601045D01*
X157875925Y-109915378D01*
X157998572Y-110211473D01*
X158163311Y-110458022D01*
X158134547Y-110473397D01*
X158023846Y-110564246D01*
X157932997Y-110674947D01*
X157865490Y-110801243D01*
X157823920Y-110938283D01*
X157809883Y-111080800D01*
X146034117Y-111080800D01*
X146020080Y-110938283D01*
X145978510Y-110801243D01*
X145911003Y-110674947D01*
X145820154Y-110564246D01*
X145709453Y-110473397D01*
X145680689Y-110458022D01*
X145845428Y-110211473D01*
X145968075Y-109915378D01*
X146030600Y-109601045D01*
X146030600Y-109280555D01*
X145968075Y-108966222D01*
X145845428Y-108670127D01*
X145667373Y-108403648D01*
X145440752Y-108177027D01*
X145174273Y-107998972D01*
X144878178Y-107876325D01*
X144563845Y-107813800D01*
X144243355Y-107813800D01*
X143929022Y-107876325D01*
X143632927Y-107998972D01*
X143366448Y-108177027D01*
X143139827Y-108403648D01*
X142961772Y-108670127D01*
X142839125Y-108966222D01*
X142776600Y-109280555D01*
X142776600Y-109601045D01*
X142839125Y-109915378D01*
X142961772Y-110211473D01*
X143126511Y-110458022D01*
X143097747Y-110473397D01*
X142987046Y-110564246D01*
X142896197Y-110674947D01*
X142828690Y-110801243D01*
X142787120Y-110938283D01*
X142773083Y-111080800D01*
X131175117Y-111080800D01*
X131161080Y-110938283D01*
X131119510Y-110801243D01*
X131052003Y-110674947D01*
X130961154Y-110564246D01*
X130850453Y-110473397D01*
X130821689Y-110458022D01*
X130986428Y-110211473D01*
X131109075Y-109915378D01*
X131171600Y-109601045D01*
X131171600Y-109280555D01*
X131109075Y-108966222D01*
X130986428Y-108670127D01*
X130808373Y-108403648D01*
X130581752Y-108177027D01*
X130315273Y-107998972D01*
X130019178Y-107876325D01*
X129704845Y-107813800D01*
X129384355Y-107813800D01*
X129070022Y-107876325D01*
X128773927Y-107998972D01*
X128507448Y-108177027D01*
X128280827Y-108403648D01*
X128102772Y-108670127D01*
X127980125Y-108966222D01*
X127917600Y-109280555D01*
X127917600Y-109601045D01*
X127980125Y-109915378D01*
X128102772Y-110211473D01*
X128267511Y-110458022D01*
X128238747Y-110473397D01*
X128128046Y-110564246D01*
X128037197Y-110674947D01*
X127969690Y-110801243D01*
X127928120Y-110938283D01*
X127914083Y-111080800D01*
X116595517Y-111080800D01*
X116581480Y-110938283D01*
X116539910Y-110801243D01*
X116472403Y-110674947D01*
X116381554Y-110564246D01*
X116270853Y-110473397D01*
X116242089Y-110458022D01*
X116406828Y-110211473D01*
X116529475Y-109915378D01*
X116592000Y-109601045D01*
X116592000Y-109280555D01*
X116529475Y-108966222D01*
X116406828Y-108670127D01*
X116228773Y-108403648D01*
X116002152Y-108177027D01*
X115735673Y-107998972D01*
X115439578Y-107876325D01*
X115125245Y-107813800D01*
X114804755Y-107813800D01*
X114490422Y-107876325D01*
X114194327Y-107998972D01*
X113927848Y-108177027D01*
X113701227Y-108403648D01*
X113523172Y-108670127D01*
X113400525Y-108966222D01*
X113338000Y-109280555D01*
X113338000Y-109601045D01*
X113400525Y-109915378D01*
X113523172Y-110211473D01*
X113687911Y-110458022D01*
X113659147Y-110473397D01*
X113548446Y-110564246D01*
X113457597Y-110674947D01*
X113390090Y-110801243D01*
X113348520Y-110938283D01*
X113334483Y-111080800D01*
X101939717Y-111080800D01*
X101925680Y-110938283D01*
X101884110Y-110801243D01*
X101816603Y-110674947D01*
X101725754Y-110564246D01*
X101615053Y-110473397D01*
X101586289Y-110458022D01*
X101751028Y-110211473D01*
X101873675Y-109915378D01*
X101936200Y-109601045D01*
X101936200Y-109280555D01*
X101873675Y-108966222D01*
X101751028Y-108670127D01*
X101572973Y-108403648D01*
X101346352Y-108177027D01*
X101079873Y-107998972D01*
X100783778Y-107876325D01*
X100469445Y-107813800D01*
X100148955Y-107813800D01*
X99834622Y-107876325D01*
X99538527Y-107998972D01*
X99272048Y-108177027D01*
X99045427Y-108403648D01*
X98867372Y-108670127D01*
X98744725Y-108966222D01*
X98682200Y-109280555D01*
X98682200Y-109601045D01*
X98744725Y-109915378D01*
X98867372Y-110211473D01*
X99032111Y-110458022D01*
X99003347Y-110473397D01*
X98892646Y-110564246D01*
X98801797Y-110674947D01*
X98734290Y-110801243D01*
X98692720Y-110938283D01*
X98678683Y-111080800D01*
X87127000Y-111080800D01*
X87127000Y-99880660D01*
X232373000Y-99880660D01*
X232373000Y-100319340D01*
X232458582Y-100749592D01*
X232626458Y-101154880D01*
X232870176Y-101519630D01*
X233180370Y-101829824D01*
X233545120Y-102073542D01*
X233950408Y-102241418D01*
X234380660Y-102327000D01*
X234819340Y-102327000D01*
X235249592Y-102241418D01*
X235654880Y-102073542D01*
X236019630Y-101829824D01*
X236329824Y-101519630D01*
X236573542Y-101154880D01*
X236741418Y-100749592D01*
X236827000Y-100319340D01*
X236827000Y-99880660D01*
X236741418Y-99450408D01*
X236573542Y-99045120D01*
X236329824Y-98680370D01*
X236019630Y-98370176D01*
X235654880Y-98126458D01*
X235249592Y-97958582D01*
X234819340Y-97873000D01*
X234380660Y-97873000D01*
X233950408Y-97958582D01*
X233545120Y-98126458D01*
X233180370Y-98370176D01*
X232870176Y-98680370D01*
X232626458Y-99045120D01*
X232458582Y-99450408D01*
X232373000Y-99880660D01*
X87127000Y-99880660D01*
X87127000Y-92746600D01*
X211780883Y-92746600D01*
X211780883Y-94546600D01*
X211794920Y-94689117D01*
X211836490Y-94826157D01*
X211903997Y-94952453D01*
X211994846Y-95063154D01*
X212105547Y-95154003D01*
X212231843Y-95221510D01*
X212368883Y-95263080D01*
X212511400Y-95277117D01*
X214311400Y-95277117D01*
X214453917Y-95263080D01*
X214590957Y-95221510D01*
X214717253Y-95154003D01*
X214827954Y-95063154D01*
X214918803Y-94952453D01*
X214986310Y-94826157D01*
X215027880Y-94689117D01*
X215041917Y-94546600D01*
X215041917Y-92746600D01*
X215027880Y-92604083D01*
X214986310Y-92467043D01*
X214918803Y-92340747D01*
X214912938Y-92333600D01*
X217416217Y-92333600D01*
X217434462Y-92345791D01*
X217694159Y-92453362D01*
X217969853Y-92508200D01*
X218250947Y-92508200D01*
X218526641Y-92453362D01*
X218786338Y-92345791D01*
X219020060Y-92189624D01*
X219218824Y-91990860D01*
X219374991Y-91757138D01*
X219482562Y-91497441D01*
X219537400Y-91221747D01*
X219537400Y-90940653D01*
X219482562Y-90664959D01*
X219374991Y-90405262D01*
X219218824Y-90171540D01*
X219020060Y-89972776D01*
X218786338Y-89816609D01*
X218526641Y-89709038D01*
X218250947Y-89654200D01*
X217969853Y-89654200D01*
X217694159Y-89709038D01*
X217434462Y-89816609D01*
X217340189Y-89879600D01*
X214485325Y-89879600D01*
X214448552Y-89842827D01*
X214182073Y-89664772D01*
X213885978Y-89542125D01*
X213571645Y-89479600D01*
X213251155Y-89479600D01*
X212936822Y-89542125D01*
X212640727Y-89664772D01*
X212374248Y-89842827D01*
X212147627Y-90069448D01*
X211969572Y-90335927D01*
X211846925Y-90632022D01*
X211784400Y-90946355D01*
X211784400Y-91266845D01*
X211846925Y-91581178D01*
X211969572Y-91877273D01*
X212134311Y-92123822D01*
X212105547Y-92139197D01*
X211994846Y-92230046D01*
X211903997Y-92340747D01*
X211836490Y-92467043D01*
X211794920Y-92604083D01*
X211780883Y-92746600D01*
X87127000Y-92746600D01*
X87127000Y-77396600D01*
X98278683Y-77396600D01*
X98278683Y-79196600D01*
X98292720Y-79339117D01*
X98334290Y-79476157D01*
X98401797Y-79602453D01*
X98492646Y-79713154D01*
X98603347Y-79804003D01*
X98632111Y-79819378D01*
X98467372Y-80065927D01*
X98344725Y-80362022D01*
X98282200Y-80676355D01*
X98282200Y-80996845D01*
X98344725Y-81311178D01*
X98467372Y-81607273D01*
X98645427Y-81873752D01*
X98872048Y-82100373D01*
X99138527Y-82278428D01*
X99434622Y-82401075D01*
X99748955Y-82463600D01*
X100069445Y-82463600D01*
X100383778Y-82401075D01*
X100679873Y-82278428D01*
X100946352Y-82100373D01*
X101172973Y-81873752D01*
X101351028Y-81607273D01*
X101473675Y-81311178D01*
X101536200Y-80996845D01*
X101536200Y-80676355D01*
X101473675Y-80362022D01*
X101351028Y-80065927D01*
X101186289Y-79819378D01*
X101215053Y-79804003D01*
X101325754Y-79713154D01*
X101416603Y-79602453D01*
X101484110Y-79476157D01*
X101525680Y-79339117D01*
X101539717Y-79196600D01*
X101539717Y-77396600D01*
X112883683Y-77396600D01*
X112883683Y-79196600D01*
X112897720Y-79339117D01*
X112939290Y-79476157D01*
X113006797Y-79602453D01*
X113097646Y-79713154D01*
X113208347Y-79804003D01*
X113237111Y-79819378D01*
X113072372Y-80065927D01*
X112949725Y-80362022D01*
X112887200Y-80676355D01*
X112887200Y-80996845D01*
X112949725Y-81311178D01*
X113072372Y-81607273D01*
X113250427Y-81873752D01*
X113477048Y-82100373D01*
X113743527Y-82278428D01*
X114039622Y-82401075D01*
X114353955Y-82463600D01*
X114674445Y-82463600D01*
X114988778Y-82401075D01*
X115284873Y-82278428D01*
X115551352Y-82100373D01*
X115777973Y-81873752D01*
X115956028Y-81607273D01*
X116078675Y-81311178D01*
X116141200Y-80996845D01*
X116141200Y-80676355D01*
X116078675Y-80362022D01*
X115956028Y-80065927D01*
X115791289Y-79819378D01*
X115820053Y-79804003D01*
X115930754Y-79713154D01*
X116021603Y-79602453D01*
X116089110Y-79476157D01*
X116130680Y-79339117D01*
X116144717Y-79196600D01*
X116144717Y-77396600D01*
X127514083Y-77396600D01*
X127514083Y-79196600D01*
X127528120Y-79339117D01*
X127569690Y-79476157D01*
X127637197Y-79602453D01*
X127728046Y-79713154D01*
X127838747Y-79804003D01*
X127867511Y-79819378D01*
X127702772Y-80065927D01*
X127580125Y-80362022D01*
X127517600Y-80676355D01*
X127517600Y-80996845D01*
X127580125Y-81311178D01*
X127702772Y-81607273D01*
X127880827Y-81873752D01*
X128107448Y-82100373D01*
X128373927Y-82278428D01*
X128670022Y-82401075D01*
X128984355Y-82463600D01*
X129304845Y-82463600D01*
X129619178Y-82401075D01*
X129915273Y-82278428D01*
X130181752Y-82100373D01*
X130408373Y-81873752D01*
X130586428Y-81607273D01*
X130709075Y-81311178D01*
X130771600Y-80996845D01*
X130771600Y-80676355D01*
X130709075Y-80362022D01*
X130586428Y-80065927D01*
X130421689Y-79819378D01*
X130450453Y-79804003D01*
X130561154Y-79713154D01*
X130652003Y-79602453D01*
X130719510Y-79476157D01*
X130761080Y-79339117D01*
X130775117Y-79196600D01*
X130775117Y-77396600D01*
X142373083Y-77396600D01*
X142373083Y-79196600D01*
X142387120Y-79339117D01*
X142428690Y-79476157D01*
X142496197Y-79602453D01*
X142587046Y-79713154D01*
X142697747Y-79804003D01*
X142726511Y-79819378D01*
X142561772Y-80065927D01*
X142439125Y-80362022D01*
X142376600Y-80676355D01*
X142376600Y-80996845D01*
X142439125Y-81311178D01*
X142561772Y-81607273D01*
X142739827Y-81873752D01*
X142966448Y-82100373D01*
X143232927Y-82278428D01*
X143529022Y-82401075D01*
X143843355Y-82463600D01*
X144163845Y-82463600D01*
X144478178Y-82401075D01*
X144774273Y-82278428D01*
X145040752Y-82100373D01*
X145267373Y-81873752D01*
X145445428Y-81607273D01*
X145568075Y-81311178D01*
X145630600Y-80996845D01*
X145630600Y-80676355D01*
X145568075Y-80362022D01*
X145445428Y-80065927D01*
X145280689Y-79819378D01*
X145309453Y-79804003D01*
X145420154Y-79713154D01*
X145511003Y-79602453D01*
X145578510Y-79476157D01*
X145620080Y-79339117D01*
X145634117Y-79196600D01*
X145634117Y-77396600D01*
X157435283Y-77396600D01*
X157435283Y-79196600D01*
X157449320Y-79339117D01*
X157490890Y-79476157D01*
X157558397Y-79602453D01*
X157649246Y-79713154D01*
X157759947Y-79804003D01*
X157788711Y-79819378D01*
X157623972Y-80065927D01*
X157501325Y-80362022D01*
X157438800Y-80676355D01*
X157438800Y-80996845D01*
X157501325Y-81311178D01*
X157623972Y-81607273D01*
X157802027Y-81873752D01*
X158028648Y-82100373D01*
X158295127Y-82278428D01*
X158591222Y-82401075D01*
X158905555Y-82463600D01*
X159226045Y-82463600D01*
X159540378Y-82401075D01*
X159836473Y-82278428D01*
X160102952Y-82100373D01*
X160329573Y-81873752D01*
X160507628Y-81607273D01*
X160630275Y-81311178D01*
X160692800Y-80996845D01*
X160692800Y-80676355D01*
X160630275Y-80362022D01*
X160507628Y-80065927D01*
X160342889Y-79819378D01*
X160371653Y-79804003D01*
X160482354Y-79713154D01*
X160573203Y-79602453D01*
X160640710Y-79476157D01*
X160682280Y-79339117D01*
X160696317Y-79196600D01*
X160696317Y-77421600D01*
X171754483Y-77421600D01*
X171754483Y-79221600D01*
X171768520Y-79364117D01*
X171810090Y-79501157D01*
X171877597Y-79627453D01*
X171968446Y-79738154D01*
X172079147Y-79829003D01*
X172107911Y-79844378D01*
X171943172Y-80090927D01*
X171820525Y-80387022D01*
X171758000Y-80701355D01*
X171758000Y-81021845D01*
X171820525Y-81336178D01*
X171943172Y-81632273D01*
X172121227Y-81898752D01*
X172347848Y-82125373D01*
X172614327Y-82303428D01*
X172910422Y-82426075D01*
X173224755Y-82488600D01*
X173545245Y-82488600D01*
X173859578Y-82426075D01*
X174155673Y-82303428D01*
X174422152Y-82125373D01*
X174648773Y-81898752D01*
X174826828Y-81632273D01*
X174949475Y-81336178D01*
X175012000Y-81021845D01*
X175012000Y-80701355D01*
X174949475Y-80387022D01*
X174826828Y-80090927D01*
X174662089Y-79844378D01*
X174690853Y-79829003D01*
X174801554Y-79738154D01*
X174892403Y-79627453D01*
X174959910Y-79501157D01*
X175001480Y-79364117D01*
X175015517Y-79221600D01*
X175015517Y-77421600D01*
X186994483Y-77421600D01*
X186994483Y-79221600D01*
X187008520Y-79364117D01*
X187050090Y-79501157D01*
X187117597Y-79627453D01*
X187208446Y-79738154D01*
X187319147Y-79829003D01*
X187347911Y-79844378D01*
X187183172Y-80090927D01*
X187060525Y-80387022D01*
X186998000Y-80701355D01*
X186998000Y-81021845D01*
X187060525Y-81336178D01*
X187183172Y-81632273D01*
X187361227Y-81898752D01*
X187587848Y-82125373D01*
X187854327Y-82303428D01*
X188150422Y-82426075D01*
X188464755Y-82488600D01*
X188785245Y-82488600D01*
X189099578Y-82426075D01*
X189395673Y-82303428D01*
X189662152Y-82125373D01*
X189888773Y-81898752D01*
X190066828Y-81632273D01*
X190189475Y-81336178D01*
X190252000Y-81021845D01*
X190252000Y-80701355D01*
X190189475Y-80387022D01*
X190066828Y-80090927D01*
X189902089Y-79844378D01*
X189930853Y-79829003D01*
X190041554Y-79738154D01*
X190132403Y-79627453D01*
X190199910Y-79501157D01*
X190241480Y-79364117D01*
X190255517Y-79221600D01*
X190255517Y-77421600D01*
X202234483Y-77421600D01*
X202234483Y-79221600D01*
X202248520Y-79364117D01*
X202290090Y-79501157D01*
X202357597Y-79627453D01*
X202448446Y-79738154D01*
X202559147Y-79829003D01*
X202587911Y-79844378D01*
X202423172Y-80090927D01*
X202300525Y-80387022D01*
X202238000Y-80701355D01*
X202238000Y-81021845D01*
X202300525Y-81336178D01*
X202423172Y-81632273D01*
X202601227Y-81898752D01*
X202827848Y-82125373D01*
X203094327Y-82303428D01*
X203390422Y-82426075D01*
X203704755Y-82488600D01*
X204025245Y-82488600D01*
X204339578Y-82426075D01*
X204635673Y-82303428D01*
X204902152Y-82125373D01*
X205128773Y-81898752D01*
X205306828Y-81632273D01*
X205429475Y-81336178D01*
X205492000Y-81021845D01*
X205492000Y-80701355D01*
X205429475Y-80387022D01*
X205306828Y-80090927D01*
X205142089Y-79844378D01*
X205170853Y-79829003D01*
X205281554Y-79738154D01*
X205372403Y-79627453D01*
X205439910Y-79501157D01*
X205481480Y-79364117D01*
X205495517Y-79221600D01*
X205495517Y-77421600D01*
X205481480Y-77279083D01*
X205439910Y-77142043D01*
X205372403Y-77015747D01*
X205281554Y-76905046D01*
X205170853Y-76814197D01*
X205092000Y-76772049D01*
X205092000Y-76537597D01*
X205129591Y-76481338D01*
X205237162Y-76221641D01*
X205292000Y-75945947D01*
X205292000Y-75664853D01*
X205237162Y-75389159D01*
X205129591Y-75129462D01*
X204973424Y-74895740D01*
X204774660Y-74696976D01*
X204540938Y-74540809D01*
X204281241Y-74433238D01*
X204005547Y-74378400D01*
X203724453Y-74378400D01*
X203448759Y-74433238D01*
X203189062Y-74540809D01*
X202955340Y-74696976D01*
X202756576Y-74895740D01*
X202600409Y-75129462D01*
X202492838Y-75389159D01*
X202438000Y-75664853D01*
X202438000Y-75945947D01*
X202492838Y-76221641D01*
X202600409Y-76481338D01*
X202638000Y-76537598D01*
X202638000Y-76772049D01*
X202559147Y-76814197D01*
X202448446Y-76905046D01*
X202357597Y-77015747D01*
X202290090Y-77142043D01*
X202248520Y-77279083D01*
X202234483Y-77421600D01*
X190255517Y-77421600D01*
X190241480Y-77279083D01*
X190199910Y-77142043D01*
X190132403Y-77015747D01*
X190041554Y-76905046D01*
X189930853Y-76814197D01*
X189852000Y-76772049D01*
X189852000Y-76537597D01*
X189889591Y-76481338D01*
X189997162Y-76221641D01*
X190052000Y-75945947D01*
X190052000Y-75664853D01*
X189997162Y-75389159D01*
X189889591Y-75129462D01*
X189733424Y-74895740D01*
X189534660Y-74696976D01*
X189300938Y-74540809D01*
X189041241Y-74433238D01*
X188765547Y-74378400D01*
X188484453Y-74378400D01*
X188208759Y-74433238D01*
X187949062Y-74540809D01*
X187715340Y-74696976D01*
X187516576Y-74895740D01*
X187360409Y-75129462D01*
X187252838Y-75389159D01*
X187198000Y-75664853D01*
X187198000Y-75945947D01*
X187252838Y-76221641D01*
X187360409Y-76481338D01*
X187398001Y-76537598D01*
X187398001Y-76772049D01*
X187319147Y-76814197D01*
X187208446Y-76905046D01*
X187117597Y-77015747D01*
X187050090Y-77142043D01*
X187008520Y-77279083D01*
X186994483Y-77421600D01*
X175015517Y-77421600D01*
X175001480Y-77279083D01*
X174959910Y-77142043D01*
X174892403Y-77015747D01*
X174801554Y-76905046D01*
X174690853Y-76814197D01*
X174612000Y-76772049D01*
X174612000Y-76537597D01*
X174649591Y-76481338D01*
X174757162Y-76221641D01*
X174812000Y-75945947D01*
X174812000Y-75664853D01*
X174757162Y-75389159D01*
X174649591Y-75129462D01*
X174493424Y-74895740D01*
X174294660Y-74696976D01*
X174060938Y-74540809D01*
X173801241Y-74433238D01*
X173525547Y-74378400D01*
X173244453Y-74378400D01*
X172968759Y-74433238D01*
X172709062Y-74540809D01*
X172475340Y-74696976D01*
X172276576Y-74895740D01*
X172120409Y-75129462D01*
X172012838Y-75389159D01*
X171958000Y-75664853D01*
X171958000Y-75945947D01*
X172012838Y-76221641D01*
X172120409Y-76481338D01*
X172158000Y-76537598D01*
X172158000Y-76772049D01*
X172079147Y-76814197D01*
X171968446Y-76905046D01*
X171877597Y-77015747D01*
X171810090Y-77142043D01*
X171768520Y-77279083D01*
X171754483Y-77421600D01*
X160696317Y-77421600D01*
X160696317Y-77396600D01*
X160682280Y-77254083D01*
X160640710Y-77117043D01*
X160573203Y-76990747D01*
X160482354Y-76880046D01*
X160371653Y-76789197D01*
X160267400Y-76733472D01*
X160267400Y-76412597D01*
X160304991Y-76356338D01*
X160412562Y-76096641D01*
X160467400Y-75820947D01*
X160467400Y-75539853D01*
X160412562Y-75264159D01*
X160304991Y-75004462D01*
X160148824Y-74770740D01*
X159950060Y-74571976D01*
X159716338Y-74415809D01*
X159456641Y-74308238D01*
X159180947Y-74253400D01*
X158899853Y-74253400D01*
X158624159Y-74308238D01*
X158364462Y-74415809D01*
X158130740Y-74571976D01*
X157931976Y-74770740D01*
X157775809Y-75004462D01*
X157668238Y-75264159D01*
X157613400Y-75539853D01*
X157613400Y-75820947D01*
X157668238Y-76096641D01*
X157775809Y-76356338D01*
X157813400Y-76412598D01*
X157813400Y-76760625D01*
X157759947Y-76789197D01*
X157649246Y-76880046D01*
X157558397Y-76990747D01*
X157490890Y-77117043D01*
X157449320Y-77254083D01*
X157435283Y-77396600D01*
X145634117Y-77396600D01*
X145620080Y-77254083D01*
X145578510Y-77117043D01*
X145511003Y-76990747D01*
X145420154Y-76880046D01*
X145309453Y-76789197D01*
X145230600Y-76747049D01*
X145230600Y-76437997D01*
X145268191Y-76381738D01*
X145375762Y-76122041D01*
X145430600Y-75846347D01*
X145430600Y-75565253D01*
X145375762Y-75289559D01*
X145268191Y-75029862D01*
X145112024Y-74796140D01*
X144913260Y-74597376D01*
X144679538Y-74441209D01*
X144419841Y-74333638D01*
X144144147Y-74278800D01*
X143863053Y-74278800D01*
X143587359Y-74333638D01*
X143327662Y-74441209D01*
X143093940Y-74597376D01*
X142895176Y-74796140D01*
X142739009Y-75029862D01*
X142631438Y-75289559D01*
X142576600Y-75565253D01*
X142576600Y-75846347D01*
X142631438Y-76122041D01*
X142739009Y-76381738D01*
X142776601Y-76437998D01*
X142776601Y-76747049D01*
X142697747Y-76789197D01*
X142587046Y-76880046D01*
X142496197Y-76990747D01*
X142428690Y-77117043D01*
X142387120Y-77254083D01*
X142373083Y-77396600D01*
X130775117Y-77396600D01*
X130761080Y-77254083D01*
X130719510Y-77117043D01*
X130652003Y-76990747D01*
X130561154Y-76880046D01*
X130450453Y-76789197D01*
X130397000Y-76760626D01*
X130397000Y-76412597D01*
X130434591Y-76356338D01*
X130542162Y-76096641D01*
X130597000Y-75820947D01*
X130597000Y-75539853D01*
X130542162Y-75264159D01*
X130434591Y-75004462D01*
X130278424Y-74770740D01*
X130079660Y-74571976D01*
X129845938Y-74415809D01*
X129586241Y-74308238D01*
X129310547Y-74253400D01*
X129029453Y-74253400D01*
X128753759Y-74308238D01*
X128494062Y-74415809D01*
X128260340Y-74571976D01*
X128061576Y-74770740D01*
X127905409Y-75004462D01*
X127797838Y-75264159D01*
X127743000Y-75539853D01*
X127743000Y-75820947D01*
X127797838Y-76096641D01*
X127905409Y-76356338D01*
X127943000Y-76412598D01*
X127943000Y-76733472D01*
X127838747Y-76789197D01*
X127728046Y-76880046D01*
X127637197Y-76990747D01*
X127569690Y-77117043D01*
X127528120Y-77254083D01*
X127514083Y-77396600D01*
X116144717Y-77396600D01*
X116130680Y-77254083D01*
X116089110Y-77117043D01*
X116021603Y-76990747D01*
X115930754Y-76880046D01*
X115820053Y-76789197D01*
X115766600Y-76760626D01*
X115766600Y-76412597D01*
X115804191Y-76356338D01*
X115911762Y-76096641D01*
X115966600Y-75820947D01*
X115966600Y-75539853D01*
X115911762Y-75264159D01*
X115804191Y-75004462D01*
X115648024Y-74770740D01*
X115449260Y-74571976D01*
X115215538Y-74415809D01*
X114955841Y-74308238D01*
X114680147Y-74253400D01*
X114399053Y-74253400D01*
X114123359Y-74308238D01*
X113863662Y-74415809D01*
X113629940Y-74571976D01*
X113431176Y-74770740D01*
X113275009Y-75004462D01*
X113167438Y-75264159D01*
X113112600Y-75539853D01*
X113112600Y-75820947D01*
X113167438Y-76096641D01*
X113275009Y-76356338D01*
X113312600Y-76412598D01*
X113312600Y-76733472D01*
X113208347Y-76789197D01*
X113097646Y-76880046D01*
X113006797Y-76990747D01*
X112939290Y-77117043D01*
X112897720Y-77254083D01*
X112883683Y-77396600D01*
X101539717Y-77396600D01*
X101525680Y-77254083D01*
X101484110Y-77117043D01*
X101416603Y-76990747D01*
X101325754Y-76880046D01*
X101215053Y-76789197D01*
X101110800Y-76733472D01*
X101110800Y-76412597D01*
X101148391Y-76356338D01*
X101255962Y-76096641D01*
X101310800Y-75820947D01*
X101310800Y-75539853D01*
X101255962Y-75264159D01*
X101148391Y-75004462D01*
X100992224Y-74770740D01*
X100793460Y-74571976D01*
X100559738Y-74415809D01*
X100300041Y-74308238D01*
X100024347Y-74253400D01*
X99743253Y-74253400D01*
X99467559Y-74308238D01*
X99207862Y-74415809D01*
X98974140Y-74571976D01*
X98775376Y-74770740D01*
X98619209Y-75004462D01*
X98511638Y-75264159D01*
X98456800Y-75539853D01*
X98456800Y-75820947D01*
X98511638Y-76096641D01*
X98619209Y-76356338D01*
X98656800Y-76412598D01*
X98656800Y-76760625D01*
X98603347Y-76789197D01*
X98492646Y-76880046D01*
X98401797Y-76990747D01*
X98334290Y-77117043D01*
X98292720Y-77254083D01*
X98278683Y-77396600D01*
X87127000Y-77396600D01*
X87127000Y-73127000D01*
X244373000Y-73127000D01*
X244373000Y-117373000D01*
G37*
X244373000Y-117373000D02*
X87127000Y-117373000D01*
X87127000Y-111080800D01*
X98678683Y-111080800D01*
X98678683Y-112880800D01*
X98692720Y-113023317D01*
X98734290Y-113160357D01*
X98801797Y-113286653D01*
X98892646Y-113397354D01*
X99003347Y-113488203D01*
X99082200Y-113530351D01*
X99082200Y-113864802D01*
X99044609Y-113921062D01*
X98937038Y-114180759D01*
X98882200Y-114456453D01*
X98882200Y-114737547D01*
X98937038Y-115013241D01*
X99044609Y-115272938D01*
X99200776Y-115506660D01*
X99399540Y-115705424D01*
X99633262Y-115861591D01*
X99892959Y-115969162D01*
X100168653Y-116024000D01*
X100449747Y-116024000D01*
X100725441Y-115969162D01*
X100985138Y-115861591D01*
X101218860Y-115705424D01*
X101417624Y-115506660D01*
X101573791Y-115272938D01*
X101681362Y-115013241D01*
X101736200Y-114737547D01*
X101736200Y-114456453D01*
X101681362Y-114180759D01*
X101573791Y-113921062D01*
X101536200Y-113864803D01*
X101536200Y-113530351D01*
X101615053Y-113488203D01*
X101725754Y-113397354D01*
X101816603Y-113286653D01*
X101884110Y-113160357D01*
X101925680Y-113023317D01*
X101939717Y-112880800D01*
X101939717Y-111080800D01*
X113334483Y-111080800D01*
X113334483Y-112880800D01*
X113348520Y-113023317D01*
X113390090Y-113160357D01*
X113457597Y-113286653D01*
X113548446Y-113397354D01*
X113659147Y-113488203D01*
X113738001Y-113530351D01*
X113738001Y-113826788D01*
X113675009Y-113921062D01*
X113567438Y-114180759D01*
X113512600Y-114456453D01*
X113512600Y-114737547D01*
X113567438Y-115013241D01*
X113675009Y-115272938D01*
X113831176Y-115506660D01*
X114029940Y-115705424D01*
X114263662Y-115861591D01*
X114523359Y-115969162D01*
X114799053Y-116024000D01*
X115080147Y-116024000D01*
X115355841Y-115969162D01*
X115615538Y-115861591D01*
X115849260Y-115705424D01*
X116048024Y-115506660D01*
X116204191Y-115272938D01*
X116311762Y-115013241D01*
X116366600Y-114737547D01*
X116366600Y-114456453D01*
X116311762Y-114180759D01*
X116204191Y-113921062D01*
X116192000Y-113902817D01*
X116192000Y-113530351D01*
X116270853Y-113488203D01*
X116381554Y-113397354D01*
X116472403Y-113286653D01*
X116539910Y-113160357D01*
X116581480Y-113023317D01*
X116595517Y-112880800D01*
X116595517Y-111080800D01*
X127914083Y-111080800D01*
X127914083Y-112880800D01*
X127928120Y-113023317D01*
X127969690Y-113160357D01*
X128037197Y-113286653D01*
X128128046Y-113397354D01*
X128238747Y-113488203D01*
X128292200Y-113516775D01*
X128292200Y-113864802D01*
X128254609Y-113921062D01*
X128147038Y-114180759D01*
X128092200Y-114456453D01*
X128092200Y-114737547D01*
X128147038Y-115013241D01*
X128254609Y-115272938D01*
X128410776Y-115506660D01*
X128609540Y-115705424D01*
X128843262Y-115861591D01*
X129102959Y-115969162D01*
X129378653Y-116024000D01*
X129659747Y-116024000D01*
X129935441Y-115969162D01*
X130195138Y-115861591D01*
X130428860Y-115705424D01*
X130627624Y-115506660D01*
X130783791Y-115272938D01*
X130891362Y-115013241D01*
X130946200Y-114737547D01*
X130946200Y-114456453D01*
X130891362Y-114180759D01*
X130783791Y-113921062D01*
X130746200Y-113864803D01*
X130746200Y-113543928D01*
X130850453Y-113488203D01*
X130961154Y-113397354D01*
X131052003Y-113286653D01*
X131119510Y-113160357D01*
X131161080Y-113023317D01*
X131175117Y-112880800D01*
X131175117Y-111080800D01*
X142773083Y-111080800D01*
X142773083Y-112880800D01*
X142787120Y-113023317D01*
X142828690Y-113160357D01*
X142896197Y-113286653D01*
X142987046Y-113397354D01*
X143097747Y-113488203D01*
X143176600Y-113530351D01*
X143176600Y-113864802D01*
X143139009Y-113921062D01*
X143031438Y-114180759D01*
X142976600Y-114456453D01*
X142976600Y-114737547D01*
X143031438Y-115013241D01*
X143139009Y-115272938D01*
X143295176Y-115506660D01*
X143493940Y-115705424D01*
X143727662Y-115861591D01*
X143987359Y-115969162D01*
X144263053Y-116024000D01*
X144544147Y-116024000D01*
X144819841Y-115969162D01*
X145079538Y-115861591D01*
X145313260Y-115705424D01*
X145512024Y-115506660D01*
X145668191Y-115272938D01*
X145775762Y-115013241D01*
X145830600Y-114737547D01*
X145830600Y-114456453D01*
X145775762Y-114180759D01*
X145668191Y-113921062D01*
X145630600Y-113864803D01*
X145630600Y-113530351D01*
X145709453Y-113488203D01*
X145820154Y-113397354D01*
X145911003Y-113286653D01*
X145978510Y-113160357D01*
X146020080Y-113023317D01*
X146034117Y-112880800D01*
X146034117Y-111080800D01*
X157809883Y-111080800D01*
X157809883Y-112880800D01*
X157823920Y-113023317D01*
X157865490Y-113160357D01*
X157932997Y-113286653D01*
X158023846Y-113397354D01*
X158134547Y-113488203D01*
X158213401Y-113530351D01*
X158213401Y-113864802D01*
X158175809Y-113921062D01*
X158068238Y-114180759D01*
X158013400Y-114456453D01*
X158013400Y-114737547D01*
X158068238Y-115013241D01*
X158175809Y-115272938D01*
X158331976Y-115506660D01*
X158530740Y-115705424D01*
X158764462Y-115861591D01*
X159024159Y-115969162D01*
X159299853Y-116024000D01*
X159580947Y-116024000D01*
X159856641Y-115969162D01*
X160116338Y-115861591D01*
X160350060Y-115705424D01*
X160548824Y-115506660D01*
X160704991Y-115272938D01*
X160812562Y-115013241D01*
X160867400Y-114737547D01*
X160867400Y-114456453D01*
X160812562Y-114180759D01*
X160704991Y-113921062D01*
X160667400Y-113864803D01*
X160667400Y-113530351D01*
X160746253Y-113488203D01*
X160856954Y-113397354D01*
X160947803Y-113286653D01*
X161015310Y-113160357D01*
X161056880Y-113023317D01*
X161070917Y-112880800D01*
X161070917Y-111080800D01*
X161068376Y-111055000D01*
X172154483Y-111055000D01*
X172154483Y-112855000D01*
X172168520Y-112997517D01*
X172210090Y-113134557D01*
X172277597Y-113260853D01*
X172368446Y-113371554D01*
X172479147Y-113462403D01*
X172558001Y-113504551D01*
X172558001Y-113762802D01*
X172520409Y-113819062D01*
X172412838Y-114078759D01*
X172358000Y-114354453D01*
X172358000Y-114635547D01*
X172412838Y-114911241D01*
X172520409Y-115170938D01*
X172676576Y-115404660D01*
X172875340Y-115603424D01*
X173109062Y-115759591D01*
X173368759Y-115867162D01*
X173644453Y-115922000D01*
X173925547Y-115922000D01*
X174201241Y-115867162D01*
X174460938Y-115759591D01*
X174694660Y-115603424D01*
X174893424Y-115404660D01*
X175049591Y-115170938D01*
X175157162Y-114911241D01*
X175212000Y-114635547D01*
X175212000Y-114354453D01*
X175157162Y-114078759D01*
X175049591Y-113819062D01*
X175012000Y-113762803D01*
X175012000Y-113504551D01*
X175090853Y-113462403D01*
X175201554Y-113371554D01*
X175292403Y-113260853D01*
X175359910Y-113134557D01*
X175401480Y-112997517D01*
X175415517Y-112855000D01*
X175415517Y-111055000D01*
X187394483Y-111055000D01*
X187394483Y-112855000D01*
X187408520Y-112997517D01*
X187450090Y-113134557D01*
X187517597Y-113260853D01*
X187608446Y-113371554D01*
X187719147Y-113462403D01*
X187798001Y-113504551D01*
X187798001Y-113762802D01*
X187760409Y-113819062D01*
X187652838Y-114078759D01*
X187598000Y-114354453D01*
X187598000Y-114635547D01*
X187652838Y-114911241D01*
X187760409Y-115170938D01*
X187916576Y-115404660D01*
X188115340Y-115603424D01*
X188349062Y-115759591D01*
X188608759Y-115867162D01*
X188884453Y-115922000D01*
X189165547Y-115922000D01*
X189441241Y-115867162D01*
X189700938Y-115759591D01*
X189934660Y-115603424D01*
X190133424Y-115404660D01*
X190289591Y-115170938D01*
X190397162Y-114911241D01*
X190452000Y-114635547D01*
X190452000Y-114354453D01*
X190397162Y-114078759D01*
X190289591Y-113819062D01*
X190252000Y-113762803D01*
X190252000Y-113504551D01*
X190330853Y-113462403D01*
X190441554Y-113371554D01*
X190532403Y-113260853D01*
X190599910Y-113134557D01*
X190641480Y-112997517D01*
X190655517Y-112855000D01*
X190655517Y-111055000D01*
X202634483Y-111055000D01*
X202634483Y-112855000D01*
X202648520Y-112997517D01*
X202690090Y-113134557D01*
X202757597Y-113260853D01*
X202848446Y-113371554D01*
X202959147Y-113462403D01*
X203038000Y-113504551D01*
X203038000Y-113762802D01*
X203000409Y-113819062D01*
X202892838Y-114078759D01*
X202838000Y-114354453D01*
X202838000Y-114635547D01*
X202892838Y-114911241D01*
X203000409Y-115170938D01*
X203156576Y-115404660D01*
X203355340Y-115603424D01*
X203589062Y-115759591D01*
X203848759Y-115867162D01*
X204124453Y-115922000D01*
X204405547Y-115922000D01*
X204681241Y-115867162D01*
X204940938Y-115759591D01*
X205174660Y-115603424D01*
X205373424Y-115404660D01*
X205529591Y-115170938D01*
X205637162Y-114911241D01*
X205692000Y-114635547D01*
X205692000Y-114354453D01*
X205637162Y-114078759D01*
X205529591Y-113819062D01*
X205492000Y-113762803D01*
X205492000Y-113504551D01*
X205570853Y-113462403D01*
X205681554Y-113371554D01*
X205772403Y-113260853D01*
X205839910Y-113134557D01*
X205881480Y-112997517D01*
X205895517Y-112855000D01*
X205895517Y-111055000D01*
X205881480Y-110912483D01*
X205839910Y-110775443D01*
X205772403Y-110649147D01*
X205681554Y-110538446D01*
X205570853Y-110447597D01*
X205542089Y-110432222D01*
X205706828Y-110185673D01*
X205829475Y-109889578D01*
X205892000Y-109575245D01*
X205892000Y-109254755D01*
X205829475Y-108940422D01*
X205706828Y-108644327D01*
X205528773Y-108377848D01*
X205302152Y-108151227D01*
X205035673Y-107973172D01*
X204739578Y-107850525D01*
X204425245Y-107788000D01*
X204104755Y-107788000D01*
X203790422Y-107850525D01*
X203494327Y-107973172D01*
X203227848Y-108151227D01*
X203001227Y-108377848D01*
X202823172Y-108644327D01*
X202700525Y-108940422D01*
X202638000Y-109254755D01*
X202638000Y-109575245D01*
X202700525Y-109889578D01*
X202823172Y-110185673D01*
X202987911Y-110432222D01*
X202959147Y-110447597D01*
X202848446Y-110538446D01*
X202757597Y-110649147D01*
X202690090Y-110775443D01*
X202648520Y-110912483D01*
X202634483Y-111055000D01*
X190655517Y-111055000D01*
X190641480Y-110912483D01*
X190599910Y-110775443D01*
X190532403Y-110649147D01*
X190441554Y-110538446D01*
X190330853Y-110447597D01*
X190302089Y-110432222D01*
X190466828Y-110185673D01*
X190589475Y-109889578D01*
X190652000Y-109575245D01*
X190652000Y-109254755D01*
X190589475Y-108940422D01*
X190466828Y-108644327D01*
X190288773Y-108377848D01*
X190062152Y-108151227D01*
X189795673Y-107973172D01*
X189499578Y-107850525D01*
X189185245Y-107788000D01*
X188864755Y-107788000D01*
X188550422Y-107850525D01*
X188254327Y-107973172D01*
X187987848Y-108151227D01*
X187761227Y-108377848D01*
X187583172Y-108644327D01*
X187460525Y-108940422D01*
X187398000Y-109254755D01*
X187398000Y-109575245D01*
X187460525Y-109889578D01*
X187583172Y-110185673D01*
X187747911Y-110432222D01*
X187719147Y-110447597D01*
X187608446Y-110538446D01*
X187517597Y-110649147D01*
X187450090Y-110775443D01*
X187408520Y-110912483D01*
X187394483Y-111055000D01*
X175415517Y-111055000D01*
X175401480Y-110912483D01*
X175359910Y-110775443D01*
X175292403Y-110649147D01*
X175201554Y-110538446D01*
X175090853Y-110447597D01*
X175062089Y-110432222D01*
X175226828Y-110185673D01*
X175349475Y-109889578D01*
X175412000Y-109575245D01*
X175412000Y-109254755D01*
X175349475Y-108940422D01*
X175226828Y-108644327D01*
X175048773Y-108377848D01*
X174822152Y-108151227D01*
X174555673Y-107973172D01*
X174259578Y-107850525D01*
X173945245Y-107788000D01*
X173624755Y-107788000D01*
X173310422Y-107850525D01*
X173014327Y-107973172D01*
X172747848Y-108151227D01*
X172521227Y-108377848D01*
X172343172Y-108644327D01*
X172220525Y-108940422D01*
X172158000Y-109254755D01*
X172158000Y-109575245D01*
X172220525Y-109889578D01*
X172343172Y-110185673D01*
X172507911Y-110432222D01*
X172479147Y-110447597D01*
X172368446Y-110538446D01*
X172277597Y-110649147D01*
X172210090Y-110775443D01*
X172168520Y-110912483D01*
X172154483Y-111055000D01*
X161068376Y-111055000D01*
X161056880Y-110938283D01*
X161015310Y-110801243D01*
X160947803Y-110674947D01*
X160856954Y-110564246D01*
X160746253Y-110473397D01*
X160717489Y-110458022D01*
X160882228Y-110211473D01*
X161004875Y-109915378D01*
X161067400Y-109601045D01*
X161067400Y-109280555D01*
X161004875Y-108966222D01*
X160882228Y-108670127D01*
X160704173Y-108403648D01*
X160477552Y-108177027D01*
X160211073Y-107998972D01*
X159914978Y-107876325D01*
X159600645Y-107813800D01*
X159280155Y-107813800D01*
X158965822Y-107876325D01*
X158669727Y-107998972D01*
X158403248Y-108177027D01*
X158176627Y-108403648D01*
X157998572Y-108670127D01*
X157875925Y-108966222D01*
X157813400Y-109280555D01*
X157813400Y-109601045D01*
X157875925Y-109915378D01*
X157998572Y-110211473D01*
X158163311Y-110458022D01*
X158134547Y-110473397D01*
X158023846Y-110564246D01*
X157932997Y-110674947D01*
X157865490Y-110801243D01*
X157823920Y-110938283D01*
X157809883Y-111080800D01*
X146034117Y-111080800D01*
X146020080Y-110938283D01*
X145978510Y-110801243D01*
X145911003Y-110674947D01*
X145820154Y-110564246D01*
X145709453Y-110473397D01*
X145680689Y-110458022D01*
X145845428Y-110211473D01*
X145968075Y-109915378D01*
X146030600Y-109601045D01*
X146030600Y-109280555D01*
X145968075Y-108966222D01*
X145845428Y-108670127D01*
X145667373Y-108403648D01*
X145440752Y-108177027D01*
X145174273Y-107998972D01*
X144878178Y-107876325D01*
X144563845Y-107813800D01*
X144243355Y-107813800D01*
X143929022Y-107876325D01*
X143632927Y-107998972D01*
X143366448Y-108177027D01*
X143139827Y-108403648D01*
X142961772Y-108670127D01*
X142839125Y-108966222D01*
X142776600Y-109280555D01*
X142776600Y-109601045D01*
X142839125Y-109915378D01*
X142961772Y-110211473D01*
X143126511Y-110458022D01*
X143097747Y-110473397D01*
X142987046Y-110564246D01*
X142896197Y-110674947D01*
X142828690Y-110801243D01*
X142787120Y-110938283D01*
X142773083Y-111080800D01*
X131175117Y-111080800D01*
X131161080Y-110938283D01*
X131119510Y-110801243D01*
X131052003Y-110674947D01*
X130961154Y-110564246D01*
X130850453Y-110473397D01*
X130821689Y-110458022D01*
X130986428Y-110211473D01*
X131109075Y-109915378D01*
X131171600Y-109601045D01*
X131171600Y-109280555D01*
X131109075Y-108966222D01*
X130986428Y-108670127D01*
X130808373Y-108403648D01*
X130581752Y-108177027D01*
X130315273Y-107998972D01*
X130019178Y-107876325D01*
X129704845Y-107813800D01*
X129384355Y-107813800D01*
X129070022Y-107876325D01*
X128773927Y-107998972D01*
X128507448Y-108177027D01*
X128280827Y-108403648D01*
X128102772Y-108670127D01*
X127980125Y-108966222D01*
X127917600Y-109280555D01*
X127917600Y-109601045D01*
X127980125Y-109915378D01*
X128102772Y-110211473D01*
X128267511Y-110458022D01*
X128238747Y-110473397D01*
X128128046Y-110564246D01*
X128037197Y-110674947D01*
X127969690Y-110801243D01*
X127928120Y-110938283D01*
X127914083Y-111080800D01*
X116595517Y-111080800D01*
X116581480Y-110938283D01*
X116539910Y-110801243D01*
X116472403Y-110674947D01*
X116381554Y-110564246D01*
X116270853Y-110473397D01*
X116242089Y-110458022D01*
X116406828Y-110211473D01*
X116529475Y-109915378D01*
X116592000Y-109601045D01*
X116592000Y-109280555D01*
X116529475Y-108966222D01*
X116406828Y-108670127D01*
X116228773Y-108403648D01*
X116002152Y-108177027D01*
X115735673Y-107998972D01*
X115439578Y-107876325D01*
X115125245Y-107813800D01*
X114804755Y-107813800D01*
X114490422Y-107876325D01*
X114194327Y-107998972D01*
X113927848Y-108177027D01*
X113701227Y-108403648D01*
X113523172Y-108670127D01*
X113400525Y-108966222D01*
X113338000Y-109280555D01*
X113338000Y-109601045D01*
X113400525Y-109915378D01*
X113523172Y-110211473D01*
X113687911Y-110458022D01*
X113659147Y-110473397D01*
X113548446Y-110564246D01*
X113457597Y-110674947D01*
X113390090Y-110801243D01*
X113348520Y-110938283D01*
X113334483Y-111080800D01*
X101939717Y-111080800D01*
X101925680Y-110938283D01*
X101884110Y-110801243D01*
X101816603Y-110674947D01*
X101725754Y-110564246D01*
X101615053Y-110473397D01*
X101586289Y-110458022D01*
X101751028Y-110211473D01*
X101873675Y-109915378D01*
X101936200Y-109601045D01*
X101936200Y-109280555D01*
X101873675Y-108966222D01*
X101751028Y-108670127D01*
X101572973Y-108403648D01*
X101346352Y-108177027D01*
X101079873Y-107998972D01*
X100783778Y-107876325D01*
X100469445Y-107813800D01*
X100148955Y-107813800D01*
X99834622Y-107876325D01*
X99538527Y-107998972D01*
X99272048Y-108177027D01*
X99045427Y-108403648D01*
X98867372Y-108670127D01*
X98744725Y-108966222D01*
X98682200Y-109280555D01*
X98682200Y-109601045D01*
X98744725Y-109915378D01*
X98867372Y-110211473D01*
X99032111Y-110458022D01*
X99003347Y-110473397D01*
X98892646Y-110564246D01*
X98801797Y-110674947D01*
X98734290Y-110801243D01*
X98692720Y-110938283D01*
X98678683Y-111080800D01*
X87127000Y-111080800D01*
X87127000Y-99880660D01*
X232373000Y-99880660D01*
X232373000Y-100319340D01*
X232458582Y-100749592D01*
X232626458Y-101154880D01*
X232870176Y-101519630D01*
X233180370Y-101829824D01*
X233545120Y-102073542D01*
X233950408Y-102241418D01*
X234380660Y-102327000D01*
X234819340Y-102327000D01*
X235249592Y-102241418D01*
X235654880Y-102073542D01*
X236019630Y-101829824D01*
X236329824Y-101519630D01*
X236573542Y-101154880D01*
X236741418Y-100749592D01*
X236827000Y-100319340D01*
X236827000Y-99880660D01*
X236741418Y-99450408D01*
X236573542Y-99045120D01*
X236329824Y-98680370D01*
X236019630Y-98370176D01*
X235654880Y-98126458D01*
X235249592Y-97958582D01*
X234819340Y-97873000D01*
X234380660Y-97873000D01*
X233950408Y-97958582D01*
X233545120Y-98126458D01*
X233180370Y-98370176D01*
X232870176Y-98680370D01*
X232626458Y-99045120D01*
X232458582Y-99450408D01*
X232373000Y-99880660D01*
X87127000Y-99880660D01*
X87127000Y-92746600D01*
X211780883Y-92746600D01*
X211780883Y-94546600D01*
X211794920Y-94689117D01*
X211836490Y-94826157D01*
X211903997Y-94952453D01*
X211994846Y-95063154D01*
X212105547Y-95154003D01*
X212231843Y-95221510D01*
X212368883Y-95263080D01*
X212511400Y-95277117D01*
X214311400Y-95277117D01*
X214453917Y-95263080D01*
X214590957Y-95221510D01*
X214717253Y-95154003D01*
X214827954Y-95063154D01*
X214918803Y-94952453D01*
X214986310Y-94826157D01*
X215027880Y-94689117D01*
X215041917Y-94546600D01*
X215041917Y-92746600D01*
X215027880Y-92604083D01*
X214986310Y-92467043D01*
X214918803Y-92340747D01*
X214912938Y-92333600D01*
X217416217Y-92333600D01*
X217434462Y-92345791D01*
X217694159Y-92453362D01*
X217969853Y-92508200D01*
X218250947Y-92508200D01*
X218526641Y-92453362D01*
X218786338Y-92345791D01*
X219020060Y-92189624D01*
X219218824Y-91990860D01*
X219374991Y-91757138D01*
X219482562Y-91497441D01*
X219537400Y-91221747D01*
X219537400Y-90940653D01*
X219482562Y-90664959D01*
X219374991Y-90405262D01*
X219218824Y-90171540D01*
X219020060Y-89972776D01*
X218786338Y-89816609D01*
X218526641Y-89709038D01*
X218250947Y-89654200D01*
X217969853Y-89654200D01*
X217694159Y-89709038D01*
X217434462Y-89816609D01*
X217340189Y-89879600D01*
X214485325Y-89879600D01*
X214448552Y-89842827D01*
X214182073Y-89664772D01*
X213885978Y-89542125D01*
X213571645Y-89479600D01*
X213251155Y-89479600D01*
X212936822Y-89542125D01*
X212640727Y-89664772D01*
X212374248Y-89842827D01*
X212147627Y-90069448D01*
X211969572Y-90335927D01*
X211846925Y-90632022D01*
X211784400Y-90946355D01*
X211784400Y-91266845D01*
X211846925Y-91581178D01*
X211969572Y-91877273D01*
X212134311Y-92123822D01*
X212105547Y-92139197D01*
X211994846Y-92230046D01*
X211903997Y-92340747D01*
X211836490Y-92467043D01*
X211794920Y-92604083D01*
X211780883Y-92746600D01*
X87127000Y-92746600D01*
X87127000Y-77396600D01*
X98278683Y-77396600D01*
X98278683Y-79196600D01*
X98292720Y-79339117D01*
X98334290Y-79476157D01*
X98401797Y-79602453D01*
X98492646Y-79713154D01*
X98603347Y-79804003D01*
X98632111Y-79819378D01*
X98467372Y-80065927D01*
X98344725Y-80362022D01*
X98282200Y-80676355D01*
X98282200Y-80996845D01*
X98344725Y-81311178D01*
X98467372Y-81607273D01*
X98645427Y-81873752D01*
X98872048Y-82100373D01*
X99138527Y-82278428D01*
X99434622Y-82401075D01*
X99748955Y-82463600D01*
X100069445Y-82463600D01*
X100383778Y-82401075D01*
X100679873Y-82278428D01*
X100946352Y-82100373D01*
X101172973Y-81873752D01*
X101351028Y-81607273D01*
X101473675Y-81311178D01*
X101536200Y-80996845D01*
X101536200Y-80676355D01*
X101473675Y-80362022D01*
X101351028Y-80065927D01*
X101186289Y-79819378D01*
X101215053Y-79804003D01*
X101325754Y-79713154D01*
X101416603Y-79602453D01*
X101484110Y-79476157D01*
X101525680Y-79339117D01*
X101539717Y-79196600D01*
X101539717Y-77396600D01*
X112883683Y-77396600D01*
X112883683Y-79196600D01*
X112897720Y-79339117D01*
X112939290Y-79476157D01*
X113006797Y-79602453D01*
X113097646Y-79713154D01*
X113208347Y-79804003D01*
X113237111Y-79819378D01*
X113072372Y-80065927D01*
X112949725Y-80362022D01*
X112887200Y-80676355D01*
X112887200Y-80996845D01*
X112949725Y-81311178D01*
X113072372Y-81607273D01*
X113250427Y-81873752D01*
X113477048Y-82100373D01*
X113743527Y-82278428D01*
X114039622Y-82401075D01*
X114353955Y-82463600D01*
X114674445Y-82463600D01*
X114988778Y-82401075D01*
X115284873Y-82278428D01*
X115551352Y-82100373D01*
X115777973Y-81873752D01*
X115956028Y-81607273D01*
X116078675Y-81311178D01*
X116141200Y-80996845D01*
X116141200Y-80676355D01*
X116078675Y-80362022D01*
X115956028Y-80065927D01*
X115791289Y-79819378D01*
X115820053Y-79804003D01*
X115930754Y-79713154D01*
X116021603Y-79602453D01*
X116089110Y-79476157D01*
X116130680Y-79339117D01*
X116144717Y-79196600D01*
X116144717Y-77396600D01*
X127514083Y-77396600D01*
X127514083Y-79196600D01*
X127528120Y-79339117D01*
X127569690Y-79476157D01*
X127637197Y-79602453D01*
X127728046Y-79713154D01*
X127838747Y-79804003D01*
X127867511Y-79819378D01*
X127702772Y-80065927D01*
X127580125Y-80362022D01*
X127517600Y-80676355D01*
X127517600Y-80996845D01*
X127580125Y-81311178D01*
X127702772Y-81607273D01*
X127880827Y-81873752D01*
X128107448Y-82100373D01*
X128373927Y-82278428D01*
X128670022Y-82401075D01*
X128984355Y-82463600D01*
X129304845Y-82463600D01*
X129619178Y-82401075D01*
X129915273Y-82278428D01*
X130181752Y-82100373D01*
X130408373Y-81873752D01*
X130586428Y-81607273D01*
X130709075Y-81311178D01*
X130771600Y-80996845D01*
X130771600Y-80676355D01*
X130709075Y-80362022D01*
X130586428Y-80065927D01*
X130421689Y-79819378D01*
X130450453Y-79804003D01*
X130561154Y-79713154D01*
X130652003Y-79602453D01*
X130719510Y-79476157D01*
X130761080Y-79339117D01*
X130775117Y-79196600D01*
X130775117Y-77396600D01*
X142373083Y-77396600D01*
X142373083Y-79196600D01*
X142387120Y-79339117D01*
X142428690Y-79476157D01*
X142496197Y-79602453D01*
X142587046Y-79713154D01*
X142697747Y-79804003D01*
X142726511Y-79819378D01*
X142561772Y-80065927D01*
X142439125Y-80362022D01*
X142376600Y-80676355D01*
X142376600Y-80996845D01*
X142439125Y-81311178D01*
X142561772Y-81607273D01*
X142739827Y-81873752D01*
X142966448Y-82100373D01*
X143232927Y-82278428D01*
X143529022Y-82401075D01*
X143843355Y-82463600D01*
X144163845Y-82463600D01*
X144478178Y-82401075D01*
X144774273Y-82278428D01*
X145040752Y-82100373D01*
X145267373Y-81873752D01*
X145445428Y-81607273D01*
X145568075Y-81311178D01*
X145630600Y-80996845D01*
X145630600Y-80676355D01*
X145568075Y-80362022D01*
X145445428Y-80065927D01*
X145280689Y-79819378D01*
X145309453Y-79804003D01*
X145420154Y-79713154D01*
X145511003Y-79602453D01*
X145578510Y-79476157D01*
X145620080Y-79339117D01*
X145634117Y-79196600D01*
X145634117Y-77396600D01*
X157435283Y-77396600D01*
X157435283Y-79196600D01*
X157449320Y-79339117D01*
X157490890Y-79476157D01*
X157558397Y-79602453D01*
X157649246Y-79713154D01*
X157759947Y-79804003D01*
X157788711Y-79819378D01*
X157623972Y-80065927D01*
X157501325Y-80362022D01*
X157438800Y-80676355D01*
X157438800Y-80996845D01*
X157501325Y-81311178D01*
X157623972Y-81607273D01*
X157802027Y-81873752D01*
X158028648Y-82100373D01*
X158295127Y-82278428D01*
X158591222Y-82401075D01*
X158905555Y-82463600D01*
X159226045Y-82463600D01*
X159540378Y-82401075D01*
X159836473Y-82278428D01*
X160102952Y-82100373D01*
X160329573Y-81873752D01*
X160507628Y-81607273D01*
X160630275Y-81311178D01*
X160692800Y-80996845D01*
X160692800Y-80676355D01*
X160630275Y-80362022D01*
X160507628Y-80065927D01*
X160342889Y-79819378D01*
X160371653Y-79804003D01*
X160482354Y-79713154D01*
X160573203Y-79602453D01*
X160640710Y-79476157D01*
X160682280Y-79339117D01*
X160696317Y-79196600D01*
X160696317Y-77421600D01*
X171754483Y-77421600D01*
X171754483Y-79221600D01*
X171768520Y-79364117D01*
X171810090Y-79501157D01*
X171877597Y-79627453D01*
X171968446Y-79738154D01*
X172079147Y-79829003D01*
X172107911Y-79844378D01*
X171943172Y-80090927D01*
X171820525Y-80387022D01*
X171758000Y-80701355D01*
X171758000Y-81021845D01*
X171820525Y-81336178D01*
X171943172Y-81632273D01*
X172121227Y-81898752D01*
X172347848Y-82125373D01*
X172614327Y-82303428D01*
X172910422Y-82426075D01*
X173224755Y-82488600D01*
X173545245Y-82488600D01*
X173859578Y-82426075D01*
X174155673Y-82303428D01*
X174422152Y-82125373D01*
X174648773Y-81898752D01*
X174826828Y-81632273D01*
X174949475Y-81336178D01*
X175012000Y-81021845D01*
X175012000Y-80701355D01*
X174949475Y-80387022D01*
X174826828Y-80090927D01*
X174662089Y-79844378D01*
X174690853Y-79829003D01*
X174801554Y-79738154D01*
X174892403Y-79627453D01*
X174959910Y-79501157D01*
X175001480Y-79364117D01*
X175015517Y-79221600D01*
X175015517Y-77421600D01*
X186994483Y-77421600D01*
X186994483Y-79221600D01*
X187008520Y-79364117D01*
X187050090Y-79501157D01*
X187117597Y-79627453D01*
X187208446Y-79738154D01*
X187319147Y-79829003D01*
X187347911Y-79844378D01*
X187183172Y-80090927D01*
X187060525Y-80387022D01*
X186998000Y-80701355D01*
X186998000Y-81021845D01*
X187060525Y-81336178D01*
X187183172Y-81632273D01*
X187361227Y-81898752D01*
X187587848Y-82125373D01*
X187854327Y-82303428D01*
X188150422Y-82426075D01*
X188464755Y-82488600D01*
X188785245Y-82488600D01*
X189099578Y-82426075D01*
X189395673Y-82303428D01*
X189662152Y-82125373D01*
X189888773Y-81898752D01*
X190066828Y-81632273D01*
X190189475Y-81336178D01*
X190252000Y-81021845D01*
X190252000Y-80701355D01*
X190189475Y-80387022D01*
X190066828Y-80090927D01*
X189902089Y-79844378D01*
X189930853Y-79829003D01*
X190041554Y-79738154D01*
X190132403Y-79627453D01*
X190199910Y-79501157D01*
X190241480Y-79364117D01*
X190255517Y-79221600D01*
X190255517Y-77421600D01*
X202234483Y-77421600D01*
X202234483Y-79221600D01*
X202248520Y-79364117D01*
X202290090Y-79501157D01*
X202357597Y-79627453D01*
X202448446Y-79738154D01*
X202559147Y-79829003D01*
X202587911Y-79844378D01*
X202423172Y-80090927D01*
X202300525Y-80387022D01*
X202238000Y-80701355D01*
X202238000Y-81021845D01*
X202300525Y-81336178D01*
X202423172Y-81632273D01*
X202601227Y-81898752D01*
X202827848Y-82125373D01*
X203094327Y-82303428D01*
X203390422Y-82426075D01*
X203704755Y-82488600D01*
X204025245Y-82488600D01*
X204339578Y-82426075D01*
X204635673Y-82303428D01*
X204902152Y-82125373D01*
X205128773Y-81898752D01*
X205306828Y-81632273D01*
X205429475Y-81336178D01*
X205492000Y-81021845D01*
X205492000Y-80701355D01*
X205429475Y-80387022D01*
X205306828Y-80090927D01*
X205142089Y-79844378D01*
X205170853Y-79829003D01*
X205281554Y-79738154D01*
X205372403Y-79627453D01*
X205439910Y-79501157D01*
X205481480Y-79364117D01*
X205495517Y-79221600D01*
X205495517Y-77421600D01*
X205481480Y-77279083D01*
X205439910Y-77142043D01*
X205372403Y-77015747D01*
X205281554Y-76905046D01*
X205170853Y-76814197D01*
X205092000Y-76772049D01*
X205092000Y-76537597D01*
X205129591Y-76481338D01*
X205237162Y-76221641D01*
X205292000Y-75945947D01*
X205292000Y-75664853D01*
X205237162Y-75389159D01*
X205129591Y-75129462D01*
X204973424Y-74895740D01*
X204774660Y-74696976D01*
X204540938Y-74540809D01*
X204281241Y-74433238D01*
X204005547Y-74378400D01*
X203724453Y-74378400D01*
X203448759Y-74433238D01*
X203189062Y-74540809D01*
X202955340Y-74696976D01*
X202756576Y-74895740D01*
X202600409Y-75129462D01*
X202492838Y-75389159D01*
X202438000Y-75664853D01*
X202438000Y-75945947D01*
X202492838Y-76221641D01*
X202600409Y-76481338D01*
X202638000Y-76537598D01*
X202638000Y-76772049D01*
X202559147Y-76814197D01*
X202448446Y-76905046D01*
X202357597Y-77015747D01*
X202290090Y-77142043D01*
X202248520Y-77279083D01*
X202234483Y-77421600D01*
X190255517Y-77421600D01*
X190241480Y-77279083D01*
X190199910Y-77142043D01*
X190132403Y-77015747D01*
X190041554Y-76905046D01*
X189930853Y-76814197D01*
X189852000Y-76772049D01*
X189852000Y-76537597D01*
X189889591Y-76481338D01*
X189997162Y-76221641D01*
X190052000Y-75945947D01*
X190052000Y-75664853D01*
X189997162Y-75389159D01*
X189889591Y-75129462D01*
X189733424Y-74895740D01*
X189534660Y-74696976D01*
X189300938Y-74540809D01*
X189041241Y-74433238D01*
X188765547Y-74378400D01*
X188484453Y-74378400D01*
X188208759Y-74433238D01*
X187949062Y-74540809D01*
X187715340Y-74696976D01*
X187516576Y-74895740D01*
X187360409Y-75129462D01*
X187252838Y-75389159D01*
X187198000Y-75664853D01*
X187198000Y-75945947D01*
X187252838Y-76221641D01*
X187360409Y-76481338D01*
X187398001Y-76537598D01*
X187398001Y-76772049D01*
X187319147Y-76814197D01*
X187208446Y-76905046D01*
X187117597Y-77015747D01*
X187050090Y-77142043D01*
X187008520Y-77279083D01*
X186994483Y-77421600D01*
X175015517Y-77421600D01*
X175001480Y-77279083D01*
X174959910Y-77142043D01*
X174892403Y-77015747D01*
X174801554Y-76905046D01*
X174690853Y-76814197D01*
X174612000Y-76772049D01*
X174612000Y-76537597D01*
X174649591Y-76481338D01*
X174757162Y-76221641D01*
X174812000Y-75945947D01*
X174812000Y-75664853D01*
X174757162Y-75389159D01*
X174649591Y-75129462D01*
X174493424Y-74895740D01*
X174294660Y-74696976D01*
X174060938Y-74540809D01*
X173801241Y-74433238D01*
X173525547Y-74378400D01*
X173244453Y-74378400D01*
X172968759Y-74433238D01*
X172709062Y-74540809D01*
X172475340Y-74696976D01*
X172276576Y-74895740D01*
X172120409Y-75129462D01*
X172012838Y-75389159D01*
X171958000Y-75664853D01*
X171958000Y-75945947D01*
X172012838Y-76221641D01*
X172120409Y-76481338D01*
X172158000Y-76537598D01*
X172158000Y-76772049D01*
X172079147Y-76814197D01*
X171968446Y-76905046D01*
X171877597Y-77015747D01*
X171810090Y-77142043D01*
X171768520Y-77279083D01*
X171754483Y-77421600D01*
X160696317Y-77421600D01*
X160696317Y-77396600D01*
X160682280Y-77254083D01*
X160640710Y-77117043D01*
X160573203Y-76990747D01*
X160482354Y-76880046D01*
X160371653Y-76789197D01*
X160267400Y-76733472D01*
X160267400Y-76412597D01*
X160304991Y-76356338D01*
X160412562Y-76096641D01*
X160467400Y-75820947D01*
X160467400Y-75539853D01*
X160412562Y-75264159D01*
X160304991Y-75004462D01*
X160148824Y-74770740D01*
X159950060Y-74571976D01*
X159716338Y-74415809D01*
X159456641Y-74308238D01*
X159180947Y-74253400D01*
X158899853Y-74253400D01*
X158624159Y-74308238D01*
X158364462Y-74415809D01*
X158130740Y-74571976D01*
X157931976Y-74770740D01*
X157775809Y-75004462D01*
X157668238Y-75264159D01*
X157613400Y-75539853D01*
X157613400Y-75820947D01*
X157668238Y-76096641D01*
X157775809Y-76356338D01*
X157813400Y-76412598D01*
X157813400Y-76760625D01*
X157759947Y-76789197D01*
X157649246Y-76880046D01*
X157558397Y-76990747D01*
X157490890Y-77117043D01*
X157449320Y-77254083D01*
X157435283Y-77396600D01*
X145634117Y-77396600D01*
X145620080Y-77254083D01*
X145578510Y-77117043D01*
X145511003Y-76990747D01*
X145420154Y-76880046D01*
X145309453Y-76789197D01*
X145230600Y-76747049D01*
X145230600Y-76437997D01*
X145268191Y-76381738D01*
X145375762Y-76122041D01*
X145430600Y-75846347D01*
X145430600Y-75565253D01*
X145375762Y-75289559D01*
X145268191Y-75029862D01*
X145112024Y-74796140D01*
X144913260Y-74597376D01*
X144679538Y-74441209D01*
X144419841Y-74333638D01*
X144144147Y-74278800D01*
X143863053Y-74278800D01*
X143587359Y-74333638D01*
X143327662Y-74441209D01*
X143093940Y-74597376D01*
X142895176Y-74796140D01*
X142739009Y-75029862D01*
X142631438Y-75289559D01*
X142576600Y-75565253D01*
X142576600Y-75846347D01*
X142631438Y-76122041D01*
X142739009Y-76381738D01*
X142776601Y-76437998D01*
X142776601Y-76747049D01*
X142697747Y-76789197D01*
X142587046Y-76880046D01*
X142496197Y-76990747D01*
X142428690Y-77117043D01*
X142387120Y-77254083D01*
X142373083Y-77396600D01*
X130775117Y-77396600D01*
X130761080Y-77254083D01*
X130719510Y-77117043D01*
X130652003Y-76990747D01*
X130561154Y-76880046D01*
X130450453Y-76789197D01*
X130397000Y-76760626D01*
X130397000Y-76412597D01*
X130434591Y-76356338D01*
X130542162Y-76096641D01*
X130597000Y-75820947D01*
X130597000Y-75539853D01*
X130542162Y-75264159D01*
X130434591Y-75004462D01*
X130278424Y-74770740D01*
X130079660Y-74571976D01*
X129845938Y-74415809D01*
X129586241Y-74308238D01*
X129310547Y-74253400D01*
X129029453Y-74253400D01*
X128753759Y-74308238D01*
X128494062Y-74415809D01*
X128260340Y-74571976D01*
X128061576Y-74770740D01*
X127905409Y-75004462D01*
X127797838Y-75264159D01*
X127743000Y-75539853D01*
X127743000Y-75820947D01*
X127797838Y-76096641D01*
X127905409Y-76356338D01*
X127943000Y-76412598D01*
X127943000Y-76733472D01*
X127838747Y-76789197D01*
X127728046Y-76880046D01*
X127637197Y-76990747D01*
X127569690Y-77117043D01*
X127528120Y-77254083D01*
X127514083Y-77396600D01*
X116144717Y-77396600D01*
X116130680Y-77254083D01*
X116089110Y-77117043D01*
X116021603Y-76990747D01*
X115930754Y-76880046D01*
X115820053Y-76789197D01*
X115766600Y-76760626D01*
X115766600Y-76412597D01*
X115804191Y-76356338D01*
X115911762Y-76096641D01*
X115966600Y-75820947D01*
X115966600Y-75539853D01*
X115911762Y-75264159D01*
X115804191Y-75004462D01*
X115648024Y-74770740D01*
X115449260Y-74571976D01*
X115215538Y-74415809D01*
X114955841Y-74308238D01*
X114680147Y-74253400D01*
X114399053Y-74253400D01*
X114123359Y-74308238D01*
X113863662Y-74415809D01*
X113629940Y-74571976D01*
X113431176Y-74770740D01*
X113275009Y-75004462D01*
X113167438Y-75264159D01*
X113112600Y-75539853D01*
X113112600Y-75820947D01*
X113167438Y-76096641D01*
X113275009Y-76356338D01*
X113312600Y-76412598D01*
X113312600Y-76733472D01*
X113208347Y-76789197D01*
X113097646Y-76880046D01*
X113006797Y-76990747D01*
X112939290Y-77117043D01*
X112897720Y-77254083D01*
X112883683Y-77396600D01*
X101539717Y-77396600D01*
X101525680Y-77254083D01*
X101484110Y-77117043D01*
X101416603Y-76990747D01*
X101325754Y-76880046D01*
X101215053Y-76789197D01*
X101110800Y-76733472D01*
X101110800Y-76412597D01*
X101148391Y-76356338D01*
X101255962Y-76096641D01*
X101310800Y-75820947D01*
X101310800Y-75539853D01*
X101255962Y-75264159D01*
X101148391Y-75004462D01*
X100992224Y-74770740D01*
X100793460Y-74571976D01*
X100559738Y-74415809D01*
X100300041Y-74308238D01*
X100024347Y-74253400D01*
X99743253Y-74253400D01*
X99467559Y-74308238D01*
X99207862Y-74415809D01*
X98974140Y-74571976D01*
X98775376Y-74770740D01*
X98619209Y-75004462D01*
X98511638Y-75264159D01*
X98456800Y-75539853D01*
X98456800Y-75820947D01*
X98511638Y-76096641D01*
X98619209Y-76356338D01*
X98656800Y-76412598D01*
X98656800Y-76760625D01*
X98603347Y-76789197D01*
X98492646Y-76880046D01*
X98401797Y-76990747D01*
X98334290Y-77117043D01*
X98292720Y-77254083D01*
X98278683Y-77396600D01*
X87127000Y-77396600D01*
X87127000Y-73127000D01*
X244373000Y-73127000D01*
X244373000Y-117373000D01*
M02*
